<?xml version="1.0" encoding="utf-8"?>
<!-- Generator: Adobe Illustrator 22.1.0, SVG Export Plug-In . SVG Version: 6.00 Build 0)  -->
<svg version="1.2" baseProfile="tiny" id="g-mt-economy-5-income-components-medium-img" xmlns="http://www.w3.org/2000/svg" xmlns:xlink="http://www.w3.org/1999/xlink"
	 x="0px" y="0px" viewBox="0 0 600 520" xml:space="preserve">
<g>
	<g transform="translate(50,30)">
		<g display="none">
			<rect x="24.386" y="201.163" display="inline" fill="#444444" stroke="#444444" width="32.775" height="45.538"/>
			<rect x="65.354" y="212.019" display="inline" fill="#444444" stroke="#444444" width="32.775" height="34.682"/>
			<rect x="106.323" y="225.519" display="inline" fill="#E5AE89" stroke="#E5AE89" width="32.775" height="21.182"/>
			<rect x="147.292" y="218.093" display="inline" fill="#F2DF91" stroke="#F2DF91" width="32.775" height="28.608"/>
			<rect x="188.26" y="201.567" display="inline" fill="#86BF86" stroke="#86BF86" width="32.775" height="45.134"/>
			<rect x="229.229" y="212.766" display="inline" fill="#86BF86" stroke="#86BF86" width="32.775" height="33.935"/>
			<rect x="270.198" y="209.65" display="inline" fill="#86BF86" stroke="#86BF86" width="32.775" height="37.051"/>
			<rect x="311.166" y="204.983" display="inline" fill="#86BF86" stroke="#86BF86" width="32.775" height="41.718"/>
			<rect x="352.135" y="213.571" display="inline" fill="#86BF86" stroke="#86BF86" width="32.775" height="33.13"/>
			<rect x="393.104" y="201.696" display="inline" fill="#86BF86" stroke="#86BF86" width="32.775" height="45.005"/>
			<rect x="434.072" y="213.204" display="inline" fill="#86BF86" stroke="#86BF86" width="32.775" height="33.497"/>
		</g>
		<g display="none">
			<rect x="24.386" y="168.203" display="inline" fill="#444444" stroke="#444444" width="32.775" height="15.602"/>
			<rect x="65.354" y="178.596" display="inline" fill="#444444" stroke="#444444" width="32.775" height="15.131"/>
			<rect x="106.323" y="189.422" display="inline" fill="#E5AE89" stroke="#E5AE89" width="32.775" height="18.346"/>
			<rect x="147.292" y="185.378" display="inline" fill="#F2DF91" stroke="#F2DF91" width="32.775" height="15.823"/>
			<rect x="188.26" y="171.63" display="inline" fill="#86BF86" stroke="#86BF86" width="32.775" height="14.212"/>
			<rect x="229.229" y="176.398" display="inline" fill="#86BF86" stroke="#86BF86" width="32.775" height="14.729"/>
			<rect x="270.198" y="175.591" display="inline" fill="#86BF86" stroke="#86BF86" width="32.775" height="16.691"/>
			<rect x="311.166" y="173.131" display="inline" fill="#86BF86" stroke="#86BF86" width="32.775" height="9.301"/>
			<rect x="352.135" y="179.261" display="inline" fill="#86BF86" stroke="#86BF86" width="32.775" height="15.431"/>
			<rect x="393.104" y="169.375" display="inline" fill="#86BF86" stroke="#86BF86" width="32.775" height="14.965"/>
			<rect x="434.072" y="180.078" display="inline" fill="#86BF86" stroke="#86BF86" width="32.775" height="17.924"/>
		</g>
	</g>
	<g transform="translate(50,30)">
		<g display="none">
			<rect x="24.386" y="321.953" display="inline" fill="#444444" stroke="#444444" width="32.775" height="17.358"/>
			<rect x="65.354" y="331.876" display="inline" fill="#444444" stroke="#444444" width="32.775" height="18.291"/>
			<rect x="106.323" y="345.916" display="inline" fill="#E5AE89" stroke="#E5AE89" width="32.775" height="17.751"/>
			<rect x="147.292" y="339.349" display="inline" fill="#F2DF91" stroke="#F2DF91" width="32.775" height="16.892"/>
			<rect x="188.26" y="323.99" display="inline" fill="#86BF86" stroke="#86BF86" width="32.775" height="15.725"/>
			<rect x="229.229" y="329.275" display="inline" fill="#86BF86" stroke="#86BF86" width="32.775" height="21.639"/>
			<rect x="270.198" y="330.429" display="inline" fill="#86BF86" stroke="#86BF86" width="32.775" height="17.368"/>
			<rect x="311.166" y="320.58" display="inline" fill="#86BF86" stroke="#86BF86" width="32.775" height="22.551"/>
			<rect x="352.135" y="332.84" display="inline" fill="#86BF86" stroke="#86BF86" width="32.775" height="18.879"/>
			<rect x="393.104" y="322.487" display="inline" fill="#86BF86" stroke="#86BF86" width="32.775" height="17.356"/>
			<rect x="434.072" y="336.15" display="inline" fill="#86BF86" stroke="#86BF86" width="32.775" height="15.202"/>
		</g>
	</g>
	<g transform="translate(50,30)">
		<g>
			<line fill="none" stroke="#666666" stroke-dasharray="2" x1="22.192" y1="16.624" x2="535.5" y2="16.5"/>
		</g>
		<g>
			<rect x="30.386" y="16.624" fill="none" stroke="#444444" stroke-width="2" width="32.775" height="89.685"/>
			<rect x="71.354" y="28.096" fill="none" stroke="#444444" stroke-width="2" width="32.775" height="78.213"/>
			<rect x="112.323" y="36.87" fill="none" stroke="#E5AE89" stroke-width="2" width="32.775" height="69.439"/>
			<rect x="153.292" y="34.844" fill="none" stroke="#F2DF91" stroke-width="2" width="32.775" height="71.465"/>
			<rect x="194.26" y="19.863" fill="none" stroke="#86BF86" stroke-width="2" width="32.775" height="86.446"/>
			<rect x="235.229" y="28.46" fill="none" stroke="#86BF86" stroke-width="2" width="32.775" height="77.849"/>
			<rect x="276.198" y="27.316" fill="none" stroke="#86BF86" stroke-width="2" width="32.775" height="78.994"/>
			<rect x="317.166" y="18.968" fill="none" stroke="#86BF86" stroke-width="2" width="32.775" height="87.341"/>
			<rect x="358.135" y="29.271" fill="none" stroke="#86BF86" stroke-width="2" width="32.775" height="77.039"/>
			<rect x="399.104" y="24.844" fill="none" stroke="#86BF86" stroke-width="2" width="32.775" height="81.465"/>
			<rect x="440.072" y="25.309" fill="none" stroke="#86BF86" stroke-width="2" width="32.775" height="81"/>
		</g>
		<g>
			<rect x="30.386" y="60.771" fill="#444444" stroke="#444444" width="32.775" height="45.538"/>
			<rect x="71.354" y="71.627" fill="#444444" stroke="#444444" width="32.775" height="34.682"/>
			<rect x="112.323" y="85.127" fill="#E5AE89" stroke="#E5AE89" width="32.775" height="21.182"/>
			<rect x="153.292" y="77.701" fill="#F2DF91" stroke="#F2DF91" width="32.775" height="28.608"/>
			<rect x="194.26" y="61.176" fill="#86BF86" stroke="#86BF86" width="32.775" height="45.134"/>
			<rect x="235.229" y="72.374" fill="#86BF86" stroke="#86BF86" width="32.775" height="33.935"/>
			<rect x="276.198" y="69.258" fill="#86BF86" stroke="#86BF86" width="32.775" height="37.051"/>
			<rect x="317.166" y="64.591" fill="#86BF86" stroke="#86BF86" width="32.775" height="41.718"/>
			<rect x="358.135" y="73.179" fill="#86BF86" stroke="#86BF86" width="32.775" height="33.13"/>
			<rect x="399.104" y="61.304" fill="#86BF86" stroke="#86BF86" width="32.775" height="45.005"/>
			<rect x="440.072" y="72.812" fill="#86BF86" stroke="#86BF86" width="32.775" height="33.497"/>
		</g>
		<g display="none">
			<rect x="30.386" y="39.414" display="inline" fill="#444444" stroke="#444444" width="32.775" height="17.358"/>
			<rect x="71.354" y="49.336" display="inline" fill="#444444" stroke="#444444" width="32.775" height="18.291"/>
			<rect x="112.323" y="63.376" display="inline" fill="#E5AE89" stroke="#E5AE89" width="32.775" height="17.751"/>
			<rect x="153.292" y="56.809" display="inline" fill="#F2DF91" stroke="#F2DF91" width="32.775" height="16.892"/>
			<rect x="194.26" y="41.451" display="inline" fill="#86BF86" stroke="#86BF86" width="32.775" height="15.725"/>
			<rect x="235.229" y="46.736" display="inline" fill="#86BF86" stroke="#86BF86" width="32.775" height="21.639"/>
			<rect x="276.198" y="47.89" display="inline" fill="#86BF86" stroke="#86BF86" width="32.775" height="17.368"/>
			<rect x="317.166" y="38.04" display="inline" fill="#86BF86" stroke="#86BF86" width="32.775" height="22.551"/>
			<rect x="358.135" y="50.3" display="inline" fill="#86BF86" stroke="#86BF86" width="32.775" height="18.879"/>
			<rect x="399.104" y="39.947" display="inline" fill="#86BF86" stroke="#86BF86" width="32.775" height="17.356"/>
			<rect x="440.072" y="53.61" display="inline" fill="#86BF86" stroke="#86BF86" width="32.775" height="15.202"/>
		</g>
		<g display="none">
			<rect x="30.386" y="23.811" display="inline" fill="#444444" stroke="#444444" width="32.775" height="15.602"/>
			<rect x="71.354" y="34.205" display="inline" fill="#444444" stroke="#444444" width="32.775" height="15.131"/>
			<rect x="112.323" y="45.03" display="inline" fill="#E5AE89" stroke="#E5AE89" width="32.775" height="18.346"/>
			<rect x="153.292" y="40.986" display="inline" fill="#F2DF91" stroke="#F2DF91" width="32.775" height="15.823"/>
			<rect x="194.26" y="27.238" display="inline" fill="#86BF86" stroke="#86BF86" width="32.775" height="14.212"/>
			<rect x="235.229" y="32.007" display="inline" fill="#86BF86" stroke="#86BF86" width="32.775" height="14.729"/>
			<rect x="276.198" y="31.199" display="inline" fill="#86BF86" stroke="#86BF86" width="32.775" height="16.691"/>
			<rect x="317.166" y="28.739" display="inline" fill="#86BF86" stroke="#86BF86" width="32.775" height="9.301"/>
			<rect x="358.135" y="34.87" display="inline" fill="#86BF86" stroke="#86BF86" width="32.775" height="15.431"/>
			<rect x="399.104" y="24.983" display="inline" fill="#86BF86" stroke="#86BF86" width="32.775" height="14.965"/>
			<rect x="440.072" y="35.686" display="inline" fill="#86BF86" stroke="#86BF86" width="32.775" height="17.924"/>
		</g>
		<g transform="translate(0,140)">
			<path fill="none" stroke="#000000" d="M22.651-29.008v-4.293H481.5v4.293"/>
			<g transform="translate(26.785714285714302,0)">
				<line fill="none" stroke="#000000" x1="19.987" y1="-33.691" x2="19.987" y2="-29.008"/>
				<text transform="matrix(1 0 0 1 12.1738 -21.125)" display="none" font-family="'ArialMT'" font-size="10px">US</text>
			</g>
			<g transform="translate(71.42857142857144,0)">
				<line fill="none" stroke="#000000" x1="16.313" y1="-33.691" x2="16.313" y2="-29.008"/>
				<g display="none">
					<text transform="matrix(1 0 0 1 8.3414 -21.125)" display="inline" font-family="'ArialMT'" font-size="10px">M</text>
					<text transform="matrix(1 0 0 1 16.6715 -21.125)" display="inline" font-family="'ArialMT'" font-size="10px">T</text>
				</g>
			</g>
			<g transform="translate(116.07142857142858,0)">
				<line fill="none" stroke="#000000" x1="12.639" y1="-33.691" x2="12.639" y2="-29.008"/>
				<g display="none">
					<text transform="matrix(1 0 0 1 -0.1276 -21.125)" display="inline" font-family="'ArialMT'" font-size="10px">Rural</text>
					<text transform="matrix(1 0 0 1 -11.2482 -9.125)" display="inline" font-family="'ArialMT'" font-size="10px">Mountains</text>
				</g>
			</g>
			<g transform="translate(160.71428571428572,0)">
				<line fill="none" stroke="#000000" x1="8.965" y1="-33.691" x2="8.965" y2="-29.008"/>
				<g display="none">
					<text transform="matrix(1 0 0 1 -3.7773 -21.125)" display="inline" font-family="'ArialMT'" font-size="10px">Rural</text>
					<text transform="matrix(1 0 0 1 -5.4472 -9.125)" display="inline" font-family="'ArialMT'" font-size="10px">Plains</text>
				</g>
			</g>
			<g transform="translate(205.35714285714286,0)">
				<line fill="none" stroke="#000000" x1="5.291" y1="-33.691" x2="5.291" y2="-29.008"/>
				<text transform="matrix(1 0 0 1 -11.3181 -21.125)" display="none" font-family="'ArialMT'" font-size="10px">Billings</text>
			</g>
			<g transform="translate(250,0)">
				<line fill="none" stroke="#000000" x1="1.617" y1="-33.691" x2="1.617" y2="-29.008"/>
				<g display="none">
					<text transform="matrix(1 0 0 1 -20.2456 -21.125)" display="inline" font-family="'ArialMT'" font-size="10px">Missoula/</text>
					<text transform="matrix(1 0 0 1 -19.4131 -9.125)" display="inline" font-family="'ArialMT'" font-size="10px">Bitterroot</text>
				</g>
			</g>
			<g transform="translate(294.6428571428571,0)">
				<line fill="none" stroke="#000000" x1="-2.058" y1="-33.691" x2="-2.058" y2="-29.008"/>
				<g display="none">
					<text transform="matrix(1 0 0 1 -15.2815 -21.125)" display="inline" font-family="'ArialMT'" font-size="10px">Great</text>
					<text transform="matrix(1 0 0 1 -13.3333 -9.125)" display="inline" font-family="'ArialMT'" font-size="10px">Falls</text>
				</g>
			</g>
			<g transform="translate(339.2857142857143,0)">
				<line fill="none" stroke="#000000" x1="-5.732" y1="-33.691" x2="-5.732" y2="-29.008"/>
				<text transform="matrix(1 0 0 1 -27.5484 -21.125)" display="none" font-family="'ArialMT'" font-size="10px">Bozeman</text>
			</g>
			<g transform="translate(383.9285714285714,0)">
				<line fill="none" stroke="#000000" x1="-9.406" y1="-33.691" x2="-9.406" y2="-29.008"/>
				<text transform="matrix(1 0 0 1 -28.6961 -21.125)" display="none" font-family="'ArialMT'" font-size="10px">Kalispell</text>
			</g>
			<g transform="translate(428.5714285714285,0)">
				<line fill="none" stroke="#000000" x1="-13.08" y1="-33.691" x2="-13.08" y2="-29.008"/>
				<text transform="matrix(1 0 0 1 -29.5695 -21.125)" display="none" font-family="'ArialMT'" font-size="10px">Helena</text>
			</g>
			<g transform="translate(473.21428571428567,0)">
				<line fill="none" stroke="#000000" x1="-16.754" y1="-33.691" x2="-16.754" y2="-29.008"/>
				<g display="none">
					<text transform="matrix(1 0 0 1 -30.4389 -21.125)" display="inline" font-family="'ArialMT'" font-size="10px">Butte/</text>
					<text transform="matrix(1 0 0 1 -39.894 -9.125)" display="inline" font-family="'ArialMT'" font-size="10px">Anaconda</text>
				</g>
			</g>
		</g>
		<g>
			<path fill="none" stroke="#000000" d="M22.651,106.699V-2.57"/>
			<g transform="translate(0,140.5)">
				<line fill="none" stroke="#000000" x1="22.192" y1="-33.801" x2="16.686" y2="-33.801"/>
				<text transform="matrix(1 0 0 1 1.7793 -31.3027)" display="none" font-family="'ArialMT'" font-size="10px">$0</text>
			</g>
			<g transform="translate(0,117.16666666666667)">
				<line fill="none" stroke="#000000" x1="22.192" y1="-28.679" x2="16.686" y2="-28.679"/>
				<text transform="matrix(1 0 0 1 -23.2451 -26.1813)" display="none" font-family="'ArialMT'" font-size="10px">$10,000</text>
			</g>
			<g transform="translate(0,93.83333333333334)">
				<line fill="none" stroke="#000000" x1="22.192" y1="-23.557" x2="16.686" y2="-23.557"/>
				<text transform="matrix(1 0 0 1 -23.2451 -21.0599)" display="none" font-family="'ArialMT'" font-size="10px">$20,000</text>
			</g>
			<g transform="translate(0,70.5)">
				<line fill="none" stroke="#000000" x1="22.192" y1="-18.435" x2="16.686" y2="-18.435"/>
				<text transform="matrix(1 0 0 1 -23.2451 -15.9375)" display="none" font-family="'ArialMT'" font-size="10px">$30,000</text>
			</g>
			<g transform="translate(0,47.16666666666667)">
				<line fill="none" stroke="#000000" x1="22.192" y1="-13.314" x2="16.686" y2="-13.314"/>
				<text transform="matrix(1 0 0 1 -23.2451 -10.8161)" display="none" font-family="'ArialMT'" font-size="10px">$40,000</text>
			</g>
			<g transform="translate(0,23.83333333333333)">
				<line fill="none" stroke="#000000" x1="22.192" y1="-8.192" x2="16.686" y2="-8.192"/>
				<text transform="matrix(1 0 0 1 -23.2451 -5.6937)" display="none" font-family="'ArialMT'" font-size="10px">$50,000</text>
			</g>
			<g transform="translate(0,0.5)">
				<line fill="none" stroke="#000000" x1="22.192" y1="-3.07" x2="16.686" y2="-3.07"/>
				<text transform="matrix(1 0 0 1 -23.2451 -0.5732)" display="none" font-family="'ArialMT'" font-size="10px">$60,000</text>
			</g>
		</g>
	</g>
	<g>
		<g>
			<rect x="80.386" y="411.771" fill="none" stroke="#444444" width="32.775" height="45.538"/>
			<rect x="121.354" y="422.627" fill="none" stroke="#444444" width="32.775" height="34.682"/>
			<rect x="162.323" y="436.127" fill="none" stroke="#E5AE89" width="32.775" height="21.182"/>
			<rect x="203.292" y="428.701" fill="none" stroke="#F2DF91" width="32.775" height="28.608"/>
			<rect x="244.26" y="412.176" fill="none" stroke="#86BF86" width="32.775" height="45.134"/>
			<rect x="285.229" y="423.374" fill="none" stroke="#86BF86" width="32.775" height="33.935"/>
			<rect x="326.198" y="420.258" fill="none" stroke="#86BF86" width="32.775" height="37.051"/>
			<rect x="367.166" y="415.591" fill="none" stroke="#86BF86" width="32.775" height="41.718"/>
			<rect x="408.135" y="424.179" fill="none" stroke="#86BF86" width="32.775" height="33.13"/>
			<rect x="449.104" y="412.304" fill="none" stroke="#86BF86" width="32.775" height="45.005"/>
			<rect x="490.072" y="423.812" fill="none" stroke="#86BF86" width="32.775" height="33.497"/>
		</g>
		<g>
			<rect x="80.386" y="367.164" fill="none" stroke="#444444" stroke-width="2" width="32.775" height="89.685"/>
			<rect x="121.354" y="378.636" fill="none" stroke="#444444" stroke-width="2" width="32.775" height="78.213"/>
			<rect x="162.323" y="387.41" fill="none" stroke="#E5AE89" stroke-width="2" width="32.775" height="69.439"/>
			<rect x="203.292" y="385.384" fill="none" stroke="#F2DF91" stroke-width="2" width="32.775" height="71.465"/>
			<rect x="244.26" y="370.403" fill="none" stroke="#86BF86" stroke-width="2" width="32.775" height="86.446"/>
			<rect x="285.229" y="379" fill="none" stroke="#86BF86" stroke-width="2" width="32.775" height="77.849"/>
			<rect x="326.198" y="377.855" fill="none" stroke="#86BF86" stroke-width="2" width="32.775" height="78.994"/>
			<rect x="367.166" y="369.507" fill="none" stroke="#86BF86" stroke-width="2" width="32.775" height="87.341"/>
			<rect x="408.135" y="379.81" fill="none" stroke="#86BF86" stroke-width="2" width="32.775" height="77.039"/>
			<rect x="449.104" y="375.383" fill="none" stroke="#86BF86" stroke-width="2" width="32.775" height="81.465"/>
			<rect x="490.072" y="375.849" fill="none" stroke="#86BF86" stroke-width="2" width="32.775" height="81"/>
		</g>
		<g>
			<rect x="80.386" y="378.351" fill="#444444" stroke="#444444" width="32.775" height="15.602"/>
			<rect x="121.354" y="388.744" fill="#444444" stroke="#444444" width="32.775" height="15.131"/>
			<rect x="162.323" y="399.57" fill="#E5AE89" stroke="#E5AE89" width="32.775" height="18.346"/>
			<rect x="203.292" y="395.526" fill="#F2DF91" stroke="#F2DF91" width="32.775" height="15.823"/>
			<rect x="244.26" y="381.778" fill="#86BF86" stroke="#86BF86" width="32.775" height="14.212"/>
			<rect x="285.229" y="386.546" fill="#86BF86" stroke="#86BF86" width="32.775" height="14.729"/>
			<rect x="326.198" y="385.738" fill="#86BF86" stroke="#86BF86" width="32.775" height="16.691"/>
			<rect x="367.166" y="383.278" fill="#86BF86" stroke="#86BF86" width="32.775" height="9.301"/>
			<rect x="408.135" y="389.409" fill="#86BF86" stroke="#86BF86" width="32.775" height="15.431"/>
			<rect x="449.104" y="379.522" fill="#86BF86" stroke="#86BF86" width="32.775" height="14.965"/>
			<rect x="490.072" y="390.226" fill="#86BF86" stroke="#86BF86" width="32.775" height="17.924"/>
		</g>
		<g transform="translate(0,140)">
			<path fill="none" stroke="#000000" d="M72.651,321.532v-4.293H531.5v4.293"/>
			<g transform="translate(26.785714285714302,0)">
				<line fill="none" stroke="#000000" x1="69.987" y1="316.849" x2="69.987" y2="321.532"/>
			</g>
			<g transform="translate(71.42857142857144,0)">
				<line fill="none" stroke="#000000" x1="66.313" y1="316.849" x2="66.313" y2="321.532"/>
			</g>
			<g transform="translate(116.07142857142858,0)">
				<line fill="none" stroke="#000000" x1="62.639" y1="316.849" x2="62.639" y2="321.532"/>
			</g>
			<g transform="translate(160.71428571428572,0)">
				<line fill="none" stroke="#000000" x1="58.965" y1="316.849" x2="58.965" y2="321.532"/>
			</g>
			<g transform="translate(205.35714285714286,0)">
				<line fill="none" stroke="#000000" x1="55.291" y1="316.849" x2="55.291" y2="321.532"/>
			</g>
			<g transform="translate(250,0)">
				<line fill="none" stroke="#000000" x1="51.617" y1="316.849" x2="51.617" y2="321.532"/>
			</g>
			<g transform="translate(294.6428571428571,0)">
				<line fill="none" stroke="#000000" x1="47.942" y1="316.849" x2="47.942" y2="321.532"/>
			</g>
			<g transform="translate(339.2857142857143,0)">
				<line fill="none" stroke="#000000" x1="44.268" y1="316.849" x2="44.268" y2="321.532"/>
			</g>
			<g transform="translate(383.9285714285714,0)">
				<line fill="none" stroke="#000000" x1="40.594" y1="316.849" x2="40.594" y2="321.532"/>
			</g>
			<g transform="translate(428.5714285714285,0)">
				<line fill="none" stroke="#000000" x1="36.92" y1="316.849" x2="36.92" y2="321.532"/>
			</g>
			<g transform="translate(473.21428571428567,0)">
				<line fill="none" stroke="#000000" x1="33.246" y1="316.849" x2="33.246" y2="321.532"/>
			</g>
		</g>
		<g>
			<path fill="none" stroke="#000000" d="M72.651,457.239V347.969"/>
			<g transform="translate(0,140.5)">
				<line fill="none" stroke="#000000" x1="72.192" y1="316.739" x2="66.686" y2="316.739"/>
				<text transform="matrix(1 0 0 1 51.7793 319.2363)" display="none" font-family="'ArialMT'" font-size="10px">$0</text>
			</g>
			<g transform="translate(0,117.16666666666667)">
				<line fill="none" stroke="#000000" x1="72.192" y1="321.861" x2="66.686" y2="321.861"/>
				<text transform="matrix(1 0 0 1 26.7549 324.3578)" display="none" font-family="'ArialMT'" font-size="10px">$10,000</text>
			</g>
			<g transform="translate(0,93.83333333333334)">
				<line fill="none" stroke="#000000" x1="72.192" y1="326.982" x2="66.686" y2="326.982"/>
				<text transform="matrix(1 0 0 1 26.7549 329.4801)" display="none" font-family="'ArialMT'" font-size="10px">$20,000</text>
			</g>
			<g transform="translate(0,70.5)">
				<line fill="none" stroke="#000000" x1="72.192" y1="332.104" x2="66.686" y2="332.104"/>
				<text transform="matrix(1 0 0 1 26.7549 334.6016)" display="none" font-family="'ArialMT'" font-size="10px">$30,000</text>
			</g>
			<g transform="translate(0,47.16666666666667)">
				<line fill="none" stroke="#000000" x1="72.192" y1="337.226" x2="66.686" y2="337.226"/>
				<text transform="matrix(1 0 0 1 26.7549 339.723)" display="none" font-family="'ArialMT'" font-size="10px">$40,000</text>
			</g>
			<g transform="translate(0,23.83333333333333)">
				<line fill="none" stroke="#000000" x1="72.192" y1="342.348" x2="66.686" y2="342.348"/>
				<text transform="matrix(1 0 0 1 26.7549 344.8454)" display="none" font-family="'ArialMT'" font-size="10px">$50,000</text>
			</g>
			<g transform="translate(0,0.5)">
				<line fill="none" stroke="#000000" x1="72.192" y1="347.469" x2="66.686" y2="347.469"/>
				<text transform="matrix(1 0 0 1 26.7549 349.9668)" display="none" font-family="'ArialMT'" font-size="10px">$60,000</text>
			</g>
		</g>
	</g>
	<g>
		<g>
			<rect x="80.386" y="208.161" fill="none" stroke="#444444" stroke-width="2" width="32.775" height="89.685"/>
			<rect x="121.354" y="219.633" fill="none" stroke="#444444" stroke-width="2" width="32.775" height="78.213"/>
			<rect x="162.323" y="228.407" fill="none" stroke="#E5AE89" stroke-width="2" width="32.775" height="69.439"/>
			<rect x="203.292" y="226.381" fill="none" stroke="#F2DF91" stroke-width="2" width="32.775" height="71.465"/>
			<rect x="244.26" y="211.4" fill="none" stroke="#86BF86" stroke-width="2" width="32.775" height="86.446"/>
			<rect x="285.229" y="219.997" fill="none" stroke="#86BF86" stroke-width="2" width="32.775" height="77.849"/>
			<rect x="326.198" y="218.852" fill="none" stroke="#86BF86" stroke-width="2" width="32.775" height="78.994"/>
			<rect x="367.166" y="210.505" fill="none" stroke="#86BF86" stroke-width="2" width="32.775" height="87.341"/>
			<rect x="408.135" y="220.807" fill="none" stroke="#86BF86" stroke-width="2" width="32.775" height="77.039"/>
			<rect x="449.104" y="216.381" fill="none" stroke="#86BF86" stroke-width="2" width="32.775" height="81.465"/>
			<rect x="490.072" y="216.846" fill="none" stroke="#86BF86" stroke-width="2" width="32.775" height="81"/>
		</g>
		<g>
			<rect x="80.386" y="234.95" fill="#444444" stroke="#444444" width="32.775" height="17.358"/>
			<rect x="121.354" y="244.873" fill="#444444" stroke="#444444" width="32.775" height="18.291"/>
			<rect x="162.323" y="258.913" fill="#E5AE89" stroke="#E5AE89" width="32.775" height="17.751"/>
			<rect x="203.292" y="252.346" fill="#F2DF91" stroke="#F2DF91" width="32.775" height="16.892"/>
			<rect x="244.26" y="236.988" fill="#86BF86" stroke="#86BF86" width="32.775" height="15.725"/>
			<rect x="285.229" y="242.273" fill="#86BF86" stroke="#86BF86" width="32.775" height="21.639"/>
			<rect x="326.198" y="243.426" fill="#86BF86" stroke="#86BF86" width="32.775" height="17.368"/>
			<rect x="367.166" y="233.577" fill="#86BF86" stroke="#86BF86" width="32.775" height="22.551"/>
			<rect x="408.135" y="245.837" fill="#86BF86" stroke="#86BF86" width="32.775" height="18.879"/>
			<rect x="449.104" y="235.484" fill="#86BF86" stroke="#86BF86" width="32.775" height="17.356"/>
			<rect x="490.072" y="249.147" fill="#86BF86" stroke="#86BF86" width="32.775" height="15.202"/>
		</g>
		<g transform="translate(0,140)">
			<path fill="none" stroke="#000000" d="M72.651,162.529v-4.293H531.5v4.293"/>
			<g transform="translate(26.785714285714302,0)">
				<line fill="none" stroke="#000000" x1="69.987" y1="157.846" x2="69.987" y2="162.529"/>
			</g>
			<g transform="translate(71.42857142857144,0)">
				<line fill="none" stroke="#000000" x1="66.313" y1="157.846" x2="66.313" y2="162.529"/>
			</g>
			<g transform="translate(116.07142857142858,0)">
				<line fill="none" stroke="#000000" x1="62.639" y1="157.846" x2="62.639" y2="162.529"/>
			</g>
			<g transform="translate(160.71428571428572,0)">
				<line fill="none" stroke="#000000" x1="58.965" y1="157.846" x2="58.965" y2="162.529"/>
			</g>
			<g transform="translate(205.35714285714286,0)">
				<line fill="none" stroke="#000000" x1="55.291" y1="157.846" x2="55.291" y2="162.529"/>
			</g>
			<g transform="translate(250,0)">
				<line fill="none" stroke="#000000" x1="51.617" y1="157.846" x2="51.617" y2="162.529"/>
			</g>
			<g transform="translate(294.6428571428571,0)">
				<line fill="none" stroke="#000000" x1="47.942" y1="157.846" x2="47.942" y2="162.529"/>
			</g>
			<g transform="translate(339.2857142857143,0)">
				<line fill="none" stroke="#000000" x1="44.268" y1="157.846" x2="44.268" y2="162.529"/>
			</g>
			<g transform="translate(383.9285714285714,0)">
				<line fill="none" stroke="#000000" x1="40.594" y1="157.846" x2="40.594" y2="162.529"/>
			</g>
			<g transform="translate(428.5714285714285,0)">
				<line fill="none" stroke="#000000" x1="36.92" y1="157.846" x2="36.92" y2="162.529"/>
			</g>
			<g transform="translate(473.21428571428567,0)">
				<line fill="none" stroke="#000000" x1="33.246" y1="157.846" x2="33.246" y2="162.529"/>
			</g>
		</g>
		<g>
			<path fill="none" stroke="#000000" d="M72.651,298.236V188.967"/>
			<g transform="translate(0,140.5)">
				<line fill="none" stroke="#000000" x1="72.192" y1="157.736" x2="66.686" y2="157.736"/>
				<text transform="matrix(1 0 0 1 51.7793 160.2329)" display="none" font-family="'ArialMT'" font-size="10px">$0</text>
			</g>
			<g transform="translate(0,117.16666666666667)">
				<line fill="none" stroke="#000000" x1="72.192" y1="162.858" x2="66.686" y2="162.858"/>
				<text transform="matrix(1 0 0 1 26.7549 165.3553)" display="none" font-family="'ArialMT'" font-size="10px">$10,000</text>
			</g>
			<g transform="translate(0,93.83333333333334)">
				<line fill="none" stroke="#000000" x1="72.192" y1="167.98" x2="66.686" y2="167.98"/>
				<text transform="matrix(1 0 0 1 26.7549 170.4767)" display="none" font-family="'ArialMT'" font-size="10px">$20,000</text>
			</g>
			<g transform="translate(0,70.5)">
				<line fill="none" stroke="#000000" x1="72.192" y1="173.101" x2="66.686" y2="173.101"/>
				<text transform="matrix(1 0 0 1 26.7549 175.5991)" display="none" font-family="'ArialMT'" font-size="10px">$30,000</text>
			</g>
			<g transform="translate(0,47.16666666666667)">
				<line fill="none" stroke="#000000" x1="72.192" y1="178.223" x2="66.686" y2="178.223"/>
				<text transform="matrix(1 0 0 1 26.7549 180.7205)" display="none" font-family="'ArialMT'" font-size="10px">$40,000</text>
			</g>
			<g transform="translate(0,23.83333333333333)">
				<line fill="none" stroke="#000000" x1="72.192" y1="183.345" x2="66.686" y2="183.345"/>
				<text transform="matrix(1 0 0 1 26.7549 185.8429)" display="none" font-family="'ArialMT'" font-size="10px">$50,000</text>
			</g>
			<g transform="translate(0,0.5)">
				<line fill="none" stroke="#000000" x1="72.192" y1="188.467" x2="66.686" y2="188.467"/>
				<text transform="matrix(1 0 0 1 26.7549 190.9644)" display="none" font-family="'ArialMT'" font-size="10px">$60,000</text>
			</g>
		</g>
	</g>
	<g>
		<line fill="none" stroke="#000000" stroke-miterlimit="10" x1="533.5" y1="54.5" x2="528.03" y2="54.5"/>
		<g>
			<polygon points="524.5,54.5 529.475,52.467 528.294,54.5 529.475,56.532 			"/>
		</g>
	</g>
	<g>
		<line fill="none" stroke="#000000" stroke-miterlimit="10" x1="533.5" y1="107.5" x2="528.03" y2="107.5"/>
		<g>
			<polygon points="524.5,107.5 529.475,105.467 528.294,107.5 529.475,109.532 			"/>
		</g>
	</g>
	<g>
		<line fill="none" stroke="#000000" stroke-miterlimit="10" x1="533.5" y1="255.5" x2="528.03" y2="255.5"/>
		<g>
			<polygon points="524.5,255.5 529.475,253.467 528.294,255.5 529.475,257.532 			"/>
		</g>
	</g>
	<g>
		<line fill="none" stroke="#000000" stroke-miterlimit="10" x1="538.5" y1="400.5" x2="528.03" y2="400.5"/>
		<g>
			<polygon points="524.5,400.5 529.475,398.467 528.294,400.5 529.475,402.532 			"/>
		</g>
	</g>
	<g>
		<path fill="none" stroke="#000000" stroke-miterlimit="10" d="M535,421.5c-5.478-2.739,1.546-38.815-8.718-39.53"/>
		<g>
			<polygon points="522.847,382.79 527.339,379.839 526.571,382.061 528.12,383.828 			"/>
		</g>
	</g>
</g>
<style type="text/css">
#g-mt-economy-5-income-components-medium-img rect, #g-mt-economy-5-income-components-medium-img circle, #g-mt-economy-5-income-components-medium-img path, #g-mt-economy-5-income-components-medium-img line, #g-mt-economy-5-income-components-medium-img polyline { vector-effect: non-scaling-stroke; }
</style>
</svg>

