<?xml version="1.0" encoding="utf-8"?>
<!-- Generator: Adobe Illustrator 22.1.0, SVG Export Plug-In . SVG Version: 6.00 Build 0)  -->
<svg version="1.2" baseProfile="tiny" id="g-mt-economy-3-regional-change-medium-img" xmlns="http://www.w3.org/2000/svg" xmlns:xlink="http://www.w3.org/1999/xlink"
	 x="0px" y="0px" viewBox="0 0 600 469" xml:space="preserve">
<g>
	<g>
		<g>
			<g transform="translate(170,0)">
				<rect x="-38" y="45" fill="none" stroke="#86BF86" width="160" height="87.5"/>
				<g>
					<g transform="translate(0,48)">
						<line fill="none" stroke="#BBBBBB" stroke-dasharray="2" x1="-8" y1="65" x2="112" y2="65"/>
					</g>
					<g transform="translate(0,32.16666666666667)">
						<line fill="none" stroke="#BBBBBB" stroke-dasharray="2" x1="-8" y1="65" x2="112" y2="65"/>
					</g>
					<g transform="translate(0,16.333333333333336)">
						<line fill="none" stroke="#BBBBBB" stroke-dasharray="2" x1="-8" y1="65" x2="112" y2="65"/>
					</g>
					<g transform="translate(0,0.5)">
						<line fill="none" stroke="#BBBBBB" stroke-dasharray="2" x1="-8" y1="65" x2="112" y2="65"/>
					</g>
				</g>
				<g>
					<rect x="-5.143" y="61.716" fill="#66A61E" width="14.286" height="50.784"/>
					<rect x="9.143" y="100.834" fill="#E7298A" width="14.286" height="11.666"/>
					<rect x="23.429" y="107.421" fill="#A6761D" width="14.286" height="5.079"/>
					<rect x="37.714" y="103.681" fill="#E6AB02" width="14.286" height="8.819"/>
					<rect x="52" y="110.733" fill="#1B9E77" width="14.286" height="1.767"/>
					<rect x="66.286" y="104.051" fill="#D95F02" width="14.286" height="8.449"/>
					<rect x="80.571" y="109.333" fill="#7570B3" width="14.286" height="3.167"/>
					<rect x="94.857" y="110.128" fill="#CCCCCC" width="14.286" height="2.372"/>
				</g>
				<g>
					<line fill="none" stroke="#000000" x1="-8" y1="112.5" x2="112" y2="112.5"/>
				</g>
				<g>
					<text transform="matrix(1 0 0 1 19.784 60)" display="none" font-family="'Arial-BoldMT'" font-size="14px">Bozeman</text>
				</g>
				<g>
					<text transform="matrix(1 0 0 1 15.6797 77)" display="none" font-family="'Arial-ItalicMT'" font-size="14px">+29k jobs</text>
				</g>
				<g transform="translate(5,0)">
					<g transform="translate(0,48)">
						<text transform="matrix(1 0 0 1 -22.5615 68.2)" display="none" font-family="'ArialMT'" font-size="10px">0</text>
					</g>
					<g transform="translate(0,32.16666666666667)">
						<text transform="matrix(1 0 0 1 -27.5615 68.2)" display="none" font-family="'ArialMT'" font-size="10px">5k</text>
					</g>
					<g transform="translate(0,16.333333333333336)">
						<text transform="matrix(1 0 0 1 -33.123 68.2)" display="none" font-family="'ArialMT'" font-size="10px">10k</text>
					</g>
					<g transform="translate(0,0.5)">
						<text transform="matrix(1 0 0 1 -33.123 68.2)" display="none" font-family="'ArialMT'" font-size="10px">15k</text>
					</g>
				</g>
			</g>
			<g transform="translate(340,0)">
				<rect x="-38" y="45" fill="none" stroke="#86BF86" width="160" height="87.5"/>
				<g>
					<g transform="translate(0,48)">
						<line fill="none" stroke="#BBBBBB" stroke-dasharray="2" x1="-8" y1="65" x2="112" y2="65"/>
					</g>
					<g transform="translate(0,32.16666666666667)">
						<line fill="none" stroke="#BBBBBB" stroke-dasharray="2" x1="-8" y1="65" x2="112" y2="65"/>
					</g>
					<g transform="translate(0,16.333333333333336)">
						<line fill="none" stroke="#BBBBBB" stroke-dasharray="2" x1="-8" y1="65" x2="112" y2="65"/>
					</g>
					<g transform="translate(0,0.5)">
						<line fill="none" stroke="#BBBBBB" stroke-dasharray="2" x1="-8" y1="65" x2="112" y2="65"/>
					</g>
				</g>
				<g>
					<rect x="-5.143" y="85.903" fill="#66A61E" width="14.286" height="26.597"/>
					<rect x="9.143" y="104.121" fill="#E7298A" width="14.286" height="8.379"/>
					<rect x="23.429" y="110.334" fill="#A6761D" width="14.286" height="2.166"/>
					<rect x="37.714" y="100.175" fill="#E6AB02" width="14.286" height="12.325"/>
					<rect x="52" y="108.45" fill="#1B9E77" width="14.286" height="4.05"/>
					<rect x="66.286" y="105.391" fill="#D95F02" width="14.286" height="7.109"/>
					<rect x="80.571" y="111.376" fill="#7570B3" width="14.286" height="1.124"/>
					<polygon fill="#CCCCCC" points="94.857,112.5 109.143,112.5 109.143,112.5 					"/>
				</g>
				<g>
					<line fill="none" stroke="#000000" x1="-8" y1="112.5" x2="112" y2="112.5"/>
				</g>
				<g>
					<text transform="matrix(1 0 0 1 21.4587 60)" display="none" font-family="'Arial-BoldMT'" font-size="14px">Billings</text>
				</g>
				<g>
					<text transform="matrix(1 0 0 1 15.6797 77)" display="none" font-family="'Arial-ItalicMT'" font-size="14px">+20k jobs</text>
				</g>
				<g transform="translate(5,0)">
					<g transform="translate(0,48)">
						<text transform="matrix(1 0 0 1 -22.5615 68.2)" display="none" font-family="'ArialMT'" font-size="10px">0</text>
					</g>
					<g transform="translate(0,32.16666666666667)">
						<text transform="matrix(1 0 0 1 -27.5615 68.2)" display="none" font-family="'ArialMT'" font-size="10px">5k</text>
					</g>
					<g transform="translate(0,16.333333333333336)">
						<text transform="matrix(1 0 0 1 -33.123 68.2)" display="none" font-family="'ArialMT'" font-size="10px">10k</text>
					</g>
					<g transform="translate(0,0.5)">
						<text transform="matrix(1 0 0 1 -33.123 68.2)" display="none" font-family="'ArialMT'" font-size="10px">15k</text>
					</g>
				</g>
			</g>
		</g>
		<g>
			<g transform="translate(0,97.5)">
				<rect x="50" y="45" fill="none" stroke="#86BF86" width="160" height="87.5"/>
				<g>
					<g transform="translate(0,48)">
						<line fill="none" stroke="#BBBBBB" stroke-dasharray="2" x1="80" y1="65" x2="200" y2="65"/>
					</g>
					<g transform="translate(0,32.16666666666667)">
						<line fill="none" stroke="#BBBBBB" stroke-dasharray="2" x1="80" y1="65" x2="200" y2="65"/>
					</g>
					<g transform="translate(0,16.333333333333336)">
						<line fill="none" stroke="#BBBBBB" stroke-dasharray="2" x1="80" y1="65" x2="200" y2="65"/>
					</g>
					<g transform="translate(0,0.5)">
						<line fill="none" stroke="#BBBBBB" stroke-dasharray="2" x1="80" y1="65" x2="200" y2="65"/>
					</g>
				</g>
				<g>
					<rect x="82.857" y="73.841" fill="#66A61E" width="14.286" height="38.659"/>
					<rect x="97.143" y="111.16" fill="#E7298A" width="14.286" height="1.34"/>
					<rect x="111.429" y="107.532" fill="#A6761D" width="14.286" height="4.968"/>
					<rect x="125.714" y="102.439" fill="#E6AB02" width="14.286" height="10.061"/>
					<rect x="140" y="111.141" fill="#1B9E77" width="14.286" height="1.359"/>
					<rect x="154.286" y="112.5" fill="#D95F02" width="14.286" height="0.465"/>
					<rect x="168.571" y="112.5" fill="#7570B3" width="14.286" height="2.6"/>
					<rect x="182.857" y="112.5" fill="#CCCCCC" width="14.286" height="0.095"/>
				</g>
				<g>
					<line fill="none" stroke="#000000" x1="80" y1="112.5" x2="200" y2="112.5"/>
				</g>
				<g>
					<text transform="matrix(1 0 0 1 99.0967 60)" display="none" font-family="'Arial-BoldMT'" font-size="14px">Missoula</text>
				</g>
				<g>
					<text transform="matrix(1 0 0 1 103.6797 77)" display="none" font-family="'Arial-ItalicMT'" font-size="14px">+17k jobs</text>
				</g>
				<g transform="translate(5,0)">
					<g transform="translate(0,48)">
						<text transform="matrix(1 0 0 1 65.4385 68.2)" display="none" font-family="'ArialMT'" font-size="10px">0</text>
					</g>
					<g transform="translate(0,32.16666666666667)">
						<text transform="matrix(1 0 0 1 60.4385 68.2)" display="none" font-family="'ArialMT'" font-size="10px">5k</text>
					</g>
					<g transform="translate(0,16.333333333333336)">
						<text transform="matrix(1 0 0 1 54.877 68.2)" display="none" font-family="'ArialMT'" font-size="10px">10k</text>
					</g>
					<g transform="translate(0,0.5)">
						<text transform="matrix(1 0 0 1 54.877 68.2)" display="none" font-family="'ArialMT'" font-size="10px">15k</text>
					</g>
				</g>
			</g>
			<g transform="translate(170,97.5)">
				<rect x="50" y="45" fill="none" stroke="#86BF86" width="160" height="87.5"/>
				<g>
					<g transform="translate(0,48)">
						<line fill="none" stroke="#BBBBBB" stroke-dasharray="2" x1="80" y1="65" x2="200" y2="65"/>
					</g>
					<g transform="translate(0,32.16666666666667)">
						<line fill="none" stroke="#BBBBBB" stroke-dasharray="2" x1="80" y1="65" x2="200" y2="65"/>
					</g>
					<g transform="translate(0,16.333333333333336)">
						<line fill="none" stroke="#BBBBBB" stroke-dasharray="2" x1="80" y1="65" x2="200" y2="65"/>
					</g>
					<g transform="translate(0,0.5)">
						<line fill="none" stroke="#BBBBBB" stroke-dasharray="2" x1="80" y1="65" x2="200" y2="65"/>
					</g>
				</g>
				<g>
					<rect x="82.857" y="86.78" fill="#66A61E" width="14.286" height="25.72"/>
					<rect x="97.143" y="110.575" fill="#E7298A" width="14.286" height="1.925"/>
					<rect x="111.429" y="110.163" fill="#A6761D" width="14.286" height="2.337"/>
					<rect x="125.714" y="102.044" fill="#E6AB02" width="14.286" height="10.456"/>
					<rect x="140" y="112.5" fill="#1B9E77" width="14.286" height="0.158"/>
					<rect x="154.286" y="110.73" fill="#D95F02" width="14.286" height="1.77"/>
					<rect x="168.571" y="112.5" fill="#7570B3" width="14.286" height="2.495"/>
					<rect x="182.857" y="107.098" fill="#CCCCCC" width="14.286" height="5.402"/>
				</g>
				<g>
					<line fill="none" stroke="#000000" x1="80" y1="112.5" x2="200" y2="112.5"/>
				</g>
				<g>
					<text transform="matrix(1 0 0 1 101.4209 60)" display="none" font-family="'Arial-BoldMT'" font-size="14px">Kalispell</text>
				</g>
				<g>
					<text transform="matrix(1 0 0 1 103.6797 77)" display="none" font-family="'Arial-ItalicMT'" font-size="14px">+14k jobs</text>
				</g>
				<g transform="translate(5,0)">
					<g transform="translate(0,48)">
						<text transform="matrix(1 0 0 1 65.4385 68.2)" display="none" font-family="'ArialMT'" font-size="10px">0</text>
					</g>
					<g transform="translate(0,32.16666666666667)">
						<text transform="matrix(1 0 0 1 60.4385 68.2)" display="none" font-family="'ArialMT'" font-size="10px">5k</text>
					</g>
					<g transform="translate(0,16.333333333333336)">
						<text transform="matrix(1 0 0 1 54.877 68.2)" display="none" font-family="'ArialMT'" font-size="10px">10k</text>
					</g>
					<g transform="translate(0,0.5)">
						<text transform="matrix(1 0 0 1 54.877 68.2)" display="none" font-family="'ArialMT'" font-size="10px">15k</text>
					</g>
				</g>
			</g>
			<g transform="translate(340,97.5)">
				<rect x="50" y="45" fill="none" stroke="#86BF86" width="160" height="87.5"/>
				<g>
					<g transform="translate(0,48)">
						<line fill="none" stroke="#BBBBBB" stroke-dasharray="2" x1="80" y1="65" x2="200" y2="65"/>
					</g>
					<g transform="translate(0,32.16666666666667)">
						<line fill="none" stroke="#BBBBBB" stroke-dasharray="2" x1="80" y1="65" x2="200" y2="65"/>
					</g>
					<g transform="translate(0,16.333333333333336)">
						<line fill="none" stroke="#BBBBBB" stroke-dasharray="2" x1="80" y1="65" x2="200" y2="65"/>
					</g>
					<g transform="translate(0,0.5)">
						<line fill="none" stroke="#BBBBBB" stroke-dasharray="2" x1="80" y1="65" x2="200" y2="65"/>
					</g>
				</g>
				<g>
					<rect x="82.857" y="99.2" fill="#66A61E" width="14.286" height="13.3"/>
					<rect x="97.143" y="109.834" fill="#E7298A" width="14.286" height="2.666"/>
					<rect x="111.429" y="106.335" fill="#A6761D" width="14.286" height="6.166"/>
					<rect x="125.714" y="107.437" fill="#E6AB02" width="14.286" height="5.063"/>
					<rect x="140" y="111.072" fill="#1B9E77" width="14.286" height="1.428"/>
					<rect x="154.286" y="112.072" fill="#D95F02" width="14.286" height="0.428"/>
					<rect x="168.571" y="112.152" fill="#7570B3" width="14.286" height="0.348"/>
					<polygon fill="#CCCCCC" points="182.857,112.5 197.143,112.5 197.143,112.5 					"/>
				</g>
				<g>
					<line fill="none" stroke="#000000" x1="80" y1="112.5" x2="200" y2="112.5"/>
				</g>
				<g>
					<text transform="matrix(1 0 0 1 113.0898 60)" display="none" font-family="'Arial-BoldMT'" font-size="14px">Helena</text>
				</g>
				<g>
					<text transform="matrix(1 0 0 1 99.79 77)" display="none" font-family="'Arial-ItalicMT'" font-size="14px">+9.3k jobs</text>
				</g>
				<g transform="translate(5,0)">
					<g transform="translate(0,48)">
						<text transform="matrix(1 0 0 1 65.4385 68.2)" display="none" font-family="'ArialMT'" font-size="10px">0</text>
					</g>
					<g transform="translate(0,32.16666666666667)">
						<text transform="matrix(1 0 0 1 60.4385 68.2)" display="none" font-family="'ArialMT'" font-size="10px">5k</text>
					</g>
					<g transform="translate(0,16.333333333333336)">
						<text transform="matrix(1 0 0 1 54.877 68.2)" display="none" font-family="'ArialMT'" font-size="10px">10k</text>
					</g>
					<g transform="translate(0,0.5)">
						<text transform="matrix(1 0 0 1 54.877 68.2)" display="none" font-family="'ArialMT'" font-size="10px">15k</text>
					</g>
				</g>
			</g>
		</g>
	</g>
	<g>
		<g transform="translate(170,195)">
			<rect x="-35" y="72" fill="none" stroke="#86BF86" width="160" height="87.5"/>
			<g>
				<g transform="translate(0,48)">
					<line fill="none" stroke="#BBBBBB" stroke-dasharray="2" x1="-5" y1="92" x2="115" y2="92"/>
				</g>
				<g transform="translate(0,32.16666666666667)">
					<line fill="none" stroke="#BBBBBB" stroke-dasharray="2" x1="-5" y1="92" x2="115" y2="92"/>
				</g>
				<g transform="translate(0,16.333333333333336)">
					<line fill="none" stroke="#BBBBBB" stroke-dasharray="2" x1="-5" y1="92" x2="115" y2="92"/>
				</g>
				<g transform="translate(0,0.5)">
					<line fill="none" stroke="#BBBBBB" stroke-dasharray="2" x1="-5" y1="92" x2="115" y2="92"/>
				</g>
			</g>
			<g>
				<rect x="-2.143" y="135.792" fill="#66A61E" width="14.286" height="3.708"/>
				<rect x="12.143" y="139.5" fill="#E7298A" width="14.286" height="1.479"/>
				<rect x="26.429" y="139.5" fill="#A6761D" width="14.286" height="0.396"/>
				<rect x="40.714" y="135.159" fill="#E6AB02" width="14.286" height="4.341"/>
				<rect x="55" y="138.417" fill="#1B9E77" width="14.286" height="1.083"/>
				<rect x="69.286" y="138.699" fill="#D95F02" width="14.286" height="0.801"/>
				<rect x="83.571" y="138.768" fill="#7570B3" width="14.286" height="0.731"/>
				<rect x="97.857" y="139.5" fill="#CCCCCC" width="14.286" height="0.874"/>
			</g>
			<g>
				<line fill="none" stroke="#000000" x1="-5" y1="139.5" x2="115" y2="139.5"/>
			</g>
			<g>
				<text transform="matrix(1 0 0 1 14.7186 87)" display="none" font-family="'Arial-BoldMT'" font-size="14px">Great Falls</text>
			</g>
			<g>
				<text transform="matrix(1 0 0 1 14.79 104)" display="none" font-family="'Arial-ItalicMT'" font-size="14px">+2.5k jobs</text>
			</g>
			<g transform="translate(5,0)">
				<g transform="translate(0,48)">
					<text transform="matrix(1 0 0 1 -19.5615 95.2)" display="none" font-family="'ArialMT'" font-size="10px">0</text>
				</g>
				<g transform="translate(0,32.16666666666667)">
					<text transform="matrix(1 0 0 1 -24.5615 95.2)" display="none" font-family="'ArialMT'" font-size="10px">5k</text>
				</g>
				<g transform="translate(0,16.333333333333336)">
					<text transform="matrix(1 0 0 1 -30.123 95.2)" display="none" font-family="'ArialMT'" font-size="10px">10k</text>
				</g>
				<g transform="translate(0,0.5)">
					<text transform="matrix(1 0 0 1 -30.123 95.2)" display="none" font-family="'ArialMT'" font-size="10px">15k</text>
				</g>
			</g>
		</g>
		<g transform="translate(340,195)">
			<rect x="-35" y="72" fill="none" stroke="#86BF86" width="160" height="87.5"/>
			<g>
				<g transform="translate(0,48)">
					<line fill="none" stroke="#BBBBBB" stroke-dasharray="2" x1="-5" y1="92" x2="115" y2="92"/>
				</g>
				<g transform="translate(0,32.16666666666667)">
					<line fill="none" stroke="#BBBBBB" stroke-dasharray="2" x1="-5" y1="92" x2="115" y2="92"/>
				</g>
				<g transform="translate(0,16.333333333333336)">
					<line fill="none" stroke="#BBBBBB" stroke-dasharray="2" x1="-5" y1="92" x2="115" y2="92"/>
				</g>
				<g transform="translate(0,0.5)">
					<line fill="none" stroke="#BBBBBB" stroke-dasharray="2" x1="-5" y1="92" x2="115" y2="92"/>
				</g>
			</g>
			<g>
				<rect x="-2.143" y="136.583" fill="#66A61E" width="14.286" height="2.917"/>
				<rect x="12.143" y="139.5" fill="#E7298A" width="14.286" height="2.245"/>
				<rect x="26.429" y="139.5" fill="#A6761D" width="14.286" height="0.171"/>
				<rect x="40.714" y="134.953" fill="#E6AB02" width="14.286" height="4.547"/>
				<rect x="55" y="137.907" fill="#1B9E77" width="14.286" height="1.593"/>
				<rect x="69.286" y="139.24" fill="#D95F02" width="14.286" height="0.26"/>
				<rect x="83.571" y="138.914" fill="#7570B3" width="14.286" height="0.586"/>
				<rect x="97.857" y="137.391" fill="#CCCCCC" width="14.286" height="2.109"/>
			</g>
			<g>
				<line fill="none" stroke="#000000" x1="-5" y1="139.5" x2="115" y2="139.5"/>
			</g>
			<g>
				<text transform="matrix(1 0 0 1 28.8517 87)" display="none" font-family="'Arial-BoldMT'" font-size="14px">Butte</text>
			</g>
			<g>
				<text transform="matrix(1 0 0 1 14.79 104)" display="none" font-family="'Arial-ItalicMT'" font-size="14px">+3.0k jobs</text>
			</g>
			<g transform="translate(5,0)">
				<g transform="translate(0,48)">
					<text transform="matrix(1 0 0 1 -19.5615 95.2)" display="none" font-family="'ArialMT'" font-size="10px">0</text>
				</g>
				<g transform="translate(0,32.16666666666667)">
					<text transform="matrix(1 0 0 1 -24.5615 95.2)" display="none" font-family="'ArialMT'" font-size="10px">5k</text>
				</g>
				<g transform="translate(0,16.333333333333336)">
					<text transform="matrix(1 0 0 1 -30.123 95.2)" display="none" font-family="'ArialMT'" font-size="10px">10k</text>
				</g>
				<g transform="translate(0,0.5)">
					<text transform="matrix(1 0 0 1 -30.123 95.2)" display="none" font-family="'ArialMT'" font-size="10px">15k</text>
				</g>
			</g>
		</g>
		<g transform="translate(170,292.5)">
			<rect x="-35" y="72" fill="none" stroke="#E5AE89" width="160" height="87.5"/>
			<g>
				<g transform="translate(0,48)">
					<line fill="none" stroke="#BBBBBB" stroke-dasharray="2" x1="-5" y1="92" x2="115" y2="92"/>
				</g>
				<g transform="translate(0,32.16666666666667)">
					<line fill="none" stroke="#BBBBBB" stroke-dasharray="2" x1="-5" y1="92" x2="115" y2="92"/>
				</g>
				<g transform="translate(0,16.333333333333336)">
					<line fill="none" stroke="#BBBBBB" stroke-dasharray="2" x1="-5" y1="92" x2="115" y2="92"/>
				</g>
				<g transform="translate(0,0.5)">
					<line fill="none" stroke="#BBBBBB" stroke-dasharray="2" x1="-5" y1="92" x2="115" y2="92"/>
				</g>
			</g>
			<g>
				<rect x="-2.143" y="128.714" fill="#66A61E" width="14.286" height="10.786"/>
				<rect x="12.143" y="135.7" fill="#E7298A" width="14.286" height="3.8"/>
				<rect x="26.429" y="139.202" fill="#A6761D" width="14.286" height="0.298"/>
				<rect x="40.714" y="132.752" fill="#E6AB02" width="14.286" height="6.748"/>
				<rect x="55" y="139.5" fill="#1B9E77" width="14.286" height="0.472"/>
				<rect x="69.286" y="139.5" fill="#D95F02" width="14.286" height="0.88"/>
				<rect x="83.571" y="139.5" fill="#7570B3" width="14.286" height="3.369"/>
				<rect x="97.857" y="134.367" fill="#CCCCCC" width="14.286" height="5.133"/>
			</g>
			<g>
				<line fill="none" stroke="#000000" x1="-5" y1="139.5" x2="115" y2="139.5"/>
			</g>
			<g>
				<text transform="matrix(1 0 0 1 -0.9333 87)" display="none" font-family="'Arial-BoldMT'" font-size="14px">Rural Mountains</text>
			</g>
			<g>
				<text transform="matrix(1 0 0 1 14.79 104)" display="none" font-family="'Arial-ItalicMT'" font-size="14px">+7.0k jobs</text>
			</g>
			<g transform="translate(5,0)">
				<g transform="translate(0,48)">
					<text transform="matrix(1 0 0 1 -19.5615 95.2)" display="none" font-family="'ArialMT'" font-size="10px">0</text>
				</g>
				<g transform="translate(0,32.16666666666667)">
					<text transform="matrix(1 0 0 1 -24.5615 95.2)" display="none" font-family="'ArialMT'" font-size="10px">5k</text>
				</g>
				<g transform="translate(0,16.333333333333336)">
					<text transform="matrix(1 0 0 1 -30.123 95.2)" display="none" font-family="'ArialMT'" font-size="10px">10k</text>
				</g>
				<g transform="translate(0,0.5)">
					<text transform="matrix(1 0 0 1 -30.123 95.2)" display="none" font-family="'ArialMT'" font-size="10px">15k</text>
				</g>
			</g>
		</g>
		<g transform="translate(340,292.5)">
			<rect x="-35" y="72" fill="none" stroke="#F2DF91" width="160" height="87.5"/>
			<g>
				<g transform="translate(0,48)">
					<line fill="none" stroke="#BBBBBB" stroke-dasharray="2" x1="-5" y1="92" x2="115" y2="92"/>
				</g>
				<g transform="translate(0,32.16666666666667)">
					<line fill="none" stroke="#BBBBBB" stroke-dasharray="2" x1="-5" y1="92" x2="115" y2="92"/>
				</g>
				<g transform="translate(0,16.333333333333336)">
					<line fill="none" stroke="#BBBBBB" stroke-dasharray="2" x1="-5" y1="92" x2="115" y2="92"/>
				</g>
				<g transform="translate(0,0.5)">
					<line fill="none" stroke="#BBBBBB" stroke-dasharray="2" x1="-5" y1="92" x2="115" y2="92"/>
				</g>
			</g>
			<g>
				<rect x="-2.143" y="131.84" fill="#66A61E" width="14.286" height="7.66"/>
				<rect x="12.143" y="133.556" fill="#E7298A" width="14.286" height="5.944"/>
				<rect x="26.429" y="139.5" fill="#A6761D" width="14.286" height="5.051"/>
				<rect x="40.714" y="139.5" fill="#E6AB02" width="14.286" height="2.423"/>
				<rect x="55" y="137.296" fill="#1B9E77" width="14.286" height="2.204"/>
				<rect x="69.286" y="138.202" fill="#D95F02" width="14.286" height="1.298"/>
				<rect x="83.571" y="139.5" fill="#7570B3" width="14.286" height="0.655"/>
				<rect x="97.857" y="122.65" fill="#CCCCCC" width="14.286" height="16.85"/>
			</g>
			<g>
				<path fill="none" stroke="#000000" d="M115,139.5"/>
				<path fill="none" stroke="#000000" d="M-5,139.5"/>
			</g>
			<g>
				<text transform="matrix(1 0 0 1 6.2795 87)" display="none" font-family="'Arial-BoldMT'" font-size="14px">Rural Plains</text>
			</g>
			<g>
				<text transform="matrix(1 0 0 1 14.79 104)" display="none" font-family="'Arial-ItalicMT'" font-size="14px">+8.2k jobs</text>
			</g>
			<g transform="translate(5,0)">
				<g transform="translate(0,48)">
					<text transform="matrix(1 0 0 1 -19.5615 95.2)" display="none" font-family="'ArialMT'" font-size="10px">0</text>
				</g>
				<g transform="translate(0,32.16666666666667)">
					<text transform="matrix(1 0 0 1 -24.5615 95.2)" display="none" font-family="'ArialMT'" font-size="10px">5k</text>
				</g>
				<g transform="translate(0,16.333333333333336)">
					<text transform="matrix(1 0 0 1 -30.123 95.2)" display="none" font-family="'ArialMT'" font-size="10px">10k</text>
				</g>
				<g transform="translate(0,0.5)">
					<text transform="matrix(1 0 0 1 -30.123 95.2)" display="none" font-family="'ArialMT'" font-size="10px">15k</text>
				</g>
			</g>
		</g>
	</g>
</g>
<style type="text/css">
#g-mt-economy-3-regional-change-medium-img rect, #g-mt-economy-3-regional-change-medium-img circle, #g-mt-economy-3-regional-change-medium-img path, #g-mt-economy-3-regional-change-medium-img line, #g-mt-economy-3-regional-change-medium-img polyline { vector-effect: non-scaling-stroke; }
</style>
</svg>

