<?xml version="1.0" encoding="utf-8"?>
<!-- Generator: Adobe Illustrator 22.1.0, SVG Export Plug-In . SVG Version: 6.00 Build 0)  -->
<svg version="1.2" baseProfile="tiny" id="g-mt-economy-3a-sector-line-charts-medium-img" xmlns="http://www.w3.org/2000/svg" xmlns:xlink="http://www.w3.org/1999/xlink"
	 x="0px" y="0px" viewBox="0 0 600 410" xml:space="preserve">
<g>
	<g transform="translate(50,10)">
		<g transform="translate(0,160)">
			<g transform="translate(0.5,0)">
				<line fill="none" stroke="#000000" x1="0.115" y1="10.572" x2="0.115" y2="15.832"/>
				<text transform="matrix(1 0 0 1 -10.7603 24.6875)" display="none" font-family="'ArialMT'" font-size="10px">1980</text>
			</g>
			<g transform="translate(56.05555555555556,0)">
				<line fill="none" stroke="#000000" x1="-6.729" y1="10.572" x2="-6.729" y2="15.832"/>
				<text transform="matrix(1 0 0 1 -17.6049 24.6875)" display="none" font-family="'ArialMT'" font-size="10px">1990</text>
			</g>
			<g transform="translate(111.61111111111111,0)">
				<line fill="none" stroke="#000000" x1="-13.574" y1="10.572" x2="-13.574" y2="15.832"/>
				<text transform="matrix(1 0 0 1 -24.4495 24.6875)" display="none" font-family="'ArialMT'" font-size="10px">2000</text>
			</g>
			<g transform="translate(167.16666666666669,0)">
				<line fill="none" stroke="#000000" x1="-20.418" y1="10.572" x2="-20.418" y2="15.832"/>
				<text transform="matrix(1 0 0 1 -31.2936 24.6875)" display="none" font-family="'ArialMT'" font-size="10px">2010</text>
			</g>
			<g transform="translate(167.16666666666669,0)">
				<line fill="none" stroke="#000000" x1="8.582" y1="10.572" x2="8.582" y2="15.832"/>
				<text transform="matrix(1 0 0 1 -2.2936 24.6875)" display="none" font-family="'ArialMT'" font-size="10px">2016</text>
			</g>
		</g>
		<g>
			<g transform="translate(0,160.5)">
				<line fill="none" stroke="#000000" x1="0.177" y1="10.51" x2="-5.084" y2="10.51"/>
				<line fill="none" stroke="#000000" stroke-opacity="0.1" x1="0.177" y1="10.51" x2="175.537" y2="10.51"/>
				<text transform="matrix(1 0 0 1 -12.8911 13.3154)" display="none" font-family="'ArialMT'" font-size="10px">0</text>
			</g>
			<g transform="translate(0,120.5)">
				
				<line fill="none" stroke="#000000" x1="0.177" y1="15.438" x2="-5.084" y2="15.438"/>
				<text transform="matrix(1 0 0 1 -37.9155 18.2432)" display="none" font-family="'ArialMT'" font-size="10px">20,000</text>
			</g>
			<g transform="translate(0,80.5)">
				
				<line fill="none" stroke="#000000" x1="0.177" y1="20.366" x2="-5.084" y2="20.366"/>
				<text transform="matrix(1 0 0 1 -37.9155 23.1719)" display="none" font-family="'ArialMT'" font-size="10px">40,000</text>
			</g>
			<g transform="translate(0,40.5)">
				<line fill="none" stroke="#000000" x1="0.177" y1="25.294" x2="-5.084" y2="25.294"/>
				<line fill="none" stroke="#000000" stroke-opacity="0.1" x1="0.177" y1="25.294" x2="175.537" y2="25.294"/>
				<text transform="matrix(1 0 0 1 -37.9155 28.0996)" display="none" font-family="'ArialMT'" font-size="10px">60,000</text>
			</g>
			<g transform="translate(0,0.5)">
				<line fill="none" stroke="#000000" x1="0.177" y1="30.222" x2="-5.084" y2="30.222"/>
				<line fill="none" stroke="#000000" stroke-opacity="0.1" x1="0.177" y1="30.222" x2="175.537" y2="30.222"/>
				<g display="none">
					<text transform="matrix(1 0 0 1 -37.9155 33.0273)" display="inline" font-family="'ArialMT'" font-size="10px">80,000</text>
					<text transform="matrix(1 0 0 1 -25.6743 45.0273)" display="inline" font-family="'ArialMT'" font-size="10px">jobs</text>
				</g>
			</g>
		</g>
		<g>
			<rect x="0.177" y="30.284" fill="#EEDD22" fill-opacity="0.2" width="0" height="140.288"/>
			<rect x="5.048" y="30.284" fill="#EEDD22" fill-opacity="0.2" width="4.871" height="140.288"/>
			<rect x="48.888" y="30.284" fill="#EEDD22" fill-opacity="0.2" width="4.871" height="140.288"/>
			<rect x="102.47" y="30.284" fill="#EEDD22" fill-opacity="0.2" width="0" height="140.288"/>
			<rect x="131.697" y="30.284" fill="#EEDD22" fill-opacity="0.2" width="9.742" height="140.288"/>
		</g>
		<g>
			<path fill="none" stroke="#000000" stroke-opacity="0.15" stroke-dasharray="1" d="M0.177,115.139l4.871,0.596l4.871,0.926
				l4.871-3.9l4.871,1.887l4.871,0.028l4.871-0.184l4.871-0.423l4.871,1.052l4.871,1.54l4.871,0.293l4.871,1.464l4.871,1.396
				l4.871-1.217l4.871-0.694l4.871-1.242l4.871-0.237l4.871,1.45l4.871-3.598l4.871,0.221l4.871-1.452"/>
			<path fill="none" stroke="#000000" stroke-opacity="0.15" stroke-dasharray="1" d="M0.177,163.953l4.871-0.356l4.871-0.023
				l4.871-0.801l4.871-0.719l4.871-0.847l4.871-0.037l4.871-1.433l4.871,0.228l4.871,0.689l4.871-0.675l4.871-0.691l4.871,0.144
				l4.871-0.819l4.871-2.015l4.871,0.791l4.871-0.575l4.871-0.507l4.871-1.05l4.871-2.641l4.871-0.056"/>
			<path fill="none" stroke="#000000" stroke-opacity="0.15" stroke-dasharray="1" d="M0.177,153.364l4.871-4.929l4.871,3.434
				l4.871,2.772l4.871-0.466l4.871,1.903l4.871,2.143l4.871-1.229l4.871-0.302l4.871-0.009l4.871,0.044l4.871,0.721l4.871,0.142
				l4.871,0.004l4.871,0.312l4.871,0.54l4.871,0.065l4.871-0.142l4.871,0.377l4.871,0.091l4.871,0.288"/>
			<path fill="none" stroke="#000000" stroke-opacity="0.15" stroke-dasharray="1" d="M0.177,146.502l4.871,0.593l4.871,0.945
				l4.871,0.093l4.871,0.284l4.871-0.046l4.871,0.326l4.871-0.831l4.871-0.63l4.871-0.374l4.871-0.442l4.871,1.349l4.871-0.61
				l4.871,0.114l4.871-0.107l4.871,0.91l4.871,0.247l4.871,0.338l4.871-0.235l4.871,0.191l4.871-1.531"/>
			<path fill="none" stroke="#000000" stroke-opacity="0.15" stroke-dasharray="1" d="M0.177,154.267l4.871,0.184l4.871-0.33
				l4.871-0.498l4.871,0.447l4.871-0.496l4.871,0.16l4.871-0.384l4.871-0.079l4.871-1.192l4.871,0.053l4.871-0.089l4.871,0.523
				l4.871-0.089l4.871,0.722l4.871,0.645l4.871,1.014l4.871,0.735l4.871,0.121l4.871-0.114l4.871,0.528"/>
			<path fill="none" stroke="#000000" stroke-opacity="0.15" stroke-dasharray="1" d="M0.177,136.625l4.871,0.717l4.871,0.738
				l4.871-0.44l4.871,0.037l4.871-0.63l4.871-0.096l4.871-0.039l4.871-1.797l4.871-1.073l4.871-1.28l4.871-1.848l4.871-1.426
				l4.871,0.587l4.871-0.026l4.871,0.472l4.871-0.056l4.871-0.196l4.871-0.502l4.871-0.821l4.871,1.047"/>
			<path fill="none" stroke="#000000" stroke-opacity="0.15" stroke-dasharray="1" d="M0.177,111.307l4.871,0.409l4.871-0.586
				l4.871-0.549l4.871-1.938l4.871-0.835l4.871-0.798l4.871,1.077l4.871,0.03l4.871-0.388l4.871-1.868l4.871-0.836l4.871-3.309
				l4.871-0.288l4.871-1.84l4.871-1.727l4.871-1.775l4.871-1.05l4.871-1.37l4.871-0.237l4.871-0.554"/>
			<path fill="none" stroke="#000000" stroke-opacity="0.15" stroke-dasharray="1" d="M102.47,113.783l4.871,0.514l4.871,2.825
				l4.871,1.249l4.871,1.21l4.871,1.124l4.871-0.566l4.871-0.563l4.871,0.291l4.871,0.153l4.871-0.921l4.871-0.666l4.871-0.749
				l4.871,0.8l4.871-0.817l4.871,0.023"/>
			<path fill="none" stroke="#000000" stroke-opacity="0.15" stroke-dasharray="1" d="M102.47,158.216l4.871-1.356l4.871,1.34
				l4.871-0.268l4.871,0.109l4.871,0.224l4.871-0.479l4.871-0.27l4.871,0.68l4.871-0.139l4.871-0.103l4.871-0.649l4.871-0.282
				l4.871-0.528l4.871,0.5l4.871,0.11"/>
			<path fill="none" stroke="#000000" stroke-opacity="0.15" stroke-dasharray="1" d="M102.47,158.263l4.871,0.509l4.871-0.367
				l4.871-1.704l4.871-1.04l4.871-1.475l4.871-1.538l4.871-1.291l4.871,2.308l4.871-2.541l4.871-0.335l4.871-6.28l4.871,0.189
				l4.871,0.759l4.871,1.149l4.871,2.018"/>
			<path fill="none" stroke="#000000" stroke-opacity="0.15" stroke-dasharray="1" d="M102.47,140.525l4.871,0.389l4.871-0.526
				l4.871-1.129l4.871-0.589l4.871-0.461l4.871-0.561l4.871,0.338l4.871,1.143l4.871,0.707l4.871-0.147l4.871-1.073l4.871-1.615
				l4.871-1.585l4.871-1.457l4.871-0.337"/>
			<path fill="none" stroke="#000000" stroke-opacity="0.15" stroke-dasharray="1" d="M102.47,49.077l4.871-0.729l4.871,0.296
				l4.871-2.558l4.871-2.583l4.871-2.004l4.871-4.665l4.871,0.91l4.871,5.362l4.871,4.028l4.871-1.131l4.871,0.091l4.871-1.724
				l4.871-3.193l4.871-2.89l4.871-1.861"/>
			<path fill="none" stroke="#000000" stroke-opacity="0.15" stroke-dasharray="1" d="M102.47,72.509l4.871-3.279l4.871-0.907
				l4.871-2.139l4.871-2.688l4.871-2.623l4.871-3.113l4.871-3.265l4.871-2.445l4.871-1.491l4.871,0.47l4.871-3.505l4.871-1.968
				l4.871-0.584l4.871-2.462l4.871-4.082"/>
			<path fill="none" stroke="#000000" stroke-opacity="0.15" stroke-dasharray="1" d="M102.47,147.682l4.871-1.34l4.871-0.424
				l4.871,0.289l4.871,0.626l4.871,0.014l4.871,0.193l4.871-0.395l4.871-0.961l4.871-1.163l4.871,1.713l4.871,0.552l4.871,0.859
				l4.871,0.128l4.871-0.153l4.871-0.419"/>
			<path fill="none" stroke="#000000" stroke-opacity="0.15" stroke-dasharray="1" d="M102.47,155.91l4.871-0.077l4.871-0.177
				l4.871,0.07l4.871,0.382l4.871-0.009l4.871,0.133l4.871-0.047l4.871,0.351l4.871-0.163l4.871-0.16l4.871-0.223l4.871,0.028
				l4.871,0.414l4.871,0.351l4.871,0.047"/>
			<path fill="none" stroke="#000000" stroke-opacity="0.15" stroke-dasharray="1" d="M102.47,128.164l4.871,1.847l4.871-2.488
				l4.871-1.128l4.871-0.833l4.871,0.303l4.871-1.536l4.871,0.67l4.871-0.863l4.871,0.11l4.871-0.761l4.871,0.084l4.871-0.842
				l4.871-0.761l4.871,0.621l4.871-0.305"/>
			<path fill="none" stroke="#000000" stroke-opacity="0.15" stroke-dasharray="1" d="M102.47,92.445l4.871-0.058l4.871-1.491
				l4.871-0.801l4.871,0.861l4.871-0.172l4.871-0.186l4.871-1.324l4.871-1.782l4.871-0.635l4.871,1.091l4.871,1.126l4.871,0.047
				l4.871-0.158l4.871-0.931l4.871-1.078"/>
			<path fill="none" stroke="#D95F02" stroke-width="2" stroke-linecap="round" stroke-linejoin="round" d="M0.177,131.552
				l4.871,2.111l4.871-1.743l4.871-1.42l4.871-0.552l4.871,2.958l4.871,2.439l4.871,5.492l4.871-0.908l4.871-1.184l4.871-1.124
				l4.871-3.286l4.871-5.619l4.871-1.235l4.871-5.868l4.871-1.98l4.871-2.423l4.871-2.25l4.871-2.683l4.871-2.039l4.871,0.144"/>
			<path fill="none" stroke="#66A61E" stroke-width="2" stroke-linecap="round" stroke-linejoin="round" d="M102.47,89.64
				l4.871-1.512l4.871-1.336l4.871-2.05l4.871-1.596l4.871-1.466l4.871-1.084l4.871-1.166l4.871,3.113l4.871,1.331l4.871-1.945
				l4.871-2.315l4.871-2.951l4.871-1.257l4.871-3.539l4.871-3.111"/>
			<path fill="none" stroke="#D95F02" stroke-width="2" stroke-linecap="round" stroke-linejoin="round" d="M102.47,103.093
				l4.871,0.128l4.871-4.789l4.871-5.243l4.871-7.675l4.871-5.366l4.871-4.847l4.871,6.283l4.871,12.165l4.871,5.031l4.871,0.94
				l4.871-0.921l4.871-2.103l4.871-1.62l4.871-2.979l4.871-0.766"/>
			<path fill="none" stroke="#66A61E" stroke-width="2" stroke-linecap="round" stroke-linejoin="round" d="M102.47,136.79
				l4.871,0.051l4.871-2.301l4.871-3.576l4.871-4.053l4.871-3.826l4.871-3.442l4.871-1.135l4.871,0.417l4.871-1.806l4.871-1.987
				l4.871,0.356l4.871-1.438l4.871-2.555l4.871-2.274l4.871-2.103"/>
			<path fill="none" stroke="#66A61E" stroke-width="2" stroke-linecap="round" stroke-linejoin="round" d="M102.47,134.944
				l4.871-1.441l4.871-0.603l4.871-0.168l4.871-0.307l4.871-1.057l4.871-2.097l4.871-2.25l4.871-1.904l4.871,1.417l4.871-1.906
				l4.871,1.576l4.871,0.184l4.871,1.347l4.871-0.721l4.871,0.196"/>
			<path fill="none" stroke="#000000" stroke-opacity="0.15" stroke-dasharray="1" d="M102.47,139.996l4.871,0.342l4.871,0.616
				l4.871-0.279l4.871-1.329l4.871-0.979l4.871-0.479l4.871,0.898l4.871,0.698l4.871,0.449l4.871-1.783l4.871-1.566l4.871-0.663
				l4.871-0.321l4.871-0.416l4.871,0.468"/>
			<path fill="none" stroke="#66A61E" stroke-width="2" stroke-linecap="round" stroke-linejoin="round" d="M102.47,145.87
				l4.871-1.596l4.871-1.576l4.871-0.84l4.871-1.364l4.871-1.622l4.871-1.862l4.871-0.577l4.871,1.089l4.871,0.374l4.871-0.468
				l4.871-0.251l4.871-0.85l4.871-1.145l4.871,0.605l4.871-0.477"/>
		</g>
	</g>
	<g transform="translate(50,10)">
		<g transform="translate(0,160)">
			<g transform="translate(0.5,0)">
				<line fill="none" stroke="#000000" x1="0.115" y1="206.576" x2="0.115" y2="211.837"/>
				<text transform="matrix(1 0 0 1 -10.7603 220.6924)" display="none" font-family="'ArialMT'" font-size="10px">1980</text>
			</g>
			<g transform="translate(56.05555555555556,0)">
				<line fill="none" stroke="#000000" x1="-6.729" y1="206.576" x2="-6.729" y2="211.837"/>
				<text transform="matrix(1 0 0 1 -17.6049 220.6924)" display="none" font-family="'ArialMT'" font-size="10px">1990</text>
			</g>
			<g transform="translate(111.61111111111111,0)">
				<line fill="none" stroke="#000000" x1="-13.574" y1="206.576" x2="-13.574" y2="211.837"/>
				<text transform="matrix(1 0 0 1 -24.4495 220.6924)" display="none" font-family="'ArialMT'" font-size="10px">2000</text>
			</g>
			<g transform="translate(167.16666666666669,0)">
				<line fill="none" stroke="#000000" x1="-20.418" y1="206.576" x2="-20.418" y2="211.837"/>
				<text transform="matrix(1 0 0 1 -31.2936 220.6924)" display="none" font-family="'ArialMT'" font-size="10px">2010</text>
			</g>
		</g>
		<g>
			<g transform="translate(0,160.5)">
				<line fill="none" stroke="#000000" x1="0.177" y1="206.514" x2="-5.084" y2="206.514"/>
				<line fill="none" stroke="#000000" stroke-opacity="0.1" x1="0.177" y1="206.514" x2="175.537" y2="206.514"/>
				<text transform="matrix(1 0 0 1 -12.8911 209.3203)" display="none" font-family="'ArialMT'" font-size="10px">0</text>
			</g>
			<g transform="translate(0,120.5)">
				<line fill="none" stroke="#000000" x1="0.177" y1="211.443" x2="-5.084" y2="211.443"/>
				<line fill="none" stroke="#000000" stroke-opacity="0.1" x1="0.177" y1="211.443" x2="175.537" y2="211.443"/>
				<text transform="matrix(1 0 0 1 -37.9155 214.248)" display="none" font-family="'ArialMT'" font-size="10px">20,000</text>
			</g>
			<g transform="translate(0,80.5)">
				<line fill="none" stroke="#000000" x1="0.177" y1="216.371" x2="-5.084" y2="216.371"/>
				<line fill="none" stroke="#000000" stroke-opacity="0.1" x1="0.177" y1="216.371" x2="175.537" y2="216.371"/>
				<text transform="matrix(1 0 0 1 -37.9155 219.1758)" display="none" font-family="'ArialMT'" font-size="10px">40,000</text>
			</g>
			<g transform="translate(0,40.5)">
				<line fill="none" stroke="#000000" x1="0.177" y1="221.299" x2="-5.084" y2="221.299"/>
				<line fill="none" stroke="#000000" stroke-opacity="0.1" x1="0.177" y1="221.299" x2="175.537" y2="221.299"/>
				<text transform="matrix(1 0 0 1 -37.9155 224.1045)" display="none" font-family="'ArialMT'" font-size="10px">60,000</text>
			</g>
			<g transform="translate(0,0.5)">
				<line fill="none" stroke="#000000" x1="0.177" y1="226.227" x2="-5.084" y2="226.227"/>
				<line fill="none" stroke="#000000" stroke-opacity="0.1" x1="0.177" y1="226.227" x2="175.537" y2="226.227"/>
				<g display="none">
					<text transform="matrix(1 0 0 1 -37.9155 229.0322)" display="inline" font-family="'ArialMT'" font-size="10px">80,000</text>
					<text transform="matrix(1 0 0 1 -25.6743 241.0322)" display="inline" font-family="'ArialMT'" font-size="10px">jobs</text>
				</g>
			</g>
		</g>
		<g>
			<rect x="0.177" y="226.288" fill="#EEDD22" fill-opacity="0.2" width="0" height="140.288"/>
			<rect x="5.048" y="226.288" fill="#EEDD22" fill-opacity="0.2" width="4.871" height="140.288"/>
			<rect x="48.888" y="226.288" fill="#EEDD22" fill-opacity="0.2" width="4.871" height="140.288"/>
			<rect x="102.47" y="226.288" fill="#EEDD22" fill-opacity="0.2" width="0" height="140.288"/>
			<rect x="131.697" y="226.288" fill="#EEDD22" fill-opacity="0.2" width="9.742" height="140.288"/>
		</g>
		<g>
			<path fill="none" stroke="#000000" stroke-opacity="0.15" stroke-dasharray="1" d="M102.47,309.788l4.871,0.514l4.871,2.825
				l4.871,1.249l4.871,1.21l4.871,1.124l4.871-0.566l4.871-0.563l4.871,0.291l4.871,0.153l4.871-0.921l4.871-0.666l4.871-0.749
				l4.871,0.8l4.871-0.817l4.871,0.023"/>
			<path fill="none" stroke="#000000" stroke-opacity="0.15" stroke-dasharray="1" d="M102.47,354.22l4.871-1.356l4.871,1.34
				l4.871-0.268l4.871,0.109l4.871,0.224l4.871-0.479l4.871-0.27l4.871,0.68l4.871-0.139l4.871-0.103l4.871-0.649l4.871-0.282
				l4.871-0.528l4.871,0.5l4.871,0.11"/>
			<path fill="none" stroke="#000000" stroke-opacity="0.15" stroke-dasharray="1" d="M102.47,354.268l4.871,0.509l4.871-0.367
				l4.871-1.704l4.871-1.04l4.871-1.475l4.871-1.538l4.871-1.291l4.871,2.308l4.871-2.541l4.871-0.335l4.871-6.28l4.871,0.189
				l4.871,0.759l4.871,1.149l4.871,2.018"/>
			<path fill="none" stroke="#000000" stroke-opacity="0.15" stroke-dasharray="1" d="M102.47,299.098l4.871,0.128l4.871-4.789
				l4.871-5.243l4.871-7.676l4.871-5.366l4.871-4.847l4.871,6.283l4.871,12.165l4.871,5.031l4.871,0.94l4.871-0.921l4.871-2.103
				l4.871-1.62l4.871-2.979l4.871-0.766"/>
			<path fill="none" stroke="#000000" stroke-opacity="0.15" stroke-dasharray="1" d="M102.47,330.948l4.871-1.441l4.871-0.603
				l4.871-0.168l4.871-0.307l4.871-1.057l4.871-2.097l4.871-2.25l4.871-1.904l4.871,1.417l4.871-1.906l4.871,1.577l4.871,0.184
				l4.871,1.347l4.871-0.721l4.871,0.196"/>
			<path fill="none" stroke="#000000" stroke-opacity="0.15" stroke-dasharray="1" d="M102.47,332.795l4.871,0.051l4.871-2.301
				l4.871-3.576l4.871-4.053l4.871-3.826l4.871-3.442l4.871-1.135l4.871,0.417l4.871-1.806l4.871-1.987l4.871,0.356l4.871-1.438
				l4.871-2.555l4.871-2.274l4.871-2.103"/>
			<path fill="none" stroke="#000000" stroke-opacity="0.15" stroke-dasharray="1" d="M102.47,341.875l4.871-1.596l4.871-1.576
				l4.871-0.84l4.871-1.364l4.871-1.622l4.871-1.862l4.871-0.577l4.871,1.089l4.871,0.374l4.871-0.468l4.871-0.251l4.871-0.85
				l4.871-1.145l4.871,0.605l4.871-0.477"/>
			<path fill="none" stroke="#000000" stroke-opacity="0.15" stroke-dasharray="1" d="M102.47,285.644l4.871-1.512l4.871-1.336
				l4.871-2.05l4.871-1.596l4.871-1.466l4.871-1.084l4.871-1.166l4.871,3.113l4.871,1.331l4.871-1.945l4.871-2.315l4.871-2.951
				l4.871-1.257l4.871-3.539l4.871-3.111"/>
			<path fill="none" stroke="#000000" stroke-opacity="0.15" stroke-dasharray="1" d="M102.47,343.686l4.871-1.34l4.871-0.424
				l4.871,0.289l4.871,0.626l4.871,0.014l4.871,0.193l4.871-0.395l4.871-0.961l4.871-1.163l4.871,1.713l4.871,0.552l4.871,0.859
				l4.871,0.128l4.871-0.153l4.871-0.419"/>
			<path fill="none" stroke="#000000" stroke-opacity="0.15" stroke-dasharray="1" d="M102.47,351.914l4.871-0.077l4.871-0.177
				l4.871,0.07l4.871,0.382l4.871-0.009l4.871,0.133l4.871-0.047l4.871,0.351l4.871-0.163l4.871-0.16l4.871-0.223l4.871,0.028
				l4.871,0.414l4.871,0.351l4.871,0.047"/>
			<path fill="none" stroke="#000000" stroke-opacity="0.15" stroke-dasharray="1" d="M102.47,324.169l4.871,1.847l4.871-2.488
				l4.871-1.128l4.871-0.833l4.871,0.303l4.871-1.536l4.871,0.67l4.871-0.863l4.871,0.11l4.871-0.761l4.871,0.084l4.871-0.842
				l4.871-0.761l4.871,0.621l4.871-0.305"/>
			<path fill="none" stroke="#000000" stroke-opacity="0.15" stroke-dasharray="1" d="M102.47,288.45l4.871-0.058l4.871-1.491
				l4.871-0.801l4.871,0.861l4.871-0.172l4.871-0.186l4.871-1.324l4.871-1.782l4.871-0.635l4.871,1.091l4.871,1.126l4.871,0.047
				l4.871-0.158l4.871-0.931l4.871-1.078"/>
			<path fill="none" stroke="#000000" stroke-opacity="0.15" stroke-dasharray="1" d="M0.177,311.143l4.871,0.596l4.871,0.926
				l4.871-3.9l4.871,1.887l4.871,0.028l4.871-0.184l4.871-0.423l4.871,1.052l4.871,1.54l4.871,0.293l4.871,1.464l4.871,1.396
				l4.871-1.217l4.871-0.694l4.871-1.242l4.871-0.237l4.871,1.45l4.871-3.598l4.871,0.221l4.871-1.452"/>
			<path fill="none" stroke="#000000" stroke-opacity="0.15" stroke-dasharray="1" d="M0.177,359.958l4.871-0.356l4.871-0.023
				l4.871-0.801l4.871-0.719l4.871-0.847l4.871-0.037l4.871-1.433l4.871,0.228l4.871,0.689l4.871-0.675l4.871-0.691l4.871,0.144
				l4.871-0.819l4.871-2.015l4.871,0.791l4.871-0.575l4.871-0.507l4.871-1.05l4.871-2.641l4.871-0.056"/>
			<path fill="none" stroke="#000000" stroke-opacity="0.15" stroke-dasharray="1" d="M0.177,349.368l4.871-4.929l4.871,3.434
				l4.871,2.772l4.871-0.466l4.871,1.903l4.871,2.143l4.871-1.229l4.871-0.302l4.871-0.009l4.871,0.044l4.871,0.721l4.871,0.142
				l4.871,0.004l4.871,0.312l4.871,0.54l4.871,0.065l4.871-0.142l4.871,0.377l4.871,0.091l4.871,0.288"/>
			<path fill="none" stroke="#000000" stroke-opacity="0.15" stroke-dasharray="1" d="M0.177,327.557l4.871,2.111l4.871-1.743
				l4.871-1.42l4.871-0.552l4.871,2.958l4.871,2.439l4.871,5.492l4.871-0.908l4.871-1.184l4.871-1.124l4.871-3.286l4.871-5.619
				l4.871-1.235l4.871-5.868l4.871-1.98l4.871-2.423l4.871-2.25l4.871-2.683l4.871-2.039l4.871,0.144"/>
			<path fill="none" stroke="#000000" stroke-opacity="0.15" stroke-dasharray="1" d="M0.177,342.506l4.871,0.593l4.871,0.945
				l4.871,0.093l4.871,0.284l4.871-0.046l4.871,0.326l4.871-0.831l4.871-0.63l4.871-0.374l4.871-0.442l4.871,1.349l4.871-0.61
				l4.871,0.114l4.871-0.107l4.871,0.91l4.871,0.247l4.871,0.338l4.871-0.235l4.871,0.191l4.871-1.531"/>
			<path fill="none" stroke="#000000" stroke-opacity="0.15" stroke-dasharray="1" d="M0.177,350.271l4.871,0.184l4.871-0.33
				l4.871-0.498l4.871,0.447l4.871-0.496l4.871,0.16l4.871-0.384l4.871-0.079l4.871-1.192l4.871,0.053l4.871-0.089l4.871,0.523
				l4.871-0.089l4.871,0.723l4.871,0.645l4.871,1.014l4.871,0.735l4.871,0.121l4.871-0.114l4.871,0.528"/>
			<path fill="none" stroke="#000000" stroke-opacity="0.15" stroke-dasharray="1" d="M0.177,332.63l4.871,0.717l4.871,0.738
				l4.871-0.44l4.871,0.037l4.871-0.63l4.871-0.096l4.871-0.039l4.871-1.797l4.871-1.073l4.871-1.28l4.871-1.848l4.871-1.426
				l4.871,0.587l4.871-0.026l4.871,0.472l4.871-0.056l4.871-0.196l4.871-0.502l4.871-0.821l4.871,1.047"/>
			<path fill="none" stroke="#000000" stroke-opacity="0.15" stroke-dasharray="1" d="M0.177,307.311l4.871,0.409l4.871-0.586
				l4.871-0.549l4.871-1.938l4.871-0.835l4.871-0.798l4.871,1.077l4.871,0.03l4.871-0.388l4.871-1.868l4.871-0.836l4.871-3.309
				l4.871-0.288l4.871-1.84l4.871-1.727l4.871-1.775l4.871-1.05l4.871-1.37l4.871-0.237l4.871-0.554"/>
			<path fill="none" stroke="#E7298A" stroke-width="2" stroke-linecap="round" stroke-linejoin="round" d="M102.47,336.53
				l4.871,0.389l4.871-0.526l4.871-1.129l4.871-0.589l4.871-0.461l4.871-0.561l4.871,0.338l4.871,1.143l4.871,0.707l4.871-0.147
				l4.871-1.073l4.871-1.615l4.871-1.585l4.871-1.457l4.871-0.337"/>
			<path fill="none" stroke="#E7298A" stroke-width="2" stroke-linecap="round" stroke-linejoin="round" d="M102.47,245.082
				l4.871-0.729l4.871,0.296l4.871-2.559l4.871-2.583l4.871-2.004l4.871-4.665l4.871,0.91l4.871,5.363l4.871,4.028l4.871-1.131
				l4.871,0.091l4.871-1.724l4.871-3.193l4.871-2.89l4.871-1.861"/>
			<path fill="none" stroke="#E7298A" stroke-width="2" stroke-linecap="round" stroke-linejoin="round" d="M102.47,336l4.871,0.342
				l4.871,0.616l4.871-0.279l4.871-1.329l4.871-0.978l4.871-0.479l4.871,0.898l4.871,0.698l4.871,0.449l4.871-1.783l4.871-1.566
				l4.871-0.663l4.871-0.321l4.871-0.416l4.871,0.468"/>
			<path fill="none" stroke="#E6AB02" stroke-width="2" stroke-linecap="round" stroke-linejoin="round" d="M102.47,268.513
				l4.871-3.279l4.871-0.907l4.871-2.139l4.871-2.688l4.871-2.623l4.871-3.113l4.871-3.265l4.871-2.445l4.871-1.491l4.871,0.47
				l4.871-3.505l4.871-1.968l4.871-0.584l4.871-2.462l4.871-4.082"/>
		</g>
	</g>
	<g transform="translate(50,10)">
		<g transform="translate(0,160)">
			<g transform="translate(0.5,0)">
				<line fill="none" stroke="#000000" x1="298.227" y1="10.572" x2="298.227" y2="15.832"/>
				<text transform="matrix(1 0 0 1 287.3511 24.6875)" display="none" font-family="'ArialMT'" font-size="10px">1980</text>
			</g>
			<g transform="translate(56.05555555555556,0)">
				<line fill="none" stroke="#000000" x1="291.382" y1="10.572" x2="291.382" y2="15.832"/>
				<text transform="matrix(1 0 0 1 280.507 24.6875)" display="none" font-family="'ArialMT'" font-size="10px">1990</text>
			</g>
			<g transform="translate(111.61111111111111,0)">
				<line fill="none" stroke="#000000" x1="284.538" y1="10.572" x2="284.538" y2="15.832"/>
				<text transform="matrix(1 0 0 1 273.6623 24.6875)" display="none" font-family="'ArialMT'" font-size="10px">2000</text>
			</g>
			<g transform="translate(167.16666666666669,0)">
				<line fill="none" stroke="#000000" x1="277.693" y1="10.572" x2="277.693" y2="15.832"/>
				<text transform="matrix(1 0 0 1 266.8177 24.6875)" display="none" font-family="'ArialMT'" font-size="10px">2010</text>
			</g>
		</g>
		<g>
			<g transform="translate(0,160.5)">
				<line fill="none" stroke="#000000" x1="298.288" y1="10.51" x2="293.028" y2="10.51"/>
				<line fill="none" stroke="#000000" stroke-opacity="0.1" x1="298.288" y1="10.51" x2="473.648" y2="10.51"/>
				<text transform="matrix(1 0 0 1 285.2202 13.3154)" display="none" font-family="'ArialMT'" font-size="10px">0</text>
			</g>
			<g transform="translate(0,120.5)">
				<line fill="none" stroke="#000000" x1="298.288" y1="15.438" x2="293.028" y2="15.438"/>
				<line fill="none" stroke="#000000" stroke-opacity="0.1" x1="298.288" y1="15.438" x2="473.648" y2="15.438"/>
				<text transform="matrix(1 0 0 1 260.1958 18.2432)" display="none" font-family="'ArialMT'" font-size="10px">20,000</text>
			</g>
			<g transform="translate(0,80.5)">
				<line fill="none" stroke="#000000" x1="298.288" y1="20.366" x2="293.028" y2="20.366"/>
				<line fill="none" stroke="#000000" stroke-opacity="0.1" x1="298.288" y1="20.366" x2="473.648" y2="20.366"/>
				<text transform="matrix(1 0 0 1 260.1958 23.1719)" display="none" font-family="'ArialMT'" font-size="10px">40,000</text>
			</g>
			<g transform="translate(0,40.5)">
				<line fill="none" stroke="#000000" x1="298.288" y1="25.294" x2="293.028" y2="25.294"/>
				<line fill="none" stroke="#000000" stroke-opacity="0.1" x1="298.288" y1="25.294" x2="473.648" y2="25.294"/>
				<text transform="matrix(1 0 0 1 260.1958 28.0996)" display="none" font-family="'ArialMT'" font-size="10px">60,000</text>
			</g>
			<g transform="translate(0,0.5)">
				<line fill="none" stroke="#000000" x1="298.288" y1="30.222" x2="293.028" y2="30.222"/>
				<line fill="none" stroke="#000000" stroke-opacity="0.1" x1="298.288" y1="30.222" x2="473.648" y2="30.222"/>
				<g display="none">
					<text transform="matrix(1 0 0 1 260.1958 33.0273)" display="inline" font-family="'ArialMT'" font-size="10px">80,000</text>
					<text transform="matrix(1 0 0 1 272.437 45.0273)" display="inline" font-family="'ArialMT'" font-size="10px">jobs</text>
				</g>
			</g>
		</g>
		<g>
			<rect x="298.288" y="30.284" fill="#EEDD22" fill-opacity="0.2" width="0" height="140.288"/>
			<rect x="303.16" y="30.284" fill="#EEDD22" fill-opacity="0.2" width="4.871" height="140.288"/>
			<rect x="346.999" y="30.284" fill="#EEDD22" fill-opacity="0.2" width="4.871" height="140.288"/>
			<rect x="400.582" y="30.284" fill="#EEDD22" fill-opacity="0.2" width="0" height="140.288"/>
			<rect x="429.808" y="30.284" fill="#EEDD22" fill-opacity="0.2" width="9.742" height="140.288"/>
		</g>
		<g>
			<path fill="none" stroke="#000000" stroke-opacity="0.15" stroke-dasharray="1" d="M400.582,103.093l4.871,0.128l4.871-4.789
				l4.871-5.243l4.871-7.675l4.871-5.366l4.871-4.847l4.871,6.283l4.871,12.165l4.871,5.031l4.871,0.94l4.871-0.921l4.871-2.103
				l4.871-1.62l4.871-2.979l4.871-0.766"/>
			<path fill="none" stroke="#000000" stroke-opacity="0.15" stroke-dasharray="1" d="M400.582,140.525l4.871,0.389l4.871-0.526
				l4.871-1.129l4.871-0.589l4.871-0.461l4.871-0.561l4.871,0.338l4.871,1.143l4.871,0.707l4.871-0.147l4.871-1.073l4.871-1.615
				l4.871-1.585l4.871-1.457l4.871-0.337"/>
			<path fill="none" stroke="#000000" stroke-opacity="0.15" stroke-dasharray="1" d="M400.582,49.077l4.871-0.729l4.871,0.296
				l4.871-2.558l4.871-2.583l4.871-2.004l4.871-4.665l4.871,0.91l4.871,5.362l4.871,4.028l4.871-1.131l4.871,0.091l4.871-1.724
				l4.871-3.193l4.871-2.89l4.871-1.861"/>
			<path fill="none" stroke="#000000" stroke-opacity="0.15" stroke-dasharray="1" d="M400.582,139.996l4.871,0.342l4.871,0.616
				l4.871-0.279l4.871-1.329l4.871-0.979l4.871-0.479l4.871,0.898l4.871,0.698l4.871,0.449l4.871-1.783l4.871-1.566l4.871-0.663
				l4.871-0.321l4.871-0.416l4.871,0.468"/>
			<path fill="none" stroke="#000000" stroke-opacity="0.15" stroke-dasharray="1" d="M400.582,134.944l4.871-1.441l4.871-0.603
				l4.871-0.168l4.871-0.307l4.871-1.057l4.871-2.097l4.871-2.25l4.871-1.904l4.871,1.417l4.871-1.906l4.871,1.576l4.871,0.184
				l4.871,1.347l4.871-0.721l4.871,0.196"/>
			<path fill="none" stroke="#000000" stroke-opacity="0.15" stroke-dasharray="1" d="M400.582,136.79l4.871,0.051l4.871-2.301
				l4.871-3.576l4.871-4.053l4.871-3.826l4.871-3.442l4.871-1.135l4.871,0.417l4.871-1.806l4.871-1.987l4.871,0.356l4.871-1.438
				l4.871-2.555l4.871-2.274l4.871-2.103"/>
			<path fill="none" stroke="#000000" stroke-opacity="0.15" stroke-dasharray="1" d="M400.582,72.509l4.871-3.279l4.871-0.907
				l4.871-2.139l4.871-2.688l4.871-2.623l4.871-3.113l4.871-3.265l4.871-2.445l4.871-1.491l4.871,0.47l4.871-3.505l4.871-1.968
				l4.871-0.584l4.871-2.462l4.871-4.082"/>
			<path fill="none" stroke="#000000" stroke-opacity="0.15" stroke-dasharray="1" d="M400.582,145.87l4.871-1.596l4.871-1.576
				l4.871-0.84l4.871-1.364l4.871-1.622l4.871-1.862l4.871-0.577l4.871,1.089l4.871,0.374l4.871-0.468l4.871-0.251l4.871-0.85
				l4.871-1.145l4.871,0.605l4.871-0.477"/>
			<path fill="none" stroke="#000000" stroke-opacity="0.15" stroke-dasharray="1" d="M400.582,89.64l4.871-1.512l4.871-1.336
				l4.871-2.05l4.871-1.596l4.871-1.466l4.871-1.084l4.871-1.166l4.871,3.113l4.871,1.331l4.871-1.945l4.871-2.315l4.871-2.951
				l4.871-1.257l4.871-3.539l4.871-3.111"/>
			<path fill="none" stroke="#000000" stroke-opacity="0.15" stroke-dasharray="1" d="M400.582,147.682l4.871-1.34l4.871-0.424
				l4.871,0.289l4.871,0.626l4.871,0.014l4.871,0.193l4.871-0.395l4.871-0.961l4.871-1.163l4.871,1.713l4.871,0.552l4.871,0.859
				l4.871,0.128l4.871-0.153l4.871-0.419"/>
			<path fill="none" stroke="#000000" stroke-opacity="0.15" stroke-dasharray="1" d="M400.582,155.91l4.871-0.077l4.871-0.177
				l4.871,0.07l4.871,0.382l4.871-0.009l4.871,0.133l4.871-0.047l4.871,0.351l4.871-0.163l4.871-0.16l4.871-0.223l4.871,0.028
				l4.871,0.414l4.871,0.351l4.871,0.047"/>
			<path fill="none" stroke="#000000" stroke-opacity="0.15" stroke-dasharray="1" d="M400.582,128.164l4.871,1.847l4.871-2.488
				l4.871-1.128l4.871-0.833l4.871,0.303l4.871-1.536l4.871,0.67l4.871-0.863l4.871,0.11l4.871-0.761l4.871,0.084l4.871-0.842
				l4.871-0.761l4.871,0.621l4.871-0.305"/>
			<path fill="none" stroke="#000000" stroke-opacity="0.15" stroke-dasharray="1" d="M400.582,92.445l4.871-0.058l4.871-1.491
				l4.871-0.801l4.871,0.861l4.871-0.172l4.871-0.186l4.871-1.324l4.871-1.782l4.871-0.635l4.871,1.091l4.871,1.126l4.871,0.047
				l4.871-0.158l4.871-0.931l4.871-1.078"/>
			<path fill="none" stroke="#000000" stroke-opacity="0.15" stroke-dasharray="1" d="M298.288,131.552l4.871,2.111l4.871-1.743
				l4.871-1.42l4.871-0.552l4.871,2.958l4.871,2.439l4.871,5.492l4.871-0.908l4.871-1.184l4.871-1.124l4.871-3.286l4.871-5.619
				l4.871-1.235l4.871-5.868l4.871-1.98l4.871-2.423l4.871-2.25l4.871-2.683l4.871-2.039l4.871,0.144"/>
			<path fill="none" stroke="#000000" stroke-opacity="0.15" stroke-dasharray="1" d="M298.288,146.502l4.871,0.593l4.871,0.945
				l4.871,0.093l4.871,0.284l4.871-0.046l4.871,0.326l4.871-0.831l4.871-0.63l4.871-0.374l4.871-0.442l4.871,1.349l4.871-0.61
				l4.871,0.114l4.871-0.107l4.871,0.91l4.871,0.247l4.871,0.338l4.871-0.235l4.871,0.191l4.871-1.531"/>
			<path fill="none" stroke="#000000" stroke-opacity="0.15" stroke-dasharray="1" d="M298.288,154.267l4.871,0.184l4.871-0.33
				l4.871-0.498l4.871,0.447l4.871-0.496l4.871,0.16l4.871-0.384l4.871-0.079l4.871-1.192l4.871,0.053l4.871-0.089l4.871,0.523
				l4.871-0.089l4.871,0.722l4.871,0.645l4.871,1.014l4.871,0.735l4.871,0.121l4.871-0.114l4.871,0.528"/>
			<path fill="none" stroke="#000000" stroke-opacity="0.15" stroke-dasharray="1" d="M298.288,136.625l4.871,0.717l4.871,0.738
				l4.871-0.44l4.871,0.037l4.871-0.63l4.871-0.096l4.871-0.039l4.871-1.797l4.871-1.073l4.871-1.28l4.871-1.848l4.871-1.426
				l4.871,0.587l4.871-0.026l4.871,0.472l4.871-0.056l4.871-0.196l4.871-0.502l4.871-0.821l4.871,1.047"/>
			<path fill="none" stroke="#000000" stroke-opacity="0.15" stroke-dasharray="1" d="M298.288,111.307l4.871,0.409l4.871-0.586
				l4.871-0.549l4.871-1.938l4.871-0.835l4.871-0.798l4.871,1.077l4.871,0.03l4.871-0.388l4.871-1.868l4.871-0.836l4.871-3.309
				l4.871-0.288l4.871-1.84l4.871-1.727l4.871-1.775l4.871-1.05l4.871-1.37l4.871-0.237l4.871-0.554"/>
			<path fill="none" stroke="#1B9E77" stroke-width="2" stroke-linecap="round" stroke-linejoin="round" d="M400.582,113.783
				l4.871,0.514l4.871,2.825l4.871,1.249l4.871,1.21l4.871,1.124l4.871-0.566l4.871-0.563l4.871,0.291l4.871,0.153l4.871-0.921
				l4.871-0.666l4.871-0.749l4.871,0.8l4.871-0.817l4.871,0.023"/>
			<path fill="none" stroke="#1B9E77" stroke-width="2" stroke-linecap="round" stroke-linejoin="round" d="M400.582,158.216
				l4.871-1.356l4.871,1.34l4.871-0.268l4.871,0.109l4.871,0.224l4.871-0.479l4.871-0.27l4.871,0.68l4.871-0.139l4.871-0.103
				l4.871-0.649l4.871-0.282l4.871-0.528l4.871,0.5l4.871,0.11"/>
			<path fill="none" stroke="#1B9E77" stroke-width="2" stroke-linecap="round" stroke-linejoin="round" d="M400.582,158.263
				l4.871,0.509l4.871-0.367l4.871-1.704l4.871-1.04l4.871-1.475l4.871-1.538l4.871-1.291l4.871,2.308l4.871-2.541l4.871-0.335
				l4.871-6.28l4.871,0.189l4.871,0.759l4.871,1.149l4.871,2.018"/>
			<path fill="none" stroke="#1B9E77" stroke-width="2" stroke-linecap="round" stroke-linejoin="round" d="M298.288,115.139
				l4.871,0.596l4.871,0.926l4.871-3.9l4.871,1.887l4.871,0.028l4.871-0.184l4.871-0.423l4.871,1.052l4.871,1.54l4.871,0.293
				l4.871,1.464l4.871,1.396l4.871-1.217l4.871-0.694l4.871-1.242l4.871-0.237l4.871,1.45l4.871-3.598l4.871,0.221l4.871-1.452"/>
			<path fill="none" stroke="#1B9E77" stroke-width="2" stroke-linecap="round" stroke-linejoin="round" d="M298.288,163.953
				l4.871-0.356l4.871-0.023l4.871-0.801l4.871-0.719l4.871-0.847l4.871-0.037l4.871-1.433l4.871,0.228l4.871,0.689l4.871-0.675
				l4.871-0.691l4.871,0.144l4.871-0.819l4.871-2.015l4.871,0.791l4.871-0.575l4.871-0.507l4.871-1.05l4.871-2.641l4.871-0.056"/>
			<path fill="none" stroke="#1B9E77" stroke-width="2" stroke-linecap="round" stroke-linejoin="round" d="M298.288,153.364
				l4.871-4.929l4.871,3.434l4.871,2.772l4.871-0.466l4.871,1.903l4.871,2.143l4.871-1.229l4.871-0.302l4.871-0.009l4.871,0.044
				l4.871,0.721l4.871,0.142l4.871,0.004l4.871,0.312l4.871,0.54l4.871,0.065l4.871-0.142l4.871,0.377l4.871,0.091l4.871,0.288"/>
		</g>
	</g>
	<g transform="translate(50,10)">
		<g>
			<rect x="298.288" y="226.288" fill="#EEDD22" fill-opacity="0.2" width="0" height="140.288"/>
			<rect x="303.16" y="226.288" fill="#EEDD22" fill-opacity="0.2" width="4.871" height="140.288"/>
			<rect x="346.999" y="226.288" fill="#EEDD22" fill-opacity="0.2" width="4.871" height="140.288"/>
			<rect x="400.582" y="226.288" fill="#EEDD22" fill-opacity="0.2" width="0" height="140.288"/>
			<rect x="429.808" y="226.288" fill="#EEDD22" fill-opacity="0.2" width="9.742" height="140.288"/>
		</g>
		<g>
			<path fill="none" stroke="#000000" stroke-opacity="0.15" stroke-dasharray="1" d="M400.582,309.788l4.871,0.514l4.871,2.825
				l4.871,1.249l4.871,1.21l4.871,1.124l4.871-0.566l4.871-0.563l4.871,0.291l4.871,0.153l4.871-0.921l4.871-0.666l4.871-0.749
				l4.871,0.8l4.871-0.817l4.871,0.023"/>
			<path fill="none" stroke="#000000" stroke-opacity="0.15" stroke-dasharray="1" d="M400.582,354.22l4.871-1.356l4.871,1.34
				l4.871-0.268l4.871,0.109l4.871,0.224l4.871-0.479l4.871-0.27l4.871,0.68l4.871-0.139l4.871-0.103l4.871-0.649l4.871-0.282
				l4.871-0.528l4.871,0.5l4.871,0.11"/>
			
			<path fill="none" stroke="#000000" stroke-opacity="0.15" stroke-dasharray="1" d="M400.582,299.098l4.871,0.128l4.871-4.789
				l4.871-5.243l4.871-7.676l4.871-5.366l4.871-4.847l4.871,6.283l4.871,12.165l4.871,5.031l4.871,0.94l4.871-0.921l4.871-2.103
				l4.871-1.62l4.871-2.979l4.871-0.766"/>
			<path fill="none" stroke="#000000" stroke-opacity="0.15" stroke-dasharray="1" d="M400.582,336.53l4.871,0.389l4.871-0.526
				l4.871-1.129l4.871-0.589l4.871-0.461l4.871-0.561l4.871,0.338l4.871,1.143l4.871,0.707l4.871-0.147l4.871-1.073l4.871-1.615
				l4.871-1.585l4.871-1.457l4.871-0.337"/>
			<path fill="none" stroke="#000000" stroke-opacity="0.15" stroke-dasharray="1" d="M400.582,245.082l4.871-0.729l4.871,0.296
				l4.871-2.559l4.871-2.583l4.871-2.004l4.871-4.665l4.871,0.91l4.871,5.363l4.871,4.028l4.871-1.131l4.871,0.091l4.871-1.724
				l4.871-3.193l4.871-2.89l4.871-1.861"/>
			<path fill="none" stroke="#000000" stroke-opacity="0.15" stroke-dasharray="1" d="M400.582,336l4.871,0.342l4.871,0.616
				l4.871-0.279l4.871-1.329l4.871-0.978l4.871-0.479l4.871,0.898l4.871,0.698l4.871,0.449l4.871-1.783l4.871-1.566l4.871-0.663
				l4.871-0.321l4.871-0.416l4.871,0.468"/>
			<path fill="none" stroke="#000000" stroke-opacity="0.15" stroke-dasharray="1" d="M400.582,330.948l4.871-1.441l4.871-0.603
				l4.871-0.168l4.871-0.307l4.871-1.057l4.871-2.097l4.871-2.25l4.871-1.904l4.871,1.417l4.871-1.906l4.871,1.577l4.871,0.184
				l4.871,1.347l4.871-0.721l4.871,0.196"/>
			<path fill="none" stroke="#000000" stroke-opacity="0.15" stroke-dasharray="1" d="M400.582,332.795l4.871,0.051l4.871-2.301
				l4.871-3.576l4.871-4.053l4.871-3.826l4.871-3.442l4.871-1.135l4.871,0.417l4.871-1.806l4.871-1.987l4.871,0.356l4.871-1.438
				l4.871-2.555l4.871-2.274l4.871-2.103"/>
			<path fill="none" stroke="#000000" stroke-opacity="0.15" stroke-dasharray="1" d="M400.582,268.513l4.871-3.279l4.871-0.907
				l4.871-2.139l4.871-2.688l4.871-2.623l4.871-3.113l4.871-3.265l4.871-2.445l4.871-1.491l4.871,0.47l4.871-3.505l4.871-1.968
				l4.871-0.584l4.871-2.462l4.871-4.082"/>
			<path fill="none" stroke="#000000" stroke-opacity="0.15" stroke-dasharray="1" d="M400.582,341.875l4.871-1.596l4.871-1.576
				l4.871-0.84l4.871-1.364l4.871-1.622l4.871-1.862l4.871-0.577l4.871,1.089l4.871,0.374l4.871-0.468l4.871-0.251l4.871-0.85
				l4.871-1.145l4.871,0.605l4.871-0.477"/>
			<path fill="none" stroke="#000000" stroke-opacity="0.15" stroke-dasharray="1" d="M400.582,285.644l4.871-1.512l4.871-1.336
				l4.871-2.05l4.871-1.596l4.871-1.466l4.871-1.084l4.871-1.166l4.871,3.113l4.871,1.331l4.871-1.945l4.871-2.315l4.871-2.951
				l4.871-1.257l4.871-3.539l4.871-3.111"/>
			<path fill="none" stroke="#A6761D" stroke-width="2" stroke-linecap="round" stroke-linejoin="round" d="M400.582,343.686
				l4.871-1.34l4.871-0.424l4.871,0.289l4.871,0.626l4.871,0.014l4.871,0.193l4.871-0.395l4.871-0.961l4.871-1.163l4.871,1.713
				l4.871,0.552l4.871,0.859l4.871,0.128l4.871-0.153l4.871-0.419"/>
			<path fill="none" stroke="#A6761D" stroke-width="2" stroke-linecap="round" stroke-linejoin="round" d="M400.582,351.914
				l4.871-0.077l4.871-0.177l4.871,0.07l4.871,0.382l4.871-0.009l4.871,0.133l4.871-0.047l4.871,0.351l4.871-0.163l4.871-0.16
				l4.871-0.223l4.871,0.028l4.871,0.414l4.871,0.351l4.871,0.047"/>
			<path fill="none" stroke="#A6761D" stroke-width="2" stroke-linecap="round" stroke-linejoin="round" d="M400.582,324.169
				l4.871,1.847l4.871-2.488l4.871-1.128l4.871-0.833l4.871,0.303l4.871-1.536l4.871,0.67l4.871-0.863l4.871,0.11l4.871-0.761
				l4.871,0.084l4.871-0.842l4.871-0.761l4.871,0.621l4.871-0.305"/>
			<path fill="none" stroke="#A6761D" stroke-width="2" stroke-linecap="round" stroke-linejoin="round" d="M400.582,288.45
				l4.871-0.058l4.871-1.491l4.871-0.801l4.871,0.861l4.871-0.172l4.871-0.186l4.871-1.324l4.871-1.782l4.871-0.635l4.871,1.091
				l4.871,1.126l4.871,0.047l4.871-0.158l4.871-0.931l4.871-1.078"/>
			<path fill="none" stroke="#000000" stroke-opacity="0.15" stroke-dasharray="1" d="M298.288,311.143l4.871,0.596l4.871,0.926
				l4.871-3.9l4.871,1.887l4.871,0.028l4.871-0.184l4.871-0.423l4.871,1.052l4.871,1.54l4.871,0.293l4.871,1.464l4.871,1.396
				l4.871-1.217l4.871-0.694l4.871-1.242l4.871-0.237l4.871,1.45l4.871-3.598l4.871,0.221l4.871-1.452"/>
			
			
			<path fill="none" stroke="#000000" stroke-opacity="0.15" stroke-dasharray="1" d="M298.288,327.557l4.871,2.111l4.871-1.743
				l4.871-1.42l4.871-0.552l4.871,2.958l4.871,2.439l4.871,5.492l4.871-0.908l4.871-1.184l4.871-1.124l4.871-3.286l4.871-5.619
				l4.871-1.235l4.871-5.868l4.871-1.98l4.871-2.423l4.871-2.25l4.871-2.683l4.871-2.039l4.871,0.144"/>
			<path fill="none" stroke="#A6761D" stroke-width="2" stroke-linecap="round" stroke-linejoin="round" d="M298.288,342.506
				l4.871,0.593l4.871,0.945l4.871,0.093l4.871,0.284l4.871-0.046l4.871,0.326l4.871-0.831l4.871-0.63l4.871-0.374l4.871-0.442
				l4.871,1.349l4.871-0.61l4.871,0.114l4.871-0.107l4.871,0.91l4.871,0.247l4.871,0.338l4.871-0.235l4.871,0.191l4.871-1.531"/>
			<path fill="none" stroke="#A6761D" stroke-width="2" stroke-linecap="round" stroke-linejoin="round" d="M298.288,350.271
				l4.871,0.184l4.871-0.33l4.871-0.498l4.871,0.447l4.871-0.496l4.871,0.16l4.871-0.384l4.871-0.079l4.871-1.192l4.871,0.053
				l4.871-0.089l4.871,0.523l4.871-0.089l4.871,0.723l4.871,0.645l4.871,1.014l4.871,0.735l4.871,0.121l4.871-0.114l4.871,0.528"/>
			<path fill="none" stroke="#A6761D" stroke-width="2" stroke-linecap="round" stroke-linejoin="round" d="M298.288,332.63
				l4.871,0.717l4.871,0.738l4.871-0.44l4.871,0.037l4.871-0.63l4.871-0.096l4.871-0.039l4.871-1.797l4.871-1.073l4.871-1.28
				l4.871-1.848l4.871-1.426l4.871,0.587l4.871-0.026l4.871,0.472l4.871-0.056l4.871-0.196l4.871-0.502l4.871-0.821l4.871,1.047"/>
			<path fill="none" stroke="#A6761D" stroke-width="2" stroke-linecap="round" stroke-linejoin="round" d="M298.288,307.311
				l4.871,0.409l4.871-0.586l4.871-0.549l4.871-1.938l4.871-0.835l4.871-0.798l4.871,1.077l4.871,0.03l4.871-0.388l4.871-1.868
				l4.871-0.836l4.871-3.309l4.871-0.288l4.871-1.84l4.871-1.727l4.871-1.775l4.871-1.05l4.871-1.37l4.871-0.237l4.871-0.554"/>
		</g>
		<g transform="translate(0,160)">
			<g transform="translate(0.5,0)">
				<line fill="none" stroke="#000000" x1="298.227" y1="206.576" x2="298.227" y2="211.837"/>
				<text transform="matrix(1 0 0 1 287.3511 220.6924)" display="none" font-family="'ArialMT'" font-size="10px">1980</text>
			</g>
			<g transform="translate(56.05555555555556,0)">
				<line fill="none" stroke="#000000" x1="291.382" y1="206.576" x2="291.382" y2="211.837"/>
				<text transform="matrix(1 0 0 1 280.507 220.6924)" display="none" font-family="'ArialMT'" font-size="10px">1990</text>
			</g>
			<g transform="translate(111.61111111111111,0)">
				<line fill="none" stroke="#000000" x1="284.538" y1="206.576" x2="284.538" y2="211.837"/>
				<text transform="matrix(1 0 0 1 273.6623 220.6924)" display="none" font-family="'ArialMT'" font-size="10px">2000</text>
			</g>
			<g transform="translate(167.16666666666669,0)">
				<line fill="none" stroke="#000000" x1="277.693" y1="206.576" x2="277.693" y2="211.837"/>
				<text transform="matrix(1 0 0 1 266.8177 220.6924)" display="none" font-family="'ArialMT'" font-size="10px">2010</text>
			</g>
		</g>
		<g>
			<g transform="translate(0,160.5)">
				<line fill="none" stroke="#000000" x1="298.288" y1="206.514" x2="293.028" y2="206.514"/>
				<line fill="none" stroke="#000000" stroke-opacity="0.1" x1="298.288" y1="206.514" x2="473.648" y2="206.514"/>
				<text transform="matrix(1 0 0 1 285.2202 209.3203)" display="none" font-family="'ArialMT'" font-size="10px">0</text>
			</g>
			<g transform="translate(0,120.5)">
				<line fill="none" stroke="#000000" x1="298.288" y1="211.443" x2="293.028" y2="211.443"/>
				<line fill="none" stroke="#000000" stroke-opacity="0.1" x1="298.288" y1="211.443" x2="473.648" y2="211.443"/>
				<text transform="matrix(1 0 0 1 260.1958 214.248)" display="none" font-family="'ArialMT'" font-size="10px">20,000</text>
			</g>
			<g transform="translate(0,80.5)">
				<line fill="none" stroke="#000000" x1="298.288" y1="216.371" x2="293.028" y2="216.371"/>
				<line fill="none" stroke="#000000" stroke-opacity="0.1" x1="298.288" y1="216.371" x2="473.648" y2="216.371"/>
				<text transform="matrix(1 0 0 1 260.1958 219.1758)" display="none" font-family="'ArialMT'" font-size="10px">40,000</text>
			</g>
			<g transform="translate(0,40.5)">
				<line fill="none" stroke="#000000" x1="298.288" y1="221.299" x2="293.028" y2="221.299"/>
				<line fill="none" stroke="#000000" stroke-opacity="0.1" x1="298.288" y1="221.299" x2="473.648" y2="221.299"/>
				<text transform="matrix(1 0 0 1 260.1958 224.1045)" display="none" font-family="'ArialMT'" font-size="10px">60,000</text>
			</g>
			<g transform="translate(0,0.5)">
				<line fill="none" stroke="#000000" x1="298.288" y1="226.227" x2="293.028" y2="226.227"/>
				<line fill="none" stroke="#000000" stroke-opacity="0.1" x1="298.288" y1="226.227" x2="473.648" y2="226.227"/>
				<g display="none">
					<text transform="matrix(1 0 0 1 260.1958 229.0322)" display="inline" font-family="'ArialMT'" font-size="10px">80,000</text>
					<text transform="matrix(1 0 0 1 272.437 241.0322)" display="inline" font-family="'ArialMT'" font-size="10px">jobs</text>
				</g>
			</g>
		</g>
	</g>
	<g>
		<path fill="none" stroke="#000000" stroke-miterlimit="10" d="M173,59.5c3.867,5.095,4.768,14.397,4.962,19.47"/>
		<g>
			<polygon points="178,82.5 175.839,77.58 177.901,78.707 179.902,77.474 			"/>
		</g>
	</g>
	<g>
		<path fill="none" stroke="#000000" stroke-miterlimit="10" d="M115,102.5c0,7.054,17.815,11.037,25.519,12.429"/>
		<g>
			<polygon points="144,115.5 138.756,116.676 140.259,114.868 139.434,112.667 			"/>
		</g>
	</g>
	<g>
		<g>
			<path fill="none" stroke="#000000" stroke-miterlimit="10" d="M377,151.578c-3.773,0-11.31,2.353-15.672,3.83"/>
			<g>
				<polygon points="358,156.578 362.068,153.066 361.596,155.369 363.363,156.919 				"/>
			</g>
		</g>
	</g>
	<g>
		<path fill="none" stroke="#000000" stroke-miterlimit="10" d="M490.263,139.078c9.266,0,12.366,2.905,13.321,5.4"/>
		<g>
			<polygon points="503.806,147.999 501.264,143.265 503.409,144.226 505.306,142.839 			"/>
		</g>
	</g>
	<g>
		<path fill="none" stroke="#000000" stroke-miterlimit="10" d="M95.609,283.901C90.322,281.589,80.5,276.309,80.5,269"/>
		<g>
			<polygon points="98.888,285.202 95.047,281.444 95.374,283.772 93.514,285.209 			"/>
		</g>
	</g>
	<g>
		<path fill="none" stroke="#000000" stroke-miterlimit="10" d="M73.5,269c0,5.605-6.667,11.31-10.658,14.223"/>
		<g>
			<polygon points="59.919,285.202 62.86,280.704 63.042,283.048 65.168,284.051 			"/>
		</g>
	</g>
</g>
<style type="text/css">
#g-mt-economy-3a-sector-line-charts-medium-img rect, #g-mt-economy-3a-sector-line-charts-medium-img circle, #g-mt-economy-3a-sector-line-charts-medium-img path, #g-mt-economy-3a-sector-line-charts-medium-img line, #g-mt-economy-3a-sector-line-charts-medium-img polyline { vector-effect: non-scaling-stroke; }
</style>
</svg>

