<?xml version="1.0" encoding="utf-8"?>
<!-- Generator: Adobe Illustrator 22.1.0, SVG Export Plug-In . SVG Version: 6.00 Build 0)  -->
<svg version="1.2" baseProfile="tiny" id="g-mt-economy-5-wage-gap-medium-img" xmlns="http://www.w3.org/2000/svg" xmlns:xlink="http://www.w3.org/1999/xlink"
	 x="0px" y="0px" viewBox="0 0 650 245" xml:space="preserve">
<g>
	<g>
		<g>
			<g transform="translate(0.5,0.5)">
				<path fill="none" d="M50,54L50,54L50,54L50,54z"/>
				<g>
					<g>
						<line fill="none" stroke="#DDDDDD" x1="50" y1="204" x2="250" y2="204"/>
						<line fill="none" stroke="#DDDDDD" x1="50" y1="154" x2="250" y2="154"/>
						<line fill="none" stroke="#DDDDDD" x1="50" y1="104" x2="250" y2="104"/>
					</g>
				</g>
			</g>
		</g>
		<g>
			<g transform="translate(0,0)">
				<g>
					<g>
						<path fill="none" stroke="#444444" stroke-width="2.5" d="M250,54h-12.491h-12.491h-12.491H200h-12.491h-12.491h-12.491H150
							h-12.491h-12.491h-12.491H100H87.509H75.017H63"/>
					</g>
				</g>
			</g>
			<g transform="translate(0,0)">
				<g>
					<g>
						<path fill="none" stroke="#E5AE89" stroke-width="2" d="M250,169.544l-12.491,1.557l-12.491,0.51l-12.491-0.951L200,171.428
							l-12.491,0.301l-12.491,1.224l-12.491,0.366L150,173.199l-12.491,2.042l-12.491,0.657l-12.491,1.893L100,179.166
							l-12.491-1.211l-12.491,1.653l-12.491,3.648"/>
					</g>
				</g>
			</g>
			<g transform="translate(0,0)">
				<g>
					<g>
						<path fill="none" stroke="#86BF86" stroke-width="2" stroke-dasharray="2" d="M250,101.025l-12.491,1.596l-12.491-0.32
							l-12.491,3.724L200,102.678l-12.491-2.212l-12.491,1.622l-12.491,4.548L150,111.642l-12.491,1.044l-12.491,0.533
							l-12.491,2.036L100,116.657l-12.491,0.474l-12.491,3.687l-12.491,7.318"/>
					</g>
				</g>
			</g>
			<g transform="translate(0,0)">
				<g>
					<g>
						<path fill="none" stroke="#86BF86" stroke-width="2" stroke-dasharray="2" d="M250,114.862l-12.491-0.76l-12.491,1.526
							l-12.491-4.672L200,110.044l-12.491,1.225l-12.491,2.589l-12.491,0.384L150,119.671l-12.491,3.392l-12.491,0.546
							l-12.491-0.992L100,127.882l-12.491,1.663l-12.491,0.094l-12.491,5.649"/>
					</g>
				</g>
			</g>
			<g transform="translate(0,0)">
				<g>
					<g>
						<path fill="none" stroke="#86BF86" stroke-width="2" stroke-dasharray="2" d="M250,137.872l-12.491,1.372l-12.491,0.451
							l-12.491,1.072L200,143.169l-12.491-0.608l-12.491,2.854l-12.491,1.394L150,144.091l-12.491,0.114l-12.491,0.832
							l-12.491,3.086L100,149.983l-12.491-0.279l-12.491,0.66l-12.491,2.934"/>
					</g>
				</g>
			</g>
			<g transform="translate(0,0)">
				<g>
					<g>
						<path fill="none" stroke="#86BF86" stroke-width="2" d="M250,129.507l-12.491,4.572l-12.491,3.378l-12.491,0.445L200,133.045
							l-12.491,5.137l-12.491,3.09l-12.491,0.442L150,140.428l-12.491-0.998l-12.491,1.596l-12.491,4.195L100,149.429l-12.491-2.631
							l-12.491,3.558l-12.491,3.776"/>
					</g>
				</g>
			</g>
			<g transform="translate(0,0)">
				<g>
					<g>
						<path fill="none" stroke="#86BF86" stroke-width="2" d="M250,93.251l-12.491,0.992l-12.491-0.039l-12.491-1.088L200,91.592
							l-12.491,0.424l-12.491,2.703l-12.491-1.401L150,98.895l-12.491,4.988l-12.491,1.831l-12.491,1.455L100,108.419l-12.491-3.008
							l-12.491,0.384l-12.491,6.948"/>
					</g>
				</g>
			</g>
			<g transform="translate(0,0)">
				<g>
					<g>
						<path fill="none" stroke="#86BF86" stroke-width="2" stroke-dasharray="2" d="M250,131.548l-12.491,2.421l-12.491,1.028
							l-12.491,0.01L200,134.978l-12.491-0.221l-12.491,0.587l-12.491-0.869L150,137.003l-12.491,2.099l-12.491,0.946l-12.491-0.765
							L100,140.336l-12.491-3.077l-12.491-0.212l-12.491,4.691"/>
					</g>
				</g>
			</g>
			<g transform="translate(0,0)">
				<g>
					<g>
						<path fill="none" stroke="#86BF86" stroke-width="2" d="M250,89.807l-12.491-1.903l-12.491,0.945l-12.491,0.922L200,92.204
							l-12.491,1.561l-12.491,4.076l-12.491,0.572L150,101.093l-12.491-0.805l-12.491,3.948l-12.491,2.085L100,110.197
							l-12.491-0.276l-12.491,0.691l-12.491,3.757"/>
					</g>
				</g>
			</g>
			<g transform="translate(0,0)">
				<g>
					<g>
						<path fill="none" stroke="#444444" stroke-width="2.5" d="M250,124.75l-12.491,0.324l-12.491-0.619l-12.491,0.582L200,125.064
							l-12.491,1.472l-12.491,3.046l-12.491,1.114L150,132.878l-12.491,1.54l-12.491,1.661l-12.491,1.911L100,140.55l-12.491-0.579
							l-12.491,1.657l-12.491,4.249"/>
					</g>
				</g>
			</g>
			<g transform="translate(0,0)">
				<g>
					<g>
						<path fill="none" stroke="#F2DF91" stroke-width="2" d="M250,140.067l-12.491-3.716l-12.491-7.49l-12.491,2.224L200,133.205
							l-12.491,4.36l-12.491,6.128l-12.491,3.321L150,149.9l-12.491,2.488l-12.491,1.74l-12.491,2.54L100,160.131l-12.491,2.467
							l-12.491,2.817l-12.491,2.927"/>
					</g>
				</g>
			</g>
		</g>
		<g>
			<text transform="matrix(1 0 0 1 255 59)" display="none" fill="#444444" font-family="'ArialMT'" font-size="11px">US</text>
			<g display="none">
				<text transform="matrix(1 0 0 1 255 125.7499)" display="inline" fill="#444444" font-family="'ArialMT'" font-size="11px">M</text>
				
					<text transform="matrix(1 0 0 1 264.1631 125.7499)" display="inline" fill="#444444" font-family="'ArialMT'" font-size="11px">T</text>
			</g>
			<text transform="matrix(1 0 0 1 255 174.5439)" display="none" fill="#D95F02" font-family="'ArialMT'" font-size="11px">Mountains</text>
			<text transform="matrix(1 0 0 1 255 147.067)" display="none" fill="#E6AB02" font-family="'ArialMT'" font-size="11px">Plains</text>
			<text transform="matrix(1 0 0 1 255 106.0247)" display="none" fill="#86BF86" font-family="'ArialMT'" font-size="11px">Great Falls</text>
			<text transform="matrix(1 0 0 1 255 136.5069)" display="none" fill="#66A61E" font-family="'ArialMT'" font-size="11px">Bozeman</text>
			<text transform="matrix(1 0 0 1 255 100.2512)" display="none" fill="#66A61E" font-family="'ArialMT'" font-size="11px">Helena</text>
			<text transform="matrix(1 0 0 1 255 88.8072)" display="none" fill="#66A61E" font-family="'ArialMT'" font-size="11px">Billings</text>
		</g>
		<g>
			<text transform="matrix(1 0 0 1 17.4585 44)" display="none" font-family="'Arial-BoldMT'" font-size="12px">Earnings by region</text>
		</g>
		<g>
			<g transform="translate(0.5,150.5)">
				<path fill="none" d="M50,54L50,54L50,54L50,54z"/>
				<g>
					<g>
						<line fill="none" stroke="#888888" x1="50" y1="54" x2="50" y2="59"/>
						<line fill="none" stroke="#888888" x1="113" y1="54" x2="113" y2="59"/>
						<line fill="none" stroke="#888888" x1="175" y1="54" x2="175" y2="59"/>
						<line fill="none" stroke="#888888" x1="250" y1="54" x2="250" y2="59"/>
					</g>
					<g>
						<text transform="matrix(1 0 0 1 38.8869 69)" display="none" font-family="'ArialMT'" font-size="10px">2000</text>
						<text transform="matrix(1 0 0 1 100.2896 69)" display="none" font-family="'ArialMT'" font-size="10px">2005</text>
						<text transform="matrix(1 0 0 1 162.781 69)" display="none" font-family="'ArialMT'" font-size="10px">2010</text>
						<text transform="matrix(1 0 0 1 238.6308 69)" display="none" font-family="'ArialMT'" font-size="10px">2016</text>
					</g>
					<g>
						<line fill="none" stroke="#888888" x1="50" y1="54" x2="250" y2="54"/>
					</g>
				</g>
			</g>
		</g>
		<g>
			<g transform="translate(0.5,0.5)">
				<path fill="none" d="M50,54L50,54L50,54L50,54z"/>
				<g>
					<g>
						<line fill="none" stroke="#888888" x1="50" y1="204" x2="45" y2="204"/>
						<line fill="none" stroke="#888888" x1="50" y1="154" x2="45" y2="154"/>
						<line fill="none" stroke="#888888" x1="50" y1="104" x2="45" y2="104"/>
						<line fill="none" stroke="#888888" x1="50" y1="54" x2="45" y2="54"/>
					</g>
					<g>
						<text transform="matrix(1 0 0 1 20.9707 207)" display="none" font-family="'ArialMT'" font-size="10px">40%</text>
						<text transform="matrix(1 0 0 1 20.9707 157)" display="none" font-family="'ArialMT'" font-size="10px">60%</text>
						<text transform="matrix(1 0 0 1 20.9707 107)" display="none" font-family="'ArialMT'" font-size="10px">80%</text>
						<g display="none">
							<text transform="matrix(1 0 0 1 15.8477 57)" display="inline" font-family="'ArialMT'" font-size="10px">100%</text>
							<text transform="matrix(1 0 0 1 16.4141 69)" display="inline" font-family="'ArialMT'" font-size="10px">of US</text>
							<text transform="matrix(1 0 0 1 22.5225 81)" display="inline" font-family="'ArialMT'" font-size="10px">avg.</text>
						</g>
					</g>
				</g>
			</g>
		</g>
	</g>
	<g transform="translate(56,29)">
		<g>
			<g transform="translate(0,0)">
				<g>
					<g>
						<g transform="translate(0.5,150.5)">
							<path fill="none" d="M294,25L294,25L294,25L294,25z"/>
						</g>
					</g>
					<g>
						<g transform="translate(0.5,0.5)">
							<path fill="none" d="M294,25L294,25L294,25L294,25z"/>
							<g>
								<g>
									<line fill="none" stroke="#DDDDDD" x1="294" y1="175" x2="494" y2="175"/>
									<line fill="none" stroke="#DDDDDD" x1="294" y1="145" x2="494" y2="145"/>
									<line fill="none" stroke="#DDDDDD" x1="294" y1="115" x2="494" y2="115"/>
									<line fill="none" stroke="#DDDDDD" x1="294" y1="85" x2="494" y2="85"/>
									<line fill="none" stroke="#DDDDDD" x1="294" y1="55" x2="494" y2="55"/>
									<line fill="none" stroke="#DDDDDD" x1="294" y1="25" x2="494" y2="25"/>
								</g>
							</g>
						</g>
					</g>
					<g>
						<g display="none">
							<text transform="matrix(1 0 0 1 499.25 87.45)" display="inline" fill="#444444" font-family="'ArialMT'" font-size="11px">M</text>
							
								<text transform="matrix(1 0 0 1 508.4131 87.45)" display="inline" fill="#444444" font-family="'ArialMT'" font-size="11px">T</text>
						</g>
						<text transform="matrix(1 0 0 1 499 45.45)" display="none" fill="#444444" font-family="'ArialMT'" font-size="11px">US</text>
						<text transform="matrix(1 0 0 1 499 143.8169)" display="none" fill="#1B9E77" font-family="'ArialMT'" font-size="11px">Nat. Resources</text>
						<text transform="matrix(1 0 0 1 499 99.995)" display="none" fill="#D95F02" font-family="'ArialMT'" font-size="11px">Construction</text>
						<text transform="matrix(1 0 0 1 499 58.8042)" display="none" fill="#7570B3" font-family="'ArialMT'" font-size="11px">Manufacturing</text>
						<g display="none">
							<text transform="matrix(1 0 0 1 499 110.4656)" display="inline" fill="#E7298A" font-family="'ArialMT'" font-size="11px">T</text>
							
								<text transform="matrix(1 0 0 1 505.311 110.4656)" display="inline" fill="#E7298A" font-family="'ArialMT'" font-size="11px">r</text>
							
								<text transform="matrix(1 0 0 1 508.9741 110.4656)" display="inline" fill="#E7298A" font-family="'ArialMT'" font-size="11px">a</text>
							
								<text transform="matrix(1 0 0 1 515.0918 110.4656)" display="inline" fill="#E7298A" font-family="'ArialMT'" font-size="11px">d</text>
							
								<text transform="matrix(1 0 0 1 521.2095 110.4656)" display="inline" fill="#E7298A" font-family="'ArialMT'" font-size="11px">e</text>
						</g>
						<text transform="matrix(1 0 0 1 499 128.5748)" display="none" fill="#66A61E" font-family="'ArialMT'" font-size="11px">Services</text>
						<text transform="matrix(1 0 0 1 499 68.0264)" display="none" fill="#E6AB02" font-family="'ArialMT'" font-size="11px">Healthcare</text>
						<text transform="matrix(1 0 0 1 499 31.751)" display="none" fill="#A6761D" font-family="'ArialMT'" font-size="11px">Government</text>
					</g>
					<g>
						<text transform="matrix(1 0 0 1 263.1011 15)" display="none" font-family="'Arial-BoldMT'" font-size="12px">Earnings by industry sector</text>
					</g>
					<g>
						<g transform="translate(0.5,150.5)">
							<path fill="none" d="M294,25L294,25L294,25L294,25z"/>
							<g>
								<g>
									<line fill="none" stroke="#888888" x1="294" y1="25" x2="294" y2="30"/>
									<line fill="none" stroke="#888888" x1="357" y1="25" x2="357" y2="30"/>
									<line fill="none" stroke="#888888" x1="419" y1="25" x2="419" y2="30"/>
									<line fill="none" stroke="#888888" x1="494" y1="25" x2="494" y2="30"/>
								</g>
								<g>
									<text transform="matrix(1 0 0 1 294.01 40)" display="none" font-family="'ArialMT'" font-size="10px">2000</text>
									<text transform="matrix(1 0 0 1 345.4126 40)" display="none" font-family="'ArialMT'" font-size="10px">2005</text>
									<text transform="matrix(1 0 0 1 407.9041 40)" display="none" font-family="'ArialMT'" font-size="10px">2010</text>
									<text transform="matrix(1 0 0 1 482.3955 40)" display="none" font-family="'ArialMT'" font-size="10px">2016</text>
								</g>
								<g>
									<line fill="none" stroke="#888888" x1="294" y1="25" x2="494" y2="25"/>
								</g>
							</g>
						</g>
					</g>
					<g>
						<g transform="translate(0.5,0.5)">
							<path fill="none" d="M294,25L294,25L294,25L294,25z"/>
							<g>
								<g>
									<line fill="none" stroke="#888888" x1="294" y1="175" x2="289" y2="175"/>
									<line fill="none" stroke="#888888" x1="294" y1="115" x2="289" y2="115"/>
									<line fill="none" stroke="#888888" x1="294" y1="55" x2="289" y2="55"/>
									<line fill="none" stroke="#888888" x1="294" y1="25" x2="289" y2="25"/>
								</g>
								<g>
									<text transform="matrix(1 0 0 1 266.9707 178)" display="none" font-family="'ArialMT'" font-size="10px">20%</text>
									<text transform="matrix(1 0 0 1 266.9707 119)" display="none" font-family="'ArialMT'" font-size="10px">60%</text>
									<g display="none">
										<text transform="matrix(1 0 0 1 261.8477 58)" display="inline" font-family="'ArialMT'" font-size="10px">100%</text>
										<text transform="matrix(1 0 0 1 262.4141 70)" display="inline" font-family="'ArialMT'" font-size="10px">of US</text>
										<text transform="matrix(1 0 0 1 268.5225 82)" display="inline" font-family="'ArialMT'" font-size="10px">avg.</text>
									</g>
									<text transform="matrix(1 0 0 1 261.8477 28)" display="none" font-family="'ArialMT'" font-size="10px">120%</text>
								</g>
								<g>
									<path fill="none" stroke="#888888" d="M294,25"/>
									<path fill="none" stroke="#888888" d="M294,175"/>
								</g>
							</g>
						</g>
					</g>
					<g>
						<g transform="translate(0,0)">
							<path fill="none" d="M294,26h200v150H294V26z"/>
							<g>
								<g>
									<path fill="none" stroke="#444444" stroke-width="2.5" d="M494,98.45l-12.491,0.195l-12.491-0.371l-12.491,0.349
										L444,98.638l-12.491,0.883l-12.491,1.828l-12.491,0.668L394,103.327l-12.491,0.924l-12.491,0.997l-12.491,1.146L344,107.93
										l-12.491-0.348l-12.491,0.994l-12.491,2.549"/>
								</g>
							</g>
						</g>
						<g transform="translate(0,0)">
							<path fill="none" d="M294,26h200v150H294V26z"/>
							<g>
								<g>
									<path fill="none" stroke="#1B9E77" stroke-width="2" d="M494,124.695l-12.491-2.349l-12.491-7.485l-12.491-0.069
										L444,116.986l-12.491,3.231l-12.491,6.426l-12.491-0.884L394,123.632l-12.491,0.148l-12.491,0.487l-12.491,6.947
										L344,136.287l-12.491,5.506l-12.491-1.143l-12.491-0.013"/>
								</g>
							</g>
						</g>
						<g transform="translate(0,0)">
							<path fill="none" d="M294,26h200v150H294V26z"/>
							<g>
								<g>
									<path fill="none" stroke="#D95F02" stroke-width="2" d="M494,100.676l-12.491,0.754l-12.491,2.403l-12.491,2.179
										L444,108.35l-12.491-0.25l-12.491,3.476l-12.491,1.907L394,110.923l-12.491-1.998l-12.491,5.474l-12.491,2.113L344,118.73
										l-12.491-2.345l-12.491,1.723l-12.491,0.506"/>
								</g>
							</g>
						</g>
						<g transform="translate(0,0)">
							<path fill="none" d="M294,26h200v150H294V26z"/>
							<g>
								<g>
									<path fill="none" stroke="#7570B3" stroke-width="2" d="M494,56.89l-12.491-0.804l-12.491-0.589l-12.491,5.502L444,58.751
										l-12.491-1.82l-12.491-3.857l-12.491,4.074L394,54.727l-12.491,0.062l-12.491,1.474l-12.491,0.324L344,58.593
										l-12.491-3.963l-12.491,2.235l-12.491,0.168"/>
								</g>
							</g>
						</g>
						<g transform="translate(0,0)">
							<path fill="none" d="M294,26h200v150H294V26z"/>
							<g>
								<g>
									<path fill="none" stroke="#E7298A" stroke-width="2" d="M494,103.474l-12.491-1.644l-12.491-0.67l-12.491-0.48L444,102.619
										l-12.491,0.713l-12.491,2.658l-12.491,1.829L394,107.097l-12.491,0.557l-12.491,1.04l-12.491,1.209L344,110.082l-12.491,0
										l-12.491,0.171l-12.491,2.839"/>
								</g>
							</g>
						</g>
						<g transform="translate(0,0)">
							<path fill="none" d="M294,26h200v150H294V26z"/>
							<g>
								<g>
									<path fill="none" stroke="#66A61E" stroke-width="2" d="M494,130.47l-12.491-0.399l-12.491,0.877l-12.491,0.642
										L444,130.732l-12.491,2.026l-12.491,1.201l-12.491,0.312L394,134.61l-12.491,0.536l-12.491,1.095l-12.491,0.776
										L344,138.086l-12.491-0.918l-12.491,0.139l-12.491,1.662"/>
								</g>
							</g>
						</g>
						<g transform="translate(0,0)">
							<path fill="none" d="M294,26h200v150H294V26z"/>
							<g>
								<g>
									<path fill="none" stroke="#E6AB02" stroke-width="2" d="M494,62.725l-12.491,1.763l-12.491,2.709l-12.491-0.066L444,70.255
										l-12.491-1.192l-12.491,2.665l-12.491,1.939L394,79.348l-12.491,3.506l-12.491-1.084l-12.491,2.282L344,86.364
										l-12.491,1.474l-12.491,1.797l-12.491,5.952"/>
								</g>
							</g>
						</g>
						<g transform="translate(0,0)">
							<path fill="none" d="M294,26h200v150H294V26z"/>
							<g>
								<g>
									<path fill="none" stroke="#A6761D" stroke-width="2" d="M494,29.363l-12.491,3.821l-12.491-1.51l-12.491-0.324L444,27.705
										l-12.491,0.552l-12.491,2.53l-12.491-1.879L394,33.063l-12.491,3.032l-12.491,1.8l-12.491,0.736L344,42.653l-12.491-0.293
										l-12.491,3.482l-12.491,6.891"/>
								</g>
							</g>
						</g>
					</g>
					<line fill="none" stroke="#444444" stroke-width="2.5" x1="307.5" y1="54.5" x2="494.5" y2="55"/>
				</g>
			</g>
		</g>
	</g>
	<g>
		<line fill="none" stroke="#000000" x1="94.5" y1="71.5" x2="94.5" y2="60.53"/>
		<g>
			<polygon points="94.5,57 96.533,61.975 94.5,60.794 92.468,61.975 			"/>
		</g>
	</g>
	<g>
		<line fill="none" stroke="#000000" x1="94.5" y1="98" x2="94.5" y2="134.47"/>
		<g>
			<polygon points="94.5,138 92.467,133.025 94.5,134.206 96.532,133.025 			"/>
		</g>
	</g>
	<g>
		<path fill="none" stroke="#000000" d="M240.5,68c5.894,0.31,7.361-3.806,7.626-6.976"/>
		<g>
			<polygon points="248,57.5 250.126,62.435 248.072,61.294 246.062,62.512 			"/>
		</g>
	</g>
	<g>
		<path fill="none" stroke="#000000" d="M222,153.5c15.133-0.268,22.68-16.08,25.301-23.148"/>
		<g>
			<polygon points="248.404,127 248.743,132.363 247.193,130.596 244.891,131.066 			"/>
		</g>
	</g>
	<g>
		<path fill="none" stroke="#000000" d="M222,186.5c13.939-0.145,21.442-8.003,24.587-12.473"/>
		<g>
			<polygon points="248.404,171 247.49,176.296 246.392,174.217 244.043,174.14 			"/>
		</g>
	</g>
	<g>
		<path fill="none" stroke="#000000" d="M537.5,107c3.919,0,7.197-4.905,9.001-8.308"/>
		<g>
			<polygon points="548,95.5 547.691,100.865 546.365,98.924 544.023,99.113 			"/>
		</g>
	</g>
	<g>
		<path fill="none" stroke="#000000" d="M531,68.5c12.603,2.521,16.47-1.312,17.607-4.492"/>
		<g>
			<polygon points="549,60.5 550.295,65.715 548.454,64.255 546.273,65.13 			"/>
		</g>
	</g>
	<g>
		<path fill="none" stroke="#000000" d="M534.5,186c4.616,0,10.711-14.499,13.278-21.189"/>
		<g>
			<polygon points="549,161.5 549.173,166.871 547.679,165.057 545.363,165.456 			"/>
		</g>
	</g>
	<g>
		<path fill="none" stroke="#000000" d="M553.5,113c-3.753,0-5.55,4.304-6.369,7.527"/>
		<g>
			<polygon points="546.5,124 545.454,118.729 547.224,120.276 549.444,119.505 			"/>
		</g>
	</g>
	<g>
		<path fill="none" stroke="#000000" d="M553.5,70c-3.753,0-5.55,4.304-6.369,7.527"/>
		<g>
			<polygon points="546.5,81 545.454,75.729 547.224,77.276 549.444,76.505 			"/>
		</g>
	</g>
</g>
<style type="text/css">
#g-mt-economy-5-wage-gap-medium-img rect, #g-mt-economy-5-wage-gap-medium-img circle, #g-mt-economy-5-wage-gap-medium-img path, #g-mt-economy-5-wage-gap-medium-img line, #g-mt-economy-5-wage-gap-medium-img polyline { vector-effect: non-scaling-stroke; }
</style>
</svg>

