<?xml version="1.0" encoding="utf-8"?>
<!-- Generator: Adobe Illustrator 22.1.0, SVG Export Plug-In . SVG Version: 6.00 Build 0)  -->
<svg version="1.2" baseProfile="tiny" id="g-mt-economy-3a-sector-line-charts-mobile-img" xmlns="http://www.w3.org/2000/svg" xmlns:xlink="http://www.w3.org/1999/xlink"
	 x="0px" y="0px" viewBox="0 0 300 537" xml:space="preserve">
<g>
	<g transform="translate(50,10)">
		<g transform="translate(0,160)">
			<g transform="translate(0.5,0)">
				<line fill="none" stroke="#000000" x1="-11.773" y1="-48.837" x2="-11.773" y2="-45.413"/>
				<text transform="matrix(1 0 0 1 -22.6489 -36.6494)" display="none" font-family="'ArialMT'" font-size="10px">1980</text>
			</g>
			<g transform="translate(56.05555555555556,0)">
				<line fill="none" stroke="#000000" x1="-18.618" y1="-48.837" x2="-18.618" y2="-45.413"/>
				<text transform="matrix(1 0 0 1 -29.4935 -36.6494)" display="none" font-family="'ArialMT'" font-size="10px">1990</text>
			</g>
			<g transform="translate(111.61111111111111,0)">
				<line fill="none" stroke="#000000" x1="-25.462" y1="-48.837" x2="-25.462" y2="-45.413"/>
				<text transform="matrix(1 0 0 1 -36.3382 -36.6494)" display="none" font-family="'ArialMT'" font-size="10px">2000</text>
			</g>
			<g transform="translate(167.16666666666669,0)">
				<line fill="none" stroke="#000000" x1="-32.307" y1="-48.837" x2="-32.307" y2="-45.413"/>
				<text transform="matrix(1 0 0 1 -43.1823 -36.6494)" display="none" font-family="'ArialMT'" font-size="10px">2010</text>
			</g>
			<g transform="translate(167.16666666666669,0)">
				<line fill="none" stroke="#000000" x1="-3.307" y1="-48.837" x2="-3.307" y2="-45.413"/>
				<text transform="matrix(1 0 0 1 -14.1823 -36.6494)" display="none" font-family="'ArialMT'" font-size="10px">2016</text>
			</g>
		</g>
		<g>
			<g transform="translate(0,160.5)">
				<line fill="none" stroke="#000000" x1="-11.712" y1="-49.051" x2="-16.972" y2="-49.051"/>
				<line fill="none" stroke="#000000" stroke-opacity="0.1" x1="-11.712" y1="-49.051" x2="163.648" y2="-49.051"/>
				<text transform="matrix(1 0 0 1 -24.7798 -44.2256)" display="none" font-family="'ArialMT'" font-size="10px">0</text>
			</g>
			<g transform="translate(0,120.5)">
				<line fill="none" stroke="#000000" stroke-opacity="0.1" x1="-11.712" y1="-31.879" x2="163.648" y2="-31.879"/>
				<line fill="none" stroke="#000000" x1="-11.712" y1="-31.879" x2="-16.972" y2="-31.879"/>
				<text transform="matrix(1 0 0 1 -37.0112 -30.0527)" display="none" font-family="'ArialMT'" font-size="10px">20K</text>
			</g>
			<g transform="translate(0,80.5)">
				<line fill="none" stroke="#000000" stroke-opacity="0.1" x1="-11.712" y1="-14.706" x2="163.648" y2="-14.706"/>
				<line fill="none" stroke="#000000" x1="-11.712" y1="-14.706" x2="-16.972" y2="-14.706"/>
				<text transform="matrix(1 0 0 1 -37.0112 -12.8799)" display="none" font-family="'ArialMT'" font-size="10px">40K</text>
			</g>
			<g transform="translate(0,40.5)">
				<line fill="none" stroke="#000000" x1="-11.712" y1="2.467" x2="-16.972" y2="2.467"/>
				<line fill="none" stroke="#000000" stroke-opacity="0.1" x1="-11.712" y1="2.467" x2="163.648" y2="2.467"/>
				<text transform="matrix(1 0 0 1 -37.0112 4.292)" display="none" font-family="'ArialMT'" font-size="10px">60K</text>
			</g>
			<g transform="translate(0,0.5)">
				<line fill="none" stroke="#000000" x1="-11.712" y1="19.639" x2="-16.972" y2="19.639"/>
				<line fill="none" stroke="#000000" stroke-opacity="0.1" x1="-11.712" y1="19.639" x2="163.648" y2="19.639"/>
				<g display="none">
					<text transform="matrix(1 0 0 1 -37.0112 21.4648)" display="inline" font-family="'ArialMT'" font-size="10px">80K</text>
					<text transform="matrix(1 0 0 1 -37.563 33.4648)" display="inline" font-family="'ArialMT'" font-size="10px">jobs</text>
				</g>
			</g>
		</g>
		<g>
			<rect x="-11.712" y="19.854" fill="#EEDD22" fill-opacity="0.2" width="0" height="91.31"/>
			<rect x="-6.841" y="19.854" fill="#EEDD22" fill-opacity="0.2" width="4.871" height="91.31"/>
			<rect x="36.999" y="19.854" fill="#EEDD22" fill-opacity="0.2" width="4.871" height="91.31"/>
			<rect x="90.581" y="19.854" fill="#EEDD22" fill-opacity="0.2" width="0" height="91.31"/>
			<rect x="119.808" y="19.854" fill="#EEDD22" fill-opacity="0.2" width="9.742" height="91.31"/>
		</g>
		<g>
			<path fill="none" stroke="#000000" stroke-opacity="0.15" stroke-dasharray="1" d="M-11.712,75.084l4.871,0.388l4.871,0.603
				l4.871-2.538l4.871,1.228l4.871,0.018l4.871-0.12l4.871-0.275l4.871,0.685l4.871,1.002l4.871,0.191l4.871,0.953l4.871,0.909
				l4.871-0.792l4.871-0.452l4.871-0.808l4.871-0.154l4.871,0.944l4.871-2.342l4.871,0.144l4.871-0.945"/>
			<path fill="none" stroke="#000000" stroke-opacity="0.15" stroke-dasharray="1" d="M-11.712,106.856l4.871-0.232l4.871-0.015
				l4.871-0.522l4.871-0.468l4.871-0.551l4.871-0.024l4.871-0.933l4.871,0.148l4.871,0.449l4.871-0.439l4.871-0.45l4.871,0.094
				l4.871-0.533l4.871-1.311l4.871,0.515l4.871-0.374l4.871-0.33l4.871-0.684l4.871-1.719l4.871-0.037"/>
			<path fill="none" stroke="#000000" stroke-opacity="0.15" stroke-dasharray="1" d="M-11.712,99.963l4.871-3.208l4.871,2.235
				l4.871,1.805l4.871-0.304l4.871,1.238l4.871,1.395l4.871-0.8l4.871-0.196l4.871-0.006l4.871,0.029l4.871,0.469l4.871,0.092
				l4.871,0.002l4.871,0.203l4.871,0.352l4.871,0.042l4.871-0.092l4.871,0.245l4.871,0.059l4.871,0.187"/>
			<path fill="none" stroke="#000000" stroke-opacity="0.15" stroke-dasharray="1" d="M-11.712,95.497l4.871,0.386l4.871,0.615
				l4.871,0.06l4.871,0.185l4.871-0.03l4.871,0.212l4.871-0.541l4.871-0.41l4.871-0.243l4.871-0.288l4.871,0.878l4.871-0.397
				l4.871,0.074l4.871-0.07l4.871,0.592l4.871,0.161l4.871,0.22l4.871-0.153l4.871,0.124l4.871-0.996"/>
			<path fill="none" stroke="#000000" stroke-opacity="0.15" stroke-dasharray="1" d="M-11.712,100.551l4.871,0.12l4.871-0.215
				l4.871-0.324l4.871,0.291l4.871-0.323l4.871,0.104l4.871-0.25l4.871-0.051l4.871-0.776l4.871,0.034l4.871-0.058l4.871,0.34
				l4.871-0.058l4.871,0.47l4.871,0.42l4.871,0.66l4.871,0.478l4.871,0.079l4.871-0.074l4.871,0.344"/>
			<path fill="none" stroke="#000000" stroke-opacity="0.15" stroke-dasharray="1" d="M-11.712,89.069l4.871,0.467l4.871,0.481
				l4.871-0.286l4.871,0.024l4.871-0.41l4.871-0.063l4.871-0.025l4.871-1.17l4.871-0.699l4.871-0.833l4.871-1.203l4.871-0.928
				l4.871,0.382l4.871-0.017l4.871,0.307l4.871-0.037l4.871-0.128l4.871-0.326l4.871-0.534l4.871,0.681"/>
			<path fill="none" stroke="#000000" stroke-opacity="0.15" stroke-dasharray="1" d="M-11.712,72.59l4.871,0.266l4.871-0.381
				l4.871-0.357l4.871-1.261l4.871-0.543l4.871-0.519l4.871,0.701l4.871,0.019l4.871-0.252l4.871-1.216l4.871-0.544l4.871-2.154
				l4.871-0.187l4.871-1.197l4.871-1.124l4.871-1.155L71.097,62l4.871-0.891l4.871-0.154l4.871-0.361"/>
			<path fill="none" stroke="#000000" stroke-opacity="0.15" stroke-dasharray="1" d="M90.581,74.201l4.871,0.334l4.871,1.839
				l4.871,0.813l4.871,0.788l4.871,0.732l4.871-0.369l4.871-0.366l4.871,0.189l4.871,0.099l4.871-0.599l4.871-0.434l4.871-0.487
				l4.871,0.52l4.871-0.532l4.871,0.015"/>
			<path fill="none" stroke="#000000" stroke-opacity="0.15" stroke-dasharray="1" d="M90.581,103.121l4.871-0.882l4.871,0.872
				l4.871-0.175l4.871,0.071l4.871,0.146l4.871-0.312l4.871-0.176l4.871,0.443l4.871-0.09l4.871-0.067l4.871-0.422l4.871-0.184
				l4.871-0.344l4.871,0.325l4.871,0.072"/>
			<path fill="none" stroke="#000000" stroke-opacity="0.15" stroke-dasharray="1" d="M90.581,103.152l4.871,0.331l4.871-0.239
				l4.871-1.109l4.871-0.677l4.871-0.96l4.871-1.001l4.871-0.84l4.871,1.502l4.871-1.654l4.871-0.218l4.871-4.087l4.871,0.123
				l4.871,0.494l4.871,0.748l4.871,1.314"/>
			<path fill="none" stroke="#000000" stroke-opacity="0.15" stroke-dasharray="1" d="M90.581,91.607l4.871,0.253l4.871-0.342
				l4.871-0.735l4.871-0.384l4.871-0.3l4.871-0.365l4.871,0.22l4.871,0.744l4.871,0.46l4.871-0.096l4.871-0.699l4.871-1.051
				l4.871-1.032l4.871-0.948l4.871-0.219"/>
			<path fill="none" stroke="#000000" stroke-opacity="0.15" stroke-dasharray="1" d="M90.581,32.086l4.871-0.475l4.871,0.193
				l4.871-1.665l4.871-1.681l4.871-1.305l4.871-3.036l4.871,0.592l4.871,3.49l4.871,2.622l4.871-0.736l4.871,0.059l4.871-1.122
				l4.871-2.078l4.871-1.881l4.871-1.211"/>
			<path fill="none" stroke="#000000" stroke-opacity="0.15" stroke-dasharray="1" d="M90.581,47.337l4.871-2.134l4.871-0.59
				l4.871-1.392l4.871-1.75l4.871-1.707l4.871-2.026l4.871-2.125l4.871-1.591l4.871-0.97l4.871,0.306l4.871-2.282l4.871-1.281
				l4.871-0.38l4.871-1.602l4.871-2.657"/>
			<path fill="none" stroke="#000000" stroke-opacity="0.15" stroke-dasharray="1" d="M90.581,96.265l4.871-0.872l4.871-0.276
				l4.871,0.188l4.871,0.407l4.871,0.009l4.871,0.126l4.871-0.257l4.871-0.625l4.871-0.757l4.871,1.115l4.871,0.36l4.871,0.559
				l4.871,0.083l4.871-0.099l4.871-0.273"/>
			<path fill="none" stroke="#000000" stroke-opacity="0.15" stroke-dasharray="1" d="M90.581,101.62l4.871-0.05l4.871-0.115
				l4.871,0.046l4.871,0.249l4.871-0.006l4.871,0.087l4.871-0.031l4.871,0.228l4.871-0.106l4.871-0.104l4.871-0.145l4.871,0.018
				l4.871,0.269l4.871,0.228l4.871,0.031"/>
			<path fill="none" stroke="#000000" stroke-opacity="0.15" stroke-dasharray="1" d="M90.581,83.562l4.871,1.202l4.871-1.62
				l4.871-0.734l4.871-0.542l4.871,0.197l4.871-1l4.871,0.436l4.871-0.562l4.871,0.072l4.871-0.495l4.871,0.055l4.871-0.548
				l4.871-0.495l4.871,0.404l4.871-0.199"/>
			<path fill="none" stroke="#000000" stroke-opacity="0.15" stroke-dasharray="1" d="M90.581,60.313l4.871-0.038l4.871-0.97
				l4.871-0.522l4.871,0.56l4.871-0.112l4.871-0.121l4.871-0.862l4.871-1.16l4.871-0.413l4.871,0.71l4.871,0.733l4.871,0.031
				l4.871-0.103l4.871-0.606l4.871-0.702"/>
			<path fill="none" stroke="#D95F02" stroke-width="2" stroke-linecap="round" stroke-linejoin="round" d="M-11.712,85.767
				l4.871,1.374l4.871-1.135l4.871-0.925l4.871-0.36l4.871,1.925l4.871,1.588l4.871,3.575l4.871-0.591l4.871-0.77l4.871-0.732
				l4.871-2.139l4.871-3.657l4.871-0.804l4.871-3.819l4.871-1.289l4.871-1.577l4.871-1.464l4.871-1.746l4.871-1.327l4.871,0.094"/>
			<path fill="none" stroke="#66A61E" stroke-width="2" stroke-linecap="round" stroke-linejoin="round" d="M90.581,58.487
				l4.871-0.984l4.871-0.87l4.871-1.334l4.871-1.039l4.871-0.954l4.871-0.705l4.871-0.759l4.871,2.026l4.871,0.866l4.871-1.266
				l4.871-1.507l4.871-1.921l4.871-0.818l4.871-2.303l4.871-2.025"/>
			<path fill="none" stroke="#D95F02" stroke-width="2" stroke-linecap="round" stroke-linejoin="round" d="M90.581,67.243
				l4.871,0.083l4.871-3.117l4.871-3.413l4.871-4.996l4.871-3.493l4.871-3.155l4.871,4.09l4.871,7.918l4.871,3.275l4.871,0.612
				l4.871-0.599l4.871-1.368l4.871-1.055l4.871-1.939l4.871-0.499"/>
			<path fill="none" stroke="#66A61E" stroke-width="2" stroke-linecap="round" stroke-linejoin="round" d="M90.581,89.176
				l4.871,0.033l4.871-1.497l4.871-2.327l4.871-2.638l4.871-2.49l4.871-2.241l4.871-0.738l4.871,0.272l4.871-1.176l4.871-1.293
				l4.871,0.232l4.871-0.936l4.871-1.663l4.871-1.48l4.871-1.368"/>
			<path fill="none" stroke="#66A61E" stroke-width="2" stroke-linecap="round" stroke-linejoin="round" d="M90.581,87.974
				l4.871-0.938l4.871-0.393l4.871-0.11l4.871-0.2l4.871-0.688l4.871-1.365l4.871-1.464l4.871-1.24l4.871,0.922l4.871-1.241
				l4.871,1.026l4.871,0.12l4.871,0.877l4.871-0.469l4.871,0.128"/>
			<path fill="none" stroke="#000000" stroke-opacity="0.15" stroke-dasharray="1" d="M90.581,91.262l4.871,0.223l4.871,0.401
				l4.871-0.181l4.871-0.865l4.871-0.637l4.871-0.312l4.871,0.584l4.871,0.454l4.871,0.292l4.871-1.161l4.871-1.019l4.871-0.431
				l4.871-0.209l4.871-0.271l4.871,0.305"/>
			<path fill="none" stroke="#66A61E" stroke-width="2" stroke-linecap="round" stroke-linejoin="round" d="M90.581,95.086
				l4.871-1.039l4.871-1.026l4.871-0.547l4.871-0.888l4.871-1.056l4.871-1.212l4.871-0.376l4.871,0.709l4.871,0.243l4.871-0.305
				l4.871-0.163l4.871-0.554l4.871-0.745l4.871,0.394l4.871-0.31"/>
		</g>
	</g>
	<g transform="translate(50,10)">
		<g transform="translate(0,160)">
			<g transform="translate(0.5,0)">
				<line fill="none" stroke="#000000" x1="-11.773" y1="84.737" x2="-11.773" y2="88.162"/>
				<text transform="matrix(1 0 0 1 -22.6489 96.9258)" display="none" font-family="'ArialMT'" font-size="10px">1980</text>
			</g>
			<g transform="translate(56.05555555555556,0)">
				<line fill="none" stroke="#000000" x1="-18.618" y1="84.737" x2="-18.618" y2="88.162"/>
				<text transform="matrix(1 0 0 1 -29.4935 96.9258)" display="none" font-family="'ArialMT'" font-size="10px">1990</text>
			</g>
			<g transform="translate(111.61111111111111,0)">
				<line fill="none" stroke="#000000" x1="-25.462" y1="84.737" x2="-25.462" y2="88.162"/>
				<text transform="matrix(1 0 0 1 -36.3382 96.9258)" display="none" font-family="'ArialMT'" font-size="10px">2000</text>
			</g>
			<g transform="translate(167.16666666666669,0)">
				<line fill="none" stroke="#000000" x1="-32.307" y1="84.737" x2="-32.307" y2="88.162"/>
				<text transform="matrix(1 0 0 1 -43.1823 96.9258)" display="none" font-family="'ArialMT'" font-size="10px">2010</text>
			</g>
		</g>
		<g>
			<g transform="translate(0,160.5)">
				<line fill="none" stroke="#000000" x1="-11.712" y1="84.523" x2="-16.972" y2="84.523"/>
				<line fill="none" stroke="#000000" stroke-opacity="0.1" x1="-11.712" y1="84.523" x2="163.648" y2="84.523"/>
				<text transform="matrix(1 0 0 1 -24.7798 89.3486)" display="none" font-family="'ArialMT'" font-size="10px">0</text>
			</g>
			<g transform="translate(0,120.5)">
				<line fill="none" stroke="#000000" x1="-11.712" y1="101.695" x2="-16.972" y2="101.695"/>
				<line fill="none" stroke="#000000" stroke-opacity="0.1" x1="-11.712" y1="101.695" x2="163.648" y2="101.695"/>
				<text transform="matrix(1 0 0 1 -37.0112 103.5215)" display="none" font-family="'ArialMT'" font-size="10px">20K</text>
			</g>
			<g transform="translate(0,80.5)">
				<line fill="none" stroke="#000000" x1="-11.712" y1="118.868" x2="-16.972" y2="118.868"/>
				<line fill="none" stroke="#000000" stroke-opacity="0.1" x1="-11.712" y1="118.868" x2="163.648" y2="118.868"/>
				<text transform="matrix(1 0 0 1 -37.0112 120.6943)" display="none" font-family="'ArialMT'" font-size="10px">40K</text>
			</g>
			<g transform="translate(0,40.5)">
				<line fill="none" stroke="#000000" x1="-11.712" y1="136.041" x2="-16.972" y2="136.041"/>
				<line fill="none" stroke="#000000" stroke-opacity="0.1" x1="-11.712" y1="136.041" x2="163.648" y2="136.041"/>
				<text transform="matrix(1 0 0 1 -37.0112 137.8672)" display="none" font-family="'ArialMT'" font-size="10px">60K</text>
			</g>
			<g transform="translate(0,0.5)">
				<line fill="none" stroke="#000000" x1="-11.712" y1="153.213" x2="-16.972" y2="153.213"/>
				<line fill="none" stroke="#000000" stroke-opacity="0.1" x1="-11.712" y1="153.213" x2="163.648" y2="153.213"/>
				<g display="none">
					<text transform="matrix(1 0 0 1 -37.0112 155.0391)" display="inline" font-family="'ArialMT'" font-size="10px">80K</text>
					<text transform="matrix(1 0 0 1 -37.563 167.0391)" display="inline" font-family="'ArialMT'" font-size="10px">jobs</text>
				</g>
			</g>
		</g>
		<g>
			<rect x="-11.712" y="153.428" fill="#EEDD22" fill-opacity="0.2" width="0" height="91.31"/>
			<rect x="-6.841" y="153.428" fill="#EEDD22" fill-opacity="0.2" width="4.871" height="91.31"/>
			<rect x="36.999" y="153.428" fill="#EEDD22" fill-opacity="0.2" width="4.871" height="91.31"/>
			<rect x="90.581" y="153.428" fill="#EEDD22" fill-opacity="0.2" width="0" height="91.31"/>
			<rect x="119.808" y="153.428" fill="#EEDD22" fill-opacity="0.2" width="9.742" height="91.31"/>
		</g>
		<g>
			<path fill="none" stroke="#000000" stroke-opacity="0.15" stroke-dasharray="1" d="M90.581,207.775l4.871,0.334l4.871,1.839
				l4.871,0.813l4.871,0.788l4.871,0.732l4.871-0.369l4.871-0.366l4.871,0.189l4.871,0.099l4.871-0.599l4.871-0.434l4.871-0.487
				l4.871,0.52l4.871-0.532l4.871,0.015"/>
			<path fill="none" stroke="#000000" stroke-opacity="0.15" stroke-dasharray="1" d="M90.581,236.695l4.871-0.882l4.871,0.872
				l4.871-0.175l4.871,0.071l4.871,0.146l4.871-0.312l4.871-0.176l4.871,0.443l4.871-0.09l4.871-0.067l4.871-0.422l4.871-0.184
				l4.871-0.344l4.871,0.325l4.871,0.072"/>
			<path fill="none" stroke="#000000" stroke-opacity="0.15" stroke-dasharray="1" d="M90.581,236.726l4.871,0.331l4.871-0.239
				l4.871-1.109l4.871-0.677l4.871-0.96l4.871-1.001l4.871-0.84l4.871,1.502l4.871-1.654l4.871-0.218l4.871-4.087l4.871,0.123
				l4.871,0.494l4.871,0.748l4.871,1.314"/>
			<path fill="none" stroke="#000000" stroke-opacity="0.15" stroke-dasharray="1" d="M90.581,200.818l4.871,0.083l4.871-3.117
				l4.871-3.413l4.871-4.996l4.871-3.493l4.871-3.155l4.871,4.09l4.871,7.918l4.871,3.275l4.871,0.612l4.871-0.599l4.871-1.368
				l4.871-1.055l4.871-1.939l4.871-0.499"/>
			<path fill="none" stroke="#000000" stroke-opacity="0.15" stroke-dasharray="1" d="M90.581,221.548l4.871-0.938l4.871-0.393
				l4.871-0.11l4.871-0.2l4.871-0.688l4.871-1.365l4.871-1.464l4.871-1.24l4.871,0.922l4.871-1.241l4.871,1.026l4.871,0.12
				l4.871,0.877l4.871-0.469l4.871,0.128"/>
			<path fill="none" stroke="#000000" stroke-opacity="0.15" stroke-dasharray="1" d="M90.581,222.75l4.871,0.033l4.871-1.497
				l4.871-2.327l4.871-2.638l4.871-2.49l4.871-2.241l4.871-0.738l4.871,0.272l4.871-1.176l4.871-1.293l4.871,0.232l4.871-0.936
				l4.871-1.663l4.871-1.48l4.871-1.368"/>
			<path fill="none" stroke="#000000" stroke-opacity="0.15" stroke-dasharray="1" d="M90.581,228.66l4.871-1.039l4.871-1.026
				l4.871-0.547l4.871-0.888l4.871-1.056l4.871-1.212l4.871-0.376l4.871,0.709l4.871,0.243l4.871-0.305l4.871-0.163l4.871-0.554
				l4.871-0.745l4.871,0.394l4.871-0.31"/>
			<path fill="none" stroke="#000000" stroke-opacity="0.15" stroke-dasharray="1" d="M90.581,192.061l4.871-0.984l4.871-0.87
				l4.871-1.334l4.871-1.039l4.871-0.954l4.871-0.705l4.871-0.759l4.871,2.026l4.871,0.866l4.871-1.266l4.871-1.507l4.871-1.921
				l4.871-0.818l4.871-2.303l4.871-2.025"/>
			<path fill="none" stroke="#000000" stroke-opacity="0.15" stroke-dasharray="1" d="M90.581,229.839l4.871-0.872l4.871-0.276
				l4.871,0.188l4.871,0.407l4.871,0.009l4.871,0.126l4.871-0.257l4.871-0.625l4.871-0.757l4.871,1.115l4.871,0.36l4.871,0.559
				l4.871,0.083l4.871-0.099l4.871-0.273"/>
			<path fill="none" stroke="#000000" stroke-opacity="0.15" stroke-dasharray="1" d="M90.581,235.194l4.871-0.05l4.871-0.115
				l4.871,0.046l4.871,0.249l4.871-0.006l4.871,0.087l4.871-0.031l4.871,0.228l4.871-0.106l4.871-0.104l4.871-0.145l4.871,0.018
				l4.871,0.269l4.871,0.228l4.871,0.031"/>
			<path fill="none" stroke="#000000" stroke-opacity="0.15" stroke-dasharray="1" d="M90.581,217.136l4.871,1.202l4.871-1.62
				l4.871-0.734l4.871-0.542l4.871,0.197l4.871-1l4.871,0.436l4.871-0.562l4.871,0.072l4.871-0.495l4.871,0.055l4.871-0.548
				l4.871-0.495l4.871,0.404l4.871-0.199"/>
			<path fill="none" stroke="#000000" stroke-opacity="0.15" stroke-dasharray="1" d="M90.581,193.887l4.871-0.038l4.871-0.97
				l4.871-0.522l4.871,0.56l4.871-0.112l4.871-0.121l4.871-0.862l4.871-1.16l4.871-0.413l4.871,0.71l4.871,0.733l4.871,0.031
				l4.871-0.103l4.871-0.606l4.871-0.702"/>
			<path fill="none" stroke="#000000" stroke-opacity="0.15" stroke-dasharray="1" d="M-11.712,208.658l4.871,0.388l4.871,0.603
				l4.871-2.538l4.871,1.228l4.871,0.018l4.871-0.12l4.871-0.275l4.871,0.685l4.871,1.002l4.871,0.191l4.871,0.953l4.871,0.909
				l4.871-0.792l4.871-0.452l4.871-0.808l4.871-0.154l4.871,0.944l4.871-2.342l4.871,0.144l4.871-0.945"/>
			<path fill="none" stroke="#000000" stroke-opacity="0.15" stroke-dasharray="1" d="M-11.712,240.43l4.871-0.232l4.871-0.015
				l4.871-0.522l4.871-0.468l4.871-0.551l4.871-0.024l4.871-0.933l4.871,0.148l4.871,0.449l4.871-0.439l4.871-0.45l4.871,0.094
				l4.871-0.533l4.871-1.311l4.871,0.515l4.871-0.374l4.871-0.33l4.871-0.684l4.871-1.719l4.871-0.037"/>
			<path fill="none" stroke="#000000" stroke-opacity="0.15" stroke-dasharray="1" d="M-11.712,233.537l4.871-3.208l4.871,2.235
				l4.871,1.805l4.871-0.304l4.871,1.238l4.871,1.395l4.871-0.8l4.871-0.196l4.871-0.006l4.871,0.029l4.871,0.469l4.871,0.092
				l4.871,0.002l4.871,0.203l4.871,0.352l4.871,0.042l4.871-0.092l4.871,0.245l4.871,0.059l4.871,0.187"/>
			<path fill="none" stroke="#000000" stroke-opacity="0.15" stroke-dasharray="1" d="M-11.712,219.341l4.871,1.374l4.871-1.135
				l4.871-0.924l4.871-0.36l4.871,1.925l4.871,1.588l4.871,3.575l4.871-0.591l4.871-0.77l4.871-0.732l4.871-2.139l4.871-3.657
				l4.871-0.804l4.871-3.819l4.871-1.289l4.871-1.577l4.871-1.464l4.871-1.746l4.871-1.327l4.871,0.094"/>
			<path fill="none" stroke="#000000" stroke-opacity="0.15" stroke-dasharray="1" d="M-11.712,229.071l4.871,0.386l4.871,0.615
				l4.871,0.061l4.871,0.185l4.871-0.03l4.871,0.212l4.871-0.541l4.871-0.41l4.871-0.243l4.871-0.288l4.871,0.878l4.871-0.397
				l4.871,0.074l4.871-0.07l4.871,0.592l4.871,0.161l4.871,0.22l4.871-0.153l4.871,0.124l4.871-0.996"/>
			<path fill="none" stroke="#000000" stroke-opacity="0.15" stroke-dasharray="1" d="M-11.712,234.125l4.871,0.12l4.871-0.215
				l4.871-0.324l4.871,0.291l4.871-0.323l4.871,0.104l4.871-0.25l4.871-0.051l4.871-0.776l4.871,0.034l4.871-0.058l4.871,0.34
				l4.871-0.058l4.871,0.47l4.871,0.42l4.871,0.66l4.871,0.478l4.871,0.079l4.871-0.074l4.871,0.344"/>
			<path fill="none" stroke="#000000" stroke-opacity="0.15" stroke-dasharray="1" d="M-11.712,222.643l4.871,0.467l4.871,0.481
				l4.871-0.286l4.871,0.024l4.871-0.41l4.871-0.063l4.871-0.025l4.871-1.17l4.871-0.699l4.871-0.833l4.871-1.203l4.871-0.928
				l4.871,0.382l4.871-0.017l4.871,0.307l4.871-0.037l4.871-0.128l4.871-0.326l4.871-0.534l4.871,0.681"/>
			<path fill="none" stroke="#000000" stroke-opacity="0.15" stroke-dasharray="1" d="M-11.712,206.164l4.871,0.266l4.871-0.381
				l4.871-0.357l4.871-1.261l4.871-0.543l4.871-0.519l4.871,0.701l4.871,0.019l4.871-0.252l4.871-1.216l4.871-0.544l4.871-2.154
				l4.871-0.187l4.871-1.197l4.871-1.124l4.871-1.155l4.871-0.684l4.871-0.891l4.871-0.154l4.871-0.361"/>
			<path fill="none" stroke="#E7298A" stroke-width="2" stroke-linecap="round" stroke-linejoin="round" d="M90.581,225.181
				l4.871,0.253l4.871-0.342l4.871-0.735l4.871-0.383l4.871-0.3l4.871-0.365l4.871,0.22l4.871,0.744l4.871,0.46l4.871-0.096
				l4.871-0.699l4.871-1.051l4.871-1.032l4.871-0.948l4.871-0.219"/>
			<path fill="none" stroke="#E7298A" stroke-width="2" stroke-linecap="round" stroke-linejoin="round" d="M90.581,165.66
				l4.871-0.475l4.871,0.193l4.871-1.665l4.871-1.681l4.871-1.305l4.871-3.036l4.871,0.592l4.871,3.49l4.871,2.622l4.871-0.736
				l4.871,0.059l4.871-1.122l4.871-2.078l4.871-1.881l4.871-1.211"/>
			<path fill="none" stroke="#E7298A" stroke-width="2" stroke-linecap="round" stroke-linejoin="round" d="M90.581,224.837
				l4.871,0.223l4.871,0.401l4.871-0.181l4.871-0.865l4.871-0.637l4.871-0.312l4.871,0.584l4.871,0.454l4.871,0.292l4.871-1.161
				l4.871-1.019l4.871-0.431l4.871-0.209l4.871-0.27l4.871,0.305"/>
			<path fill="none" stroke="#E6AB02" stroke-width="2" stroke-linecap="round" stroke-linejoin="round" d="M90.581,180.911
				l4.871-2.134l4.871-0.59l4.871-1.392l4.871-1.75l4.871-1.707l4.871-2.026l4.871-2.125l4.871-1.591l4.871-0.97l4.871,0.306
				l4.871-2.282l4.871-1.281l4.871-0.38l4.871-1.602l4.871-2.657"/>
		</g>
	</g>
	<g transform="translate(50,10)">
		<g transform="translate(0,160)">
			<g transform="translate(0.5,0)">
				<line fill="none" stroke="#000000" x1="-11.773" y1="218.608" x2="-11.773" y2="222.032"/>
				<text transform="matrix(1 0 0 1 -22.6489 230.7949)" display="none" font-family="'ArialMT'" font-size="10px">1980</text>
			</g>
			<g transform="translate(56.05555555555556,0)">
				<line fill="none" stroke="#000000" x1="-18.618" y1="218.608" x2="-18.618" y2="222.032"/>
				<text transform="matrix(1 0 0 1 -29.4931 230.7949)" display="none" font-family="'ArialMT'" font-size="10px">1990</text>
			</g>
			<g transform="translate(111.61111111111111,0)">
				<line fill="none" stroke="#000000" x1="-25.462" y1="218.608" x2="-25.462" y2="222.032"/>
				<text transform="matrix(1 0 0 1 -36.3377 230.7949)" display="none" font-family="'ArialMT'" font-size="10px">2000</text>
			</g>
			<g transform="translate(167.16666666666669,0)">
				<line fill="none" stroke="#000000" x1="-32.307" y1="218.608" x2="-32.307" y2="222.032"/>
				<text transform="matrix(1 0 0 1 -43.1823 230.7949)" display="none" font-family="'ArialMT'" font-size="10px">2010</text>
			</g>
		</g>
		<g>
			<g transform="translate(0,160.5)">
				<line fill="none" stroke="#000000" x1="-11.712" y1="218.393" x2="-16.972" y2="218.393"/>
				<line fill="none" stroke="#000000" stroke-opacity="0.1" x1="-11.712" y1="218.393" x2="163.648" y2="218.393"/>
				<text transform="matrix(1 0 0 1 -24.7798 223.2188)" display="none" font-family="'ArialMT'" font-size="10px">0</text>
			</g>
			<g transform="translate(0,120.5)">
				<line fill="none" stroke="#000000" x1="-11.712" y1="235.565" x2="-16.972" y2="235.565"/>
				<line fill="none" stroke="#000000" stroke-opacity="0.1" x1="-11.712" y1="235.565" x2="163.648" y2="235.565"/>
				<text transform="matrix(1 0 0 1 -37.0112 237.3906)" display="none" font-family="'ArialMT'" font-size="10px">20K</text>
			</g>
			<g transform="translate(0,80.5)">
				<line fill="none" stroke="#000000" x1="-11.712" y1="252.738" x2="-16.972" y2="252.738"/>
				<line fill="none" stroke="#000000" stroke-opacity="0.1" x1="-11.712" y1="252.738" x2="163.648" y2="252.738"/>
				<text transform="matrix(1 0 0 1 -37.0112 254.5645)" display="none" font-family="'ArialMT'" font-size="10px">40K</text>
			</g>
			<g transform="translate(0,40.5)">
				<line fill="none" stroke="#000000" x1="-11.712" y1="269.911" x2="-16.972" y2="269.911"/>
				<line fill="none" stroke="#000000" stroke-opacity="0.1" x1="-11.712" y1="269.911" x2="163.648" y2="269.911"/>
				<text transform="matrix(1 0 0 1 -37.0112 271.7363)" display="none" font-family="'ArialMT'" font-size="10px">60K</text>
			</g>
			<g transform="translate(0,0.5)">
				<line fill="none" stroke="#000000" x1="-11.712" y1="287.083" x2="-16.972" y2="287.083"/>
				<line fill="none" stroke="#000000" stroke-opacity="0.1" x1="-11.712" y1="287.083" x2="163.648" y2="287.083"/>
				<g display="none">
					<text transform="matrix(1 0 0 1 -37.0112 288.9082)" display="inline" font-family="'ArialMT'" font-size="10px">80K</text>
					<text transform="matrix(1 0 0 1 -37.563 300.9082)" display="inline" font-family="'ArialMT'" font-size="10px">jobs</text>
				</g>
			</g>
		</g>
		<g>
			<rect x="-11.712" y="287.298" fill="#EEDD22" fill-opacity="0.2" width="0" height="91.31"/>
			<rect x="-6.84" y="287.298" fill="#EEDD22" fill-opacity="0.2" width="4.871" height="91.31"/>
			<rect x="36.999" y="287.298" fill="#EEDD22" fill-opacity="0.2" width="4.871" height="91.31"/>
			<rect x="90.582" y="287.298" fill="#EEDD22" fill-opacity="0.2" width="0" height="91.31"/>
			<rect x="119.808" y="287.298" fill="#EEDD22" fill-opacity="0.2" width="9.742" height="91.31"/>
		</g>
		<g>
			<path fill="none" stroke="#000000" stroke-opacity="0.15" stroke-dasharray="1" d="M90.582,334.688l4.871,0.083l4.871-3.117
				l4.871-3.413l4.871-4.996l4.871-3.493l4.871-3.155l4.871,4.09l4.871,7.918l4.871,3.275l4.871,0.612l4.871-0.599l4.871-1.368
				l4.871-1.055l4.871-1.939l4.871-0.499"/>
			<path fill="none" stroke="#000000" stroke-opacity="0.15" stroke-dasharray="1" d="M90.582,359.051l4.871,0.253l4.871-0.342
				l4.871-0.735l4.871-0.383l4.871-0.3l4.871-0.365l4.871,0.22l4.871,0.744l4.871,0.46l4.871-0.096l4.871-0.699l4.871-1.051
				l4.871-1.032l4.871-0.948l4.871-0.219"/>
			<path fill="none" stroke="#000000" stroke-opacity="0.15" stroke-dasharray="1" d="M90.582,299.53l4.871-0.475l4.871,0.193
				l4.871-1.665l4.871-1.681l4.871-1.305l4.871-3.036l4.871,0.592l4.871,3.49l4.871,2.622l4.871-0.736l4.871,0.059l4.871-1.122
				l4.871-2.078l4.871-1.881l4.871-1.211"/>
			<path fill="none" stroke="#000000" stroke-opacity="0.15" stroke-dasharray="1" d="M90.582,358.707l4.871,0.223l4.871,0.401
				l4.871-0.181l4.871-0.865l4.871-0.637l4.871-0.312l4.871,0.584l4.871,0.454l4.871,0.292l4.871-1.161l4.871-1.019l4.871-0.431
				l4.871-0.209l4.871-0.271l4.871,0.305"/>
			<path fill="none" stroke="#000000" stroke-opacity="0.15" stroke-dasharray="1" d="M90.582,355.418l4.871-0.938l4.871-0.393
				l4.871-0.11l4.871-0.2l4.871-0.688l4.871-1.365l4.871-1.464l4.871-1.24l4.871,0.922l4.871-1.241l4.871,1.026l4.871,0.12
				l4.871,0.877l4.871-0.469l4.871,0.128"/>
			<path fill="none" stroke="#000000" stroke-opacity="0.15" stroke-dasharray="1" d="M90.582,356.62l4.871,0.033l4.871-1.497
				l4.871-2.327l4.871-2.638l4.871-2.49l4.871-2.241l4.871-0.738l4.871,0.272l4.871-1.176l4.871-1.293l4.871,0.232l4.871-0.936
				l4.871-1.663l4.871-1.48l4.871-1.368"/>
			<path fill="none" stroke="#000000" stroke-opacity="0.15" stroke-dasharray="1" d="M90.582,314.781l4.871-2.134l4.871-0.59
				l4.871-1.392l4.871-1.75l4.871-1.707l4.871-2.026l4.871-2.125l4.871-1.591l4.871-0.97l4.871,0.306l4.871-2.282l4.871-1.281
				l4.871-0.38l4.871-1.602l4.871-2.657"/>
			<path fill="none" stroke="#000000" stroke-opacity="0.15" stroke-dasharray="1" d="M90.582,362.53l4.871-1.039l4.871-1.026
				l4.871-0.547l4.871-0.888l4.871-1.056l4.871-1.212l4.871-0.376l4.871,0.709l4.871,0.243l4.871-0.305l4.871-0.163l4.871-0.554
				l4.871-0.745l4.871,0.394l4.871-0.31"/>
			<path fill="none" stroke="#000000" stroke-opacity="0.15" stroke-dasharray="1" d="M90.582,325.931l4.871-0.984l4.871-0.87
				l4.871-1.334l4.871-1.039l4.871-0.954l4.871-0.705l4.871-0.759l4.871,2.026l4.871,0.866l4.871-1.266l4.871-1.507l4.871-1.921
				l4.871-0.818l4.871-2.303l4.871-2.025"/>
			<path fill="none" stroke="#000000" stroke-opacity="0.15" stroke-dasharray="1" d="M90.582,363.709l4.871-0.872l4.871-0.276
				l4.871,0.188l4.871,0.407l4.871,0.009l4.871,0.126l4.871-0.257l4.871-0.625l4.871-0.757l4.871,1.115l4.871,0.36l4.871,0.559
				l4.871,0.083l4.871-0.099l4.871-0.273"/>
			<path fill="none" stroke="#000000" stroke-opacity="0.15" stroke-dasharray="1" d="M90.582,369.065l4.871-0.05l4.871-0.115
				l4.871,0.046l4.871,0.249l4.871-0.006l4.871,0.087l4.871-0.031l4.871,0.228l4.871-0.106l4.871-0.104l4.871-0.145l4.871,0.018
				l4.871,0.269l4.871,0.228l4.871,0.031"/>
			<path fill="none" stroke="#000000" stroke-opacity="0.15" stroke-dasharray="1" d="M90.582,351.006l4.871,1.202l4.871-1.62
				l4.871-0.734l4.871-0.542l4.871,0.197l4.871-1l4.871,0.436l4.871-0.562l4.871,0.072l4.871-0.495l4.871,0.055l4.871-0.548
				l4.871-0.495l4.871,0.404l4.871-0.199"/>
			<path fill="none" stroke="#000000" stroke-opacity="0.15" stroke-dasharray="1" d="M90.582,327.757l4.871-0.038l4.871-0.97
				l4.871-0.522l4.871,0.56l4.871-0.112l4.871-0.121l4.871-0.862l4.871-1.16l4.871-0.413l4.871,0.71l4.871,0.733l4.871,0.031
				l4.871-0.103l4.871-0.606l4.871-0.702"/>
			<path fill="none" stroke="#000000" stroke-opacity="0.15" stroke-dasharray="1" d="M-11.712,353.211l4.871,1.374l4.871-1.135
				l4.871-0.925l4.871-0.36l4.871,1.926l4.871,1.588l4.871,3.575l4.871-0.591l4.871-0.77l4.871-0.732l4.871-2.139l4.871-3.657
				l4.871-0.804l4.871-3.819l4.871-1.289l4.871-1.577l4.871-1.464l4.871-1.746l4.871-1.327l4.871,0.094"/>
			<path fill="none" stroke="#000000" stroke-opacity="0.15" stroke-dasharray="1" d="M-11.712,362.941l4.871,0.386l4.871,0.615
				l4.871,0.06l4.871,0.185l4.871-0.03l4.871,0.212l4.871-0.541l4.871-0.41l4.871-0.243l4.871-0.288l4.871,0.878l4.871-0.397
				l4.871,0.074l4.871-0.07l4.871,0.592l4.871,0.161l4.871,0.22l4.871-0.153l4.871,0.124l4.871-0.996"/>
			<path fill="none" stroke="#000000" stroke-opacity="0.15" stroke-dasharray="1" d="M-11.712,367.995l4.871,0.12l4.871-0.215
				l4.871-0.324l4.871,0.291l4.871-0.323l4.871,0.104l4.871-0.25l4.871-0.051l4.871-0.776l4.871,0.034l4.871-0.058l4.871,0.34
				l4.871-0.058l4.871,0.47l4.871,0.42l4.871,0.66l4.871,0.478l4.871,0.079l4.871-0.074l4.871,0.344"/>
			<path fill="none" stroke="#000000" stroke-opacity="0.15" stroke-dasharray="1" d="M-11.712,356.513l4.871,0.467l4.871,0.48
				l4.871-0.286l4.871,0.024l4.871-0.41l4.871-0.063l4.871-0.025l4.871-1.17l4.871-0.699l4.871-0.833l4.871-1.203l4.871-0.928
				l4.871,0.382l4.871-0.017l4.871,0.307l4.871-0.037l4.871-0.128l4.871-0.326l4.871-0.534l4.871,0.681"/>
			<path fill="none" stroke="#000000" stroke-opacity="0.15" stroke-dasharray="1" d="M-11.712,340.034l4.871,0.266l4.871-0.381
				l4.871-0.357l4.871-1.261l4.871-0.543l4.871-0.519l4.871,0.701l4.871,0.019l4.871-0.252l4.871-1.216l4.871-0.544l4.871-2.154
				l4.871-0.187l4.871-1.197l4.871-1.124l4.871-1.155l4.871-0.684l4.871-0.891l4.871-0.154l4.871-0.361"/>
			<path fill="none" stroke="#1B9E77" stroke-width="2" stroke-linecap="round" stroke-linejoin="round" d="M90.582,341.645
				l4.871,0.334l4.871,1.839l4.871,0.813l4.871,0.788l4.871,0.732l4.871-0.369l4.871-0.366l4.871,0.189l4.871,0.099l4.871-0.599
				l4.871-0.434l4.871-0.487l4.871,0.52l4.871-0.532l4.871,0.015"/>
			<path fill="none" stroke="#1B9E77" stroke-width="2" stroke-linecap="round" stroke-linejoin="round" d="M90.582,370.565
				l4.871-0.882l4.871,0.872l4.871-0.175l4.871,0.071l4.871,0.146l4.871-0.312l4.871-0.176l4.871,0.443l4.871-0.09l4.871-0.067
				l4.871-0.422l4.871-0.184l4.871-0.344l4.871,0.325l4.871,0.072"/>
			<path fill="none" stroke="#1B9E77" stroke-width="2" stroke-linecap="round" stroke-linejoin="round" d="M90.582,370.596
				l4.871,0.331l4.871-0.239l4.871-1.109l4.871-0.677l4.871-0.96l4.871-1.001l4.871-0.84l4.871,1.502l4.871-1.654l4.871-0.218
				l4.871-4.087l4.871,0.123l4.871,0.494l4.871,0.748l4.871,1.314"/>
			<path fill="none" stroke="#1B9E77" stroke-width="2" stroke-linecap="round" stroke-linejoin="round" d="M-11.712,342.528
				l4.871,0.388l4.871,0.603l4.871-2.538l4.871,1.228l4.871,0.018l4.871-0.12l4.871-0.275l4.871,0.685l4.871,1.002l4.871,0.191
				l4.871,0.953l4.871,0.909l4.871-0.792l4.871-0.452l4.871-0.808l4.871-0.154l4.871,0.944l4.871-2.342l4.871,0.144l4.871-0.945"/>
			<path fill="none" stroke="#1B9E77" stroke-width="2" stroke-linecap="round" stroke-linejoin="round" d="M-11.712,374.3
				l4.871-0.232l4.871-0.015l4.871-0.522l4.871-0.468l4.871-0.551l4.871-0.024l4.871-0.932l4.871,0.148l4.871,0.449l4.871-0.439
				l4.871-0.45l4.871,0.094l4.871-0.533l4.871-1.311l4.871,0.515l4.871-0.374l4.871-0.33l4.871-0.684l4.871-1.719l4.871-0.037"/>
			<path fill="none" stroke="#1B9E77" stroke-width="2" stroke-linecap="round" stroke-linejoin="round" d="M-11.712,367.407
				l4.871-3.208l4.871,2.235l4.871,1.805l4.871-0.304l4.871,1.238l4.871,1.395l4.871-0.8l4.871-0.196l4.871-0.006l4.871,0.029
				l4.871,0.469l4.871,0.092l4.871,0.002l4.871,0.203l4.871,0.352l4.871,0.042l4.871-0.092l4.871,0.245l4.871,0.059l4.871,0.187"/>
		</g>
	</g>
	<g transform="translate(50,10)">
		<g>
			<rect x="-11.712" y="416.872" fill="#EEDD22" fill-opacity="0.2" width="0" height="91.31"/>
			<rect x="-6.84" y="416.872" fill="#EEDD22" fill-opacity="0.2" width="4.871" height="91.31"/>
			<rect x="36.999" y="416.872" fill="#EEDD22" fill-opacity="0.2" width="4.871" height="91.31"/>
			<rect x="90.582" y="416.872" fill="#EEDD22" fill-opacity="0.2" width="0" height="91.31"/>
			<rect x="119.808" y="416.872" fill="#EEDD22" fill-opacity="0.2" width="9.742" height="91.31"/>
		</g>
		<g>
			<path fill="none" stroke="#000000" stroke-opacity="0.15" stroke-dasharray="1" d="M90.582,471.22l4.871,0.334l4.871,1.839
				l4.871,0.813l4.871,0.788l4.871,0.732l4.871-0.369l4.871-0.366l4.871,0.189l4.871,0.099l4.871-0.599l4.871-0.434l4.871-0.487
				l4.871,0.52l4.871-0.532l4.871,0.015"/>
			<path fill="none" stroke="#000000" stroke-opacity="0.15" stroke-dasharray="1" d="M90.582,500.14l4.871-0.882l4.871,0.872
				l4.871-0.175l4.871,0.071l4.871,0.146l4.871-0.312l4.871-0.176l4.871,0.443l4.871-0.09l4.871-0.067l4.871-0.422l4.871-0.184
				l4.871-0.344l4.871,0.325l4.871,0.072"/>
			
			<path fill="none" stroke="#000000" stroke-opacity="0.15" stroke-dasharray="1" d="M90.582,464.262l4.871,0.083l4.871-3.117
				l4.871-3.413l4.871-4.996l4.871-3.493l4.871-3.155l4.871,4.09l4.871,7.918l4.871,3.275l4.871,0.612l4.871-0.599l4.871-1.368
				l4.871-1.055l4.871-1.939l4.871-0.499"/>
			<path fill="none" stroke="#000000" stroke-opacity="0.15" stroke-dasharray="1" d="M90.582,488.625l4.871,0.253l4.871-0.342
				l4.871-0.735l4.871-0.384l4.871-0.3l4.871-0.365l4.871,0.22l4.871,0.744l4.871,0.46l4.871-0.096l4.871-0.699l4.871-1.051
				l4.871-1.032l4.871-0.948l4.871-0.219"/>
			<path fill="none" stroke="#000000" stroke-opacity="0.15" stroke-dasharray="1" d="M90.582,429.104l4.871-0.475l4.871,0.193
				l4.871-1.665l4.871-1.681l4.871-1.305l4.871-3.036l4.871,0.592l4.871,3.49l4.871,2.622l4.871-0.736l4.871,0.059l4.871-1.122
				l4.871-2.078l4.871-1.881l4.871-1.211"/>
			<path fill="none" stroke="#000000" stroke-opacity="0.15" stroke-dasharray="1" d="M90.582,488.281l4.871,0.223l4.871,0.401
				l4.871-0.181l4.871-0.865l4.871-0.637l4.871-0.312l4.871,0.584l4.871,0.454l4.871,0.292l4.871-1.161l4.871-1.019l4.871-0.431
				l4.871-0.209l4.871-0.271l4.871,0.305"/>
			<path fill="none" stroke="#000000" stroke-opacity="0.15" stroke-dasharray="1" d="M90.582,484.992l4.871-0.938l4.871-0.393
				l4.871-0.11l4.871-0.2l4.871-0.688l4.871-1.365l4.871-1.464l4.871-1.24l4.871,0.922l4.871-1.241l4.871,1.026l4.871,0.12
				l4.871,0.877l4.871-0.469l4.871,0.128"/>
			<path fill="none" stroke="#000000" stroke-opacity="0.15" stroke-dasharray="1" d="M90.582,486.194l4.871,0.033l4.871-1.497
				l4.871-2.327l4.871-2.638l4.871-2.49l4.871-2.241l4.871-0.738l4.871,0.272l4.871-1.176l4.871-1.293l4.871,0.232l4.871-0.936
				l4.871-1.663l4.871-1.48l4.871-1.368"/>
			<path fill="none" stroke="#000000" stroke-opacity="0.15" stroke-dasharray="1" d="M90.582,444.355l4.871-2.134l4.871-0.59
				l4.871-1.392l4.871-1.75l4.871-1.707l4.871-2.026l4.871-2.125l4.871-1.591l4.871-0.97l4.871,0.306l4.871-2.282l4.871-1.281
				l4.871-0.38l4.871-1.602l4.871-2.657"/>
			<path fill="none" stroke="#000000" stroke-opacity="0.15" stroke-dasharray="1" d="M90.582,492.104l4.871-1.039l4.871-1.026
				l4.871-0.547l4.871-0.888l4.871-1.056l4.871-1.212l4.871-0.375l4.871,0.709l4.871,0.243l4.871-0.305l4.871-0.163l4.871-0.554
				l4.871-0.745l4.871,0.394l4.871-0.31"/>
			<path fill="none" stroke="#000000" stroke-opacity="0.15" stroke-dasharray="1" d="M90.582,455.505l4.871-0.984l4.871-0.87
				l4.871-1.334l4.871-1.039l4.871-0.954l4.871-0.705l4.871-0.759l4.871,2.026l4.871,0.866l4.871-1.266l4.871-1.507l4.871-1.921
				l4.871-0.818l4.871-2.303l4.871-2.025"/>
			<path fill="none" stroke="#A6761D" stroke-width="2" stroke-linecap="round" stroke-linejoin="round" d="M90.582,493.283
				l4.871-0.872l4.871-0.276l4.871,0.188l4.871,0.407l4.871,0.009l4.871,0.126l4.871-0.257l4.871-0.625l4.871-0.757l4.871,1.115
				l4.871,0.36l4.871,0.559l4.871,0.083l4.871-0.099l4.871-0.273"/>
			<path fill="none" stroke="#A6761D" stroke-width="2" stroke-linecap="round" stroke-linejoin="round" d="M90.582,498.639
				l4.871-0.05l4.871-0.115l4.871,0.046l4.871,0.249l4.871-0.006l4.871,0.087l4.871-0.031l4.871,0.228l4.871-0.106l4.871-0.104
				l4.871-0.145l4.871,0.018l4.871,0.269l4.871,0.228l4.871,0.031"/>
			<path fill="none" stroke="#A6761D" stroke-width="2" stroke-linecap="round" stroke-linejoin="round" d="M90.582,480.58
				l4.871,1.202l4.871-1.62l4.871-0.734l4.871-0.542l4.871,0.197l4.871-1l4.871,0.436l4.871-0.562l4.871,0.072l4.871-0.495
				l4.871,0.055l4.871-0.548l4.871-0.495l4.871,0.404l4.871-0.199"/>
			<path fill="none" stroke="#A6761D" stroke-width="2" stroke-linecap="round" stroke-linejoin="round" d="M90.582,457.331
				l4.871-0.038l4.871-0.97l4.871-0.522l4.871,0.56l4.871-0.112l4.871-0.121l4.871-0.862l4.871-1.16l4.871-0.413l4.871,0.71
				l4.871,0.733l4.871,0.031l4.871-0.103l4.871-0.606l4.871-0.702"/>
			<path fill="none" stroke="#000000" stroke-opacity="0.15" stroke-dasharray="1" d="M-11.712,472.102l4.871,0.388l4.871,0.603
				l4.871-2.538l4.871,1.228l4.871,0.018l4.871-0.12l4.871-0.275l4.871,0.685l4.871,1.002l4.871,0.191l4.871,0.953l4.871,0.909
				l4.871-0.792l4.871-0.452l4.871-0.808l4.871-0.154l4.871,0.944l4.871-2.342l4.871,0.144l4.871-0.945"/>
			
			
			<path fill="none" stroke="#000000" stroke-opacity="0.15" stroke-dasharray="1" d="M-11.712,482.785l4.871,1.374l4.871-1.135
				l4.871-0.924l4.871-0.36l4.871,1.925l4.871,1.588l4.871,3.575l4.871-0.591l4.871-0.77l4.871-0.732l4.871-2.139l4.871-3.657
				l4.871-0.804l4.871-3.819l4.871-1.289l4.871-1.577l4.871-1.464l4.871-1.746l4.871-1.327l4.871,0.094"/>
			<path fill="none" stroke="#A6761D" stroke-width="2" stroke-linecap="round" stroke-linejoin="round" d="M-11.712,492.515
				l4.871,0.386l4.871,0.615l4.871,0.06l4.871,0.185l4.871-0.03l4.871,0.212l4.871-0.541l4.871-0.41l4.871-0.243l4.871-0.288
				l4.871,0.878l4.871-0.397l4.871,0.074l4.871-0.07l4.871,0.592l4.871,0.161l4.871,0.22l4.871-0.153l4.871,0.124l4.871-0.996"/>
			<path fill="none" stroke="#A6761D" stroke-width="2" stroke-linecap="round" stroke-linejoin="round" d="M-11.712,497.569
				l4.871,0.12l4.871-0.215l4.871-0.324l4.871,0.291l4.871-0.323l4.871,0.104l4.871-0.25l4.871-0.051l4.871-0.776l4.871,0.034
				l4.871-0.058l4.871,0.34l4.871-0.058l4.871,0.47l4.871,0.42l4.871,0.66l4.871,0.478l4.871,0.079l4.871-0.074l4.871,0.344"/>
			<path fill="none" stroke="#A6761D" stroke-width="2" stroke-linecap="round" stroke-linejoin="round" d="M-11.712,486.087
				l4.871,0.467l4.871,0.481l4.871-0.286l4.871,0.024l4.871-0.41l4.871-0.063l4.871-0.025l4.871-1.17l4.871-0.699l4.871-0.833
				l4.871-1.203l4.871-0.928l4.871,0.382l4.871-0.017l4.871,0.307l4.871-0.037l4.871-0.128l4.871-0.326l4.871-0.534l4.871,0.681"/>
			<path fill="none" stroke="#A6761D" stroke-width="2" stroke-linecap="round" stroke-linejoin="round" d="M-11.712,469.608
				l4.871,0.266l4.871-0.381l4.871-0.357l4.871-1.261l4.871-0.543l4.871-0.519l4.871,0.701l4.871,0.019l4.871-0.252l4.871-1.216
				l4.871-0.544l4.871-2.154l4.871-0.187l4.871-1.197l4.871-1.124l4.871-1.155l4.871-0.684l4.871-0.891l4.871-0.154l4.871-0.361"/>
		</g>
		<g transform="translate(0,160)">
			<g transform="translate(0.5,0)">
				<line fill="none" stroke="#000000" x1="-11.773" y1="348.182" x2="-11.773" y2="351.606"/>
				<text transform="matrix(1 0 0 1 -22.6489 360.3691)" display="none" font-family="'ArialMT'" font-size="10px">1980</text>
			</g>
			<g transform="translate(56.05555555555556,0)">
				<line fill="none" stroke="#000000" x1="-18.618" y1="348.182" x2="-18.618" y2="351.606"/>
				<text transform="matrix(1 0 0 1 -29.4931 360.3691)" display="none" font-family="'ArialMT'" font-size="10px">1990</text>
			</g>
			<g transform="translate(111.61111111111111,0)">
				<line fill="none" stroke="#000000" x1="-25.462" y1="348.182" x2="-25.462" y2="351.606"/>
				<text transform="matrix(1 0 0 1 -36.3377 360.3691)" display="none" font-family="'ArialMT'" font-size="10px">2000</text>
			</g>
			<g transform="translate(167.16666666666669,0)">
				<line fill="none" stroke="#000000" x1="-32.307" y1="348.182" x2="-32.307" y2="351.606"/>
				<text transform="matrix(1 0 0 1 -43.1823 360.3691)" display="none" font-family="'ArialMT'" font-size="10px">2010</text>
			</g>
		</g>
		<g>
			<g transform="translate(0,160.5)">
				<line fill="none" stroke="#000000" x1="-11.712" y1="347.967" x2="-16.972" y2="347.967"/>
				<line fill="none" stroke="#000000" stroke-opacity="0.1" x1="-11.712" y1="347.967" x2="163.648" y2="347.967"/>
				<text transform="matrix(1 0 0 1 -24.7798 352.793)" display="none" font-family="'ArialMT'" font-size="10px">0</text>
			</g>
			<g transform="translate(0,120.5)">
				<line fill="none" stroke="#000000" x1="-11.712" y1="365.14" x2="-16.972" y2="365.14"/>
				<line fill="none" stroke="#000000" stroke-opacity="0.1" x1="-11.712" y1="365.14" x2="163.648" y2="365.14"/>
				<text transform="matrix(1 0 0 1 -37.0112 366.9648)" display="none" font-family="'ArialMT'" font-size="10px">20K</text>
			</g>
			<g transform="translate(0,80.5)">
				<line fill="none" stroke="#000000" x1="-11.712" y1="382.312" x2="-16.972" y2="382.312"/>
				<line fill="none" stroke="#000000" stroke-opacity="0.1" x1="-11.712" y1="382.312" x2="163.648" y2="382.312"/>
				<text transform="matrix(1 0 0 1 -37.0112 384.1387)" display="none" font-family="'ArialMT'" font-size="10px">40K</text>
			</g>
			<g transform="translate(0,40.5)">
				<line fill="none" stroke="#000000" x1="-11.712" y1="399.485" x2="-16.972" y2="399.485"/>
				<line fill="none" stroke="#000000" stroke-opacity="0.1" x1="-11.712" y1="399.485" x2="163.648" y2="399.485"/>
				<text transform="matrix(1 0 0 1 -37.0112 401.3105)" display="none" font-family="'ArialMT'" font-size="10px">60K</text>
			</g>
			<g transform="translate(0,0.5)">
				<line fill="none" stroke="#000000" x1="-11.712" y1="416.657" x2="-16.972" y2="416.657"/>
				<line fill="none" stroke="#000000" stroke-opacity="0.1" x1="-11.712" y1="416.657" x2="163.648" y2="416.657"/>
				<g display="none">
					<text transform="matrix(1 0 0 1 -37.0112 418.4834)" display="inline" font-family="'ArialMT'" font-size="10px">80K</text>
					<text transform="matrix(1 0 0 1 -37.563 430.4834)" display="inline" font-family="'ArialMT'" font-size="10px">jobs</text>
				</g>
			</g>
		</g>
	</g>
	<g>
		<path fill="none" stroke="#000000" stroke-miterlimit="10" d="M163,42.361c3.426,2.938,4.524,8.025,4.865,11.443"/>
		<g>
			<polygon points="168,57.331 165.726,52.462 167.814,53.542 169.786,52.263 			"/>
		</g>
	</g>
	<g>
		<path fill="none" stroke="#000000" stroke-miterlimit="10" d="M105,70.349c0,4.586,17.777,7.178,25.494,8.087"/>
		<g>
			<polygon points="134,78.81 128.833,80.287 130.229,78.395 129.277,76.246 			"/>
		</g>
	</g>
	<g>
		<path fill="none" stroke="#000000" stroke-miterlimit="10" d="M72,369.736c-3.741,0-11.183,1.506-15.561,2.469"/>
		<g>
			<polygon points="53,372.991 57.425,369.942 56.707,372.18 58.294,373.913 			"/>
		</g>
	</g>
	<g>
		<path fill="none" stroke="#000000" stroke-miterlimit="10" d="M178.263,361.6c7.304,0,10.777,1.175,12.388,2.468"/>
		<g>
			<polygon points="191.806,367.407 187.962,363.652 190.296,363.926 191.691,362.034 			"/>
		</g>
	</g>
	<g>
		<path fill="none" stroke="#000000" stroke-miterlimit="10" d="M85.471,198.379c-5.318-1.525-14.971-4.943-14.971-9.659"/>
		<g>
			<polygon points="88.888,199.265 84.604,196.02 85.222,198.288 83.558,199.948 			"/>
		</g>
	</g>
	<g>
		<path fill="none" stroke="#000000" stroke-miterlimit="10" d="M63.5,188.719c0,3.557-6.339,7.176-10.355,9.112"/>
		<g>
			<polygon points="49.919,199.265 53.571,195.323 53.359,197.664 55.287,199.008 			"/>
		</g>
	</g>
</g>
<style type="text/css">
#g-mt-economy-3a-sector-line-charts-mobile-img rect, #g-mt-economy-3a-sector-line-charts-mobile-img circle, #g-mt-economy-3a-sector-line-charts-mobile-img path, #g-mt-economy-3a-sector-line-charts-mobile-img line, #g-mt-economy-3a-sector-line-charts-mobile-img polyline { vector-effect: non-scaling-stroke; }
</style>
</svg>

