<?xml version="1.0" encoding="utf-8"?>
<!-- Generator: Adobe Illustrator 22.1.0, SVG Export Plug-In . SVG Version: 6.00 Build 0)  -->
<svg version="1.2" baseProfile="tiny" id="g-mt-economy-5-wage-gap-mobile-img" xmlns="http://www.w3.org/2000/svg" xmlns:xlink="http://www.w3.org/1999/xlink"
	 x="0px" y="0px" viewBox="0 0 300 419" xml:space="preserve">
<g>
	<g>
		<g>
			<g transform="translate(0.5,0.5)">
				<path fill="none" d="M34.851,64.958L34.851,64.958L34.851,64.958L34.851,64.958z"/>
				<g>
					<g>
						<line fill="none" stroke="#DDDDDD" x1="34.851" y1="204.17" x2="220.468" y2="204.17"/>
						<line fill="none" stroke="#DDDDDD" x1="34.851" y1="157.766" x2="220.468" y2="157.766"/>
						<line fill="none" stroke="#DDDDDD" x1="34.851" y1="111.362" x2="220.468" y2="111.362"/>
					</g>
				</g>
			</g>
		</g>
		<g>
			<g transform="translate(0,0)">
				<g>
					<g>
						<path fill="none" stroke="#444444" stroke-width="2.5" d="M220.504,64.994h-11.593h-11.593h-11.593H174.1h-11.593h-11.593
							H139.32h-11.625h-11.593h-11.593H92.916H81.292H69.698H58.105H46.952"/>
					</g>
				</g>
			</g>
			<g transform="translate(0,0)">
				<g>
					<g>
						<path fill="none" stroke="#E5AE89" stroke-width="2" d="M220.504,172.228l-11.593,1.445l-11.593,0.473l-11.593-0.882
							l-11.625,0.713l-11.593,0.279l-11.593,1.136l-11.593,0.34l-11.625-0.111l-11.593,1.895l-11.593,0.61l-11.593,1.757
							l-11.625,1.276l-11.593-1.123l-11.593,1.535l-11.593,3.386"/>
					</g>
				</g>
			</g>
			<g transform="translate(0,0)">
				<g>
					<g>
						<path fill="none" stroke="#86BF86" stroke-width="2" stroke-dasharray="2" d="M220.504,108.637l-11.593,1.481l-11.593-0.297
							l-11.593,3.456l-11.625-3.106l-11.593-2.053l-11.593,1.505l-11.593,4.221l-11.625,4.647l-11.593,0.969l-11.593,0.495
							l-11.593,1.889l-11.625,1.301l-11.593,0.44l-11.593,3.422l-11.593,6.792"/>
					</g>
				</g>
			</g>
			<g transform="translate(0,0)">
				<g>
					<g>
						<path fill="none" stroke="#86BF86" stroke-width="2" stroke-dasharray="2" d="M220.504,121.479l-11.593-0.705l-11.593,1.416
							l-11.593-4.336l-11.625-0.847l-11.593,1.137l-11.593,2.403l-11.593,0.356l-11.625,5.039l-11.593,3.148l-11.593,0.507
							l-11.593-0.921l-11.625,4.886l-11.593,1.544l-11.593,0.088l-11.593,5.243"/>
					</g>
				</g>
			</g>
			<g transform="translate(0,0)">
				<g>
					<g>
						<path fill="none" stroke="#86BF86" stroke-width="2" stroke-dasharray="2" d="M220.504,142.834l-11.593,1.274l-11.593,0.418
							l-11.593,0.995L174.1,147.75l-11.593-0.565l-11.593,2.648l-11.593,1.294l-11.625-2.522l-11.593,0.106l-11.593,0.772
							l-11.593,2.864l-11.625,1.726l-11.593-0.259l-11.593,0.612l-11.593,2.723"/>
					</g>
				</g>
			</g>
			<g transform="translate(0,0)">
				<g>
					<g>
						<path fill="none" stroke="#86BF86" stroke-width="2" d="M220.504,135.071l-11.593,4.243l-11.593,3.135l-11.593,0.413
							l-11.625-4.507l-11.593,4.768l-11.593,2.867l-11.593,0.41l-11.625-1.192l-11.593-0.926l-11.593,1.481l-11.593,3.893
							l-11.625,3.905l-11.593-2.442l-11.593,3.302l-11.593,3.504"/>
					</g>
				</g>
			</g>
			<g transform="translate(0,0)">
				<g>
					<g>
						<path fill="none" stroke="#86BF86" stroke-width="2" d="M220.504,101.422l-11.593,0.921l-11.593-0.037l-11.593-1.009
							L174.1,99.882l-11.593,0.394l-11.593,2.508l-11.593-1.3l-11.625,5.176l-11.593,4.63l-11.593,1.699l-11.593,1.35l-11.625,1.16
							l-11.593-2.791l-11.593,0.356l-11.593,6.449"/>
					</g>
				</g>
			</g>
			<g transform="translate(0,0)">
				<g>
					<g>
						<path fill="none" stroke="#86BF86" stroke-width="2" stroke-dasharray="2" d="M220.504,136.965l-11.593,2.247l-11.593,0.954
							l-11.593,0.009l-11.625-0.027l-11.593-0.205l-11.593,0.545l-11.593-0.806l-11.625,2.346l-11.593,1.948l-11.593,0.878
							l-11.593-0.71l-11.625,0.977l-11.593-2.855l-11.593-0.196l-11.593,4.354"/>
					</g>
				</g>
			</g>
			<g transform="translate(0,0)">
				<g>
					<g>
						<path fill="none" stroke="#86BF86" stroke-width="2" d="M220.504,98.226l-11.593-1.766l-11.593,0.877l-11.593,0.856
							L174.1,100.45l-11.593,1.449l-11.593,3.783l-11.593,0.531l-11.625,2.487l-11.593-0.747l-11.593,3.664l-11.593,1.935
							l-11.625,3.597l-11.593-0.256l-11.593,0.641l-11.593,3.486"/>
					</g>
				</g>
			</g>
			<g transform="translate(0,0)">
				<g>
					<g>
						<path fill="none" stroke="#444444" stroke-width="2.5" d="M220.504,130.656l-11.593,0.301l-11.593-0.574l-11.593,0.54
							l-11.625,0.024l-11.593,1.366l-11.593,2.827l-11.593,1.034l-11.625,2.025l-11.593,1.429l-11.593,1.542l-11.593,1.773
							l-11.625,2.376l-11.593-0.538l-11.593,1.538l-11.593,3.944"/>
					</g>
				</g>
			</g>
			<g transform="translate(0,0)">
				<g>
					<g>
						<path fill="none" stroke="#F2DF91" stroke-width="2" d="M220.504,144.871l-11.593-3.449l-11.593-6.951l-11.593,2.064
							l-11.625,1.968l-11.593,4.047l-11.593,5.687l-11.593,3.082l-11.625,2.678l-11.593,2.309l-11.593,1.615l-11.593,2.358
							l-11.625,3.214l-11.593,2.29l-11.593,2.614l-11.593,2.716"/>
					</g>
				</g>
			</g>
		</g>
		<g>
			<text transform="matrix(1 0 0 1 225.1445 69.6338)" display="none" fill="#444444" font-family="'ArialMT'" font-size="10px">US</text>
			<g display="none">
				<text transform="matrix(1 0 0 1 225.1445 131.584)" display="inline" fill="#444444" font-family="'ArialMT'" font-size="10px">M</text>
				<text transform="matrix(1 0 0 1 233.4746 131.584)" display="inline" fill="#444444" font-family="'ArialMT'" font-size="10px">T</text>
			</g>
			<text transform="matrix(1 0 0 1 225.1445 176.8682)" display="none" fill="#E5AE89" font-family="'ArialMT'" font-size="10px">Mountains</text>
			<text transform="matrix(1 0 0 1 225.1445 151.3672)" display="none" fill="#F2DF91" font-family="'ArialMT'" font-size="10px">Plains</text>
			<text transform="matrix(1 0 0 1 163 -149.4753)" display="none" fill="#86BF86" font-family="'ArialMT'" font-size="11px">Great Falls</text>
			<g display="none">
				
					<text transform="matrix(1 0 0 1 225.1445 141.5664)" display="inline" fill="#648C64" font-family="'ArialMT'" font-size="10px">Bozeman</text>
				
					<text transform="matrix(1 0 0 1 225.1445 141.5664)" display="inline" fill="#86BF86" font-family="'ArialMT'" font-size="10px">Bozeman</text>
			</g>
			<g display="none">
				
					<text transform="matrix(1 0 0 1 225.1445 107.9189)" display="inline" fill="#648C64" font-family="'ArialMT'" font-size="10px">Helena</text>
				
					<text transform="matrix(1 0 0 1 225.1445 107.9189)" display="inline" fill="#86BF86" font-family="'ArialMT'" font-size="10px">Helena</text>
			</g>
			<text transform="matrix(1 0 0 1 225.1445 97.2979)" display="none" fill="#86BF86" font-family="'ArialMT'" font-size="10px">Billings</text>
		</g>
		<g>
			<text transform="matrix(1 0 0 1 1.8154 55.7129)" display="none" font-family="'Arial-BoldMT'" font-size="11.137px">Earnings by region</text>
		</g>
		<g>
			<g transform="translate(0.5,150.5)">
				<path fill="none" d="M34.851,54.17L34.851,54.17L34.851,54.17L34.851,54.17z"/>
				<g>
					<g>
						<line fill="none" stroke="#888888" x1="34.851" y1="54.17" x2="34.851" y2="58.811"/>
						<line fill="none" stroke="#888888" x1="93.321" y1="54.17" x2="93.321" y2="58.811"/>
						<line fill="none" stroke="#888888" x1="150.862" y1="54.17" x2="150.862" y2="58.811"/>
						<line fill="none" stroke="#888888" x1="220.468" y1="54.17" x2="220.468" y2="58.811"/>
					</g>
					<g>
						<text transform="matrix(1 0 0 1 23.7373 68.0918)" display="none" font-family="'ArialMT'" font-size="10px">2000</text>
						<text transform="matrix(1 0 0 1 81.5239 68.0918)" display="none" font-family="'ArialMT'" font-size="9.2808px">2005</text>
						<text transform="matrix(1 0 0 1 138.7212 68.0918)" display="none" font-family="'ArialMT'" font-size="10px">2010</text>
						<text transform="matrix(1 0 0 1 209.1162 68.0918)" display="none" font-family="'ArialMT'" font-size="10px">2016</text>
					</g>
					<g>
						<line fill="none" stroke="#888888" x1="34.851" y1="54.17" x2="220.468" y2="54.17"/>
					</g>
				</g>
			</g>
		</g>
		<g>
			<g transform="translate(0.5,0.5)">
				<path fill="none" d="M34.851,64.958L34.851,64.958L34.851,64.958L34.851,64.958z"/>
				<g>
					<g>
						<line fill="none" stroke="#888888" x1="34.851" y1="204.17" x2="30.211" y2="204.17"/>
						<line fill="none" stroke="#888888" x1="34.851" y1="157.766" x2="30.211" y2="157.766"/>
						<line fill="none" stroke="#888888" x1="34.851" y1="111.362" x2="30.211" y2="111.362"/>
						<line fill="none" stroke="#888888" x1="34.851" y1="64.958" x2="30.211" y2="64.958"/>
					</g>
					<g>
						<text transform="matrix(1 0 0 1 6.4702 206.9541)" display="none" font-family="'ArialMT'" font-size="10px">40%</text>
						<text transform="matrix(1 0 0 1 6.4702 160.5508)" display="none" font-family="'ArialMT'" font-size="10px">60%</text>
						<text transform="matrix(1 0 0 1 6.4702 114.1465)" display="none" font-family="'ArialMT'" font-size="10px">80%</text>
						<g display="none">
							<text transform="matrix(1 0 0 1 1.3154 67.7422)" display="inline" font-family="'ArialMT'" font-size="10px">100%</text>
							<text transform="matrix(1 0 0 1 1.8818 79.7422)" display="inline" font-family="'ArialMT'" font-size="10px">of US</text>
							<text transform="matrix(1 0 0 1 7.9902 91.7422)" display="inline" font-family="'ArialMT'" font-size="10px">avg.</text>
						</g>
					</g>
				</g>
			</g>
		</g>
		<g>
			<line fill="none" stroke="#000000" x1="76.187" y1="81.235" x2="76.187" y2="71.308"/>
			<g>
				<polygon points="76.187,67.778 78.22,72.753 76.187,71.572 74.155,72.753 				"/>
			</g>
		</g>
		<g>
			<line fill="none" stroke="#000000" x1="76.187" y1="105.83" x2="76.187" y2="139.423"/>
			<g>
				<polygon points="76.187,142.953 74.154,137.978 76.187,139.159 78.219,137.978 				"/>
			</g>
		</g>
		<g>
			<path fill="none" stroke="#000000" d="M211.687,77.987c5.311,0.28,6.749-3.314,7.053-6.216"/>
			<g>
				<polygon points="218.648,68.242 220.684,73.215 218.651,72.036 216.619,73.218 				"/>
			</g>
		</g>
		<g>
			<path fill="none" stroke="#000000" d="M187.557,185.502c15.287-0.271,27.2-37.729,30.531-49.356"/>
			<g>
				<polygon points="219.022,132.744 219.593,138.088 217.968,136.389 215.688,136.958 				"/>
			</g>
		</g>
	</g>
	<g>
		<g>
			<g transform="translate(0.5,150.5)">
				<path fill="none" d="M34.851,238.859L34.851,238.859L34.851,238.859L34.851,238.859z"/>
			</g>
		</g>
		<g>
			<g transform="translate(0.5,0.5)">
				<path fill="none" d="M34.851,249.646L34.851,249.646L34.851,249.646L34.851,249.646z"/>
				<g>
					<g>
						<line fill="none" stroke="#DDDDDD" x1="34.851" y1="388.859" x2="220.468" y2="388.859"/>
						<line fill="none" stroke="#DDDDDD" x1="34.851" y1="361.016" x2="220.468" y2="361.016"/>
						<line fill="none" stroke="#DDDDDD" x1="34.851" y1="333.174" x2="220.468" y2="333.174"/>
						<line fill="none" stroke="#DDDDDD" x1="34.851" y1="305.331" x2="220.468" y2="305.331"/>
						<line fill="none" stroke="#DDDDDD" x1="34.851" y1="277.489" x2="220.468" y2="277.489"/>
						<line fill="none" stroke="#DDDDDD" x1="34.851" y1="249.646" x2="220.468" y2="249.646"/>
					</g>
				</g>
			</g>
		</g>
		<g>
			<g display="none">
				<text transform="matrix(1 0 0 1 225.376 307.6406)" display="inline" fill="#444444" font-family="'ArialMT'" font-size="10px">M</text>
				
					<text transform="matrix(1 0 0 1 233.7061 307.6406)" display="inline" fill="#444444" font-family="'ArialMT'" font-size="10px">T</text>
			</g>
			<text transform="matrix(1 0 0 1 225.1445 268.6611)" display="none" fill="#444444" font-family="'ArialMT'" font-size="10px">US</text>
			<text transform="matrix(1 0 0 1 225.1445 359.9541)" display="none" fill="#1B9E77" font-family="'ArialMT'" font-size="10px">Nat. Resources</text>
			<text transform="matrix(1 0 0 1 225.1445 319.2832)" display="none" fill="#D95F02" font-family="'ArialMT'" font-size="10px">Construction</text>
			<text transform="matrix(1 0 0 1 225.1445 281.0547)" display="none" fill="#7570B3" font-family="'ArialMT'" font-size="10px">Manufacturing</text>
			<g display="none">
				<text transform="matrix(1 0 0 1 225.1445 329.001)" display="inline" fill="#E7298A" font-family="'ArialMT'" font-size="10px">T</text>
				<text transform="matrix(1 0 0 1 230.8818 329.001)" display="inline" fill="#E7298A" font-family="'ArialMT'" font-size="10px">r</text>
				<text transform="matrix(1 0 0 1 234.2119 329.001)" display="inline" fill="#E7298A" font-family="'ArialMT'" font-size="10px">a</text>
				<text transform="matrix(1 0 0 1 239.7734 329.001)" display="inline" fill="#E7298A" font-family="'ArialMT'" font-size="10px">d</text>
				<text transform="matrix(1 0 0 1 245.335 329.001)" display="inline" fill="#E7298A" font-family="'ArialMT'" font-size="10px">e</text>
			</g>
			<text transform="matrix(1 0 0 1 225.1445 345.8076)" display="none" fill="#66A61E" font-family="'ArialMT'" font-size="10px">Services</text>
			<text transform="matrix(1 0 0 1 225.1445 291.4707)" display="none" fill="#E6AB02" font-family="'ArialMT'" font-size="10px">Healthcare</text>
			<text transform="matrix(1 0 0 1 225.1445 255.9473)" display="none" fill="#A6761D" font-family="'ArialMT'" font-size="10px">Government</text>
		</g>
		<g>
			<text transform="matrix(1 0 0 1 1.8154 240.4014)" display="none" font-family="'Arial-BoldMT'" font-size="11.137px">Earnings by industry sector</text>
		</g>
		<g>
			<g transform="translate(0.5,150.5)">
				<path fill="none" d="M34.851,238.859L34.851,238.859L34.851,238.859L34.851,238.859z"/>
				<g>
					<g>
						<line fill="none" stroke="#888888" x1="34.851" y1="238.859" x2="34.851" y2="243.499"/>
						<line fill="none" stroke="#888888" x1="93.321" y1="238.859" x2="93.321" y2="243.499"/>
						<line fill="none" stroke="#888888" x1="150.862" y1="238.859" x2="150.862" y2="243.499"/>
						<line fill="none" stroke="#888888" x1="220.468" y1="238.859" x2="220.468" y2="243.499"/>
					</g>
					<g>
						<text transform="matrix(1 0 0 1 34.8604 252.7793)" display="none" font-family="'ArialMT'" font-size="10px">2000</text>
						<text transform="matrix(1 0 0 1 82.5664 252.7793)" display="none" font-family="'ArialMT'" font-size="10px">2005</text>
						<text transform="matrix(1 0 0 1 140.5635 252.7793)" display="none" font-family="'ArialMT'" font-size="10px">2010</text>
						<text transform="matrix(1 0 0 1 209.6973 252.7793)" display="none" font-family="'ArialMT'" font-size="10px">2016</text>
					</g>
					<g>
						<line fill="none" stroke="#888888" x1="34.851" y1="238.859" x2="220.468" y2="238.859"/>
					</g>
				</g>
			</g>
		</g>
		<g>
			<g transform="translate(0.5,0.5)">
				<path fill="none" d="M32.995,249.646L32.995,249.646L32.995,249.646L32.995,249.646z"/>
				<g>
					<g>
						<line fill="none" stroke="#888888" x1="32.995" y1="388.859" x2="28.355" y2="388.859"/>
						<line fill="none" stroke="#888888" x1="32.995" y1="333.174" x2="28.355" y2="333.174"/>
						<line fill="none" stroke="#888888" x1="32.995" y1="277.489" x2="28.355" y2="277.489"/>
						<line fill="none" stroke="#888888" x1="32.995" y1="249.646" x2="28.355" y2="249.646"/>
					</g>
					<g>
						<text transform="matrix(1 0 0 1 6.4697 391.6426)" display="none" font-family="'ArialMT'" font-size="10px">20%</text>
						<text transform="matrix(1 0 0 1 6.4697 336.8857)" display="none" font-family="'ArialMT'" font-size="10px">60%</text>
						<g display="none">
							<text transform="matrix(1 0 0 1 1.3154 280.2725)" display="inline" font-family="'ArialMT'" font-size="10px">100%</text>
							<text transform="matrix(1 0 0 1 1.8818 292.2725)" display="inline" font-family="'ArialMT'" font-size="10px">of US</text>
							<text transform="matrix(1 0 0 1 7.9902 304.2725)" display="inline" font-family="'ArialMT'" font-size="10px">avg.</text>
						</g>
						<text transform="matrix(1 0 0 1 1.3154 252.4307)" display="none" font-family="'ArialMT'" font-size="10px">120%</text>
					</g>
					<g>
						<path fill="none" stroke="#888888" d="M32.995,249.646"/>
						<path fill="none" stroke="#888888" d="M32.995,388.859"/>
					</g>
				</g>
			</g>
		</g>
		<g>
			<g transform="translate(0,0)">
				<path fill="none" d="M34.887,250.61h185.616v139.212H34.887V250.61z"/>
				<g>
					<g>
						<path fill="none" stroke="#444444" stroke-width="2.5" d="M220.504,317.85l-11.593,0.181l-11.593-0.344l-11.593,0.324
							l-11.625,0.014l-11.593,0.82l-11.593,1.696l-11.593,0.62l-11.625,1.215l-11.593,0.857l-11.593,0.925l-11.593,1.064
							l-11.625,1.426l-11.593-0.323l-11.593,0.923l-11.593,2.366"/>
					</g>
				</g>
			</g>
			<g transform="translate(0,0)">
				<path fill="none" d="M34.887,250.61h185.616v139.212H34.887V250.61z"/>
				<g>
					<g>
						<path fill="none" stroke="#1B9E77" stroke-width="2" d="M220.504,342.208l-11.593-2.18l-11.593-6.947l-11.593-0.064
							l-11.625,2.036l-11.593,2.998l-11.593,5.964l-11.593-0.82l-11.625-1.974l-11.593,0.137l-11.593,0.452l-11.593,6.448
							l-11.625,4.708l-11.593,5.11l-11.593-1.061l-11.593-0.012"/>
					</g>
				</g>
			</g>
			<g transform="translate(0,0)">
				<path fill="none" d="M34.887,250.61h185.616v139.212H34.887V250.61z"/>
				<g>
					<g>
						<path fill="none" stroke="#D95F02" stroke-width="2" d="M220.504,319.916l-11.593,0.7l-11.593,2.23l-11.593,2.022
							l-11.625,2.17l-11.593-0.232l-11.593,3.226l-11.593,1.77l-11.625-2.377l-11.593-1.854l-11.593,5.08l-11.593,1.961
							l-11.625,2.059l-11.593-2.177l-11.593,1.599l-11.593,0.469"/>
					</g>
				</g>
			</g>
			<g transform="translate(0,0)">
				<path fill="none" d="M34.887,250.61h185.616v139.212H34.887V250.61z"/>
				<g>
					<g>
						<path fill="none" stroke="#7570B3" stroke-width="2" d="M220.504,279.279l-11.593-0.746l-11.593-0.547l-11.593,5.106
							l-11.625-2.085l-11.593-1.689l-11.593-3.579l-11.593,3.781l-11.625-2.247l-11.593,0.057l-11.593,1.368l-11.593,0.301
							l-11.625,1.862l-11.593-3.678l-11.593,2.074l-11.593,0.156"/>
					</g>
				</g>
			</g>
			<g transform="translate(0,0)">
				<path fill="none" d="M34.887,250.61h185.616v139.212H34.887V250.61z"/>
				<g>
					<g>
						<path fill="none" stroke="#E7298A" stroke-width="2" d="M220.504,322.512l-11.593-1.525l-11.593-0.622l-11.593-0.446
							l-11.625,1.8l-11.593,0.661l-11.593,2.467l-11.593,1.697l-11.625-0.67l-11.593,0.517l-11.593,0.965l-11.593,1.122
							l-11.625,0.167l-11.593,0l-11.593,0.159l-11.593,2.635"/>
					</g>
				</g>
			</g>
			<g transform="translate(0,0)">
				<path fill="none" d="M34.887,250.61h185.616v139.212H34.887V250.61z"/>
				<g>
					<g>
						<path fill="none" stroke="#66A61E" stroke-width="2" d="M220.504,347.568l-11.593-0.371l-11.593,0.814l-11.593,0.596
							L174.1,347.81l-11.593,1.88l-11.593,1.115l-11.593,0.289l-11.625,0.316l-11.593,0.498l-11.593,1.016l-11.593,0.72
							l-11.625,0.993l-11.593-0.852l-11.593,0.129l-11.593,1.542"/>
					</g>
				</g>
			</g>
			<g transform="translate(0,0)">
				<path fill="none" d="M34.887,250.61h185.616v139.212H34.887V250.61z"/>
				<g>
					<g>
						<path fill="none" stroke="#E6AB02" stroke-width="2" d="M220.504,284.694l-11.593,1.636l-11.593,2.515l-11.593-0.061
							l-11.625,2.899l-11.593-1.106l-11.593,2.474l-11.593,1.8l-11.625,5.272l-11.593,3.254l-11.593-1.006l-11.593,2.118
							l-11.625,2.145l-11.593,1.368l-11.593,1.668l-11.593,5.524"/>
					</g>
				</g>
			</g>
			<g transform="translate(0,0)">
				<path fill="none" d="M34.887,250.61h185.616v139.212H34.887V250.61z"/>
				<g>
					<g>
						<path fill="none" stroke="#A6761D" stroke-width="2" d="M220.504,253.732l-11.593,3.546l-11.593-1.401l-11.593-0.301
							l-11.625-3.383l-11.593,0.512l-11.593,2.348l-11.593-1.744l-11.625,3.856l-11.593,2.814l-11.593,1.67l-11.593,0.683
							l-11.625,3.734l-11.593-0.272l-11.593,3.231l-11.593,6.395"/>
					</g>
				</g>
			</g>
		</g>
		<line fill="none" stroke="#444444" stroke-width="2.5" x1="47.417" y1="277.061" x2="220.968" y2="277.525"/>
		<g>
			<path fill="none" stroke="#000000" d="M208.903,298.871c3.551,0,6.536-4.34,8.233-7.485"/>
			<g>
				<polygon points="218.648,288.198 218.31,293.561 216.994,291.613 214.651,291.79 				"/>
			</g>
		</g>
		<g>
			<path fill="none" stroke="#000000" d="M206.119,372.189c4.23,0,9.8-13.123,12.232-19.43"/>
			<g>
				<polygon points="219.576,349.451 219.739,354.823 218.248,353.005 215.931,353.4 				"/>
			</g>
		</g>
		<g>
			<path fill="none" stroke="#000000" d="M223.752,304.439c-3.388,0-5.058,3.778-5.847,6.738"/>
			<g>
				<polygon points="217.256,314.648 216.249,309.369 218.008,310.929 220.234,310.175 				"/>
			</g>
		</g>
		<g>
			<path fill="none" stroke="#000000" d="M223.752,264.532c-3.388,0-5.058,3.778-5.847,6.738"/>
			<g>
				<polygon points="217.256,274.741 216.249,269.462 218.008,271.022 220.234,270.268 				"/>
			</g>
		</g>
	</g>
</g>
<style type="text/css">
#g-mt-economy-5-wage-gap-mobile-img rect, #g-mt-economy-5-wage-gap-mobile-img circle, #g-mt-economy-5-wage-gap-mobile-img path, #g-mt-economy-5-wage-gap-mobile-img line, #g-mt-economy-5-wage-gap-mobile-img polyline { vector-effect: non-scaling-stroke; }
</style>
</svg>

