<?xml version="1.0" encoding="utf-8"?>
<!-- Generator: Adobe Illustrator 22.1.0, SVG Export Plug-In . SVG Version: 6.00 Build 0)  -->
<svg version="1.2" baseProfile="tiny" id="g-mt-economy-3-regional-change-mobile-img" xmlns="http://www.w3.org/2000/svg" xmlns:xlink="http://www.w3.org/1999/xlink"
	 x="0px" y="0px" viewBox="0 0 300 276" xml:space="preserve">
<g>
	<g>
		<g transform="translate(0.5,200.5)">
			<path fill="none" d="M69,29.687L69,29.687L69,29.687L69,29.687z"/>
			<g>
				<g>
					<line fill="none" stroke="#DDDDDD" x1="69" y1="29.687" x2="69" y2="-111"/>
					<line fill="none" stroke="#DDDDDD" x1="98" y1="29.687" x2="98" y2="-111"/>
					<line fill="none" stroke="#DDDDDD" x1="126" y1="29.687" x2="126" y2="-111"/>
					<line fill="none" stroke="#DDDDDD" x1="155" y1="29.687" x2="155" y2="-111"/>
					<line fill="none" stroke="#DDDDDD" x1="183" y1="29.687" x2="183" y2="-111"/>
					<line fill="none" stroke="#DDDDDD" x1="212" y1="29.687" x2="212" y2="-111"/>
					<line fill="none" stroke="#DDDDDD" x1="240" y1="29.687" x2="240" y2="-111"/>
					<line fill="none" stroke="#DDDDDD" x1="269" y1="29.687" x2="269" y2="-111"/>
				</g>
			</g>
		</g>
	</g>
	<g>
		<path fill="#66A61E" d="M98.571,201.106h19.463v13.269H98.571V201.106z"/>
		<path fill="#E7298A" d="M118.034,201.106h6.857v13.269h-6.857V201.106z"/>
		<path fill="#A6761D" d="M124.891,201.106h0.537v13.269h-0.537V201.106z"/>
		<path fill="#E6AB02" d="M125.429,201.106h12.177v13.269h-12.177V201.106z"/>
		<path fill="#1B9E77" d="M97.72,201.106h0.851v13.269H97.72V201.106z"/>
		<path fill="#D95F02" d="M96.131,201.106h1.589v13.269h-1.589V201.106z"/>
		<path fill="#7570B3" d="M90.051,201.106h6.08v13.269h-6.08V201.106z"/>
		<path fill="#CCCCCC" d="M137.606,201.106h9.263v13.269h-9.263V201.106z"/>
		<path fill="#66A61E" d="M98.571,215.849h13.823v13.269H98.571V215.849z"/>
		<path fill="#E7298A" d="M112.394,215.849h10.726v13.269h-10.726V215.849z"/>
		<path fill="#A6761D" d="M89.457,215.849h9.114v13.269h-9.114V215.849z"/>
		<path fill="#E6AB02" d="M85.086,215.849h4.371v13.269h-4.371V215.849z"/>
		<path fill="#1B9E77" d="M123.12,215.849h3.977v13.269h-3.977V215.849z"/>
		<path fill="#D95F02" d="M127.097,215.849h2.343v13.269h-2.343V215.849z"/>
		<path fill="#7570B3" d="M83.903,215.849h1.183v13.269h-1.183V215.849z"/>
		<path fill="#CCCCCC" d="M129.44,215.849h30.406v13.269H129.44V215.849z"/>
		<path fill="#66A61E" d="M98.571,167.62h6.691v13.269h-6.691V167.62z"/>
		<path fill="#E7298A" d="M95.903,167.62h2.669v13.269h-2.669V167.62z"/>
		<path fill="#A6761D" d="M95.189,167.62h0.714v13.269h-0.714V167.62z"/>
		<path fill="#E6AB02" d="M105.263,167.62h7.834v13.269h-7.834V167.62z"/>
		<path fill="#1B9E77" d="M113.097,167.62h1.954v13.269h-1.954V167.62z"/>
		<path fill="#D95F02" d="M115.051,167.62h1.446v13.269h-1.446V167.62z"/>
		<path fill="#7570B3" d="M116.497,167.62h1.32v13.269h-1.32V167.62z"/>
		<path fill="#CCCCCC" d="M93.611,167.62h1.577v13.269h-1.577V167.62z"/>
		<path fill="#66A61E" d="M98.571,182.363h5.263v13.269h-5.263V182.363z"/>
		<path fill="#E7298A" d="M94.52,182.363h4.051v13.269H94.52V182.363z"/>
		<path fill="#A6761D" d="M94.211,182.363h0.309v13.269h-0.309V182.363z"/>
		<path fill="#E6AB02" d="M103.834,182.363h8.206v13.269h-8.206V182.363z"/>
		<path fill="#1B9E77" d="M112.04,182.363h2.874v13.269h-2.874V182.363z"/>
		<path fill="#D95F02" d="M114.914,182.363h0.469v13.269h-0.469V182.363z"/>
		<path fill="#7570B3" d="M115.383,182.363h1.057v13.269h-1.057V182.363z"/>
		<path fill="#CCCCCC" d="M116.44,182.363h3.806v13.269h-3.806V182.363z"/>
		<path fill="#66A61E" d="M98.571,134.134h46.411v13.269H98.571V134.134z"/>
		<path fill="#E7298A" d="M144.983,134.134h3.474v13.269h-3.474V134.134z"/>
		<path fill="#A6761D" d="M148.457,134.134h4.217v13.269h-4.217V134.134z"/>
		<path fill="#E6AB02" d="M152.674,134.134h18.869v13.269h-18.869V134.134z"/>
		<path fill="#1B9E77" d="M98.286,134.134h0.286v13.269h-0.286V134.134z"/>
		<path fill="#D95F02" d="M171.543,134.134h3.194v13.269h-3.194V134.134z"/>
		<path fill="#7570B3" d="M93.783,134.134h4.503v13.269h-4.503V134.134z"/>
		<path fill="#CCCCCC" d="M174.737,134.134h9.749v13.269h-9.749V134.134z"/>
		<path fill="#66A61E" d="M98.571,89.905h91.64v13.269h-91.64V89.905z"/>
		<path fill="#E7298A" d="M190.211,89.905h21.051v13.269h-21.051V89.905z"/>
		<path fill="#A6761D" d="M211.263,89.905h9.166v13.269h-9.166V89.905z"/>
		<path fill="#E6AB02" d="M220.429,89.905h15.914v13.269h-15.914V89.905z"/>
		<path fill="#1B9E77" d="M236.343,89.905h3.189v13.269h-3.189V89.905z"/>
		<path fill="#D95F02" d="M239.531,89.905h15.246v13.269h-15.246V89.905z"/>
		<path fill="#7570B3" d="M254.777,89.905h5.714v13.269h-5.714V89.905z"/>
		<path fill="#CCCCCC" d="M260.491,89.905h4.28v13.269h-4.28V89.905z"/>
		<path fill="#66A61E" d="M98.571,148.877h24v13.269h-24V148.877z"/>
		<path fill="#E7298A" d="M122.571,148.877h4.811v13.269h-4.811V148.877z"/>
		<path fill="#A6761D" d="M127.383,148.877h11.126v13.269h-11.126L127.383,148.877z"/>
		<path fill="#E6AB02" d="M138.509,148.877h9.137v13.269h-9.137V148.877z"/>
		<path fill="#1B9E77" d="M147.646,148.877h2.577v13.269h-2.577V148.877z"/>
		<path fill="#D95F02" d="M150.223,148.877h0.771v13.269h-0.771V148.877z"/>
		<path fill="#7570B3" d="M150.994,148.877h0.629v13.269h-0.629V148.877z"/>
		<path fill="#CCCCCC" d="M151.623,148.877L151.623,148.877v13.269l0,0V148.877z"/>
		<path fill="#66A61E" d="M98.571,119.391h69.76v13.269h-69.76V119.391z"/>
		<path fill="#E7298A" d="M168.331,119.391h2.417v13.269h-2.417V119.391z"/>
		<path fill="#A6761D" d="M170.749,119.391h8.966v13.269h-8.966V119.391z"/>
		<path fill="#E6AB02" d="M179.714,119.391h18.154v13.269h-18.154V119.391z"/>
		<path fill="#1B9E77" d="M197.869,119.391h2.451v13.269h-2.451V119.391z"/>
		<path fill="#D95F02" d="M97.731,119.391h0.84v13.269h-0.84V119.391z"/>
		<path fill="#7570B3" d="M93.04,119.391h4.691v13.269H93.04V119.391z"/>
		<path fill="#CCCCCC" d="M92.869,119.391h0.171v13.269h-0.171V119.391z"/>
		<path fill="#66A61E" d="M98.571,104.648h47.994v13.269H98.571V104.648z"/>
		<path fill="#E7298A" d="M146.566,104.648h15.12v13.269h-15.12V104.648z"/>
		<path fill="#A6761D" d="M161.686,104.648h3.909v13.269h-3.909V104.648z"/>
		<path fill="#E6AB02" d="M165.594,104.648h22.24v13.269h-22.24V104.648z"/>
		<path fill="#1B9E77" d="M187.834,104.648h7.309v13.269h-7.309V104.648z"/>
		<path fill="#D95F02" d="M195.143,104.648h12.829v13.269h-12.829L195.143,104.648z"/>
		<path fill="#7570B3" d="M207.971,104.648H210v13.269h-2.029V104.648z"/>
		<path fill="#CCCCCC" d="M210,104.648L210,104.648v13.269l0,0V104.648z"/>
	</g>
	<g>
		<g transform="translate(0.5,200.5)">
			<path fill="none" d="M69-112.361L69-112.361L69-112.361L69-112.361z"/>
			<g>
				<g>
					<line fill="none" stroke="#888888" x1="69" y1="-112.361" x2="69" y2="-115.678"/>
					<line fill="none" stroke="#888888" x1="98" y1="-112.361" x2="98" y2="-115.678"/>
					<line fill="none" stroke="#888888" x1="126" y1="-112.361" x2="126" y2="-115.678"/>
					<line fill="none" stroke="#888888" x1="155" y1="-112.361" x2="155" y2="-115.678"/>
					<line fill="none" stroke="#888888" x1="183" y1="-112.361" x2="183" y2="-115.678"/>
					<line fill="none" stroke="#888888" x1="212" y1="-112.361" x2="212" y2="-115.678"/>
					<line fill="none" stroke="#888888" x1="240" y1="-112.361" x2="240" y2="-115.678"/>
					<line fill="none" stroke="#888888" x1="269" y1="-112.361" x2="269" y2="-115.678"/>
				</g>
				<g>
					<text transform="matrix(1 0 0 1 61.0542 -118.3125)" display="none" font-family="'ArialMT'" font-size="10px">-5k</text>
					<text transform="matrix(1 0 0 1 94.2192 -118.3125)" display="none" font-family="'ArialMT'" font-size="10px">0</text>
					<text transform="matrix(1 0 0 1 118.4302 -118.3125)" display="none" font-family="'ArialMT'" font-size="10px">+5k</text>
					
						
					<text transform="matrix(1 0 0 1 170.0112 -118.3125)" display="none" font-family="'ArialMT'" font-size="10px">+15k</text>
					
						
					<text transform="matrix(1 0 0 1 247.5928 -118.3125)" display="none" font-family="'ArialMT'" font-size="10px">+30k jobs</text>
				</g>
				<g>
					<line fill="none" stroke="#888888" x1="69" y1="-112.361" x2="269" y2="-112.361"/>
				</g>
			</g>
		</g>
	</g>
	<g>
		<g transform="translate(0.5,0.5)">
			<path fill="none" d="M69,89L69,89L69,89L69,89z"/>
			<g>
				<g>
					<line fill="none" stroke="#888888" x1="69" y1="95.634" x2="64" y2="95.634"/>
					<line fill="none" stroke="#888888" x1="69" y1="110.23" x2="64" y2="110.23"/>
					<line fill="none" stroke="#888888" x1="69" y1="125.489" x2="64" y2="125.489"/>
					<line fill="none" stroke="#888888" x1="69" y1="140.084" x2="64" y2="140.084"/>
					<line fill="none" stroke="#888888" x1="69" y1="154.68" x2="64" y2="154.68"/>
					<line fill="none" stroke="#888888" x1="69" y1="173.275" x2="64" y2="173.275"/>
					<line fill="none" stroke="#888888" x1="69" y1="187.871" x2="64" y2="187.871"/>
					<line fill="none" stroke="#888888" x1="69" y1="207.13" x2="64" y2="207.13"/>
					<line fill="none" stroke="#888888" x1="69" y1="221.725" x2="64" y2="221.725"/>
				</g>
				<g>
					<line fill="none" stroke="#888888" x1="69" y1="88" x2="69" y2="229.687"/>
				</g>
			</g>
		</g>
	</g>
	<g>
		<g>
			<path fill="#D95F02" d="M12.5,58.286h10v10h-10"/>
			<g>
				<text transform="matrix(1 0 0 1 27.5 66.2857)" display="none" font-family="'ArialMT'" font-size="10px">Construction</text>
			</g>
		</g>
		<g>
			<path fill="#7570B3" d="M12.5,44.143h10v10h-10"/>
			<g>
				<text transform="matrix(1 0 0 1 27.5 52.1429)" display="none" font-family="'ArialMT'" font-size="10px">Manufacturing</text>
			</g>
		</g>
		<g>
			<path fill="#66A61E" d="M12.5,30h10v10h-10"/>
			<g>
				<text transform="matrix(1 0 0 1 27.5 38)" display="none" font-family="'ArialMT'" font-size="10px">Services</text>
			</g>
		</g>
	</g>
	<g>
		<g>
			<path fill="#1B9E77" d="M99,30h10v10H99"/>
			<g>
				<text transform="matrix(1 0 0 1 114 37.9999)" display="none" font-family="'ArialMT'" font-size="10px">Natural Resources</text>
			</g>
		</g>
		<g>
			<path fill="#E6AB02" d="M99,44.143h10v10H99"/>
			<g>
				<text transform="matrix(1 0 0 1 114 52.1427)" display="none" font-family="'ArialMT'" font-size="10px">Healthcare</text>
			</g>
		</g>
		<g>
			<path fill="#A6761D" d="M99,58.286h10v10H99"/>
			<g>
				<text transform="matrix(1 0 0 1 114 66.2856)" display="none" font-family="'ArialMT'" font-size="10px">Government</text>
			</g>
		</g>
	</g>
	<g>
		<g>
			<path fill="#E7298A" d="M203.5,30h10v10h-10"/>
			<g>
				<g display="none">
					<text transform="matrix(1 0 0 1 218.5 37.9997)" display="inline" font-family="'ArialMT'" font-size="10px">T</text>
					<text transform="matrix(1 0 0 1 224.2373 37.9997)" display="inline" font-family="'ArialMT'" font-size="10px">r</text>
					<text transform="matrix(1 0 0 1 227.5674 37.9997)" display="inline" font-family="'ArialMT'" font-size="10px">a</text>
					<text transform="matrix(1 0 0 1 233.1289 37.9997)" display="inline" font-family="'ArialMT'" font-size="10px">d</text>
					<text transform="matrix(1 0 0 1 238.6904 37.9997)" display="inline" font-family="'ArialMT'" font-size="10px">e</text>
				</g>
			</g>
		</g>
		<g>
			<path fill="#CCCCCC" d="M203.5,44.143h10v10h-10"/>
			<g>
				<text transform="matrix(1 0 0 1 218.5 52.1426)" display="none" font-family="'ArialMT'" font-size="10px">Category witheld</text>
			</g>
		</g>
	</g>
	<line fill="none" stroke="#000000" stroke-miterlimit="10" x1="98.5" y1="230.187" x2="98.5" y2="88.5"/>
	<g>
		<path fill="none" stroke="#000000" stroke-miterlimit="10" d="M178.5,206.49c-13.947,0.713-15.033-38.356-15.036-50.462"/>
		<g>
			<polygon points="163.5,152.5 165.546,157.469 163.51,156.294 161.481,157.48 			"/>
		</g>
	</g>
</g>
<style type="text/css">
#g-mt-economy-3-regional-change-mobile-img rect, #g-mt-economy-3-regional-change-mobile-img circle, #g-mt-economy-3-regional-change-mobile-img path, #g-mt-economy-3-regional-change-mobile-img line, #g-mt-economy-3-regional-change-mobile-img polyline { vector-effect: non-scaling-stroke; }
</style>
</svg>

