<?xml version="1.0" encoding="utf-8"?>
<!-- Generator: Adobe Illustrator 22.1.0, SVG Export Plug-In . SVG Version: 6.00 Build 0)  -->
<svg version="1.2" baseProfile="tiny" id="g-mt-economy-5-wage-gap-mobile-img" xmlns="http://www.w3.org/2000/svg" xmlns:xlink="http://www.w3.org/1999/xlink"
	 x="0px" y="0px" viewBox="0 0 300 436" xml:space="preserve">
<g>
	<g transform="translate(56,29)">
		<g>
			<g transform="translate(0,0)">
				<g>
					<g>
						<g transform="translate(0.5,0.5)">
							<path fill="none" d="M-20.587,20.714L-20.587,20.714L-20.587,20.714L-20.587,20.714z"/>
							<g>
								<g>
									<line fill="none" stroke="#DDDDDD" x1="-20.587" y1="165.519" x2="174.502" y2="165.519"/>
									<line fill="none" stroke="#DDDDDD" x1="-20.587" y1="129.318" x2="174.502" y2="129.318"/>
									<line fill="none" stroke="#DDDDDD" x1="-20.587" y1="93.116" x2="174.502" y2="93.116"/>
									<line fill="none" stroke="#DDDDDD" x1="-20.587" y1="56.915" x2="174.502" y2="56.915"/>
									<line fill="none" stroke="#DDDDDD" x1="-20.587" y1="20.714" x2="174.502" y2="20.714"/>
								</g>
							</g>
						</g>
					</g>
					<g>
						
							<text transform="matrix(1 0 0 1 177.1973 146.5029)" display="none" fill="#D95F02" font-family="'ArialMT'" font-size="10px">Mountains</text>
						<text transform="matrix(1 0 0 1 177.2246 133.124)" display="none" fill="#E6AB02" font-family="'ArialMT'" font-size="10px">Plains</text>
						<text transform="matrix(1 0 0 1 177.1973 95.4453)" display="none" fill="#86BF86" font-family="'ArialMT'" font-size="10px">Great Falls</text>
						
							<text transform="matrix(1 0 0 1 177.1973 113.8936)" display="none" fill="#86BF86" font-family="'ArialMT'" font-size="10px">Bozeman</text>
						<text transform="matrix(1 0 0 1 177.1973 84.4268)" display="none" fill="#86BF86" font-family="'ArialMT'" font-size="10px">Billings</text>
					</g>
					<g>
						<g transform="translate(0.5,200.5)">
							<path fill="none" d="M-20.587-34.481L-20.587-34.481L-20.587-34.481L-20.587-34.481z"/>
							<g>
								<g>
									<line fill="none" stroke="#888888" x1="-20.587" y1="-34.481" x2="-20.587" y2="-30.861"/>
									<line fill="none" stroke="#888888" x1="3.799" y1="-34.481" x2="3.799" y2="-30.861"/>
									<line fill="none" stroke="#888888" x1="28.185" y1="-34.481" x2="28.185" y2="-30.861"/>
									<line fill="none" stroke="#888888" x1="52.572" y1="-34.481" x2="52.572" y2="-30.861"/>
									<line fill="none" stroke="#888888" x1="76.958" y1="-34.481" x2="76.958" y2="-30.861"/>
									<line fill="none" stroke="#888888" x1="101.344" y1="-34.481" x2="101.344" y2="-30.861"/>
									<line fill="none" stroke="#888888" x1="125.73" y1="-34.481" x2="125.73" y2="-30.861"/>
									<line fill="none" stroke="#888888" x1="150.116" y1="-34.481" x2="150.116" y2="-30.861"/>
									<line fill="none" stroke="#888888" x1="174.258" y1="-34.119" x2="174.258" y2="-30.499"/>
								</g>
								<g>
									<text transform="matrix(1 0 0 1 -31.7002 -20.6201)" display="none" font-family="'ArialMT'" font-size="10px">2000</text>
									<text transform="matrix(1 0 0 1 17.0117 -20.6201)" display="none" font-family="'ArialMT'" font-size="10px">2004</text>
									<text transform="matrix(1 0 0 1 65.7847 -20.6201)" display="none" font-family="'ArialMT'" font-size="10px">2008</text>
									<text transform="matrix(1 0 0 1 114.5566 -20.6201)" display="none" font-family="'ArialMT'" font-size="10px">2012</text>
									<text transform="matrix(1 0 0 1 163.3457 -20.6201)" display="none" font-family="'ArialMT'" font-size="10px">2016</text>
								</g>
								<g>
									<line fill="none" stroke="#888888" x1="-20.587" y1="-34.481" x2="174.502" y2="-34.481"/>
								</g>
							</g>
						</g>
					</g>
					<g>
						<g transform="translate(0.5,0.5)">
							<path fill="none" d="M-20.587,20.714L-20.587,20.714L-20.587,20.714L-20.587,20.714z"/>
							<g>
								<g>
									<line fill="none" stroke="#888888" x1="-20.587" y1="165.519" x2="-23.025" y2="165.519"/>
									<line fill="none" stroke="#888888" x1="-20.587" y1="129.318" x2="-23.025" y2="129.318"/>
									<line fill="none" stroke="#888888" x1="-20.587" y1="93.116" x2="-23.025" y2="93.116"/>
									<line fill="none" stroke="#888888" x1="-20.587" y1="56.915" x2="-23.025" y2="56.915"/>
									<line fill="none" stroke="#888888" x1="-20.587" y1="20.714" x2="-23.025" y2="20.714"/>
								</g>
							</g>
						</g>
					</g>
					<g>
						<g transform="translate(0,0)">
							<g>
								<g>
									<path fill="none" stroke="#444444" stroke-width="3" d="M174.758,57.053h-12.185h-12.185h-12.185h-12.218h-12.185h-12.185
										H89.432H77.214H65.029H52.844H40.66H28.442H16.257H4.072H-7.894"/>
								</g>
							</g>
						</g>
						<g transform="translate(0,0)">
							<g>
								<g>
									<path fill="none" stroke="#E5AE89" stroke-width="2" d="M174.758,140.71l-12.185,1.127l-12.185,0.369l-12.185-0.688
										l-12.218,0.556l-12.185,0.218l-12.185,0.886l-12.185,0.265l-12.218-0.087l-12.185,1.479l-12.185,0.476l-12.185,1.371
										l-12.218,0.995L16.257,146.8l-12.185,1.197l-12.185,2.641"/>
								</g>
							</g>
						</g>
						<g transform="translate(0,0)">
							<g>
								<g>
									<path fill="none" stroke="#86BF86" stroke-width="2" d="M174.758,91.1l-12.185,1.156l-12.185-0.232l-12.185,2.696
										l-12.218-2.423l-12.185-1.601l-12.185,1.174l-12.185,3.293l-12.218,3.625l-12.185,0.756L52.844,99.93l-12.185,1.474
										l-12.218,1.015l-12.185,0.343l-12.185,2.669l-12.185,5.299"/>
								</g>
							</g>
						</g>
						<g transform="translate(0,0)">
							<g>
								<g>
									<path fill="none" stroke="#86BF86" stroke-width="2" stroke-dasharray="2" d="M174.758,101.119l-12.185-0.55l-12.185,1.105
										l-12.185-3.383l-12.218-0.661l-12.185,0.887l-12.185,1.875l-12.185,0.278l-12.218,3.931l-12.185,2.456l-12.185,0.395
										l-12.185-0.718l-12.218,3.812l-12.185,1.204l-12.185,0.068l-12.185,4.09"/>
								</g>
							</g>
						</g>
						<g transform="translate(0,0)">
							<g>
								<g>
									<path fill="none" stroke="#86BF86" stroke-width="2" d="M174.758,117.779l-12.185,0.994l-12.185,0.326l-12.185,0.776
										l-12.218,1.739l-12.185-0.441l-12.185,2.066l-12.185,1.009l-12.218-1.967l-12.185,0.083l-12.185,0.603l-12.185,2.234
										l-12.218,1.346l-12.185-0.202l-12.185,0.478l-12.185,2.124"/>
								</g>
							</g>
						</g>
						<g transform="translate(0,0)">
							<g>
								<g>
									<path fill="none" stroke="#86BF86" stroke-width="2" d="M174.758,111.722l-12.185,3.31l-12.185,2.445l-12.185,0.322
										l-12.218-3.516l-12.185,3.719l-12.185,2.237l-12.185,0.32l-12.218-0.93l-12.185-0.722l-12.185,1.156L40.66,123.1
										l-12.218,3.046l-12.185-1.905l-12.185,2.576l-12.185,2.734"/>
								</g>
							</g>
						</g>
						<g transform="translate(0,0)">
							<g>
								<g>
									<path fill="none" stroke="#86BF86" stroke-width="2" stroke-dasharray="2" d="M174.758,85.472l-12.185,0.719l-12.185-0.029
										l-12.185-0.787l-12.218-1.104l-12.185,0.307l-12.185,1.957L89.432,85.52l-12.218,4.038L65.029,93.17l-12.185,1.326
										L40.66,95.549l-12.218,0.905l-12.185-2.178L4.072,94.554l-12.185,5.031"/>
								</g>
							</g>
						</g>
						<g transform="translate(0,0)">
							<g>
								<g>
									<path fill="none" stroke="#86BF86" stroke-width="2" stroke-dasharray="2" d="M174.758,113.2l-12.185,1.753l-12.185,0.744
										l-12.185,0.007l-12.218-0.021l-12.185-0.16l-12.185,0.425l-12.185-0.629l-12.218,1.83l-12.185,1.519l-12.185,0.685
										L40.66,118.8l-12.218,0.762l-12.185-2.228l-12.185-0.153l-12.185,3.397"/>
								</g>
							</g>
						</g>
						<g transform="translate(0,0)">
							<g>
								<g>
									<path fill="none" stroke="#86BF86" stroke-width="2" d="M174.758,82.978l-12.185-1.378l-12.185,0.684l-12.185,0.667
										l-12.218,1.762l-12.185,1.13l-12.185,2.951l-12.185,0.414L77.214,91.15l-12.185-0.583l-12.185,2.858l-12.185,1.51
										l-12.218,2.806l-12.185-0.2l-12.185,0.5l-12.185,2.72"/>
								</g>
							</g>
						</g>
						<g transform="translate(0,0)">
							<g>
								<g>
									<path fill="none" stroke="#444444" stroke-width="3" d="M174.758,108.278l-12.185,0.235l-12.185-0.448l-12.185,0.422
										l-12.218,0.019l-12.185,1.066l-12.185,2.205l-12.185,0.806l-12.218,1.58l-12.185,1.115l-12.185,1.203l-12.185,1.383
										l-12.218,1.854l-12.185-0.42l-12.185,1.2l-12.185,3.076"/>
								</g>
							</g>
						</g>
						<g transform="translate(0,0)">
							<g>
								<g>
									<path fill="none" stroke="#F2DF91" stroke-width="2" d="M174.758,119.368l-12.185-2.69l-12.185-5.423l-12.185,1.61
										l-12.218,1.535l-12.185,3.157l-12.185,4.437l-12.185,2.404l-12.218,2.089l-12.185,1.802l-12.185,1.26l-12.185,1.839
										l-12.218,2.507l-12.185,1.786l-12.185,2.04l-12.185,2.119"/>
								</g>
							</g>
						</g>
					</g>
				</g>
			</g>
		</g>
	</g>
	<g transform="translate(56,29)">
		<g>
			<g transform="translate(0,0)">
				<g>
					<g>
						<g transform="translate(0.5,0.5)">
							<path fill="none" d="M-20.587,237.513L-20.587,237.513L-20.587,237.513L-20.587,237.513z"/>
							<g>
								<g>
									<line fill="none" stroke="#DDDDDD" x1="-20.587" y1="382.318" x2="174.502" y2="382.318"/>
									<line fill="none" stroke="#DDDDDD" x1="-20.587" y1="346.117" x2="174.502" y2="346.117"/>
									<line fill="none" stroke="#DDDDDD" x1="-20.587" y1="309.916" x2="174.502" y2="309.916"/>
									<line fill="none" stroke="#DDDDDD" x1="-20.587" y1="273.714" x2="174.502" y2="273.714"/>
									<line fill="none" stroke="#DDDDDD" x1="-20.587" y1="237.513" x2="174.502" y2="237.513"/>
								</g>
							</g>
						</g>
					</g>
					<g>
						
							<text transform="matrix(1 0 0 1 177.1973 359.0244)" display="none" fill="#1B9E77" font-family="'ArialMT'" font-size="10px">Nat. Res.</text>
						
							<text transform="matrix(1 0 0 1 177.1973 329.2119)" display="none" fill="#D95F02" font-family="'ArialMT'" font-size="10px">Construction</text>
						
							<text transform="matrix(1 0 0 1 177.1973 274.9258)" display="none" fill="#7570B3" font-family="'ArialMT'" font-size="10px">Manufacturing</text>
						<g display="none">
							
								<text transform="matrix(1 0 0 1 177.1973 338.3799)" display="inline" fill="#E7298A" font-family="'ArialMT'" font-size="10px">T</text>
							
								<text transform="matrix(1 0 0 1 182.9346 338.3799)" display="inline" fill="#E7298A" font-family="'ArialMT'" font-size="10px">r</text>
							
								<text transform="matrix(1 0 0 1 186.2646 338.3799)" display="inline" fill="#E7298A" font-family="'ArialMT'" font-size="10px">a</text>
							
								<text transform="matrix(1 0 0 1 191.8262 338.3799)" display="inline" fill="#E7298A" font-family="'ArialMT'" font-size="10px">d</text>
							
								<text transform="matrix(1 0 0 1 197.3877 338.3799)" display="inline" fill="#E7298A" font-family="'ArialMT'" font-size="10px">e</text>
						</g>
						
							<text transform="matrix(1 0 0 1 177.1973 371.7852)" display="none" fill="#66A61E" font-family="'ArialMT'" font-size="10px">Services</text>
						
							<text transform="matrix(1 0 0 1 177.1973 287.0361)" display="none" fill="#E6AB02" font-family="'ArialMT'" font-size="10px">Healthcare</text>
						
							<text transform="matrix(1 0 0 1 177.1973 245.3291)" display="none" fill="#A6761D" font-family="'ArialMT'" font-size="10px">Government</text>
					</g>
					<g>
						<g transform="translate(0.5,200.5)">
							<path fill="none" d="M-20.587,182.318L-20.587,182.318L-20.587,182.318L-20.587,182.318z"/>
							<g>
								<g>
									<line fill="none" stroke="#888888" x1="-20.587" y1="182.318" x2="-20.587" y2="185.939"/>
									<line fill="none" stroke="#888888" x1="3.799" y1="182.318" x2="3.799" y2="185.939"/>
									<line fill="none" stroke="#888888" x1="28.185" y1="182.318" x2="28.185" y2="185.939"/>
									<line fill="none" stroke="#888888" x1="52.572" y1="182.318" x2="52.572" y2="185.939"/>
									<line fill="none" stroke="#888888" x1="76.958" y1="182.318" x2="76.958" y2="185.939"/>
									<line fill="none" stroke="#888888" x1="101.344" y1="182.318" x2="101.344" y2="185.939"/>
									<line fill="none" stroke="#888888" x1="125.73" y1="182.318" x2="125.73" y2="185.939"/>
									<line fill="none" stroke="#888888" x1="150.116" y1="182.318" x2="150.116" y2="185.939"/>
									<line fill="none" stroke="#888888" x1="174.258" y1="182.68" x2="174.258" y2="186.301"/>
								</g>
								<g>
									<text transform="matrix(1 0 0 1 -31.7002 193.1787)" display="none" font-family="'ArialMT'" font-size="10px">2000</text>
									<text transform="matrix(1 0 0 1 17.0117 193.1787)" display="none" font-family="'ArialMT'" font-size="10px">2004</text>
									<text transform="matrix(1 0 0 1 65.7847 193.1787)" display="none" font-family="'ArialMT'" font-size="10px">2008</text>
									<text transform="matrix(1 0 0 1 114.5566 193.1787)" display="none" font-family="'ArialMT'" font-size="10px">2012</text>
									<text transform="matrix(1 0 0 1 163.3457 193.1787)" display="none" font-family="'ArialMT'" font-size="10px">2016</text>
								</g>
								<g>
									<line fill="none" stroke="#888888" x1="-20.587" y1="182.318" x2="174.502" y2="182.318"/>
								</g>
							</g>
						</g>
					</g>
					<g>
						<g transform="translate(0.5,0.5)">
							<path fill="none" d="M-20.587,237.513L-20.587,237.513L-20.587,237.513L-20.587,237.513z"/>
							<g>
								<g>
									<line fill="none" stroke="#888888" x1="-20.587" y1="382.318" x2="-23.025" y2="382.318"/>
									<line fill="none" stroke="#888888" x1="-20.587" y1="346.117" x2="-23.025" y2="346.117"/>
									<line fill="none" stroke="#888888" x1="-20.587" y1="309.916" x2="-23.025" y2="309.916"/>
									<line fill="none" stroke="#888888" x1="-20.587" y1="273.714" x2="-23.025" y2="273.714"/>
									<line fill="none" stroke="#888888" x1="-20.587" y1="237.513" x2="-23.025" y2="237.513"/>
								</g>
							</g>
						</g>
					</g>
					<g>
						<g transform="translate(0,0)">
							<g>
								<g>
									<path fill="none" stroke="#444444" stroke-width="3" d="M174.758,325.077l-12.185,0.235l-12.185-0.448l-12.185,0.422
										l-12.218,0.019l-12.185,1.066l-12.185,2.205l-12.185,0.806l-12.218,1.58l-12.185,1.115l-12.185,1.203l-12.185,1.383
										l-12.218,1.854l-12.185-0.42l-12.185,1.2l-12.185,3.076"/>
								</g>
							</g>
						</g>
						<g transform="translate(0,0)">
							<g>
								<g>
									<path fill="none" stroke="#1B9E77" stroke-width="2" d="M174.758,356.748l-12.185-2.835l-12.185-9.033l-12.185-0.083
										l-12.218,2.648l-12.185,3.899l-12.185,7.754l-12.185-1.066l-12.218-2.567l-12.185,0.178l-12.185,0.587l-12.185,8.383
										l-12.218,6.122l-12.185,6.644L4.072,376l-12.185-0.016"/>
								</g>
							</g>
						</g>
						<g transform="translate(0,0)">
							<g>
								<g>
									<path fill="none" stroke="#D95F02" stroke-width="2" d="M174.758,327.764l-12.185,0.91l-12.185,2.899l-12.185,2.63
										l-12.218,2.822l-12.185-0.301l-12.185,4.194l-12.185,2.302l-12.218-3.09l-12.185-2.411l-12.185,6.606l-12.185,2.549
										l-12.218,2.677l-12.185-2.83l-12.185,2.079l-12.185,0.61"/>
								</g>
							</g>
						</g>
						<g transform="translate(0,0)">
							<g>
								<g>
									<path fill="none" stroke="#E7298A" stroke-width="2" d="M174.758,331.139l-12.185-1.983l-12.185-0.808l-12.185-0.58
										l-12.218,2.34l-12.185,0.86l-12.185,3.207l-12.185,2.207l-12.218-0.871l-12.185,0.672l-12.185,1.255l-12.185,1.458
										l-12.218,0.217l-12.185,0l-12.185,0.207l-12.185,3.426"/>
								</g>
							</g>
						</g>
						<g transform="translate(0,0)">
							<g>
								<g>
									<path fill="none" stroke="#66A61E" stroke-width="2" d="M174.758,363.717l-12.185-0.482l-12.185,1.059l-12.185,0.775
										l-12.218-1.036l-12.185,2.444l-12.185,1.449l-12.185,0.376l-12.218,0.411l-12.185,0.647l-12.185,1.321l-12.185,0.936
										l-12.218,1.291l-12.185-1.108l-12.185,0.168l-12.185,2.006"/>
								</g>
							</g>
						</g>
						<g transform="translate(0,0)">
							<g>
								<g>
									<path fill="none" stroke="#E6AB02" stroke-width="2" d="M174.758,281.968l-12.185,2.127l-12.185,3.27l-12.185-0.079
										l-12.218,3.769l-12.185-1.438l-12.185,3.216l-12.185,2.34l-12.218,6.855l-12.185,4.231l-12.185-1.307l-12.185,2.753
										l-12.218,2.789l-12.185,1.778L4.072,314.44l-12.185,7.182"/>
								</g>
							</g>
						</g>
						<g transform="translate(0,0)">
							<g>
								<g>
									<path fill="none" stroke="#A6761D" stroke-width="2" d="M174.758,241.709l-12.185,4.611l-12.185-1.822l-12.185-0.391
										l-12.218-4.399l-12.185,0.666l-12.185,3.053l-12.185-2.267l-12.218,5.014l-12.185,3.658l-12.185,2.172l-12.185,0.888
										l-12.218,4.855l-12.185-0.354l-12.185,4.201l-12.185,8.315"/>
								</g>
							</g>
						</g>
						<g transform="translate(0,0)">
							<g>
								<g>
									<path fill="none" stroke="#444444" stroke-width="3" d="M174.758,274.576h-12.185h-12.185h-12.185h-12.218h-12.185h-12.185
										H89.432H77.214H65.029H52.844H40.66H28.442H16.257H4.072H-7.894"/>
								</g>
							</g>
						</g>
						<g transform="translate(0,0)">
							<g>
								<g>
									<path fill="none" stroke="#7570B3" stroke-width="2" d="M174.758,274.926l-12.185-0.971l-12.185-0.711l-12.185,6.639
										l-12.218-2.712l-12.185-2.196l-12.185-4.654l-12.185,4.916l-12.218-2.921l-12.185,0.075l-12.185,1.779l-12.185,0.391
										l-12.218,2.42L16.257,272.2l-12.185,2.697l-12.185,0.202"/>
								</g>
							</g>
						</g>
					</g>
				</g>
			</g>
		</g>
	</g>
	<g>
		<line fill="none" stroke="#000000" x1="79.32" y1="96.913" x2="79.32" y2="93.566"/>
		<g>
			<polygon points="79.32,90.035 81.353,95.01 79.32,93.829 77.288,95.01 			"/>
		</g>
	</g>
	<g>
		<line fill="none" stroke="#000000" x1="79.564" y1="121.168" x2="79.564" y2="142.359"/>
		<g>
			<polygon points="79.564,145.889 77.532,140.914 79.564,142.095 81.597,140.914 			"/>
		</g>
	</g>
	<path d="M210.518,101.258"/>
	<g>
		<path fill="none" stroke="#000000" d="M217.834,93.293c9.368,0.369,11.098,26.966,11.417,36.709"/>
		<g>
			<polygon points="229.323,133.529 227.146,128.616 229.212,129.736 231.209,128.497 			"/>
		</g>
	</g>
	<g>
		<path fill="none" stroke="#000000" d="M215.151,182.711c7.825,0,11.378-3.86,12.953-6.816"/>
		<g>
			<polygon points="229.295,172.574 229.421,177.947 227.942,176.119 225.623,176.498 			"/>
		</g>
	</g>
	<g>
		<path fill="none" stroke="#000000" d="M212.225,62.522c11.095,0,15.887,10.527,17.651,16.131"/>
		<g>
			<polygon points="230.758,82.071 227.491,77.805 229.762,78.41 231.413,76.737 			"/>
		</g>
	</g>
	<g>
		<path fill="none" stroke="#000000" d="M215.151,283.666c8.396,0,11.808-3.317,13.195-6.012"/>
		<g>
			<polygon points="229.295,274.253 229.781,279.605 228.184,277.881 225.895,278.414 			"/>
		</g>
	</g>
	<g>
		<path fill="none" stroke="#000000" d="M220.029,330.727c7.283,0,9.398-6.672,10.005-10.958"/>
		<g>
			<polygon points="230.271,316.247 231.891,321.371 229.961,320.028 227.839,321.039 			"/>
		</g>
	</g>
</g>
<style type="text/css">
#g-mt-economy-5-wage-gap-mobile-img rect, #g-mt-economy-5-wage-gap-mobile-img circle, #g-mt-economy-5-wage-gap-mobile-img path, #g-mt-economy-5-wage-gap-mobile-img line, #g-mt-economy-5-wage-gap-mobile-img polyline { vector-effect: non-scaling-stroke; }
</style>
</svg>

