<?xml version="1.0" encoding="utf-8"?>
<!-- Generator: Adobe Illustrator 22.1.0, SVG Export Plug-In . SVG Version: 6.00 Build 0)  -->
<svg version="1.2" baseProfile="tiny" id="g-mt-economy-3-regional-change-mobile-img" xmlns="http://www.w3.org/2000/svg" xmlns:xlink="http://www.w3.org/1999/xlink"
	 x="0px" y="0px" viewBox="0 0 300 496" xml:space="preserve">
<g>
	<g>
		<g transform="translate(98.33333333333333,0)">
			<rect x="-44.167" y="53" fill="none" stroke="#86BF86" width="93.333" height="92.5"/>
			<g>
				<g transform="translate(0,58)">
					<line fill="none" stroke="#BBBBBB" stroke-dasharray="2" x1="-16.667" y1="70.5" x2="41.667" y2="70.5"/>
				</g>
				<g transform="translate(0,38.833333333333336)">
					<line fill="none" stroke="#BBBBBB" stroke-dasharray="2" x1="-16.667" y1="70.5" x2="41.667" y2="70.5"/>
				</g>
				<g transform="translate(0,19.66666666666667)">
					<line fill="none" stroke="#BBBBBB" stroke-dasharray="2" x1="-16.667" y1="70.5" x2="41.667" y2="70.5"/>
				</g>
				<g transform="translate(0,0.5)">
					<line fill="none" stroke="#BBBBBB" stroke-dasharray="2" x1="-16.667" y1="70.5" x2="41.667" y2="70.5"/>
				</g>
			</g>
			<g>
				<rect x="-15.278" y="66.525" fill="#66A61E" width="6.944" height="61.475"/>
				<rect x="-8.333" y="113.878" fill="#E7298A" width="6.944" height="14.122"/>
				<rect x="-1.389" y="121.851" fill="#A6761D" width="6.944" height="6.149"/>
				<rect x="5.556" y="117.324" fill="#E6AB02" width="6.944" height="10.676"/>
				<rect x="12.5" y="125.861" fill="#1B9E77" width="6.944" height="2.139"/>
				<rect x="19.444" y="117.773" fill="#D95F02" width="6.944" height="10.227"/>
				<rect x="26.389" y="124.167" fill="#7570B3" width="6.944" height="3.833"/>
				<rect x="33.333" y="125.129" fill="#CCCCCC" width="6.944" height="2.871"/>
			</g>
			<g>
				<line fill="none" stroke="#000000" x1="-16.667" y1="128" x2="41.667" y2="128"/>
			</g>
			<g>
				<text transform="matrix(1 0 0 1 -14.0054 66.5)" display="none" font-family="'Arial-BoldMT'" font-size="12px">Bozeman</text>
			</g>
			<g>
				<text transform="matrix(1 0 0 1 -6.3608 83.5)" display="none" font-family="'Arial-ItalicMT'" font-size="12px">+29k jobs</text>
			</g>
			<g transform="translate(5,0)">
				<g transform="translate(0,58)">
					<text transform="matrix(1 0 0 1 -31.2282 73.7)" display="none" font-family="'ArialMT'" font-size="10px">0</text>
				</g>
				<g transform="translate(0,38.833333333333336)">
					<text transform="matrix(1 0 0 1 -36.2282 73.7)" display="none" font-family="'ArialMT'" font-size="10px">5k</text>
				</g>
				<g transform="translate(0,19.66666666666667)">
					<text transform="matrix(1 0 0 1 -41.7897 73.7)" display="none" font-family="'ArialMT'" font-size="10px">10k</text>
				</g>
				<g transform="translate(0,0.5)">
					<text transform="matrix(1 0 0 1 -41.7897 73.7)" display="none" font-family="'ArialMT'" font-size="10px">15k</text>
				</g>
			</g>
		</g>
		<g transform="translate(196.66666666666666,0)">
			<rect x="-44.167" y="53" fill="none" stroke="#86BF86" width="93.333" height="92.5"/>
			<g>
				<g transform="translate(0,58)">
					<line fill="none" stroke="#BBBBBB" stroke-dasharray="2" x1="-16.667" y1="70.5" x2="41.667" y2="70.5"/>
				</g>
				<g transform="translate(0,38.833333333333336)">
					<line fill="none" stroke="#BBBBBB" stroke-dasharray="2" x1="-16.667" y1="70.5" x2="41.667" y2="70.5"/>
				</g>
				<g transform="translate(0,19.66666666666667)">
					<line fill="none" stroke="#BBBBBB" stroke-dasharray="2" x1="-16.667" y1="70.5" x2="41.667" y2="70.5"/>
				</g>
				<g transform="translate(0,0.5)">
					<line fill="none" stroke="#BBBBBB" stroke-dasharray="2" x1="-16.667" y1="70.5" x2="41.667" y2="70.5"/>
				</g>
			</g>
			<g>
				<rect x="-15.278" y="95.804" fill="#66A61E" width="6.944" height="32.196"/>
				<rect x="-8.333" y="117.857" fill="#E7298A" width="6.944" height="10.143"/>
				<rect x="-1.389" y="125.378" fill="#A6761D" width="6.944" height="2.622"/>
				<rect x="5.556" y="113.081" fill="#E6AB02" width="6.944" height="14.919"/>
				<rect x="12.5" y="123.097" fill="#1B9E77" width="6.944" height="4.903"/>
				<rect x="19.444" y="119.394" fill="#D95F02" width="6.944" height="8.606"/>
				<rect x="26.389" y="126.639" fill="#7570B3" width="6.944" height="1.361"/>
				<polygon fill="#CCCCCC" points="33.333,128 40.278,128 40.278,128 				"/>
			</g>
			<g>
				<line fill="none" stroke="#000000" x1="-16.667" y1="128" x2="41.667" y2="128"/>
			</g>
			<g>
				<text transform="matrix(1 0 0 1 -9.168 66.5)" display="none" font-family="'Arial-BoldMT'" font-size="12px">Billings</text>
			</g>
			<g>
				<text transform="matrix(1 0 0 1 -13.3516 83.5)" display="none" font-family="'Arial-ItalicMT'" font-size="12px">+20k jobs</text>
			</g>
			<g transform="translate(5,0)">
				<g transform="translate(0,58)">
					<text transform="matrix(1 0 0 1 -31.2282 73.7)" display="none" font-family="'ArialMT'" font-size="10px">0</text>
				</g>
				<g transform="translate(0,38.833333333333336)">
					<text transform="matrix(1 0 0 1 -36.2282 73.7)" display="none" font-family="'ArialMT'" font-size="10px">5k</text>
				</g>
				<g transform="translate(0,19.66666666666667)">
					<text transform="matrix(1 0 0 1 -41.7897 73.7)" display="none" font-family="'ArialMT'" font-size="10px">10k</text>
				</g>
				<g transform="translate(0,0.5)">
					<text transform="matrix(1 0 0 1 -41.7897 73.7)" display="none" font-family="'ArialMT'" font-size="10px">15k</text>
				</g>
			</g>
		</g>
	</g>
	<g>
		<g transform="translate(0,97.5)">
			<rect x="5" y="53" fill="none" stroke="#86BF86" width="93.333" height="92.5"/>
			<g>
				<g transform="translate(0,58)">
					<line fill="none" stroke="#BBBBBB" stroke-dasharray="2" x1="32.5" y1="70.5" x2="90.833" y2="70.5"/>
				</g>
				<g transform="translate(0,38.833333333333336)">
					<line fill="none" stroke="#BBBBBB" stroke-dasharray="2" x1="32.5" y1="70.5" x2="90.833" y2="70.5"/>
				</g>
				<g transform="translate(0,19.66666666666667)">
					<line fill="none" stroke="#BBBBBB" stroke-dasharray="2" x1="32.5" y1="70.5" x2="90.833" y2="70.5"/>
				</g>
				<g transform="translate(0,0.5)">
					<line fill="none" stroke="#BBBBBB" stroke-dasharray="2" x1="32.5" y1="70.5" x2="90.833" y2="70.5"/>
				</g>
			</g>
			<g>
				<rect x="33.889" y="81.203" fill="#66A61E" width="6.944" height="46.797"/>
				<rect x="40.833" y="126.379" fill="#E7298A" width="6.944" height="1.621"/>
				<rect x="47.778" y="121.986" fill="#A6761D" width="6.944" height="6.014"/>
				<rect x="54.722" y="115.822" fill="#E6AB02" width="6.944" height="12.179"/>
				<rect x="61.667" y="126.355" fill="#1B9E77" width="6.944" height="1.645"/>
				<rect x="68.611" y="128" fill="#D95F02" width="6.944" height="0.563"/>
				<rect x="75.556" y="128" fill="#7570B3" width="6.944" height="3.147"/>
				<rect x="82.5" y="128" fill="#CCCCCC" width="6.944" height="0.115"/>
			</g>
			<g>
				<line fill="none" stroke="#000000" x1="32.5" y1="128" x2="90.833" y2="128"/>
			</g>
			<g>
				<text transform="matrix(1 0 0 1 36.321 66.5)" display="none" font-family="'Arial-BoldMT'" font-size="12px">Missoula</text>
			</g>
			<g>
				<text transform="matrix(1 0 0 1 35.9635 83.5)" display="none" font-family="'Arial-ItalicMT'" font-size="12px">+17k jobs</text>
			</g>
			<g transform="translate(5,0)">
				<g transform="translate(0,58)">
					<text transform="matrix(1 0 0 1 17.9385 73.7)" display="none" font-family="'ArialMT'" font-size="10px">0</text>
				</g>
				<g transform="translate(0,38.833333333333336)">
					<text transform="matrix(1 0 0 1 12.9385 73.7)" display="none" font-family="'ArialMT'" font-size="10px">5k</text>
				</g>
				<g transform="translate(0,19.66666666666667)">
					<text transform="matrix(1 0 0 1 7.3769 73.7)" display="none" font-family="'ArialMT'" font-size="10px">10k</text>
				</g>
				<g transform="translate(0,0.5)">
					<text transform="matrix(1 0 0 1 7.3769 73.7)" display="none" font-family="'ArialMT'" font-size="10px">15k</text>
				</g>
			</g>
		</g>
		<g transform="translate(98.33333333333333,97.5)">
			<rect x="5" y="53" fill="none" stroke="#86BF86" width="93.333" height="92.5"/>
			<g>
				<g transform="translate(0,58)">
					<line fill="none" stroke="#BBBBBB" stroke-dasharray="2" x1="32.5" y1="70.5" x2="90.833" y2="70.5"/>
				</g>
				<g transform="translate(0,38.833333333333336)">
					<line fill="none" stroke="#BBBBBB" stroke-dasharray="2" x1="32.5" y1="70.5" x2="90.833" y2="70.5"/>
				</g>
				<g transform="translate(0,19.66666666666667)">
					<line fill="none" stroke="#BBBBBB" stroke-dasharray="2" x1="32.5" y1="70.5" x2="90.833" y2="70.5"/>
				</g>
				<g transform="translate(0,0.5)">
					<line fill="none" stroke="#BBBBBB" stroke-dasharray="2" x1="32.5" y1="70.5" x2="90.833" y2="70.5"/>
				</g>
			</g>
			<g>
				<rect x="33.889" y="96.866" fill="#66A61E" width="6.944" height="31.134"/>
				<rect x="40.833" y="125.669" fill="#E7298A" width="6.944" height="2.331"/>
				<rect x="47.778" y="125.171" fill="#A6761D" width="6.944" height="2.829"/>
				<rect x="54.722" y="115.342" fill="#E6AB02" width="6.944" height="12.658"/>
				<rect x="61.667" y="128" fill="#1B9E77" width="6.944" height="0.192"/>
				<rect x="68.611" y="125.857" fill="#D95F02" width="6.944" height="2.143"/>
				<rect x="75.556" y="128" fill="#7570B3" width="6.944" height="3.021"/>
				<rect x="82.5" y="121.46" fill="#CCCCCC" width="6.944" height="6.54"/>
			</g>
			<g>
				<line fill="none" stroke="#000000" x1="32.5" y1="128" x2="90.833" y2="128"/>
			</g>
			<g>
				<text transform="matrix(1 0 0 1 38.3131 66.5)" display="none" font-family="'Arial-BoldMT'" font-size="12px">Kalispell</text>
			</g>
			<g>
				<text transform="matrix(1 0 0 1 35.9635 83.5)" display="none" font-family="'Arial-ItalicMT'" font-size="12px">+14k jobs</text>
			</g>
			<g transform="translate(5,0)">
				<g transform="translate(0,58)">
					<text transform="matrix(1 0 0 1 17.9385 73.7)" display="none" font-family="'ArialMT'" font-size="10px">0</text>
				</g>
				<g transform="translate(0,38.833333333333336)">
					<text transform="matrix(1 0 0 1 12.9385 73.7)" display="none" font-family="'ArialMT'" font-size="10px">5k</text>
				</g>
				<g transform="translate(0,19.66666666666667)">
					<text transform="matrix(1 0 0 1 7.3769 73.7)" display="none" font-family="'ArialMT'" font-size="10px">10k</text>
				</g>
				<g transform="translate(0,0.5)">
					<text transform="matrix(1 0 0 1 7.3769 73.7)" display="none" font-family="'ArialMT'" font-size="10px">15k</text>
				</g>
			</g>
		</g>
		<g transform="translate(196.66666666666666,97.5)">
			<rect x="5" y="53" fill="none" stroke="#86BF86" width="93.333" height="92.5"/>
			<g>
				<g transform="translate(0,58)">
					<line fill="none" stroke="#BBBBBB" stroke-dasharray="2" x1="32.5" y1="70.5" x2="90.833" y2="70.5"/>
				</g>
				<g transform="translate(0,38.833333333333336)">
					<line fill="none" stroke="#BBBBBB" stroke-dasharray="2" x1="32.5" y1="70.5" x2="90.833" y2="70.5"/>
				</g>
				<g transform="translate(0,19.66666666666667)">
					<line fill="none" stroke="#BBBBBB" stroke-dasharray="2" x1="32.5" y1="70.5" x2="90.833" y2="70.5"/>
				</g>
				<g transform="translate(0,0.5)">
					<line fill="none" stroke="#BBBBBB" stroke-dasharray="2" x1="32.5" y1="70.5" x2="90.833" y2="70.5"/>
				</g>
			</g>
			<g>
				<rect x="33.889" y="111.9" fill="#66A61E" width="6.944" height="16.1"/>
				<rect x="40.833" y="124.772" fill="#E7298A" width="6.944" height="3.228"/>
				<rect x="47.778" y="120.536" fill="#A6761D" width="6.944" height="7.464"/>
				<rect x="54.722" y="121.87" fill="#E6AB02" width="6.944" height="6.13"/>
				<rect x="61.667" y="126.271" fill="#1B9E77" width="6.944" height="1.729"/>
				<rect x="68.611" y="127.482" fill="#D95F02" width="6.944" height="0.518"/>
				<rect x="75.556" y="127.578" fill="#7570B3" width="6.944" height="0.422"/>
				<polygon fill="#CCCCCC" points="82.5,128 89.444,128 89.444,128 				"/>
			</g>
			<g>
				<line fill="none" stroke="#000000" x1="32.5" y1="128" x2="90.833" y2="128"/>
			</g>
			<g>
				<text transform="matrix(1 0 0 1 44.3151 66.5)" display="none" font-family="'Arial-BoldMT'" font-size="12px">Helena</text>
			</g>
			<g>
				<text transform="matrix(1 0 0 1 32.6296 83.5)" display="none" font-family="'Arial-ItalicMT'" font-size="12px">+9.3k jobs</text>
			</g>
			<g transform="translate(5,0)">
				<g transform="translate(0,58)">
					<text transform="matrix(1 0 0 1 17.9385 73.7)" display="none" font-family="'ArialMT'" font-size="10px">0</text>
				</g>
				<g transform="translate(0,38.833333333333336)">
					<text transform="matrix(1 0 0 1 12.9385 73.7)" display="none" font-family="'ArialMT'" font-size="10px">5k</text>
				</g>
				<g transform="translate(0,19.66666666666667)">
					<text transform="matrix(1 0 0 1 7.377 73.7)" display="none" font-family="'ArialMT'" font-size="10px">10k</text>
				</g>
				<g transform="translate(0,0.5)">
					<text transform="matrix(1 0 0 1 7.377 73.7)" display="none" font-family="'ArialMT'" font-size="10px">15k</text>
				</g>
			</g>
		</g>
	</g>
	<g>
		<g transform="translate(98.33333333333333,195)">
			<rect x="-44.167" y="91" fill="none" stroke="#86BF86" width="93.333" height="92.5"/>
			<g>
				<g transform="translate(0,58)">
					<line fill="none" stroke="#BBBBBB" stroke-dasharray="2" x1="-16.667" y1="108.5" x2="41.667" y2="108.5"/>
				</g>
				<g transform="translate(0,38.833333333333336)">
					<line fill="none" stroke="#BBBBBB" stroke-dasharray="2" x1="-16.667" y1="108.5" x2="41.667" y2="108.5"/>
				</g>
				<g transform="translate(0,19.66666666666667)">
					<line fill="none" stroke="#BBBBBB" stroke-dasharray="2" x1="-16.667" y1="108.5" x2="41.667" y2="108.5"/>
				</g>
				<g transform="translate(0,0.5)">
					<line fill="none" stroke="#BBBBBB" stroke-dasharray="2" x1="-16.667" y1="108.5" x2="41.667" y2="108.5"/>
				</g>
			</g>
			<g>
				<rect x="-15.278" y="161.511" fill="#66A61E" width="6.944" height="4.489"/>
				<rect x="-8.333" y="166" fill="#E7298A" width="6.944" height="1.79"/>
				<rect x="-1.389" y="166" fill="#A6761D" width="6.944" height="0.479"/>
				<rect x="5.556" y="160.745" fill="#E6AB02" width="6.944" height="5.256"/>
				<rect x="12.5" y="164.689" fill="#1B9E77" width="6.944" height="1.311"/>
				<rect x="19.444" y="165.03" fill="#D95F02" width="6.944" height="0.97"/>
				<rect x="26.389" y="165.115" fill="#7570B3" width="6.944" height="0.886"/>
				<rect x="33.333" y="166" fill="#CCCCCC" width="6.944" height="1.058"/>
			</g>
			<g>
				<line fill="none" stroke="#000000" x1="-16.667" y1="166" x2="41.667" y2="166"/>
			</g>
			<g>
				<text transform="matrix(1 0 0 1 -18.3472 103.5)" display="none" font-family="'Arial-BoldMT'" font-size="12px">Great Falls</text>
			</g>
			<g>
				<text transform="matrix(1 0 0 1 -15.0278 120.5)" display="none" font-family="'Arial-ItalicMT'" font-size="12px">+2.5k jobs</text>
			</g>
			<g transform="translate(5,0)">
				<g transform="translate(0,58)">
					<text transform="matrix(1 0 0 1 -31.2282 111.7)" display="none" font-family="'ArialMT'" font-size="10px">0</text>
				</g>
				<g transform="translate(0,38.833333333333336)">
					<text transform="matrix(1 0 0 1 -36.2282 111.7)" display="none" font-family="'ArialMT'" font-size="10px">5k</text>
				</g>
				<g transform="translate(0,19.66666666666667)">
					<text transform="matrix(1 0 0 1 -41.7897 111.7)" display="none" font-family="'ArialMT'" font-size="10px">10k</text>
				</g>
				<g transform="translate(0,0.5)">
					<text transform="matrix(1 0 0 1 -41.7897 111.7)" display="none" font-family="'ArialMT'" font-size="10px">15k</text>
				</g>
			</g>
		</g>
		<g transform="translate(196.66666666666666,195)">
			<rect x="-44.167" y="91" fill="none" stroke="#86BF86" width="93.333" height="92.5"/>
			<g>
				<g transform="translate(0,58)">
					<line fill="none" stroke="#BBBBBB" stroke-dasharray="2" x1="-16.667" y1="108.5" x2="41.667" y2="108.5"/>
				</g>
				<g transform="translate(0,38.833333333333336)">
					<line fill="none" stroke="#BBBBBB" stroke-dasharray="2" x1="-16.667" y1="108.5" x2="41.667" y2="108.5"/>
				</g>
				<g transform="translate(0,19.66666666666667)">
					<line fill="none" stroke="#BBBBBB" stroke-dasharray="2" x1="-16.667" y1="108.5" x2="41.667" y2="108.5"/>
				</g>
				<g transform="translate(0,0.5)">
					<line fill="none" stroke="#BBBBBB" stroke-dasharray="2" x1="-16.667" y1="108.5" x2="41.667" y2="108.5"/>
				</g>
			</g>
			<g>
				<rect x="-15.278" y="162.469" fill="#66A61E" width="6.944" height="3.53"/>
				<rect x="-8.333" y="166" fill="#E7298A" width="6.944" height="2.718"/>
				<rect x="-1.389" y="166" fill="#A6761D" width="6.944" height="0.207"/>
				<rect x="5.556" y="160.495" fill="#E6AB02" width="6.944" height="5.505"/>
				<rect x="12.5" y="164.072" fill="#1B9E77" width="6.944" height="1.928"/>
				<rect x="19.444" y="165.686" fill="#D95F02" width="6.944" height="0.314"/>
				<rect x="26.389" y="165.291" fill="#7570B3" width="6.944" height="0.709"/>
				<rect x="33.333" y="163.447" fill="#CCCCCC" width="6.944" height="2.553"/>
			</g>
			<g>
				<line fill="none" stroke="#000000" x1="-16.667" y1="166" x2="41.667" y2="166"/>
			</g>
			<g>
				<text transform="matrix(1 0 0 1 -5.8311 103.5)" display="none" font-family="'Arial-BoldMT'" font-size="12px">Butte</text>
			</g>
			<g>
				<text transform="matrix(1 0 0 1 -15.0186 120.5)" display="none" font-family="'Arial-ItalicMT'" font-size="12px">+3.0k jobs</text>
			</g>
			<g transform="translate(5,0)">
				<g transform="translate(0,58)">
					<text transform="matrix(1 0 0 1 -31.2282 111.7)" display="none" font-family="'ArialMT'" font-size="10px">0</text>
				</g>
				<g transform="translate(0,38.833333333333336)">
					<text transform="matrix(1 0 0 1 -36.2282 111.7)" display="none" font-family="'ArialMT'" font-size="10px">5k</text>
				</g>
				<g transform="translate(0,19.66666666666667)">
					<text transform="matrix(1 0 0 1 -41.7897 111.7)" display="none" font-family="'ArialMT'" font-size="10px">10k</text>
				</g>
				<g transform="translate(0,0.5)">
					<text transform="matrix(1 0 0 1 -41.7897 111.7)" display="none" font-family="'ArialMT'" font-size="10px">15k</text>
				</g>
			</g>
		</g>
		<g transform="translate(98.33333333333333,292.5)">
			<rect x="-44.167" y="91" fill="none" stroke="#E5AE89" width="93.333" height="92.5"/>
			<g>
				<g transform="translate(0,58)">
					<line fill="none" stroke="#BBBBBB" stroke-dasharray="2" x1="-16.667" y1="108.5" x2="41.667" y2="108.5"/>
				</g>
				<g transform="translate(0,38.833333333333336)">
					<line fill="none" stroke="#BBBBBB" stroke-dasharray="2" x1="-16.667" y1="108.5" x2="41.667" y2="108.5"/>
				</g>
				<g transform="translate(0,19.66666666666667)">
					<line fill="none" stroke="#BBBBBB" stroke-dasharray="2" x1="-16.667" y1="108.5" x2="41.667" y2="108.5"/>
				</g>
				<g transform="translate(0,0.5)">
					<line fill="none" stroke="#BBBBBB" stroke-dasharray="2" x1="-16.667" y1="108.5" x2="41.667" y2="108.5"/>
				</g>
			</g>
			<g>
				<rect x="-15.278" y="152.944" fill="#66A61E" width="6.944" height="13.056"/>
				<rect x="-8.333" y="161.4" fill="#E7298A" width="6.944" height="4.6"/>
				<rect x="-1.389" y="165.64" fill="#A6761D" width="6.944" height="0.36"/>
				<rect x="5.556" y="157.831" fill="#E6AB02" width="6.944" height="8.169"/>
				<rect x="12.5" y="166" fill="#1B9E77" width="6.944" height="0.571"/>
				<rect x="19.444" y="166" fill="#D95F02" width="6.944" height="1.066"/>
				<rect x="26.389" y="166" fill="#7570B3" width="6.944" height="4.079"/>
				<rect x="33.333" y="159.786" fill="#CCCCCC" width="6.944" height="6.214"/>
			</g>
			<g>
				<line fill="none" stroke="#000000" x1="-16.667" y1="166" x2="41.667" y2="166"/>
			</g>
			<g>
				<text transform="matrix(1 0 0 1 -17.3306 103.5)" display="none" font-family="'Arial-BoldMT'" font-size="12px">Mountains</text>
			</g>
			<g>
				<text transform="matrix(1 0 0 1 -15.0278 120.5)" display="none" font-family="'Arial-ItalicMT'" font-size="12px">+7.0k jobs</text>
			</g>
			<g transform="translate(5,0)">
				<g transform="translate(0,58)">
					<text transform="matrix(1 0 0 1 -31.2282 111.7)" display="none" font-family="'ArialMT'" font-size="10px">0</text>
				</g>
				<g transform="translate(0,38.833333333333336)">
					<text transform="matrix(1 0 0 1 -36.2282 111.7)" display="none" font-family="'ArialMT'" font-size="10px">5k</text>
				</g>
				<g transform="translate(0,19.66666666666667)">
					<text transform="matrix(1 0 0 1 -41.7897 111.7)" display="none" font-family="'ArialMT'" font-size="10px">10k</text>
				</g>
				<g transform="translate(0,0.5)">
					<text transform="matrix(1 0 0 1 -41.7897 111.7)" display="none" font-family="'ArialMT'" font-size="10px">15k</text>
				</g>
			</g>
		</g>
		<g transform="translate(196.66666666666666,292.5)">
			<rect x="-44.167" y="91" fill="none" stroke="#F2DF91" width="93.333" height="92.5"/>
			<g>
				<g transform="translate(0,58)">
					<line fill="none" stroke="#BBBBBB" stroke-dasharray="2" x1="-16.667" y1="108.5" x2="41.667" y2="108.5"/>
				</g>
				<g transform="translate(0,38.833333333333336)">
					<line fill="none" stroke="#BBBBBB" stroke-dasharray="2" x1="-16.667" y1="108.5" x2="41.667" y2="108.5"/>
				</g>
				<g transform="translate(0,19.66666666666667)">
					<line fill="none" stroke="#BBBBBB" stroke-dasharray="2" x1="-16.667" y1="108.5" x2="41.667" y2="108.5"/>
				</g>
				<g transform="translate(0,0.5)">
					<line fill="none" stroke="#BBBBBB" stroke-dasharray="2" x1="-16.667" y1="108.5" x2="41.667" y2="108.5"/>
				</g>
			</g>
			<g>
				<rect x="-15.278" y="156.727" fill="#66A61E" width="6.944" height="9.273"/>
				<rect x="-8.333" y="158.805" fill="#E7298A" width="6.944" height="7.195"/>
				<rect x="-1.389" y="166" fill="#A6761D" width="6.944" height="6.114"/>
				<rect x="5.556" y="166" fill="#E6AB02" width="6.944" height="2.932"/>
				<rect x="12.5" y="163.332" fill="#1B9E77" width="6.944" height="2.668"/>
				<rect x="19.444" y="164.428" fill="#D95F02" width="6.944" height="1.572"/>
				<rect x="26.389" y="166" fill="#7570B3" width="6.944" height="0.793"/>
				<rect x="33.333" y="145.603" fill="#CCCCCC" width="6.944" height="20.397"/>
			</g>
			<g>
				<line fill="none" stroke="#000000" x1="-16.667" y1="166" x2="41.667" y2="166"/>
			</g>
			<g>
				<text transform="matrix(1 0 0 1 -5.1748 103.5)" display="none" font-family="'Arial-BoldMT'" font-size="12px">Plains</text>
			</g>
			<g>
				<text transform="matrix(1 0 0 1 -15.0186 120.5)" display="none" font-family="'Arial-ItalicMT'" font-size="12px">+8.2k jobs</text>
			</g>
			<g transform="translate(5,0)">
				<g transform="translate(0,58)">
					<text transform="matrix(1 0 0 1 -31.2282 111.7)" display="none" font-family="'ArialMT'" font-size="10px">0</text>
				</g>
				<g transform="translate(0,38.833333333333336)">
					<text transform="matrix(1 0 0 1 -36.2282 111.7)" display="none" font-family="'ArialMT'" font-size="10px">5k</text>
				</g>
				<g transform="translate(0,19.66666666666667)">
					<text transform="matrix(1 0 0 1 -41.7897 111.7)" display="none" font-family="'ArialMT'" font-size="10px">10k</text>
				</g>
				<g transform="translate(0,0.5)">
					<text transform="matrix(1 0 0 1 -41.7897 111.7)" display="none" font-family="'ArialMT'" font-size="10px">15k</text>
				</g>
			</g>
		</g>
	</g>
</g>
<style type="text/css">
#g-mt-economy-3-regional-change-mobile-img rect, #g-mt-economy-3-regional-change-mobile-img circle, #g-mt-economy-3-regional-change-mobile-img path, #g-mt-economy-3-regional-change-mobile-img line, #g-mt-economy-3-regional-change-mobile-img polyline { vector-effect: non-scaling-stroke; }
</style>
</svg>

