<?xml version="1.0" encoding="utf-8"?>
<!-- Generator: Adobe Illustrator 22.1.0, SVG Export Plug-In . SVG Version: 6.00 Build 0)  -->
<svg version="1.2" baseProfile="tiny" id="g-mt-economy-2-regions-mobile-img" xmlns="http://www.w3.org/2000/svg" xmlns:xlink="http://www.w3.org/1999/xlink"
	 x="0px" y="0px" viewBox="0 0 300 344" xml:space="preserve">
<g>
	<rect x="205.792" y="239" fill="#F2DF91" width="86" height="16.5"/>
	<rect x="8.159" y="239" fill="#E5AE89" width="86" height="16.5"/>
	<rect x="99.612" y="239" fill="#86BF86" width="99" height="16.5"/>
	<rect x="205.792" y="239" fill="none" stroke="#F2DF91" width="86" height="94"/>
	<rect x="8.159" y="239" fill="none" stroke="#E5AE89" width="86" height="94"/>
	<g transform="translate(40,10)">
		<g>
			<path fill="#F2DF91" stroke="#FFFFFF" stroke-width="0.5" d="M136.75,149.132l-0.207,1.618h0.828v0.836h1.272v1.726h1.094
				l-0.769,0.89l-0.355,2.474v3.829l12.335-0.083l-0.799,0.499l-1.065,2.989l-0.592,0.166l-0.651,1.824v0.939h-17.097l-0.414-0.193
				l-11.211,0.11h-3.047v-4.783h2.278v-2.743h1.627l0.947-2.97l1.686-1.696h0.858l0.414-0.835l1.272-0.417l3.372-0.028v-1.699h1.302
				v-1.868l1.242,0.112l1.952-0.976l0.769,0.363l1.893-0.195L136.75,149.132z"/>
			<path fill="#F2DF91" stroke="#FFFFFF" stroke-width="0.5" d="M214.871,151.502l-0.118,5.091h-1.035v10.218h-9.998h-7.957
				l-0.296,0.193l-6.892-0.055v-5.336h-0.325v-5.02h0.887l0.059-10.589l-0.03-2.21h11.891l13.814,0.056V151.502z"/>
			<path fill="#E5AE89" stroke="#FFFFFF" stroke-width="0.5" d="M74.928,143.514l1.716,0.756v0.867h1.272l0.414,0.839l2.13,2.123
				h3.786l0.03,8.521h-0.473v12.755l-0.089,4.652l-0.769,1.154l-1.242,0.055h-6.271v-2.061l-5.827-0.083v-1.238h-2.1v-2.506H67.03
				v-2.538h-2.958l0.03-2.542h-2.544v-7.621l-0.148-1.278l-0.828-1.446l-1.479,0.389l-1.035-0.306l-1.242-1.085l-0.355-1.643
				l0.385-1.087v-1.59l2.81-1.759l0.532-0.699l0.237-1.23l1.035,0.224l5.561-0.168l1.094-0.699l0.532-1.932l1.864-0.617l0.769,0.364
				l1.154-0.196l0.444,0.757l1.242,0.196L74.928,143.514z"/>
			<path fill="#E5AE89" stroke="#FFFFFF" stroke-width="0.5" d="M56.855,148.602v1.59l-0.385,1.087l0.355,1.643l1.242,1.085
				l1.035,0.306l1.479-0.389l0.828,1.446l0.148,1.278v7.621h2.544l-0.03,2.542h2.958v2.538h0.473v2.506h2.1v1.238l5.827,0.083v2.061
				h6.271l0.148,0.879l-1.183,2.14l0.532,1.809l-0.947-0.438l-1.39,0.247l-1.864-0.329l-0.207,0.466l-1.775,0.493l-0.414,0.493
				l-0.858-1.205L72,179.653l-0.562,0.575l-1.183-0.301l-1.302,0.685l-1.39-0.548l-1.154-0.055l-0.177-0.603l-1.154-0.11
				l-0.68,0.849l-0.739,0.082l-0.03,1.259l-0.592,1.258l-1.006-0.164l-0.799-0.738l-0.562,0.492l-1.006-0.629l-2.278-0.027
				l-1.213-0.547l-1.331,0.739l-1.124,1.586l0.562,1.038l-0.651,0.847l-0.858-1.065l-1.568-0.82l-0.799-0.765l-0.532-1.313
				l0.414-0.876l-0.828-0.63l0.148-0.548l-0.976-0.932l0.621-0.548l-0.207-1.729l-0.71-0.796v-0.659l-1.864-2.089l-1.656-0.358
				l-1.361,0.853l-0.325-1.018l-1.361-0.661l-0.68-0.661l-0.887-2.232l1.124-0.496l-0.148-2.899l-0.68-0.111l-1.893-1.963
				l-0.325-1.578l-0.917-0.776l-1.124-1.525l0.266-0.333l-1.213-1.582l0.089-1.834l-0.828-0.389l-0.207-1.446l0.503-0.724
				l-0.266-1.003l-1.242-0.167l0.562-2.398l-2.337-1.647l-0.355-1.09l0.71-0.783l-0.266-0.699l0.917-1.063l0.444,0.839l0.917-0.28
				l0.562-0.868l1.627-1.512l1.538,0.084l0.887-0.953l0.947-0.14l-0.03-1.038l0.385-0.758l0.444,0.084l1.094,2.356l0.118,1.457
				l1.035,1.316l1.006-1.512l1.242-0.14l0.976-1.457l1.006-0.533l1.627,0.112l0.266,0.617l1.745,1.541l1.39,0.168l0.68,0.672
				l1.568,0.168l1.361,0.839l0.444,1.761l0.651,0.251L56.855,148.602z"/>
			<path fill="#F2DF91" stroke="#FFFFFF" stroke-width="0.5" d="M147.843,166.839V165.9l0.651-1.824l0.592-0.166l1.065-2.989
				l0.799-0.499l-12.335,0.083v-3.829l0.355-2.474l0.769-0.89h4.112l2.633,0.111v-0.863h2.514v-0.836h2.544v-7.791h0.444l0.03-3.39
				h3.372v-0.87l0.858,0.028v-0.87h0.858v-0.843h2.544v-1.715h3.343h1.775v2.557h5.088v1.291h2.573v1.262h2.307v1.149h1.272v1.26
				h-0.74v3.076l3.757,0.335v9.387l-0.799-0.028v5.048l7.572,0.055l2.455-0.055h0.325v5.336l-4.762,0.028l-12.069-0.055
				l-0.887-0.083l-9.673-0.028L147.843,166.839z"/>
			<path fill="#F2DF91" stroke="#FFFFFF" stroke-width="0.5" d="M135.685,149.021l-1.893,0.195l-0.769-0.363l-1.952,0.976
				l-1.242-0.112v1.868h-1.302v1.699l-3.372,0.028l-1.272,0.417l-0.414,0.835h-0.858l-1.686,1.696l-0.947,2.97h-1.627v2.743h-2.278
				v-0.138h-5.443v-5.158h2.721v-5.063h2.514v-1.282h2.544v-1.255h2.514l-0.03-5.142h0.355l-0.03-2.549h0.858v-2.609l1.716-0.028
				l0.118-2.557v-2.449v-0.085h5.117h4.526h0.444v2.533l0.059,2.585h0.414l-0.059,8.151l0.414,0.838l0.858,0.419V149.021z"/>
			<path fill="#E5AE89" stroke="#FFFFFF" stroke-width="0.5" d="M116.074,161.973v4.783l-6.301-0.028l-1.568,0.193l-4.585-0.083
				l-0.799,0.166l-5.324,0.055l-1.745-0.248h-5.236l-0.03-5.115h0.177v-5.103l2.455,0.028l-0.03-5.091h1.272v-1.924h1.302
				l-0.03-5.756l0.148-5.103l-0.059-5.372l0.148-1.494h7.691l2.603,0.226l-0.207,1.494v10.305h1.479l0.059,5.951l-0.03,6.819h-0.177
				v5.158h3.343h5.443V161.973z"/>
			<path fill="#86BF86" stroke="#FFFFFF" stroke-width="0.5" d="M83.713,174.028l0.089-4.652v-12.755h0.473l-0.03-8.521h-3.786
				l-2.13-2.123l-0.414-0.839h-1.272v-0.867l-1.716-0.756l2.1,0.028l0.887-1.064l1.479-2.159l0.887-0.112L81.791,139l0.148-1.151
				l0.917-0.169l-0.089-1.94l0.947-1.548l0.562-0.253l0.059-1.916h3.845l2.011-0.254l5.679,0.113l-0.148,1.494l0.059,5.372
				l-0.148,5.103l0.03,5.756h-1.302v1.924H93.09l0.03,5.091l-2.455-0.028v5.103h-0.177l0.03,5.115l-0.177-0.028l0.03,15.087
				l-1.597-0.602l-1.035-1.999l-1.035-0.466l0.237-1.069l-2.426-3.184L83.713,174.028z"/>
			<path fill="#F2DF91" stroke="#FFFFFF" stroke-width="0.5" d="M123.912,136.19l-0.118,2.557l-1.716,0.028v2.609h-0.858l0.03,2.549
				h-0.355l0.03,5.142h-2.514v1.255h-2.544v1.282h-2.514v5.063h-2.721v5.158h-3.343v-5.158h0.177l0.03-6.819l-0.059-5.951h-1.479
				v-10.305l0.207-1.494v-1.072l4.851,0.028h8.046v2.593h1.006v2.589L123.912,136.19z"/>
			<path fill="#86BF86" stroke="#FFFFFF" stroke-width="0.5" d="M67.03,144.969l-5.561,0.168l-1.035-0.224l-0.237,1.23l-0.532,0.699
				l-2.81,1.759l-0.355-1.536l-0.651-0.251l-0.444-1.761l-1.361-0.839l-1.568-0.168l-0.68-0.672l-1.39-0.168l-1.745-1.541
				l1.272-0.308l2.041-1.908l-0.296-1.685l1.154-0.14l0.621-1.49h1.538v-2.59h1.982l0.828-1.127l1.302-0.141l1.242,0.395
				l-0.059,0.845l1.094,1.295l-0.207,1.238l0.71,0.647l0.207,2.949l0.562,1.234l-0.532,0.981l0.592,0.673l3.816,1.932L67.03,144.969
				z"/>
			<path fill="#F2DF91" stroke="#FFFFFF" stroke-width="0.5" d="M214.871,151.502v-7.652h0.858v-10.334l8.697,0.028v2.393h2.573
				l-0.03,2.501l3.845,0.084l1.42-0.028v2.554h1.864l0.059,12.347l0.03,13.498l-12.749-0.028l-7.72-0.055v-10.218h1.035
				L214.871,151.502z"/>
			<path fill="#86BF86" stroke="#FFFFFF" stroke-width="0.5" d="M48.661,141.665l-0.266-0.617l-1.627-0.112l-1.006,0.533
				l-0.976,1.457l-1.242,0.14l-1.006,1.512l-1.035-1.316l-0.118-1.457l-1.094-2.356l-0.444-0.084l-0.03-0.028h0.769l0.799-1.236
				l0.858-0.562l1.479-0.45l1.006-0.872l0.089-2.674l-0.207-2.565l5.058-0.028v-1.27l9.821,0.028l-0.739,1.101l0.355,1.467
				l-1.302,0.141l-0.828,1.127h-1.982v2.59h-1.538l-0.621,1.49l-1.154,0.14l0.296,1.685l-2.041,1.908L48.661,141.665z"/>
			<path fill="#F2DF91" stroke="#FFFFFF" stroke-width="0.5" d="M174.731,141.385h-2.307v-1.262h-2.573v-1.291h-5.088v-2.557h-1.775
				l0.177-1.069l0.621-0.788l0.178-0.986l-1.331-2.425v-0.847l-0.858-0.423v-0.876l-0.858-0.424v-1.272l-0.858-0.453v-0.849
				l-0.858-0.425l-0.858-2.153l11.566-0.028l0.414,0.425v2.152h2.573v2.658l0.444,0.028l0.03,4.994h1.361V141.385z"/>
			<path fill="#86BF86" stroke="#FFFFFF" stroke-width="0.5" d="M139.738,153.312h-1.094v-1.726h-1.272v-0.836h-0.828l0.207-1.618
				l-1.065-0.112v-0.837l-0.858-0.419l-0.414-0.838l0.059-8.151h-0.414l-0.059-2.585v-2.533h-0.444h-4.526h-5.117v0.085v-0.085
				h5.117h4.526h0.444h2.958l7.72-0.028v-3.045l1.716-0.819l5.975-0.028v-1.299l1.627-1.725l0.444-0.849h2.988l0.03-3.003
				l0.887,0.425l0.858,2.153l0.858,0.425v0.849l0.858,0.453v1.272l0.858,0.424v0.876l0.858,0.423v0.847l1.331,2.425l-0.178,0.986
				l-0.621,0.788l-0.177,1.069h-3.343v1.715h-2.544v0.843h-0.858v0.87l-0.858-0.028v0.87h-3.372l-0.03,3.39h-0.444v7.791h-2.544
				v0.836h-2.514v0.863l-2.633-0.111H139.738z"/>
			<path fill="#E5AE89" stroke="#FFFFFF" stroke-width="0.5" d="M74.928,143.514l-0.799-0.672l-1.242-0.196l-0.444-0.757
				l-1.154,0.196l-0.769-0.364l-1.864,0.617l-0.532,1.932l-1.094,0.699l-0.503-0.504l-3.816-1.932l-0.592-0.673l0.532-0.981
				l-0.562-1.234l-0.207-2.949l-0.71-0.647l0.207-1.238l-1.094-1.295l0.059-0.845l-1.242-0.395l-0.355-1.467l0.739-1.101
				l-0.296-0.932l0.858-1.102l1.627-0.481l0.976-1.075l1.124,0.028l0.799-1.076l0.828,0.198l1.923-1.246l-0.562-0.68l0.414-0.652
				l1.065-0.567l0.976,0.113l1.035-0.794l0.089-0.766h4.94l0.03,12.868l0.059,2.561h2.544v6.372l-0.887,1.064L74.928,143.514z"/>
			<path fill="#F2DF91" stroke="#FFFFFF" stroke-width="0.5" d="M123.912,133.742v2.449l-3.845,0.056v-2.589h-1.006v-2.593h5.147
				l-0.03-8.061h0.325l-0.03-6.05v-1.708h7.78v3.87l0.444,1.307l1.716,0.028v2.582h0.503l0.414,1.134l-0.03,2.605l0.621,0.424v0.876
				l1.065,1.271l-0.03,4.315h-2.958h-0.444h-4.526h-5.117V133.742z"/>
			<path fill="#F2DF91" stroke="#FFFFFF" stroke-width="0.5" d="M119.061,131.064h-8.046l-4.851-0.028l0.03-8.004h0.177l-0.03-6.591
				l1.302,0.085l0.296-0.541l1.42,0.228l0.237-0.598l1.302-0.313l0.473,0.37l1.242-0.427l3.047,1.708h1.509h7.306l0.03,6.05h-0.325
				l0.03,8.061H119.061z"/>
			<path fill="#86BF86" stroke="#FFFFFF" stroke-width="0.5" d="M39.846,139.365l-0.385,0.758l0.03,1.038l-0.947,0.14l-0.887,0.953
				l-1.538-0.084l-1.627,1.512l-0.562,0.868l-0.917,0.28l-0.444-0.839l-0.917,1.063l0.266,0.699l-0.71,0.783l-1.035-0.307
				l-0.828,0.894l0.296,0.503l-2.159,2.177l-0.325,0.781l-1.213,0.613l-1.124-0.251l-0.414,1.755l-1.538,0.752l-0.503-0.974
				l-1.124-0.501l-0.325-0.808l-2.455-1.394l0.444-0.614l-0.532-0.921l1.302-0.922l-0.089-1.565l-0.887-0.615l-0.385-0.867
				l1.361-2.268l1.923-0.617l0.385-0.393l-0.887-1.543l0.385-1.235l-1.302-0.421l-0.118-1.124l0.444-1.885l-1.272-0.957l0.296-1.127
				l1.272-0.113l-0.089-2.031l-0.444-0.847l0.887-0.537l-0.118-0.65l0.473-1.781l-0.237-0.651l0.769-0.708l0.266-0.935l-0.651-1.672
				l1.242-0.567l-0.118-0.993l0.532-1.789l-0.207-1.478h10.353l0.503,0.938l-0.177,1.193l-1.272,2.413l0.503,1.786l-0.177,0.821
				l0.651,0.311l0.887,1.358l0.237,1.272l-0.266,1.102l0.739,0.565l-0.532,1.101l-0.947,0.48l0.592,1.128l-0.03,0.705l0.799,1.099
				l-1.006,2.251l0.976-0.197l1.39,0.253l0.503,1.602l1.124,0.899l1.864,0.309L39.846,139.365z"/>
			<path fill="#F2DF91" stroke="#FFFFFF" stroke-width="0.5" d="M157.456,122.861l-0.03,3.003h-2.988l-0.444,0.849l-1.627,1.725
				v1.299l-5.975,0.028l-1.716,0.819v3.045l-7.72,0.028l0.03-4.315l-1.065-1.271v-0.876l-0.621-0.424l0.03-2.605l-0.414-1.134
				h-0.503v-2.582l-1.716-0.028l-0.444-1.307v-3.87l7.78,0.057l5.147-0.028l2.426-0.114l8.904-0.057l0.562,1.908l-0.355,2.247
				l0.444,0.597l-0.03,3.008H157.456z"/>
			<path fill="#F2DF91" stroke="#FFFFFF" stroke-width="0.5" d="M234.098,141.048h-1.864v-2.554l-1.42,0.028l-3.845-0.084
				l0.03-2.501h-2.573v-2.393l-7.572-0.028v-5.22h-0.414v-5.038h3.55l-0.03-3.888v-1.308l2.603,0.028v-0.882h3.875l1.272,0.427
				l0.03,0.882h6.33v8.507l-0.03,10.291L234.098,141.048z"/>
			<path fill="#E5AE89" stroke="#FFFFFF" stroke-width="0.5" d="M90.191,131.769l-2.011,0.254h-3.845l-0.059,1.916l-0.562,0.253
				l-0.947,1.548l0.089,1.94l-0.917,0.169L81.791,139l-1.509,1.207l-0.887,0.112l-1.479,2.159v-6.372h-2.544l-0.059-2.561
				l-0.03-12.868l3.195-0.028l-0.148-0.369v-4.664l1.094-1.282l1.804,0.57l0.68,0.313l0.444,1.822l0.887,1.394l1.42,0.313
				l0.177,2.301l1.42,2.014l0.148,1.53l1.183,0.227l0.799-0.623l1.035,0.51l0.858,1.076l-1.242,2.404l-0.177,1.3l0.976,0.734
				L90.191,131.769z"/>
			<path fill="#F2DF91" stroke="#FFFFFF" stroke-width="0.5" d="M201.057,143.794h-11.891l0.03,2.21l-0.059,10.589h-0.887v5.02
				l-2.455,0.055l-7.572-0.055v-5.048l0.799,0.028v-9.387l-3.757-0.335v-3.076h0.74v-1.26h-1.272v-1.149v-7.869h-1.361l-0.03-4.994
				l-0.444-0.028v-2.658h-2.573v-2.152l-0.414-0.425l-11.566,0.028l-0.887-0.425h-0.325l0.03-3.008l-0.444-0.597l0.355-2.247
				l-0.562-1.908l-0.296-1.425l-1.035-1.426h8.697v-0.257h6.241h9.111v0.428l12.986-0.029l-0.71,0.428v10.409h-0.71l0.059,10.286
				h-0.799v10.278H201.057z"/>
			<path fill="#E5AE89" stroke="#FFFFFF" stroke-width="0.5" d="M49.667,129.681v1.27l-5.058,0.028l0.207,2.565l-0.089,2.674
				l-1.006,0.872l-1.479,0.45l-0.858,0.562l-0.799,1.236h-0.769l-1.864-0.309l-1.124-0.899l-0.503-1.602l-1.39-0.253l-0.976,0.197
				l1.006-2.251l-0.799-1.099l0.03-0.705l-0.592-1.128l0.947-0.48l0.532-1.101l-0.739-0.565l0.266-1.102l-0.237-1.272l-0.887-1.358
				l-0.651-0.311l0.177-0.821l-0.503-1.786l1.272-2.413l0.177-1.193l-0.503-0.938l3.283,0.057v-1.736h2.396l0.118-0.826h1.331
				v-1.739h1.302v-0.884h2.337l1.242,0.542l0.296,0.912l1.006,0.656l-0.059,0.826l1.361,0.598l1.568-0.655L49.667,129.681z"/>
			<path fill="#F2DF91" stroke="#FFFFFF" stroke-width="0.5" d="M214.871,143.85l-13.814-0.056h-11.004v-10.278h0.799l-0.059-10.286
				h0.71v-10.409l0.71-0.428v-0.428h5.206v0.856h4.407v2.594h0.858v2.619h1.716v1.706l0.887,0.028v0.852l4.289,0.028v0.852
				l5.236,0.028v-0.852h2.573v-1.307h2.573l0.03,3.888h-3.55v5.038h0.414v5.22l7.572,0.028v2.393h2.573l-0.03,2.501l3.845,0.084
				l-3.845-0.084l0.03-2.501h-2.573v-2.393l-8.697-0.028v10.334H214.871z"/>
			<path fill="#E5AE89" stroke="#FFFFFF" stroke-width="0.5" d="M106.164,132.107l-2.603-0.226h-7.691l-5.679-0.113l-0.355-1.552
				l-0.976-0.734l0.177-1.3l1.242-2.404l-0.858-1.076l-1.035-0.51l-0.799,0.623l-1.183-0.227l-0.148-1.53l-1.42-2.014l-0.177-2.301
				l-1.42-0.313l-0.887-1.394l-0.444-1.822l-0.68-0.313l0.059-0.827l-0.769-0.428l-1.449-0.171l-0.858-0.999l0.769-1.056
				l-1.035-1.057H80.4v-2.602l5.206-0.029v-0.315h2.603v-2.292h1.568l-0.059,2.321l1.804,0.172l1.716,0.744l1.124,1.03v0.715
				l1.982,0.771l0.089,1.428l2.189,0.742l0.592,1.568l1.183,0.028v0.969l2.248,1.765l1.627-0.398l0.828,0.626l1.242-1.167
				l0.03,6.591h-0.177l-0.03,8.004l4.851,0.028l-4.851-0.028V132.107z"/>
			<path fill="#F2DF91" stroke="#FFFFFF" stroke-width="0.5" d="M222.562,117.209v0.882l-2.603-0.028v1.308h-2.573v1.307h-2.573
				v0.852l-5.236-0.028v-0.852l-4.289-0.028v-0.852l-0.887-0.028v-1.706h-1.716v-2.619h-0.858v-2.594h-4.407v-0.856h-5.206v-9.649
				h2.603v2.669h2.603v-2.669h8.756h1.657v6.134h2.633v1.744h2.603l0.858,0.857v0.885l8.697,0.029L222.562,117.209z"/>
			<path fill="#F2DF91" stroke="#FFFFFF" stroke-width="0.5" d="M117.168,116.953h-1.509l-3.047-1.708l-1.242,0.427l-0.473-0.37
				l-1.302,0.313l-0.237,0.598l-1.42-0.228l-0.296,0.541l-1.302-0.085l-1.242,1.167l-0.828-0.626l-1.627,0.398l-2.248-1.765v-0.969
				l-1.183-0.028l-0.592-1.568l0.296-0.399v-2.599l-0.207-5.153l-2.573-0.029l0.089-4.163l-0.444-0.431v-1.784l0.444-1.555h2.633
				l-0.03-1.73h8.756v1.73h1.745v2.649l2.633-0.029v1.323h2.603l0.03,1.322l2.366-0.029v8.736l-0.858,0.857l-0.03,1.94l0.858,0.656
				L117.168,116.953z"/>
			<path fill="#F2DF91" stroke="#FFFFFF" stroke-width="0.5" d="M234.068,118.517h-6.33l-0.03-0.882l-1.272-0.427h-3.875
				l0.059-5.244h2.189l0.237-0.457l1.509-0.857l0.858-1.315l0.651-1.745l0.651-1.088l0.03-2.838l-0.237-1.321l-0.74-1.983
				l-0.71-1.294l-0.887-0.892l0.207-1.095h5.916v-1.297h1.775v10.949V118.517z"/>
			<path fill="#F2DF91" stroke="#FFFFFF" stroke-width="0.5" d="M156.51,115.102l-8.904,0.057l-2.426,0.114l-5.147,0.028v-2.623
				h0.414l0.03-7.866h-2.633l0.03-2.554h0.355v-2.644l2.633,0.029V98.52l5.206-0.029l0.444-0.23l0.03-8.14l0.651,0.116l4.437-0.55
				l1.538,0.289l1.213,0.608l0.237,1.475l0.473,0.434l-0.266,1.675v1.414l-0.976,1.297L153.7,99.47l0.68,2.731l-0.473,1.952
				l0.414,0.688l0.266,1.462l0.74,1.947l-0.444,0.343l-0.562,2.972l0.858,0.685l1.035,1.426L156.51,115.102z"/>
			<path fill="#E5AE89" stroke="#FFFFFF" stroke-width="0.5" d="M13.579,99.671l0.444,1.294h1.302v1.322l1.272,0.459v0.861
				l1.302,0.43l0.414,1.72l1.686-0.029l0.03,1.346l-0.887,0.429l-0.828,1.373v3.885h0.355v2.594h-2.573v0.313l-1.597,1.196
				l-0.74-0.512l0.473-1.339l-1.331-0.741l-0.74-0.941l-1.154-0.428l-0.296-2.056l-1.302-2.115l-0.976-0.057l-0.799-2.29
				l-0.385-0.086l-1.656-2.437l-1.154-0.631l-0.414-0.947l-0.799-0.345l0.059-0.977l-0.858-1.121l-3.845-1.093l-0.592-1.641
				l-2.041-1.412l-1.686-0.808l-0.148-0.462l2.189-0.548l0.207-0.606l1.302,0.26l1.183-0.693l1.213,0.838l0.976-0.549l1.213,0.433
				l1.213-0.491l2.573,1.184l0.739,0.837l0.68-0.202l0.828,0.519l1.361,0.375l0.266,0.692v1.872l1.272,0.432h1.331v0.892H13.579z"/>
			<path fill="#E5AE89" stroke="#FFFFFF" stroke-width="0.5" d="M59.487,129.709l-9.821-0.028l-0.03-13.981l-1.568,0.655
				l-1.361-0.598l0.059-0.826l-1.006-0.656l-0.296-0.912l-1.242-0.542v-10.448h-3.343l-0.03-12.744l2.899,0.145h3.727l0.532,0.752
				l0.089,2.428l1.124,0.058v9.361l5.384,0.057l0.03,10.391l5.324-0.086v4.047h2.544l0.03,1.309h1.834l0.562,1.507l-0.473,0.909
				l0.473,1.306l-0.266,0.624l-0.089,2.636l-0.799,1.076l-1.124-0.028l-0.976,1.075l-1.627,0.481l-0.858,1.102L59.487,129.709z"/>
			<path fill="#86BF86" stroke="#FFFFFF" stroke-width="0.5" d="M33.457,117.949H23.104l-0.532-0.256l-1.331,0.256l-0.887,0.853
				l-1.656-0.37l-1.331,0.171l-0.592-1.223l0.414-0.825l-1.094-0.883v-0.313h2.573v-2.594h-0.355v-3.885l0.828-1.373l0.887-0.429
				l-0.03-1.346l-1.686,0.029l-0.414-1.72l-1.302-0.43v-0.861l-1.272-0.459v-1.322h-1.302l-0.444-1.294l1.804,0.403l0.444-0.575
				l2.81,0.748l1.154,0.891l1.449,0.316l0.858,0.661l0.532,0.89l2.071,1.119l1.39-0.516h5.206v-1.321h2.278l0.03-2.616l-1.035-0.575
				l-0.355-2.044l0.355-1.124l-0.68-1.673l-0.799-0.982l0.68-1.04l-0.385-0.752l0.089-1.852h5.946h3.431l0.03,12.744h3.343v10.448
				h-2.337v0.884h-1.302v1.739h-1.331l-0.118,0.826H36.74v1.736L33.457,117.949z"/>
			<path fill="#86BF86" stroke="#FFFFFF" stroke-width="0.5" d="M98.622,113.049l-2.189-0.742l-0.089-1.428l-1.982-0.771v-0.715
				l-1.124-1.03l-1.716-0.744l-1.804-0.172l0.059-2.321h-1.568v2.292h-2.603v0.315l-5.206,0.029v2.602h-2.455h-2.692v-6.471h-1.745
				l-1.39-0.459l-0.799-1.235l-1.302-0.23l-0.059-9.797l2.573,0.347v-3.24h5.236v-2.637h5.295l8.874-0.029l-0.828,1.334l-0.68,1.738
				l0.947,0.781l3.047,1.446l1.775-0.029v2.426l2.633-0.029v0.923l0.03,1.73h-2.633l-0.444,1.555v1.784l0.444,0.431l-0.089,4.163
				l2.573,0.029l0.207,5.153v2.599L98.622,113.049z"/>
			<path fill="#F2DF91" stroke="#FFFFFF" stroke-width="0.5" d="M132.254,115.244h-7.78v1.708h-7.306l-0.237-2.592l-0.858-0.656
				l0.03-1.94l0.858-0.857v-8.736l-2.366,0.029l-0.03-1.322h-2.603v-1.323l-2.633,0.029v-2.649h-1.745v-1.73l1.065-0.029
				l2.899-1.876l1.035-0.26l2.544-1.85l-0.148-1.273l0.444-1.767l0.03-2.059l2.189,0.406l1.035-0.986l1.302,0.087l0.592-0.464
				l0.858,0.261l2.218,0.58l0.917-0.697l1.479-0.465l0.799-1.075l2.958,0.349l1.124-0.581l0.769,0.262l0.887-0.349l1.154,0.465
				l0.976,1.655l1.538,0.899l0.651,0.725l0.355,1.13l0.769-0.174l1.154,0.898l1.331-0.145l0.71,0.463l0.976-0.347l0.385,0.608
				l1.035-0.463l2.692,1.36l0.237-0.376l-0.03,8.14l-0.444,0.23l-5.206,0.029v1.122l-2.633-0.029v2.644h-0.355l-0.03,2.554h2.633
				l-0.03,7.866h-0.414v2.623L132.254,115.244z"/>
			<path fill="#F2DF91" stroke="#FFFFFF" stroke-width="0.5" d="M222.621,111.965l-8.697-0.029v-0.885l-0.858-0.857h-2.603v-1.744
				h-2.633v-6.134h-1.657l-0.03-10.546h0.887v-7.941h2.633v2.642h5.265v2.666h7.898v2.633h1.656v5.31h1.893l-0.207,1.095
				l0.887,0.892l0.71,1.294l0.74,1.983l0.237,1.321l-0.03,2.838l-0.651,1.088l-0.651,1.745l-0.858,1.315l-1.509,0.857l-0.237,0.457
				H222.621z"/>
			<path fill="#86BF86" stroke="#FFFFFF" stroke-width="0.5" d="M75.283,120.677h-4.94l-0.089,0.766l-1.035,0.794l-0.976-0.113
				l-1.065,0.567l-0.414,0.652l0.562,0.68l-1.923,1.246l-0.828-0.198l0.089-2.636l0.266-0.624l-0.473-1.306l0.473-0.909
				l-0.562-1.507h-1.834l-0.03-1.309H59.96v-4.047l-5.324,0.086l-0.03-10.391l-5.384-0.057v-9.361l-1.124-0.058l-0.089-2.428
				l-0.532-0.752l0.325-1.999l-0.769-1.798l0.562-0.784l1.183-0.145l0.385-1.133l-0.148-1.279l0.118-1.716l-0.473-0.99l1.331-0.291
				l0.74-0.816l0.237,1.282l1.213,2.415L51.944,84.7l0.503,0.9l-0.266,1.073l0.799,1.478l1.213,1.245l0.74,0.261l1.686-0.695
				l1.065,0.029l1.361-0.377l0.532-0.579l0.799,0.898l1.686,0.521l1.242,1.794l1.124,0.145l0.799,1.098l1.509,0.116l1.213-0.462
				l0.503,0.289l1.509-0.26l0.059,9.797l1.302,0.23l0.799,1.235l1.39,0.459h1.745v6.471h2.692l1.035,1.057l-0.769,1.056l0.858,0.999
				l1.449,0.171l0.769,0.428l-0.059,0.827l-1.804-0.57l-1.094,1.282v4.664l0.148,0.369L75.283,120.677z"/>
			<path fill="#F2DF91" stroke="#FFFFFF" stroke-width="0.5" d="M192.213,112.393l-12.986,0.029v-0.428h-9.111h-6.241v0.257h-8.697
				l-0.858-0.685l0.562-2.972l0.444-0.343l-0.74-1.947l-0.266-1.462l-0.414-0.688l0.473-1.952l-0.68-2.731l0.148-2.591l0.976-1.297
				v-1.414l0.947-0.173l-0.03-1.733l0.976-1.012l1.745-0.752l0.769-1.766h0.976l1.094-0.608l1.509,0.203l0.414,0.579l1.006,0.058
				l0.651-1.217l0.089-0.899l2.692,0.319l0.71,0.58l2.781-0.232l2.1,0.203l2.662-0.464l0.414-1.799l1.538-0.174l1.065,0.261
				l0.444-1.161l1.035,0.029l0.325-0.668l1.538-0.61l0.592-1.745l0.651-0.64l0.444-1.252l-0.266-0.787l1.42-0.671l0.296,0.671
				l1.242,0.029v2.708h1.982v10.354h-0.769v5.282h2.633v5.235h1.716v9.649V112.393z"/>
			<path fill="#E5AE89" stroke="#FFFFFF" stroke-width="0.5" d="M37.42,89.629h-5.946l-0.089,1.852l0.385,0.752l-0.68,1.04
				l0.799,0.982l0.68,1.673l-0.355,1.124l0.355,2.044l1.035,0.575l-0.03,2.616h-2.278v1.321h-5.206l-0.325-1.321v-5.236
				l-1.745-0.029l-1.331-1.009l0.207-1.5l0.917-1.704l-1.124-0.029l-0.207-1.358l0.592-0.347l-0.325-1.505h-4.792l-0.03-4.406
				l-0.385-1.22l2.603-0.116V81.24H19.82v-2.65l9.318-0.029l-0.828-1.867l1.006-0.876h2.988l1.035,2.305l0.621-0.087l1.154,0.816
				l0.592,1.107l0.947,0.612l0.089,2.386l-0.296,0.407l0.71,1.394l0.148,1.219l0.74-0.058l0.118,1.189l-0.503,0.725L37.42,89.629z"
				/>
			<path fill="#F2DF91" stroke="#FFFFFF" stroke-width="0.5" d="M206.174,102.315h-8.756v2.669h-2.603v-2.669h-2.603h-1.716V97.08
				h-2.633v-5.282h0.769V81.444h-1.982v-2.708l-1.242-0.029l-0.148-1.75l0.68-1.518l0.947,0.642l1.479-0.088l0.917,0.613
				l2.011-0.175l-0.237,0.788l1.982-0.146l0.858-0.671l0.621,0.525l1.242,0.35l0.651-0.613l0.769,0.438l0.473-0.35l2.071-0.321
				l1.213-0.409l0.976-0.876l0.887-0.292l0.71,0.526l0.769-0.964l0.917,0.263l2.573-0.058l0.503,0.321l1.509-0.263l0.71,0.701v6.064
				h-0.799l-0.03,2.384h-2.633v7.941h-0.887L206.174,102.315z"/>
			<path fill="#F2DF91" stroke="#FFFFFF" stroke-width="0.5" d="M83.062,86.644h-5.295v2.637h-5.236v3.24l-2.573-0.347l-1.509,0.26
				l-0.503-0.289l-1.213,0.462l-1.509-0.116l-0.799-1.098l-1.124-0.145l-1.242-1.794l-1.686-0.521l-0.799-0.898l-0.532,0.579
				l-1.361,0.377l-1.065-0.029l-1.686,0.695l-0.74-0.261l-1.213-1.245l-0.799-1.478l0.266-1.073l-0.503-0.9l0.237-2.179
				l-1.213-2.415l-0.237-1.282l1.509,0.233l0.562-1.195l-0.237-1.021l-0.828-0.496l-0.03-0.788l-0.887-0.409l-0.414-1.754h2.248
				l1.331-0.058l13.311,0.058v1.345h2.662v1.344h1.331l-0.03,1.78l11.802-0.058V86.644z"/>
			<path fill="#F2DF91" stroke="#FFFFFF" stroke-width="0.5" d="M234.068,95.783h-1.775v1.297h-5.916h-1.893v-5.31h-1.656v-2.633
				h-7.898V86.47h-5.265v-2.642l0.03-2.384h0.799V75.38l0.444-0.467L212.12,75l1.302,0.643l2.337-1.169l0.503-1.491h0.858
				l0.887,0.79l1.272-0.322l1.745,0.789l2.751-0.702l0.858,0.497l0.828-0.351l0.325,0.702l1.775,0.847l0.207,0.643l1.272-0.029
				l0.947,0.613l1.568-0.146l0.739-0.584l0.651,1.664l1.154,0.146l0.059,4.049L234.068,95.783z"/>
			<path fill="#F2DF91" stroke="#FFFFFF" stroke-width="0.5" d="M107.584,95.206h-8.756v-0.923l-2.633,0.029v-2.426l-1.775,0.029
				l-3.047-1.446l-0.947-0.781l0.68-1.738l0.828-1.334l-8.874,0.029v-8.841v-4.439l11.921-0.029V70.67h1.479h2.662v-2.668h7.987
				h8.016l0.089,2.61h2.337v2.722l3.964-0.058l0.03,8.081l-0.118,4.04l-0.858-0.261l-0.592,0.464l-1.302-0.087l-1.035,0.986
				l-2.189-0.406l-0.03,2.059l-0.444,1.767l0.148,1.273l-2.544,1.85l-1.035,0.26l-2.899,1.876L107.584,95.206z"/>
			<path fill="#E5AE89" stroke="#FFFFFF" stroke-width="0.5" d="M13.579,99.671h-0.917v-0.892h-1.331l-1.272-0.432v-1.872
				l-0.266-0.692l-1.361-0.375l-0.828-0.519l-0.68,0.202l-0.739-0.837L3.611,93.07l-1.213,0.491l-1.213-0.433l-0.976,0.549
				l-1.213-0.838l-1.183,0.693l-1.302-0.26l-1.154-0.144l-0.532-1.156l-0.828-0.578l0.237-0.665l1.006-0.897l-0.059-0.926
				l-0.858-0.956l0.266-1.218l-1.035-0.696l-0.503-1.19l-0.562,0.145l-0.444-1.046l-0.118-1.25l-1.361-0.785l-2.278-3.64
				l-0.385-0.146v-7.365l0.651,0.322l0.177,1.435l1.065,0.322l0.355-1.024l2.869-1.23l0.592-1.114l0.562-0.117l0.917,0.733
				l0.532,0.996l-0.473,0.878l1.035,1.346l0.177,1.812l1.065,1.635l0.651,0.35l0.266,0.933l-0.385,1.137l0.71,1.049l1.302-0.379
				l1.568,0.466l1.361-0.466l0.739,0.932l2.071-1.281l0.148-1.224l0.769-0.379l-0.385-1.021h2.958l0.444,0.438v3.992l2.633-0.087
				h5.236l0.03,2.733l0.385,1.22l0.03,4.406h4.792l0.325,1.505l-0.592,0.347l0.207,1.358l1.124,0.029l-0.917,1.704l-0.207,1.5
				l1.331,1.009l1.745,0.029v5.236l0.325,1.321l-1.39,0.516l-2.071-1.119l-0.532-0.89l-0.858-0.661l-1.449-0.316l-1.154-0.891
				l-2.81-0.748l-0.444,0.575L13.579,99.671z"/>
			<path fill="#F2DF91" stroke="#FFFFFF" stroke-width="0.5" d="M83.062,77.803L71.26,77.861l0.03-1.78h-1.331v-1.344h-2.662v-1.345
				l-13.311-0.058l-1.331,0.058H50.14l-1.006-0.585l-1.39,0.322l-0.71-0.79l-1.331-0.498l0.059-1.67l-2.485-2.288h8.282h7.484
				l0.059-5.351h7.129l0.917,0.177l1.035,0.324l0.473,0.589l2.455,0.294l0.03,1.382l3.993,0.029v1.322l2.662,0.029l-0.03,3.989
				l5.295,0.117v2.576V77.803z"/>
			<path fill="#F2DF91" stroke="#FFFFFF" stroke-width="0.5" d="M210.493,75.38l-0.71-0.701l-1.509,0.263l-0.503-0.321l-2.573,0.058
				l-0.917-0.263l-0.769,0.964l-0.71-0.526l-0.887,0.292l-0.976,0.876l-1.213,0.409l-2.071,0.321l-0.473,0.35V70.7h0.799V60.058
				h7.425h9.643h4.407v2.682h2.662v2.707h11.773h0.148l0.059,12.093l-1.154-0.146l-0.651-1.664l-0.739,0.584l-1.568,0.146
				l-0.947-0.613l-1.272,0.029l-0.207-0.643l-1.775-0.847l-0.325-0.702l-0.828,0.351l-0.858-0.497l-2.751,0.702l-1.745-0.789
				l-1.272,0.322l-0.887-0.79h-0.858l-0.503,1.491l-2.337,1.169L212.12,75l-1.183-0.088L210.493,75.38z"/>
			<path fill="#F2DF91" stroke="#FFFFFF" stroke-width="0.5" d="M121.516,73.276l-3.964,0.058v-2.722h-2.337l-0.089-2.61h-8.016
				h-7.987v2.668h-2.662l-0.03-10.7h0.148l-0.03-10.833l0.177-2.616l9.466-0.03l7.218-0.03h9.022v2.705h-0.325v10.745l0.177,1.327
				h0.651v2.238h-0.651l-0.03,1.794h-0.444v3.113h-0.651v2.228h0.355V73.276z"/>
			<path fill="#F2DF91" stroke="#FFFFFF" stroke-width="0.5" d="M134.709,85.542l-0.976-1.655l-1.154-0.465l-0.887,0.349
				l-0.769-0.262l-1.124,0.581l-2.958-0.349l-0.799,1.075l-1.479,0.465l-0.917,0.697l-2.218-0.58l0.118-4.04l-0.03-8.081v-2.664
				h-0.355v-2.228h0.651V65.27h0.444l0.03-1.794h0.651v-2.238h-0.651l-0.177-1.327V49.166h0.325v-2.705l13.4,0.03h12.276v2.675
				h-0.444v5.337h-1.242v5.408h-0.562v4.477l-1.331-0.677v6.959h-0.444l-0.03,7.453l-2.781-0.146l-0.769-0.292l-0.355,2.157
				l-5.384-0.058L134.709,85.542z"/>
			<path fill="#F2DF91" stroke="#FFFFFF" stroke-width="0.5" d="M96.462,70.67h-1.479v2.664l-11.921,0.029v-2.576l2.751-0.117
				l0.03-10.7V49.136l0.059-2.586l10.826-0.03l-0.177,2.616l0.03,10.833h-0.148L96.462,70.67z"/>
			<path fill="#F2DF91" stroke="#FFFFFF" stroke-width="0.5" d="M154.824,94.167l0.266-1.675l-0.473-0.434l-0.237-1.475
				l-1.213-0.608l-1.538-0.289l-4.437,0.55l-0.651-0.116l-0.237,0.376l-2.692-1.36l-1.035,0.463l-0.385-0.608l-0.976,0.347
				l-0.71-0.463l-1.331,0.145l-1.154-0.898l-0.769,0.174l-0.355-1.13l-0.651-0.725l-1.538-0.899l0.059-5.757l5.384,0.058
				l0.355-2.157l0.769,0.292l2.781,0.146l0.03-7.453h0.444v-6.959l1.331,0.677v-4.477h0.562v-5.408h1.242v-5.337h0.444v-2.675
				h16.831l4.851-0.03v2.735h-0.532v10.715l0.266,1.828l-1.331-0.177v1.031h-0.887V65.3h0.828v2.761l-2.219-0.029l-0.03,2.668h-0.71
				v10.686h-0.207v5.461l-0.089,0.899l-0.651,1.217l-1.006-0.058l-0.414-0.579l-1.509-0.203l-1.094,0.608h-0.976l-0.769,1.766
				l-1.745,0.752l-0.976,1.012l0.03,1.733L154.824,94.167z"/>
			<path fill="#F2DF91" stroke="#FFFFFF" stroke-width="0.5" d="M83.062,70.788l-5.295-0.117l0.03-3.989l-2.662-0.029v-1.322
				L71.142,65.3l-0.03-1.382l-2.455-0.294l-0.473-0.589l-1.035-0.324L67.06,59.97V49.136l-0.089-2.616l12.66,0.06l6.271-0.03
				l-0.059,2.586V59.97l-0.03,10.7L83.062,70.788z"/>
			<path fill="#F2DF91" stroke="#FFFFFF" stroke-width="0.5" d="M185.409,78.707l-0.296-0.671l-1.42,0.671l0.266,0.787l-0.444,1.252
				l-0.651,0.64l-0.592,1.745l-1.538,0.61l-0.325,0.668l-1.035-0.029l-0.444,1.161l-1.065-0.261l-1.538,0.174l-0.414,1.799
				l-2.662,0.464l-2.1-0.203l-2.781,0.232l-0.71-0.58l-2.692-0.319v-5.461h0.207V70.7h0.71l0.03-2.668l2.219,0.029V65.3h-0.828
				v-2.707h0.887v-1.031l1.331,0.177l-0.266-1.828V49.196h0.532v-2.735h10.383l11.507,0.03v2.765h-0.799v2.7h2.662v8.103h4.437V70.7
				h-0.799v6.403l-0.769-0.438l-0.651,0.613l-1.242-0.35l-0.621-0.525l-0.858,0.671l-1.982,0.146l0.237-0.788l-2.011,0.175
				l-0.917-0.613l-1.479,0.088l-0.947-0.642l-0.68,1.518L185.409,78.707z"/>
			<path fill="#F2DF91" stroke="#FFFFFF" stroke-width="0.5" d="M215.048,60.058h-9.643h-7.425h-4.437v-8.103h-2.662v-2.7h0.799
				v-2.765h11.714h9.909v2.765h0.414l-0.03,8.117h1.361V60.058z"/>
			<path fill="#F2DF91" stroke="#FFFFFF" stroke-width="0.5" d="M67.148,62.711l-0.917-0.177h-7.129l-0.059,5.351H51.56h-8.282
				l-0.769-0.969l0.976-0.911l-0.355-1.646l-1.183,0.118l-1.361-1.206l0.266-2.74l-1.627-1.15l-1.065,0.295l-0.887-0.767
				l-0.444,0.443l-1.775-0.886l0.089-1.181l0.887-2.099l-1.213-1.658l0.089-1.393l-1.242-0.919l-1.183,0.326l-0.74-0.386
				l-0.917,1.008l-1.538-1.958l0.325-1.425l-0.562-0.624l-0.532-1.665l7.661,0.06l7.395-0.03h11.684h11.714l0.089,2.616V59.97
				L67.148,62.711z"/>
			<path fill="#86BF86" stroke="#FFFFFF" stroke-width="0.5" d="M47.478,89.773h-3.727l-2.899-0.145H37.42l0.237-1.796l0.503-0.725
				l-0.118-1.189l-0.74,0.058l-0.148-1.219l-0.71-1.394l0.296-0.407l-0.089-2.386l-0.947-0.612l-0.592-1.107l-1.154-0.816
				l-0.621,0.087l-1.035-2.305h-2.988l-1.006,0.876l0.828,1.867L19.82,78.59v2.65h0.325v2.588l-2.603,0.116l-0.03-2.733h-5.236
				l-2.633,0.087v-3.992l-0.444-0.438v-3.711l-0.207-2.693h3.55l-0.059-10.731h-0.769v-2.628h5.117l-1.094-0.68l0.266-1.361
				l1.213-0.562l-1.065-1.747L14.91,52.4l0.828-1.008l0.059-0.682l-0.621-2.316l0.71-1.1l-0.887-0.833l7.513-0.03l6.005,0.06
				l0.532,1.665l0.562,0.624l-0.325,1.425l1.538,1.958l0.917-1.008l0.74,0.386l1.183-0.326l1.242,0.919l-0.089,1.393l1.213,1.658
				l-0.887,2.099l-0.089,1.181l1.775,0.886l0.444-0.443l0.887,0.767l1.065-0.295l1.627,1.15l-0.266,2.74l1.361,1.206l1.183-0.118
				l0.355,1.646l-0.976,0.911l0.769,0.969l2.485,2.288l-0.059,1.67l1.331,0.498l0.71,0.79l1.39-0.322l1.006,0.585h2.514h-2.248
				l0.414,1.754l0.887,0.409l0.03,0.788l0.828,0.496l0.237,1.021l-0.562,1.195l-1.509-0.233l-0.74,0.816l-1.331,0.291l0.473,0.99
				l-0.118,1.716l0.148,1.279l-0.385,1.133l-1.183,0.145l-0.562,0.784l0.769,1.798L47.478,89.773z"/>
			<path fill="#F2DF91" stroke="#FFFFFF" stroke-width="0.5" d="M233.891,65.447h-11.773V62.74h-2.662v-2.682h-4.407v-2.686h-1.361
				l0.03-8.117h-0.414v-2.765h7.661l13.045-0.03v11.472l0.03,7.514H233.891z"/>
			<path fill="#E5AE89" stroke="#FFFFFF" stroke-width="0.5" d="M9.201,76.869H6.243l0.385,1.021l-0.769,0.379l-0.148,1.224
				L3.64,80.775l-0.739-0.932L1.54,80.309l-1.568-0.466l-1.302,0.379l-0.71-1.049l0.385-1.137l-0.266-0.933l-0.651-0.35
				l-1.065-1.635l-0.177-1.812l-1.035-1.346l0.473-0.878l-0.532-0.996l-0.917-0.733l-0.562,0.117l-0.592,1.114l-2.869,1.23
				l-0.355,1.024l-1.065-0.322l-0.177-1.435l-0.651-0.322V59.704V46.431l10.885,0.03l9.761,0.03l6.448-0.03l0.887,0.833l-0.71,1.1
				l0.621,2.316l-0.059,0.682L14.91,52.4l1.242,0.356l1.065,1.747l-1.213,0.562l-0.266,1.361l1.094,0.68h-5.117v2.628h0.769
				l0.059,10.731h-3.55l0.207,2.693V76.869z"/>
		</g>
		<g>
			<path fill="none" stroke="#000000" stroke-linejoin="round" d="M148.074,166.925h-17.223l-0.574-0.314h-10.908h-3.445v-4.716
				h-5.167h-3.445v-5.361v-6.646v-6.036h-1.148v-10.217v-1.602v-0.962v-8.04v-6.461l-1.148,0.971l-0.574-0.647l-1.722,0.324
				l-2.296-1.619v-0.972h-1.148l-0.574-1.621v-0.324v-2.598v-5.208h-2.296v-4.244l-0.574-0.327v-1.963l0.574-1.31h2.296v-1.967
				v-0.656h-2.296v-2.628h-1.722l-3.445-1.315l-0.574-0.658l0.574-1.976l0.574-1.319h-8.611h-5.167v2.636h-5.741v3.289l-2.296-0.329
				l-1.722,0.329l-0.574-0.329l-1.148,0.657l-1.148-0.329l-1.148-0.986l-1.148-0.329l-1.148-1.645l-1.722-0.659l-0.574-0.659
				l-0.574,0.329l-1.148,0.659l-1.148-0.329l-1.722,0.988l-1.148-0.329l-1.148-1.317l-0.574-1.648v-0.99v-0.66V82.55l-1.148-2.316
				l-0.574-1.325h1.722l0.574-0.994V76.92l-1.148-0.664v-0.664l-0.574-0.332l-0.574-1.994h2.296h-2.87l-0.574-0.333l-1.722,0.333
				l-0.574-0.998l-1.148-0.333v-1.665l-2.87-2.334l-0.574-1.001l1.148-1.002l-0.574-1.672l-1.148,0.334l-1.148-1.338v-2.68
				l-1.722-1.342l-0.574,0.336l-1.148-0.671l-0.574,0.336l-1.722-0.671V57.22l1.148-2.017l-1.148-1.683v-1.348l-1.148-1.012
				l-1.148,0.337l-1.148-0.337l-0.574,1.012l-1.722-2.024l0.574-1.351l-0.574-0.676l-0.574-1.691h7.463h7.463h11.482h12.056h12.63
				h6.315H96.98h9.185h7.463h8.611h13.778h12.056h16.649h5.167h10.334h11.482h11.482h10.334h7.463h13.204v11.461v7.706v11.986v3.975
				v14.163v11.11v11.68v8.384v10.579v3.511v12.388v13.552h-12.63h-8.037h-9.759h-8.037h-6.889h-5.167h-12.056h-0.574h-9.759H148.074
				z M163,136.195v-0.96l0.574-0.96l0.574-0.961l-1.722-2.244v-0.963l-0.574-0.321v-0.963l-1.148-0.321v-1.286l-0.574-0.643v-0.643
				l-1.148-0.644l-0.574-1.933l-1.148-0.645v3.221h-2.87l-0.574,0.643l-1.722,1.929v1.285h-5.741l-1.722,0.642v3.206h-7.463h-3.445
				v2.56l0.574,2.556v8.28l0.574,0.635l0.574,0.635v0.635l1.148,0.317v1.585h0.574v0.634h1.722v1.9h0.574h4.593h2.296v-0.95h2.87
				v-0.633h2.296v-7.938h0.574v-3.186h3.445v-0.957h0.574v-0.958h1.148v-0.639h2.296v-1.918H163z"/>
			<path fill="none" stroke="#000000" stroke-linejoin="round" d="M56.794,148.62l2.87-1.905l0.574-0.636v-1.272l1.148,0.318h5.741
				l-0.574-0.636l-4.019-1.91l-0.574-0.637l0.574-0.956l-0.574-1.276v-2.874l-0.574-0.639v-1.28l-1.148-1.281v-0.961l-1.148-0.32
				l-0.574-1.604l1.148-0.963h-9.759v1.284h-5.167v2.564v2.56l-1.148,0.959l-1.148,0.32l-1.148,0.639l-0.574,1.277h-1.148
				l-1.722-0.319l-1.148-0.958l-0.574-1.598l-1.148-0.32l-1.148,0.32l1.148-2.24l-0.574-1.281v-0.641l-0.574-0.962l0.574-0.642
				l0.574-0.963l-0.574-0.642v-0.964v-1.286l-1.148-1.609l-0.574-0.322l0.574-0.644l-0.574-1.934l1.148-2.259v-1.292l-0.574-0.97
				h3.445v-1.618h2.296v-0.648h1.722v-1.944h1.148v-0.973h2.296v-10.416H40.72V89.478l2.87,0.329h4.019l0.574,0.658v2.63h1.148v9.17
				l5.167,0.327v10.09h5.741v4.212h2.296v1.294h1.722l0.574,1.293l-0.574,0.969l0.574,1.291v0.645v2.578l0.574,0.322l1.722-1.288
				l-0.574-0.645l0.574-0.645l1.148-0.645l1.148,0.323l0.574-0.968l0.574-0.646h4.593h3.445v-0.646v-4.528l0.574-1.296l2.296,0.648
				v-0.972l-1.148-0.324l-1.148-0.324l-1.148-0.973l1.148-0.974l-1.148-0.974h2.296v-2.601h5.167v-0.325h2.87v-2.28h1.148v2.28
				h1.722l1.722,0.976l1.148,0.976v0.65l2.296,0.65v1.623l2.296,0.649l0.574,1.621h1.148v0.972l2.296,1.619l1.722-0.324l0.574,0.647
				l1.148-0.971v6.461v8.04v0.962v1.602v10.217h1.148v6.036v6.646v5.361h3.445h5.167v4.716h-6.315l-1.148,0.314h-4.593h-1.148
				h-5.167h-1.722h-5.167v-5.344v-5.046h2.296v-5.061h1.148v-1.902h1.722v-5.719v-5.101v-5.437v-1.282l-5.741-0.321l-1.722,0.321
				H84.35v1.922l-0.574,0.32l-1.148,1.6v1.918h-0.574v1.277l-1.722,1.276h-1.148l-1.148,2.231l-1.148,0.955h-1.722l1.722,0.637
				v0.954h1.148l0.574,0.954l1.722,1.906h4.019v8.55h-0.574v12.899v4.694l-0.574,0.937l-1.722,0.312l0.574,0.624l-1.148,2.184
				l0.574,1.87l-1.148-0.311h-1.722l-1.722-0.312v0.623l-1.722,0.311l-0.574,0.623l-0.574-1.245H71.72v0.623l-1.722-0.311
				l-1.148,0.623l-1.148-0.623h-1.148l-0.574-0.623h-1.148l-0.574,0.623l-0.574,0.311v1.245l-0.574,1.244l-1.148-0.311l-0.574-0.622
				l-0.574,0.311l-1.148-0.622h-2.296l-1.148-0.622l-1.148,0.933l-1.148,1.555l0.574,0.932l-1.148,0.932l-0.574-0.932l-1.722-0.932
				l-0.574-0.933l-0.574-1.244l0.574-0.934l-1.148-0.623v-0.312l-0.574-0.935l0.574-0.624v-1.872l-1.148-0.624v-0.625l-1.722-2.188
				l-1.722-0.313l-1.148,0.938l-0.574-1.251l-1.148-0.626l-0.574-0.626l-1.148-2.194l1.148-0.627v-2.826H40.72l-2.296-1.886v-1.574
				l-1.148-0.945l-1.148-1.576l0.574-0.315l-1.148-1.578v-1.895l-1.148-0.316v-1.265l0.574-0.949l-0.574-0.95h-1.148l0.574-2.536
				l-2.296-1.587l-0.574-1.271l1.148-0.636l-0.574-0.636l1.148-1.273l0.574,0.955l0.574-0.318l0.574-0.955l1.722-1.274h1.722
				l0.574-0.956h1.148v-1.276v-0.638h0.574l1.148,2.551v1.274l1.148,1.273l1.148-1.273l1.148-0.318l1.148-1.274l1.148-0.638h1.148
				l0.574,0.638l1.722,1.593h1.148l0.574,0.955h1.722l1.722,0.954v1.589l0.574,0.318L56.794,148.62z M9.145,76.92l0.574,0.332v3.976
				h2.296h5.741v2.645h2.296v-2.645v-2.649h9.185l-1.148-1.99l1.148-0.664h2.87l1.148,2.322l0.574-0.332l1.148,0.994l0.574,0.994
				l1.148,0.662v2.316v0.331l0.574,1.652v0.99h0.574l0.574,1.319l-0.574,0.659l-0.574,1.647h-5.741v1.974v0.657l-0.574,1.314
				l1.148,0.985l0.574,1.64l-0.574,0.983l0.574,1.965l1.148,0.654v2.615h-2.296v1.306h-5.167l-1.722,0.652l-2.296-1.305v-0.653
				l-1.148-0.653l-1.148-0.327l-1.148-0.981l-2.87-0.654l-0.574,0.327l-1.722-0.327v1.308h1.722v1.307l1.148,0.327v0.979
				l1.148,0.326l0.574,1.956h1.722v1.303l-1.148,0.326l-0.574,1.301v3.898h0.574v2.594h-2.87v0.324l-1.722,1.295l-0.574-0.647
				l0.574-1.295l-1.148-0.648l-1.148-0.973l-1.148-0.324v-2.272l-1.722-1.95H8.571l-1.148-2.278v-0.326L5.7,103.898l-1.148-0.653
				l-0.574-0.979l-0.574-0.327v-0.98l-1.148-0.981l-3.445-1.309l-0.574-1.637l-2.296-1.311l-1.722-0.984v-0.328l2.296-0.656v-0.328
				l-1.148-0.328l-0.574-0.986l-0.574-0.657v-0.658l1.148-0.987V88.82l-1.148-0.988l0.574-0.989l-1.148-0.66l-0.574-1.32h-0.574
				l-0.574-0.991V82.55l-1.148-0.661l-2.296-3.643h-0.574v-7.644V59.57V46.431h10.908h9.759h6.315l1.148,1.015L15.46,48.46
				l0.574,2.363l-0.574,0.675l-0.574,1.011l1.148,0.337l1.148,1.684l-1.148,0.673l-0.574,1.345l1.148,0.672h-5.167v2.35h1.148
				v11.032H9.145v2.663V76.92z"/>
			<path fill="none" stroke="#000000" stroke-linejoin="round" d="M83.776,174.129v-4.694v-12.899h0.574v-8.55h-4.019l-1.722-1.906
				l-0.574-0.954h-1.148v-0.954l-1.722-0.637h1.722l1.148-0.955l1.148-2.231h1.148l1.722-1.276v-1.277h0.574v-1.918l1.148-1.6
				l0.574-0.32v-1.922h4.019l1.722-0.321l5.741,0.321v1.282v5.437v5.101v5.719H94.11v1.902h-1.148v5.061h-2.296v5.046v5.344h-0.574
				v14.998l-1.148-0.622l-1.148-2.18l-1.148-0.312l0.574-0.935l-2.87-3.434L83.776,174.129z"/>
			<path fill="none" stroke="#000000" stroke-linejoin="round" d="M59.09,132.353l1.148,0.32v0.961l1.148,1.281v1.28l0.574,0.639
				v2.874l0.574,1.276l-0.574,0.956l0.574,0.637l4.019,1.91l0.574,0.636h-5.741l-1.148-0.318v1.272l-0.574,0.636l-2.87,1.905
				l-0.574-1.588l-0.574-0.318v-1.589l-1.722-0.954h-1.722l-0.574-0.955h-1.148l-1.722-1.593l-0.574-0.638h-1.148l-1.148,0.638
				l-1.148,1.274l-1.148,0.318l-1.148,1.273l-1.148-1.273v-1.274l-1.148-2.551h-0.574h1.148l0.574-1.277l1.148-0.639l1.148-0.32
				l1.148-0.959v-2.56v-2.564h5.167v-1.284h9.759l-1.148,0.963L59.09,132.353z"/>
			<path fill="none" stroke="#000000" stroke-linejoin="round" d="M139.462,153.373h-0.574v-1.9h-1.722v-0.634h-0.574v-1.585
				l-1.148-0.317v-0.635l-0.574-0.635l-0.574-0.635v-8.28l-0.574-2.556v-2.56h3.445h7.463v-3.206l1.722-0.642h5.741v-1.285
				l1.722-1.929l0.574-0.643h2.87v-3.221l1.148,0.645l0.574,1.933l1.148,0.644v0.643l0.574,0.643v1.286l1.148,0.321v0.963
				l0.574,0.321v0.963l1.722,2.244l-0.574,0.961l-0.574,0.96v0.96h-3.445v1.918h-2.296v0.639h-1.148v0.958h-0.574v0.957h-3.445
				v3.186h-0.574v7.938h-2.296v0.633h-2.87v0.95h-2.296H139.462z"/>
			<path fill="none" stroke="#000000" stroke-linejoin="round" d="M33.256,117.865l0.574,0.97v1.292l-1.148,2.259l0.574,1.934
				l-0.574,0.644l0.574,0.322l1.148,1.609v1.286v0.964l0.574,0.642l-0.574,0.963l-0.574,0.642l0.574,0.962v0.641l0.574,1.281
				l-1.148,2.24l1.148-0.32l1.148,0.32l0.574,1.598l1.148,0.958l1.722,0.319v0.638v1.276h-1.148l-0.574,0.956h-1.722l-1.722,1.274
				l-0.574,0.955l-0.574,0.318l-0.574-0.955l-1.148,1.273l0.574,0.636l-1.148,0.636l-0.574-0.318l-1.148,0.953l0.574,0.635
				l-2.296,2.221l-0.574,0.634l-1.148,0.634l-1.148-0.317v1.901l-1.722,0.633l-0.574-0.95l-1.148-0.317v-0.95l-2.87-1.268
				l0.574-0.634l-0.574-0.952l1.148-0.953v-1.589l-0.574-0.636l-0.574-0.954l1.148-2.229l2.296-0.637v-0.319l-0.574-1.595v-1.277
				l-1.148-0.319v-1.278l0.574-1.599l-1.148-0.96v-1.281h1.148v-2.245l-0.574-0.642l1.148-0.642v-0.642l0.574-1.607l-0.574-0.965
				l0.574-0.644l0.574-0.966l-0.574-1.611l1.148-0.645v-0.968l0.574-1.615l-0.574-1.616l-0.574-0.323l-1.148,0.323l-0.574,0.97
				l-1.722-0.323h-1.722l-0.574-1.294l0.574-0.647l-1.148-0.971v-0.324h2.87v-2.594H18.33v-3.898l0.574-1.301l1.148-0.326v-1.303
				H18.33l-0.574-1.956l-1.148-0.326v-0.979l-1.148-0.327v-1.307h-1.722v-1.308l1.722,0.327l0.574-0.327l2.87,0.654l1.148,0.981
				l1.148,0.327l1.148,0.653v0.653l2.296,1.305l1.722-0.652h5.167v-1.306h2.296v-2.615l-1.148-0.654l-0.574-1.965l0.574-0.983
				l-0.574-1.64l-1.148-0.985l0.574-1.314v-0.657v-1.974h5.741h3.445v12.787h3.445v10.416h-2.296v0.973H40.72v1.944h-1.722v0.648
				h-2.296v1.618H33.256z"/>
			<path fill="none" stroke="#000000" stroke-linejoin="round" d="M98.702,113.006l-2.296-0.649v-1.623l-2.296-0.65v-0.65
				l-1.148-0.976l-1.722-0.976h-1.722v-2.28h-1.148v2.28h-2.87v0.325h-5.167v2.601h-2.296h-2.87v-6.511h-1.722l-1.148-0.326
				l-1.148-1.306l-1.148-0.327V92.11l2.296,0.329v-3.289h5.741v-2.636h5.167h8.611l-0.574,1.319l-0.574,1.976l0.574,0.658
				l3.445,1.315h1.722v2.628h2.296v0.656v1.967h-2.296l-0.574,1.31v1.963l0.574,0.327v4.244h2.296v5.208v2.598V113.006z"/>
			<path fill="none" stroke="#000000" stroke-linejoin="round" d="M75.165,120.773h-4.593l-0.574,0.646l-0.574,0.968l-1.148-0.323
				l-1.148,0.645l-0.574,0.645l0.574,0.645l-1.722,1.288l-0.574-0.322v-2.578v-0.645l-0.574-1.291l0.574-0.969l-0.574-1.293h-1.722
				v-1.294h-2.296v-4.212h-5.741v-10.09l-5.167-0.327v-9.17h-1.148v-2.63l-0.574-0.658v-1.976l-0.574-1.978l0.574-0.66h1.148
				l0.574-1.321l-0.574-1.322l0.574-1.654l-0.574-0.993l1.148-0.331l0.574-0.663l0.574,1.325l1.148,2.316v2.313v0.66v0.99
				l0.574,1.648l1.148,1.317l1.148,0.329l1.722-0.988l1.148,0.329l1.148-0.659l0.574-0.329l0.574,0.659l1.722,0.659l1.148,1.645
				l1.148,0.329l1.148,0.986l1.148,0.329l1.148-0.657l0.574,0.329l1.722-0.329v9.829l1.148,0.327l1.148,1.306l1.148,0.326h1.722
				v6.511h2.87l1.148,0.974l-1.148,0.974l1.148,0.973l1.148,0.324l1.148,0.324v0.972l-2.296-0.648l-0.574,1.296v4.528v0.646H75.165z
				"/>
			<path fill="none" stroke="#000000" stroke-linejoin="round" d="M47.609,89.808H43.59l-2.87-0.329h-3.445l0.574-1.647l0.574-0.659
				l-0.574-1.319h-0.574v-0.99l-0.574-1.652v-0.331v-2.316l-1.148-0.662l-0.574-0.994l-1.148-0.994l-0.574,0.332l-1.148-2.322h-2.87
				l-1.148,0.664l1.148,1.99h-9.185v2.649v2.645h-2.296v-2.645h-5.741H9.719v-3.976L9.145,76.92v-3.654v-2.663h3.445V59.57h-1.148
				v-2.35h5.167l-1.148-0.672l0.574-1.345l1.148-0.673l-1.148-1.684l-1.148-0.337l0.574-1.011l0.574-0.675L15.46,48.46l0.574-1.014
				l-1.148-1.015h7.463h6.315l0.574,1.691l0.574,0.676l-0.574,1.351l1.722,2.024l0.574-1.012l1.148,0.337l1.148-0.337l1.148,1.012
				v1.348l1.148,1.683l-1.148,2.017v1.343l1.722,0.671l0.574-0.336l1.148,0.671l0.574-0.336l1.722,1.342v2.68l1.148,1.338
				l1.148-0.334l0.574,1.672l-1.148,1.002l0.574,1.001l2.87,2.334v1.665l1.148,0.333l0.574,0.998l1.722-0.333l0.574,0.333h2.87
				h-2.296l0.574,1.994l0.574,0.332v0.664l1.148,0.664v0.995l-0.574,0.994h-1.722l-0.574,0.663l-1.148,0.331l0.574,0.993
				l-0.574,1.654l0.574,1.322l-0.574,1.321h-1.148l-0.574,0.66l0.574,1.978V89.808z"/>
		</g>
		<g>
			<g>
				<circle cx="52.441" cy="162.853" r="2.299"/>
			</g>
			<g>
				<circle cx="163.411" cy="154.448" r="2.315"/>
			</g>
			<g>
				<circle cx="133.328" cy="63.985" r="1.546"/>
			</g>
			<g>
				<circle cx="81.278" cy="127.673" r="1.516"/>
			</g>
			<g>
				<circle cx="131.873" cy="160.214" r="2.205"/>
			</g>
			<g>
				<circle cx="224.002" cy="151.691" r="0.944"/>
			</g>
			<g>
				<circle cx="84.318" cy="98.45" r="6.397"/>
			</g>
			<g>
				<circle cx="103.048" cy="81.034" r="1.569"/>
			</g>
			<g>
				<circle cx="202.761" cy="130.021" r="2.565"/>
			</g>
			<g>
				<circle cx="203.239" cy="53.2" r="1.124"/>
			</g>
			<g>
				<circle cx="216.565" cy="99.699" r="2.177"/>
			</g>
			<g>
				<circle cx="49.07" cy="135.753" r="2.001"/>
			</g>
			<g>
				<circle cx="226.439" cy="127.633" r="1.503"/>
			</g>
			<g>
				<circle cx="127.905" cy="99.73" r="2.513"/>
			</g>
			<g>
				<circle cx="28.923" cy="68.254" r="7.209"/>
			</g>
			<g>
				<circle cx="87.958" cy="150.903" r="8.128"/>
			</g>
			<g>
				<circle cx="173.627" cy="99.335" r="0.915"/>
			</g>
			<g>
				<circle cx="50.544" cy="55.626" r="2.292"/>
			</g>
			<g>
				<circle cx="128.876" cy="126.247" r="0.739"/>
			</g>
			<g>
				<circle cx="41.417" cy="125.555" r="1.257"/>
			</g>
			<g>
				<circle cx="109.665" cy="57.99" r="2.957"/>
			</g>
			<g>
				<circle cx="68.991" cy="133.136" r="2.116"/>
			</g>
			<g>
				<circle cx="106.523" cy="106.379" r="1.082"/>
			</g>
			<g>
				<circle cx="28.116" cy="88.181" r="3.462"/>
			</g>
			<g>
				<circle cx="62.924" cy="104.03" r="6.265"/>
			</g>
			<g>
				<circle cx="90.947" cy="60.047" r="1.055"/>
			</g>
			<g>
				<circle cx="1.12" cy="60.634" r="2.738"/>
			</g>
			<g>
				<circle cx="198.194" cy="88.233" r="1.118"/>
			</g>
			<g>
				<circle cx="72.564" cy="158.032" r="2.387"/>
			</g>
			<g>
				<circle cx="93.77" cy="119.742" r="1.039"/>
			</g>
			<g>
				<circle cx="9.421" cy="103.32" r="1.34"/>
			</g>
			<g>
				<circle cx="31.483" cy="106.649" r="8.132"/>
			</g>
			<g>
				<circle cx="144.821" cy="122.805" r="1.423"/>
			</g>
			<g>
				<circle cx="101.149" cy="152.492" r="2.932"/>
			</g>
			<g>
				<circle cx="147.857" cy="104.17" r="0.596"/>
			</g>
			<g>
				<circle cx="154.791" cy="69.26" r="1.534"/>
			</g>
			<g>
				<circle cx="66.311" cy="70.392" r="1.655"/>
			</g>
			<g>
				<circle cx="201.569" cy="155.283" r="1.095"/>
			</g>
			<g>
				<circle cx="51.706" cy="111.952" r="1.818"/>
			</g>
			<g>
				<circle cx="206.735" cy="111.94" r="0.838"/>
			</g>
			<g>
				<circle cx="27.452" cy="135.066" r="4.188"/>
			</g>
			<g>
				<circle cx="223.471" cy="83.889" r="2.69"/>
			</g>
			<g>
				<circle cx="214.145" cy="68.374" r="2.209"/>
			</g>
			<g>
				<circle cx="178.975" cy="130.598" r="2.199"/>
			</g>
			<g>
				<circle cx="6.646" cy="87.298" r="2.146"/>
			</g>
			<g>
				<circle cx="224.648" cy="55.131" r="1.562"/>
			</g>
			<g>
				<circle cx="57.488" cy="140.445" r="4.19"/>
			</g>
			<g>
				<circle cx="124.369" cy="147.256" r="2.129"/>
			</g>
			<g>
				<circle cx="113.178" cy="142.983" r="1.585"/>
			</g>
			<g>
				<circle cx="65.983" cy="82.377" r="1.802"/>
			</g>
			<g>
				<circle cx="77.19" cy="57.201" r="1.7"/>
			</g>
			<g>
				<circle cx="167.892" cy="131.278" r="0.666"/>
			</g>
			<g>
				<circle cx="180.312" cy="66.073" r="2.09"/>
			</g>
			<g>
				<circle cx="115.142" cy="123.725" r="1.029"/>
			</g>
			<g>
				<circle cx="229.923" cy="108.774" r="0.842"/>
			</g>
			<g>
				<circle cx="147.321" cy="139.391" r="9.377"/>
			</g>
		</g>
	</g>
	<path d="M126.262,55.332"/>
	<g>
		<path fill="none" stroke="#000000" stroke-miterlimit="10" d="M114.582,49.746c0.819,21.299-6.481,46.416-9.336,55.335"/>
		<g>
			<polygon points="104.133,108.427 103.74,103.068 105.307,104.819 107.605,104.325 			"/>
		</g>
	</g>
	<g>
		<path fill="none" stroke="#000000" stroke-miterlimit="10" d="M167.393,50.761c-0.834,32.54-26.195,49.304-35.219,54.251"/>
		<g>
			<polygon points="129.024,106.604 132.485,102.492 132.384,104.841 134.374,106.092 			"/>
		</g>
	</g>
	<g>
		<path fill="none" stroke="#000000" stroke-miterlimit="10" d="M225.283,181.773c3.222-16.11-15.1-25.463-22.818-28.643"/>
		<g>
			<polygon points="199.16,151.891 204.533,151.784 202.7,153.256 203.07,155.577 			"/>
		</g>
	</g>
	<g>
		<path fill="none" stroke="#000000" stroke-miterlimit="10" d="M165.362,181.773c-1.863-13.231-20.923-18.514-28.891-20.155"/>
		<g>
			<polygon points="133,161 138.264,159.92 136.729,161.7 137.514,163.915 			"/>
		</g>
	</g>
	<g>
		<path fill="none" stroke="#000000" stroke-miterlimit="10" d="M65.834,185.836c14.127,2.493,22.134-23.571,24.578-33.129"/>
		<g>
			<polygon points="91.224,149.274 91.986,154.594 90.301,152.955 88.043,153.605 			"/>
		</g>
	</g>
	<g>
		<path fill="none" stroke="#000000" stroke-miterlimit="10" d="M51,142c8.188,0,12.488-5.846,14.429-9.682"/>
		<g>
			<polygon points="66.761,129.051 66.686,134.424 65.277,132.542 62.945,132.834 			"/>
		</g>
	</g>
	<g>
		<path fill="none" stroke="#000000" stroke-miterlimit="10" d="M53.647,50.761c0.684,6.84,4.472,13.699,6.873,17.45"/>
		<g>
			<polygon points="62.522,71.117 58.079,68.094 60.426,67.955 61.468,65.848 			"/>
		</g>
	</g>
	<g>
		<g>
			<circle cx="77.636" cy="219.491" r="1.067"/>
			<text transform="matrix(1 0 0 1 80.812 222.874)" display="none" font-family="'Arial-ItalicMT'" font-size="10px">1,000</text>
			<circle cx="118.688" cy="219.491" r="3.143"/>
			<text transform="matrix(1 0 0 1 124.3242 222.5156)" display="none" font-family="'Arial-ItalicMT'" font-size="10px">10,000</text>
			<circle cx="174.144" cy="219.491" r="9.708"/>
			<text transform="matrix(1 0 0 1 187.1963 222.6504)" display="none" font-family="'Arial-ItalicMT'" font-size="10px">100,000 jobs</text>
		</g>
	</g>
	<rect x="99.612" y="239" fill="none" stroke="#86BF86" width="99" height="94"/>
</g>
<style type="text/css">
#g-mt-economy-2-regions-mobile-img rect, #g-mt-economy-2-regions-mobile-img circle, #g-mt-economy-2-regions-mobile-img path, #g-mt-economy-2-regions-mobile-img line, #g-mt-economy-2-regions-mobile-img polyline { vector-effect: non-scaling-stroke; }
</style>
</svg>

