<?xml version="1.0" encoding="utf-8"?>
<!-- Generator: Adobe Illustrator 22.1.0, SVG Export Plug-In . SVG Version: 6.00 Build 0)  -->
<svg version="1.2" baseProfile="tiny" id="g-mt-economy-3-regional-change-medium-img" xmlns="http://www.w3.org/2000/svg" xmlns:xlink="http://www.w3.org/1999/xlink"
	 x="0px" y="0px" viewBox="0 0 600 321" xml:space="preserve">
<g>
	<g transform="translate(0.5,200.5)">
		<path fill="none" stroke="#000000" stroke-miterlimit="10" d="M103,67L103,67L103,67L103,67z"/>
		<g>
			<g>
				<line fill="none" stroke="#000000" x1="103" y1="67" x2="103" y2="-149"/>
				<line fill="none" stroke="#E6E7E8" x1="217" y1="59" x2="217" y2="-149"/>
				<line fill="none" stroke="#E6E7E8" x1="274" y1="67" x2="274" y2="-149"/>
				<line fill="none" stroke="#E6E7E8" x1="332" y1="67" x2="332" y2="-149"/>
				<line fill="none" stroke="#E6E7E8" x1="389" y1="67" x2="389" y2="-149"/>
				<line fill="none" stroke="#E6E7E8" x1="446" y1="67" x2="446" y2="-149"/>
				<line fill="none" stroke="#E6E7E8" x1="503" y1="67" x2="503" y2="-149"/>
			</g>
		</g>
	</g>
	<g>
		<g transform="translate(0.5,0.5)">
			<path fill="none" d="M103,51L103,51L103,51L103,51z"/>
			<g>
				<g>
					<line fill="none" stroke="#888888" x1="103" y1="61" x2="98" y2="61"/>
					<line fill="none" stroke="#888888" x1="103" y1="83" x2="98" y2="83"/>
					<line fill="none" stroke="#888888" x1="103" y1="106" x2="98" y2="106"/>
					<line fill="none" stroke="#888888" x1="103" y1="128" x2="98" y2="128"/>
					<line fill="none" stroke="#888888" x1="103" y1="150" x2="98" y2="150"/>
					<line fill="none" stroke="#888888" x1="103" y1="180" x2="98" y2="180"/>
					<line fill="none" stroke="#888888" x1="103" y1="202" x2="98" y2="202"/>
					<line fill="none" stroke="#888888" x1="103" y1="233" x2="98" y2="233"/>
					<line fill="none" stroke="#888888" x1="103" y1="255" x2="98" y2="255"/>
				</g>
			</g>
		</g>
	</g>
	<g>
		<path fill="#66A61E" d="M160.143,223.667h38.926v20h-38.926V223.667z"/>
		<path fill="#E7298A" d="M199.069,223.667h13.714v20h-13.714V223.667z"/>
		<path fill="#A6761D" d="M212.783,223.667h1.074v20h-1.074V223.667z"/>
		<path fill="#E6AB02" d="M213.857,223.667h24.354v20h-24.354V223.667z"/>
		<path fill="#1B9E77" d="M158.44,223.667h1.703v20h-1.703V223.667z"/>
		<path fill="#D95F02" d="M155.263,223.667h3.177v20h-3.177V223.667z"/>
		<path fill="#7570B3" d="M143.103,223.667h12.16v20h-12.16V223.667z"/>
		<path fill="#CCCCCC" d="M238.211,223.667h18.526v20h-18.526V223.667z"/>
		<path fill="#66A61E" d="M160.143,245.889h27.646v20h-27.646V245.889z"/>
		<path fill="#E7298A" d="M187.789,245.889h21.451v20h-21.451V245.889z"/>
		<path fill="#A6761D" d="M141.914,245.889h18.229v20h-18.229V245.889z"/>
		<path fill="#E6AB02" d="M133.171,245.889h8.743v20h-8.743V245.889z"/>
		<path fill="#1B9E77" d="M209.24,245.889h7.954v20h-7.954V245.889z"/>
		<path fill="#D95F02" d="M217.194,245.889h4.686v20h-4.686V245.889z"/>
		<path fill="#7570B3" d="M130.806,245.889h2.366v20h-2.366V245.889z"/>
		<path fill="#CCCCCC" d="M221.88,245.889h60.811v20H221.88L221.88,245.889z"/>
		<path fill="#66A61E" d="M160.143,171.222h13.383v20h-13.383V171.222z"/>
		<path fill="#E7298A" d="M154.806,171.222h5.337v20h-5.337V171.222z"/>
		<path fill="#A6761D" d="M153.377,171.222h1.429v20h-1.429V171.222z"/>
		<path fill="#E6AB02" d="M173.526,171.222h15.669v20h-15.669V171.222z"/>
		<path fill="#1B9E77" d="M189.194,171.222h3.909v20h-3.909V171.222z"/>
		<path fill="#D95F02" d="M193.103,171.222h2.891v20h-2.891V171.222z"/>
		<path fill="#7570B3" d="M195.994,171.222h2.64v20h-2.64V171.222z"/>
		<path fill="#CCCCCC" d="M150.223,171.222h3.154v20h-3.154V171.222z"/>
		<path fill="#66A61E" d="M160.143,193.444h10.526v20h-10.526V193.444z"/>
		<path fill="#E7298A" d="M152.04,193.444h8.103v20h-8.103V193.444z"/>
		<path fill="#A6761D" d="M151.423,193.444h0.617v20h-0.617V193.444z"/>
		<path fill="#E6AB02" d="M170.669,193.444h16.411v20h-16.411V193.444z"/>
		<path fill="#1B9E77" d="M187.08,193.444h5.749v20h-5.749V193.444z"/>
		<path fill="#D95F02" d="M192.829,193.444h0.937v20h-0.937V193.444z"/>
		<path fill="#7570B3" d="M193.766,193.444h2.114v20h-2.114V193.444z"/>
		<path fill="#CCCCCC" d="M195.88,193.444h7.611v20h-7.611V193.444z"/>
		<path fill="#66A61E" d="M160.143,118.778h92.823v20h-92.823V118.778z"/>
		<path fill="#E7298A" d="M252.966,118.778h6.949v20h-6.949V118.778z"/>
		<path fill="#A6761D" d="M259.914,118.778h8.434v20h-8.434V118.778z"/>
		<path fill="#E6AB02" d="M268.349,118.778h37.737v20h-37.737V118.778z"/>
		<path fill="#1B9E77" d="M159.571,118.778h0.571v20h-0.571V118.778z"/>
		<path fill="#D95F02" d="M306.086,118.778h6.389v20h-6.389V118.778z"/>
		<path fill="#7570B3" d="M150.566,118.778h9.006v20h-9.006V118.778z"/>
		<path fill="#CCCCCC" d="M312.474,118.778h19.497v20h-19.497V118.778z"/>
		<path fill="#66A61E" d="M160.143,52.111h183.28v20h-183.28V52.111z"/>
		<path fill="#E7298A" d="M343.423,52.111h42.103v20h-42.103V52.111z"/>
		<path fill="#A6761D" d="M385.526,52.111h18.331v20h-18.331V52.111z"/>
		<path fill="#E6AB02" d="M403.857,52.111h31.829v20h-31.829V52.111z"/>
		<path fill="#1B9E77" d="M435.686,52.111h6.377v20h-6.377V52.111z"/>
		<path fill="#D95F02" d="M442.063,52.111h30.491v20h-30.491V52.111z"/>
		<path fill="#7570B3" d="M472.554,52.111h11.429v20h-11.429V52.111z"/>
		<path fill="#CCCCCC" d="M483.983,52.111h8.56v20h-8.56V52.111z"/>
		<path fill="#66A61E" d="M160.143,141h48v20h-48V141z"/>
		<path fill="#E7298A" d="M208.143,141h9.623v20h-9.623V141z"/>
		<path fill="#A6761D" d="M217.766,141h22.251v20h-22.251V141z"/>
		<path fill="#E6AB02" d="M240.017,141h18.274v20h-18.274V141z"/>
		<path fill="#1B9E77" d="M258.291,141h5.154v20h-5.154V141z"/>
		<path fill="#D95F02" d="M263.446,141h1.543v20h-1.543V141z"/>
		<path fill="#7570B3" d="M264.989,141h1.257v20h-1.257V141z"/>
		<path fill="#CCCCCC" d="M266.246,141L266.246,141v20l0,0V141z"/>
		<path fill="#66A61E" d="M160.143,96.556h139.52v20h-139.52V96.556z"/>
		<path fill="#E7298A" d="M299.663,96.556h4.834v20h-4.834V96.556z"/>
		<path fill="#A6761D" d="M304.497,96.556h17.931v20h-17.931V96.556z"/>
		<path fill="#E6AB02" d="M322.429,96.556h36.309v20h-36.309V96.556z"/>
		<path fill="#1B9E77" d="M358.737,96.556h4.903v20h-4.903V96.556z"/>
		<path fill="#D95F02" d="M158.463,96.556h1.68v20h-1.68V96.556z"/>
		<path fill="#7570B3" d="M149.08,96.556h9.383v20h-9.383V96.556z"/>
		<path fill="#CCCCCC" d="M148.737,96.556h0.343v20h-0.343V96.556z"/>
		<path fill="#66A61E" d="M160.143,74.333h95.989v20h-95.989V74.333z"/>
		<path fill="#E7298A" d="M256.131,74.333h30.24v20h-30.24V74.333z"/>
		<path fill="#A6761D" d="M286.371,74.333h7.817v20h-7.817V74.333z"/>
		<path fill="#E6AB02" d="M294.189,74.333h44.48v20h-44.48V74.333z"/>
		<path fill="#1B9E77" d="M338.669,74.333h14.617v20h-14.617V74.333z"/>
		<path fill="#D95F02" d="M353.286,74.333h25.657v20h-25.657L353.286,74.333z"/>
		<path fill="#7570B3" d="M378.943,74.333H383v20h-4.057V74.333z"/>
		<path fill="#CCCCCC" d="M383,74.333L383,74.333v20l0,0V74.333z"/>
	</g>
	<path fill="none" d="M103.5,267.5L103.5,267.5L103.5,267.5L103.5,267.5z"/>
	<g>
		<g>
			<line fill="none" stroke="#888888" x1="103.5" y1="267.5" x2="103.5" y2="272.5"/>
			<line fill="none" stroke="#888888" x1="217.5" y1="267.5" x2="217.5" y2="272.5"/>
			<line fill="none" stroke="#888888" x1="274.5" y1="267.5" x2="274.5" y2="272.5"/>
			<line fill="none" stroke="#888888" x1="332.5" y1="267.5" x2="332.5" y2="272.5"/>
			<line fill="none" stroke="#888888" x1="389.5" y1="267.5" x2="389.5" y2="272.5"/>
			<line fill="none" stroke="#888888" x1="446.5" y1="267.5" x2="446.5" y2="272.5"/>
			<line fill="none" stroke="#888888" x1="503.5" y1="267.5" x2="503.5" y2="272.5"/>
			<line fill="none" stroke="#000000" stroke-miterlimit="10" x1="161" y1="273" x2="160.5" y2="49.5"/>
		</g>
		<polyline fill="none" stroke="#888888" points="103.5,267.5 160.5,267.5 549.5,267.5 		"/>
	</g>
	<g>
		<g>
			<path fill="#E7298A" d="M121.5,31.143h10v10h-10"/>
			<g>
				<g display="none">
					<text transform="matrix(1 0 0 1 136.5 39.1429)" display="inline" font-family="'ArialMT'" font-size="10px">T</text>
					<text transform="matrix(1 0 0 1 142.2373 39.1429)" display="inline" font-family="'ArialMT'" font-size="10px">r</text>
					<text transform="matrix(1 0 0 1 145.5674 39.1429)" display="inline" font-family="'ArialMT'" font-size="10px">a</text>
					<text transform="matrix(1 0 0 1 151.1289 39.1429)" display="inline" font-family="'ArialMT'" font-size="10px">d</text>
					<text transform="matrix(1 0 0 1 156.6904 39.1429)" display="inline" font-family="'ArialMT'" font-size="10px">e</text>
				</g>
			</g>
		</g>
		<g>
			<path fill="#66A61E" d="M121.5,17h10v10h-10"/>
			<g>
				<text transform="matrix(1 0 0 1 136.5 25)" display="none" font-family="'ArialMT'" font-size="10px">Services</text>
			</g>
		</g>
	</g>
	<g>
		<g>
			<path fill="#1B9E77" d="M293.833,17h10v10h-10"/>
			<g>
				<text transform="matrix(1 0 0 1 308.8333 25.0001)" display="none" font-family="'ArialMT'" font-size="10px">Natural Resources</text>
			</g>
		</g>
		<g>
			<path fill="#D95F02" d="M293.833,31.143h10v10h-10"/>
			<g>
				<text transform="matrix(1 0 0 1 308.8333 39.143)" display="none" font-family="'ArialMT'" font-size="10px">Construction</text>
			</g>
		</g>
	</g>
	<g>
		<g>
			<path fill="#E6AB02" d="M200.167,31.142h10v10h-10"/>
			<g>
				<text transform="matrix(1 0 0 1 215.1667 39.1425)" display="none" font-family="'ArialMT'" font-size="10px">Healthcare</text>
			</g>
		</g>
		<g>
			<path fill="#A6761D" d="M200.167,17h10v10h-10"/>
			<g>
				<text transform="matrix(1 0 0 1 215.1667 24.9996)" display="none" font-family="'ArialMT'" font-size="10px">Government</text>
			</g>
		</g>
	</g>
	<g>
		<g>
			<path fill="#7570B3" d="M412.5,17h10v10h-10"/>
			<g>
				<text transform="matrix(1 0 0 1 427.5 24.9997)" display="none" font-family="'ArialMT'" font-size="10px">Manufacturing</text>
			</g>
		</g>
		<g>
			<path fill="#CCCCCC" d="M412.5,31.143h10v10h-10"/>
			<g>
				<text transform="matrix(1 0 0 1 427.5 39.1426)" display="none" font-family="'ArialMT'" font-size="10px">Uncategorized</text>
			</g>
		</g>
	</g>
	<g>
		<path fill="none" stroke="#000000" stroke-miterlimit="10" d="M327,171.5c-34.49,0-39.314-14.979-39.687-21.977"/>
		<g>
			<polygon points="287.5,146 289.332,151.052 287.348,149.791 285.271,150.889 			"/>
		</g>
	</g>
	<g>
		<path fill="none" stroke="#000000" stroke-miterlimit="10" d="M310,221.5c-17.817,0-30.358,1.759-31.851,18.47"/>
		<g>
			<polygon points="278,243.5 276.231,238.426 278.199,239.711 280.29,238.639 			"/>
		</g>
	</g>
	<g>
		<line fill="none" stroke="#000000" stroke-miterlimit="10" x1="468.5" y1="99" x2="431.03" y2="99"/>
		<g>
			<polygon points="427.5,99 432.475,96.967 431.294,99 432.475,101.032 			"/>
		</g>
	</g>
</g>
<style type="text/css">
#g-mt-economy-3-regional-change-medium-img rect, #g-mt-economy-3-regional-change-medium-img circle, #g-mt-economy-3-regional-change-medium-img path, #g-mt-economy-3-regional-change-medium-img line, #g-mt-economy-3-regional-change-medium-img polyline { vector-effect: non-scaling-stroke; }
</style>
</svg>

