<?xml version="1.0" encoding="utf-8"?>
<!-- Generator: Adobe Illustrator 22.1.0, SVG Export Plug-In . SVG Version: 6.00 Build 0)  -->
<svg version="1.2" baseProfile="tiny" id="g-mt-economy-4-sector-change-mobile-img" xmlns="http://www.w3.org/2000/svg" xmlns:xlink="http://www.w3.org/1999/xlink"
	 x="0px" y="0px" viewBox="0 0 300 363" xml:space="preserve">
<g>
	<rect x="130.5" y="277.5" fill="#EDDC22" fill-opacity="0.2" width="153" height="75"/>
	<rect x="56.5" y="147.5" fill="#EDDC22" fill-opacity="0.2" width="74" height="130"/>
	<g transform="translate(60,40)">
		<g transform="translate(0,0)">
			<g transform="translate(0,207.16666666666663)">
				<line fill="none" stroke="#000000" x1="-3.514" y1="81.75" x2="-8.013" y2="81.75"/>
				<line display="none" fill="none" stroke="#000000" stroke-opacity="0.1" x1="-6.514" y1="81.75" x2="223.443" y2="81.75"/>
			</g>
			<g transform="translate(0,207.16666666666663)">
				<line fill="none" stroke="#000000" x1="-3.514" y1="104.75" x2="-8.013" y2="104.75"/>
				<line display="none" fill="none" stroke="#000000" stroke-opacity="0.1" x1="-6.514" y1="104.75" x2="223.443" y2="104.75"/>
				<text transform="matrix(1 0 0 1 -33.1128 107.1497)" display="none" font-family="'ArialMT'" font-size="10px">-40%</text>
			</g>
			<g transform="translate(0,172.72222222222217)">
				<line fill="none" stroke="#000000" x1="-3.514" y1="90.366" x2="-8.013" y2="90.366"/>
				<line fill="none" stroke="#000000" x1="-3.514" y1="90.366" x2="223.443" y2="90.366"/>
				<text transform="matrix(1 0 0 1 -21.9326 92.7651)" display="none" font-family="'ArialMT'" font-size="10px">0%</text>
			</g>
			<g transform="translate(0,138.27777777777774)">
				<line fill="none" stroke="#000000" x1="-3.514" y1="98.982" x2="-8.013" y2="98.982"/>
				<line display="none" fill="none" stroke="#000000" stroke-opacity="0.1" x1="-6.514" y1="98.982" x2="223.443" y2="98.982"/>
			</g>
			<g transform="translate(0,103.83333333333329)">
				<line fill="none" stroke="#000000" x1="-3.514" y1="107.597" x2="-8.013" y2="107.597"/>
				<line display="none" fill="none" stroke="#000000" stroke-opacity="0.1" x1="-6.514" y1="107.597" x2="223.443" y2="107.597"/>
				<text transform="matrix(1 0 0 1 -42.5044 109.9967)" display="none" font-family="'ArialMT'" font-size="10px">+40%</text>
			</g>
			<g transform="translate(0,69.38888888888886)">
				<line fill="none" stroke="#000000" x1="-3.514" y1="116.213" x2="-8.013" y2="116.213"/>
				<line display="none" fill="none" stroke="#000000" stroke-opacity="0.1" x1="-6.514" y1="116.213" x2="223.5" y2="116.213"/>
				<text transform="matrix(1 0 0 1 -42.5044 118.6131)" display="none" font-family="'ArialMT'" font-size="10px">+60%</text>
			</g>
			<g transform="translate(0,34.94444444444443)">
				<line fill="none" stroke="#000000" x1="-3.514" y1="124.829" x2="-8.013" y2="124.829"/>
				<line display="none" fill="none" stroke="#000000" stroke-opacity="0.1" x1="-6.514" y1="124.829" x2="223.443" y2="124.829"/>
				<text transform="matrix(1 0 0 1 -42.5044 127.2284)" display="none" font-family="'ArialMT'" font-size="10px">+80%</text>
			</g>
			<g transform="translate(0,34.94444444444443)">
				<line fill="none" stroke="#000000" x1="-3.514" y1="98.829" x2="-8.013" y2="98.829"/>
				<line display="none" fill="none" stroke="#000000" stroke-opacity="0.1" x1="-6.514" y1="98.829" x2="223.443" y2="98.829"/>
				<text transform="matrix(1 0 0 1 -42.5044 101.2284)" display="none" font-family="'ArialMT'" font-size="10px">+80%</text>
			</g>
			<g transform="translate(0,34.94444444444443)">
				<line fill="none" stroke="#000000" x1="-3.514" y1="72.829" x2="-8.013" y2="72.829"/>
				<line fill="none" stroke="#000000" x1="-3.514" y1="72.829" x2="223.443" y2="72.829"/>
				<text transform="matrix(1 0 0 1 -42.5044 75.2284)" display="none" font-family="'ArialMT'" font-size="10px">+80%</text>
			</g>
			<g transform="translate(0,0.5)">
				<line fill="none" stroke="#000000" x1="-3.514" y1="133.445" x2="-8.013" y2="133.445"/>
				<path fill="none" stroke="#000000" d="M223.443,133.445"/>
				<path fill="none" stroke="#000000" d="M-3.514,133.445"/>
				<text transform="matrix(1 0 0 1 -47.2363 135.8438)" display="none" font-family="'ArialMT'" font-size="10px">+100%</text>
			</g>
			<path fill="none" stroke="#000000" d="M-3.139,312.5v-205"/>
		</g>
		<g transform="translate(0,0)">
			<g transform="translate(0.5,0)">
				<line fill="none" stroke="#000000" x1="-3.639" y1="108.57" x2="-3.639" y2="104.071"/>
				<text transform="matrix(1 0 0 1 -9.3711 99.8213)" display="none" font-family="'ArialMT'" font-size="10px">$0</text>
			</g>
			<g transform="translate(133.83333333333334,0)">
				<line fill="none" stroke="#000000" x1="-36.99" y1="107.57" x2="-36.99" y2="104.071"/>
				<text transform="matrix(1 0 0 1 -50.2205 99.8213)" display="none" font-family="'ArialMT'" font-size="10px">$50K</text>
			</g>
			<g transform="translate(267.1666666666667,0)">
				<line fill="none" stroke="#000000" x1="-73.342" y1="107.57" x2="-73.342" y2="104.071"/>
				<text transform="matrix(1 0 0 1 -86.4381 99.8213)" display="none" font-family="'ArialMT'" font-size="10px">$100K</text>
			</g>
		</g>
		<g>
			<g>
				<line fill="none" stroke="#666666" x1="-6.514" y1="237.452" x2="-4.514" y2="237.448"/>
				<line fill="none" stroke="#666666" stroke-dasharray="3.9817,3.9817" x1="-0.532" y1="237.441" x2="220.452" y2="237.008"/>
				<line fill="none" stroke="#666666" x1="222.443" y1="237.004" x2="224.443" y2="237"/>
			</g>
		</g>
		<g transform="translate(320,133.5348147592504)">
			<g display="none">
				<text transform="matrix(1 0 0 1 -371.9297 95.1683)" display="inline" font-family="'ArialMT'" font-size="10px">Montana</text>
				<text transform="matrix(1 0 0 1 -362.4717 107.1683)" display="inline" font-family="'ArialMT'" font-size="10px">overall</text>
				<text transform="matrix(1 0 0 1 -373.8682 119.1683)" display="inline" font-family="'ArialMT'" font-size="10px">(+19.6%)</text>
			</g>
		</g>
		<g>
			<line fill="none" stroke="#666666" stroke-dasharray="4" x1="71" y1="108.5" x2="70" y2="312.5"/>
		</g>
		<g transform="translate(103.392,20)">
			<g display="none">
				<text transform="matrix(1 0 0 1 -23.3759 98.7031)" display="inline" font-family="'ArialMT'" font-size="10px">Montana avg.</text>
				<text transform="matrix(1 0 0 1 -23.3759 110.7031)" display="inline" font-family="'ArialMT'" font-size="10px">$36,900</text>
			</g>
		</g>
		<g>
			<g transform="translate(70.27604568370873,154.28981295716278)">
				<circle fill="#E7298A" fill-opacity="0.7" stroke="#E7298A" stroke-opacity="0.9" cx="-21.092" cy="94.977" r="11.974"/>
				
					<text transform="matrix(1 0 0 1 -9.3688 105.9758)" display="none" fill="#E7298A" font-family="'Arial-ItalicMT'" font-size="10px">Retail</text>
				
					<text transform="matrix(1 0 0 1 38.6312 79.9758)" display="none" fill="#E7298A" font-family="'Arial-ItalicMT'" font-size="10px">Wholesale trade</text>
			</g>
			<g transform="translate(131.07454394253057,112.36744693406767)">
				<circle fill="#E6AB02" fill-opacity="0.7" stroke="#E6AB02" stroke-opacity="0.9" cx="-36.3" cy="105.463" r="11.884"/>
				<g display="none">
					
						<text transform="matrix(1 0 0 1 -23.6663 94.4626)" display="inline" fill="#E6AB02" font-family="'Arial-ItalicMT'" font-size="10px">Healthcare</text>
					
						<text transform="matrix(1 0 0 1 -23.6663 106.4626)" display="inline" fill="#E6AB02" font-family="'Arial-ItalicMT'" font-size="10px">&amp; social work</text>
				</g>
			</g>
			<g transform="translate(55.74982633207603,127.78223165963672)">
				<circle fill="#66A61E" fill-opacity="0.7" stroke="#66A61E" stroke-opacity="0.9" cx="-17.459" cy="101.607" r="10.432"/>
			</g>
			<g transform="translate(140.49815098322955,160.1188872927515)">
				<circle fill="#A6761D" fill-opacity="0.7" stroke="#A6761D" stroke-opacity="0.9" cx="-38.657" cy="93.518" r="9.454"/>
			</g>
			<circle fill="#D95F02" fill-opacity="0.8" stroke="#D95F02" stroke-opacity="0.9" cx="68.74" cy="240.2" r="9.203"/>
			<g transform="translate(105.0811281034153,112.90942545942191)">
				<circle fill="#66A61E" fill-opacity="0.7" stroke="#66A61E" stroke-opacity="0.9" cx="-29.798" cy="105.327" r="8.475"/>
			</g>
			<g transform="translate(17.534895718181147,20.95561092654114)">
				<circle fill="#66A61E" fill-opacity="0.7" stroke="#66A61E" stroke-opacity="0.9" cx="-7.9" cy="128.328" r="8.235"/>
				
					<text transform="matrix(1 0 0 1 0.0847 122.3276)" display="none" fill="#66A61E" font-family="'Arial-ItalicMT'" font-size="10px">Real estate</text>
				
					<text transform="matrix(1 0 0 1 117.0847 124.3276)" display="none" fill="#66A61E" font-family="'Arial-ItalicMT'" font-size="10px">Business mangement</text>
			</g>
			<g transform="translate(55.422461090583354,146.82562625581284)">
				<circle fill="#66A61E" fill-opacity="0.7" stroke="#66A61E" stroke-opacity="0.9" cx="-17.377" cy="96.844" r="8.183"/>
			</g>
			<g transform="translate(25.696455217694062,184.0656908761528)">
				<circle fill="#1B9E77" fill-opacity="0.7" stroke="#1B9E77" stroke-opacity="0.9" cx="-9.941" cy="87.528" r="7.518"/>
				
					<text transform="matrix(1 0 0 1 -2.674 98.5281)" display="none" fill="#1B9E77" font-family="'Arial-ItalicMT'" font-size="10px">Farm</text>
			</g>
			<g transform="translate(157.90061856169277,148.33629684764776)">
				<circle fill="#A6761D" fill-opacity="0.7" stroke="#A6761D" stroke-opacity="0.9" cx="-43.01" cy="96.466" r="7.184"/>
				
					<text transform="matrix(1 0 0 1 -32.0769 100.4655)" display="none" fill="#A6761D" font-family="'Arial-ItalicMT'" font-size="10px">State govt.</text>
				
					<text transform="matrix(1 0 0 1 -46.0769 112.4655)" display="none" fill="#A6761D" font-family="'Arial-ItalicMT'" font-size="10px">Local govt.</text>
			</g>
			<g transform="translate(128.50048527984472,134.83125789568666)">
				<circle fill="#66A61E" fill-opacity="0.7" stroke="#66A61E" stroke-opacity="0.9" cx="-35.656" cy="99.844" r="6.808"/>
			</g>
			<g transform="translate(73.09093409237794,149.98550882150488)">
				<circle fill="#66A61E" fill-opacity="0.7" stroke="#66A61E" stroke-opacity="0.9" cx="-21.796" cy="96.053" r="6.741"/>
			</g>
			<g transform="translate(136.41323513000782,176.00050935021463)">
				<circle fill="#7570B3" fill-opacity="0.7" stroke="#7570B3" stroke-opacity="0.9" cx="-37.636" cy="89.546" r="6.692"/>
				
					<text transform="matrix(1 0 0 1 -29.194 96.5454)" display="none" fill="#7570B3" font-family="'Arial-ItalicMT'" font-size="10px">Manufacturing</text>
			</g>
			<g transform="translate(142.03635328176168,132.6495078012528)">
				<circle fill="#E7298A" fill-opacity="0.7" stroke="#E7298A" stroke-opacity="0.9" cx="-39.042" cy="100.39" r="6.284"/>
			</g>
			<g transform="translate(45.846005934324594,98.58212251723536)">
				<circle fill="#66A61E" fill-opacity="0.7" stroke="#66A61E" stroke-opacity="0.9" cx="-14.982" cy="108.911" r="6.139"/>
				
					<text transform="matrix(1 0 0 1 -46.6053 98.911)" display="none" fill="#66A61E" font-family="'Arial-ItalicMT'" font-size="10px">Arts/recreation</text>
				
					<text transform="matrix(1 0 0 1 24.8947 197.911)" display="none" fill="#66A61E" font-family="'Arial-ItalicMT'" font-size="10px">Information</text>
			</g>
			<g transform="translate(133.10393545255195,147.75592006321529)">
				<circle fill="#E7298A" fill-opacity="0.7" stroke="#E7298A" stroke-opacity="0.9" cx="-36.808" cy="96.611" r="6.109"/>
			</g>
			<g transform="translate(257.71134123768076,168.62024055772616)">
				<circle fill="#A6761D" fill-opacity="0.7" stroke="#A6761D" stroke-opacity="0.9" cx="-67.977" cy="91.392" r="4.998"/>
				
					<text transform="matrix(1 0 0 1 -73.2299 81.3915)" display="none" fill="#A6761D" font-family="'Arial-ItalicMT'" font-size="10px">Federal</text>
				
					<text transform="matrix(1 0 0 1 -149.2299 116.3915)" display="none" fill="#A6761D" font-family="'Arial-ItalicMT'" font-size="10px">Military</text>
			</g>
			<g transform="translate(143.33498468504462,37.36920422345693)">
				<circle fill="#1B9E77" fill-opacity="0.7" stroke="#1B9E77" stroke-opacity="0.9" cx="-39.367" cy="124.223" r="4.843"/>
				
					<text transform="matrix(1 0 0 1 -32.7744 134.2226)" display="none" fill="#1B9E77" font-family="'Arial-ItalicMT'" font-size="10px">Mining/oil</text>
			</g>
			<g transform="translate(52.75946890286512,56.501927795303175)">
				<circle fill="#66A61E" fill-opacity="0.7" stroke="#66A61E" stroke-opacity="0.9" cx="-16.711" cy="119.437" r="4.229"/>
			</g>
			<g transform="translate(130.11425978633008,196.21483769422844)">
				<circle fill="#66A61E" fill-opacity="0.7" stroke="#66A61E" stroke-opacity="0.9" cx="-36.06" cy="84.49" r="3.892"/>
			</g>
			<g transform="translate(139.50689127105667,183.03631941952713)">
				<circle fill="#A6761D" fill-opacity="0.7" stroke="#A6761D" stroke-opacity="0.9" cx="-38.41" cy="87.786" r="3.832"/>
			</g>
			<g transform="translate(59.57928549724357,156.75008673163651)">
				<circle fill="#1B9E77" fill-opacity="0.7" stroke="#1B9E77" stroke-opacity="0.9" cx="-18.417" cy="94.361" r="3.794"/>
			</g>
			<g transform="translate(298.06264260526865,172.86285045119513)">
				<circle fill="#1B9E77" fill-opacity="0.7" stroke="#1B9E77" stroke-opacity="0.9" cx="-81.07" cy="90.331" r="2.454"/>
			</g>
			<g transform="translate(191.3545384018619,23.41126375833531)">
				<circle fill="#66A61E" fill-opacity="0.7" stroke="#66A61E" stroke-opacity="0.9" cx="-51.378" cy="127.714" r="2.198"/>
			</g>
		</g>
	</g>
	<g>
		<line fill="none" stroke="#000000" x1="139.5" y1="157.5" x2="136.03" y2="157.5"/>
		<g>
			<polygon points="132.5,157.5 137.475,155.467 136.294,157.5 137.475,159.532 			"/>
		</g>
	</g>
	<g>
		<g>
			<circle fill="#848484" fill-opacity="0.7" stroke="#848484" stroke-opacity="0.9" cx="131.53" cy="48.646" r="2.288"/>
			<circle fill="#848484" fill-opacity="0.7" stroke="#848484" stroke-opacity="0.9" cx="142.226" cy="48.646" r="5.835"/>
			<circle fill="#848484" fill-opacity="0.7" stroke="#848484" stroke-opacity="0.9" cx="160.449" cy="48.646" r="9.635"/>
			<g display="none">
				<text transform="matrix(1 0 0 1 175.4143 46.252)" display="inline" font-family="'Arial-ItalicMT'" font-size="10px">Bigger</text>
				<text transform="matrix(1 0 0 1 175.4143 56.252)" display="inline" font-family="'Arial-ItalicMT'" font-size="10px">sectors</text>
			</g>
			<g display="none">
				<text transform="matrix(1 0 0 1 92.3445 46.252)" display="inline" font-family="'Arial-ItalicMT'" font-size="10px">Smaller</text>
				<text transform="matrix(1 0 0 1 94.0095 56.252)" display="inline" font-family="'Arial-ItalicMT'" font-size="10px">sectors</text>
			</g>
		</g>
	</g>
	<g>
		<polygon fill="#EDDC22" fill-opacity="0.2" points="258.5,85 147.5,85.5 147.5,102.5 258.5,102.5 		"/>
		<rect x="40.5" y="68.5" fill="#EDDC22" fill-opacity="0.2" width="108" height="17"/>
		<g>
			<line fill="none" stroke="#666666" x1="40.5" y1="85.5" x2="42.5" y2="85.495"/>
			<line fill="none" stroke="#666666" stroke-dasharray="4.0566,4.0566" x1="46.557" y1="85.486" x2="255.472" y2="85.009"/>
			<line fill="none" stroke="#666666" x1="257.5" y1="85.005" x2="259.5" y2="85"/>
		</g>
		<line fill="none" stroke="#666666" stroke-dasharray="4" x1="148" y1="71.5" x2="148" y2="103"/>
	</g>
</g>
<style type="text/css">
#g-mt-economy-4-sector-change-mobile-img rect, #g-mt-economy-4-sector-change-mobile-img circle, #g-mt-economy-4-sector-change-mobile-img path, #g-mt-economy-4-sector-change-mobile-img line, #g-mt-economy-4-sector-change-mobile-img polyline { vector-effect: non-scaling-stroke; }
</style>
</svg>

