<?xml version="1.0" encoding="utf-8"?>
<!-- Generator: Adobe Illustrator 22.1.0, SVG Export Plug-In . SVG Version: 6.00 Build 0)  -->
<svg version="1.2" baseProfile="tiny" id="g-mt-economy-6-income-components-change-mobile-img" xmlns="http://www.w3.org/2000/svg" xmlns:xlink="http://www.w3.org/1999/xlink"
	 x="0px" y="0px" viewBox="0 0 300 412" xml:space="preserve">
<g>
	<g transform="translate(10,20)">
		<g transform="translate(35,30)">
			<g transform="translate(0,-3)">
				<g display="none">
					<text transform="matrix(1 0 0 1 -34.0527 0.5)" display="inline" font-family="'Arial-ItalicMT'" font-size="12px">T</text>
					<text transform="matrix(1 0 0 1 -27.8242 0.5)" display="inline" font-family="'Arial-ItalicMT'" font-size="12px">o</text>
					<text transform="matrix(1 0 0 1 -21.1504 0.5)" display="inline" font-family="'Arial-ItalicMT'" font-size="12px">t</text>
					<text transform="matrix(1 0 0 1 -17.8164 0.5)" display="inline" font-family="'Arial-ItalicMT'" font-size="12px">a</text>
					<text transform="matrix(1 0 0 1 -11.1426 0.5)" display="inline" font-family="'Arial-ItalicMT'" font-size="12px">l</text>
					<text transform="matrix(1 0 0 1 -8.4766 0.5)" display="inline" font-family="'Arial-ItalicMT'" font-size="12px"> </text>
					<text transform="matrix(1 0 0 1 -5.1426 0.5)" display="inline" font-family="'Arial-ItalicMT'" font-size="12px">i</text>
					<text transform="matrix(1 0 0 1 -2.4766 0.5)" display="inline" font-family="'Arial-ItalicMT'" font-size="12px">n</text>
					<text transform="matrix(1 0 0 1 4.1973 0.5)" display="inline" font-family="'Arial-ItalicMT'" font-size="12px">c</text>
					<text transform="matrix(1 0 0 1 10.1973 0.5)" display="inline" font-family="'Arial-ItalicMT'" font-size="12px">o</text>
					<text transform="matrix(1 0 0 1 16.8711 0.5)" display="inline" font-family="'Arial-ItalicMT'" font-size="12px">m</text>
					<text transform="matrix(1 0 0 1 26.8672 0.5)" display="inline" font-family="'Arial-ItalicMT'" font-size="12px">e</text>
				</g>
			</g>
			<g transform="translate(0,130)">
				<g transform="translate(0.5,0)">
					<line fill="none" stroke="#000000" x1="-0.053" y1="8.5" x2="-0.053" y2="14.5"/>
					<text transform="matrix(1 0 0 1 -11.1758 24.6)" display="none" font-family="'ArialMT'" font-size="10px">2001</text>
				</g>
				<g transform="translate(45.5,0)">
					<line fill="none" stroke="#000000" x1="-0.053" y1="8.5" x2="-0.053" y2="14.5"/>
					<text transform="matrix(1 0 0 1 -11.1758 24.6)" display="none" font-family="'ArialMT'" font-size="10px">2016</text>
				</g>
			</g>
			<g>
				<g transform="translate(0,130.5)">
					<line fill="none" stroke="#000000" x1="-0.053" y1="8.5" x2="-6.053" y2="8.5"/>
					<line fill="none" stroke="#000000" stroke-opacity="0.2" x1="-0.053" y1="8.5" x2="44.947" y2="8.5"/>
					<text transform="matrix(1 0 0 1 -30.082 10.7)" display="none" font-family="'ArialMT'" font-size="10px">40%</text>
				</g>
				<g transform="translate(0,104.5)">
					<line fill="none" stroke="#000000" x1="-0.053" y1="8.5" x2="-6.053" y2="8.5"/>
					<line fill="none" stroke="#000000" stroke-opacity="0.2" x1="-0.053" y1="8.5" x2="44.947" y2="8.5"/>
					<text transform="matrix(1 0 0 1 -30.082 10.7)" display="none" font-family="'ArialMT'" font-size="10px">60%</text>
				</g>
				<g transform="translate(0,78.5)">
					<line fill="none" stroke="#000000" x1="-0.053" y1="8.5" x2="-6.053" y2="8.5"/>
					<line fill="none" stroke="#000000" stroke-opacity="0.2" x1="-0.053" y1="8.5" x2="44.947" y2="8.5"/>
					<text transform="matrix(1 0 0 1 -30.082 10.7)" display="none" font-family="'ArialMT'" font-size="10px">80%</text>
				</g>
				<g transform="translate(0,52.499999999999986)">
					<line fill="none" stroke="#000000" x1="-0.053" y1="8.5" x2="-6.053" y2="8.5"/>
					<line fill="none" stroke="#000000" x1="-0.053" y1="8.5" x2="44.947" y2="8.5"/>
					<text transform="matrix(1 0 0 1 -35.6436 10.7)" display="none" font-family="'ArialMT'" font-size="10px">100%</text>
				</g>
				<g transform="translate(0,26.5)">
					<line fill="none" stroke="#000000" x1="-0.053" y1="8.5" x2="-6.053" y2="8.5"/>
					<line fill="none" stroke="#000000" stroke-opacity="0.2" x1="-0.053" y1="8.5" x2="44.947" y2="8.5"/>
					<text transform="matrix(1 0 0 1 -35.6436 10.7)" display="none" font-family="'ArialMT'" font-size="10px">120%</text>
				</g>
				<g transform="translate(0,0.5)">
					<line fill="none" stroke="#000000" x1="-0.053" y1="8.5" x2="-6.053" y2="8.5"/>
					<line fill="none" stroke="#000000" stroke-opacity="0.2" x1="-0.053" y1="8.5" x2="44.947" y2="8.5"/>
					<text transform="matrix(1 0 0 1 -35.6436 10.7)" display="none" font-family="'ArialMT'" font-size="10px">140%</text>
				</g>
			</g>
			<path fill="none" stroke="#86BF86" stroke-width="2" stroke-linecap="round" stroke-linejoin="round" stroke-opacity="0.2" d="
				M-0.053,78.054l45-12.859"/>
			<g>
				<circle fill="#86BF86" stroke="#FFFFFF" cx="-0.053" cy="78.054" r="3"/>
				<circle fill="#86BF86" stroke="#FFFFFF" cx="44.947" cy="65.195" r="3"/>
			</g>
			<path fill="none" stroke="#86BF86" stroke-width="2" stroke-linecap="round" stroke-linejoin="round" stroke-opacity="0.2" d="
				M-0.053,89.801l45-12.144"/>
			<g>
				<circle fill="#86BF86" stroke="#FFFFFF" cx="-0.053" cy="89.801" r="3"/>
				<circle fill="#86BF86" stroke="#FFFFFF" cx="44.947" cy="77.657" r="3"/>
			</g>
			<path fill="none" stroke="#86BF86" stroke-width="2" stroke-linecap="round" stroke-linejoin="round" stroke-opacity="0.2" d="
				M-0.053,76.33l45-3.916"/>
			<g>
				<circle fill="#86BF86" stroke="#FFFFFF" cx="-0.053" cy="76.33" r="3"/>
				<circle fill="#86BF86" stroke="#FFFFFF" cx="44.947" cy="72.415" r="3"/>
			</g>
			<path fill="none" stroke="#86BF86" stroke-width="2" stroke-linecap="round" stroke-linejoin="round" d="M-0.053,87.673
				l45-23.775"/>
			<g>
				<circle fill="#86BF86" stroke="#FFFFFF" cx="-0.053" cy="87.673" r="3"/>
				<circle fill="#86BF86" stroke="#FFFFFF" cx="44.947" cy="63.897" r="3"/>
			</g>
			<path fill="none" stroke="#86BF86" stroke-width="2" stroke-linecap="round" stroke-linejoin="round" stroke-opacity="0.2" d="
				M-0.053,83.147l45-4.316"/>
			<g>
				<circle fill="#86BF86" stroke="#FFFFFF" cx="-0.053" cy="83.147" r="3"/>
				<circle fill="#86BF86" stroke="#FFFFFF" cx="44.947" cy="78.831" r="3"/>
			</g>
			<path fill="none" stroke="#86BF86" stroke-width="2" stroke-linecap="round" stroke-linejoin="round" stroke-opacity="0.2" d="
				M-0.053,91.468l45-18.38"/>
			<g>
				<circle fill="#86BF86" stroke="#FFFFFF" cx="-0.053" cy="91.468" r="3"/>
				<circle fill="#86BF86" stroke="#FFFFFF" cx="44.947" cy="73.089" r="3"/>
			</g>
			<path fill="none" stroke="#86BF86" stroke-width="2" stroke-linecap="round" stroke-linejoin="round" stroke-opacity="0.2" d="
				M-0.053,82.941l45-6.944"/>
			<g>
				<circle fill="#86BF86" stroke="#FFFFFF" cx="-0.053" cy="82.941" r="3"/>
				<circle fill="#86BF86" stroke="#FFFFFF" cx="44.947" cy="75.997" r="3"/>
			</g>
			<path fill="none" stroke="#F2DF91" stroke-width="2" stroke-linecap="round" stroke-linejoin="round" d="M-0.053,100.211l45-13.3
				"/>
			<g>
				<circle fill="#F2DF91" stroke="#FFFFFF" cx="-0.053" cy="100.211" r="3"/>
				<circle fill="#F2DF91" stroke="#FFFFFF" cx="44.947" cy="86.91" r="3"/>
			</g>
			<path fill="none" stroke="#E5AE89" stroke-width="2" stroke-linecap="round" stroke-linejoin="round" d="M-0.053,105.022
				l45-15.175"/>
			<g>
				<circle fill="#E5AE89" stroke="#FFFFFF" cx="-0.053" cy="105.022" r="3"/>
				<circle fill="#E5AE89" stroke="#FFFFFF" cx="44.947" cy="89.847" r="3"/>
			</g>
			<path fill="none" stroke="#444444" stroke-width="2" stroke-linecap="round" stroke-linejoin="round" d="M-0.053,90.276
				l45-13.147"/>
			<g>
				<circle fill="#444444" stroke="#FFFFFF" cx="-0.053" cy="90.276" r="3"/>
				<circle fill="#444444" stroke="#FFFFFF" cx="44.947" cy="77.129" r="3"/>
			</g>
			<text transform="matrix(1 0 0 1 49.9473 62.8972)" display="none" fill="#86BF86" font-family="'ArialMT'" font-size="12px">Bozeman</text>
			<text transform="matrix(1 0 0 1 49.9473 91.9105)" display="none" fill="#F2DF91" font-family="'ArialMT'" font-size="12px">Plains</text>
			<text transform="matrix(1 0 0 1 49.9473 101.8469)" display="none" fill="#E5AE89" font-family="'ArialMT'" font-size="12px">Mountains</text>
			<text transform="matrix(1 0 0 1 49.9473 82.129)" display="none" fill="#444444" font-family="'ArialMT'" font-size="12px">Statewide</text>
		</g>
		<g transform="translate(175,30)">
			<g transform="translate(0,-3)">
				<g display="none">
					<text transform="matrix(1 0 0 1 -32.0527 0.5)" display="inline" font-family="'Arial-ItalicMT'" font-size="12px">W</text>
					<text transform="matrix(1 0 0 1 -20.9434 0.5)" display="inline" font-family="'Arial-ItalicMT'" font-size="12px">a</text>
					<text transform="matrix(1 0 0 1 -14.2695 0.5)" display="inline" font-family="'Arial-ItalicMT'" font-size="12px">g</text>
					<text transform="matrix(1 0 0 1 -7.5957 0.5)" display="inline" font-family="'Arial-ItalicMT'" font-size="12px">e</text>
					<text transform="matrix(1 0 0 1 -0.9219 0.5)" display="inline" font-family="'Arial-ItalicMT'" font-size="12px"> </text>
					<text transform="matrix(1 0 0 1 2.4121 0.5)" display="inline" font-family="'Arial-ItalicMT'" font-size="12px">i</text>
					<text transform="matrix(1 0 0 1 5.0781 0.5)" display="inline" font-family="'Arial-ItalicMT'" font-size="12px">n</text>
					<text transform="matrix(1 0 0 1 11.752 0.5)" display="inline" font-family="'Arial-ItalicMT'" font-size="12px">c</text>
					<text transform="matrix(1 0 0 1 17.752 0.5)" display="inline" font-family="'Arial-ItalicMT'" font-size="12px">o</text>
					<text transform="matrix(1 0 0 1 24.4258 0.5)" display="inline" font-family="'Arial-ItalicMT'" font-size="12px">m</text>
					<text transform="matrix(1 0 0 1 34.4219 0.5)" display="inline" font-family="'Arial-ItalicMT'" font-size="12px">e</text>
				</g>
			</g>
			<g transform="translate(0,130)">
				<g transform="translate(0.5,0)">
					<line fill="none" stroke="#000000" x1="-0.053" y1="8.5" x2="-0.053" y2="14.5"/>
					<text transform="matrix(1 0 0 1 -11.1758 24.6)" display="none" font-family="'ArialMT'" font-size="10px">2001</text>
				</g>
				<g transform="translate(45.5,0)">
					<line fill="none" stroke="#000000" x1="-0.053" y1="8.5" x2="-0.053" y2="14.5"/>
					<text transform="matrix(1 0 0 1 -11.1758 24.6)" display="none" font-family="'ArialMT'" font-size="10px">2016</text>
				</g>
			</g>
			<g>
				<g transform="translate(0,130.5)">
					<line fill="none" stroke="#000000" x1="-0.053" y1="8.5" x2="-6.053" y2="8.5"/>
					<line fill="none" stroke="#000000" stroke-opacity="0.2" x1="-0.053" y1="8.5" x2="44.947" y2="8.5"/>
					<text transform="matrix(1 0 0 1 -29.082 11.7)" display="none" font-family="'ArialMT'" font-size="10px">40%</text>
				</g>
				<g transform="translate(0,104.5)">
					<line fill="none" stroke="#000000" x1="-0.053" y1="8.5" x2="-6.053" y2="8.5"/>
					<line fill="none" stroke="#000000" stroke-opacity="0.2" x1="-0.053" y1="8.5" x2="44.947" y2="8.5"/>
					<text transform="matrix(1 0 0 1 -29.082 11.7)" display="none" font-family="'ArialMT'" font-size="10px">60%</text>
				</g>
				<g transform="translate(0,78.5)">
					<line fill="none" stroke="#000000" x1="-0.053" y1="8.5" x2="-6.053" y2="8.5"/>
					<line fill="none" stroke="#000000" stroke-opacity="0.2" x1="-0.053" y1="8.5" x2="44.947" y2="8.5"/>
					<text transform="matrix(1 0 0 1 -29.082 11.7)" display="none" font-family="'ArialMT'" font-size="10px">80%</text>
				</g>
				<g transform="translate(0,52.499999999999986)">
					<line fill="none" stroke="#000000" x1="-0.053" y1="8.5" x2="-6.053" y2="8.5"/>
					<line fill="none" stroke="#000000" x1="-0.053" y1="8.5" x2="44.947" y2="8.5"/>
					<text transform="matrix(1 0 0 1 -34.6436 11.7)" display="none" font-family="'ArialMT'" font-size="10px">100%</text>
				</g>
				<g transform="translate(0,26.5)">
					<line fill="none" stroke="#000000" x1="-0.053" y1="8.5" x2="-6.053" y2="8.5"/>
					<line fill="none" stroke="#000000" stroke-opacity="0.2" x1="-0.053" y1="8.5" x2="44.947" y2="8.5"/>
					<text transform="matrix(1 0 0 1 -34.6436 11.7)" display="none" font-family="'ArialMT'" font-size="10px">120%</text>
				</g>
				<g transform="translate(0,0.5)">
					<line fill="none" stroke="#000000" x1="-0.053" y1="8.5" x2="-6.053" y2="8.5"/>
					<line fill="none" stroke="#000000" stroke-opacity="0.2" x1="-0.053" y1="8.5" x2="44.947" y2="8.5"/>
					<text transform="matrix(1 0 0 1 -34.6436 11.7)" display="none" font-family="'ArialMT'" font-size="10px">140%</text>
				</g>
			</g>
			<path fill="none" stroke="#86BF86" stroke-width="2" stroke-linecap="round" stroke-linejoin="round" d="M-0.053,74.659
				l45-13.005"/>
			<g>
				<circle fill="#86BF86" stroke="#FFFFFF" cx="-0.053" cy="74.659" r="3"/>
				<circle fill="#86BF86" stroke="#FFFFFF" cx="44.947" cy="61.654" r="3"/>
			</g>
			<path fill="none" stroke="#86BF86" stroke-width="2" stroke-linecap="round" stroke-linejoin="round" stroke-opacity="0.2" d="
				M-0.053,98.206l45-4.582"/>
			<g>
				<circle fill="#86BF86" stroke="#FFFFFF" cx="-0.053" cy="98.206" r="3"/>
				<circle fill="#86BF86" stroke="#FFFFFF" cx="44.947" cy="93.624" r="3"/>
			</g>
			<path fill="none" stroke="#86BF86" stroke-width="2" stroke-linecap="round" stroke-linejoin="round" stroke-opacity="0.2" d="
				M-0.053,74.713l45-12.693"/>
			<g>
				<circle fill="#86BF86" stroke="#FFFFFF" cx="-0.053" cy="74.713" r="3"/>
				<circle fill="#86BF86" stroke="#FFFFFF" cx="44.947" cy="62.02" r="3"/>
			</g>
			<path fill="none" stroke="#86BF86" stroke-width="2" stroke-linecap="round" stroke-linejoin="round" d="M-0.053,91.238
				l45-19.834"/>
			<g>
				<circle fill="#86BF86" stroke="#FFFFFF" cx="-0.053" cy="91.238" r="3"/>
				<circle fill="#86BF86" stroke="#FFFFFF" cx="44.947" cy="71.404" r="3"/>
			</g>
			<path fill="none" stroke="#86BF86" stroke-width="2" stroke-linecap="round" stroke-linejoin="round" stroke-opacity="0.2" d="
				M-0.053,102.732l45-6.81"/>
			<g>
				<circle fill="#86BF86" stroke="#FFFFFF" cx="-0.053" cy="102.732" r="3"/>
				<circle fill="#86BF86" stroke="#FFFFFF" cx="44.947" cy="95.922" r="3"/>
			</g>
			<path fill="none" stroke="#86BF86" stroke-width="2" stroke-linecap="round" stroke-linejoin="round" stroke-opacity="0.2" d="
				M-0.053,112.585l45-17.711"/>
			<g>
				<circle fill="#86BF86" stroke="#FFFFFF" cx="-0.053" cy="112.585" r="3"/>
				<circle fill="#86BF86" stroke="#FFFFFF" cx="44.947" cy="94.874" r="3"/>
			</g>
			<path fill="none" stroke="#86BF86" stroke-width="2" stroke-linecap="round" stroke-linejoin="round" stroke-opacity="0.2" d="
				M-0.053,98.152l45-13.425"/>
			<g>
				<circle fill="#86BF86" stroke="#FFFFFF" cx="-0.053" cy="98.152" r="3"/>
				<circle fill="#86BF86" stroke="#FFFFFF" cx="44.947" cy="84.727" r="3"/>
			</g>
			<path fill="none" stroke="#F2DF91" stroke-width="2" stroke-linecap="round" stroke-linejoin="round" d="M-0.053,125.284
				l45-16.454"/>
			<g>
				<circle fill="#F2DF91" stroke="#FFFFFF" cx="-0.053" cy="125.284" r="3"/>
				<circle fill="#F2DF91" stroke="#FFFFFF" cx="44.947" cy="108.83" r="3"/>
			</g>
			<path fill="none" stroke="#E5AE89" stroke-width="2" stroke-linecap="round" stroke-linejoin="round" d="M-0.053,136.468
				l45-6.437"/>
			<g>
				<circle fill="#E5AE89" stroke="#FFFFFF" cx="-0.053" cy="136.468" r="3"/>
				<circle fill="#E5AE89" stroke="#FFFFFF" cx="44.947" cy="130.031" r="3"/>
			</g>
			<path fill="none" stroke="#444444" stroke-width="2" stroke-linecap="round" stroke-linejoin="round" d="M-0.053,104.768
				l45-13.277"/>
			<g>
				<circle fill="#444444" stroke="#FFFFFF" cx="-0.053" cy="104.768" r="3"/>
				<circle fill="#444444" stroke="#FFFFFF" cx="44.947" cy="91.491" r="3"/>
			</g>
			<text transform="matrix(1 0 0 1 49.9473 60.6539)" display="none" fill="#86BF86" font-family="'ArialMT'" font-size="12px">Billings</text>
			<text transform="matrix(1 0 0 1 49.9473 76.4042)" display="none" fill="#86BF86" font-family="'ArialMT'" font-size="12px">Bozeman</text>
			<text transform="matrix(1 0 0 1 49.9473 113.8302)" display="none" fill="#F2DF91" font-family="'ArialMT'" font-size="12px">Plains</text>
			<text transform="matrix(1 0 0 1 49.9473 135.031)" display="none" fill="#E5AE89" font-family="'ArialMT'" font-size="12px">Mountains</text>
			<text transform="matrix(1 0 0 1 49.9473 96.491)" display="none" fill="#444444" font-family="'ArialMT'" font-size="12px">Statewide</text>
		</g>
		<g transform="translate(35,220)">
			<g transform="translate(0,-3)">
				<text transform="matrix(1 0 0 1 -34.0527 -1.5)" display="none" font-family="'Arial-ItalicMT'" font-size="12px">Investment income</text>
			</g>
			<g transform="translate(0,130)">
				<g transform="translate(0.5,0)">
					<line fill="none" stroke="#000000" x1="-0.053" y1="8.5" x2="-0.053" y2="14.5"/>
					<text transform="matrix(1 0 0 1 -11.1758 24.6)" display="none" font-family="'ArialMT'" font-size="10px">2001</text>
				</g>
				<g transform="translate(45.5,0)">
					<line fill="none" stroke="#000000" x1="-0.053" y1="8.5" x2="-0.053" y2="14.5"/>
					<text transform="matrix(1 0 0 1 -11.1758 24.6)" display="none" font-family="'ArialMT'" font-size="10px">2016</text>
				</g>
			</g>
			<g>
				<g transform="translate(0,130.5)">
					<line fill="none" stroke="#000000" x1="-0.053" y1="8.5" x2="-6.053" y2="8.5"/>
					<line fill="none" stroke="#000000" stroke-opacity="0.2" x1="-0.053" y1="8.5" x2="44.947" y2="8.5"/>
					<text transform="matrix(1 0 0 1 -30.082 10.7)" display="none" font-family="'ArialMT'" font-size="10px">40%</text>
				</g>
				<g transform="translate(0,104.5)">
					<line fill="none" stroke="#000000" x1="-0.053" y1="8.5" x2="-6.053" y2="8.5"/>
					<line fill="none" stroke="#000000" stroke-opacity="0.2" x1="-0.053" y1="8.5" x2="44.947" y2="8.5"/>
					<text transform="matrix(1 0 0 1 -30.082 10.7)" display="none" font-family="'ArialMT'" font-size="10px">60%</text>
				</g>
				<g transform="translate(0,78.5)">
					<line fill="none" stroke="#000000" x1="-0.053" y1="8.5" x2="-6.053" y2="8.5"/>
					<line fill="none" stroke="#000000" stroke-opacity="0.2" x1="-0.053" y1="8.5" x2="44.947" y2="8.5"/>
					<text transform="matrix(1 0 0 1 -30.082 10.7)" display="none" font-family="'ArialMT'" font-size="10px">80%</text>
				</g>
				<g transform="translate(0,52.499999999999986)">
					<line fill="none" stroke="#000000" x1="-0.053" y1="8.5" x2="-6.053" y2="8.5"/>
					<line fill="none" stroke="#000000" x1="-0.053" y1="8.5" x2="44.947" y2="8.5"/>
					<text transform="matrix(1 0 0 1 -35.6436 10.7)" display="none" font-family="'ArialMT'" font-size="10px">100%</text>
				</g>
				<g transform="translate(0,26.5)">
					<line fill="none" stroke="#000000" x1="-0.053" y1="8.5" x2="-6.053" y2="8.5"/>
					<line fill="none" stroke="#000000" stroke-opacity="0.2" x1="-0.053" y1="8.5" x2="44.947" y2="8.5"/>
					<text transform="matrix(1 0 0 1 -35.6436 10.7)" display="none" font-family="'ArialMT'" font-size="10px">120%</text>
				</g>
				<g transform="translate(0,0.5)">
					<line fill="none" stroke="#000000" x1="-0.053" y1="8.5" x2="-6.053" y2="8.5"/>
					<line fill="none" stroke="#000000" stroke-opacity="0.2" x1="-0.053" y1="8.5" x2="44.947" y2="8.5"/>
					<text transform="matrix(1 0 0 1 -35.6436 10.7)" display="none" font-family="'ArialMT'" font-size="10px">140%</text>
				</g>
			</g>
			<path fill="none" stroke="#86BF86" stroke-width="2" stroke-linecap="round" stroke-linejoin="round" stroke-opacity="0.2" d="
				M-0.053,67.187l45,5.544"/>
			<g>
				<circle fill="#86BF86" stroke="#FFFFFF" cx="-0.053" cy="67.187" r="3"/>
				<circle fill="#86BF86" stroke="#FFFFFF" cx="44.947" cy="72.73" r="3"/>
			</g>
			<path fill="none" stroke="#86BF86" stroke-width="2" stroke-linecap="round" stroke-linejoin="round" d="M-0.053,59.011
				l45-30.571"/>
			<g>
				<circle fill="#86BF86" stroke="#FFFFFF" cx="-0.053" cy="59.011" r="3"/>
				<circle fill="#86BF86" stroke="#FFFFFF" cx="44.947" cy="28.44" r="3"/>
			</g>
			<path fill="none" stroke="#86BF86" stroke-width="2" stroke-linecap="round" stroke-linejoin="round" stroke-opacity="0.2" d="
				M-0.053,61.33l45-0.82"/>
			<g>
				<circle fill="#86BF86" stroke="#FFFFFF" cx="-0.053" cy="61.33" r="3"/>
				<circle fill="#86BF86" stroke="#FFFFFF" cx="44.947" cy="60.51" r="3"/>
			</g>
			<path fill="none" stroke="#86BF86" stroke-width="2" stroke-linecap="round" stroke-linejoin="round" d="M-0.053,35.625
				l45-14.017"/>
			<g>
				<circle fill="#86BF86" stroke="#FFFFFF" cx="-0.053" cy="35.625" r="3"/>
				<circle fill="#86BF86" stroke="#FFFFFF" cx="44.947" cy="21.607" r="3"/>
			</g>
			<path fill="none" stroke="#86BF86" stroke-width="2" stroke-linecap="round" stroke-linejoin="round" stroke-opacity="0.2" d="
				M-0.053,39.011l45,10.094"/>
			<g>
				<circle fill="#86BF86" stroke="#FFFFFF" cx="-0.053" cy="39.011" r="3"/>
				<circle fill="#86BF86" stroke="#FFFFFF" cx="44.947" cy="49.105" r="3"/>
			</g>
			<path fill="none" stroke="#86BF86" stroke-width="2" stroke-linecap="round" stroke-linejoin="round" d="M-0.053,75.113l45,1.535
				"/>
			<g>
				<circle fill="#86BF86" stroke="#FFFFFF" cx="-0.053" cy="75.113" r="3"/>
				<circle fill="#86BF86" stroke="#FFFFFF" cx="44.947" cy="76.648" r="3"/>
			</g>
			<path fill="none" stroke="#86BF86" stroke-width="2" stroke-linecap="round" stroke-linejoin="round" stroke-opacity="0.2" d="
				M-0.053,46.492l45,13.929"/>
			<g>
				<circle fill="#86BF86" stroke="#FFFFFF" cx="-0.053" cy="46.492" r="3"/>
				<circle fill="#86BF86" stroke="#FFFFFF" cx="44.947" cy="60.421" r="3"/>
			</g>
			<path fill="none" stroke="#F2DF91" stroke-width="2" stroke-linecap="round" stroke-linejoin="round" d="M-0.053,68.756l45-4.767
				"/>
			<g>
				<circle fill="#F2DF91" stroke="#FFFFFF" cx="-0.053" cy="68.756" r="3"/>
				<circle fill="#F2DF91" stroke="#FFFFFF" cx="44.947" cy="63.989" r="3"/>
			</g>
			<path fill="none" stroke="#E5AE89" stroke-width="2" stroke-linecap="round" stroke-linejoin="round" d="M-0.053,75.094l45-17.54
				"/>
			<g>
				<circle fill="#E5AE89" stroke="#FFFFFF" cx="-0.053" cy="75.094" r="3"/>
				<circle fill="#E5AE89" stroke="#FFFFFF" cx="44.947" cy="57.555" r="3"/>
			</g>
			<path fill="none" stroke="#444444" stroke-width="2" stroke-linecap="round" stroke-linejoin="round" d="M-0.053,60.728l45-7.218
				"/>
			<g>
				<circle fill="#444444" stroke="#FFFFFF" cx="-0.053" cy="60.728" r="3"/>
				<circle fill="#444444" stroke="#FFFFFF" cx="44.947" cy="53.51" r="3"/>
			</g>
			<text transform="matrix(1 0 0 1 49.9473 33.4395)" display="none" fill="#86BF86" font-family="'ArialMT'" font-size="12px">Missoula</text>
			<text transform="matrix(1 0 0 1 49.9473 21.6072)" display="none" fill="#86BF86" font-family="'ArialMT'" font-size="12px">Bozeman</text>
			<text transform="matrix(1 0 0 1 49.9473 81.6481)" display="none" fill="#86BF86" font-family="'ArialMT'" font-size="12px">Butte</text>
			<text transform="matrix(1 0 0 1 49.9473 67.5545)" display="none" fill="#E5AE89" font-family="'ArialMT'" font-size="12px">Mountains</text>
			<text transform="matrix(1 0 0 1 49.9473 58.5103)" display="none" fill="#444444" font-family="'ArialMT'" font-size="12px">Statewide</text>
		</g>
		<g transform="translate(175,220)">
			<g transform="translate(0,-3)">
				<g display="none">
					<text transform="matrix(1 0 0 1 -35.0527 -1.5)" display="inline" font-family="'Arial-ItalicMT'" font-size="12px">T</text>
					<text transform="matrix(1 0 0 1 -28.6133 -1.5)" display="inline" font-family="'Arial-ItalicMT'" font-size="12px">r</text>
					<text transform="matrix(1 0 0 1 -24.6172 -1.5)" display="inline" font-family="'Arial-ItalicMT'" font-size="12px">a</text>
					<text transform="matrix(1 0 0 1 -17.9434 -1.5)" display="inline" font-family="'Arial-ItalicMT'" font-size="12px">n</text>
					<text transform="matrix(1 0 0 1 -11.2695 -1.5)" display="inline" font-family="'Arial-ItalicMT'" font-size="12px">s</text>
					<text transform="matrix(1 0 0 1 -5.2695 -1.5)" display="inline" font-family="'Arial-ItalicMT'" font-size="12px">f</text>
					<text transform="matrix(1 0 0 1 -1.9355 -1.5)" display="inline" font-family="'Arial-ItalicMT'" font-size="12px">e</text>
					<text transform="matrix(1 0 0 1 4.7383 -1.5)" display="inline" font-family="'Arial-ItalicMT'" font-size="12px">r</text>
					<text transform="matrix(1 0 0 1 8.7344 -1.5)" display="inline" font-family="'Arial-ItalicMT'" font-size="12px"> </text>
					<text transform="matrix(1 0 0 1 12.0684 -1.5)" display="inline" font-family="'Arial-ItalicMT'" font-size="12px">i</text>
					<text transform="matrix(1 0 0 1 14.7344 -1.5)" display="inline" font-family="'Arial-ItalicMT'" font-size="12px">n</text>
					<text transform="matrix(1 0 0 1 21.4082 -1.5)" display="inline" font-family="'Arial-ItalicMT'" font-size="12px">c</text>
					<text transform="matrix(1 0 0 1 27.4082 -1.5)" display="inline" font-family="'Arial-ItalicMT'" font-size="12px">o</text>
					<text transform="matrix(1 0 0 1 34.082 -1.5)" display="inline" font-family="'Arial-ItalicMT'" font-size="12px">m</text>
					<text transform="matrix(1 0 0 1 44.0781 -1.5)" display="inline" font-family="'Arial-ItalicMT'" font-size="12px">e</text>
				</g>
			</g>
			<g transform="translate(0,130)">
				<g transform="translate(0.5,0)">
					<line fill="none" stroke="#000000" x1="-0.053" y1="8.5" x2="-0.053" y2="14.5"/>
					<text transform="matrix(1 0 0 1 -11.1758 24.6)" display="none" font-family="'ArialMT'" font-size="10px">2001</text>
				</g>
				<g transform="translate(45.5,0)">
					<line fill="none" stroke="#000000" x1="-0.053" y1="8.5" x2="-0.053" y2="14.5"/>
					<text transform="matrix(1 0 0 1 -11.1758 24.6)" display="none" font-family="'ArialMT'" font-size="10px">2016</text>
				</g>
			</g>
			<g>
				<g transform="translate(0,130.5)">
					<line fill="none" stroke="#000000" x1="-0.053" y1="8.5" x2="-6.053" y2="8.5"/>
					<line fill="none" stroke="#000000" stroke-opacity="0.2" x1="-0.053" y1="8.5" x2="44.947" y2="8.5"/>
					<text transform="matrix(1 0 0 1 -29.082 11.7)" display="none" font-family="'ArialMT'" font-size="10px">40%</text>
				</g>
				<g transform="translate(0,104.5)">
					<line fill="none" stroke="#000000" x1="-0.053" y1="8.5" x2="-6.053" y2="8.5"/>
					<line fill="none" stroke="#000000" stroke-opacity="0.2" x1="-0.053" y1="8.5" x2="44.947" y2="8.5"/>
					<text transform="matrix(1 0 0 1 -29.082 11.7)" display="none" font-family="'ArialMT'" font-size="10px">60%</text>
				</g>
				<g transform="translate(0,78.5)">
					<line fill="none" stroke="#000000" x1="-0.053" y1="8.5" x2="-6.053" y2="8.5"/>
					<line fill="none" stroke="#000000" stroke-opacity="0.2" x1="-0.053" y1="8.5" x2="44.947" y2="8.5"/>
					<text transform="matrix(1 0 0 1 -29.082 11.7)" display="none" font-family="'ArialMT'" font-size="10px">80%</text>
				</g>
				<g transform="translate(0,52.499999999999986)">
					<line fill="none" stroke="#000000" x1="-0.053" y1="8.5" x2="-6.053" y2="8.5"/>
					<line fill="none" stroke="#000000" x1="-0.053" y1="8.5" x2="44.947" y2="8.5"/>
					<text transform="matrix(1 0 0 1 -34.6436 11.7)" display="none" font-family="'ArialMT'" font-size="10px">100%</text>
				</g>
				<g transform="translate(0,26.5)">
					<line fill="none" stroke="#000000" x1="-0.053" y1="8.5" x2="-6.053" y2="8.5"/>
					<line fill="none" stroke="#000000" stroke-opacity="0.2" x1="-0.053" y1="8.5" x2="44.947" y2="8.5"/>
					<text transform="matrix(1 0 0 1 -34.6436 11.7)" display="none" font-family="'ArialMT'" font-size="10px">120%</text>
				</g>
				<g transform="translate(0,0.5)">
					<line fill="none" stroke="#000000" x1="-0.053" y1="8.5" x2="-6.053" y2="8.5"/>
					<line fill="none" stroke="#000000" stroke-opacity="0.2" x1="-0.053" y1="8.5" x2="44.947" y2="8.5"/>
					<text transform="matrix(1 0 0 1 -34.6436 11.7)" display="none" font-family="'ArialMT'" font-size="10px">140%</text>
				</g>
			</g>
			<path fill="none" stroke="#86BF86" stroke-width="2" stroke-linecap="round" stroke-linejoin="round" d="M-0.053,68.265l45,3.817
				"/>
			<g>
				<circle fill="#86BF86" stroke="#FFFFFF" cx="-0.053" cy="68.265" r="3"/>
				<circle fill="#86BF86" stroke="#FFFFFF" cx="44.947" cy="72.082" r="3"/>
			</g>
			<path fill="none" stroke="#86BF86" stroke-width="2" stroke-linecap="round" stroke-linejoin="round" stroke-opacity="0.2" d="
				M-0.053,76.064l45-8.289"/>
			<g>
				<circle fill="#86BF86" stroke="#FFFFFF" cx="-0.053" cy="76.064" r="3"/>
				<circle fill="#86BF86" stroke="#FFFFFF" cx="44.947" cy="67.774" r="3"/>
			</g>
			<path fill="none" stroke="#86BF86" stroke-width="2" stroke-linecap="round" stroke-linejoin="round" stroke-opacity="0.2" d="
				M-0.053,75.479l45-9.664"/>
			<g>
				<circle fill="#86BF86" stroke="#FFFFFF" cx="-0.053" cy="75.479" r="3"/>
				<circle fill="#86BF86" stroke="#FFFFFF" cx="44.947" cy="65.815" r="3"/>
			</g>
			<path fill="none" stroke="#86BF86" stroke-width="2" stroke-linecap="round" stroke-linejoin="round" d="M-0.053,111.327
				l45,1.674"/>
			<g>
				<circle fill="#86BF86" stroke="#FFFFFF" cx="-0.053" cy="111.327" r="3"/>
				<circle fill="#86BF86" stroke="#FFFFFF" cx="44.947" cy="113" r="3"/>
			</g>
			<path fill="none" stroke="#86BF86" stroke-width="2" stroke-linecap="round" stroke-linejoin="round" stroke-opacity="0.2" d="
				M-0.053,67.099l45-5.167"/>
			<g>
				<circle fill="#86BF86" stroke="#FFFFFF" cx="-0.053" cy="67.099" r="3"/>
				<circle fill="#86BF86" stroke="#FFFFFF" cx="44.947" cy="61.932" r="3"/>
			</g>
			<path fill="none" stroke="#86BF86" stroke-width="2" stroke-linecap="round" stroke-linejoin="round" d="M-0.053,28.171
				l45,12.984"/>
			<g>
				<circle fill="#86BF86" stroke="#FFFFFF" cx="-0.053" cy="28.171" r="3"/>
				<circle fill="#86BF86" stroke="#FFFFFF" cx="44.947" cy="41.155" r="3"/>
			</g>
			<path fill="none" stroke="#86BF86" stroke-width="2" stroke-linecap="round" stroke-linejoin="round" d="M-0.053,53.502l45-2.071
				"/>
			<g>
				<circle fill="#86BF86" stroke="#FFFFFF" cx="-0.053" cy="53.502" r="3"/>
				<circle fill="#86BF86" stroke="#FFFFFF" cx="44.947" cy="51.432" r="3"/>
			</g>
			<path fill="none" stroke="#F2DF91" stroke-width="2" stroke-linecap="round" stroke-linejoin="round" d="M-0.053,52.422l45,6.243
				"/>
			<g>
				<circle fill="#F2DF91" stroke="#FFFFFF" cx="-0.053" cy="52.422" r="3"/>
				<circle fill="#F2DF91" stroke="#FFFFFF" cx="44.947" cy="58.665" r="3"/>
			</g>
			<path fill="none" stroke="#E5AE89" stroke-width="2" stroke-linecap="round" stroke-linejoin="round" d="M-0.053,55.264
				l45-17.623"/>
			<g>
				<circle fill="#E5AE89" stroke="#FFFFFF" cx="-0.053" cy="55.264" r="3"/>
				<circle fill="#E5AE89" stroke="#FFFFFF" cx="44.947" cy="37.641" r="3"/>
			</g>
			<path fill="none" stroke="#444444" stroke-width="2" stroke-linecap="round" stroke-linejoin="round" d="M-0.053,64.729l45-0.306
				"/>
			<g>
				<circle fill="#444444" stroke="#FFFFFF" cx="-0.053" cy="64.729" r="3"/>
				<circle fill="#444444" stroke="#FFFFFF" cx="44.947" cy="64.424" r="3"/>
			</g>
			<text transform="matrix(1 0 0 1 49.9473 82.0819)" display="none" fill="#86BF86" font-family="'ArialMT'" font-size="12px">Billings</text>
			<text transform="matrix(1 0 0 1 49.9473 118.0004)" display="none" fill="#86BF86" font-family="'ArialMT'" font-size="12px">Bozeman</text>
			<text transform="matrix(1 0 0 1 49.9473 46.1547)" display="none" fill="#86BF86" font-family="'ArialMT'" font-size="12px">Butte</text>
			<text transform="matrix(1 0 0 1 49.9473 58.6647)" display="none" fill="#F2DF91" font-family="'ArialMT'" font-size="12px">Plains</text>
			<text transform="matrix(1 0 0 1 49.9473 35.6409)" display="none" fill="#E5AE89" font-family="'ArialMT'" font-size="12px">Mountains</text>
			<text transform="matrix(1 0 0 1 49.9473 69.4238)" display="none" fill="#444444" font-family="'ArialMT'" font-size="12px">Statewide</text>
		</g>
	</g>
</g>
<style type="text/css">
#g-mt-economy-6-income-components-change-mobile-img rect, #g-mt-economy-6-income-components-change-mobile-img circle, #g-mt-economy-6-income-components-change-mobile-img path, #g-mt-economy-6-income-components-change-mobile-img line, #g-mt-economy-6-income-components-change-mobile-img polyline { vector-effect: non-scaling-stroke; }
</style>
</svg>

