<?xml version="1.0" encoding="utf-8"?>
<!-- Generator: Adobe Illustrator 22.1.0, SVG Export Plug-In . SVG Version: 6.00 Build 0)  -->
<svg version="1.2" baseProfile="tiny" id="g-mt-economy-6-income-components-change-medium-img" xmlns="http://www.w3.org/2000/svg" xmlns:xlink="http://www.w3.org/1999/xlink"
	 x="0px" y="0px" viewBox="0 0 600 332" xml:space="preserve">
<g>
	<g transform="translate(10,20)">
		<g transform="translate(35,30)">
			<g transform="translate(0,-3)">
				<g display="none">
					<text transform="matrix(1 0 0 1 -12 22)" display="inline" font-family="'Arial-ItalicMT'" font-size="13px">T</text>
					<text transform="matrix(1 0 0 1 -5.2524 22)" display="inline" font-family="'Arial-ItalicMT'" font-size="13px">o</text>
					<text transform="matrix(1 0 0 1 1.9775 22)" display="inline" font-family="'Arial-ItalicMT'" font-size="13px">t</text>
					<text transform="matrix(1 0 0 1 5.5894 22)" display="inline" font-family="'Arial-ItalicMT'" font-size="13px">a</text>
					<text transform="matrix(1 0 0 1 12.8193 22)" display="inline" font-family="'Arial-ItalicMT'" font-size="13px">l</text>
					<text transform="matrix(1 0 0 1 15.7075 22)" display="inline" font-family="'Arial-ItalicMT'" font-size="13px"> </text>
					<text transform="matrix(1 0 0 1 19.3193 22)" display="inline" font-family="'Arial-ItalicMT'" font-size="13px">i</text>
					<text transform="matrix(1 0 0 1 22.2075 22)" display="inline" font-family="'Arial-ItalicMT'" font-size="13px">n</text>
					<text transform="matrix(1 0 0 1 29.4375 22)" display="inline" font-family="'Arial-ItalicMT'" font-size="13px">c</text>
					<text transform="matrix(1 0 0 1 35.9375 22)" display="inline" font-family="'Arial-ItalicMT'" font-size="13px">o</text>
					<text transform="matrix(1 0 0 1 43.1675 22)" display="inline" font-family="'Arial-ItalicMT'" font-size="13px">m</text>
					<text transform="matrix(1 0 0 1 53.9966 22)" display="inline" font-family="'Arial-ItalicMT'" font-size="13px">e</text>
				</g>
			</g>
			<g transform="translate(0,220)">
				<g transform="translate(0.5,0)">
					<line fill="none" stroke="#000000" x1="-5" y1="22" x2="-5" y2="28"/>
					<text transform="matrix(1 0 0 1 -16.123 38.1)" display="none" font-family="'ArialMT'" font-size="10px">2001</text>
				</g>
				<g transform="translate(50.5,0)">
					<line fill="none" stroke="#000000" x1="-5" y1="22" x2="-5" y2="28"/>
					<text transform="matrix(1 0 0 1 -16.123 38.1)" display="none" font-family="'ArialMT'" font-size="10px">2016</text>
				</g>
			</g>
			<g>
				<g transform="translate(0,220.5)">
					<line fill="none" stroke="#000000" x1="-5" y1="22" x2="-11" y2="22"/>
					<line fill="none" stroke="#000000" stroke-opacity="0.2" x1="-5" y1="22" x2="45" y2="22"/>
					<text transform="matrix(1 0 0 1 -34.0146 25.2)" display="none" font-family="'ArialMT'" font-size="10px">40%</text>
				</g>
				<g transform="translate(0,176.5)">
					<line fill="none" stroke="#000000" x1="-5" y1="22" x2="-11" y2="22"/>
					<line fill="none" stroke="#000000" stroke-opacity="0.2" x1="-5" y1="22" x2="45" y2="22"/>
					<text transform="matrix(1 0 0 1 -34.0146 25.2)" display="none" font-family="'ArialMT'" font-size="10px">60%</text>
				</g>
				<g transform="translate(0,132.5)">
					<line fill="none" stroke="#000000" x1="-5" y1="22" x2="-11" y2="22"/>
					<line fill="none" stroke="#000000" stroke-opacity="0.2" x1="-5" y1="22" x2="45" y2="22"/>
					<text transform="matrix(1 0 0 1 -34.0146 25.2)" display="none" font-family="'ArialMT'" font-size="10px">80%</text>
				</g>
				<g transform="translate(0,88.49999999999997)">
					<line fill="none" stroke="#000000" x1="-5" y1="22" x2="-11" y2="22"/>
					<line fill="none" stroke="#000000" x1="-5" y1="22" x2="45" y2="22"/>
					<text transform="matrix(1 0 0 1 -39.5762 25.2)" display="none" font-family="'ArialMT'" font-size="10px">100%</text>
				</g>
				<g transform="translate(0,44.5)">
					<line fill="none" stroke="#000000" x1="-5" y1="22" x2="-11" y2="22"/>
					<line fill="none" stroke="#000000" stroke-opacity="0.2" x1="-5" y1="22" x2="45" y2="22"/>
					<text transform="matrix(1 0 0 1 -39.5762 25.2)" display="none" font-family="'ArialMT'" font-size="10px">120%</text>
				</g>
				<g transform="translate(0,0.5)">
					<line fill="none" stroke="#000000" x1="-5" y1="22" x2="-11" y2="22"/>
					<line fill="none" stroke="#000000" stroke-opacity="0.2" x1="-5" y1="22" x2="45" y2="22"/>
					<text transform="matrix(1 0 0 1 -39.5762 25.2)" display="none" font-family="'ArialMT'" font-size="10px">140%</text>
				</g>
			</g>
			<path fill="none" stroke="#86BF86" stroke-width="2" stroke-linecap="round" stroke-linejoin="round" stroke-opacity="0.2" d="
				M-5,139.707l50-21.761"/>
			<g>
				<circle fill="#86BF86" stroke="#FFFFFF" cx="-5" cy="139.707" r="3"/>
				<circle fill="#86BF86" stroke="#FFFFFF" cx="45" cy="117.946" r="3"/>
			</g>
			<path fill="none" stroke="#86BF86" stroke-width="2" stroke-linecap="round" stroke-linejoin="round" stroke-opacity="0.2" d="
				M-5,159.586l50-20.552"/>
			<g>
				<circle fill="#86BF86" stroke="#FFFFFF" cx="-5" cy="159.586" r="3"/>
				<circle fill="#86BF86" stroke="#FFFFFF" cx="45" cy="139.034" r="3"/>
			</g>
			<path fill="none" stroke="#86BF86" stroke-width="2" stroke-linecap="round" stroke-linejoin="round" stroke-opacity="0.2" d="
				M-5,136.79l50-6.627"/>
			<g>
				<circle fill="#86BF86" stroke="#FFFFFF" cx="-5" cy="136.79" r="3"/>
				<circle fill="#86BF86" stroke="#FFFFFF" cx="45" cy="130.163" r="3"/>
			</g>
			<path fill="none" stroke="#86BF86" stroke-width="2" stroke-linecap="round" stroke-linejoin="round" d="M-5,155.984l50-40.235"
				/>
			<g>
				<circle fill="#86BF86" stroke="#FFFFFF" cx="-5" cy="155.984" r="3"/>
				<circle fill="#86BF86" stroke="#FFFFFF" cx="45" cy="115.749" r="3"/>
			</g>
			<path fill="none" stroke="#86BF86" stroke-width="2" stroke-linecap="round" stroke-linejoin="round" stroke-opacity="0.2" d="
				M-5,148.326l50-7.304"/>
			<g>
				<circle fill="#86BF86" stroke="#FFFFFF" cx="-5" cy="148.326" r="3"/>
				<circle fill="#86BF86" stroke="#FFFFFF" cx="45" cy="141.022" r="3"/>
			</g>
			<path fill="none" stroke="#86BF86" stroke-width="2" stroke-linecap="round" stroke-linejoin="round" stroke-opacity="0.2" d="
				M-5,162.408l50-31.104"/>
			<g>
				<circle fill="#86BF86" stroke="#FFFFFF" cx="-5" cy="162.408" r="3"/>
				<circle fill="#86BF86" stroke="#FFFFFF" cx="45" cy="131.304" r="3"/>
			</g>
			<path fill="none" stroke="#86BF86" stroke-width="2" stroke-linecap="round" stroke-linejoin="round" stroke-opacity="0.2" d="
				M-5,147.977l50-11.751"/>
			<g>
				<circle fill="#86BF86" stroke="#FFFFFF" cx="-5" cy="147.977" r="3"/>
				<circle fill="#86BF86" stroke="#FFFFFF" cx="45" cy="136.226" r="3"/>
			</g>
			<path fill="none" stroke="#F2DF91" stroke-width="2" stroke-linecap="round" stroke-linejoin="round" d="M-5,177.203l50-22.508"
				/>
			<g>
				<circle fill="#F2DF91" stroke="#FFFFFF" cx="-5" cy="177.203" r="3"/>
				<circle fill="#F2DF91" stroke="#FFFFFF" cx="45" cy="154.695" r="3"/>
			</g>
			<path fill="none" stroke="#E5AE89" stroke-width="2" stroke-linecap="round" stroke-linejoin="round" d="M-5,185.345l50-25.681"
				/>
			<g>
				<circle fill="#E5AE89" stroke="#FFFFFF" cx="-5" cy="185.345" r="3"/>
				<circle fill="#E5AE89" stroke="#FFFFFF" cx="45" cy="159.664" r="3"/>
			</g>
			<path fill="none" stroke="#444444" stroke-width="2" stroke-linecap="round" stroke-linejoin="round" d="M-5,160.39l50-22.249"/>
			<g>
				<circle fill="#444444" stroke="#FFFFFF" cx="-5" cy="160.39" r="3"/>
				<circle fill="#444444" stroke="#FFFFFF" cx="45" cy="138.141" r="3"/>
			</g>
			<text transform="matrix(1 0 0 1 50 120.749)" display="none" fill="#86BF86" font-family="'ArialMT'" font-size="12px">Bozeman</text>
			<text transform="matrix(1 0 0 1 50 156.6946)" display="none" fill="#F2DF91" font-family="'ArialMT'" font-size="12px">Plains</text>
			<text transform="matrix(1 0 0 1 50 170.664)" display="none" fill="#E5AE89" font-family="'ArialMT'" font-size="12px">Mountains</text>
			<text transform="matrix(1 0 0 1 50 143.1414)" display="none" fill="#444444" font-family="'ArialMT'" font-size="12px">Statewide</text>
		</g>
		<g transform="translate(180,30)">
			<g transform="translate(0,-3)">
				<g display="none">
					<text transform="matrix(1 0 0 1 -12 22)" display="inline" font-family="'Arial-ItalicMT'" font-size="13px">W</text>
					<text transform="matrix(1 0 0 1 0.0352 22)" display="inline" font-family="'Arial-ItalicMT'" font-size="13px">a</text>
					<text transform="matrix(1 0 0 1 7.2651 22)" display="inline" font-family="'Arial-ItalicMT'" font-size="13px">g</text>
					<text transform="matrix(1 0 0 1 14.4951 22)" display="inline" font-family="'Arial-ItalicMT'" font-size="13px">e</text>
					<text transform="matrix(1 0 0 1 21.7251 22)" display="inline" font-family="'Arial-ItalicMT'" font-size="13px"> </text>
					<text transform="matrix(1 0 0 1 25.3369 22)" display="inline" font-family="'Arial-ItalicMT'" font-size="13px">i</text>
					<text transform="matrix(1 0 0 1 28.2251 22)" display="inline" font-family="'Arial-ItalicMT'" font-size="13px">n</text>
					<text transform="matrix(1 0 0 1 35.4551 22)" display="inline" font-family="'Arial-ItalicMT'" font-size="13px">c</text>
					<text transform="matrix(1 0 0 1 41.9551 22)" display="inline" font-family="'Arial-ItalicMT'" font-size="13px">o</text>
					<text transform="matrix(1 0 0 1 49.1851 22)" display="inline" font-family="'Arial-ItalicMT'" font-size="13px">m</text>
					<text transform="matrix(1 0 0 1 60.0142 22)" display="inline" font-family="'Arial-ItalicMT'" font-size="13px">e</text>
				</g>
			</g>
			<g transform="translate(0,220)">
				<g transform="translate(0.5,0)">
					<line fill="none" stroke="#000000" x1="-5" y1="22" x2="-5" y2="28"/>
					<text transform="matrix(1 0 0 1 -16.1231 38.1)" display="none" font-family="'ArialMT'" font-size="10px">2001</text>
				</g>
				<g transform="translate(50.5,0)">
					<line fill="none" stroke="#000000" x1="-5" y1="22" x2="-5" y2="28"/>
					<text transform="matrix(1 0 0 1 -16.123 38.1)" display="none" font-family="'ArialMT'" font-size="10px">2016</text>
				</g>
			</g>
			<g>
				<g transform="translate(0,220.5)">
					<line fill="none" stroke="#000000" x1="-5" y1="22" x2="-11" y2="22"/>
					<line fill="none" stroke="#000000" stroke-opacity="0.2" x1="-5" y1="22" x2="45" y2="22"/>
					<text transform="matrix(1 0 0 1 -34.0146 25.2)" display="none" font-family="'ArialMT'" font-size="10px">40%</text>
				</g>
				<g transform="translate(0,176.5)">
					<line fill="none" stroke="#000000" x1="-5" y1="22" x2="-11" y2="22"/>
					<line fill="none" stroke="#000000" stroke-opacity="0.2" x1="-5" y1="22" x2="45" y2="22"/>
					<text transform="matrix(1 0 0 1 -34.0146 25.2)" display="none" font-family="'ArialMT'" font-size="10px">60%</text>
				</g>
				<g transform="translate(0,132.5)">
					<line fill="none" stroke="#000000" x1="-5" y1="22" x2="-11" y2="22"/>
					<line fill="none" stroke="#000000" stroke-opacity="0.2" x1="-5" y1="22" x2="45" y2="22"/>
					<text transform="matrix(1 0 0 1 -34.0146 25.2)" display="none" font-family="'ArialMT'" font-size="10px">80%</text>
				</g>
				<g transform="translate(0,88.49999999999997)">
					<line fill="none" stroke="#000000" x1="-5" y1="22" x2="-11" y2="22"/>
					<line fill="none" stroke="#000000" x1="-5" y1="22" x2="45" y2="22"/>
					<text transform="matrix(1 0 0 1 -39.5762 25.2)" display="none" font-family="'ArialMT'" font-size="10px">100%</text>
				</g>
				<g transform="translate(0,44.5)">
					<line fill="none" stroke="#000000" x1="-5" y1="22" x2="-11" y2="22"/>
					<line fill="none" stroke="#000000" stroke-opacity="0.2" x1="-5" y1="22" x2="45" y2="22"/>
					<text transform="matrix(1 0 0 1 -39.5762 25.2)" display="none" font-family="'ArialMT'" font-size="10px">120%</text>
				</g>
				<g transform="translate(0,0.5)">
					<line fill="none" stroke="#000000" x1="-5" y1="22" x2="-11" y2="22"/>
					<line fill="none" stroke="#000000" stroke-opacity="0.2" x1="-5" y1="22" x2="45" y2="22"/>
					<text transform="matrix(1 0 0 1 -39.5762 25.2)" display="none" font-family="'ArialMT'" font-size="10px">140%</text>
				</g>
			</g>
			<path fill="none" stroke="#86BF86" stroke-width="2" stroke-linecap="round" stroke-linejoin="round" d="M-5,133.962l50-22.009"
				/>
			<g>
				<circle fill="#86BF86" stroke="#FFFFFF" cx="-5" cy="133.962" r="3"/>
				<circle fill="#86BF86" stroke="#FFFFFF" cx="45" cy="111.953" r="3"/>
			</g>
			<path fill="none" stroke="#86BF86" stroke-width="2" stroke-linecap="round" stroke-linejoin="round" stroke-opacity="0.2" d="
				M-5,173.811l50-7.755"/>
			<g>
				<circle fill="#86BF86" stroke="#FFFFFF" cx="-5" cy="173.811" r="3"/>
				<circle fill="#86BF86" stroke="#FFFFFF" cx="45" cy="166.056" r="3"/>
			</g>
			<path fill="none" stroke="#86BF86" stroke-width="2" stroke-linecap="round" stroke-linejoin="round" stroke-opacity="0.2" d="
				M-5,134.053l50-21.48"/>
			<g>
				<circle fill="#86BF86" stroke="#FFFFFF" cx="-5" cy="134.053" r="3"/>
				<circle fill="#86BF86" stroke="#FFFFFF" cx="45" cy="112.573" r="3"/>
			</g>
			<path fill="none" stroke="#86BF86" stroke-width="2" stroke-linecap="round" stroke-linejoin="round" d="M-5,162.018l50-33.565"
				/>
			<g>
				<circle fill="#86BF86" stroke="#FFFFFF" cx="-5" cy="162.018" r="3"/>
				<circle fill="#86BF86" stroke="#FFFFFF" cx="45" cy="128.453" r="3"/>
			</g>
			<path fill="none" stroke="#86BF86" stroke-width="2" stroke-linecap="round" stroke-linejoin="round" stroke-opacity="0.2" d="
				M-5,181.47l50-11.524"/>
			<g>
				<circle fill="#86BF86" stroke="#FFFFFF" cx="-5" cy="181.47" r="3"/>
				<circle fill="#86BF86" stroke="#FFFFFF" cx="45" cy="169.945" r="3"/>
			</g>
			<path fill="none" stroke="#86BF86" stroke-width="2" stroke-linecap="round" stroke-linejoin="round" stroke-opacity="0.2" d="
				M-5,198.144l50-29.973"/>
			<g>
				<circle fill="#86BF86" stroke="#FFFFFF" cx="-5" cy="198.144" r="3"/>
				<circle fill="#86BF86" stroke="#FFFFFF" cx="45" cy="168.171" r="3"/>
			</g>
			<path fill="none" stroke="#86BF86" stroke-width="2" stroke-linecap="round" stroke-linejoin="round" stroke-opacity="0.2" d="
				M-5,173.719L45,151"/>
			<g>
				<circle fill="#86BF86" stroke="#FFFFFF" cx="-5" cy="173.719" r="3"/>
				<circle fill="#86BF86" stroke="#FFFFFF" cx="45" cy="151" r="3"/>
			</g>
			<path fill="none" stroke="#F2DF91" stroke-width="2" stroke-linecap="round" stroke-linejoin="round" d="M-5,219.635l50-27.845"
				/>
			<g>
				<circle fill="#F2DF91" stroke="#FFFFFF" cx="-5" cy="219.635" r="3"/>
				<circle fill="#F2DF91" stroke="#FFFFFF" cx="45" cy="191.79" r="3"/>
			</g>
			<path fill="none" stroke="#E5AE89" stroke-width="2" stroke-linecap="round" stroke-linejoin="round" d="M-5,238.561l50-10.893"
				/>
			<g>
				<circle fill="#E5AE89" stroke="#FFFFFF" cx="-5" cy="238.561" r="3"/>
				<circle fill="#E5AE89" stroke="#FFFFFF" cx="45" cy="227.668" r="3"/>
			</g>
			<path fill="none" stroke="#444444" stroke-width="2" stroke-linecap="round" stroke-linejoin="round" d="M-5,184.914l50-22.468"
				/>
			<g>
				<circle fill="#444444" stroke="#FFFFFF" cx="-5" cy="184.914" r="3"/>
				<circle fill="#444444" stroke="#FFFFFF" cx="45" cy="162.446" r="3"/>
			</g>
			<text transform="matrix(1 0 0 1 50 116.9529)" display="none" fill="#86BF86" font-family="'ArialMT'" font-size="12px">Billings</text>
			<text transform="matrix(1 0 0 1 50 133.4532)" display="none" fill="#86BF86" font-family="'ArialMT'" font-size="12px">Bozeman</text>
			<text transform="matrix(1 0 0 1 50 196.7896)" display="none" fill="#F2DF91" font-family="'ArialMT'" font-size="12px">Plains</text>
			<text transform="matrix(1 0 0 1 50 232.6679)" display="none" fill="#E5AE89" font-family="'ArialMT'" font-size="12px">Mountains</text>
			<text transform="matrix(1 0 0 1 50 167.4463)" display="none" fill="#444444" font-family="'ArialMT'" font-size="12px">Statewide</text>
		</g>
		<g transform="translate(325,30)">
			<g transform="translate(0,-3)">
				<text transform="matrix(1 0 0 1 -12 22)" display="none" font-family="'Arial-ItalicMT'" font-size="13px">Investment income</text>
			</g>
			<g transform="translate(0,220)">
				<g transform="translate(0.5,0)">
					<line fill="none" stroke="#000000" x1="-5" y1="22" x2="-5" y2="28"/>
					<text transform="matrix(1 0 0 1 -16.123 38.1)" display="none" font-family="'ArialMT'" font-size="10px">2001</text>
				</g>
				<g transform="translate(50.5,0)">
					<line fill="none" stroke="#000000" x1="-5" y1="22" x2="-5" y2="28"/>
					<text transform="matrix(1 0 0 1 -16.123 38.1)" display="none" font-family="'ArialMT'" font-size="10px">2016</text>
				</g>
			</g>
			<g>
				<g transform="translate(0,220.5)">
					<line fill="none" stroke="#000000" x1="-5" y1="22" x2="-11" y2="22"/>
					<line fill="none" stroke="#000000" stroke-opacity="0.2" x1="-5" y1="22" x2="45" y2="22"/>
					<text transform="matrix(1 0 0 1 -34.0146 25.2)" display="none" font-family="'ArialMT'" font-size="10px">40%</text>
				</g>
				<g transform="translate(0,176.5)">
					<line fill="none" stroke="#000000" x1="-5" y1="22" x2="-11" y2="22"/>
					<line fill="none" stroke="#000000" stroke-opacity="0.2" x1="-5" y1="22" x2="45" y2="22"/>
					<text transform="matrix(1 0 0 1 -34.0146 25.2)" display="none" font-family="'ArialMT'" font-size="10px">60%</text>
				</g>
				<g transform="translate(0,132.5)">
					<line fill="none" stroke="#000000" x1="-5" y1="22" x2="-11" y2="22"/>
					<line fill="none" stroke="#000000" stroke-opacity="0.2" x1="-5" y1="22" x2="45" y2="22"/>
					<text transform="matrix(1 0 0 1 -34.0146 25.2)" display="none" font-family="'ArialMT'" font-size="10px">80%</text>
				</g>
				<g transform="translate(0,88.49999999999997)">
					<line fill="none" stroke="#000000" x1="-5" y1="22" x2="-11" y2="22"/>
					<line fill="none" stroke="#000000" x1="-5" y1="22" x2="45" y2="22"/>
					<text transform="matrix(1 0 0 1 -39.5762 25.2)" display="none" font-family="'ArialMT'" font-size="10px">100%</text>
				</g>
				<g transform="translate(0,44.5)">
					<line fill="none" stroke="#000000" x1="-5" y1="22" x2="-11" y2="22"/>
					<line fill="none" stroke="#000000" stroke-opacity="0.2" x1="-5" y1="22" x2="45" y2="22"/>
					<text transform="matrix(1 0 0 1 -39.5762 25.2)" display="none" font-family="'ArialMT'" font-size="10px">120%</text>
				</g>
				<g transform="translate(0,0.5)">
					<line fill="none" stroke="#000000" x1="-5" y1="22" x2="-11" y2="22"/>
					<line fill="none" stroke="#000000" stroke-opacity="0.2" x1="-5" y1="22" x2="45" y2="22"/>
					<text transform="matrix(1 0 0 1 -39.5762 25.2)" display="none" font-family="'ArialMT'" font-size="10px">140%</text>
				</g>
			</g>
			<path fill="none" stroke="#86BF86" stroke-width="2" stroke-linecap="round" stroke-linejoin="round" stroke-opacity="0.2" d="
				M-5,121.316l50,9.381"/>
			<g>
				<circle fill="#86BF86" stroke="#FFFFFF" cx="-5" cy="121.316" r="3"/>
				<circle fill="#86BF86" stroke="#FFFFFF" cx="45" cy="130.697" r="3"/>
			</g>
			<path fill="none" stroke="#86BF86" stroke-width="2" stroke-linecap="round" stroke-linejoin="round" d="M-5,107.479l50-51.736"
				/>
			<g>
				<circle fill="#86BF86" stroke="#FFFFFF" cx="-5" cy="107.479" r="3"/>
				<circle fill="#86BF86" stroke="#FFFFFF" cx="45" cy="55.744" r="3"/>
			</g>
			<path fill="none" stroke="#86BF86" stroke-width="2" stroke-linecap="round" stroke-linejoin="round" stroke-opacity="0.2" d="
				M-5,111.404l50-1.387"/>
			<g>
				<circle fill="#86BF86" stroke="#FFFFFF" cx="-5" cy="111.404" r="3"/>
				<circle fill="#86BF86" stroke="#FFFFFF" cx="45" cy="110.017" r="3"/>
			</g>
			<path fill="none" stroke="#86BF86" stroke-width="2" stroke-linecap="round" stroke-linejoin="round" d="M-5,67.903l50-23.722"/>
			<g>
				<circle fill="#86BF86" stroke="#FFFFFF" cx="-5" cy="67.903" r="3"/>
				<circle fill="#86BF86" stroke="#FFFFFF" cx="45" cy="44.181" r="3"/>
			</g>
			<path fill="none" stroke="#86BF86" stroke-width="2" stroke-linecap="round" stroke-linejoin="round" d="M-5,73.634l50,17.082"/>
			<g>
				<circle fill="#86BF86" stroke="#FFFFFF" cx="-5" cy="73.634" r="3"/>
				<circle fill="#86BF86" stroke="#FFFFFF" cx="45" cy="90.716" r="3"/>
			</g>
			<path fill="none" stroke="#86BF86" stroke-width="2" stroke-linecap="round" stroke-linejoin="round" d="M-5,134.73l50,2.597"/>
			<g>
				<circle fill="#86BF86" stroke="#FFFFFF" cx="-5" cy="134.73" r="3"/>
				<circle fill="#86BF86" stroke="#FFFFFF" cx="45" cy="137.328" r="3"/>
			</g>
			<path fill="none" stroke="#86BF86" stroke-width="2" stroke-linecap="round" stroke-linejoin="round" stroke-opacity="0.2" d="
				M-5,86.294l50,23.572"/>
			<g>
				<circle fill="#86BF86" stroke="#FFFFFF" cx="-5" cy="86.294" r="3"/>
				<circle fill="#86BF86" stroke="#FFFFFF" cx="45" cy="109.866" r="3"/>
			</g>
			<path fill="none" stroke="#F2DF91" stroke-width="2" stroke-linecap="round" stroke-linejoin="round" d="M-5,123.971l50-8.067"/>
			<g>
				<circle fill="#F2DF91" stroke="#FFFFFF" cx="-5" cy="123.971" r="3"/>
				<circle fill="#F2DF91" stroke="#FFFFFF" cx="45" cy="115.905" r="3"/>
			</g>
			<path fill="none" stroke="#E5AE89" stroke-width="2" stroke-linecap="round" stroke-linejoin="round" d="M-5,134.698l50-29.683"
				/>
			<g>
				<circle fill="#E5AE89" stroke="#FFFFFF" cx="-5" cy="134.698" r="3"/>
				<circle fill="#E5AE89" stroke="#FFFFFF" cx="45" cy="105.015" r="3"/>
			</g>
			<path fill="none" stroke="#444444" stroke-width="2" stroke-linecap="round" stroke-linejoin="round" d="M-5,110.387l50-12.215"
				/>
			<g>
				<circle fill="#444444" stroke="#FFFFFF" cx="-5" cy="110.387" r="3"/>
				<circle fill="#444444" stroke="#FFFFFF" cx="45" cy="98.171" r="3"/>
			</g>
			<text transform="matrix(1 0 0 1 50 60.7438)" display="none" fill="#86BF86" font-family="'ArialMT'" font-size="12px">Missoula</text>
			<text transform="matrix(1 0 0 1 50 49.1815)" display="none" fill="#86BF86" font-family="'ArialMT'" font-size="12px">Bozeman</text>
			<text transform="matrix(1 0 0 1 50 91.7161)" display="none" fill="#86BF86" font-family="'ArialMT'" font-size="12px">Kalispell</text>
			<text transform="matrix(1 0 0 1 50 142.3275)" display="none" fill="#86BF86" font-family="'ArialMT'" font-size="12px">Butte</text>
			<text transform="matrix(1 0 0 1 50 123.9046)" display="none" fill="#F2DF91" font-family="'ArialMT'" font-size="12px">Plains</text>
			<text transform="matrix(1 0 0 1 50 113.0153)" display="none" fill="#E5AE89" font-family="'ArialMT'" font-size="12px">Mountains</text>
			<text transform="matrix(1 0 0 1 50 103.1712)" display="none" fill="#444444" font-family="'ArialMT'" font-size="12px">Statewide</text>
		</g>
		<g transform="translate(470,30)">
			<g transform="translate(0,-3)">
				<g display="none">
					<text transform="matrix(1 0 0 1 -12 22)" display="inline" font-family="'Arial-ItalicMT'" font-size="13px">T</text>
					<text transform="matrix(1 0 0 1 -5.0239 22)" display="inline" font-family="'Arial-ItalicMT'" font-size="13px">r</text>
					<text transform="matrix(1 0 0 1 -0.6948 22)" display="inline" font-family="'Arial-ItalicMT'" font-size="13px">a</text>
					<text transform="matrix(1 0 0 1 6.5352 22)" display="inline" font-family="'Arial-ItalicMT'" font-size="13px">n</text>
					<text transform="matrix(1 0 0 1 13.7651 22)" display="inline" font-family="'Arial-ItalicMT'" font-size="13px">s</text>
					<text transform="matrix(1 0 0 1 20.2651 22)" display="inline" font-family="'Arial-ItalicMT'" font-size="13px">f</text>
					<text transform="matrix(1 0 0 1 23.877 22)" display="inline" font-family="'Arial-ItalicMT'" font-size="13px">e</text>
					<text transform="matrix(1 0 0 1 31.1069 22)" display="inline" font-family="'Arial-ItalicMT'" font-size="13px">r</text>
					<text transform="matrix(1 0 0 1 35.436 22)" display="inline" font-family="'Arial-ItalicMT'" font-size="13px"> </text>
					<text transform="matrix(1 0 0 1 39.0479 22)" display="inline" font-family="'Arial-ItalicMT'" font-size="13px">i</text>
					<text transform="matrix(1 0 0 1 41.936 22)" display="inline" font-family="'Arial-ItalicMT'" font-size="13px">n</text>
					<text transform="matrix(1 0 0 1 49.166 22)" display="inline" font-family="'Arial-ItalicMT'" font-size="13px">c</text>
					<text transform="matrix(1 0 0 1 55.666 22)" display="inline" font-family="'Arial-ItalicMT'" font-size="13px">o</text>
					<text transform="matrix(1 0 0 1 62.896 22)" display="inline" font-family="'Arial-ItalicMT'" font-size="13px">m</text>
					<text transform="matrix(1 0 0 1 73.7251 22)" display="inline" font-family="'Arial-ItalicMT'" font-size="13px">e</text>
				</g>
			</g>
			<g transform="translate(0,220)">
				<g transform="translate(0.5,0)">
					<line fill="none" stroke="#000000" x1="-5" y1="22" x2="-5" y2="28"/>
					<text transform="matrix(1 0 0 1 -16.123 38.1)" display="none" font-family="'ArialMT'" font-size="10px">2001</text>
				</g>
				<g transform="translate(50.5,0)">
					<line fill="none" stroke="#000000" x1="-5" y1="22" x2="-5" y2="28"/>
					<text transform="matrix(1 0 0 1 -16.123 38.1)" display="none" font-family="'ArialMT'" font-size="10px">2016</text>
				</g>
			</g>
			<g>
				<g transform="translate(0,220.5)">
					<line fill="none" stroke="#000000" x1="-5" y1="22" x2="-11" y2="22"/>
					<line fill="none" stroke="#000000" stroke-opacity="0.2" x1="-5" y1="22" x2="45" y2="22"/>
					<text transform="matrix(1 0 0 1 -34.0146 25.2)" display="none" font-family="'ArialMT'" font-size="10px">40%</text>
				</g>
				<g transform="translate(0,176.5)">
					<line fill="none" stroke="#000000" x1="-5" y1="22" x2="-11" y2="22"/>
					<line fill="none" stroke="#000000" stroke-opacity="0.2" x1="-5" y1="22" x2="45" y2="22"/>
					<text transform="matrix(1 0 0 1 -34.0146 25.2)" display="none" font-family="'ArialMT'" font-size="10px">60%</text>
				</g>
				<g transform="translate(0,132.5)">
					<line fill="none" stroke="#000000" x1="-5" y1="22" x2="-11" y2="22"/>
					<line fill="none" stroke="#000000" stroke-opacity="0.2" x1="-5" y1="22" x2="45" y2="22"/>
					<text transform="matrix(1 0 0 1 -34.0146 25.2)" display="none" font-family="'ArialMT'" font-size="10px">80%</text>
				</g>
				<g transform="translate(0,88.49999999999997)">
					<line fill="none" stroke="#000000" x1="-5" y1="22" x2="-11" y2="22"/>
					<line fill="none" stroke="#000000" x1="-5" y1="22" x2="45" y2="22"/>
					<text transform="matrix(1 0 0 1 -39.5762 25.2)" display="none" font-family="'ArialMT'" font-size="10px">100%</text>
				</g>
				<g transform="translate(0,44.5)">
					<line fill="none" stroke="#000000" x1="-5" y1="22" x2="-11" y2="22"/>
					<line fill="none" stroke="#000000" stroke-opacity="0.2" x1="-5" y1="22" x2="45" y2="22"/>
					<text transform="matrix(1 0 0 1 -39.5762 25.2)" display="none" font-family="'ArialMT'" font-size="10px">120%</text>
				</g>
				<g transform="translate(0,0.5)">
					<line fill="none" stroke="#000000" x1="-5" y1="22" x2="-11" y2="22"/>
					<line fill="none" stroke="#000000" stroke-opacity="0.2" x1="-5" y1="22" x2="45" y2="22"/>
					<text transform="matrix(1 0 0 1 -39.5762 25.2)" display="none" font-family="'ArialMT'" font-size="10px">140%</text>
				</g>
			</g>
			<path fill="none" stroke="#86BF86" stroke-width="2" stroke-linecap="round" stroke-linejoin="round" d="M-5,123.141l50,6.46"/>
			<g>
				<circle fill="#86BF86" stroke="#FFFFFF" cx="-5" cy="123.141" r="3"/>
				<circle fill="#86BF86" stroke="#FFFFFF" cx="45" cy="129.6" r="3"/>
			</g>
			<path fill="none" stroke="#86BF86" stroke-width="2" stroke-linecap="round" stroke-linejoin="round" stroke-opacity="0.2" d="
				M-5,136.339l50-14.028"/>
			<g>
				<circle fill="#86BF86" stroke="#FFFFFF" cx="-5" cy="136.339" r="3"/>
				<circle fill="#86BF86" stroke="#FFFFFF" cx="45" cy="122.31" r="3"/>
			</g>
			<path fill="none" stroke="#86BF86" stroke-width="2" stroke-linecap="round" stroke-linejoin="round" stroke-opacity="0.2" d="
				M-5,135.349l50-16.355"/>
			<g>
				<circle fill="#86BF86" stroke="#FFFFFF" cx="-5" cy="135.349" r="3"/>
				<circle fill="#86BF86" stroke="#FFFFFF" cx="45" cy="118.994" r="3"/>
			</g>
			<path fill="none" stroke="#86BF86" stroke-width="2" stroke-linecap="round" stroke-linejoin="round" d="M-5,196.015l50,2.832"/>
			<g>
				<circle fill="#86BF86" stroke="#FFFFFF" cx="-5" cy="196.015" r="3"/>
				<circle fill="#86BF86" stroke="#FFFFFF" cx="45" cy="198.847" r="3"/>
			</g>
			<path fill="none" stroke="#86BF86" stroke-width="2" stroke-linecap="round" stroke-linejoin="round" stroke-opacity="0.2" d="
				M-5,121.167l50-8.744"/>
			<g>
				<circle fill="#86BF86" stroke="#FFFFFF" cx="-5" cy="121.167" r="3"/>
				<circle fill="#86BF86" stroke="#FFFFFF" cx="45" cy="112.423" r="3"/>
			</g>
			<path fill="none" stroke="#86BF86" stroke-width="2" stroke-linecap="round" stroke-linejoin="round" d="M-5,55.29l50,21.972"/>
			<g>
				<circle fill="#86BF86" stroke="#FFFFFF" cx="-5" cy="55.29" r="3"/>
				<circle fill="#86BF86" stroke="#FFFFFF" cx="45" cy="77.262" r="3"/>
			</g>
			<path fill="none" stroke="#86BF86" stroke-width="2" stroke-linecap="round" stroke-linejoin="round" d="M-5,98.158l50-3.505"/>
			<g>
				<circle fill="#86BF86" stroke="#FFFFFF" cx="-5" cy="98.158" r="3"/>
				<circle fill="#86BF86" stroke="#FFFFFF" cx="45" cy="94.653" r="3"/>
			</g>
			<path fill="none" stroke="#F2DF91" stroke-width="2" stroke-linecap="round" stroke-linejoin="round" d="M-5,96.329l50,10.565"/>
			<g>
				<circle fill="#F2DF91" stroke="#FFFFFF" cx="-5" cy="96.329" r="3"/>
				<circle fill="#F2DF91" stroke="#FFFFFF" cx="45" cy="106.894" r="3"/>
			</g>
			<path fill="none" stroke="#E5AE89" stroke-width="2" stroke-linecap="round" stroke-linejoin="round" d="M-5,101.14l50-29.824"/>
			<g>
				<circle fill="#E5AE89" stroke="#FFFFFF" cx="-5" cy="101.14" r="3"/>
				<circle fill="#E5AE89" stroke="#FFFFFF" cx="45" cy="71.315" r="3"/>
			</g>
			<path fill="none" stroke="#444444" stroke-width="2" stroke-linecap="round" stroke-linejoin="round" d="M-5,117.158l50-0.517"/>
			<g>
				<circle fill="#444444" stroke="#FFFFFF" cx="-5" cy="117.158" r="3"/>
				<circle fill="#444444" stroke="#FFFFFF" cx="45" cy="116.64" r="3"/>
			</g>
			<text transform="matrix(1 0 0 1 50 134.6001)" display="none" fill="#86BF86" font-family="'ArialMT'" font-size="12px">Billings</text>
			<text transform="matrix(1 0 0 1 50 203.8468)" display="none" fill="#86BF86" font-family="'ArialMT'" font-size="12px">Bozeman</text>
			<text transform="matrix(1 0 0 1 50 82.2618)" display="none" fill="#86BF86" font-family="'ArialMT'" font-size="12px">Butte</text>
			<text transform="matrix(1 0 0 1 50 99.6534)" display="none" fill="#86BF86" font-family="'ArialMT'" font-size="12px">Great Falls</text>
			<text transform="matrix(1 0 0 1 50 111.8941)" display="none" fill="#F2DF91" font-family="'ArialMT'" font-size="12px">Plains</text>
			<text transform="matrix(1 0 0 1 50 71.3153)" display="none" fill="#E5AE89" font-family="'ArialMT'" font-size="12px">Mountains</text>
			<text transform="matrix(1 0 0 1 50 121.6403)" display="none" fill="#444444" font-family="'ArialMT'" font-size="12px">Statewide</text>
		</g>
	</g>
</g>
<style type="text/css">
#g-mt-economy-6-income-components-change-medium-img rect, #g-mt-economy-6-income-components-change-medium-img circle, #g-mt-economy-6-income-components-change-medium-img path, #g-mt-economy-6-income-components-change-medium-img line, #g-mt-economy-6-income-components-change-medium-img polyline { vector-effect: non-scaling-stroke; }
</style>
</svg>

