<?xml version="1.0" encoding="utf-8"?>
<!-- Generator: Adobe Illustrator 22.1.0, SVG Export Plug-In . SVG Version: 6.00 Build 0)  -->
<svg version="1.2" baseProfile="tiny" id="g-mt-economy-3-regional-change-medium-img" xmlns="http://www.w3.org/2000/svg" xmlns:xlink="http://www.w3.org/1999/xlink"
	 x="0px" y="0px" viewBox="0 0 600 340" xml:space="preserve">
<g>
	<g transform="translate(0.5,200.5)">
		<path fill="none" stroke="#000000" stroke-miterlimit="10" d="M103-107.5L103-107.5L103-107.5L103-107.5z"/>
		<g>
			<g>
				<line fill="none" stroke="#000000" x1="103" y1="124.5" x2="103" y2="-103.282"/>
				<line fill="none" stroke="#E6E7E8" x1="217" y1="124.5" x2="217" y2="-103.282"/>
				<line fill="none" stroke="#E6E7E8" x1="274" y1="124.5" x2="274" y2="-103.282"/>
				<line fill="none" stroke="#E6E7E8" x1="332" y1="124.5" x2="332" y2="-103.282"/>
				<line fill="none" stroke="#E6E7E8" x1="389" y1="124.5" x2="389" y2="-103.282"/>
				<line fill="none" stroke="#E6E7E8" x1="446" y1="124.5" x2="446" y2="-103.282"/>
				<line fill="none" stroke="#E6E7E8" x1="503" y1="124.5" x2="503" y2="-103.282"/>
			</g>
		</g>
	</g>
	<g>
		<g transform="translate(0.5,0.5)">
			<path fill="none" d="M103,103L103,103L103,103L103,103z"/>
			<g>
				<g>
					<line fill="none" stroke="#888888" x1="103" y1="113" x2="98" y2="113"/>
					<line fill="none" stroke="#888888" x1="103" y1="135" x2="98" y2="135"/>
					<line fill="none" stroke="#888888" x1="103" y1="158" x2="98" y2="158"/>
					<line fill="none" stroke="#888888" x1="103" y1="180" x2="98" y2="180"/>
					<line fill="none" stroke="#888888" x1="103" y1="202" x2="98" y2="202"/>
					<line fill="none" stroke="#888888" x1="103" y1="232" x2="98" y2="232"/>
					<line fill="none" stroke="#888888" x1="103" y1="254" x2="98" y2="254"/>
					<line fill="none" stroke="#888888" x1="103" y1="285" x2="98" y2="285"/>
					<line fill="none" stroke="#888888" x1="103" y1="307" x2="98" y2="307"/>
				</g>
			</g>
		</g>
	</g>
	<g>
		<path fill="#66A61E" d="M160.143,275.667h38.926v20h-38.926V275.667z"/>
		<path fill="#E7298A" d="M199.069,275.667h13.714v20h-13.714V275.667z"/>
		<path fill="#A6761D" d="M212.783,275.667h1.074v20h-1.074V275.667z"/>
		<path fill="#E6AB02" d="M213.857,275.667h24.354v20h-24.354V275.667z"/>
		<path fill="#1B9E77" d="M158.44,275.667h1.703v20h-1.703V275.667z"/>
		<path fill="#D95F02" d="M155.263,275.667h3.177v20h-3.177V275.667z"/>
		<path fill="#7570B3" d="M143.103,275.667h12.16v20h-12.16V275.667z"/>
		<path fill="#CCCCCC" d="M238.211,275.667h18.526v20h-18.526V275.667z"/>
		<path fill="#66A61E" d="M160.143,297.889h27.646v20h-27.646V297.889z"/>
		<path fill="#E7298A" d="M187.789,297.889h21.451v20h-21.451V297.889z"/>
		<path fill="#A6761D" d="M141.914,297.889h18.229v20h-18.229V297.889z"/>
		<path fill="#E6AB02" d="M133.171,297.889h8.743v20h-8.743V297.889z"/>
		<path fill="#1B9E77" d="M209.24,297.889h7.954v20h-7.954V297.889z"/>
		<path fill="#D95F02" d="M217.194,297.889h4.686v20h-4.686V297.889z"/>
		<path fill="#7570B3" d="M130.806,297.889h2.366v20h-2.366V297.889z"/>
		<path fill="#CCCCCC" d="M221.88,297.889h60.811v20H221.88L221.88,297.889z"/>
		<path fill="#66A61E" d="M160.143,223.222h13.383v20h-13.383V223.222z"/>
		<path fill="#E7298A" d="M154.806,223.222h5.337v20h-5.337V223.222z"/>
		<path fill="#A6761D" d="M153.377,223.222h1.429v20h-1.429V223.222z"/>
		<path fill="#E6AB02" d="M173.526,223.222h15.669v20h-15.669V223.222z"/>
		<path fill="#1B9E77" d="M189.194,223.222h3.909v20h-3.909V223.222z"/>
		<path fill="#D95F02" d="M193.103,223.222h2.891v20h-2.891V223.222z"/>
		<path fill="#7570B3" d="M195.994,223.222h2.64v20h-2.64V223.222z"/>
		<path fill="#CCCCCC" d="M150.223,223.222h3.154v20h-3.154V223.222z"/>
		<path fill="#66A61E" d="M160.143,245.444h10.526v20h-10.526V245.444z"/>
		<path fill="#E7298A" d="M152.04,245.444h8.103v20h-8.103V245.444z"/>
		<path fill="#A6761D" d="M151.423,245.444h0.617v20h-0.617V245.444z"/>
		<path fill="#E6AB02" d="M170.669,245.444h16.411v20h-16.411V245.444z"/>
		<path fill="#1B9E77" d="M187.08,245.444h5.749v20h-5.749V245.444z"/>
		<path fill="#D95F02" d="M192.829,245.444h0.937v20h-0.937V245.444z"/>
		<path fill="#7570B3" d="M193.766,245.444h2.114v20h-2.114V245.444z"/>
		<path fill="#CCCCCC" d="M195.88,245.444h7.611v20h-7.611V245.444z"/>
		<path fill="#66A61E" d="M160.143,170.778h92.823v20h-92.823V170.778z"/>
		<path fill="#E7298A" d="M252.966,170.778h6.949v20h-6.949V170.778z"/>
		<path fill="#A6761D" d="M259.914,170.778h8.434v20h-8.434V170.778z"/>
		<path fill="#E6AB02" d="M268.349,170.778h37.737v20h-37.737V170.778z"/>
		<path fill="#1B9E77" d="M159.571,170.778h0.571v20h-0.571V170.778z"/>
		<path fill="#D95F02" d="M306.086,170.778h6.389v20h-6.389V170.778z"/>
		<path fill="#7570B3" d="M150.566,170.778h9.006v20h-9.006V170.778z"/>
		<path fill="#CCCCCC" d="M312.474,170.778h19.497v20h-19.497V170.778z"/>
		<path fill="#66A61E" d="M160.143,104.111h183.28v20h-183.28V104.111z"/>
		<path fill="#E7298A" d="M343.423,104.111h42.103v20h-42.103V104.111z"/>
		<path fill="#A6761D" d="M385.526,104.111h18.331v20h-18.331V104.111z"/>
		<path fill="#E6AB02" d="M403.857,104.111h31.829v20h-31.829V104.111z"/>
		<path fill="#1B9E77" d="M435.686,104.111h6.377v20h-6.377V104.111z"/>
		<path fill="#D95F02" d="M442.063,104.111h30.491v20h-30.491V104.111z"/>
		<path fill="#7570B3" d="M472.554,104.111h11.429v20h-11.429V104.111z"/>
		<path fill="#CCCCCC" d="M483.983,104.111h8.56v20h-8.56V104.111z"/>
		<path fill="#66A61E" d="M160.143,193h48v20h-48V193z"/>
		<path fill="#E7298A" d="M208.143,193h9.623v20h-9.623V193z"/>
		<path fill="#A6761D" d="M217.766,193h22.251v20h-22.251V193z"/>
		<path fill="#E6AB02" d="M240.017,193h18.274v20h-18.274V193z"/>
		<path fill="#1B9E77" d="M258.291,193h5.154v20h-5.154V193z"/>
		<path fill="#D95F02" d="M263.446,193h1.543v20h-1.543V193z"/>
		<path fill="#7570B3" d="M264.989,193h1.257v20h-1.257V193z"/>
		<path fill="#CCCCCC" d="M266.246,193L266.246,193v20l0,0V193z"/>
		<path fill="#66A61E" d="M160.143,148.556h139.52v20h-139.52V148.556z"/>
		<path fill="#E7298A" d="M299.663,148.556h4.834v20h-4.834V148.556z"/>
		<path fill="#A6761D" d="M304.497,148.556h17.931v20h-17.931V148.556z"/>
		<path fill="#E6AB02" d="M322.429,148.556h36.309v20h-36.309V148.556z"/>
		<path fill="#1B9E77" d="M358.737,148.556h4.903v20h-4.903V148.556z"/>
		<path fill="#D95F02" d="M158.463,148.556h1.68v20h-1.68V148.556z"/>
		<path fill="#7570B3" d="M149.08,148.556h9.383v20h-9.383V148.556z"/>
		<path fill="#CCCCCC" d="M148.737,148.556h0.343v20h-0.343V148.556z"/>
		<path fill="#66A61E" d="M160.143,126.333h95.989v20h-95.989V126.333z"/>
		<path fill="#E7298A" d="M256.131,126.333h30.24v20h-30.24V126.333z"/>
		<path fill="#A6761D" d="M286.371,126.333h7.817v20h-7.817V126.333z"/>
		<path fill="#E6AB02" d="M294.189,126.333h44.48v20h-44.48V126.333z"/>
		<path fill="#1B9E77" d="M338.669,126.333h14.617v20h-14.617V126.333z"/>
		<path fill="#D95F02" d="M353.286,126.333h25.657v20h-25.657L353.286,126.333z"/>
		<path fill="#7570B3" d="M378.943,126.333H383v20h-4.057V126.333z"/>
		<path fill="#CCCCCC" d="M383,126.333L383,126.333v20l0,0V126.333z"/>
	</g>
	<path fill="none" d="M103.5,99.5L103.5,99.5L103.5,99.5L103.5,99.5z"/>
	<g>
		<g>
			<line fill="none" stroke="#888888" x1="103.5" y1="99.5" x2="103.5" y2="94.5"/>
			<line fill="none" stroke="#888888" x1="217.5" y1="99.5" x2="217.5" y2="94.5"/>
			<line fill="none" stroke="#888888" x1="274.5" y1="99.5" x2="274.5" y2="94.5"/>
			<line fill="none" stroke="#888888" x1="332.5" y1="99.5" x2="332.5" y2="94.5"/>
			<line fill="none" stroke="#888888" x1="389.5" y1="99.5" x2="389.5" y2="94.5"/>
			<line fill="none" stroke="#888888" x1="446.5" y1="99.5" x2="446.5" y2="94.5"/>
			<line fill="none" stroke="#888888" x1="503.5" y1="99.5" x2="503.5" y2="94.5"/>
			<line fill="none" stroke="#000000" stroke-miterlimit="10" x1="161" y1="325" x2="160.5" y2="94.5"/>
		</g>
		<polyline fill="none" stroke="#888888" points="103.5,99.5 161,99.5 549.5,99.5 		"/>
	</g>
	<g>
		<g>
			<path fill="#E7298A" d="M121.5,56.143h10v10h-10"/>
			<g>
				<g display="none">
					<text transform="matrix(1 0 0 1 136.5 64.1429)" display="inline" font-family="'ArialMT'" font-size="12px">T</text>
					<text transform="matrix(1 0 0 1 143.3848 64.1429)" display="inline" font-family="'ArialMT'" font-size="12px">r</text>
					<text transform="matrix(1 0 0 1 147.3809 64.1429)" display="inline" font-family="'ArialMT'" font-size="12px">a</text>
					<text transform="matrix(1 0 0 1 154.0547 64.1429)" display="inline" font-family="'ArialMT'" font-size="12px">d</text>
					<text transform="matrix(1 0 0 1 160.7285 64.1429)" display="inline" font-family="'ArialMT'" font-size="12px">e</text>
				</g>
			</g>
		</g>
		<g>
			<path fill="#66A61E" d="M121.5,42h10v10h-10"/>
			<g>
				<text transform="matrix(1 0 0 1 136.5 50)" display="none" font-family="'ArialMT'" font-size="12px">Services</text>
			</g>
		</g>
	</g>
	<g>
		<g>
			<path fill="#1B9E77" d="M293.833,42h10v10h-10"/>
			<g>
				<text transform="matrix(1 0 0 1 308.8333 50.0001)" display="none" font-family="'ArialMT'" font-size="12px">Natural Resources</text>
			</g>
		</g>
		<g>
			<path fill="#D95F02" d="M293.833,56.143h10v10h-10"/>
			<g>
				<text transform="matrix(1 0 0 1 308.8333 64.143)" display="none" font-family="'ArialMT'" font-size="12px">Construction</text>
			</g>
		</g>
	</g>
	<g>
		<g>
			<path fill="#E6AB02" d="M200.167,56.142h10v10h-10"/>
			<g>
				<text transform="matrix(1 0 0 1 215.1667 64.1425)" display="none" font-family="'ArialMT'" font-size="12px">Healthcare</text>
			</g>
		</g>
		<g>
			<path fill="#A6761D" d="M200.167,42h10v10h-10"/>
			<g>
				<text transform="matrix(1 0 0 1 215.1667 49.9996)" display="none" font-family="'ArialMT'" font-size="12px">Government</text>
			</g>
		</g>
	</g>
	<g>
		<g>
			<path fill="#7570B3" d="M412.5,42h10v10h-10"/>
			<g>
				<text transform="matrix(1 0 0 1 427.5 49.9997)" display="none" font-family="'ArialMT'" font-size="12px">Manufacturing</text>
			</g>
		</g>
		<g>
			<path fill="#CCCCCC" d="M412.5,56.143h10v10h-10"/>
			<g>
				<text transform="matrix(1 0 0 1 427.5 64.1426)" display="none" font-family="'ArialMT'" font-size="12px">Category witheld</text>
			</g>
		</g>
	</g>
	<g>
		<path fill="none" stroke="#000000" stroke-miterlimit="10" d="M327,233c-36.161,0-39.712-22.6-39.712-31.479"/>
		<g>
			<polygon points="287.5,198 289.286,203.068 287.314,201.79 285.226,202.869 			"/>
		</g>
	</g>
	<g>
		<path fill="none" stroke="#000000" stroke-miterlimit="10" d="M310,273.5c-17.817,0-30.358,1.759-31.851,18.47"/>
		<g>
			<polygon points="278,295.5 276.231,290.426 278.199,291.711 280.29,290.639 			"/>
		</g>
	</g>
</g>
<style type="text/css">
#g-mt-economy-3-regional-change-medium-img rect, #g-mt-economy-3-regional-change-medium-img circle, #g-mt-economy-3-regional-change-medium-img path, #g-mt-economy-3-regional-change-medium-img line, #g-mt-economy-3-regional-change-medium-img polyline { vector-effect: non-scaling-stroke; }
</style>
</svg>

