<?xml version="1.0" encoding="utf-8"?>
<!-- Generator: Adobe Illustrator 22.1.0, SVG Export Plug-In . SVG Version: 6.00 Build 0)  -->
<svg version="1.2" baseProfile="tiny" id="g-mt-economy-3a-sector-line-charts-medium-img" xmlns="http://www.w3.org/2000/svg" xmlns:xlink="http://www.w3.org/1999/xlink"
	 x="0px" y="0px" viewBox="0 0 600 546" xml:space="preserve">
<g>
	<g transform="translate(50,10)">
		<g transform="translate(0,160)">
			<g transform="translate(0.5,0)">
				<text transform="matrix(1 0 0 1 -15.9521 92.7803)" display="none" font-family="'ArialMT'" font-size="12px">2000</text>
			</g>
			<g transform="translate(56.05555555555556,0)">
				<line fill="none" stroke="#000000" x1="-6.157" y1="69.871" x2="-6.157" y2="76.912"/>
				<text transform="matrix(1 0 0 1 -19.2392 92.7803)" display="none" font-family="'ArialMT'" font-size="12px">2005</text>
			</g>
			<g transform="translate(111.61111111111111,0)">
				<line fill="none" stroke="#000000" x1="-114.271" y1="69.871" x2="-114.271" y2="76.912"/>
			</g>
			<g transform="translate(167.16666666666669,0)">
				<line fill="none" stroke="#000000" x1="-60.31" y1="69.871" x2="-60.31" y2="76.912"/>
				<text transform="matrix(1 0 0 1 -73.1008 92.7803)" display="none" font-family="'ArialMT'" font-size="12px">2010</text>
			</g>
			<g transform="translate(167.16666666666669,0)">
				<line fill="none" stroke="#000000" x1="4.885" y1="69.871" x2="4.885" y2="76.912"/>
				<text transform="matrix(1 0 0 1 -7.9054 92.7803)" display="none" font-family="'ArialMT'" font-size="12px">2016</text>
			</g>
		</g>
		<g>
			<g transform="translate(0,160.5)">
				<line fill="none" stroke="#000000" x1="-2.79" y1="69.958" x2="-8.051" y2="69.958"/>
				<line fill="none" stroke="#000000" stroke-opacity="0.1" x1="-2.79" y1="69.958" x2="172.295" y2="69.275"/>
				<text transform="matrix(1 0 0 1 -16.9707 73.7129)" display="none" font-family="'ArialMT'" font-size="12px">0</text>
			</g>
			<g transform="translate(0,120.5)">
				
				<line fill="none" stroke="#000000" x1="-2.79" y1="63.016" x2="-8.051" y2="63.016"/>
				<text transform="matrix(1 0 0 1 -47 66.7705)" display="none" font-family="'ArialMT'" font-size="12px">20,000</text>
			</g>
			<g transform="translate(0,80.5)">
				
				<line fill="none" stroke="#000000" x1="-2.79" y1="56.074" x2="-8.051" y2="56.074"/>
				<text transform="matrix(1 0 0 1 -47 59.8291)" display="none" font-family="'ArialMT'" font-size="12px">40,000</text>
			</g>
			<g transform="translate(0,40.5)">
				<line fill="none" stroke="#000000" x1="-2.79" y1="49.131" x2="-8.051" y2="49.131"/>
				<line fill="none" stroke="#000000" stroke-opacity="0.1" x1="-2.79" y1="49.131" x2="172.569" y2="49.131"/>
				<text transform="matrix(1 0 0 1 -47 52.8867)" display="none" font-family="'ArialMT'" font-size="12px">60,000</text>
			</g>
			<g transform="translate(0,0.5)">
				<line fill="none" stroke="#000000" x1="-2.79" y1="42.189" x2="-8.051" y2="42.189"/>
				<line fill="none" stroke="#000000" stroke-opacity="0.1" x1="-2.79" y1="42.189" x2="172.569" y2="42.189"/>
				<g display="none">
					<text transform="matrix(1 0 0 1 -47 45.9434)" display="inline" font-family="'ArialMT'" font-size="12px">80,000</text>
					<text transform="matrix(1 0 0 1 -32.3105 60.3438)" display="inline" font-family="'ArialMT'" font-size="12px">jobs</text>
				</g>
			</g>
		</g>
		<g>
			<rect x="-2.79" y="42.102" fill="#EEDD22" fill-opacity="0.2" width="0" height="187.769"/>
			<rect x="6.636" y="42.102" fill="#EEDD22" fill-opacity="0.2" width="0" height="187.769"/>
			<rect x="73.019" y="31.015" fill="#EEDD22" fill-opacity="0.2" width="21.902" height="198.856"/>
		</g>
		<g>
			<path display="none" fill="none" stroke="#000000" stroke-opacity="0.15" stroke-dasharray="1" d="M7.315,153.862l10.951,0.688
				l10.951,3.781l10.951,1.671l10.951,1.62l10.951,1.504l10.951-0.758l10.951-0.753l10.951,0.39l10.951,0.204l10.951-1.232
				l10.951-0.892l10.951-1.002l10.951,1.07l10.951-1.094l10.951,0.031"/>
			<path display="none" fill="none" stroke="#000000" stroke-opacity="0.15" stroke-dasharray="1" d="M7.315,213.333l10.951-1.814
				l10.951,1.793l10.951-0.359l10.951,0.146l10.951,0.3l10.951-0.641l10.951-0.361l10.951,0.911l10.951-0.185l10.951-0.138
				l10.951-0.868l10.951-0.378l10.951-0.706l10.951,0.669l10.951,0.148"/>
			<path display="none" fill="none" stroke="#000000" stroke-opacity="0.15" stroke-dasharray="1" d="M7.315,213.397l10.951,0.681
				l10.951-0.491l10.951-2.281l10.951-1.392l10.951-1.974l10.951-2.058l10.951-1.727l10.951,3.089l10.951-3.401l10.951-0.448
				l10.951-8.405l10.951,0.253l10.951,1.016l10.951,1.537l10.951,2.702"/>
			<path display="none" fill="none" stroke="#000000" stroke-opacity="0.15" stroke-dasharray="1" d="M7.315,189.656l10.951,0.521
				l10.951-0.704l10.951-1.512l10.951-0.789l10.951-0.617l10.951-0.751l10.951,0.453l10.951,1.53l10.951,0.946l10.951-0.197
				l10.951-1.436l10.951-2.162l10.951-2.122l10.951-1.95l10.951-0.451"/>
			<path display="none" fill="none" stroke="#000000" stroke-opacity="0.15" stroke-dasharray="1" d="M7.315,67.256l10.951-0.976
				l10.951,0.397l10.951-3.424l10.951-3.457l10.951-2.683l10.951-6.243l10.951,1.218l10.951,7.177l10.951,5.391l10.951-1.514
				l10.951,0.122l10.951-2.307l10.951-4.274l10.951-3.868l10.951-2.49"/>
			<path display="none" fill="none" stroke="#000000" stroke-opacity="0.15" stroke-dasharray="1" d="M7.315,98.618l10.951-4.389
				l10.951-1.213l10.951-2.863l10.951-3.598l10.951-3.511l10.951-4.166l10.951-4.37l10.951-3.272l10.951-1.995l10.951,0.629
				l10.951-4.692l10.951-2.633l10.951-0.782l10.951-3.295l10.951-5.464"/>
			<path display="none" fill="none" stroke="#000000" stroke-opacity="0.15" stroke-dasharray="1" d="M7.315,199.234l10.951-1.793
				l10.951-0.568l10.951,0.387l10.951,0.838l10.951,0.019l10.951,0.258l10.951-0.528l10.951-1.286l10.951-1.556l10.951,2.293
				l10.951,0.739l10.951,1.15l10.951,0.171l10.951-0.204l10.951-0.561"/>
			<path display="none" fill="none" stroke="#000000" stroke-opacity="0.15" stroke-dasharray="1" d="M7.315,210.247l10.951-0.103
				l10.951-0.237L40.167,210l10.951,0.512l10.951-0.012l10.951,0.178l10.951-0.063l10.951,0.469l10.951-0.218l10.951-0.214
				l10.951-0.298l10.951,0.038l10.951,0.554l10.951,0.469l10.951,0.063"/>
			<path display="none" fill="none" stroke="#000000" stroke-opacity="0.15" stroke-dasharray="1" d="M7.315,173.111l10.951,2.471
				l10.951-3.331l10.951-1.509l10.951-1.115l10.951,0.406l10.951-2.056l10.951,0.897l10.951-1.155l10.951,0.148l10.951-1.019
				l10.951,0.113l10.951-1.127l10.951-1.019l10.951,0.831l10.951-0.408"/>
			<path display="none" fill="none" stroke="#000000" stroke-opacity="0.15" stroke-dasharray="1" d="M7.315,125.303l10.951-0.077
				l10.951-1.995l10.951-1.073l10.951,1.152l10.951-0.23l10.951-0.249l10.951-1.772l10.951-2.385l10.951-0.85l10.951,1.46
				l10.951,1.507l10.951,0.063l10.951-0.211l10.951-1.246l10.951-1.443"/>
			<path fill="none" stroke="#66A61E" stroke-width="2" stroke-linecap="round" stroke-linejoin="round" d="M7.315,121.547
				l10.951-2.023l10.951-1.788l10.951-2.744l10.951-2.136l10.951-1.962l10.951-1.451l10.951-1.561l10.951,4.166l10.951,1.781
				l10.951-2.603l10.951-3.098l10.951-3.95l10.951-1.683l10.951-4.736l10.951-4.164"/>
			<path fill="none" stroke="#D95F02" stroke-width="2" stroke-linecap="round" stroke-linejoin="round" d="M7.315,139.554
				l10.951,0.171l10.951-6.41l10.951-7.018l10.951-10.273l10.951-7.182l10.951-6.487l10.951,8.41l10.951,16.282l10.951,6.734
				l10.951,1.258l10.951-1.232l10.951-2.814l10.951-2.169l10.951-3.988l10.951-1.026"/>
			<path fill="none" stroke="#66A61E" stroke-width="2" stroke-linecap="round" stroke-linejoin="round" d="M7.315,184.656
				l10.951,0.068l10.951-3.079l10.951-4.786l10.951-5.424l10.951-5.121l10.951-4.607l10.951-1.519l10.951,0.559l10.951-2.418
				l10.951-2.659l10.951,0.476l10.951-1.925l10.951-3.42l10.951-3.044l10.951-2.814"/>
			<path fill="none" stroke="#66A61E" stroke-width="2" stroke-linecap="round" stroke-linejoin="round" d="M7.315,182.185
				l10.951-1.929l10.951-0.807l10.951-0.225l10.951-0.411l10.951-1.415l10.951-2.807l10.951-3.011l10.951-2.549l10.951,1.896
				l10.951-2.551l10.951,2.11l10.951,0.246l10.951,1.803l10.951-0.965l10.951,0.263"/>
			<path display="none" fill="none" stroke="#000000" stroke-opacity="0.15" stroke-dasharray="1" d="M7.315,188.947l10.951,0.458
				l10.951,0.824l10.951-0.373l10.951-1.779l10.951-1.31l10.951-0.641l10.951,1.202l10.951,0.934l10.951,0.601l10.951-2.387
				l10.951-2.096l10.951-0.887l10.951-0.43l10.951-0.556l10.951,0.627"/>
			<path fill="none" stroke="#66A61E" stroke-width="2" stroke-linecap="round" stroke-linejoin="round" d="M7.315,196.81
				l10.951-2.136l10.951-2.11l10.951-1.124l10.951-1.826l10.951-2.171l10.951-2.493l10.951-0.772l10.951,1.458l10.951,0.5
				l10.951-0.627l10.951-0.336l10.951-1.138l10.951-1.533l10.951,0.81l10.951-0.638"/>
		</g>
	</g>
	<g transform="translate(50,10)">
		<g transform="translate(0,160)">
			<g transform="translate(0.5,0)">
				<line fill="none" stroke="#000000" x1="-2.852" y1="332.214" x2="-2.852" y2="339.255"/>
				<text transform="matrix(1 0 0 1 -15.9521 353.7852)" display="none" font-family="'ArialMT'" font-size="12px">2000</text>
			</g>
			<g transform="translate(56.05555555555556,0)">
				<line fill="none" stroke="#000000" x1="-9.696" y1="332.214" x2="-9.696" y2="339.255"/>
				<text transform="matrix(1 0 0 1 -22.7968 353.7852)" display="none" font-family="'ArialMT'" font-size="12px">2005</text>
			</g>
			<g transform="translate(167.16666666666669,0)">
				<line fill="none" stroke="#000000" x1="-59.434" y1="332.214" x2="-59.434" y2="339.255"/>
				<text transform="matrix(1 0 0 1 -72.2238 353.7842)" display="none" font-family="'ArialMT'" font-size="12px">2010</text>
			</g>
		</g>
		<g>
			<g transform="translate(0,160.5)">
				<line fill="none" stroke="#000000" x1="-2.79" y1="332.301" x2="-8.051" y2="332.301"/>
				<line fill="none" stroke="#000000" stroke-opacity="0.1" x1="-2.79" y1="332.301" x2="172.569" y2="332.301"/>
				<text transform="matrix(1 0 0 1 -16.9707 336.0566)" display="none" font-family="'ArialMT'" font-size="12px">0</text>
			</g>
			<g transform="translate(0,120.5)">
				<line fill="none" stroke="#000000" x1="-2.79" y1="325.358" x2="-8.051" y2="325.358"/>
				<line fill="none" stroke="#000000" stroke-opacity="0.1" x1="-2.79" y1="325.358" x2="172.569" y2="325.358"/>
				<text transform="matrix(1 0 0 1 -47 329.1133)" display="none" font-family="'ArialMT'" font-size="12px">20,000</text>
			</g>
			<g transform="translate(0,80.5)">
				<line fill="none" stroke="#000000" x1="-2.79" y1="318.416" x2="-8.051" y2="318.416"/>
				<line fill="none" stroke="#000000" stroke-opacity="0.1" x1="-2.79" y1="318.416" x2="172.569" y2="318.416"/>
				<text transform="matrix(1 0 0 1 -47 322.1719)" display="none" font-family="'ArialMT'" font-size="12px">40,000</text>
			</g>
			<g transform="translate(0,40.5)">
				<line fill="none" stroke="#000000" x1="-2.79" y1="311.474" x2="-8.051" y2="311.474"/>
				<line fill="none" stroke="#000000" stroke-opacity="0.1" x1="-2.79" y1="311.474" x2="172.569" y2="311.474"/>
				<text transform="matrix(1 0 0 1 -47 315.2305)" display="none" font-family="'ArialMT'" font-size="12px">60,000</text>
			</g>
			<g transform="translate(0,0.5)">
				<line fill="none" stroke="#000000" x1="-2.79" y1="304.532" x2="-8.051" y2="304.532"/>
				<line fill="none" stroke="#000000" stroke-opacity="0.1" x1="-2.79" y1="304.532" x2="172.569" y2="304.532"/>
				<g display="none">
					<text transform="matrix(1 0 0 1 -47 308.2871)" display="inline" font-family="'ArialMT'" font-size="12px">80,000</text>
					<text transform="matrix(1 0 0 1 -32.3105 322.6875)" display="inline" font-family="'ArialMT'" font-size="12px">jobs</text>
				</g>
			</g>
		</g>
		<g>
			<rect x="-2.79" y="304.445" fill="#EEDD22" fill-opacity="0.2" width="0" height="187.769"/>
			<rect x="8.01" y="304.445" fill="#EEDD22" fill-opacity="0.2" width="0" height="187.769"/>
			<rect x="73.834" y="304.445" fill="#EEDD22" fill-opacity="0.2" width="21.941" height="187.769"/>
		</g>
		<g>
			<path display="none" fill="none" stroke="#000000" stroke-opacity="0.15" stroke-dasharray="1" d="M8.01,416.205l10.971,0.688
				l10.971,3.781l10.971,1.671l10.971,1.62l10.971,1.504l10.971-0.758l10.971-0.753l10.971,0.39l10.971,0.204l10.971-1.232
				l10.971-0.892l10.971-1.002l10.971,1.07l10.971-1.094l10.971,0.031"/>
			<path display="none" fill="none" stroke="#000000" stroke-opacity="0.15" stroke-dasharray="1" d="M8.01,475.676l10.971-1.814
				l10.971,1.793l10.971-0.359l10.971,0.146l10.971,0.3l10.971-0.641l10.971-0.361l10.971,0.911l10.971-0.185l10.971-0.138
				l10.971-0.868l10.971-0.378l10.971-0.707l10.971,0.669l10.971,0.148"/>
			<path display="none" fill="none" stroke="#000000" stroke-opacity="0.15" stroke-dasharray="1" d="M8.01,475.739l10.971,0.681
				l10.971-0.491l10.971-2.281l10.971-1.392l10.971-1.974l10.971-2.058l10.971-1.727l10.971,3.089l10.971-3.401l10.971-0.448
				l10.971-8.405l10.971,0.253l10.971,1.016l10.971,1.537l10.971,2.702"/>
			<path display="none" fill="none" stroke="#000000" stroke-opacity="0.15" stroke-dasharray="1" d="M8.01,401.897l10.971,0.171
				l10.971-6.41l10.971-7.018l10.971-10.273l10.971-7.182l10.971-6.487l10.971,8.41l10.971,16.282l10.971,6.734l10.971,1.258
				l10.971-1.232l10.971-2.814l10.971-2.169l10.971-3.988l10.971-1.026"/>
			<path display="none" fill="none" stroke="#000000" stroke-opacity="0.15" stroke-dasharray="1" d="M8.01,444.528l10.971-1.929
				l10.971-0.807l10.971-0.225l10.971-0.411l10.971-1.415l10.971-2.807l10.971-3.011l10.971-2.549l10.971,1.896l10.971-2.551
				l10.971,2.11l10.971,0.246l10.971,1.803l10.971-0.965l10.971,0.263"/>
			<path display="none" fill="none" stroke="#000000" stroke-opacity="0.15" stroke-dasharray="1" d="M8.01,446.999l10.971,0.068
				l10.971-3.079l10.971-4.786l10.971-5.424l10.971-5.121l10.971-4.607l10.971-1.519l10.971,0.559l10.971-2.418l10.971-2.659
				l10.971,0.476l10.971-1.925l10.971-3.42l10.971-3.044l10.971-2.814"/>
			<path display="none" fill="none" stroke="#000000" stroke-opacity="0.15" stroke-dasharray="1" d="M8.01,459.152l10.971-2.136
				l10.971-2.11l10.971-1.124l10.971-1.826l10.971-2.171l10.971-2.493l10.971-0.772l10.971,1.458l10.971,0.5l10.971-0.627
				l10.971-0.336l10.971-1.138l10.971-1.533l10.971,0.81l10.971-0.638"/>
			<path display="none" fill="none" stroke="#000000" stroke-opacity="0.15" stroke-dasharray="1" d="M8.01,383.89l10.971-2.023
				l10.971-1.788l10.971-2.744l10.971-2.136l10.971-1.962l10.971-1.451l10.971-1.561l10.971,4.166l10.971,1.781l10.971-2.603
				l10.971-3.098l10.971-3.95l10.971-1.683l10.971-4.736l10.971-4.164"/>
			<path display="none" fill="none" stroke="#000000" stroke-opacity="0.15" stroke-dasharray="1" d="M8.01,461.577l10.971-1.793
				l10.971-0.568l10.971,0.387l10.971,0.838l10.971,0.019l10.971,0.258l10.971-0.528l10.971-1.286l10.971-1.556l10.971,2.293
				l10.971,0.739l10.971,1.15l10.971,0.171l10.971-0.204l10.971-0.561"/>
			<path display="none" fill="none" stroke="#000000" stroke-opacity="0.15" stroke-dasharray="1" d="M8.01,472.59l10.971-0.103
				l10.971-0.237l10.971,0.094l10.971,0.512l10.971-0.012l10.971,0.178l10.971-0.063l10.971,0.469l10.971-0.218l10.971-0.214
				l10.971-0.298l10.971,0.038l10.971,0.554l10.971,0.469l10.971,0.063"/>
			<path display="none" fill="none" stroke="#000000" stroke-opacity="0.15" stroke-dasharray="1" d="M8.01,435.454l10.971,2.471
				l10.971-3.331l10.971-1.509l10.971-1.115l10.971,0.406l10.971-2.056l10.971,0.897l10.971-1.155l10.971,0.148l10.971-1.019
				l10.971,0.113l10.971-1.127l10.971-1.019l10.971,0.831l10.971-0.408"/>
			<path display="none" fill="none" stroke="#000000" stroke-opacity="0.15" stroke-dasharray="1" d="M8.01,387.645l10.971-0.077
				l10.971-1.995l10.971-1.073l10.971,1.152l10.971-0.23l10.971-0.249l10.971-1.772l10.971-2.385l10.971-0.85l10.971,1.46
				l10.971,1.507l10.971,0.063l10.971-0.211l10.971-1.246l10.971-1.443"/>
			<path fill="none" stroke="#E7298A" stroke-width="2" stroke-linecap="round" stroke-linejoin="round" d="M8.01,451.998
				l10.971,0.521l10.971-0.704l10.971-1.512l10.971-0.789l10.971-0.617l10.971-0.751l10.971,0.453l10.971,1.53l10.971,0.946
				l10.971-0.197l10.971-1.436l10.971-2.162l10.971-2.122l10.971-1.95l10.971-0.451"/>
			<path fill="none" stroke="#E7298A" stroke-width="2" stroke-linecap="round" stroke-linejoin="round" d="M8.01,329.599
				l10.971-0.976l10.971,0.397l10.971-3.424l10.971-3.457l10.971-2.683l10.971-6.243l10.971,1.218l10.971,7.177l10.971,5.391
				l10.971-1.514l10.971,0.122l10.971-2.307l10.971-4.274l10.971-3.868l10.971-2.49"/>
			<path fill="none" stroke="#E7298A" stroke-width="2" stroke-linecap="round" stroke-linejoin="round" d="M8.01,451.29
				l10.971,0.458l10.971,0.824l10.971-0.373l10.971-1.779l10.971-1.31l10.971-0.641l10.971,1.202l10.971,0.934l10.971,0.601
				l10.971-2.387l10.971-2.096l10.971-0.887l10.971-0.43l10.971-0.556l10.971,0.627"/>
			<path fill="none" stroke="#E6AB02" stroke-width="2" stroke-linecap="round" stroke-linejoin="round" d="M8.01,360.961
				l10.971-4.389l10.971-1.213l10.971-2.863l10.971-3.598l10.971-3.511l10.971-4.166l10.971-4.37l10.971-3.272l10.971-1.995
				l10.971,0.629l10.971-4.692l10.971-2.633l10.971-0.782l10.971-3.295l10.971-5.464"/>
		</g>
	</g>
	<g transform="translate(50,10)">
		<g transform="translate(0,160)">
			<g transform="translate(0.5,0)">
				<line fill="none" stroke="#000000" x1="298.227" y1="69.871" x2="298.227" y2="76.912"/>
				<text transform="matrix(1 0 0 1 285.1265 92.7803)" display="none" font-family="'ArialMT'" font-size="12px">2000</text>
			</g>
			<g transform="translate(56.05555555555556,0)">
				<line fill="none" stroke="#000000" x1="291.382" y1="69.871" x2="291.382" y2="76.912"/>
				<text transform="matrix(1 0 0 1 278.2823 92.7803)" display="none" font-family="'ArialMT'" font-size="12px">2005</text>
			</g>
			<g transform="translate(111.61111111111111,0)">
				<line fill="none" stroke="#000000" x1="187.386" y1="69.871" x2="187.386" y2="76.912"/>
			</g>
			<g transform="translate(167.16666666666669,0)">
				<line fill="none" stroke="#000000" x1="241.605" y1="69.871" x2="241.605" y2="76.912"/>
				<text transform="matrix(1 0 0 1 228.8158 92.7803)" display="none" font-family="'ArialMT'" font-size="12px">2010</text>
			</g>
		</g>
		<g>
			<g transform="translate(0,160.5)">
				<line fill="none" stroke="#000000" x1="298.288" y1="69.958" x2="293.028" y2="69.958"/>
				<line fill="none" stroke="#000000" stroke-opacity="0.1" x1="298.288" y1="69.958" x2="473.648" y2="69.958"/>
				<text transform="matrix(1 0 0 1 284.1079 73.7129)" display="none" font-family="'ArialMT'" font-size="12px">0</text>
			</g>
			<g transform="translate(0,120.5)">
				<line fill="none" stroke="#000000" x1="298.288" y1="63.016" x2="293.028" y2="63.016"/>
				<line fill="none" stroke="#000000" stroke-opacity="0.1" x1="298.288" y1="63.016" x2="473.648" y2="63.016"/>
				<text transform="matrix(1 0 0 1 254.0786 66.7705)" display="none" font-family="'ArialMT'" font-size="12px">20,000</text>
			</g>
			<g transform="translate(0,80.5)">
				<line fill="none" stroke="#000000" x1="298.288" y1="56.074" x2="293.028" y2="56.074"/>
				<line fill="none" stroke="#000000" stroke-opacity="0.1" x1="298.288" y1="56.074" x2="473.648" y2="56.074"/>
				<text transform="matrix(1 0 0 1 254.0786 59.8291)" display="none" font-family="'ArialMT'" font-size="12px">40,000</text>
			</g>
			<g transform="translate(0,40.5)">
				<line fill="none" stroke="#000000" x1="298.288" y1="49.131" x2="293.028" y2="49.131"/>
				<line fill="none" stroke="#000000" stroke-opacity="0.1" x1="298.288" y1="49.131" x2="473.648" y2="49.131"/>
				<text transform="matrix(1 0 0 1 254.0786 52.8867)" display="none" font-family="'ArialMT'" font-size="12px">60,000</text>
			</g>
			<g transform="translate(0,0.5)">
				<line fill="none" stroke="#000000" x1="298.288" y1="42.189" x2="293.028" y2="42.189"/>
				<line fill="none" stroke="#000000" stroke-opacity="0.1" x1="298.288" y1="42.189" x2="473.648" y2="42.189"/>
				<g display="none">
					<text transform="matrix(1 0 0 1 254.0786 45.9434)" display="inline" font-family="'ArialMT'" font-size="12px">80,000</text>
					<text transform="matrix(1 0 0 1 268.7681 60.3438)" display="inline" font-family="'ArialMT'" font-size="12px">jobs</text>
				</g>
			</g>
		</g>
		<g>
			<rect x="298.288" y="42.102" fill="#EEDD22" fill-opacity="0.2" width="0" height="187.769"/>
			<rect x="308.987" y="42.102" fill="#EEDD22" fill-opacity="0.2" width="0" height="187.769"/>
			<rect x="374.851" y="42.102" fill="#EEDD22" fill-opacity="0.2" width="21.955" height="187.769"/>
		</g>
		<g>
			<path display="none" fill="none" stroke="#000000" stroke-opacity="0.15" stroke-dasharray="1" d="M308.987,139.554l10.977,0.171
				l10.977-6.41l10.977-7.018l10.977-10.273l10.977-7.182l10.977-6.487l10.977,8.41l10.977,16.282l10.977,6.734l10.977,1.258
				l10.977-1.232l10.977-2.814l10.977-2.169l10.977-3.988l10.977-1.026"/>
			<path display="none" fill="none" stroke="#000000" stroke-opacity="0.15" stroke-dasharray="1" d="M308.987,189.656l10.977,0.521
				l10.977-0.704l10.977-1.512l10.977-0.789l10.977-0.617l10.977-0.751l10.977,0.453l10.977,1.53l10.977,0.946l10.977-0.197
				l10.977-1.436l10.977-2.162l10.977-2.122l10.977-1.95l10.977-0.451"/>
			<path display="none" fill="none" stroke="#000000" stroke-opacity="0.15" stroke-dasharray="1" d="M308.987,67.256l10.977-0.976
				l10.977,0.397l10.977-3.424l10.977-3.457l10.977-2.683l10.977-6.243l10.977,1.218l10.977,7.177l10.977,5.391l10.977-1.514
				l10.977,0.122l10.977-2.307l10.977-4.274l10.977-3.868l10.977-2.49"/>
			<path display="none" fill="none" stroke="#000000" stroke-opacity="0.15" stroke-dasharray="1" d="M308.987,188.947l10.977,0.458
				l10.977,0.824l10.977-0.373l10.977-1.779l10.977-1.31l10.977-0.641l10.977,1.202l10.977,0.934l10.977,0.601l10.977-2.387
				l10.977-2.096l10.977-0.887l10.977-0.43l10.977-0.556l10.977,0.627"/>
			<path display="none" fill="none" stroke="#000000" stroke-opacity="0.15" stroke-dasharray="1" d="M308.987,182.185l10.977-1.929
				l10.977-0.807l10.977-0.225l10.977-0.411l10.977-1.415l10.977-2.807l10.977-3.011l10.977-2.549l10.977,1.896l10.977-2.551
				l10.977,2.11l10.977,0.246l10.977,1.803l10.977-0.965l10.977,0.263"/>
			<path display="none" fill="none" stroke="#000000" stroke-opacity="0.15" stroke-dasharray="1" d="M308.987,184.656l10.977,0.068
				l10.977-3.079l10.977-4.786l10.977-5.424l10.977-5.121l10.977-4.607l10.977-1.519l10.977,0.559l10.977-2.418l10.977-2.659
				l10.977,0.476l10.977-1.925l10.977-3.42l10.977-3.044l10.977-2.814"/>
			<path display="none" fill="none" stroke="#000000" stroke-opacity="0.15" stroke-dasharray="1" d="M308.987,98.618l10.977-4.389
				l10.977-1.213l10.977-2.863l10.977-3.598l10.977-3.511l10.977-4.166l10.977-4.37l10.977-3.272l10.977-1.995l10.977,0.629
				l10.977-4.692l10.977-2.633l10.977-0.782l10.977-3.295l10.977-5.464"/>
			<path display="none" fill="none" stroke="#000000" stroke-opacity="0.15" stroke-dasharray="1" d="M308.987,196.81l10.977-2.136
				l10.977-2.11l10.977-1.124l10.977-1.826l10.977-2.171l10.977-2.493l10.977-0.772l10.977,1.458l10.977,0.5l10.977-0.627
				l10.977-0.336l10.977-1.138l10.977-1.533l10.977,0.81l10.977-0.638"/>
			<path display="none" fill="none" stroke="#000000" stroke-opacity="0.15" stroke-dasharray="1" d="M308.987,121.547l10.977-2.023
				l10.977-1.788l10.977-2.744l10.977-2.136l10.977-1.962l10.977-1.451l10.977-1.561l10.977,4.166l10.977,1.781l10.977-2.603
				l10.977-3.098l10.977-3.95l10.977-1.683l10.977-4.736l10.977-4.164"/>
			<path display="none" fill="none" stroke="#000000" stroke-opacity="0.15" stroke-dasharray="1" d="M308.987,199.234l10.977-1.793
				l10.977-0.568l10.977,0.387l10.977,0.838l10.977,0.019l10.977,0.258l10.977-0.528l10.977-1.286l10.977-1.556l10.977,2.293
				l10.977,0.739l10.977,1.15l10.977,0.171l10.977-0.204l10.977-0.561"/>
			<path display="none" fill="none" stroke="#000000" stroke-opacity="0.15" stroke-dasharray="1" d="M308.987,210.247l10.977-0.103
				l10.977-0.237L341.919,210l10.977,0.512l10.977-0.012l10.977,0.178l10.977-0.063l10.977,0.469l10.977-0.218l10.977-0.214
				l10.977-0.298l10.977,0.038l10.977,0.554l10.977,0.469l10.977,0.063"/>
			<path display="none" fill="none" stroke="#000000" stroke-opacity="0.15" stroke-dasharray="1" d="M308.987,173.111l10.977,2.471
				l10.977-3.331l10.977-1.509l10.977-1.115l10.977,0.406l10.977-2.056l10.977,0.897l10.977-1.155l10.977,0.148l10.977-1.019
				l10.977,0.113l10.977-1.127l10.977-1.019l10.977,0.831l10.977-0.408"/>
			<path display="none" fill="none" stroke="#000000" stroke-opacity="0.15" stroke-dasharray="1" d="M308.987,125.303l10.977-0.077
				l10.977-1.995l10.977-1.073l10.977,1.152l10.977-0.23l10.977-0.249l10.977-1.772l10.977-2.385l10.977-0.85l10.977,1.46
				l10.977,1.507l10.977,0.063l10.977-0.211l10.977-1.246l10.977-1.443"/>
			<path fill="none" stroke="#1B9E77" stroke-width="2" stroke-linecap="round" stroke-linejoin="round" d="M308.987,153.862
				l10.977,0.688l10.977,3.781l10.977,1.671l10.977,1.62l10.977,1.504l10.977-0.758l10.977-0.753l10.977,0.39l10.977,0.204
				l10.977-1.232l10.977-0.892l10.977-1.002l10.977,1.07l10.977-1.094l10.977,0.031"/>
			<path fill="none" stroke="#1B9E77" stroke-width="2" stroke-linecap="round" stroke-linejoin="round" d="M308.987,213.333
				l10.977-1.814l10.977,1.793l10.977-0.359l10.977,0.146l10.977,0.3l10.977-0.641l10.977-0.361l10.977,0.911l10.977-0.185
				l10.977-0.138l10.977-0.868l10.977-0.378l10.977-0.706l10.977,0.669l10.977,0.148"/>
			<path fill="none" stroke="#1B9E77" stroke-width="2" stroke-linecap="round" stroke-linejoin="round" d="M308.987,213.397
				l10.977,0.681l10.977-0.491l10.977-2.281l10.977-1.392l10.977-1.974l10.977-2.058l10.977-1.727l10.977,3.089l10.977-3.401
				l10.977-0.448l10.977-8.405l10.977,0.253l10.977,1.016l10.977,1.537l10.977,2.702"/>
		</g>
	</g>
	<g transform="translate(50,10)">
		<g>
			<rect x="298.288" y="304.445" fill="#EEDD22" fill-opacity="0.2" width="0" height="187.769"/>
			<rect x="308.996" y="304.445" fill="#EEDD22" fill-opacity="0.2" width="0" height="187.769"/>
			<rect x="374.857" y="304.445" fill="#EEDD22" fill-opacity="0.2" width="21.954" height="187.769"/>
		</g>
		<g>
			<path display="none" fill="none" stroke="#000000" stroke-opacity="0.15" stroke-dasharray="1" d="M308.996,416.205l10.977,0.688
				l10.977,3.781l10.977,1.671l10.977,1.62l10.977,1.504l10.977-0.758l10.977-0.753l10.977,0.39l10.977,0.204l10.977-1.232
				l10.977-0.892l10.977-1.002l10.977,1.07l10.977-1.094l10.977,0.031"/>
			<path display="none" fill="none" stroke="#000000" stroke-opacity="0.15" stroke-dasharray="1" d="M308.996,475.676l10.977-1.814
				l10.977,1.793l10.977-0.359l10.977,0.146l10.977,0.3l10.977-0.641l10.977-0.361l10.977,0.911l10.977-0.185l10.977-0.138
				l10.977-0.868l10.977-0.378l10.977-0.707l10.977,0.669l10.977,0.148"/>
			<path display="none" fill="none" stroke="#000000" stroke-opacity="0.15" stroke-dasharray="1" d="M308.996,475.739l10.977,0.681
				l10.977-0.491l10.977-2.281l10.977-1.392l10.977-1.974l10.977-2.058l10.977-1.727l10.977,3.089l10.977-3.401l10.977-0.448
				l10.977-8.405l10.977,0.253l10.977,1.016l10.977,1.537l10.977,2.702"/>
			<path display="none" fill="none" stroke="#000000" stroke-opacity="0.15" stroke-dasharray="1" d="M308.996,401.897l10.977,0.171
				l10.977-6.41l10.977-7.018l10.977-10.273l10.977-7.182l10.977-6.487l10.977,8.41l10.977,16.282l10.977,6.734l10.977,1.258
				l10.977-1.232l10.977-2.814l10.977-2.169l10.977-3.988l10.977-1.026"/>
			<path display="none" fill="none" stroke="#000000" stroke-opacity="0.15" stroke-dasharray="1" d="M308.996,451.998l10.977,0.521
				l10.977-0.704l10.977-1.512l10.977-0.789l10.977-0.617l10.977-0.751l10.977,0.453l10.977,1.53l10.977,0.946l10.977-0.197
				l10.977-1.436l10.977-2.162l10.977-2.122l10.977-1.95l10.977-0.451"/>
			<path display="none" fill="none" stroke="#000000" stroke-opacity="0.15" stroke-dasharray="1" d="M308.996,329.599l10.977-0.976
				l10.977,0.397l10.977-3.424l10.977-3.457l10.977-2.683l10.977-6.243l10.977,1.218l10.977,7.177l10.977,5.391l10.977-1.514
				l10.977,0.122l10.977-2.307l10.977-4.274l10.977-3.868l10.977-2.49"/>
			<path display="none" fill="none" stroke="#000000" stroke-opacity="0.15" stroke-dasharray="1" d="M308.996,451.29l10.977,0.458
				l10.977,0.824l10.977-0.373l10.977-1.779l10.977-1.31l10.977-0.641l10.977,1.202l10.977,0.934l10.977,0.601l10.977-2.387
				l10.977-2.096l10.977-0.887l10.977-0.43l10.977-0.556l10.977,0.627"/>
			<path display="none" fill="none" stroke="#000000" stroke-opacity="0.15" stroke-dasharray="1" d="M308.996,444.528l10.977-1.929
				l10.977-0.807l10.977-0.225l10.977-0.411l10.977-1.415l10.977-2.807l10.977-3.011l10.977-2.549l10.977,1.896l10.977-2.551
				l10.977,2.11l10.977,0.246l10.977,1.803l10.977-0.965l10.977,0.263"/>
			<path display="none" fill="none" stroke="#000000" stroke-opacity="0.15" stroke-dasharray="1" d="M308.996,446.999l10.977,0.068
				l10.977-3.079l10.977-4.786l10.977-5.424l10.977-5.121l10.977-4.607l10.977-1.519l10.977,0.559l10.977-2.418l10.977-2.659
				l10.977,0.476l10.977-1.925l10.977-3.42l10.977-3.044l10.977-2.814"/>
			<path display="none" fill="none" stroke="#000000" stroke-opacity="0.15" stroke-dasharray="1" d="M308.996,360.961l10.977-4.389
				l10.977-1.213l10.977-2.863l10.977-3.598l10.977-3.511l10.977-4.166l10.977-4.37l10.977-3.272l10.977-1.995l10.977,0.629
				l10.977-4.692l10.977-2.633l10.977-0.782l10.977-3.295l10.977-5.464"/>
			<path display="none" fill="none" stroke="#000000" stroke-opacity="0.15" stroke-dasharray="1" d="M308.996,459.152l10.977-2.136
				l10.977-2.11l10.977-1.124l10.977-1.826l10.977-2.171l10.977-2.493l10.977-0.772l10.977,1.458l10.977,0.5l10.977-0.627
				l10.977-0.336l10.977-1.138l10.977-1.533l10.977,0.81l10.977-0.638"/>
			<path display="none" fill="none" stroke="#000000" stroke-opacity="0.15" stroke-dasharray="1" d="M308.996,383.89l10.977-2.023
				l10.977-1.788l10.977-2.744l10.977-2.136l10.977-1.962l10.977-1.451l10.977-1.561l10.977,4.166l10.977,1.781l10.977-2.603
				l10.977-3.098l10.977-3.95l10.977-1.683l10.977-4.736l10.977-4.164"/>
			<path fill="none" stroke="#A6761D" stroke-width="2" stroke-linecap="round" stroke-linejoin="round" d="M308.996,461.577
				l10.977-1.793l10.977-0.568l10.977,0.387l10.977,0.838l10.977,0.019l10.977,0.258l10.977-0.528l10.977-1.286l10.977-1.556
				l10.977,2.293l10.977,0.739l10.977,1.15l10.977,0.171l10.977-0.204l10.977-0.561"/>
			<path fill="none" stroke="#A6761D" stroke-width="2" stroke-linecap="round" stroke-linejoin="round" d="M308.996,472.59
				l10.977-0.103l10.977-0.237l10.977,0.094l10.977,0.512l10.977-0.012l10.977,0.178l10.977-0.063l10.977,0.469l10.977-0.218
				l10.977-0.214l10.977-0.298l10.977,0.038l10.977,0.554l10.977,0.469l10.977,0.063"/>
			<path fill="none" stroke="#A6761D" stroke-width="2" stroke-linecap="round" stroke-linejoin="round" d="M308.996,435.454
				l10.977,2.471l10.977-3.331l10.977-1.509l10.977-1.115l10.977,0.406l10.977-2.056l10.977,0.897l10.977-1.155l10.977,0.148
				l10.977-1.019l10.977,0.113l10.977-1.127l10.977-1.019l10.977,0.831l10.977-0.408"/>
			<path fill="none" stroke="#A6761D" stroke-width="2" stroke-linecap="round" stroke-linejoin="round" d="M308.996,387.645
				l10.977-0.077l10.977-1.995l10.977-1.073l10.977,1.152l10.977-0.23l10.977-0.249l10.977-1.772l10.977-2.385l10.977-0.85
				l10.977,1.46l10.977,1.507l10.977,0.063l10.977-0.211l10.977-1.246l10.977-1.443"/>
		</g>
		<g transform="translate(0,160)">
			<g transform="translate(0.5,0)">
				<line fill="none" stroke="#000000" x1="298.227" y1="332.214" x2="298.227" y2="339.255"/>
				<text transform="matrix(1 0 0 1 285.1265 353.7852)" display="none" font-family="'ArialMT'" font-size="12px">2000</text>
			</g>
			<g transform="translate(56.05555555555556,0)">
				<line fill="none" stroke="#000000" x1="291.382" y1="332.214" x2="291.382" y2="339.255"/>
				<text transform="matrix(1 0 0 1 278.2823 353.7852)" display="none" font-family="'ArialMT'" font-size="12px">2005</text>
			</g>
			<g transform="translate(111.61111111111111,0)">
				<line fill="none" stroke="#000000" x1="187.396" y1="332.214" x2="187.396" y2="339.255"/>
			</g>
			<g transform="translate(167.16666666666669,0)">
				<line fill="none" stroke="#000000" x1="241.609" y1="332.214" x2="241.609" y2="339.255"/>
				<text transform="matrix(1 0 0 1 228.8177 353.7842)" display="none" font-family="'ArialMT'" font-size="12px">2010</text>
			</g>
		</g>
		<g>
			<g transform="translate(0,160.5)">
				<line fill="none" stroke="#000000" x1="298.288" y1="332.301" x2="293.028" y2="332.301"/>
				<line fill="none" stroke="#000000" stroke-opacity="0.1" x1="298.288" y1="332.301" x2="473.648" y2="332.301"/>
				<text transform="matrix(0.7471 0 0 1 285.2202 336.0566)" display="none" font-family="'ArialMT'" font-size="13.3845px">0</text>
			</g>
			<g transform="translate(0,120.5)">
				<line fill="none" stroke="#000000" x1="298.288" y1="325.358" x2="293.028" y2="325.358"/>
				<line fill="none" stroke="#000000" stroke-opacity="0.1" x1="298.288" y1="325.358" x2="473.648" y2="325.358"/>
				<text transform="matrix(1 0 0 1 254.0786 329.1133)" display="none" font-family="'ArialMT'" font-size="12px">20,000</text>
			</g>
			<g transform="translate(0,80.5)">
				<line fill="none" stroke="#000000" x1="298.288" y1="318.416" x2="293.028" y2="318.416"/>
				<line fill="none" stroke="#000000" stroke-opacity="0.1" x1="298.288" y1="318.416" x2="473.648" y2="318.416"/>
				<text transform="matrix(1 0 0 1 254.0786 322.1719)" display="none" font-family="'ArialMT'" font-size="12px">40,000</text>
			</g>
			<g transform="translate(0,40.5)">
				<line fill="none" stroke="#000000" x1="298.288" y1="311.474" x2="293.028" y2="311.474"/>
				<line fill="none" stroke="#000000" stroke-opacity="0.1" x1="298.288" y1="311.474" x2="473.648" y2="311.474"/>
				<text transform="matrix(1 0 0 1 254.0786 315.2305)" display="none" font-family="'ArialMT'" font-size="12px">60,000</text>
			</g>
			<g transform="translate(0,0.5)">
				<line fill="none" stroke="#000000" x1="298.288" y1="304.532" x2="293.028" y2="304.532"/>
				<line fill="none" stroke="#000000" stroke-opacity="0.1" x1="298.288" y1="304.532" x2="473.648" y2="304.532"/>
				<g display="none">
					<text transform="matrix(1 0 0 1 254.0786 308.2871)" display="inline" font-family="'ArialMT'" font-size="12px">80,000</text>
					<text transform="matrix(1 0 0 1 268.7681 322.6875)" display="inline" font-family="'ArialMT'" font-size="12px">jobs</text>
				</g>
			</g>
		</g>
	</g>
	<g transform="translate(167.16666666666669,0)">
		<line fill="none" stroke="#000000" x1="356.107" y1="239.871" x2="356.107" y2="246.912"/>
	</g>
	<g transform="translate(167.16666666666669,0)">
		<line fill="none" stroke="#000000" x1="356.107" y1="502.208" x2="356.107" y2="509.249"/>
	</g>
	<g transform="translate(167.16666666666669,0)">
		<line fill="none" stroke="#000000" x1="58.107" y1="502.208" x2="58.107" y2="509.249"/>
	</g>
	<g>
		<path fill="none" stroke="#000000" stroke-miterlimit="10" d="M102.656,77.822c8.615,7.244,10.21,20.84,10.466,27.259"/>
		<g>
			<polygon points="113.141,108.607 111.044,103.659 113.092,104.813 115.109,103.606 			"/>
		</g>
	</g>
	<g>
		<path fill="none" stroke="#000000" stroke-miterlimit="10" d="M448.413,134.707c31.445,0,35.815,48.433,36.422,62.056"/>
		<g>
			<polygon points="484.932,200.29 482.721,195.392 484.795,196.498 486.783,195.245 			"/>
		</g>
	</g>
	<g>
		<path fill="none" stroke="#000000" stroke-miterlimit="10" d="M506.5,351.536c15.923,0,14.098,20.36,12.692,28.662"/>
		<g>
			<polygon points="518.5,383.659 517.435,378.392 519.21,379.932 521.428,379.153 			"/>
		</g>
	</g>
	<path fill="none" stroke="#7570B3" stroke-width="2" stroke-linecap="round" stroke-linejoin="round" d="M359,182.69l10.967,2.926
		l10.967,2.727l10.967-0.681l10.967-1.079l10.967-1.504l10.967-1.275l10.967,1.261l10.967,5.112l10.967,3.215l10.967-1.958
		l10.967-2.002l10.967-2.583l10.967-0.881l10.967-0.986l10.967-1.042"/>
</g>
<style type="text/css">
#g-mt-economy-3a-sector-line-charts-medium-img rect, #g-mt-economy-3a-sector-line-charts-medium-img circle, #g-mt-economy-3a-sector-line-charts-medium-img path, #g-mt-economy-3a-sector-line-charts-medium-img line, #g-mt-economy-3a-sector-line-charts-medium-img polyline { vector-effect: non-scaling-stroke; }
</style>
</svg>

