<?xml version="1.0" encoding="utf-8"?>
<!-- Generator: Adobe Illustrator 22.1.0, SVG Export Plug-In . SVG Version: 6.00 Build 0)  -->
<svg version="1.2" baseProfile="tiny" id="g-mt-economy-6-income-components-medium-img" xmlns="http://www.w3.org/2000/svg" xmlns:xlink="http://www.w3.org/1999/xlink"
	 x="0px" y="0px" viewBox="0 0 600 332" xml:space="preserve">
<g>
	<g transform="translate(50,40)">
		<g>
			<line fill="none" stroke="#666666" stroke-dasharray="2" x1="-4.908" y1="39.317" x2="535.092" y2="39.317"/>
		</g>
		<g>
			<g transform="translate(0,220.5)">
				<line fill="none" stroke="#BBBBBB" x1="-4.908" y1="36" x2="535.092" y2="36"/>
			</g>
			<g transform="translate(0,176.5)">
				<line fill="none" stroke="#BBBBBB" x1="-4.908" y1="36" x2="535.092" y2="36"/>
			</g>
			<g transform="translate(0,132.5)">
				<line fill="none" stroke="#BBBBBB" x1="-4.908" y1="36" x2="535.092" y2="36"/>
			</g>
			<g transform="translate(0,88.5)">
				<line fill="none" stroke="#BBBBBB" x1="-4.908" y1="36" x2="535.092" y2="36"/>
			</g>
			<g transform="translate(0,44.5)">
				<line fill="none" stroke="#BBBBBB" x1="-4.908" y1="36" x2="535.092" y2="36"/>
			</g>
		</g>
		<g>
			<rect x="4.735" y="39.317" fill="#FFFFFF" stroke="#444444" width="38.571" height="216.683"/>
			<rect x="52.949" y="67.034" fill="#FFFFFF" stroke="#444444" width="38.571" height="188.966"/>
			<rect x="101.164" y="44.979" fill="#FFFFFF" stroke="#86BF86" width="38.571" height="211.021"/>
			<rect x="149.378" y="47.143" fill="#FFFFFF" stroke="#86BF86" width="38.571" height="208.857"/>
			<rect x="197.592" y="59.176" fill="#FFFFFF" stroke="#86BF86" width="38.571" height="196.824"/>
			<rect x="245.807" y="60.3" fill="#FFFFFF" stroke="#86BF86" width="38.571" height="195.7"/>
			<rect x="294.021" y="65.148" fill="#FFFFFF" stroke="#86BF86" width="38.571" height="190.852"/>
			<rect x="342.235" y="67.913" fill="#FFFFFF" stroke="#86BF86" width="38.571" height="188.087"/>
			<rect x="390.449" y="69.871" fill="#FFFFFF" stroke="#86BF86" width="38.571" height="186.129"/>
			<rect x="438.664" y="83.338" fill="#FFFFFF" stroke="#F2DF91" width="38.571" height="172.662"/>
			<rect x="486.878" y="88.232" fill="#FFFFFF" stroke="#E5AE89" width="38.571" height="167.768"/>
		</g>
		<g>
			<rect x="4.735" y="118.95" fill="#444444" stroke="#444444" width="38.571" height="137.05"/>
			<rect x="52.949" y="147.785" fill="#444444" stroke="#444444" width="38.571" height="108.215"/>
			<rect x="101.164" y="121.936" fill="#86BF86" stroke="#86BF86" width="38.571" height="134.064"/>
			<rect x="149.378" y="119.473" fill="#86BF86" stroke="#86BF86" width="38.571" height="136.527"/>
			<rect x="197.592" y="137.265" fill="#86BF86" stroke="#86BF86" width="38.571" height="118.735"/>
			<rect x="245.807" y="140.333" fill="#86BF86" stroke="#86BF86" width="38.571" height="115.667"/>
			<rect x="294.021" y="147.436" fill="#86BF86" stroke="#86BF86" width="38.571" height="108.564"/>
			<rect x="342.235" y="155.78" fill="#86BF86" stroke="#86BF86" width="38.571" height="100.22"/>
			<rect x="390.449" y="152.765" fill="#86BF86" stroke="#86BF86" width="38.571" height="103.235"/>
			<rect x="438.664" y="162.378" fill="#F2DF91" stroke="#F2DF91" width="38.571" height="93.622"/>
			<rect x="486.878" y="175.444" fill="#E5AE89" stroke="#E5AE89" width="38.571" height="80.556"/>
		</g>
		<g>
			<rect x="4.735" y="77.013" fill="#444444" fill-opacity="0.5" stroke="#444444" width="38.571" height="41.937"/>
			<rect x="52.949" y="103.593" fill="#444444" fill-opacity="0.5" stroke="#444444" width="38.571" height="44.192"/>
			<rect x="101.164" y="67.452" fill="#86BF86" fill-opacity="0.5" stroke="#86BF86" width="38.571" height="54.484"/>
			<rect x="149.378" y="81.481" fill="#86BF86" fill-opacity="0.5" stroke="#86BF86" width="38.571" height="37.992"/>
			<rect x="197.592" y="95.331" fill="#86BF86" fill-opacity="0.5" stroke="#86BF86" width="38.571" height="41.934"/>
			<rect x="245.807" y="103.606" fill="#86BF86" fill-opacity="0.5" stroke="#86BF86" width="38.571" height="36.728"/>
			<rect x="294.021" y="105.474" fill="#86BF86" fill-opacity="0.5" stroke="#86BF86" width="38.571" height="41.963"/>
			<rect x="342.235" y="103.5" fill="#86BF86" fill-opacity="0.5" stroke="#86BF86" width="38.571" height="52.28"/>
			<rect x="390.449" y="107.152" fill="#86BF86" fill-opacity="0.5" stroke="#86BF86" width="38.571" height="45.613"/>
			<rect x="438.664" y="121.566" fill="#F2DF91" fill-opacity="0.5" stroke="#F2DF91" width="38.571" height="40.812"/>
			<rect x="486.878" y="132.557" fill="#E5AE89" fill-opacity="0.5" stroke="#E5AE89" width="38.571" height="42.887"/>
		</g>
		<g>
			<rect x="4.735" y="39.317" fill="#444444" fill-opacity="0.1" stroke="#444444" width="38.571" height="37.696"/>
			<rect x="52.949" y="67.034" fill="#444444" fill-opacity="0.1" stroke="#444444" width="38.571" height="36.558"/>
			<rect x="101.164" y="44.979" fill="#86BF86" fill-opacity="0.1" stroke="#86BF86" width="38.571" height="22.473"/>
			<rect x="149.378" y="47.143" fill="#86BF86" fill-opacity="0.1" stroke="#86BF86" width="38.571" height="34.338"/>
			<rect x="197.592" y="59.176" fill="#86BF86" fill-opacity="0.1" stroke="#86BF86" width="38.571" height="36.155"/>
			<rect x="245.807" y="60.3" fill="#86BF86" fill-opacity="0.1" stroke="#86BF86" width="38.571" height="43.306"/>
			<rect x="294.021" y="65.148" fill="#86BF86" fill-opacity="0.1" stroke="#86BF86" width="38.571" height="40.326"/>
			<rect x="342.235" y="67.913" fill="#86BF86" fill-opacity="0.1" stroke="#86BF86" width="38.571" height="35.587"/>
			<rect x="390.449" y="69.871" fill="#86BF86" fill-opacity="0.1" stroke="#86BF86" width="38.571" height="37.281"/>
			<rect x="438.664" y="83.338" fill="#F2DF91" fill-opacity="0.1" stroke="#F2DF91" width="38.571" height="38.228"/>
			<rect x="486.878" y="88.232" fill="#E5AE89" fill-opacity="0.1" stroke="#E5AE89" width="38.571" height="44.325"/>
		</g>
		<g transform="translate(0,220)">
			<path fill="none" stroke="#000000" d="M-4.408,42v-5.5h540V42"/>
			<g transform="translate(28.928571428571452,0)">
				<line fill="none" stroke="#000000" x1="-4.908" y1="36" x2="-4.908" y2="42"/>
				<text transform="matrix(1 0 0 1 -13.1885 52.1)" display="none" font-family="'ArialMT'" font-size="12px">US</text>
			</g>
			<g transform="translate(77.14285714285717,0)">
				<line fill="none" stroke="#000000" x1="-4.908" y1="36" x2="-4.908" y2="42"/>
				<g display="none">
					<text transform="matrix(1 0 0 1 -15.4204 52.1)" display="inline" font-family="'ArialMT'" font-size="12px">M</text>
					<text transform="matrix(1 0 0 1 -5.4243 52.1)" display="inline" font-family="'ArialMT'" font-size="12px">T</text>
				</g>
			</g>
			<g transform="translate(125.35714285714286,0)">
				<line fill="none" stroke="#000000" x1="-4.908" y1="36" x2="-4.908" y2="42"/>
				<text transform="matrix(1 0 0 1 -31.3784 52.1)" display="none" font-family="'ArialMT'" font-size="12px">Bozeman</text>
			</g>
			<g transform="translate(173.57142857142856,0)">
				<line fill="none" stroke="#000000" x1="-4.908" y1="36" x2="-4.908" y2="42"/>
				<text transform="matrix(1 0 0 1 -24.7554 52.1)" display="none" font-family="'ArialMT'" font-size="12px">Billings</text>
			</g>
			<g transform="translate(221.78571428571428,0)">
				<line fill="none" stroke="#000000" x1="-4.908" y1="36" x2="-4.908" y2="42"/>
				<text transform="matrix(1 0 0 1 -24.7661 52.1)" display="none" font-family="'ArialMT'" font-size="12px">Helena</text>
			</g>
			<g transform="translate(270,0)">
				<line fill="none" stroke="#000000" x1="-4.908" y1="36" x2="-4.908" y2="42"/>
				<text transform="matrix(1 0 0 1 -20.5923 52.1)" display="none" font-family="'ArialMT'" font-size="12px">Butte</text>
			</g>
			<g transform="translate(318.21428571428567,0)">
				<line fill="none" stroke="#000000" x1="-4.908" y1="36" x2="-4.908" y2="42"/>
				<g display="none">
					<text transform="matrix(1 0 0 1 -20.3643 52.1)" display="inline" font-family="'ArialMT'" font-size="12px">Great</text>
					<text transform="matrix(1 0 0 1 -18.0264 66.5004)" display="inline" font-family="'ArialMT'" font-size="12px">Falls</text>
				</g>
			</g>
			<g transform="translate(366.4285714285714,0)">
				<line fill="none" stroke="#000000" x1="-4.908" y1="36" x2="-4.908" y2="42"/>
				<text transform="matrix(1 0 0 1 -30.3115 52.1)" display="none" font-family="'ArialMT'" font-size="12px">Missoula</text>
			</g>
			<g transform="translate(414.6428571428571,0)">
				<line fill="none" stroke="#000000" x1="-4.908" y1="36" x2="-4.908" y2="42"/>
				<text transform="matrix(1 0 0 1 -27.873 52.1)" display="none" font-family="'ArialMT'" font-size="12px">Kalispell</text>
			</g>
			<g transform="translate(462.85714285714283,0)">
				<line fill="none" stroke="#000000" x1="-4.908" y1="36" x2="-4.908" y2="42"/>
				<text transform="matrix(1 0 0 1 -22.8677 52.1)" display="none" font-family="'ArialMT'" font-size="12px">Plains</text>
			</g>
			<g transform="translate(511.07142857142856,0)">
				<line fill="none" stroke="#000000" x1="-4.908" y1="36" x2="-4.908" y2="42"/>
				<text transform="matrix(1 0 0 1 -32.6592 52.1)" display="none" font-family="'ArialMT'" font-size="12px">Mountains</text>
			</g>
		</g>
		<g>
			<g transform="translate(0,220.5)">
				<line fill="none" stroke="#000000" x1="-4.908" y1="36" x2="-10.908" y2="36"/>
				<text transform="matrix(1 0 0 1 -30.3784 41.2)" display="none" font-family="'ArialMT'" font-size="12px">$0</text>
			</g>
			<g transform="translate(0,176.5)">
				<line fill="none" stroke="#000000" x1="-4.908" y1="36" x2="-10.908" y2="36"/>
				<text transform="matrix(1 0 0 1 -42.6138 39.2)" display="none" font-family="'ArialMT'" font-size="12px">$10k</text>
			</g>
			<g transform="translate(0,132.5)">
				<line fill="none" stroke="#000000" x1="-4.908" y1="36" x2="-10.908" y2="36"/>
				<text transform="matrix(1 0 0 1 -42.6138 39.2)" display="none" font-family="'ArialMT'" font-size="12px">$20k</text>
			</g>
			<g transform="translate(0,88.5)">
				<line fill="none" stroke="#000000" x1="-4.908" y1="36" x2="-10.908" y2="36"/>
				<text transform="matrix(1 0 0 1 -42.6138 39.2)" display="none" font-family="'ArialMT'" font-size="12px">$30k</text>
			</g>
			<g transform="translate(0,44.5)">
				<line fill="none" stroke="#000000" x1="-4.908" y1="36" x2="-10.908" y2="36"/>
				<text transform="matrix(1 0 0 1 -42.6138 39.2)" display="none" font-family="'ArialMT'" font-size="12px">$40k</text>
			</g>
			<g transform="translate(0,0.5)">
				<line fill="none" stroke="#000000" x1="-4.908" y1="36" x2="-10.908" y2="36"/>
				<text transform="matrix(1 0 0 1 -42.6138 39.2)" display="none" font-family="'ArialMT'" font-size="12px">$50k</text>
			</g>
		</g>
	</g>
	<g>
		<rect x="54.934" y="36.25" fill="#444444" stroke="#444444" width="16" height="16"/>
		<rect x="133.434" y="36.25" fill="#444444" fill-opacity="0.5" stroke="#444444" width="16" height="16"/>
		<rect x="300.434" y="36.25" fill="#444444" fill-opacity="0.1" stroke="#444444" width="16" height="16"/>
	</g>
	<g>
		<path fill="none" stroke="#000000" stroke-miterlimit="10" d="M548,72.5c9.994,0,8.844,35.904,8.551,49.973"/>
		<g>
			<polygon points="556.5,126 554.554,120.991 556.566,122.206 558.618,121.061 			"/>
		</g>
	</g>
</g>
<style type="text/css">
#g-mt-economy-6-income-components-medium-img rect, #g-mt-economy-6-income-components-medium-img circle, #g-mt-economy-6-income-components-medium-img path, #g-mt-economy-6-income-components-medium-img line, #g-mt-economy-6-income-components-medium-img polyline { vector-effect: non-scaling-stroke; }
</style>
</svg>

