<?xml version="1.0" encoding="utf-8"?>
<!-- Generator: Adobe Illustrator 22.1.0, SVG Export Plug-In . SVG Version: 6.00 Build 0)  -->
<svg version="1.2" baseProfile="tiny" id="g-mt-economy-4-sector-change-mobile-img" xmlns="http://www.w3.org/2000/svg" xmlns:xlink="http://www.w3.org/1999/xlink"
	 x="0px" y="0px" viewBox="0 0 300 360" xml:space="preserve">
<g>
	<g transform="translate(60,40)">
		<g transform="translate(0,0)">
			<path fill="none" stroke="#000000" d="M-11.013,174.917h4.874V19.945h-4.874"/>
			<g transform="translate(0,207.16666666666663)">
				<line fill="none" stroke="#000000" x1="-6.514" y1="-32.25" x2="-11.013" y2="-32.25"/>
				<line fill="none" stroke="#000000" stroke-opacity="0.2" x1="-6.514" y1="-32.25" x2="223.443" y2="-32.25"/>
				<text transform="matrix(1 0 0 1 -31.4438 -29.8503)" display="none" font-family="'ArialMT'" font-size="8px">-20%</text>
			</g>
			<g transform="translate(0,172.72222222222217)">
				<line fill="none" stroke="#000000" x1="-6.514" y1="-23.634" x2="-11.013" y2="-23.634"/>
				<line fill="none" stroke="#000000" x1="-6.514" y1="-23.634" x2="223.443" y2="-23.634"/>
				<text transform="matrix(1 0 0 1 -22.042 -21.2349)" display="none" font-family="'ArialMT'" font-size="8px">0%</text>
			</g>
			<g transform="translate(0,138.27777777777774)">
				<line fill="none" stroke="#000000" x1="-6.514" y1="-15.018" x2="-11.013" y2="-15.018"/>
				<line fill="none" stroke="#000000" stroke-opacity="0.2" x1="-6.514" y1="-15.018" x2="223.443" y2="-15.018"/>
			</g>
			<g transform="translate(0,103.83333333333329)">
				<line fill="none" stroke="#000000" x1="-6.514" y1="-6.403" x2="-11.013" y2="-6.403"/>
				<line fill="none" stroke="#000000" stroke-opacity="0.2" x1="-6.514" y1="-6.403" x2="223.443" y2="-6.403"/>
				<text transform="matrix(1 0 0 1 -42.5044 -4.0033)" display="none" font-family="'ArialMT'" font-size="10px">+40%</text>
			</g>
			<g transform="translate(0,69.38888888888886)">
				<line fill="none" stroke="#000000" x1="-6.514" y1="2.213" x2="-11.013" y2="2.213"/>
				<line fill="none" stroke="#000000" stroke-opacity="0.2" x1="-6.514" y1="2.213" x2="198.443" y2="2.213"/>
				<text transform="matrix(1 0 0 1 -42.5044 4.6131)" display="none" font-family="'ArialMT'" font-size="10px">+60%</text>
			</g>
			<g transform="translate(0,34.94444444444443)">
				<line fill="none" stroke="#000000" x1="-6.514" y1="10.829" x2="-11.013" y2="10.829"/>
				<line fill="none" stroke="#000000" stroke-opacity="0.2" x1="-6.514" y1="10.829" x2="223.443" y2="10.829"/>
				<text transform="matrix(1 0 0 1 -42.5044 13.2284)" display="none" font-family="'ArialMT'" font-size="10px">+80%</text>
			</g>
			<g transform="translate(0,34.94444444444443)">
				<line fill="none" stroke="#000000" x1="-6.514" y1="-15.171" x2="-11.013" y2="-15.171"/>
				<line fill="none" stroke="#000000" stroke-opacity="0.2" x1="-6.514" y1="-15.171" x2="223.443" y2="-15.171"/>
				<text transform="matrix(1 0 0 1 -42.5044 -12.7716)" display="none" font-family="'ArialMT'" font-size="10px">+80%</text>
			</g>
			<g transform="translate(0,0.5)">
				<line fill="none" stroke="#000000" x1="-6.514" y1="19.445" x2="-11.013" y2="19.445"/>
				<path fill="none" stroke="#000000" d="M223.443,19.445"/>
				<path fill="none" stroke="#000000" d="M-6.514,19.445"/>
				<text transform="matrix(1 0 0 1 -43.9531 21.8438)" display="none" font-family="'ArialMT'" font-size="8px">+100%</text>
			</g>
		</g>
		<g transform="translate(0,0)">
			<g transform="translate(0.5,0)">
				<line fill="none" stroke="#000000" x1="-6.639" y1="19.57" x2="-6.639" y2="15.071"/>
				<text transform="matrix(1 0 0 1 -12.3711 10.8213)" display="none" font-family="'ArialMT'" font-size="10px">$0</text>
			</g>
			<g transform="translate(133.83333333333334,0)">
				<line fill="none" stroke="#000000" x1="-39.99" y1="19.57" x2="-39.99" y2="15.071"/>
				<text transform="matrix(1 0 0 1 -59.617 10.8213)" display="none" font-family="'ArialMT'" font-size="10px">$50,000</text>
			</g>
			<g transform="translate(267.1666666666667,0)">
				<line fill="none" stroke="#000000" x1="-73.342" y1="19.57" x2="-73.342" y2="15.071"/>
				<text transform="matrix(1 0 0 1 -95.8346 10.8213)" display="none" font-family="'ArialMT'" font-size="10px">$100,000</text>
			</g>
		</g>
		<g>
			<line fill="none" stroke="#666666" stroke-dasharray="4" x1="-6.514" y1="123.452" x2="231.443" y2="123.452"/>
		</g>
		<g transform="translate(320,133.5348147592504)">
			<g display="none">
				<text transform="matrix(1 0 0 1 -372.209 -13.8317)" display="inline" font-family="'ArialMT'" font-size="8px">M</text>
				<text transform="matrix(1 0 0 1 -365.5449 -13.8317)" display="inline" font-family="'ArialMT'" font-size="8px">T</text>
				<text transform="matrix(1 0 0 1 -360.8027 -13.8317)" display="inline" font-family="'ArialMT'" font-size="8px"> </text>
				<text transform="matrix(1 0 0 1 -358.5801 -13.8317)" display="inline" font-family="'ArialMT'" font-size="8px">o</text>
				<text transform="matrix(1 0 0 1 -354.1309 -13.8317)" display="inline" font-family="'ArialMT'" font-size="8px">v</text>
				<text transform="matrix(1 0 0 1 -350.1309 -13.8317)" display="inline" font-family="'ArialMT'" font-size="8px">e</text>
				<text transform="matrix(1 0 0 1 -345.6816 -13.8317)" display="inline" font-family="'ArialMT'" font-size="8px">r</text>
				<text transform="matrix(1 0 0 1 -343.0176 -13.8317)" display="inline" font-family="'ArialMT'" font-size="8px">a</text>
				<text transform="matrix(1 0 0 1 -338.5684 -13.8317)" display="inline" font-family="'ArialMT'" font-size="8px">l</text>
				<text transform="matrix(1 0 0 1 -336.791 -13.8317)" display="inline" font-family="'ArialMT'" font-size="8px">l</text>
				<text transform="matrix(1 0 0 1 -367.6973 -4.2321)" display="inline" font-family="'ArialMT'" font-size="8px">(</text>
				<text transform="matrix(1 0 0 1 -365.0332 -4.2321)" display="inline" font-family="'ArialMT'" font-size="8px">+</text>
				<text transform="matrix(1 0 0 1 -360.3613 -4.2321)" display="inline" font-family="'ArialMT'" font-size="8px">1</text>
				<text transform="matrix(1 0 0 1 -355.9121 -4.2321)" display="inline" font-family="'ArialMT'" font-size="8px">9</text>
				<text transform="matrix(1 0 0 1 -351.4629 -4.2321)" display="inline" font-family="'ArialMT'" font-size="8px">.</text>
				<text transform="matrix(1 0 0 1 -349.2402 -4.2321)" display="inline" font-family="'ArialMT'" font-size="8px">6</text>
				<text transform="matrix(1 0 0 1 -344.791 -4.2321)" display="inline" font-family="'ArialMT'" font-size="8px">%</text>
				<text transform="matrix(1 0 0 1 -337.6777 -4.2321)" display="inline" font-family="'ArialMT'" font-size="8px">)</text>
			</g>
		</g>
		<g transform="translate(320,133.5348147592504)">
			<text transform="matrix(1 0 0 1 -433.3496 -93.8317)" font-family="'Arial-ItalicMT'" font-size="8px">Faster</text>
			<text transform="matrix(1 0 0 1 -436.0215 -84.2321)" font-family="'Arial-ItalicMT'" font-size="8px">growing</text>
			<text transform="matrix(1 0 0 1 -434.9062 -74.6315)" font-family="'Arial-ItalicMT'" font-size="8px">sectors</text>
		</g>
		<g transform="translate(320,133.5348147592504)">
			<text transform="matrix(1 0 0 1 -140.5801 -180.8317)" font-family="'Arial-ItalicMT'" font-size="8px">Higher</text>
		</g>
		<g transform="translate(320,133.5348147592504)">
			<text transform="matrix(1 0 0 1 -311.0137 -180.8317)" font-family="'Arial-ItalicMT'" font-size="8px">Lower</text>
		</g>
		<g>
			<line fill="none" stroke="#666666" stroke-dasharray="4" x1="67.267" y1="19.5" x2="67" y2="184.5"/>
		</g>
		<g transform="translate(103.392,20)">
			<g display="none">
				<text transform="matrix(1 0 0 1 -31.3759 163.7031)" display="inline" font-family="'ArialMT'" font-size="8px">M</text>
				<text transform="matrix(1 0 0 1 -24.7118 163.7031)" display="inline" font-family="'ArialMT'" font-size="8px">T</text>
				<text transform="matrix(1 0 0 1 -19.9696 163.7031)" display="inline" font-family="'ArialMT'" font-size="8px"> </text>
				<text transform="matrix(1 0 0 1 -17.747 163.7031)" display="inline" font-family="'ArialMT'" font-size="8px">o</text>
				<text transform="matrix(1 0 0 1 -13.2978 163.7031)" display="inline" font-family="'ArialMT'" font-size="8px">v</text>
				<text transform="matrix(1 0 0 1 -9.2978 163.7031)" display="inline" font-family="'ArialMT'" font-size="8px">e</text>
				<text transform="matrix(1 0 0 1 -4.8485 163.7031)" display="inline" font-family="'ArialMT'" font-size="8px">r</text>
				<text transform="matrix(1 0 0 1 -2.1845 163.7031)" display="inline" font-family="'ArialMT'" font-size="8px">a</text>
				<text transform="matrix(1 0 0 1 2.2647 163.7031)" display="inline" font-family="'ArialMT'" font-size="8px">l</text>
				<text transform="matrix(1 0 0 1 4.0421 163.7031)" display="inline" font-family="'ArialMT'" font-size="8px">l</text>
				<text transform="matrix(1 0 0 1 5.8194 163.7031)" display="inline" font-family="'ArialMT'" font-size="8px"> </text>
				<text transform="matrix(1 0 0 1 8.0421 163.7031)" display="inline" font-family="'ArialMT'" font-size="8px">(</text>
				<text transform="matrix(1 0 0 1 10.7061 163.7031)" display="inline" font-family="'ArialMT'" font-size="8px">$</text>
				<text transform="matrix(1 0 0 1 15.1554 163.7031)" display="inline" font-family="'ArialMT'" font-size="8px">3</text>
				<text transform="matrix(1 0 0 1 19.6046 163.7031)" display="inline" font-family="'ArialMT'" font-size="8px">6</text>
				<text transform="matrix(1 0 0 1 24.0538 163.7031)" display="inline" font-family="'ArialMT'" font-size="8px">,</text>
				<text transform="matrix(1 0 0 1 26.2765 163.7031)" display="inline" font-family="'ArialMT'" font-size="8px">9</text>
				<text transform="matrix(1 0 0 1 30.7257 163.7031)" display="inline" font-family="'ArialMT'" font-size="8px">0</text>
				<text transform="matrix(1 0 0 1 35.1749 163.7031)" display="inline" font-family="'ArialMT'" font-size="8px">0</text>
				<text transform="matrix(1 0 0 1 39.6241 163.7031)" display="inline" font-family="'ArialMT'" font-size="8px">)</text>
			</g>
		</g>
		<g>
			<g transform="translate(70.27604568370873,154.28981295716278)">
				<circle fill="#E7298A" fill-opacity="0.5" stroke="#E7298A" stroke-opacity="0.9" cx="-24.092" cy="-19.024" r="11.974"/>
				<text transform="matrix(1 0 0 1 -9.3688 -8.0242)" display="none" fill="#E7298A" font-family="'ArialMT'" font-size="10px">Retail</text>
			</g>
			<g transform="translate(131.07454394253057,112.36744693406767)">
				<circle fill="#E6AB02" fill-opacity="0.5" stroke="#E6AB02" stroke-opacity="0.9" cx="-39.3" cy="-8.537" r="11.884"/>
				<text transform="matrix(1 0 0 1 -23.6663 -4.5374)" display="none" fill="#E6AB02" font-family="'ArialMT'" font-size="10px">Healthcare/social work</text>
			</g>
			<g transform="translate(55.74982633207603,127.78223165963672)">
				<circle fill="#66A61E" fill-opacity="0.5" stroke="#66A61E" stroke-opacity="0.9" cx="-20.459" cy="-12.393" r="10.432"/>
			</g>
			<g transform="translate(140.49815098322955,160.1188872927515)">
				<circle fill="#A6761D" fill-opacity="0.5" stroke="#A6761D" stroke-opacity="0.9" cx="-41.657" cy="-20.482" r="9.454"/>
			</g>
			<g transform="translate(96.35525655778821,142.19969969969966)">
				<circle fill="#D95F02" fill-opacity="0.5" stroke="#D95F02" stroke-opacity="0.9" cx="-30.616" cy="-15.999" r="9.203"/>
			</g>
			<g transform="translate(105.0811281034153,112.90942545942191)">
				<circle fill="#66A61E" fill-opacity="0.5" stroke="#66A61E" stroke-opacity="0.9" cx="-32.798" cy="-8.673" r="8.475"/>
			</g>
			<g transform="translate(17.534895718181147,20.95561092654114)">
				<circle fill="#66A61E" fill-opacity="0.5" stroke="#66A61E" stroke-opacity="0.9" cx="-10.9" cy="14.328" r="8.235"/>
				<text transform="matrix(1 0 0 1 -3.9153 10.3276)" display="none" fill="#66A61E" font-family="'ArialMT'" font-size="10px">Real estate</text>
			</g>
			<g transform="translate(55.422461090583354,146.82562625581284)">
				<circle fill="#66A61E" fill-opacity="0.5" stroke="#66A61E" stroke-opacity="0.9" cx="-20.377" cy="-17.156" r="8.183"/>
			</g>
			<g transform="translate(25.696455217694062,184.0656908761528)">
				<circle fill="#1B9E77" fill-opacity="0.5" stroke="#1B9E77" stroke-opacity="0.9" cx="-12.941" cy="-26.472" r="7.518"/>
				<text transform="matrix(1 0 0 1 -1.674 -26.4719)" display="none" fill="#1B9E77" font-family="'ArialMT'" font-size="10px">Farm</text>
			</g>
			<g transform="translate(157.90061856169277,148.33629684764776)">
				<circle fill="#A6761D" fill-opacity="0.5" stroke="#A6761D" stroke-opacity="0.9" cx="-46.01" cy="-17.534" r="7.184"/>
				<text transform="matrix(1 0 0 1 -35.0769 -13.5345)" display="none" fill="#A6761D" font-family="'ArialMT'" font-size="10px">State govt.</text>
			</g>
			<g transform="translate(128.50048527984472,134.83125789568666)">
				<circle fill="#66A61E" fill-opacity="0.5" stroke="#66A61E" stroke-opacity="0.9" cx="-38.656" cy="-14.156" r="6.808"/>
			</g>
			<g transform="translate(73.09093409237794,149.98550882150488)">
				<circle fill="#66A61E" fill-opacity="0.5" stroke="#66A61E" stroke-opacity="0.9" cx="-24.796" cy="-17.947" r="6.741"/>
			</g>
			<g transform="translate(136.41323513000782,176.00050935021463)">
				<circle fill="#7570B3" fill-opacity="0.5" stroke="#7570B3" stroke-opacity="0.9" cx="-40.636" cy="-24.454" r="6.692"/>
				<text transform="matrix(1 0 0 1 -30.194 -13.4546)" display="none" fill="#7570B3" font-family="'ArialMT'" font-size="10px">Manufacturing</text>
			</g>
			<g transform="translate(142.03635328176168,132.6495078012528)">
				<circle fill="#E7298A" fill-opacity="0.5" stroke="#E7298A" stroke-opacity="0.9" cx="-42.042" cy="-13.61" r="6.284"/>
			</g>
			<g transform="translate(45.846005934324594,98.58212251723536)">
				<circle fill="#66A61E" fill-opacity="0.5" stroke="#66A61E" stroke-opacity="0.9" cx="-17.982" cy="-5.089" r="6.139"/>
				<text transform="matrix(1 0 0 1 -13.0931 -10.089)" display="none" fill="#66A61E" font-family="'ArialMT'" font-size="10px">Arts/recreation</text>
			</g>
			<g transform="translate(133.10393545255195,147.75592006321529)">
				<circle fill="#E7298A" fill-opacity="0.5" stroke="#E7298A" stroke-opacity="0.9" cx="-39.808" cy="-17.389" r="6.109"/>
			</g>
			<g transform="translate(257.71134123768076,168.62024055772616)">
				<circle fill="#A6761D" fill-opacity="0.5" stroke="#A6761D" stroke-opacity="0.9" cx="-70.977" cy="-22.608" r="4.998"/>
				<text transform="matrix(1 0 0 1 -76.2299 -32.6085)" display="none" fill="#A6761D" font-family="'ArialMT'" font-size="10px">Federal</text>
			</g>
			<g transform="translate(143.33498468504462,37.36920422345693)">
				<circle fill="#1B9E77" fill-opacity="0.5" stroke="#1B9E77" stroke-opacity="0.9" cx="-42.367" cy="10.223" r="4.843"/>
				<text transform="matrix(1 0 0 1 -35.7744 20.2226)" display="none" fill="#1B9E77" font-family="'ArialMT'" font-size="10px">Mining/oil</text>
			</g>
			<g transform="translate(52.75946890286512,56.501927795303175)">
				<circle fill="#66A61E" fill-opacity="0.5" stroke="#66A61E" stroke-opacity="0.9" cx="-19.711" cy="5.437" r="4.229"/>
			</g>
			<g transform="translate(130.11425978633008,196.21483769422844)">
				<circle fill="#66A61E" fill-opacity="0.5" stroke="#66A61E" stroke-opacity="0.9" cx="-39.06" cy="-29.51" r="3.892"/>
			</g>
			<g transform="translate(139.50689127105667,183.03631941952713)">
				<circle fill="#A6761D" fill-opacity="0.5" stroke="#A6761D" stroke-opacity="0.9" cx="-41.41" cy="-26.214" r="3.832"/>
			</g>
			<g transform="translate(59.57928549724357,156.75008673163651)">
				<circle fill="#1B9E77" fill-opacity="0.5" stroke="#1B9E77" stroke-opacity="0.9" cx="-21.417" cy="-19.639" r="3.794"/>
			</g>
			<g transform="translate(298.06264260526865,172.86285045119513)">
				<circle fill="#1B9E77" fill-opacity="0.5" stroke="#1B9E77" stroke-opacity="0.9" cx="-81.07" cy="-23.669" r="2.454"/>
			</g>
			<g transform="translate(191.3545384018619,23.41126375833531)">
				<circle fill="#66A61E" fill-opacity="0.5" stroke="#66A61E" stroke-opacity="0.9" cx="-54.378" cy="13.714" r="2.198"/>
			</g>
		</g>
	</g>
</g>
<style type="text/css">
#g-mt-economy-4-sector-change-mobile-img rect, #g-mt-economy-4-sector-change-mobile-img circle, #g-mt-economy-4-sector-change-mobile-img path, #g-mt-economy-4-sector-change-mobile-img line, #g-mt-economy-4-sector-change-mobile-img polyline { vector-effect: non-scaling-stroke; }
</style>
</svg>

