<?xml version="1.0" encoding="utf-8"?>
<!-- Generator: Adobe Illustrator 22.1.0, SVG Export Plug-In . SVG Version: 6.00 Build 0)  -->
<svg version="1.2" baseProfile="tiny" id="g-mt-economy-5-wage-gap-medium-img" xmlns="http://www.w3.org/2000/svg" xmlns:xlink="http://www.w3.org/1999/xlink"
	 x="0px" y="0px" viewBox="0 0 600 573" xml:space="preserve">
<g>
	<g transform="translate(56,29)">
		<g>
			<g transform="translate(0,0)">
				<g>
					<g>
						<g transform="translate(0.5,0.5)">
							<path fill="none" d="M21,24L21,24L21,24L21,24z"/>
							<g>
								<g>
									<line fill="none" stroke="#DDDDDD" x1="21" y1="224" x2="421" y2="224"/>
									<line fill="none" stroke="#DDDDDD" x1="21" y1="174" x2="421" y2="174"/>
									<line fill="none" stroke="#DDDDDD" x1="21" y1="124" x2="421" y2="124"/>
									<line fill="none" stroke="#DDDDDD" x1="21" y1="74" x2="421" y2="74"/>
									<line fill="none" stroke="#DDDDDD" x1="21" y1="24" x2="421" y2="24"/>
								</g>
							</g>
						</g>
					</g>
					<g>
						<text transform="matrix(1 0 0 1 23.5518 79)" display="none" fill="#444444" font-family="'Arial-BoldMT'" font-size="14px">US</text>
						
							<text transform="matrix(1 0 0 1 22.7861 168.7499)" display="none" fill="#444444" font-family="'Arial-BoldMT'" font-size="14px">MT</text>
						<text transform="matrix(1 0 0 1 426 197.5439)" display="none" fill="#D95F02" font-family="'ArialMT'" font-size="14px">Mountains</text>
						<text transform="matrix(1 0 0 1 383 179.067)" display="none" fill="#E6AB02" font-family="'ArialMT'" font-size="14px">Plains</text>
						<text transform="matrix(1 0 0 1 426 127.0247)" display="none" fill="#86BF86" font-family="'ArialMT'" font-size="14px">Great Falls</text>
						
							<text transform="matrix(1 0 0 1 239.3105 145.8622)" display="none" fill="#86BF86" font-family="'ArialMT'" font-size="14px">Butte</text>
						<text transform="matrix(1 0 0 1 426 166.872)" display="none" fill="#86BF86" font-family="'ArialMT'" font-size="14px">Kalispell</text>
						<text transform="matrix(1 0 0 1 426 152.5068)" display="none" fill="#86BF86" font-family="'ArialMT'" font-size="14px">Bozeman</text>
						<text transform="matrix(1 0 0 1 205.8174 98.2513)" display="none" fill="#86BF86" font-family="'ArialMT'" font-size="14px">Helena</text>
						
							<text transform="matrix(1 0 0 1 290.3794 186.5478)" display="none" fill="#86BF86" font-family="'ArialMT'" font-size="14px">Missoula</text>
						<text transform="matrix(1 0 0 1 426 111.8072)" display="none" fill="#86BF86" font-family="'ArialMT'" font-size="14px">Billings</text>
					</g>
					<g>
						<g transform="translate(0.5,200.5)">
							<path fill="none" d="M21,24L21,24L21,24L21,24z"/>
							<g>
								<g>
									<line fill="none" stroke="#888888" x1="21" y1="24" x2="21" y2="29"/>
									<line fill="none" stroke="#888888" x1="71" y1="24" x2="71" y2="29"/>
									<line fill="none" stroke="#888888" x1="121" y1="24" x2="121" y2="29"/>
									<line fill="none" stroke="#888888" x1="171" y1="24" x2="171" y2="29"/>
									<line fill="none" stroke="#888888" x1="221" y1="24" x2="221" y2="29"/>
									<line fill="none" stroke="#888888" x1="271" y1="24" x2="271" y2="29"/>
									<line fill="none" stroke="#888888" x1="321" y1="24" x2="321" y2="29"/>
									<line fill="none" stroke="#888888" x1="371" y1="24" x2="371" y2="29"/>
									<line fill="none" stroke="#888888" x1="420.5" y1="24.5" x2="420.5" y2="29.5"/>
								</g>
								<g>
									<text transform="matrix(1 0 0 1 7.6723 39)" display="none" font-family="'ArialMT'" font-size="12px">2000</text>
									<text transform="matrix(1 0 0 1 57.5835 39)" display="none" font-family="'ArialMT'" font-size="12px">2002</text>
									<text transform="matrix(1 0 0 1 107.5493 39)" display="none" font-family="'ArialMT'" font-size="12px">2004</text>
									<text transform="matrix(1 0 0 1 157.5835 39)" display="none" font-family="'ArialMT'" font-size="12px">2006</text>
									<text transform="matrix(1 0 0 1 207.5493 39)" display="none" font-family="'ArialMT'" font-size="12px">2008</text>
									<text transform="matrix(1 0 0 1 257.5835 39)" display="none" font-family="'ArialMT'" font-size="12px">2010</text>
									<text transform="matrix(1 0 0 1 307.5493 39)" display="none" font-family="'ArialMT'" font-size="12px">2012</text>
									<text transform="matrix(1 0 0 1 357.5835 39)" display="none" font-family="'ArialMT'" font-size="12px">2014</text>
									<text transform="matrix(1 0 0 1 407.5835 39)" display="none" font-family="'ArialMT'" font-size="12px">2016</text>
								</g>
								<g>
									<line fill="none" stroke="#888888" x1="21" y1="24" x2="421" y2="24"/>
								</g>
							</g>
						</g>
					</g>
					<g>
						<g transform="translate(0.5,0.5)">
							<path fill="none" d="M21,24L21,24L21,24L21,24z"/>
							<g>
								<g>
									<line fill="none" stroke="#888888" x1="21" y1="224" x2="16" y2="224"/>
									<line fill="none" stroke="#888888" x1="21" y1="174" x2="16" y2="174"/>
									<line fill="none" stroke="#888888" x1="21" y1="124" x2="16" y2="124"/>
									<line fill="none" stroke="#888888" x1="21" y1="74" x2="16" y2="74"/>
									<line fill="none" stroke="#888888" x1="21" y1="24" x2="16" y2="24"/>
								</g>
							</g>
						</g>
					</g>
					<g>
						<g transform="translate(0,0)">
							<g>
								<g>
									<path fill="none" stroke="#444444" stroke-width="3" d="M421,74h-24.983h-24.983h-24.983H321h-24.983h-24.983h-24.983H221
										h-24.983h-24.983h-24.983H121H96.017H71.034H46.5"/>
								</g>
							</g>
						</g>
						<g transform="translate(0,0)">
							<g>
								<g>
									<path fill="none" stroke="#E5AE89" stroke-width="2" d="M421,189.544l-24.983,1.557l-24.983,0.51l-24.983-0.951
										L321,191.428l-24.983,0.301l-24.983,1.224l-24.983,0.366L221,193.199l-24.983,2.042l-24.983,0.657l-24.983,1.893
										L121,199.166l-24.983-1.211l-24.983,1.653l-24.983,3.648"/>
								</g>
							</g>
						</g>
						<g transform="translate(0,0)">
							<g>
								<g>
									<path fill="none" stroke="#86BF86" stroke-width="2" d="M421,121.025l-24.983,1.596l-24.983-0.32l-24.983,3.724
										L321,122.678l-24.983-2.212l-24.983,1.622l-24.983,4.548L221,131.642l-24.983,1.044l-24.983,0.533l-24.983,2.036
										L121,136.657l-24.983,0.474l-24.983,3.687l-24.983,7.318"/>
								</g>
							</g>
						</g>
						<g transform="translate(0,0)">
							<g>
								<g>
									<path fill="none" stroke="#86BF86" stroke-width="2" stroke-dasharray="2" d="M421,134.862l-24.983-0.76l-24.983,1.526
										l-24.983-4.672L321,130.044l-24.983,1.225l-24.983,2.589l-24.983,0.384L221,139.671l-24.983,3.392l-24.983,0.546
										l-24.983-0.992L121,147.882l-24.983,1.663l-24.983,0.094l-24.983,5.649"/>
								</g>
							</g>
						</g>
						<g transform="translate(0,0)">
							<g>
								<g>
									<path fill="none" stroke="#86BF86" stroke-width="2" d="M421,157.872l-24.983,1.372l-24.983,0.451l-24.983,1.072
										L321,163.169l-24.983-0.608l-24.983,2.854l-24.983,1.394L221,164.091l-24.983,0.114l-24.983,0.832l-24.983,3.086
										L121,169.983l-24.983-0.279l-24.983,0.66l-24.983,2.934"/>
								</g>
							</g>
						</g>
						<g transform="translate(0,0)">
							<g>
								<g>
									<path fill="none" stroke="#86BF86" stroke-width="2" d="M421,149.507l-24.983,4.572l-24.983,3.378l-24.983,0.444
										L321,153.045l-24.983,5.137l-24.983,3.09l-24.983,0.442L221,160.428l-24.983-0.998l-24.983,1.596l-24.983,4.195
										L121,169.429l-24.983-2.631l-24.983,3.558l-24.983,3.776"/>
								</g>
							</g>
						</g>
						<g transform="translate(0,0)">
							<g>
								<g>
									<path fill="none" stroke="#86BF86" stroke-width="2" stroke-dasharray="2" d="M421,113.251l-24.983,0.992l-24.983-0.039
										l-24.983-1.088L321,111.592l-24.983,0.424l-24.983,2.703l-24.983-1.401L221,118.895l-24.983,4.988l-24.983,1.831
										l-24.983,1.455L121,128.419l-24.983-3.008l-24.983,0.384l-24.983,6.948"/>
								</g>
							</g>
						</g>
						<g transform="translate(0,0)">
							<g>
								<g>
									<path fill="none" stroke="#86BF86" stroke-width="2" stroke-dasharray="2" d="M421,151.548l-24.983,2.421l-24.983,1.028
										l-24.983,0.01L321,154.978l-24.983-0.221l-24.983,0.587l-24.983-0.869L221,157.003l-24.983,2.099l-24.983,0.946
										l-24.983-0.765L121,160.336l-24.983-3.077l-24.983-0.212l-24.983,4.691"/>
								</g>
							</g>
						</g>
						<g transform="translate(0,0)">
							<g>
								<g>
									<path fill="none" stroke="#86BF86" stroke-width="2" d="M421,109.807l-24.983-1.903l-24.983,0.945l-24.983,0.922
										L321,112.204l-24.983,1.561l-24.983,4.076l-24.983,0.572L221,121.093l-24.983-0.805l-24.983,3.948l-24.983,2.085
										L121,130.197l-24.983-0.276l-24.983,0.691l-24.983,3.757"/>
								</g>
							</g>
						</g>
						<g transform="translate(0,0)">
							<g>
								<g>
									<path fill="none" stroke="#444444" stroke-width="3" d="M421,144.75l-24.983,0.324l-24.983-0.619l-24.983,0.582
										L321,145.064l-24.983,1.472l-24.983,3.046l-24.983,1.114L221,152.878l-24.983,1.54l-24.983,1.661l-24.983,1.911L121,160.55
										l-24.983-0.579l-24.983,1.657l-24.983,4.249"/>
								</g>
							</g>
						</g>
						<g transform="translate(0,0)">
							<g>
								<g>
									<path fill="none" stroke="#F2DF91" stroke-width="2" d="M421,160.067l-24.983-3.716l-24.983-7.49l-24.983,2.224
										L321,153.205l-24.983,4.36l-24.983,6.128l-24.983,3.321L221,169.9l-24.983,2.488l-24.983,1.74l-24.983,2.54L121,180.131
										l-24.983,2.467l-24.983,2.817l-24.983,2.927"/>
								</g>
							</g>
						</g>
					</g>
				</g>
			</g>
		</g>
	</g>
	<g transform="translate(56,29)">
		<g>
			<g transform="translate(0,0)">
				<g>
					<g>
						<g transform="translate(0.5,0.5)">
							<path fill="none" d="M21,307L21,307L21,307L21,307z"/>
							<g>
								<g>
									<line fill="none" stroke="#DDDDDD" x1="21" y1="507" x2="421" y2="507"/>
									<line fill="none" stroke="#DDDDDD" x1="21" y1="457" x2="421" y2="457"/>
									<line fill="none" stroke="#DDDDDD" x1="21" y1="407" x2="421" y2="407"/>
									<line fill="none" stroke="#DDDDDD" x1="21" y1="357" x2="421" y2="357"/>
									<line fill="none" stroke="#DDDDDD" x1="21" y1="307" x2="421" y2="307"/>
								</g>
							</g>
						</g>
					</g>
					<g>
						
							<text transform="matrix(1 0 0 1 21.7861 452.7499)" display="none" fill="#444444" font-family="'Arial-BoldMT'" font-size="14px">MT</text>
						<text transform="matrix(1 0 0 1 426 470.4919)" display="none" fill="#1B9E77" font-family="'ArialMT'" font-size="14px">Nat. Resources</text>
						<text transform="matrix(1 0 0 1 426 433.4602)" display="none" fill="#D95F02" font-family="'ArialMT'" font-size="14px">Construction</text>
						<text transform="matrix(1 0 0 1 426 358.4827)" display="none" fill="#7570B3" font-family="'ArialMT'" font-size="14px">Manufacturing</text>
						
							<text transform="matrix(1 0 0 1 22.5518 361.4827)" display="none" fill="#444444" font-family="'Arial-BoldMT'" font-size="14px">US</text>
						<g display="none">
							<text transform="matrix(1 0 0 1 426 446.1226)" display="inline" fill="#E7298A" font-family="'ArialMT'" font-size="14px">T</text>
							
								<text transform="matrix(1 0 0 1 434.0322 446.1226)" display="inline" fill="#E7298A" font-family="'ArialMT'" font-size="14px">r</text>
							
								<text transform="matrix(1 0 0 1 438.6943 446.1226)" display="inline" fill="#E7298A" font-family="'ArialMT'" font-size="14px">a</text>
							
								<text transform="matrix(1 0 0 1 446.4805 446.1226)" display="inline" fill="#E7298A" font-family="'ArialMT'" font-size="14px">d</text>
							
								<text transform="matrix(1 0 0 1 454.2666 446.1226)" display="inline" fill="#E7298A" font-family="'ArialMT'" font-size="14px">e</text>
						</g>
						<text transform="matrix(1 0 0 1 426 488.1175)" display="none" fill="#66A61E" font-family="'ArialMT'" font-size="14px">Services</text>
						<text transform="matrix(1 0 0 1 426 375.2087)" display="none" fill="#E6AB02" font-family="'ArialMT'" font-size="14px">Healthcare</text>
						<text transform="matrix(1 0 0 1 426 317.6053)" display="none" fill="#A6761D" font-family="'ArialMT'" font-size="14px">Government</text>
					</g>
					<g>
						<g transform="translate(0.5,200.5)">
							<path fill="none" d="M21,307L21,307L21,307L21,307z"/>
							<g>
								<g>
									<line fill="none" stroke="#888888" x1="21" y1="307" x2="21" y2="312"/>
									<line fill="none" stroke="#888888" x1="71" y1="307" x2="71" y2="312"/>
									<line fill="none" stroke="#888888" x1="121" y1="307" x2="121" y2="312"/>
									<line fill="none" stroke="#888888" x1="171" y1="307" x2="171" y2="312"/>
									<line fill="none" stroke="#888888" x1="221" y1="307" x2="221" y2="312"/>
									<line fill="none" stroke="#888888" x1="271" y1="307" x2="271" y2="312"/>
									<line fill="none" stroke="#888888" x1="321" y1="307" x2="321" y2="312"/>
									<line fill="none" stroke="#888888" x1="371" y1="307" x2="371" y2="312"/>
									<line fill="none" stroke="#888888" x1="420.5" y1="307.5" x2="420.5" y2="312.5"/>
								</g>
								<g>
									<text transform="matrix(1 0 0 1 7.6723 322)" display="none" font-family="'ArialMT'" font-size="12px">2000</text>
									<text transform="matrix(1 0 0 1 57.5835 322)" display="none" font-family="'ArialMT'" font-size="12px">2002</text>
									<text transform="matrix(1 0 0 1 107.5493 322)" display="none" font-family="'ArialMT'" font-size="12px">2004</text>
									<text transform="matrix(1 0 0 1 157.5835 322)" display="none" font-family="'ArialMT'" font-size="12px">2006</text>
									<text transform="matrix(1 0 0 1 207.5493 322)" display="none" font-family="'ArialMT'" font-size="12px">2008</text>
									<text transform="matrix(1 0 0 1 257.5835 322)" display="none" font-family="'ArialMT'" font-size="12px">2010</text>
									<text transform="matrix(1 0 0 1 307.5493 322)" display="none" font-family="'ArialMT'" font-size="12px">2012</text>
									<text transform="matrix(1 0 0 1 357.5835 322)" display="none" font-family="'ArialMT'" font-size="12px">2014</text>
									<text transform="matrix(1 0 0 1 407.5835 322)" display="none" font-family="'ArialMT'" font-size="12px">2016</text>
								</g>
								<g>
									<line fill="none" stroke="#888888" x1="21" y1="307" x2="421" y2="307"/>
								</g>
							</g>
						</g>
					</g>
					<g>
						<g transform="translate(0.5,0.5)">
							<path fill="none" d="M21,307L21,307L21,307L21,307z"/>
							<g>
								<g>
									<line fill="none" stroke="#888888" x1="21" y1="507" x2="16" y2="507"/>
									<line fill="none" stroke="#888888" x1="21" y1="457" x2="16" y2="457"/>
									<line fill="none" stroke="#888888" x1="21" y1="407" x2="16" y2="407"/>
									<line fill="none" stroke="#888888" x1="21" y1="357" x2="16" y2="357"/>
									<line fill="none" stroke="#888888" x1="21" y1="307" x2="16" y2="307"/>
								</g>
							</g>
						</g>
					</g>
					<g>
						<g transform="translate(0,0)">
							<g>
								<g>
									<path fill="none" stroke="#444444" stroke-width="3" d="M421,427.75l-24.983,0.325l-24.983-0.619l-24.983,0.582
										L321,428.064l-24.983,1.472l-24.983,3.046l-24.983,1.114L221,435.878l-24.983,1.54l-24.983,1.661l-24.983,1.911L121,443.55
										l-24.983-0.579l-24.983,1.657l-24.983,4.249"/>
								</g>
							</g>
						</g>
						<g transform="translate(0,0)">
							<g>
								<g>
									<path fill="none" stroke="#1B9E77" stroke-width="2" d="M421,471.492l-24.983-3.915l-24.983-12.476l-24.983-0.115
										L321,458.643l-24.983,5.385l-24.983,10.71l-24.983-1.473L221,469.72l-24.983,0.246l-24.983,0.811l-24.983,11.579
										L121,490.812l-24.983,9.177l-24.983-1.906l-24.983-0.022"/>
								</g>
							</g>
						</g>
						<g transform="translate(0,0)">
							<g>
								<g>
									<path fill="none" stroke="#D95F02" stroke-width="2" d="M421,431.46l-24.983,1.256l-24.983,4.005l-24.983,3.632L321,444.25
										l-24.983-0.416l-24.983,5.793l-24.983,3.179L221,448.538l-24.983-3.329l-24.983,9.123l-24.983,3.521L121,461.55
										l-24.983-3.909l-24.983,2.872l-24.983,0.843"/>
								</g>
							</g>
						</g>
						<g transform="translate(0,0)">
							<g>
								<g>
									<path fill="none" stroke="#E7298A" stroke-width="2" d="M421,436.123l-24.983-2.739l-24.983-1.116l-24.983-0.801
										L321,434.699l-24.983,1.188l-24.983,4.43l-24.983,3.048L221,442.161l-24.983,0.928l-24.983,1.733l-24.983,2.014
										l-25.051,0.3l-24.983,0l-24.983,0.286l-24.983,4.731"/>
								</g>
							</g>
						</g>
						<g transform="translate(0,0)">
							<g>
								<g>
									<path fill="none" stroke="#66A61E" stroke-width="2" d="M421,481.117l-24.983-0.666l-24.983,1.462l-24.983,1.07
										L321,481.553l-24.983,3.376l-24.983,2.002l-24.983,0.519L221,488.017l-24.983,0.894l-24.983,1.825l-24.983,1.293
										L121,493.811l-24.983-1.53l-24.983,0.232l-24.983,2.77"/>
								</g>
							</g>
						</g>
						<g transform="translate(0,0)">
							<g>
								<g>
									<path fill="none" stroke="#E6AB02" stroke-width="2" d="M421,368.209l-24.983,2.938l-24.983,4.516l-24.983-0.109
										L321,380.758l-24.983-1.986l-24.983,4.442l-24.983,3.232L221,395.914l-24.983,5.844l-24.983-1.806l-24.983,3.803
										L121,407.607l-24.983,2.456l-24.983,2.996l-24.983,9.92"/>
								</g>
							</g>
						</g>
						<g transform="translate(0,0)">
							<g>
								<g>
									<path fill="none" stroke="#A6761D" stroke-width="2" d="M421,312.605l-24.983,6.369l-24.983-2.516l-24.983-0.541
										L321,309.842l-24.983,0.92l-24.983,4.216l-24.983-3.132L221,318.771l-24.983,5.053l-24.983,3l-24.983,1.227L121,334.756
										l-24.983-0.488l-24.983,5.803l-24.983,11.485"/>
								</g>
							</g>
						</g>
						<g transform="translate(0,0)">
							<g>
								<g>
									<path fill="none" stroke="#444444" stroke-width="3" d="M421,358h-24.983h-24.983h-24.983H321h-24.983h-24.983h-24.983H221
										h-24.983h-24.983h-24.983H121H96.017H71.034H46.5"/>
								</g>
							</g>
						</g>
						<g transform="translate(0,0)">
							<g>
								<g>
									<path fill="none" stroke="#7570B3" stroke-width="2" d="M421,358.483l-24.983-1.341l-24.983-0.982l-24.983,9.17
										L321,361.585l-24.983-3.034l-24.983-6.428l-24.983,6.79L221,354.878l-24.983,0.103l-24.983,2.457l-24.983,0.54L121,361.322
										l-24.983-6.604l-24.983,3.725l-24.983,0.28"/>
								</g>
							</g>
						</g>
					</g>
				</g>
			</g>
		</g>
	</g>
	<g>
		<line fill="none" stroke="#000000" stroke-width="1.5" x1="166.5" y1="118" x2="166.5" y2="113.795"/>
		<g>
			<polygon points="166.5,108.5 169.549,115.962 166.5,114.191 163.452,115.962 			"/>
		</g>
	</g>
	<g>
		<line fill="none" stroke="#000000" stroke-width="1.5" x1="167" y1="151.5" x2="167" y2="180.348"/>
		<g>
			<polygon points="167,185.643 163.951,178.181 167,179.952 170.048,178.181 			"/>
		</g>
	</g>
	<path d="M435.5,124"/>
	<g>
		<path fill="none" stroke="#000000" d="M450.5,113c19.891,0.527,22.986,39.9,23.468,52.045"/>
		<g>
			<polygon points="474.057,168.572 471.861,163.667 473.932,164.779 475.924,163.533 			"/>
		</g>
	</g>
	<g>
		<path fill="none" stroke="#000000" d="M445,236.5c17.933,0,24.924-6.66,27.536-10.793"/>
		<g>
			<polygon points="474,222.5 473.68,227.864 472.358,225.921 470.015,226.105 			"/>
		</g>
	</g>
	<g>
		<path fill="none" stroke="#000000" d="M439,70.5c24.206,0,33.779,16.462,36.812,23.678"/>
		<g>
			<polygon points="477,97.5 473.365,93.542 475.681,93.942 477.176,92.129 			"/>
		</g>
	</g>
	<g>
		<line fill="none" stroke="#86BF86" x1="285.5" y1="130" x2="285.5" y2="140.47"/>
		<g>
			<polygon fill="#86BF86" points="285.5,144 283.467,139.025 285.5,140.206 287.532,139.025 			"/>
		</g>
	</g>
	<g>
		<path fill="none" stroke="#86BF86" d="M331,171.5c9.186,0,12.533-2.336,13.668-4.483"/>
		<g>
			<polygon fill="#86BF86" points="345,163.5 346.291,168.716 344.451,167.254 342.269,168.128 			"/>
		</g>
	</g>
	<g>
		<line fill="none" stroke="#86BF86" x1="375" y1="206.5" x2="375" y2="190.03"/>
		<g>
			<polygon fill="#86BF86" points="375,186.5 377.033,191.475 375,190.294 372.968,191.475 			"/>
		</g>
	</g>
	<g>
		<path fill="none" stroke="#F2DF91" d="M468,197.5c0-1.049,0-2.191,0-3.233"/>
		<g>
			<polygon fill="#F2DF91" points="468,190.739 470.033,195.713 468,194.533 465.968,195.713 			"/>
		</g>
	</g>
	<g>
		<path fill="none" stroke="#000000" d="M455.5,528c10.249,0,14.895-6.535,16.811-10.676"/>
		<g>
			<polygon points="473.5,514 473.638,519.372 472.156,517.548 469.837,517.932 			"/>
		</g>
	</g>
	<g>
		<path fill="none" stroke="#000000" d="M445,359.5c19.343,0,25.784-5.784,27.929-9.635"/>
		<g>
			<polygon points="474,346.5 474.278,351.867 472.748,350.082 470.44,350.526 			"/>
		</g>
	</g>
	<g>
		<path fill="none" stroke="#000000" d="M455,424.5c16.123,0,19.893-10.742,20.757-16.481"/>
		<g>
			<polygon points="476,404.5 477.62,409.624 475.69,408.282 473.569,409.292 			"/>
		</g>
	</g>
</g>
<style type="text/css">
#g-mt-economy-5-wage-gap-medium-img rect, #g-mt-economy-5-wage-gap-medium-img circle, #g-mt-economy-5-wage-gap-medium-img path, #g-mt-economy-5-wage-gap-medium-img line, #g-mt-economy-5-wage-gap-medium-img polyline { vector-effect: non-scaling-stroke; }
</style>
</svg>

