<?xml version="1.0" encoding="utf-8"?>
<!-- Generator: Adobe Illustrator 22.1.0, SVG Export Plug-In . SVG Version: 6.00 Build 0)  -->
<svg version="1.2" baseProfile="tiny" id="g-mt-economy-3a-sector-line-charts-mobile-img" xmlns="http://www.w3.org/2000/svg" xmlns:xlink="http://www.w3.org/1999/xlink"
	 x="0px" y="0px" viewBox="0 0 300 567" xml:space="preserve">
<g>
	<g transform="translate(50,10)">
		<g transform="translate(0,160)">
			<g transform="translate(0.5,0)">
				<text transform="matrix(1 0 0 1 -15.6392 -32.1621)" display="none" font-family="'ArialMT'" font-size="9px">2000</text>
			</g>
			<g transform="translate(56.05555555555556,0)">
				<line fill="none" stroke="#000000" x1="-9.159" y1="-44.503" x2="-9.159" y2="-41.022"/>
				<text transform="matrix(1 0 0 1 -18.9169 -32.1621)" display="none" font-family="'ArialMT'" font-size="9px">2005</text>
			</g>
			<g transform="translate(111.61111111111111,0)">
				<line fill="none" stroke="#000000" x1="-117.267" y1="-44.503" x2="-117.267" y2="-41.022"/>
			</g>
			<g transform="translate(167.16666666666669,0)">
				<line fill="none" stroke="#000000" x1="-68.777" y1="-44.503" x2="-68.777" y2="-41.022"/>
				<text transform="matrix(1 0 0 1 -78.2594 -32.1621)" display="none" font-family="'ArialMT'" font-size="9px">2010</text>
			</g>
			<g transform="translate(167.16666666666669,0)">
				<line fill="none" stroke="#000000" x1="-6.839" y1="-44.503" x2="-6.839" y2="-41.022"/>
				<text transform="matrix(1 0 0 1 -16.321 -32.1621)" display="none" font-family="'ArialMT'" font-size="9px">2016</text>
			</g>
		</g>
		<g>
			<g transform="translate(0,160.5)">
				<line fill="none" stroke="#000000" x1="-5.78" y1="-44.713" x2="-10.778" y2="-44.713"/>
				<line fill="none" stroke="#000000" stroke-opacity="0.1" x1="-5.78" y1="-44.713" x2="160.558" y2="-45.051"/>
				<text transform="matrix(1 0 0 1 -17.917 -42.8574)" display="none" font-family="'ArialMT'" font-size="9px">0</text>
			</g>
			<g transform="translate(0,120.5)">
				
				<line fill="none" stroke="#000000" x1="-5.78" y1="-27.925" x2="-10.778" y2="-27.925"/>
				<text transform="matrix(1 0 0 1 -40.439 -26.0693)" display="none" font-family="'ArialMT'" font-size="9px">20,000</text>
			</g>
			<g transform="translate(0,80.5)">
				
				<line fill="none" stroke="#000000" x1="-5.78" y1="-11.137" x2="-10.778" y2="-11.137"/>
				<text transform="matrix(1 0 0 1 -40.439 -9.2803)" display="none" font-family="'ArialMT'" font-size="9px">40,000</text>
			</g>
			<g transform="translate(0,40.5)">
				<line fill="none" stroke="#000000" x1="-5.78" y1="5.652" x2="-10.778" y2="5.652"/>
				<line fill="none" stroke="#000000" stroke-opacity="0.1" x1="-5.78" y1="5.652" x2="160.819" y2="5.652"/>
				<text transform="matrix(1 0 0 1 -40.439 7.5078)" display="none" font-family="'ArialMT'" font-size="9px">60,000</text>
			</g>
			<g transform="translate(0,0.5)">
				<line fill="none" stroke="#000000" x1="-5.78" y1="22.44" x2="-10.778" y2="22.44"/>
				<line fill="none" stroke="#000000" stroke-opacity="0.1" x1="-5.78" y1="22.44" x2="160.819" y2="22.44"/>
				<g display="none">
					<text transform="matrix(1 0 0 1 -40.439 24.2959)" display="inline" font-family="'ArialMT'" font-size="9px">80,000</text>
					<text transform="matrix(1 0 0 1 -29.4219 35.0957)" display="inline" font-family="'ArialMT'" font-size="9px">jobs</text>
				</g>
			</g>
		</g>
		<g>
			<rect x="-5.78" y="22.65" fill="#EEDD22" fill-opacity="0.2" width="0" height="92.847"/>
			<rect x="3.175" y="22.65" fill="#EEDD22" fill-opacity="0.2" width="0" height="92.847"/>
			<rect x="66.242" y="17.167" fill="#EEDD22" fill-opacity="0.2" width="20.807" height="98.329"/>
		</g>
		<g>
			<path display="none" fill="none" stroke="#000000" stroke-opacity="0.15" stroke-dasharray="1" d="M3.82,77.912l10.404,0.34
				l10.404,1.87l10.404,0.826l10.404,0.801l10.404,0.744l10.404-0.375l10.404-0.373l10.404,0.193l10.404,0.101l10.404-0.609
				l10.404-0.441l10.404-0.496l10.404,0.529l10.404-0.541l10.404,0.015"/>
			<path display="none" fill="none" stroke="#000000" stroke-opacity="0.15" stroke-dasharray="1" d="M3.82,107.319l10.404-0.897
				l10.404,0.887l10.404-0.178l10.404,0.072l10.404,0.149l10.404-0.317l10.404-0.179l10.404,0.45l10.404-0.092l10.404-0.068
				l10.404-0.429l10.404-0.187l10.404-0.349l10.404,0.331l10.404,0.073"/>
			<path display="none" fill="none" stroke="#000000" stroke-opacity="0.15" stroke-dasharray="1" d="M3.82,107.35l10.404,0.337
				l10.404-0.243l10.404-1.128l10.404-0.688l10.404-0.976l10.404-1.018l10.404-0.854l10.404,1.527l10.404-1.682l10.404-0.222
				l10.404-4.156l10.404,0.125l10.404,0.503l10.404,0.76l10.404,1.336"/>
			<path display="none" fill="none" stroke="#000000" stroke-opacity="0.15" stroke-dasharray="1" d="M3.82,95.611l10.404,0.258
				l10.404-0.348l10.404-0.747l10.404-0.39l10.404-0.305l10.404-0.371l10.404,0.224l10.404,0.757l10.404,0.468l10.404-0.097
				l10.404-0.71l10.404-1.069l10.404-1.049l10.404-0.964l10.404-0.223"/>
			<path display="none" fill="none" stroke="#000000" stroke-opacity="0.15" stroke-dasharray="1" d="M3.82,35.088l10.404-0.483
				l10.404,0.196l10.404-1.693l10.404-1.71l10.404-1.327l10.404-3.087l10.404,0.602l10.404,3.549l10.404,2.666l10.404-0.749
				l10.404,0.06l10.404-1.141l10.404-2.113l10.404-1.913l10.404-1.231"/>
			<path display="none" fill="none" stroke="#000000" stroke-opacity="0.15" stroke-dasharray="1" d="M3.82,50.596l10.404-2.17
				l10.404-0.6l10.404-1.416l10.404-1.779l10.404-1.736l10.404-2.06l10.404-2.161l10.404-1.618l10.404-0.986l10.404,0.311
				l10.404-2.32l10.404-1.302l10.404-0.386l10.404-1.629l10.404-2.702"/>
			<path display="none" fill="none" stroke="#000000" stroke-opacity="0.15" stroke-dasharray="1" d="M3.82,100.348l10.404-0.887
				l10.404-0.281l10.404,0.191l10.404,0.414l10.404,0.009l10.404,0.128l10.404-0.261l10.404-0.636l10.404-0.769l10.404,1.134
				l10.404,0.366l10.404,0.569l10.404,0.085l10.404-0.101l10.404-0.277"/>
			<path display="none" fill="none" stroke="#000000" stroke-opacity="0.15" stroke-dasharray="1" d="M3.82,105.793l10.404-0.051
				l10.404-0.117l10.404,0.046l10.404,0.253l10.404-0.006l10.404,0.088l10.404-0.031l10.404,0.232l10.404-0.108l10.404-0.106
				l10.404-0.147l10.404,0.019l10.404,0.274l10.404,0.232l10.404,0.031"/>
			<path display="none" fill="none" stroke="#000000" stroke-opacity="0.15" stroke-dasharray="1" d="M3.82,87.43l10.404,1.222
				l10.404-1.647l10.404-0.746l10.404-0.551l10.404,0.201l10.404-1.017l10.404,0.443l10.404-0.571l10.404,0.073l10.404-0.504
				l10.404,0.056l10.404-0.557l10.404-0.504l10.404,0.411l10.404-0.202"/>
			<path display="none" fill="none" stroke="#000000" stroke-opacity="0.15" stroke-dasharray="1" d="M3.82,63.79l10.404-0.038
				l10.404-0.986l10.404-0.53l10.404,0.57l10.404-0.114l10.404-0.123l10.404-0.876l10.404-1.179l10.404-0.42l10.404,0.722
				l10.404,0.745l10.404,0.031l10.404-0.104l10.404-0.616l10.404-0.714"/>
			<path fill="none" stroke="#66A61E" stroke-width="2" stroke-linecap="round" stroke-linejoin="round" d="M3.82,61.933l10.404-1
				l10.404-0.884l10.404-1.357l10.404-1.056l10.404-0.97l10.404-0.717l10.404-0.772l10.404,2.06l10.404,0.881l10.404-1.287
				l10.404-1.532l10.404-1.953l10.404-0.832l10.404-2.342l10.404-2.059"/>
			<path fill="none" stroke="#D95F02" stroke-width="2" stroke-linecap="round" stroke-linejoin="round" d="M3.82,70.837
				l10.404,0.085l10.404-3.17l10.404-3.47l10.404-5.08l10.404-3.551l10.404-3.208l10.404,4.158l10.404,8.051l10.404,3.33
				l10.404,0.622l10.404-0.609l10.404-1.392l10.404-1.072l10.404-1.972l10.404-0.507"/>
			<path fill="none" stroke="#66A61E" stroke-width="2" stroke-linecap="round" stroke-linejoin="round" d="M3.82,93.139
				l10.404,0.034l10.404-1.523l10.404-2.366l10.404-2.682l10.404-2.532l10.404-2.278l10.404-0.751l10.404,0.276l10.404-1.195
				l10.404-1.315l10.404,0.236l10.404-0.952l10.404-1.691l10.404-1.505l10.404-1.392"/>
			<path fill="none" stroke="#66A61E" stroke-width="2" stroke-linecap="round" stroke-linejoin="round" d="M3.82,91.917
				l10.404-0.954l10.404-0.399l10.404-0.111l10.404-0.203l10.404-0.7l10.404-1.388l10.404-1.489l10.404-1.26l10.404,0.938
				l10.404-1.262l10.404,1.043l10.404,0.122l10.404,0.891l10.404-0.477l10.404,0.13"/>
			<path display="none" fill="none" stroke="#000000" stroke-opacity="0.15" stroke-dasharray="1" d="M3.82,95.261l10.404,0.226
				l10.404,0.407l10.404-0.185l10.404-0.88l10.404-0.648l10.404-0.317l10.404,0.594l10.404,0.462l10.404,0.297l10.404-1.18
				l10.404-1.036l10.404-0.439l10.404-0.212l10.404-0.275l10.404,0.31"/>
			<path fill="none" stroke="#66A61E" stroke-width="2" stroke-linecap="round" stroke-linejoin="round" d="M3.82,99.149
				l10.404-1.056l10.404-1.043l10.404-0.556l10.404-0.903l10.404-1.074l10.404-1.233l10.404-0.382l10.404,0.721l10.404,0.247
				l10.404-0.31l10.404-0.166l10.404-0.563l10.404-0.758l10.404,0.4l10.404-0.316"/>
		</g>
	</g>
	<g transform="translate(50,10)">
		<g transform="translate(0,160)">
			<g transform="translate(0.5,0)">
				<line fill="none" stroke="#000000" x1="-5.864" y1="93.218" x2="-5.864" y2="96.7"/>
				<text transform="matrix(1 0 0 1 -15.6392 105.5596)" display="none" font-family="'ArialMT'" font-size="9px">2000</text>
			</g>
			<g transform="translate(56.05555555555556,0)">
				<line fill="none" stroke="#000000" x1="-9.141" y1="93.218" x2="-9.141" y2="96.7"/>
				<text transform="matrix(1 0 0 1 -18.9169 105.5596)" display="none" font-family="'ArialMT'" font-size="9px">2005</text>
			</g>
			<g transform="translate(167.16666666666669,0)">
				<line fill="none" stroke="#000000" x1="-67.945" y1="93.218" x2="-67.945" y2="96.7"/>
				<text transform="matrix(1 0 0 1 -77.4259 105.5596)" display="none" font-family="'ArialMT'" font-size="9px">2010</text>
			</g>
		</g>
		<g>
			<g transform="translate(0,160.5)">
				<line fill="none" stroke="#000000" x1="-5.78" y1="93.008" x2="-10.778" y2="93.008"/>
				<line fill="none" stroke="#000000" stroke-opacity="0.1" x1="-5.78" y1="93.008" x2="160.819" y2="93.008"/>
				<text transform="matrix(1 0 0 1 -17.917 94.8643)" display="none" font-family="'ArialMT'" font-size="9px">0</text>
			</g>
			<g transform="translate(0,120.5)">
				<line fill="none" stroke="#000000" x1="-5.78" y1="109.797" x2="-10.778" y2="109.797"/>
				<line fill="none" stroke="#000000" stroke-opacity="0.1" x1="-5.78" y1="109.797" x2="160.819" y2="109.797"/>
				<text transform="matrix(1 0 0 1 -40.439 111.6523)" display="none" font-family="'ArialMT'" font-size="9px">20,000</text>
			</g>
			<g transform="translate(0,80.5)">
				<line fill="none" stroke="#000000" x1="-5.78" y1="126.585" x2="-10.778" y2="126.585"/>
				<line fill="none" stroke="#000000" stroke-opacity="0.1" x1="-5.78" y1="126.585" x2="160.819" y2="126.585"/>
				<text transform="matrix(1 0 0 1 -40.439 128.4414)" display="none" font-family="'ArialMT'" font-size="9px">40,000</text>
			</g>
			<g transform="translate(0,40.5)">
				<line fill="none" stroke="#000000" x1="-5.78" y1="143.373" x2="-10.778" y2="143.373"/>
				<line fill="none" stroke="#000000" stroke-opacity="0.1" x1="-5.78" y1="143.373" x2="160.819" y2="143.373"/>
				<text transform="matrix(1 0 0 1 -40.439 145.2295)" display="none" font-family="'ArialMT'" font-size="9px">60,000</text>
			</g>
			<g transform="translate(0,0.5)">
				<line fill="none" stroke="#000000" x1="-5.78" y1="160.162" x2="-10.778" y2="160.162"/>
				<line fill="none" stroke="#000000" stroke-opacity="0.1" x1="-5.78" y1="160.162" x2="160.819" y2="160.162"/>
				<g display="none">
					<text transform="matrix(1 0 0 1 -40.439 162.0186)" display="inline" font-family="'ArialMT'" font-size="9px">80,000</text>
					<text transform="matrix(1 0 0 1 -29.4219 172.8184)" display="inline" font-family="'ArialMT'" font-size="9px">jobs</text>
				</g>
			</g>
		</g>
		<g>
			<rect x="-5.78" y="160.372" fill="#EEDD22" fill-opacity="0.2" width="0" height="92.847"/>
			<rect x="4.481" y="160.372" fill="#EEDD22" fill-opacity="0.2" width="0" height="92.847"/>
			<rect x="67.016" y="160.372" fill="#EEDD22" fill-opacity="0.2" width="20.845" height="92.847"/>
		</g>
		<g>
			<path display="none" fill="none" stroke="#000000" stroke-opacity="0.15" stroke-dasharray="1" d="M4.481,215.634l10.423,0.34
				l10.423,1.87l10.423,0.826l10.423,0.801l10.423,0.744l10.423-0.375l10.423-0.373l10.423,0.193l10.423,0.101l10.423-0.609
				l10.423-0.441l10.423-0.496l10.423,0.529l10.423-0.541l10.423,0.015"/>
			<path display="none" fill="none" stroke="#000000" stroke-opacity="0.15" stroke-dasharray="1" d="M4.481,245.041l10.423-0.897
				l10.423,0.887l10.423-0.178l10.423,0.072l10.423,0.149l10.423-0.317l10.423-0.179l10.423,0.45l10.423-0.092l10.423-0.068
				l10.423-0.429l10.423-0.187l10.423-0.349l10.423,0.331l10.423,0.073"/>
			<path display="none" fill="none" stroke="#000000" stroke-opacity="0.15" stroke-dasharray="1" d="M4.481,245.072l10.423,0.337
				l10.423-0.243l10.423-1.128l10.423-0.688l10.423-0.976l10.423-1.018l10.423-0.854l10.423,1.527l10.423-1.682l10.423-0.222
				l10.423-4.156l10.423,0.125l10.423,0.503l10.423,0.76l10.423,1.336"/>
			<path display="none" fill="none" stroke="#000000" stroke-opacity="0.15" stroke-dasharray="1" d="M4.481,208.559l10.423,0.085
				l10.423-3.17l10.423-3.47l10.423-5.08l10.423-3.551l10.423-3.208l10.423,4.158l10.423,8.051l10.423,3.33l10.423,0.622
				l10.423-0.609l10.423-1.392l10.423-1.072l10.423-1.972l10.423-0.507"/>
			<path display="none" fill="none" stroke="#000000" stroke-opacity="0.15" stroke-dasharray="1" d="M4.481,229.639l10.423-0.954
				l10.423-0.399l10.423-0.111l10.423-0.203l10.423-0.7l10.423-1.388l10.423-1.489l10.423-1.26l10.423,0.938l10.423-1.262
				l10.423,1.043l10.423,0.122l10.423,0.891l10.423-0.477l10.423,0.13"/>
			<path display="none" fill="none" stroke="#000000" stroke-opacity="0.15" stroke-dasharray="1" d="M4.481,230.861l10.423,0.034
				l10.423-1.523l10.423-2.366l10.423-2.682l10.423-2.532l10.423-2.278l10.423-0.751l10.423,0.276l10.423-1.195l10.423-1.315
				l10.423,0.236l10.423-0.952l10.423-1.691l10.423-1.505l10.423-1.392"/>
			<path display="none" fill="none" stroke="#000000" stroke-opacity="0.15" stroke-dasharray="1" d="M4.481,236.87l10.423-1.056
				l10.423-1.043l10.423-0.556l10.423-0.903l10.423-1.074l10.423-1.233l10.423-0.382l10.423,0.721l10.423,0.247l10.423-0.31
				l10.423-0.166l10.423-0.563l10.423-0.758l10.423,0.4l10.423-0.316"/>
			<path display="none" fill="none" stroke="#000000" stroke-opacity="0.15" stroke-dasharray="1" d="M4.481,199.655l10.423-1
				l10.423-0.884l10.423-1.357l10.423-1.056l10.423-0.97l10.423-0.717l10.423-0.772l10.423,2.06l10.423,0.881l10.423-1.287
				l10.423-1.532l10.423-1.953l10.423-0.832l10.423-2.342l10.423-2.059"/>
			<path display="none" fill="none" stroke="#000000" stroke-opacity="0.15" stroke-dasharray="1" d="M4.481,238.069l10.423-0.887
				l10.423-0.281l10.423,0.191l10.423,0.414l10.423,0.009l10.423,0.128l10.423-0.261l10.423-0.636l10.423-0.769l10.423,1.134
				l10.423,0.366l10.423,0.569l10.423,0.085l10.423-0.101l10.423-0.277"/>
			<path display="none" fill="none" stroke="#000000" stroke-opacity="0.15" stroke-dasharray="1" d="M4.481,243.515l10.423-0.051
				l10.423-0.117l10.423,0.046l10.423,0.253l10.423-0.006l10.423,0.088l10.423-0.031l10.423,0.232l10.423-0.108l10.423-0.106
				l10.423-0.147l10.423,0.019l10.423,0.274l10.423,0.232l10.423,0.031"/>
			<path display="none" fill="none" stroke="#000000" stroke-opacity="0.15" stroke-dasharray="1" d="M4.481,225.152l10.423,1.222
				l10.423-1.647l10.423-0.746l10.423-0.551l10.423,0.201l10.423-1.017l10.423,0.443l10.423-0.571l10.423,0.073l10.423-0.504
				l10.423,0.056l10.423-0.557l10.423-0.504l10.423,0.411l10.423-0.202"/>
			<path display="none" fill="none" stroke="#000000" stroke-opacity="0.15" stroke-dasharray="1" d="M4.481,201.512l10.423-0.038
				l10.423-0.986l10.423-0.53l10.423,0.57l10.423-0.114l10.423-0.123l10.423-0.876l10.423-1.179l10.423-0.42l10.423,0.722
				l10.423,0.745l10.423,0.031l10.423-0.104l10.423-0.616l10.423-0.714"/>
			<path fill="none" stroke="#E7298A" stroke-width="2" stroke-linecap="round" stroke-linejoin="round" d="M4.481,233.333
				l10.423,0.258l10.423-0.348l10.423-0.747l10.423-0.39l10.423-0.305l10.423-0.371l10.423,0.224l10.423,0.757l10.423,0.468
				l10.423-0.097l10.423-0.71L129.551,231l10.423-1.049l10.423-0.964l10.423-0.223"/>
			<path fill="none" stroke="#E7298A" stroke-width="2" stroke-linecap="round" stroke-linejoin="round" d="M4.481,172.81
				l10.423-0.483l10.423,0.196l10.423-1.693l10.423-1.71l10.423-1.327l10.423-3.087l10.423,0.602l10.423,3.549l10.423,2.666
				l10.423-0.749l10.423,0.06l10.423-1.141l10.423-2.113l10.423-1.913l10.423-1.231"/>
			<path fill="none" stroke="#E7298A" stroke-width="2" stroke-linecap="round" stroke-linejoin="round" d="M4.481,232.982
				l10.423,0.226l10.423,0.407l10.423-0.185l10.423-0.88l10.423-0.648l10.423-0.317l10.423,0.594l10.423,0.462l10.423,0.297
				l10.423-1.18l10.423-1.036l10.423-0.439l10.423-0.212l10.423-0.275l10.423,0.31"/>
			<path fill="none" stroke="#E6AB02" stroke-width="2" stroke-linecap="round" stroke-linejoin="round" d="M4.481,188.317
				l10.423-2.17l10.423-0.6l10.423-1.416l10.423-1.779l10.423-1.736l10.423-2.06l10.423-2.161l10.423-1.618l10.423-0.986
				l10.423,0.311l10.423-2.32l10.423-1.302l10.423-0.386l10.423-1.629l10.423-2.702"/>
		</g>
	</g>
	<g transform="translate(50,10)">
		<g transform="translate(0,160)">
			<g transform="translate(0.5,0)">
				<line fill="none" stroke="#000000" x1="-5.864" y1="227.287" x2="-5.864" y2="230.768"/>
				<text transform="matrix(1 0 0 1 -15.6392 239.6289)" display="none" font-family="'ArialMT'" font-size="9px">2000</text>
			</g>
			<g transform="translate(56.05555555555556,0)">
				<line fill="none" stroke="#000000" x1="-9.142" y1="227.287" x2="-9.142" y2="230.768"/>
				<text transform="matrix(1 0 0 1 -18.9169 239.6289)" display="none" font-family="'ArialMT'" font-size="9px">2005</text>
			</g>
			<g transform="translate(111.61111111111111,0)">
				<line fill="none" stroke="#000000" x1="-116.718" y1="227.287" x2="-116.718" y2="230.768"/>
			</g>
			<g transform="translate(167.16666666666669,0)">
				<line fill="none" stroke="#000000" x1="-67.983" y1="227.287" x2="-67.983" y2="230.768"/>
				<text transform="matrix(1 0 0 1 -77.4631 239.6289)" display="none" font-family="'ArialMT'" font-size="9px">2010</text>
			</g>
		</g>
		<g>
			<g transform="translate(0,160.5)">
				<line fill="none" stroke="#000000" x1="-5.78" y1="227.077" x2="-10.778" y2="227.077"/>
				<line fill="none" stroke="#000000" stroke-opacity="0.1" x1="-5.78" y1="227.077" x2="160.819" y2="227.077"/>
				<text transform="matrix(1 0 0 1 -17.917 228.9336)" display="none" font-family="'ArialMT'" font-size="9px">0</text>
			</g>
			<g transform="translate(0,120.5)">
				<line fill="none" stroke="#000000" x1="-5.78" y1="243.865" x2="-10.778" y2="243.865"/>
				<line fill="none" stroke="#000000" stroke-opacity="0.1" x1="-5.78" y1="243.865" x2="160.819" y2="243.865"/>
				<text transform="matrix(1 0 0 1 -40.439 245.7217)" display="none" font-family="'ArialMT'" font-size="9px">20,000</text>
			</g>
			<g transform="translate(0,80.5)">
				<line fill="none" stroke="#000000" x1="-5.78" y1="260.654" x2="-10.778" y2="260.654"/>
				<line fill="none" stroke="#000000" stroke-opacity="0.1" x1="-5.78" y1="260.654" x2="160.819" y2="260.654"/>
				<text transform="matrix(1 0 0 1 -40.439 262.5098)" display="none" font-family="'ArialMT'" font-size="9px">40,000</text>
			</g>
			<g transform="translate(0,40.5)">
				<line fill="none" stroke="#000000" x1="-5.78" y1="277.442" x2="-10.778" y2="277.442"/>
				<line fill="none" stroke="#000000" stroke-opacity="0.1" x1="-5.78" y1="277.442" x2="160.819" y2="277.442"/>
				<text transform="matrix(1 0 0 1 -40.439 279.2988)" display="none" font-family="'ArialMT'" font-size="9px">60,000</text>
			</g>
			<g transform="translate(0,0.5)">
				<line fill="none" stroke="#000000" x1="-5.78" y1="294.23" x2="-10.778" y2="294.23"/>
				<line fill="none" stroke="#000000" stroke-opacity="0.1" x1="-5.78" y1="294.23" x2="160.819" y2="294.23"/>
				<g display="none">
					<text transform="matrix(1 0 0 1 -40.439 296.0859)" display="inline" font-family="'ArialMT'" font-size="9px">80,000</text>
					<text transform="matrix(1 0 0 1 -29.4219 306.8857)" display="inline" font-family="'ArialMT'" font-size="9px">jobs</text>
				</g>
			</g>
		</g>
		<g>
			<rect x="-5.78" y="294.44" fill="#EEDD22" fill-opacity="0.2" width="0" height="92.847"/>
			<rect x="4.384" y="294.44" fill="#EEDD22" fill-opacity="0.2" width="0" height="92.847"/>
			<rect x="66.958" y="294.44" fill="#EEDD22" fill-opacity="0.2" width="20.858" height="92.847"/>
		</g>
		<g>
			<path display="none" fill="none" stroke="#000000" stroke-opacity="0.15" stroke-dasharray="1" d="M4.384,342.627l10.429,0.085
				l10.429-3.17l10.429-3.47l10.429-5.08l10.429-3.551l10.429-3.208l10.429,4.158l10.429,8.051l10.429,3.33l10.429,0.622
				l10.429-0.609l10.429-1.392l10.429-1.072l10.429-1.972l10.429-0.507"/>
			<path display="none" fill="none" stroke="#000000" stroke-opacity="0.15" stroke-dasharray="1" d="M4.384,367.401l10.429,0.258
				l10.429-0.348l10.429-0.747l10.429-0.39l10.429-0.305l10.429-0.371l10.429,0.224l10.429,0.757l10.429,0.468l10.429-0.098
				l10.429-0.71l10.429-1.069l10.429-1.049l10.429-0.964l10.429-0.223"/>
			<path display="none" fill="none" stroke="#000000" stroke-opacity="0.15" stroke-dasharray="1" d="M4.384,306.878l10.429-0.483
				l10.429,0.196l10.429-1.693l10.429-1.71l10.429-1.327l10.429-3.087l10.429,0.602l10.429,3.549l10.429,2.666l10.429-0.749
				l10.429,0.06l10.429-1.141l10.429-2.113l10.429-1.913l10.429-1.231"/>
			<path display="none" fill="none" stroke="#000000" stroke-opacity="0.15" stroke-dasharray="1" d="M4.384,367.051l10.429,0.226
				l10.429,0.407l10.429-0.185l10.429-0.88l10.429-0.648l10.429-0.317l10.429,0.594l10.429,0.462l10.429,0.297l10.429-1.18
				l10.429-1.036l10.429-0.439l10.429-0.212l10.429-0.275l10.429,0.31"/>
			<path display="none" fill="none" stroke="#000000" stroke-opacity="0.15" stroke-dasharray="1" d="M4.384,363.707l10.429-0.954
				l10.429-0.399l10.429-0.111l10.429-0.203l10.429-0.7l10.429-1.388l10.429-1.489l10.429-1.26l10.429,0.938l10.429-1.262
				l10.429,1.043l10.429,0.122l10.429,0.891l10.429-0.477l10.429,0.13"/>
			<path display="none" fill="none" stroke="#000000" stroke-opacity="0.15" stroke-dasharray="1" d="M4.384,364.929l10.429,0.034
				l10.429-1.523l10.429-2.366l10.429-2.682l10.429-2.532l10.429-2.278l10.429-0.751l10.429,0.276l10.429-1.195l10.429-1.315
				l10.429,0.236l10.429-0.952l10.429-1.691l10.429-1.505l10.429-1.392"/>
			<path display="none" fill="none" stroke="#000000" stroke-opacity="0.15" stroke-dasharray="1" d="M4.384,322.386l10.429-2.17
				l10.429-0.6l10.429-1.416L46.1,316.42l10.429-1.736l10.429-2.06l10.429-2.161l10.429-1.618l10.429-0.986l10.429,0.311
				l10.429-2.32l10.429-1.302l10.429-0.386l10.429-1.629l10.429-2.702"/>
			<path display="none" fill="none" stroke="#000000" stroke-opacity="0.15" stroke-dasharray="1" d="M4.384,370.939l10.429-1.056
				l10.429-1.043l10.429-0.556L46.1,367.38l10.429-1.074l10.429-1.233l10.429-0.382l10.429,0.721l10.429,0.247l10.429-0.31
				l10.429-0.166l10.429-0.563l10.429-0.758l10.429,0.4l10.429-0.316"/>
			<path display="none" fill="none" stroke="#000000" stroke-opacity="0.15" stroke-dasharray="1" d="M4.384,333.723l10.429-1
				l10.429-0.884l10.429-1.357l10.429-1.056l10.429-0.97l10.429-0.717l10.429-0.772l10.429,2.06l10.429,0.881l10.429-1.287
				l10.429-1.532l10.429-1.953l10.429-0.832l10.429-2.342l10.429-2.059"/>
			<path display="none" fill="none" stroke="#000000" stroke-opacity="0.15" stroke-dasharray="1" d="M4.384,372.138l10.429-0.887
				l10.429-0.281l10.429,0.191l10.429,0.414l10.429,0.009l10.429,0.128l10.429-0.261l10.429-0.636l10.429-0.769l10.429,1.134
				l10.429,0.366l10.429,0.569l10.429,0.085l10.429-0.101l10.429-0.277"/>
			<path display="none" fill="none" stroke="#000000" stroke-opacity="0.15" stroke-dasharray="1" d="M4.384,377.583l10.429-0.051
				l10.429-0.117l10.429,0.046l10.429,0.253l10.429-0.006l10.429,0.088l10.429-0.031l10.429,0.232l10.429-0.108l10.429-0.106
				l10.429-0.147l10.429,0.019l10.429,0.274l10.429,0.232l10.429,0.031"/>
			<path display="none" fill="none" stroke="#000000" stroke-opacity="0.15" stroke-dasharray="1" d="M4.384,359.22l10.429,1.222
				l10.429-1.647l10.429-0.746l10.429-0.551l10.429,0.201l10.429-1.017l10.429,0.443l10.429-0.571l10.429,0.073l10.429-0.504
				l10.429,0.056l10.429-0.557l10.429-0.504l10.429,0.411l10.429-0.202"/>
			<path display="none" fill="none" stroke="#000000" stroke-opacity="0.15" stroke-dasharray="1" d="M4.384,335.58l10.429-0.038
				l10.429-0.986l10.429-0.53l10.429,0.57l10.429-0.114l10.429-0.123l10.429-0.876l10.429-1.179l10.429-0.42l10.429,0.722
				l10.429,0.745l10.429,0.031l10.429-0.104l10.429-0.616l10.429-0.714"/>
			<path fill="none" stroke="#1B9E77" stroke-width="2" stroke-linecap="round" stroke-linejoin="round" d="M4.384,349.702
				l10.429,0.34l10.429,1.87l10.429,0.826l10.429,0.801l10.429,0.744l10.429-0.375l10.429-0.373l10.429,0.193l10.429,0.101
				l10.429-0.609l10.429-0.441l10.429-0.496l10.429,0.529l10.429-0.541l10.429,0.015"/>
			<path fill="none" stroke="#1B9E77" stroke-width="2" stroke-linecap="round" stroke-linejoin="round" d="M4.384,379.109
				l10.429-0.897l10.429,0.887l10.429-0.178l10.429,0.072l10.429,0.149l10.429-0.317l10.429-0.179l10.429,0.45l10.429-0.092
				l10.429-0.068l10.429-0.429l10.429-0.187l10.429-0.349l10.429,0.331l10.429,0.073"/>
			<path fill="none" stroke="#1B9E77" stroke-width="2" stroke-linecap="round" stroke-linejoin="round" d="M4.384,379.141
				l10.429,0.337l10.429-0.243l10.429-1.128l10.429-0.688l10.429-0.976l10.429-1.018l10.429-0.854l10.429,1.527l10.429-1.682
				l10.429-0.222l10.429-4.156l10.429,0.125l10.429,0.503l10.429,0.76l10.429,1.336"/>
		</g>
	</g>
	<g transform="translate(50,10)">
		<g>
			<rect x="-5.78" y="431.162" fill="#EEDD22" fill-opacity="0.2" width="0" height="92.847"/>
			<rect x="4.393" y="431.162" fill="#EEDD22" fill-opacity="0.2" width="0" height="92.847"/>
			<rect x="66.963" y="431.162" fill="#EEDD22" fill-opacity="0.2" width="20.857" height="92.847"/>
		</g>
		<g>
			<path display="none" fill="none" stroke="#000000" stroke-opacity="0.15" stroke-dasharray="1" d="M4.393,486.424l10.428,0.34
				l10.428,1.87l10.428,0.826l10.428,0.801l10.428,0.744l10.428-0.375l10.428-0.373l10.428,0.193l10.428,0.101l10.428-0.609
				l10.428-0.441l10.428-0.496l10.428,0.529l10.428-0.541l10.428,0.015"/>
			<path display="none" fill="none" stroke="#000000" stroke-opacity="0.15" stroke-dasharray="1" d="M4.393,515.831l10.428-0.897
				l10.428,0.887l10.428-0.178l10.428,0.072l10.428,0.149l10.428-0.317l10.428-0.179l10.428,0.45l10.428-0.092l10.428-0.068
				l10.428-0.429l10.428-0.187l10.428-0.349l10.428,0.331l10.428,0.073"/>
			
			<path display="none" fill="none" stroke="#000000" stroke-opacity="0.15" stroke-dasharray="1" d="M4.393,479.349l10.428,0.085
				l10.428-3.17l10.428-3.47l10.428-5.08l10.428-3.551l10.428-3.208l10.428,4.158l10.428,8.051l10.428,3.33l10.428,0.622
				l10.428-0.609l10.428-1.392l10.428-1.072l10.428-1.972l10.428-0.507"/>
			<path display="none" fill="none" stroke="#000000" stroke-opacity="0.15" stroke-dasharray="1" d="M4.393,504.123l10.428,0.258
				l10.428-0.348l10.428-0.747l10.428-0.39l10.428-0.305l10.428-0.371l10.428,0.224l10.428,0.757l10.428,0.468l10.428-0.098
				l10.428-0.71l10.428-1.069l10.428-1.049l10.428-0.964l10.428-0.223"/>
			<path display="none" fill="none" stroke="#000000" stroke-opacity="0.15" stroke-dasharray="1" d="M4.393,443.6l10.428-0.483
				l10.428,0.196l10.428-1.693l10.428-1.71l10.428-1.327l10.428-3.087l10.428,0.602l10.428,3.549l10.428,2.666l10.428-0.749
				l10.428,0.06l10.428-1.141l10.428-2.113l10.428-1.913l10.428-1.231"/>
			<path display="none" fill="none" stroke="#000000" stroke-opacity="0.15" stroke-dasharray="1" d="M4.393,503.772l10.428,0.226
				l10.428,0.407l10.428-0.185l10.428-0.88l10.428-0.648l10.428-0.317l10.428,0.594l10.428,0.462l10.428,0.297l10.428-1.18
				l10.428-1.036l10.428-0.439l10.428-0.212l10.428-0.275l10.428,0.31"/>
			<path display="none" fill="none" stroke="#000000" stroke-opacity="0.15" stroke-dasharray="1" d="M4.393,500.429l10.428-0.954
				l10.428-0.399l10.428-0.111l10.428-0.203l10.428-0.7l10.428-1.388l10.428-1.489l10.428-1.26l10.428,0.938l10.428-1.262
				l10.428,1.043l10.428,0.122l10.428,0.891l10.428-0.477l10.428,0.13"/>
			<path display="none" fill="none" stroke="#000000" stroke-opacity="0.15" stroke-dasharray="1" d="M4.393,501.651l10.428,0.034
				l10.428-1.523l10.428-2.366l10.428-2.682l10.428-2.532l10.428-2.278l10.428-0.751l10.428,0.276l10.428-1.195l10.428-1.315
				l10.428,0.236l10.428-0.952l10.428-1.691l10.428-1.505l10.428-1.392"/>
			<path display="none" fill="none" stroke="#000000" stroke-opacity="0.15" stroke-dasharray="1" d="M4.393,459.107l10.428-2.17
				l10.428-0.6l10.428-1.416l10.428-1.779l10.428-1.736l10.428-2.06l10.428-2.161l10.428-1.618l10.428-0.986l10.428,0.311
				l10.428-2.32l10.428-1.302l10.428-0.386l10.428-1.629l10.428-2.702"/>
			<path display="none" fill="none" stroke="#000000" stroke-opacity="0.15" stroke-dasharray="1" d="M4.393,507.66l10.428-1.056
				l10.428-1.043l10.428-0.556l10.428-0.903l10.428-1.074l10.428-1.233l10.428-0.382l10.428,0.721l10.428,0.247l10.428-0.31
				l10.428-0.166l10.428-0.563l10.428-0.758l10.428,0.4l10.428-0.316"/>
			<path display="none" fill="none" stroke="#000000" stroke-opacity="0.15" stroke-dasharray="1" d="M4.393,470.445l10.428-1
				l10.428-0.884l10.428-1.357l10.428-1.056l10.428-0.97l10.428-0.717l10.428-0.772l10.428,2.06l10.428,0.881l10.428-1.287
				l10.428-1.532l10.428-1.953l10.428-0.832l10.428-2.342l10.428-2.059"/>
			<path fill="none" stroke="#A6761D" stroke-width="2" stroke-linecap="round" stroke-linejoin="round" d="M4.393,508.859
				l10.428-0.887l10.428-0.281l10.428,0.191l10.428,0.414l10.428,0.009l10.428,0.128l10.428-0.261l10.428-0.636l10.428-0.769
				l10.428,1.134l10.428,0.366l10.428,0.569l10.428,0.085l10.428-0.101l10.428-0.277"/>
			<path fill="none" stroke="#A6761D" stroke-width="2" stroke-linecap="round" stroke-linejoin="round" d="M4.393,514.305
				l10.428-0.051l10.428-0.117l10.428,0.046l10.428,0.253l10.428-0.006l10.428,0.088l10.428-0.031l10.428,0.232l10.428-0.108
				l10.428-0.106l10.428-0.147l10.428,0.019l10.428,0.274l10.428,0.232l10.428,0.031"/>
			<path fill="none" stroke="#A6761D" stroke-width="2" stroke-linecap="round" stroke-linejoin="round" d="M4.393,495.942
				l10.428,1.222l10.428-1.647l10.428-0.746l10.428-0.551l10.428,0.201l10.428-1.017l10.428,0.443l10.428-0.571l10.428,0.073
				l10.428-0.504l10.428,0.056l10.428-0.557l10.428-0.504l10.428,0.411l10.428-0.202"/>
			<path fill="none" stroke="#A6761D" stroke-width="2" stroke-linecap="round" stroke-linejoin="round" d="M4.393,472.302
				l10.428-0.038l10.428-0.987l10.428-0.53l10.428,0.57l10.428-0.114l10.428-0.123l10.428-0.876l10.428-1.179l10.428-0.42
				l10.428,0.722l10.428,0.745l10.428,0.031l10.428-0.104l10.428-0.616l10.428-0.714"/>
		</g>
		<g transform="translate(0,160)">
			<g transform="translate(0.5,0)">
				<line fill="none" stroke="#000000" x1="-5.864" y1="364.008" x2="-5.864" y2="367.49"/>
				<text transform="matrix(1 0 0 1 -15.6392 376.3506)" display="none" font-family="'ArialMT'" font-size="9px">2000</text>
			</g>
			<g transform="translate(56.05555555555556,0)">
				<line fill="none" stroke="#000000" x1="-9.011" y1="364.008" x2="-9.011" y2="367.49"/>
				<text transform="matrix(1 0 0 1 -18.9169 376.3506)" display="none" font-family="'ArialMT'" font-size="9px">2005</text>
			</g>
			<g transform="translate(111.61111111111111,0)">
				<line fill="none" stroke="#000000" x1="-116.708" y1="364.008" x2="-116.708" y2="367.49"/>
			</g>
			<g transform="translate(167.16666666666669,0)">
				<line fill="none" stroke="#000000" x1="-67.98" y1="364.008" x2="-67.98" y2="367.49"/>
				<text transform="matrix(1 0 0 1 -77.4616 376.3506)" display="none" font-family="'ArialMT'" font-size="9px">2010</text>
			</g>
		</g>
		<g>
			<g transform="translate(0,160.5)">
				<line fill="none" stroke="#000000" x1="-5.78" y1="363.799" x2="-10.778" y2="363.799"/>
				<line fill="none" stroke="#000000" stroke-opacity="0.1" x1="-5.78" y1="363.799" x2="160.819" y2="363.799"/>
				<text transform="matrix(1 0 0 1 -17.917 365.6553)" display="none" font-family="'ArialMT'" font-size="9px">0</text>
			</g>
			<g transform="translate(0,120.5)">
				<line fill="none" stroke="#000000" x1="-5.78" y1="380.587" x2="-10.778" y2="380.587"/>
				<line fill="none" stroke="#000000" stroke-opacity="0.1" x1="-5.78" y1="380.587" x2="160.819" y2="380.587"/>
				<text transform="matrix(1 0 0 1 -40.439 382.4434)" display="none" font-family="'ArialMT'" font-size="9px">20,000</text>
			</g>
			<g transform="translate(0,80.5)">
				<line fill="none" stroke="#000000" x1="-5.78" y1="397.375" x2="-10.778" y2="397.375"/>
				<line fill="none" stroke="#000000" stroke-opacity="0.1" x1="-5.78" y1="397.375" x2="160.819" y2="397.375"/>
				<text transform="matrix(1 0 0 1 -40.439 399.2305)" display="none" font-family="'ArialMT'" font-size="9px">40,000</text>
			</g>
			<g transform="translate(0,40.5)">
				<line fill="none" stroke="#000000" x1="-5.78" y1="414.164" x2="-10.778" y2="414.164"/>
				<line fill="none" stroke="#000000" stroke-opacity="0.1" x1="-5.78" y1="414.164" x2="160.819" y2="414.164"/>
				<text transform="matrix(1 0 0 1 -40.439 416.0205)" display="none" font-family="'ArialMT'" font-size="9px">60,000</text>
			</g>
			<g transform="translate(0,0.5)">
				<line fill="none" stroke="#000000" x1="-5.78" y1="430.952" x2="-10.778" y2="430.952"/>
				<line fill="none" stroke="#000000" stroke-opacity="0.1" x1="-5.78" y1="430.952" x2="160.819" y2="430.952"/>
				<g display="none">
					<text transform="matrix(1 0 0 1 -40.439 432.8076)" display="inline" font-family="'ArialMT'" font-size="9px">80,000</text>
					<text transform="matrix(1 0 0 1 -29.4219 443.6074)" display="inline" font-family="'ArialMT'" font-size="9px">jobs</text>
				</g>
			</g>
		</g>
	</g>
	<g transform="translate(167.16666666666669,0)">
		<line fill="none" stroke="#000000" x1="42.402" y1="263.215" x2="42.402" y2="266.697"/>
	</g>
	<g transform="translate(167.16666666666669,0)">
		<line fill="none" stroke="#000000" x1="43.402" y1="397.215" x2="43.402" y2="400.697"/>
	</g>
	<g transform="translate(167.16666666666669,0)">
		<line fill="none" stroke="#000000" x1="43.402" y1="534.008" x2="43.402" y2="537.49"/>
	</g>
	<g>
		<path fill="none" stroke="#000000" stroke-miterlimit="10" d="M94.077,45.368c6.87,3.007,9.041,8.227,9.705,11.703"/>
		<g>
			<polygon points="104.039,60.59 101.555,55.824 103.688,56.812 105.603,55.449 			"/>
		</g>
	</g>
	<g>
		<path fill="none" stroke="#000000" stroke-miterlimit="10" d="M193.5,443.5c19.87,0,17.662,19.526,15.905,27.585"/>
		<g>
			<polygon points="208.522,474.5 207.74,469.183 209.431,470.816 211.686,470.157 			"/>
		</g>
	</g>
	<g transform="translate(50,10)">
		<path fill="none" stroke="#7570B3" stroke-width="2" stroke-linecap="round" stroke-linejoin="round" d="M3,358.799l10.567,1.468
			l10.567,1.368l10.567-0.341l10.567-0.541l10.567-0.754l10.567-0.64l10.567,0.633l10.567,2.564l10.567,1.613l10.567-0.982
			l10.567-1.004l10.567-1.296l10.567-0.442l10.567-0.495l10.567-0.523"/>
	</g>
	<g>
		<path fill="none" stroke="#000000" stroke-miterlimit="10" d="M157,355c21.85,0,22.128,12.67,20.937,18.917"/>
		<g>
			<polygon points="177,377.318 176.297,371.991 177.963,373.649 180.228,373.023 			"/>
		</g>
	</g>
</g>
<style type="text/css">
#g-mt-economy-3a-sector-line-charts-mobile-img rect, #g-mt-economy-3a-sector-line-charts-mobile-img circle, #g-mt-economy-3a-sector-line-charts-mobile-img path, #g-mt-economy-3a-sector-line-charts-mobile-img line, #g-mt-economy-3a-sector-line-charts-mobile-img polyline { vector-effect: non-scaling-stroke; }
</style>
</svg>

