<?xml version="1.0" encoding="utf-8"?>
<!-- Generator: Adobe Illustrator 22.1.0, SVG Export Plug-In . SVG Version: 6.00 Build 0)  -->
<svg version="1.2" baseProfile="tiny" id="g-mt-economy-5-income-components-mobile-img" xmlns="http://www.w3.org/2000/svg" xmlns:xlink="http://www.w3.org/1999/xlink"
	 x="0px" y="0px" viewBox="0 0 300 394" xml:space="preserve">
<g>
	<g transform="translate(50,30)">
		<g>
			<line fill="none" stroke="#666666" stroke-dasharray="2" x1="-24.586" y1="4.954" x2="194.5" y2="5"/>
		</g>
		<g>
			<rect x="-20.68" y="4.954" fill="none" stroke="#444444" width="15.624" height="72.376"/>
			<rect x="-1.15" y="14.212" fill="none" stroke="#444444" width="15.624" height="63.118"/>
			<rect x="18.38" y="21.292" fill="none" stroke="#E5AE89" width="15.624" height="56.037"/>
			<rect x="37.909" y="19.657" fill="none" stroke="#F2DF91" width="15.624" height="57.672"/>
			<rect x="57.439" y="7.568" fill="none" stroke="#86BF86" width="15.624" height="69.762"/>
			<rect x="76.969" y="14.505" fill="none" stroke="#86BF86" width="15.624" height="62.824"/>
			<rect x="96.498" y="13.582" fill="none" stroke="#86BF86" width="15.624" height="63.748"/>
			<rect x="116.028" y="6.845" fill="none" stroke="#86BF86" width="15.624" height="70.484"/>
			<rect x="135.557" y="15.159" fill="none" stroke="#86BF86" width="15.624" height="62.17"/>
			<rect x="155.087" y="11.587" fill="none" stroke="#86BF86" width="15.624" height="65.742"/>
			<rect x="174.617" y="11.962" fill="none" stroke="#86BF86" width="15.624" height="65.367"/>
		</g>
		<g>
			<rect x="-20.68" y="40.58" fill="#444444" stroke="#444444" width="15.624" height="36.749"/>
			<rect x="-1.15" y="49.341" fill="#444444" stroke="#444444" width="15.624" height="27.988"/>
			<rect x="18.38" y="60.236" fill="#E5AE89" stroke="#E5AE89" width="15.624" height="17.094"/>
			<rect x="37.909" y="54.242" fill="#F2DF91" stroke="#F2DF91" width="15.624" height="23.087"/>
			<rect x="57.439" y="40.906" fill="#86BF86" stroke="#86BF86" width="15.624" height="36.423"/>
			<rect x="76.969" y="49.944" fill="#86BF86" stroke="#86BF86" width="15.624" height="27.385"/>
			<rect x="96.498" y="47.429" fill="#86BF86" stroke="#86BF86" width="15.624" height="29.9"/>
			<rect x="116.028" y="43.663" fill="#86BF86" stroke="#86BF86" width="15.624" height="33.666"/>
			<rect x="135.557" y="50.594" fill="#86BF86" stroke="#86BF86" width="15.624" height="26.736"/>
			<rect x="155.087" y="41.01" fill="#86BF86" stroke="#86BF86" width="15.624" height="36.319"/>
			<rect x="174.617" y="50.297" fill="#86BF86" stroke="#86BF86" width="15.624" height="27.032"/>
		</g>
		<g display="none">
			<rect x="-16.192" y="11.117" display="inline" fill="#444444" stroke="#444444" width="18.366" height="9.727"/>
			<rect x="6.766" y="16.678" display="inline" fill="#444444" stroke="#444444" width="18.366" height="10.25"/>
			<rect x="29.724" y="24.545" display="inline" fill="#E5AE89" stroke="#E5AE89" width="18.366" height="9.947"/>
			<rect x="52.682" y="20.865" display="inline" fill="#F2DF91" stroke="#F2DF91" width="18.366" height="9.466"/>
			<rect x="75.64" y="12.259" display="inline" fill="#86BF86" stroke="#86BF86" width="18.366" height="8.812"/>
			<rect x="98.598" y="15.221" display="inline" fill="#86BF86" stroke="#86BF86" width="18.366" height="12.126"/>
			<rect x="121.556" y="15.867" display="inline" fill="#86BF86" stroke="#86BF86" width="18.366" height="9.733"/>
			<rect x="144.514" y="10.348" display="inline" fill="#86BF86" stroke="#86BF86" width="18.366" height="12.637"/>
			<rect x="167.472" y="17.218" display="inline" fill="#86BF86" stroke="#86BF86" width="18.366" height="10.579"/>
			<rect x="190.43" y="11.416" display="inline" fill="#86BF86" stroke="#86BF86" width="18.366" height="9.726"/>
			<rect x="213.388" y="19.073" display="inline" fill="#86BF86" stroke="#86BF86" width="18.366" height="8.519"/>
		</g>
		<g display="none">
			<rect x="-16.192" y="2.374" display="inline" fill="#444444" stroke="#444444" width="18.366" height="8.743"/>
			<rect x="6.766" y="8.198" display="inline" fill="#444444" stroke="#444444" width="18.366" height="8.479"/>
			<rect x="29.724" y="14.265" display="inline" fill="#E5AE89" stroke="#E5AE89" width="18.366" height="10.281"/>
			<rect x="52.682" y="11.999" display="inline" fill="#F2DF91" stroke="#F2DF91" width="18.366" height="8.867"/>
			<rect x="75.64" y="4.295" display="inline" fill="#86BF86" stroke="#86BF86" width="18.366" height="7.964"/>
			<rect x="98.598" y="6.967" display="inline" fill="#86BF86" stroke="#86BF86" width="18.366" height="8.254"/>
			<rect x="121.556" y="6.514" display="inline" fill="#86BF86" stroke="#86BF86" width="18.366" height="9.353"/>
			<rect x="144.514" y="5.135" display="inline" fill="#86BF86" stroke="#86BF86" width="18.366" height="5.212"/>
			<rect x="167.472" y="8.571" display="inline" fill="#86BF86" stroke="#86BF86" width="18.366" height="8.647"/>
			<rect x="190.43" y="3.031" display="inline" fill="#86BF86" stroke="#86BF86" width="18.366" height="8.386"/>
			<rect x="213.388" y="9.029" display="inline" fill="#86BF86" stroke="#86BF86" width="18.366" height="10.044"/>
		</g>
		<g transform="translate(0,140)">
			<path fill="none" stroke="#000000" d="M-24.367-58.892v-3.464h218.732v3.464"/>
			<g transform="translate(26.785714285714302,0)">
				<line fill="none" stroke="#000000" x1="-39.653" y1="-62.671" x2="-39.653" y2="-58.892"/>
				<text transform="matrix(1 0 0 1 -45.6236 -52.5273)" display="none" font-family="'ArialMT'" font-size="8px">US</text>
			</g>
			<g transform="translate(71.42857142857144,0)">
				<line fill="none" stroke="#000000" x1="-64.767" y1="-62.671" x2="-64.767" y2="-58.892"/>
				<g display="none">
					<text transform="matrix(1 0 0 1 -70.871 -52.5273)" display="inline" font-family="'ArialMT'" font-size="8px">M</text>
					<text transform="matrix(1 0 0 1 -64.2069 -52.5273)" display="inline" font-family="'ArialMT'" font-size="8px">T</text>
				</g>
			</g>
			<g transform="translate(116.07142857142858,0)">
				<line fill="none" stroke="#000000" x1="-89.88" y1="-62.671" x2="-89.88" y2="-58.892"/>
				<text transform="matrix(1 0 0 1 -97.8244 -52.5273)" display="none" font-family="'ArialMT'" font-size="8px">Mts.</text>
			</g>
			<g transform="translate(160.71428571428572,0)">
				<line fill="none" stroke="#000000" x1="-114.993" y1="-62.671" x2="-114.993" y2="-58.892"/>
				<text transform="matrix(1 0 0 1 -124.2636 -52.5273)" display="none" font-family="'ArialMT'" font-size="8px">Plns.</text>
			</g>
			<g transform="translate(205.35714285714286,0)">
				<line fill="none" stroke="#000000" x1="-140.106" y1="-62.671" x2="-140.106" y2="-58.892"/>
				<text transform="matrix(1 0 0 1 -146.029 -52.5273)" display="none" font-family="'ArialMT'" font-size="8px">Bil.</text>
			</g>
			<g transform="translate(250,0)">
				<line fill="none" stroke="#000000" x1="-165.22" y1="-62.671" x2="-165.22" y2="-58.892"/>
				<text transform="matrix(1 0 0 1 -172.9058 -52.5273)" display="none" font-family="'ArialMT'" font-size="8px">Mis.</text>
			</g>
			<g transform="translate(294.6428571428571,0)">
				<line fill="none" stroke="#000000" x1="-190.333" y1="-62.671" x2="-190.333" y2="-58.892"/>
				<text transform="matrix(1 0 0 1 -196.2303 -52.5273)" display="none" font-family="'ArialMT'" font-size="8px">GF</text>
			</g>
			<g transform="translate(339.2857142857143,0)">
				<line fill="none" stroke="#000000" x1="-215.446" y1="-62.671" x2="-215.446" y2="-58.892"/>
				<text transform="matrix(1 0 0 1 -223.7803 -52.5273)" display="none" font-family="'ArialMT'" font-size="8px">Boz.</text>
			</g>
			<g transform="translate(383.9285714285714,0)">
				<line fill="none" stroke="#000000" x1="-240.559" y1="-62.671" x2="-240.559" y2="-58.892"/>
				<text transform="matrix(1 0 0 1 -247.7713 -52.5273)" display="none" font-family="'ArialMT'" font-size="8px">Kal.</text>
			</g>
			<g transform="translate(428.5714285714285,0)">
				<line fill="none" stroke="#000000" x1="-265.672" y1="-62.671" x2="-265.672" y2="-58.892"/>
				<text transform="matrix(1 0 0 1 -273.0919 -52.5273)" display="none" font-family="'ArialMT'" font-size="8px">Hel.</text>
			</g>
			<g transform="translate(473.21428571428567,0)">
				<line fill="none" stroke="#000000" x1="-290.786" y1="-62.671" x2="-290.786" y2="-58.892"/>
				<text transform="matrix(1 0 0 1 -300.4203 -52.5273)" display="none" font-family="'ArialMT'" font-size="8px">Butte</text>
				<text transform="matrix(1 0 0 1 -492.0522 80.4727)" display="none" font-family="'ArialMT'" font-size="8px">US</text>
				<g display="none">
					<text transform="matrix(1 0 0 1 -472.6567 80.4727)" display="inline" font-family="'ArialMT'" font-size="8px">M</text>
					<text transform="matrix(1 0 0 1 -465.9926 80.4727)" display="inline" font-family="'ArialMT'" font-size="8px">T</text>
				</g>
				<text transform="matrix(1 0 0 1 -454.9672 80.4727)" display="none" font-family="'ArialMT'" font-size="8px">Mts.</text>
				<text transform="matrix(1 0 0 1 -436.7636 80.4727)" display="none" font-family="'ArialMT'" font-size="8px">Plns.</text>
				<text transform="matrix(1 0 0 1 -413.8862 80.4727)" display="none" font-family="'ArialMT'" font-size="8px">Bil.</text>
				<text transform="matrix(1 0 0 1 -396.1201 80.4727)" display="none" font-family="'ArialMT'" font-size="8px">Mis.</text>
				<text transform="matrix(1 0 0 1 -374.8017 80.4727)" display="none" font-family="'ArialMT'" font-size="8px">GF</text>
				<text transform="matrix(1 0 0 1 -357.7089 80.4727)" display="none" font-family="'ArialMT'" font-size="8px">Boz.</text>
				<text transform="matrix(1 0 0 1 -337.0571 80.4727)" display="none" font-family="'ArialMT'" font-size="8px">Kal.</text>
				<text transform="matrix(1 0 0 1 -317.7348 80.4727)" display="none" font-family="'ArialMT'" font-size="8px">Hel.</text>
				<text transform="matrix(1 0 0 1 -300.4203 80.4727)" display="none" font-family="'ArialMT'" font-size="8px">Butte</text>
				<text transform="matrix(1 0 0 1 -492.0522 209.4727)" display="none" font-family="'ArialMT'" font-size="8px">US</text>
				<g display="none">
					<text transform="matrix(1 0 0 1 -472.6567 209.4727)" display="inline" font-family="'ArialMT'" font-size="8px">M</text>
					<text transform="matrix(1 0 0 1 -465.9926 209.4727)" display="inline" font-family="'ArialMT'" font-size="8px">T</text>
				</g>
				<text transform="matrix(1 0 0 1 -454.9672 209.4727)" display="none" font-family="'ArialMT'" font-size="8px">Mts.</text>
				<text transform="matrix(1 0 0 1 -436.7636 209.4727)" display="none" font-family="'ArialMT'" font-size="8px">Plns.</text>
				<text transform="matrix(1 0 0 1 -413.8862 209.4727)" display="none" font-family="'ArialMT'" font-size="8px">Bil.</text>
				<text transform="matrix(1 0 0 1 -396.1201 209.4727)" display="none" font-family="'ArialMT'" font-size="8px">Mis.</text>
				<text transform="matrix(1 0 0 1 -374.8017 209.4727)" display="none" font-family="'ArialMT'" font-size="8px">GF</text>
				<text transform="matrix(1 0 0 1 -357.7089 209.4727)" display="none" font-family="'ArialMT'" font-size="8px">Boz.</text>
				<text transform="matrix(1 0 0 1 -337.0571 209.4727)" display="none" font-family="'ArialMT'" font-size="8px">Kal.</text>
				<text transform="matrix(1 0 0 1 -317.7348 209.4727)" display="none" font-family="'ArialMT'" font-size="8px">Hel.</text>
				<text transform="matrix(1 0 0 1 -300.4203 209.4727)" display="none" font-family="'ArialMT'" font-size="8px">Butte</text>
			</g>
		</g>
		<g>
			<path fill="none" stroke="#000000" d="M-24.367,77.644v-88.18"/>
			<g transform="translate(0,140.5)">
				<line fill="none" stroke="#000000" x1="-24.586" y1="-62.856" x2="-27.21" y2="-62.856"/>
				<text transform="matrix(1 0 0 1 -37.9897 -60.8398)" display="none" font-family="'ArialMT'" font-size="8.07px">$0</text>
			</g>
			<g transform="translate(0,117.16666666666667)">
				<line fill="none" stroke="#000000" x1="-24.586" y1="-54.219" x2="-27.21" y2="-54.219"/>
				<text transform="matrix(1 0 0 1 -47.8608 -52.2038)" display="none" font-family="'ArialMT'" font-size="8.07px">$10K</text>
			</g>
			<g transform="translate(0,93.83333333333334)">
				<line fill="none" stroke="#000000" x1="-24.586" y1="-45.583" x2="-27.21" y2="-45.583"/>
				<text transform="matrix(1 0 0 1 -47.8608 -43.5658)" display="none" font-family="'ArialMT'" font-size="8.07px">$20K</text>
			</g>
			<g transform="translate(0,70.5)">
				<line fill="none" stroke="#000000" x1="-24.586" y1="-36.946" x2="-27.21" y2="-36.946"/>
				<text transform="matrix(1 0 0 1 -47.8608 -34.9297)" display="none" font-family="'ArialMT'" font-size="8.07px">$30K</text>
			</g>
			<g transform="translate(0,47.16666666666667)">
				<line fill="none" stroke="#000000" x1="-24.586" y1="-28.309" x2="-27.21" y2="-28.309"/>
				<text transform="matrix(1 0 0 1 -47.8608 -26.2936)" display="none" font-family="'ArialMT'" font-size="8.07px">$40K</text>
			</g>
			<g transform="translate(0,23.83333333333333)">
				<line fill="none" stroke="#000000" x1="-24.586" y1="-19.673" x2="-27.21" y2="-19.673"/>
				<text transform="matrix(1 0 0 1 -47.8608 -17.6556)" display="none" font-family="'ArialMT'" font-size="8.07px">$50K</text>
			</g>
			<g transform="translate(0,0.5)">
				<line fill="none" stroke="#000000" x1="-24.586" y1="-11.036" x2="-27.21" y2="-11.036"/>
				<text transform="matrix(1 0 0 1 -47.8608 -9.0195)" display="none" font-family="'ArialMT'" font-size="8.07px">$60K</text>
			</g>
		</g>
	</g>
	<g>
		<g>
			<rect x="29.32" y="293.628" fill="none" stroke="#444444" width="15.624" height="72.376"/>
			<rect x="48.85" y="302.886" fill="none" stroke="#444444" width="15.624" height="63.118"/>
			<rect x="68.38" y="309.967" fill="none" stroke="#E5AE89" width="15.624" height="56.037"/>
			<rect x="87.909" y="308.332" fill="none" stroke="#F2DF91" width="15.624" height="57.672"/>
			<rect x="107.439" y="296.242" fill="none" stroke="#86BF86" width="15.624" height="69.762"/>
			<rect x="126.969" y="303.18" fill="none" stroke="#86BF86" width="15.624" height="62.824"/>
			<rect x="146.498" y="302.256" fill="none" stroke="#86BF86" width="15.624" height="63.748"/>
			<rect x="166.028" y="295.52" fill="none" stroke="#86BF86" width="15.624" height="70.484"/>
			<rect x="185.557" y="303.834" fill="none" stroke="#86BF86" width="15.624" height="62.17"/>
			<rect x="205.087" y="300.261" fill="none" stroke="#86BF86" width="15.624" height="65.742"/>
			<rect x="224.617" y="300.637" fill="none" stroke="#86BF86" width="15.624" height="65.367"/>
		</g>
		<g>
			<rect x="29.32" y="329.255" fill="none" stroke="#444444" width="15.624" height="36.749"/>
			<rect x="48.85" y="338.015" fill="none" stroke="#444444" width="15.624" height="27.988"/>
			<rect x="68.38" y="348.91" fill="none" stroke="#E5AE89" width="15.624" height="17.094"/>
			<rect x="87.909" y="342.917" fill="none" stroke="#F2DF91" width="15.624" height="23.087"/>
			<rect x="107.439" y="329.581" fill="none" stroke="#86BF86" width="15.624" height="36.423"/>
			<rect x="126.969" y="338.618" fill="none" stroke="#86BF86" width="15.624" height="27.385"/>
			<rect x="146.498" y="336.103" fill="none" stroke="#86BF86" width="15.624" height="29.9"/>
			<rect x="166.028" y="332.337" fill="none" stroke="#86BF86" width="15.624" height="33.666"/>
			<rect x="185.557" y="339.268" fill="none" stroke="#86BF86" width="15.624" height="26.736"/>
			<rect x="205.087" y="329.685" fill="none" stroke="#86BF86" width="15.624" height="36.319"/>
			<rect x="224.617" y="338.972" fill="none" stroke="#86BF86" width="15.624" height="27.032"/>
		</g>
		<g>
			<rect x="29.32" y="302.656" fill="#444444" stroke="#444444" width="15.624" height="12.591"/>
			<rect x="48.85" y="311.044" fill="#444444" stroke="#444444" width="15.624" height="12.211"/>
			<rect x="68.38" y="319.78" fill="#E5AE89" stroke="#E5AE89" width="15.624" height="14.805"/>
			<rect x="87.909" y="316.516" fill="#F2DF91" stroke="#F2DF91" width="15.624" height="12.769"/>
			<rect x="107.439" y="305.422" fill="#86BF86" stroke="#86BF86" width="15.624" height="11.469"/>
			<rect x="126.969" y="309.27" fill="#86BF86" stroke="#86BF86" width="15.624" height="11.887"/>
			<rect x="146.498" y="308.618" fill="#86BF86" stroke="#86BF86" width="15.624" height="13.469"/>
			<rect x="166.028" y="306.633" fill="#86BF86" stroke="#86BF86" width="15.624" height="7.506"/>
			<rect x="185.557" y="311.58" fill="#86BF86" stroke="#86BF86" width="15.624" height="12.452"/>
			<rect x="205.087" y="303.602" fill="#86BF86" stroke="#86BF86" width="15.624" height="12.076"/>
			<rect x="224.617" y="312.239" fill="#86BF86" stroke="#86BF86" width="15.624" height="14.465"/>
		</g>
		<g transform="translate(0,140)">
			<path fill="none" stroke="#000000" d="M25.633,229.783v-3.464h218.732v3.464"/>
			<g transform="translate(26.785714285714302,0)">
				<line fill="none" stroke="#000000" x1="10.347" y1="226.004" x2="10.347" y2="229.783"/>
			</g>
			<g transform="translate(71.42857142857144,0)">
				<line fill="none" stroke="#000000" x1="-14.767" y1="226.004" x2="-14.767" y2="229.783"/>
			</g>
			<g transform="translate(116.07142857142858,0)">
				<line fill="none" stroke="#000000" x1="-39.88" y1="226.004" x2="-39.88" y2="229.783"/>
			</g>
			<g transform="translate(160.71428571428572,0)">
				<line fill="none" stroke="#000000" x1="-64.993" y1="226.004" x2="-64.993" y2="229.783"/>
			</g>
			<g transform="translate(205.35714285714286,0)">
				<line fill="none" stroke="#000000" x1="-90.106" y1="226.004" x2="-90.106" y2="229.783"/>
			</g>
			<g transform="translate(250,0)">
				<line fill="none" stroke="#000000" x1="-115.22" y1="226.004" x2="-115.22" y2="229.783"/>
			</g>
			<g transform="translate(294.6428571428571,0)">
				<line fill="none" stroke="#000000" x1="-140.333" y1="226.004" x2="-140.333" y2="229.783"/>
			</g>
			<g transform="translate(339.2857142857143,0)">
				<line fill="none" stroke="#000000" x1="-165.446" y1="226.004" x2="-165.446" y2="229.783"/>
			</g>
			<g transform="translate(383.9285714285714,0)">
				<line fill="none" stroke="#000000" x1="-190.559" y1="226.004" x2="-190.559" y2="229.783"/>
			</g>
			<g transform="translate(428.5714285714285,0)">
				<line fill="none" stroke="#000000" x1="-215.672" y1="226.004" x2="-215.672" y2="229.783"/>
			</g>
			<g transform="translate(473.21428571428567,0)">
				<line fill="none" stroke="#000000" x1="-240.786" y1="226.004" x2="-240.786" y2="229.783"/>
			</g>
		</g>
		<g>
			<path fill="none" stroke="#000000" d="M25.633,366.319v-88.18"/>
			<g transform="translate(0,140.5)">
				<line fill="none" stroke="#000000" x1="25.414" y1="225.819" x2="22.79" y2="225.819"/>
				<text transform="matrix(1 0 0 1 12.0103 227.8359)" display="none" font-family="'ArialMT'" font-size="8.07px">$0</text>
			</g>
			<g transform="translate(0,117.16666666666667)">
				<line fill="none" stroke="#000000" x1="25.414" y1="234.455" x2="22.79" y2="234.455"/>
				<text transform="matrix(1 0 0 1 2.1392 236.472)" display="none" font-family="'ArialMT'" font-size="8.07px">$10K</text>
			</g>
			<g transform="translate(0,93.83333333333334)">
				<line fill="none" stroke="#000000" x1="25.414" y1="243.092" x2="22.79" y2="243.092"/>
				<text transform="matrix(1 0 0 1 2.1392 245.11)" display="none" font-family="'ArialMT'" font-size="8.07px">$20K</text>
			</g>
			<g transform="translate(0,70.5)">
				<line fill="none" stroke="#000000" x1="25.414" y1="251.729" x2="22.79" y2="251.729"/>
				<text transform="matrix(1 0 0 1 2.1392 253.7441)" display="none" font-family="'ArialMT'" font-size="8.07px">$30K</text>
			</g>
			<g transform="translate(0,47.16666666666667)">
				<line fill="none" stroke="#000000" x1="25.414" y1="260.365" x2="22.79" y2="260.365"/>
				<text transform="matrix(1 0 0 1 2.1392 262.3802)" display="none" font-family="'ArialMT'" font-size="8.07px">$40K</text>
			</g>
			<g transform="translate(0,23.83333333333333)">
				<line fill="none" stroke="#000000" x1="25.414" y1="269.002" x2="22.79" y2="269.002"/>
				<text transform="matrix(1 0 0 1 2.1392 271.0182)" display="none" font-family="'ArialMT'" font-size="8.07px">$50K</text>
			</g>
			<g transform="translate(0,0.5)">
				<line fill="none" stroke="#000000" x1="25.414" y1="277.638" x2="22.79" y2="277.638"/>
				<text transform="matrix(1 0 0 1 2.1392 279.6543)" display="none" font-family="'ArialMT'" font-size="8.07px">$60K</text>
			</g>
		</g>
	</g>
	<g>
		<g>
			<rect x="29.32" y="165.313" fill="none" stroke="#444444" width="15.624" height="72.376"/>
			<rect x="48.85" y="174.571" fill="none" stroke="#444444" width="15.624" height="63.118"/>
			<rect x="68.38" y="181.652" fill="none" stroke="#E5AE89" width="15.624" height="56.037"/>
			<rect x="87.909" y="180.017" fill="none" stroke="#F2DF91" width="15.624" height="57.672"/>
			<rect x="107.439" y="167.927" fill="none" stroke="#86BF86" width="15.624" height="69.762"/>
			<rect x="126.969" y="174.865" fill="none" stroke="#86BF86" width="15.624" height="62.824"/>
			<rect x="146.498" y="173.941" fill="none" stroke="#86BF86" width="15.624" height="63.748"/>
			<rect x="166.028" y="167.205" fill="none" stroke="#86BF86" width="15.624" height="70.484"/>
			<rect x="185.557" y="175.519" fill="none" stroke="#86BF86" width="15.624" height="62.17"/>
			<rect x="205.087" y="171.947" fill="none" stroke="#86BF86" width="15.624" height="65.742"/>
			<rect x="224.617" y="172.322" fill="none" stroke="#86BF86" width="15.624" height="65.367"/>
		</g>
		<g>
			<rect x="29.32" y="186.932" fill="#444444" stroke="#444444" width="15.624" height="14.008"/>
			<rect x="48.85" y="194.94" fill="#444444" stroke="#444444" width="15.624" height="14.761"/>
			<rect x="68.38" y="206.27" fill="#E5AE89" stroke="#E5AE89" width="15.624" height="14.325"/>
			<rect x="87.909" y="200.97" fill="#F2DF91" stroke="#F2DF91" width="15.624" height="13.632"/>
			<rect x="107.439" y="188.576" fill="#86BF86" stroke="#86BF86" width="15.624" height="12.69"/>
			<rect x="126.969" y="192.841" fill="#86BF86" stroke="#86BF86" width="15.624" height="17.462"/>
			<rect x="146.498" y="193.772" fill="#86BF86" stroke="#86BF86" width="15.624" height="14.016"/>
			<rect x="166.028" y="185.824" fill="#86BF86" stroke="#86BF86" width="15.624" height="18.198"/>
			<rect x="185.557" y="195.718" fill="#86BF86" stroke="#86BF86" width="15.624" height="15.235"/>
			<rect x="205.087" y="187.363" fill="#86BF86" stroke="#86BF86" width="15.624" height="14.007"/>
			<rect x="224.617" y="198.389" fill="#86BF86" stroke="#86BF86" width="15.624" height="12.268"/>
		</g>
		<g transform="translate(0,140)">
			<path fill="none" stroke="#000000" d="M25.633,101.468v-3.464h218.732v3.464"/>
			<g transform="translate(26.785714285714302,0)">
				<line fill="none" stroke="#000000" x1="10.347" y1="97.689" x2="10.347" y2="101.468"/>
			</g>
			<g transform="translate(71.42857142857144,0)">
				<line fill="none" stroke="#000000" x1="-14.767" y1="97.689" x2="-14.767" y2="101.468"/>
			</g>
			<g transform="translate(116.07142857142858,0)">
				<line fill="none" stroke="#000000" x1="-39.88" y1="97.689" x2="-39.88" y2="101.468"/>
			</g>
			<g transform="translate(160.71428571428572,0)">
				<line fill="none" stroke="#000000" x1="-64.993" y1="97.689" x2="-64.993" y2="101.468"/>
			</g>
			<g transform="translate(205.35714285714286,0)">
				<line fill="none" stroke="#000000" x1="-90.106" y1="97.689" x2="-90.106" y2="101.468"/>
			</g>
			<g transform="translate(250,0)">
				<line fill="none" stroke="#000000" x1="-115.22" y1="97.689" x2="-115.22" y2="101.468"/>
			</g>
			<g transform="translate(294.6428571428571,0)">
				<line fill="none" stroke="#000000" x1="-140.333" y1="97.689" x2="-140.333" y2="101.468"/>
			</g>
			<g transform="translate(339.2857142857143,0)">
				<line fill="none" stroke="#000000" x1="-165.446" y1="97.689" x2="-165.446" y2="101.468"/>
			</g>
			<g transform="translate(383.9285714285714,0)">
				<line fill="none" stroke="#000000" x1="-190.559" y1="97.689" x2="-190.559" y2="101.468"/>
			</g>
			<g transform="translate(428.5714285714285,0)">
				<line fill="none" stroke="#000000" x1="-215.672" y1="97.689" x2="-215.672" y2="101.468"/>
			</g>
			<g transform="translate(473.21428571428567,0)">
				<line fill="none" stroke="#000000" x1="-240.786" y1="97.689" x2="-240.786" y2="101.468"/>
			</g>
		</g>
		<g>
			<path fill="none" stroke="#000000" d="M25.633,238.004v-88.18"/>
			<g transform="translate(0,140.5)">
				<line fill="none" stroke="#000000" x1="25.414" y1="97.504" x2="22.79" y2="97.504"/>
				<text transform="matrix(1 0 0 1 12.0103 99.5176)" display="none" font-family="'ArialMT'" font-size="8.07px">$0</text>
			</g>
			<g transform="translate(0,117.16666666666667)">
				<line fill="none" stroke="#000000" x1="25.414" y1="106.14" x2="22.79" y2="106.14"/>
				<text transform="matrix(1 0 0 1 2.1392 108.1556)" display="none" font-family="'ArialMT'" font-size="8.07px">$10K</text>
			</g>
			<g transform="translate(0,93.83333333333334)">
				<line fill="none" stroke="#000000" x1="25.414" y1="114.777" x2="22.79" y2="114.777"/>
				<text transform="matrix(1 0 0 1 2.1392 116.7917)" display="none" font-family="'ArialMT'" font-size="8.07px">$20K</text>
			</g>
			<g transform="translate(0,70.5)">
				<line fill="none" stroke="#000000" x1="25.414" y1="123.414" x2="22.79" y2="123.414"/>
				<text transform="matrix(1 0 0 1 2.1392 125.4316)" display="none" font-family="'ArialMT'" font-size="8.07px">$30K</text>
			</g>
			<g transform="translate(0,47.16666666666667)">
				<line fill="none" stroke="#000000" x1="25.414" y1="132.05" x2="22.79" y2="132.05"/>
				<text transform="matrix(1 0 0 1 2.1392 134.0658)" display="none" font-family="'ArialMT'" font-size="8.07px">$40K</text>
			</g>
			<g transform="translate(0,23.83333333333333)">
				<line fill="none" stroke="#000000" x1="25.414" y1="140.687" x2="22.79" y2="140.687"/>
				<text transform="matrix(1 0 0 1 2.1392 142.7038)" display="none" font-family="'ArialMT'" font-size="8.07px">$50K</text>
			</g>
			<g transform="translate(0,0.5)">
				<line fill="none" stroke="#000000" x1="25.414" y1="149.324" x2="22.79" y2="149.324"/>
				<text transform="matrix(1 0 0 1 2.1392 151.3398)" display="none" font-family="'ArialMT'" font-size="8.07px">$60K</text>
			</g>
		</g>
	</g>
	<g>
		<line fill="none" stroke="#000000" stroke-miterlimit="10" x1="245.318" y1="42.379" x2="244.558" y2="42.379"/>
		<g>
			<polygon points="241.028,42.379 246.003,40.347 244.822,42.379 246.003,44.412 			"/>
		</g>
	</g>
	<g>
		<line fill="none" stroke="#000000" stroke-miterlimit="10" x1="245.318" y1="84.08" x2="244.558" y2="84.08"/>
		<g>
			<polygon points="241.028,84.08 246.003,82.047 244.822,84.08 246.003,86.112 			"/>
		</g>
	</g>
	<g>
		<line fill="none" stroke="#000000" stroke-miterlimit="10" x1="245.318" y1="203.516" x2="244.558" y2="203.516"/>
		<g>
			<polygon points="241.028,203.516 246.003,201.483 244.822,203.516 246.003,205.548 			"/>
		</g>
	</g>
	<g>
		<line fill="none" stroke="#000000" stroke-miterlimit="10" x1="252" y1="320.531" x2="244.558" y2="320.531"/>
		<g>
			<polygon points="241.028,320.531 246.003,318.498 244.822,320.531 246.003,322.563 			"/>
		</g>
	</g>
	<g>
		<path fill="none" stroke="#000000" stroke-miterlimit="10" d="M246.034,337.477c-2.609-2.208,7.835-29.908-2.273-31.539"/>
		<g>
			<polygon points="240.24,306.238 245.109,303.963 244.03,306.051 245.309,308.023 			"/>
		</g>
	</g>
</g>
<style type="text/css">
#g-mt-economy-5-income-components-mobile-img rect, #g-mt-economy-5-income-components-mobile-img circle, #g-mt-economy-5-income-components-mobile-img path, #g-mt-economy-5-income-components-mobile-img line, #g-mt-economy-5-income-components-mobile-img polyline { vector-effect: non-scaling-stroke; }
</style>
</svg>

