<?xml version="1.0" encoding="utf-8"?>
<!-- Generator: Adobe Illustrator 22.1.0, SVG Export Plug-In . SVG Version: 6.00 Build 0)  -->
<svg version="1.2" baseProfile="tiny" id="g-mt-economy-5-income-components-mobile-img" xmlns="http://www.w3.org/2000/svg" xmlns:xlink="http://www.w3.org/1999/xlink"
	 x="0px" y="0px" viewBox="0 0 300 565" xml:space="preserve">
<g>
	<g transform="translate(10,20)">
		<g transform="translate(35,30)">
			<g transform="translate(0,-3)">
				<g display="none">
					<text transform="matrix(1 0 0 1 -34.0527 159.5)" display="inline" font-family="'Arial-ItalicMT'" font-size="12px">T</text>
					<text transform="matrix(1 0 0 1 -27.8242 159.5)" display="inline" font-family="'Arial-ItalicMT'" font-size="12px">o</text>
					<text transform="matrix(1 0 0 1 -21.1504 159.5)" display="inline" font-family="'Arial-ItalicMT'" font-size="12px">t</text>
					<text transform="matrix(1 0 0 1 -17.8164 159.5)" display="inline" font-family="'Arial-ItalicMT'" font-size="12px">a</text>
					<text transform="matrix(1 0 0 1 -11.1426 159.5)" display="inline" font-family="'Arial-ItalicMT'" font-size="12px">l</text>
					<text transform="matrix(1 0 0 1 -8.4766 159.5)" display="inline" font-family="'Arial-ItalicMT'" font-size="12px"> </text>
					<text transform="matrix(1 0 0 1 -5.1426 159.5)" display="inline" font-family="'Arial-ItalicMT'" font-size="12px">i</text>
					<text transform="matrix(1 0 0 1 -2.4766 159.5)" display="inline" font-family="'Arial-ItalicMT'" font-size="12px">n</text>
					<text transform="matrix(1 0 0 1 4.1973 159.5)" display="inline" font-family="'Arial-ItalicMT'" font-size="12px">c</text>
					<text transform="matrix(1 0 0 1 10.1973 159.5)" display="inline" font-family="'Arial-ItalicMT'" font-size="12px">o</text>
					<text transform="matrix(1 0 0 1 16.8711 159.5)" display="inline" font-family="'Arial-ItalicMT'" font-size="12px">m</text>
					<text transform="matrix(1 0 0 1 26.8672 159.5)" display="inline" font-family="'Arial-ItalicMT'" font-size="12px">e</text>
				</g>
			</g>
			<g transform="translate(0,130)">
				<g transform="translate(0.5,0)">
					<line fill="none" stroke="#000000" x1="-0.053" y1="167.5" x2="-0.053" y2="173.5"/>
					<text transform="matrix(1 0 0 1 -11.1758 183.6)" display="none" font-family="'ArialMT'" font-size="10px">2001</text>
				</g>
				<g transform="translate(45.5,0)">
					<line fill="none" stroke="#000000" x1="-0.053" y1="167.5" x2="-0.053" y2="173.5"/>
					<text transform="matrix(1 0 0 1 -11.1758 183.6)" display="none" font-family="'ArialMT'" font-size="10px">2016</text>
				</g>
			</g>
			<g>
				<g transform="translate(0,130.5)">
					<line fill="none" stroke="#000000" x1="-0.053" y1="167.5" x2="-6.053" y2="167.5"/>
					<line fill="none" stroke="#000000" stroke-opacity="0.2" x1="-0.053" y1="167.5" x2="44.947" y2="167.5"/>
					<text transform="matrix(1 0 0 1 -30.082 169.7)" display="none" font-family="'ArialMT'" font-size="10px">40%</text>
				</g>
				<g transform="translate(0,104.5)">
					<line fill="none" stroke="#000000" x1="-0.053" y1="167.5" x2="-6.053" y2="167.5"/>
					<line fill="none" stroke="#000000" stroke-opacity="0.2" x1="-0.053" y1="167.5" x2="44.947" y2="167.5"/>
					<text transform="matrix(1 0 0 1 -30.082 169.7)" display="none" font-family="'ArialMT'" font-size="10px">60%</text>
				</g>
				<g transform="translate(0,78.5)">
					<line fill="none" stroke="#000000" x1="-0.053" y1="167.5" x2="-6.053" y2="167.5"/>
					<line fill="none" stroke="#000000" stroke-opacity="0.2" x1="-0.053" y1="167.5" x2="44.947" y2="167.5"/>
					<text transform="matrix(1 0 0 1 -30.082 169.7)" display="none" font-family="'ArialMT'" font-size="10px">80%</text>
				</g>
				<g transform="translate(0,52.499999999999986)">
					<line fill="none" stroke="#000000" x1="-0.053" y1="167.5" x2="-6.053" y2="167.5"/>
					<line fill="none" stroke="#000000" x1="-0.053" y1="167.5" x2="44.947" y2="167.5"/>
					<text transform="matrix(1 0 0 1 -35.6436 169.7)" display="none" font-family="'ArialMT'" font-size="10px">100%</text>
				</g>
				<g transform="translate(0,26.5)">
					<line fill="none" stroke="#000000" x1="-0.053" y1="167.5" x2="-6.053" y2="167.5"/>
					<line fill="none" stroke="#000000" stroke-opacity="0.2" x1="-0.053" y1="167.5" x2="44.947" y2="167.5"/>
					<text transform="matrix(1 0 0 1 -35.6436 169.7)" display="none" font-family="'ArialMT'" font-size="10px">120%</text>
				</g>
				<g transform="translate(0,0.5)">
					<line fill="none" stroke="#000000" x1="-0.053" y1="167.5" x2="-6.053" y2="167.5"/>
					<line fill="none" stroke="#000000" stroke-opacity="0.2" x1="-0.053" y1="167.5" x2="44.947" y2="167.5"/>
					<text transform="matrix(1 0 0 1 -35.6436 169.7)" display="none" font-family="'ArialMT'" font-size="10px">140%</text>
				</g>
			</g>
			<path fill="none" stroke="#86BF86" stroke-width="2" stroke-linecap="round" stroke-linejoin="round" stroke-opacity="0.2" d="
				M-0.053,237.054l45-12.859"/>
			<g>
				<circle fill="#86BF86" stroke="#FFFFFF" cx="-0.053" cy="237.054" r="3"/>
				<circle fill="#86BF86" stroke="#FFFFFF" cx="44.947" cy="224.195" r="3"/>
			</g>
			<path fill="none" stroke="#86BF86" stroke-width="2" stroke-linecap="round" stroke-linejoin="round" stroke-opacity="0.2" d="
				M-0.053,248.801l45-12.144"/>
			<g>
				<circle fill="#86BF86" stroke="#FFFFFF" cx="-0.053" cy="248.801" r="3"/>
				<circle fill="#86BF86" stroke="#FFFFFF" cx="44.947" cy="236.657" r="3"/>
			</g>
			<path fill="none" stroke="#86BF86" stroke-width="2" stroke-linecap="round" stroke-linejoin="round" stroke-opacity="0.2" d="
				M-0.053,235.33l45-3.916"/>
			<g>
				<circle fill="#86BF86" stroke="#FFFFFF" cx="-0.053" cy="235.33" r="3"/>
				<circle fill="#86BF86" stroke="#FFFFFF" cx="44.947" cy="231.415" r="3"/>
			</g>
			<path fill="none" stroke="#86BF86" stroke-width="2" stroke-linecap="round" stroke-linejoin="round" d="M-0.053,246.673
				l45-23.775"/>
			<g>
				<circle fill="#86BF86" stroke="#FFFFFF" cx="-0.053" cy="246.673" r="3"/>
				<circle fill="#86BF86" stroke="#FFFFFF" cx="44.947" cy="222.897" r="3"/>
			</g>
			<path fill="none" stroke="#86BF86" stroke-width="2" stroke-linecap="round" stroke-linejoin="round" stroke-opacity="0.2" d="
				M-0.053,242.147l45-4.316"/>
			<g>
				<circle fill="#86BF86" stroke="#FFFFFF" cx="-0.053" cy="242.147" r="3"/>
				<circle fill="#86BF86" stroke="#FFFFFF" cx="44.947" cy="237.831" r="3"/>
			</g>
			<path fill="none" stroke="#86BF86" stroke-width="2" stroke-linecap="round" stroke-linejoin="round" stroke-opacity="0.2" d="
				M-0.053,250.468l45-18.38"/>
			<g>
				<circle fill="#86BF86" stroke="#FFFFFF" cx="-0.053" cy="250.468" r="3"/>
				<circle fill="#86BF86" stroke="#FFFFFF" cx="44.947" cy="232.089" r="3"/>
			</g>
			<path fill="none" stroke="#86BF86" stroke-width="2" stroke-linecap="round" stroke-linejoin="round" stroke-opacity="0.2" d="
				M-0.053,241.941l45-6.944"/>
			<g>
				<circle fill="#86BF86" stroke="#FFFFFF" cx="-0.053" cy="241.941" r="3"/>
				<circle fill="#86BF86" stroke="#FFFFFF" cx="44.947" cy="234.997" r="3"/>
			</g>
			<path fill="none" stroke="#F2DF91" stroke-width="2" stroke-linecap="round" stroke-linejoin="round" d="M-0.053,259.211l45-13.3
				"/>
			<g>
				<circle fill="#F2DF91" stroke="#FFFFFF" cx="-0.053" cy="259.211" r="3"/>
				<circle fill="#F2DF91" stroke="#FFFFFF" cx="44.947" cy="245.91" r="3"/>
			</g>
			<path fill="none" stroke="#E5AE89" stroke-width="2" stroke-linecap="round" stroke-linejoin="round" d="M-0.053,264.022
				l45-15.175"/>
			<g>
				<circle fill="#E5AE89" stroke="#FFFFFF" cx="-0.053" cy="264.022" r="3"/>
				<circle fill="#E5AE89" stroke="#FFFFFF" cx="44.947" cy="248.847" r="3"/>
			</g>
			<path fill="none" stroke="#444444" stroke-width="2" stroke-linecap="round" stroke-linejoin="round" d="M-0.053,249.276
				l45-13.147"/>
			<g>
				<circle fill="#444444" stroke="#FFFFFF" cx="-0.053" cy="249.276" r="3"/>
				<circle fill="#444444" stroke="#FFFFFF" cx="44.947" cy="236.129" r="3"/>
			</g>
			<text transform="matrix(1 0 0 1 49.9473 221.8972)" display="none" fill="#86BF86" font-family="'ArialMT'" font-size="12px">Bozeman</text>
			<text transform="matrix(1 0 0 1 49.9473 250.9105)" display="none" fill="#F2DF91" font-family="'ArialMT'" font-size="12px">Plains</text>
			<text transform="matrix(1 0 0 1 49.9473 260.8469)" display="none" fill="#E5AE89" font-family="'ArialMT'" font-size="12px">Mountains</text>
			<text transform="matrix(1 0 0 1 49.9473 241.129)" display="none" fill="#444444" font-family="'ArialMT'" font-size="12px">Statewide</text>
		</g>
		<g transform="translate(175,30)">
			<g transform="translate(0,-3)">
				<g display="none">
					<text transform="matrix(1 0 0 1 -32.0527 159.5)" display="inline" font-family="'Arial-ItalicMT'" font-size="12px">W</text>
					<text transform="matrix(1 0 0 1 -20.9434 159.5)" display="inline" font-family="'Arial-ItalicMT'" font-size="12px">a</text>
					<text transform="matrix(1 0 0 1 -14.2695 159.5)" display="inline" font-family="'Arial-ItalicMT'" font-size="12px">g</text>
					<text transform="matrix(1 0 0 1 -7.5957 159.5)" display="inline" font-family="'Arial-ItalicMT'" font-size="12px">e</text>
					<text transform="matrix(1 0 0 1 -0.9219 159.5)" display="inline" font-family="'Arial-ItalicMT'" font-size="12px"> </text>
					<text transform="matrix(1 0 0 1 2.4121 159.5)" display="inline" font-family="'Arial-ItalicMT'" font-size="12px">i</text>
					<text transform="matrix(1 0 0 1 5.0781 159.5)" display="inline" font-family="'Arial-ItalicMT'" font-size="12px">n</text>
					<text transform="matrix(1 0 0 1 11.752 159.5)" display="inline" font-family="'Arial-ItalicMT'" font-size="12px">c</text>
					<text transform="matrix(1 0 0 1 17.752 159.5)" display="inline" font-family="'Arial-ItalicMT'" font-size="12px">o</text>
					<text transform="matrix(1 0 0 1 24.4258 159.5)" display="inline" font-family="'Arial-ItalicMT'" font-size="12px">m</text>
					<text transform="matrix(1 0 0 1 34.4219 159.5)" display="inline" font-family="'Arial-ItalicMT'" font-size="12px">e</text>
				</g>
			</g>
			<g transform="translate(0,130)">
				<g transform="translate(0.5,0)">
					<line fill="none" stroke="#000000" x1="-0.053" y1="167.5" x2="-0.053" y2="173.5"/>
					<text transform="matrix(1 0 0 1 -11.1758 183.6)" display="none" font-family="'ArialMT'" font-size="10px">2001</text>
				</g>
				<g transform="translate(45.5,0)">
					<line fill="none" stroke="#000000" x1="-0.053" y1="167.5" x2="-0.053" y2="173.5"/>
					<text transform="matrix(1 0 0 1 -11.1758 183.6)" display="none" font-family="'ArialMT'" font-size="10px">2016</text>
				</g>
			</g>
			<g>
				<g transform="translate(0,130.5)">
					<line fill="none" stroke="#000000" x1="-0.053" y1="167.5" x2="-6.053" y2="167.5"/>
					<line fill="none" stroke="#000000" stroke-opacity="0.2" x1="-0.053" y1="167.5" x2="44.947" y2="167.5"/>
					<text transform="matrix(1 0 0 1 -29.082 170.7)" display="none" font-family="'ArialMT'" font-size="10px">40%</text>
				</g>
				<g transform="translate(0,104.5)">
					<line fill="none" stroke="#000000" x1="-0.053" y1="167.5" x2="-6.053" y2="167.5"/>
					<line fill="none" stroke="#000000" stroke-opacity="0.2" x1="-0.053" y1="167.5" x2="44.947" y2="167.5"/>
					<text transform="matrix(1 0 0 1 -29.082 170.7)" display="none" font-family="'ArialMT'" font-size="10px">60%</text>
				</g>
				<g transform="translate(0,78.5)">
					<line fill="none" stroke="#000000" x1="-0.053" y1="167.5" x2="-6.053" y2="167.5"/>
					<line fill="none" stroke="#000000" stroke-opacity="0.2" x1="-0.053" y1="167.5" x2="44.947" y2="167.5"/>
					<text transform="matrix(1 0 0 1 -29.082 170.7)" display="none" font-family="'ArialMT'" font-size="10px">80%</text>
				</g>
				<g transform="translate(0,52.499999999999986)">
					<line fill="none" stroke="#000000" x1="-0.053" y1="167.5" x2="-6.053" y2="167.5"/>
					<line fill="none" stroke="#000000" x1="-0.053" y1="167.5" x2="44.947" y2="167.5"/>
					<text transform="matrix(1 0 0 1 -34.6436 170.7)" display="none" font-family="'ArialMT'" font-size="10px">100%</text>
				</g>
				<g transform="translate(0,26.5)">
					<line fill="none" stroke="#000000" x1="-0.053" y1="167.5" x2="-6.053" y2="167.5"/>
					<line fill="none" stroke="#000000" stroke-opacity="0.2" x1="-0.053" y1="167.5" x2="44.947" y2="167.5"/>
					<text transform="matrix(1 0 0 1 -34.6436 170.7)" display="none" font-family="'ArialMT'" font-size="10px">120%</text>
				</g>
				<g transform="translate(0,0.5)">
					<line fill="none" stroke="#000000" x1="-0.053" y1="167.5" x2="-6.053" y2="167.5"/>
					<line fill="none" stroke="#000000" stroke-opacity="0.2" x1="-0.053" y1="167.5" x2="44.947" y2="167.5"/>
					<text transform="matrix(1 0 0 1 -34.6436 170.7)" display="none" font-family="'ArialMT'" font-size="10px">140%</text>
				</g>
			</g>
			<path fill="none" stroke="#86BF86" stroke-width="2" stroke-linecap="round" stroke-linejoin="round" d="M-0.053,233.659
				l45-13.005"/>
			<g>
				<circle fill="#86BF86" stroke="#FFFFFF" cx="-0.053" cy="233.659" r="3"/>
				<circle fill="#86BF86" stroke="#FFFFFF" cx="44.947" cy="220.654" r="3"/>
			</g>
			<path fill="none" stroke="#86BF86" stroke-width="2" stroke-linecap="round" stroke-linejoin="round" stroke-opacity="0.2" d="
				M-0.053,257.206l45-4.582"/>
			<g>
				<circle fill="#86BF86" stroke="#FFFFFF" cx="-0.053" cy="257.206" r="3"/>
				<circle fill="#86BF86" stroke="#FFFFFF" cx="44.947" cy="252.624" r="3"/>
			</g>
			<path fill="none" stroke="#86BF86" stroke-width="2" stroke-linecap="round" stroke-linejoin="round" stroke-opacity="0.2" d="
				M-0.053,233.713l45-12.693"/>
			<g>
				<circle fill="#86BF86" stroke="#FFFFFF" cx="-0.053" cy="233.713" r="3"/>
				<circle fill="#86BF86" stroke="#FFFFFF" cx="44.947" cy="221.02" r="3"/>
			</g>
			<path fill="none" stroke="#86BF86" stroke-width="2" stroke-linecap="round" stroke-linejoin="round" d="M-0.053,250.238
				l45-19.834"/>
			<g>
				<circle fill="#86BF86" stroke="#FFFFFF" cx="-0.053" cy="250.238" r="3"/>
				<circle fill="#86BF86" stroke="#FFFFFF" cx="44.947" cy="230.404" r="3"/>
			</g>
			<path fill="none" stroke="#86BF86" stroke-width="2" stroke-linecap="round" stroke-linejoin="round" stroke-opacity="0.2" d="
				M-0.053,261.732l45-6.81"/>
			<g>
				<circle fill="#86BF86" stroke="#FFFFFF" cx="-0.053" cy="261.732" r="3"/>
				<circle fill="#86BF86" stroke="#FFFFFF" cx="44.947" cy="254.922" r="3"/>
			</g>
			<path fill="none" stroke="#86BF86" stroke-width="2" stroke-linecap="round" stroke-linejoin="round" stroke-opacity="0.2" d="
				M-0.053,271.585l45-17.711"/>
			<g>
				<circle fill="#86BF86" stroke="#FFFFFF" cx="-0.053" cy="271.585" r="3"/>
				<circle fill="#86BF86" stroke="#FFFFFF" cx="44.947" cy="253.874" r="3"/>
			</g>
			<path fill="none" stroke="#86BF86" stroke-width="2" stroke-linecap="round" stroke-linejoin="round" stroke-opacity="0.2" d="
				M-0.053,257.152l45-13.425"/>
			<g>
				<circle fill="#86BF86" stroke="#FFFFFF" cx="-0.053" cy="257.152" r="3"/>
				<circle fill="#86BF86" stroke="#FFFFFF" cx="44.947" cy="243.727" r="3"/>
			</g>
			<path fill="none" stroke="#F2DF91" stroke-width="2" stroke-linecap="round" stroke-linejoin="round" d="M-0.053,284.284
				l45-16.454"/>
			<g>
				<circle fill="#F2DF91" stroke="#FFFFFF" cx="-0.053" cy="284.284" r="3"/>
				<circle fill="#F2DF91" stroke="#FFFFFF" cx="44.947" cy="267.83" r="3"/>
			</g>
			<path fill="none" stroke="#E5AE89" stroke-width="2" stroke-linecap="round" stroke-linejoin="round" d="M-0.053,295.468
				l45-6.437"/>
			<g>
				<circle fill="#E5AE89" stroke="#FFFFFF" cx="-0.053" cy="295.468" r="3"/>
				<circle fill="#E5AE89" stroke="#FFFFFF" cx="44.947" cy="289.031" r="3"/>
			</g>
			<path fill="none" stroke="#444444" stroke-width="2" stroke-linecap="round" stroke-linejoin="round" d="M-0.053,263.768
				l45-13.277"/>
			<g>
				<circle fill="#444444" stroke="#FFFFFF" cx="-0.053" cy="263.768" r="3"/>
				<circle fill="#444444" stroke="#FFFFFF" cx="44.947" cy="250.491" r="3"/>
			</g>
			<text transform="matrix(1 0 0 1 49.9473 219.6539)" display="none" fill="#86BF86" font-family="'ArialMT'" font-size="12px">Billings</text>
			<text transform="matrix(1 0 0 1 49.9473 235.4042)" display="none" fill="#86BF86" font-family="'ArialMT'" font-size="12px">Bozeman</text>
			<text transform="matrix(1 0 0 1 49.9473 272.8302)" display="none" fill="#F2DF91" font-family="'ArialMT'" font-size="12px">Plains</text>
			<text transform="matrix(1 0 0 1 49.9473 294.031)" display="none" fill="#E5AE89" font-family="'ArialMT'" font-size="12px">Mountains</text>
			<text transform="matrix(1 0 0 1 49.9473 255.491)" display="none" fill="#444444" font-family="'ArialMT'" font-size="12px">Statewide</text>
		</g>
		<g transform="translate(35,220)">
			<g transform="translate(0,-3)">
				<text transform="matrix(1 0 0 1 -34.0527 157.5)" display="none" font-family="'Arial-ItalicMT'" font-size="12px">Investment income</text>
			</g>
			<g transform="translate(0,130)">
				<g transform="translate(0.5,0)">
					<line fill="none" stroke="#000000" x1="-0.053" y1="167.5" x2="-0.053" y2="173.5"/>
					<text transform="matrix(1 0 0 1 -11.1758 183.6)" display="none" font-family="'ArialMT'" font-size="10px">2001</text>
				</g>
				<g transform="translate(45.5,0)">
					<line fill="none" stroke="#000000" x1="-0.053" y1="167.5" x2="-0.053" y2="173.5"/>
					<text transform="matrix(1 0 0 1 -11.1758 183.6)" display="none" font-family="'ArialMT'" font-size="10px">2016</text>
				</g>
			</g>
			<g>
				<g transform="translate(0,130.5)">
					<line fill="none" stroke="#000000" x1="-0.053" y1="167.5" x2="-6.053" y2="167.5"/>
					<line fill="none" stroke="#000000" stroke-opacity="0.2" x1="-0.053" y1="167.5" x2="44.947" y2="167.5"/>
					<text transform="matrix(1 0 0 1 -30.082 169.7)" display="none" font-family="'ArialMT'" font-size="10px">40%</text>
				</g>
				<g transform="translate(0,104.5)">
					<line fill="none" stroke="#000000" x1="-0.053" y1="167.5" x2="-6.053" y2="167.5"/>
					<line fill="none" stroke="#000000" stroke-opacity="0.2" x1="-0.053" y1="167.5" x2="44.947" y2="167.5"/>
					<text transform="matrix(1 0 0 1 -30.082 169.7)" display="none" font-family="'ArialMT'" font-size="10px">60%</text>
				</g>
				<g transform="translate(0,78.5)">
					<line fill="none" stroke="#000000" x1="-0.053" y1="167.5" x2="-6.053" y2="167.5"/>
					<line fill="none" stroke="#000000" stroke-opacity="0.2" x1="-0.053" y1="167.5" x2="44.947" y2="167.5"/>
					<text transform="matrix(1 0 0 1 -30.082 169.7)" display="none" font-family="'ArialMT'" font-size="10px">80%</text>
				</g>
				<g transform="translate(0,52.499999999999986)">
					<line fill="none" stroke="#000000" x1="-0.053" y1="167.5" x2="-6.053" y2="167.5"/>
					<line fill="none" stroke="#000000" x1="-0.053" y1="167.5" x2="44.947" y2="167.5"/>
					<text transform="matrix(1 0 0 1 -35.6436 169.7)" display="none" font-family="'ArialMT'" font-size="10px">100%</text>
				</g>
				<g transform="translate(0,26.5)">
					<line fill="none" stroke="#000000" x1="-0.053" y1="167.5" x2="-6.053" y2="167.5"/>
					<line fill="none" stroke="#000000" stroke-opacity="0.2" x1="-0.053" y1="167.5" x2="44.947" y2="167.5"/>
					<text transform="matrix(1 0 0 1 -35.6436 169.7)" display="none" font-family="'ArialMT'" font-size="10px">120%</text>
				</g>
				<g transform="translate(0,0.5)">
					<line fill="none" stroke="#000000" x1="-0.053" y1="167.5" x2="-6.053" y2="167.5"/>
					<line fill="none" stroke="#000000" stroke-opacity="0.2" x1="-0.053" y1="167.5" x2="44.947" y2="167.5"/>
					<text transform="matrix(1 0 0 1 -35.6436 169.7)" display="none" font-family="'ArialMT'" font-size="10px">140%</text>
				</g>
			</g>
			<path fill="none" stroke="#86BF86" stroke-width="2" stroke-linecap="round" stroke-linejoin="round" stroke-opacity="0.2" d="
				M-0.053,226.187l45,5.544"/>
			<g>
				<circle fill="#86BF86" stroke="#FFFFFF" cx="-0.053" cy="226.187" r="3"/>
				<circle fill="#86BF86" stroke="#FFFFFF" cx="44.947" cy="231.73" r="3"/>
			</g>
			<path fill="none" stroke="#86BF86" stroke-width="2" stroke-linecap="round" stroke-linejoin="round" d="M-0.053,218.011
				l45-30.571"/>
			<g>
				<circle fill="#86BF86" stroke="#FFFFFF" cx="-0.053" cy="218.011" r="3"/>
				<circle fill="#86BF86" stroke="#FFFFFF" cx="44.947" cy="187.44" r="3"/>
			</g>
			<path fill="none" stroke="#86BF86" stroke-width="2" stroke-linecap="round" stroke-linejoin="round" stroke-opacity="0.2" d="
				M-0.053,220.33l45-0.82"/>
			<g>
				<circle fill="#86BF86" stroke="#FFFFFF" cx="-0.053" cy="220.33" r="3"/>
				<circle fill="#86BF86" stroke="#FFFFFF" cx="44.947" cy="219.51" r="3"/>
			</g>
			<path fill="none" stroke="#86BF86" stroke-width="2" stroke-linecap="round" stroke-linejoin="round" d="M-0.053,194.625
				l45-14.017"/>
			<g>
				<circle fill="#86BF86" stroke="#FFFFFF" cx="-0.053" cy="194.625" r="3"/>
				<circle fill="#86BF86" stroke="#FFFFFF" cx="44.947" cy="180.607" r="3"/>
			</g>
			<path fill="none" stroke="#86BF86" stroke-width="2" stroke-linecap="round" stroke-linejoin="round" stroke-opacity="0.2" d="
				M-0.053,198.011l45,10.094"/>
			<g>
				<circle fill="#86BF86" stroke="#FFFFFF" cx="-0.053" cy="198.011" r="3"/>
				<circle fill="#86BF86" stroke="#FFFFFF" cx="44.947" cy="208.105" r="3"/>
			</g>
			<path fill="none" stroke="#86BF86" stroke-width="2" stroke-linecap="round" stroke-linejoin="round" d="M-0.053,234.113
				l45,1.535"/>
			<g>
				<circle fill="#86BF86" stroke="#FFFFFF" cx="-0.053" cy="234.113" r="3"/>
				<circle fill="#86BF86" stroke="#FFFFFF" cx="44.947" cy="235.648" r="3"/>
			</g>
			<path fill="none" stroke="#86BF86" stroke-width="2" stroke-linecap="round" stroke-linejoin="round" stroke-opacity="0.2" d="
				M-0.053,205.492l45,13.929"/>
			<g>
				<circle fill="#86BF86" stroke="#FFFFFF" cx="-0.053" cy="205.492" r="3"/>
				<circle fill="#86BF86" stroke="#FFFFFF" cx="44.947" cy="219.421" r="3"/>
			</g>
			<path fill="none" stroke="#F2DF91" stroke-width="2" stroke-linecap="round" stroke-linejoin="round" d="M-0.053,227.756
				l45-4.767"/>
			<g>
				<circle fill="#F2DF91" stroke="#FFFFFF" cx="-0.053" cy="227.756" r="3"/>
				<circle fill="#F2DF91" stroke="#FFFFFF" cx="44.947" cy="222.989" r="3"/>
			</g>
			<path fill="none" stroke="#E5AE89" stroke-width="2" stroke-linecap="round" stroke-linejoin="round" d="M-0.053,234.094
				l45-17.54"/>
			<g>
				<circle fill="#E5AE89" stroke="#FFFFFF" cx="-0.053" cy="234.094" r="3"/>
				<circle fill="#E5AE89" stroke="#FFFFFF" cx="44.947" cy="216.555" r="3"/>
			</g>
			<path fill="none" stroke="#444444" stroke-width="2" stroke-linecap="round" stroke-linejoin="round" d="M-0.053,219.728
				l45-7.218"/>
			<g>
				<circle fill="#444444" stroke="#FFFFFF" cx="-0.053" cy="219.728" r="3"/>
				<circle fill="#444444" stroke="#FFFFFF" cx="44.947" cy="212.51" r="3"/>
			</g>
			<text transform="matrix(1 0 0 1 49.9473 192.4395)" display="none" fill="#86BF86" font-family="'ArialMT'" font-size="12px">Missoula</text>
			<text transform="matrix(1 0 0 1 49.9473 180.6072)" display="none" fill="#86BF86" font-family="'ArialMT'" font-size="12px">Bozeman</text>
			<text transform="matrix(1 0 0 1 49.9473 240.6481)" display="none" fill="#86BF86" font-family="'ArialMT'" font-size="12px">Butte</text>
			<text transform="matrix(1 0 0 1 49.9473 226.5545)" display="none" fill="#E5AE89" font-family="'ArialMT'" font-size="12px">Mountains</text>
			<text transform="matrix(1 0 0 1 49.9473 217.5103)" display="none" fill="#444444" font-family="'ArialMT'" font-size="12px">Statewide</text>
		</g>
		<g transform="translate(175,220)">
			<g transform="translate(0,-3)">
				<g display="none">
					<text transform="matrix(1 0 0 1 -35.0527 157.5)" display="inline" font-family="'Arial-ItalicMT'" font-size="12px">T</text>
					<text transform="matrix(1 0 0 1 -28.6133 157.5)" display="inline" font-family="'Arial-ItalicMT'" font-size="12px">r</text>
					<text transform="matrix(1 0 0 1 -24.6172 157.5)" display="inline" font-family="'Arial-ItalicMT'" font-size="12px">a</text>
					<text transform="matrix(1 0 0 1 -17.9434 157.5)" display="inline" font-family="'Arial-ItalicMT'" font-size="12px">n</text>
					<text transform="matrix(1 0 0 1 -11.2695 157.5)" display="inline" font-family="'Arial-ItalicMT'" font-size="12px">s</text>
					<text transform="matrix(1 0 0 1 -5.2695 157.5)" display="inline" font-family="'Arial-ItalicMT'" font-size="12px">f</text>
					<text transform="matrix(1 0 0 1 -1.9355 157.5)" display="inline" font-family="'Arial-ItalicMT'" font-size="12px">e</text>
					<text transform="matrix(1 0 0 1 4.7383 157.5)" display="inline" font-family="'Arial-ItalicMT'" font-size="12px">r</text>
					<text transform="matrix(1 0 0 1 8.7344 157.5)" display="inline" font-family="'Arial-ItalicMT'" font-size="12px"> </text>
					<text transform="matrix(1 0 0 1 12.0684 157.5)" display="inline" font-family="'Arial-ItalicMT'" font-size="12px">i</text>
					<text transform="matrix(1 0 0 1 14.7344 157.5)" display="inline" font-family="'Arial-ItalicMT'" font-size="12px">n</text>
					<text transform="matrix(1 0 0 1 21.4082 157.5)" display="inline" font-family="'Arial-ItalicMT'" font-size="12px">c</text>
					<text transform="matrix(1 0 0 1 27.4082 157.5)" display="inline" font-family="'Arial-ItalicMT'" font-size="12px">o</text>
					<text transform="matrix(1 0 0 1 34.082 157.5)" display="inline" font-family="'Arial-ItalicMT'" font-size="12px">m</text>
					<text transform="matrix(1 0 0 1 44.0781 157.5)" display="inline" font-family="'Arial-ItalicMT'" font-size="12px">e</text>
				</g>
			</g>
			<g transform="translate(0,130)">
				<g transform="translate(0.5,0)">
					<line fill="none" stroke="#000000" x1="-0.053" y1="167.5" x2="-0.053" y2="173.5"/>
					<text transform="matrix(1 0 0 1 -11.1758 183.6)" display="none" font-family="'ArialMT'" font-size="10px">2001</text>
				</g>
				<g transform="translate(45.5,0)">
					<line fill="none" stroke="#000000" x1="-0.053" y1="167.5" x2="-0.053" y2="173.5"/>
					<text transform="matrix(1 0 0 1 -11.1758 183.6)" display="none" font-family="'ArialMT'" font-size="10px">2016</text>
				</g>
			</g>
			<g>
				<g transform="translate(0,130.5)">
					<line fill="none" stroke="#000000" x1="-0.053" y1="167.5" x2="-6.053" y2="167.5"/>
					<line fill="none" stroke="#000000" stroke-opacity="0.2" x1="-0.053" y1="167.5" x2="44.947" y2="167.5"/>
					<text transform="matrix(1 0 0 1 -29.082 170.7)" display="none" font-family="'ArialMT'" font-size="10px">40%</text>
				</g>
				<g transform="translate(0,104.5)">
					<line fill="none" stroke="#000000" x1="-0.053" y1="167.5" x2="-6.053" y2="167.5"/>
					<line fill="none" stroke="#000000" stroke-opacity="0.2" x1="-0.053" y1="167.5" x2="44.947" y2="167.5"/>
					<text transform="matrix(1 0 0 1 -29.082 170.7)" display="none" font-family="'ArialMT'" font-size="10px">60%</text>
				</g>
				<g transform="translate(0,78.5)">
					<line fill="none" stroke="#000000" x1="-0.053" y1="167.5" x2="-6.053" y2="167.5"/>
					<line fill="none" stroke="#000000" stroke-opacity="0.2" x1="-0.053" y1="167.5" x2="44.947" y2="167.5"/>
					<text transform="matrix(1 0 0 1 -29.082 170.7)" display="none" font-family="'ArialMT'" font-size="10px">80%</text>
				</g>
				<g transform="translate(0,52.499999999999986)">
					<line fill="none" stroke="#000000" x1="-0.053" y1="167.5" x2="-6.053" y2="167.5"/>
					<line fill="none" stroke="#000000" x1="-0.053" y1="167.5" x2="44.947" y2="167.5"/>
					<text transform="matrix(1 0 0 1 -34.6436 170.7)" display="none" font-family="'ArialMT'" font-size="10px">100%</text>
				</g>
				<g transform="translate(0,26.5)">
					<line fill="none" stroke="#000000" x1="-0.053" y1="167.5" x2="-6.053" y2="167.5"/>
					<line fill="none" stroke="#000000" stroke-opacity="0.2" x1="-0.053" y1="167.5" x2="44.947" y2="167.5"/>
					<text transform="matrix(1 0 0 1 -34.6436 170.7)" display="none" font-family="'ArialMT'" font-size="10px">120%</text>
				</g>
				<g transform="translate(0,0.5)">
					<line fill="none" stroke="#000000" x1="-0.053" y1="167.5" x2="-6.053" y2="167.5"/>
					<line fill="none" stroke="#000000" stroke-opacity="0.2" x1="-0.053" y1="167.5" x2="44.947" y2="167.5"/>
					<text transform="matrix(1 0 0 1 -34.6436 170.7)" display="none" font-family="'ArialMT'" font-size="10px">140%</text>
				</g>
			</g>
			<path fill="none" stroke="#86BF86" stroke-width="2" stroke-linecap="round" stroke-linejoin="round" d="M-0.053,227.265
				l45,3.817"/>
			<g>
				<circle fill="#86BF86" stroke="#FFFFFF" cx="-0.053" cy="227.265" r="3"/>
				<circle fill="#86BF86" stroke="#FFFFFF" cx="44.947" cy="231.082" r="3"/>
			</g>
			<path fill="none" stroke="#86BF86" stroke-width="2" stroke-linecap="round" stroke-linejoin="round" stroke-opacity="0.2" d="
				M-0.053,235.064l45-8.289"/>
			<g>
				<circle fill="#86BF86" stroke="#FFFFFF" cx="-0.053" cy="235.064" r="3"/>
				<circle fill="#86BF86" stroke="#FFFFFF" cx="44.947" cy="226.774" r="3"/>
			</g>
			<path fill="none" stroke="#86BF86" stroke-width="2" stroke-linecap="round" stroke-linejoin="round" stroke-opacity="0.2" d="
				M-0.053,234.479l45-9.664"/>
			<g>
				<circle fill="#86BF86" stroke="#FFFFFF" cx="-0.053" cy="234.479" r="3"/>
				<circle fill="#86BF86" stroke="#FFFFFF" cx="44.947" cy="224.815" r="3"/>
			</g>
			<path fill="none" stroke="#86BF86" stroke-width="2" stroke-linecap="round" stroke-linejoin="round" d="M-0.053,270.327
				l45,1.674"/>
			<g>
				<circle fill="#86BF86" stroke="#FFFFFF" cx="-0.053" cy="270.327" r="3"/>
				<circle fill="#86BF86" stroke="#FFFFFF" cx="44.947" cy="272" r="3"/>
			</g>
			<path fill="none" stroke="#86BF86" stroke-width="2" stroke-linecap="round" stroke-linejoin="round" stroke-opacity="0.2" d="
				M-0.053,226.099l45-5.167"/>
			<g>
				<circle fill="#86BF86" stroke="#FFFFFF" cx="-0.053" cy="226.099" r="3"/>
				<circle fill="#86BF86" stroke="#FFFFFF" cx="44.947" cy="220.932" r="3"/>
			</g>
			<path fill="none" stroke="#86BF86" stroke-width="2" stroke-linecap="round" stroke-linejoin="round" d="M-0.053,187.171
				l45,12.984"/>
			<g>
				<circle fill="#86BF86" stroke="#FFFFFF" cx="-0.053" cy="187.171" r="3"/>
				<circle fill="#86BF86" stroke="#FFFFFF" cx="44.947" cy="200.155" r="3"/>
			</g>
			<path fill="none" stroke="#86BF86" stroke-width="2" stroke-linecap="round" stroke-linejoin="round" d="M-0.053,212.502
				l45-2.071"/>
			<g>
				<circle fill="#86BF86" stroke="#FFFFFF" cx="-0.053" cy="212.502" r="3"/>
				<circle fill="#86BF86" stroke="#FFFFFF" cx="44.947" cy="210.432" r="3"/>
			</g>
			<path fill="none" stroke="#F2DF91" stroke-width="2" stroke-linecap="round" stroke-linejoin="round" d="M-0.053,211.422
				l45,6.243"/>
			<g>
				<circle fill="#F2DF91" stroke="#FFFFFF" cx="-0.053" cy="211.422" r="3"/>
				<circle fill="#F2DF91" stroke="#FFFFFF" cx="44.947" cy="217.665" r="3"/>
			</g>
			<path fill="none" stroke="#E5AE89" stroke-width="2" stroke-linecap="round" stroke-linejoin="round" d="M-0.053,214.264
				l45-17.623"/>
			<g>
				<circle fill="#E5AE89" stroke="#FFFFFF" cx="-0.053" cy="214.264" r="3"/>
				<circle fill="#E5AE89" stroke="#FFFFFF" cx="44.947" cy="196.641" r="3"/>
			</g>
			<path fill="none" stroke="#444444" stroke-width="2" stroke-linecap="round" stroke-linejoin="round" d="M-0.053,223.729
				l45-0.306"/>
			<g>
				<circle fill="#444444" stroke="#FFFFFF" cx="-0.053" cy="223.729" r="3"/>
				<circle fill="#444444" stroke="#FFFFFF" cx="44.947" cy="223.424" r="3"/>
			</g>
			<text transform="matrix(1 0 0 1 49.9473 241.0819)" display="none" fill="#86BF86" font-family="'ArialMT'" font-size="12px">Billings</text>
			<text transform="matrix(1 0 0 1 49.9473 277.0004)" display="none" fill="#86BF86" font-family="'ArialMT'" font-size="12px">Bozeman</text>
			<text transform="matrix(1 0 0 1 49.9473 205.1547)" display="none" fill="#86BF86" font-family="'ArialMT'" font-size="12px">Butte</text>
			<text transform="matrix(1 0 0 1 49.9473 217.6647)" display="none" fill="#F2DF91" font-family="'ArialMT'" font-size="12px">Plains</text>
			<text transform="matrix(1 0 0 1 49.9473 194.6409)" display="none" fill="#E5AE89" font-family="'ArialMT'" font-size="12px">Mountains</text>
			<text transform="matrix(1 0 0 1 49.9473 228.4238)" display="none" fill="#444444" font-family="'ArialMT'" font-size="12px">Statewide</text>
		</g>
	</g>
	<g transform="translate(50,40)">
		<g>
			<line fill="none" stroke="#666666" stroke-dasharray="2" x1="-13.676" y1="3.008" x2="226.324" y2="3.008"/>
		</g>
		<g>
			<rect x="-9.391" y="3.008" fill="none" stroke="#444444" width="17.143" height="98.492"/>
			<rect x="12.038" y="15.606" fill="none" stroke="#444444" width="17.143" height="85.894"/>
			<rect x="33.467" y="25.242" fill="none" stroke="#E5AE89" width="17.143" height="76.258"/>
			<rect x="54.895" y="23.017" fill="none" stroke="#F2DF91" width="17.143" height="78.483"/>
			<rect x="76.324" y="6.565" fill="none" stroke="#86BF86" width="17.143" height="94.935"/>
			<rect x="97.752" y="16.006" fill="none" stroke="#86BF86" width="17.143" height="85.494"/>
			<rect x="119.181" y="14.749" fill="none" stroke="#86BF86" width="17.143" height="86.751"/>
			<rect x="140.609" y="5.582" fill="none" stroke="#86BF86" width="17.143" height="95.918"/>
			<rect x="162.038" y="16.896" fill="none" stroke="#86BF86" width="17.143" height="84.604"/>
			<rect x="183.467" y="12.035" fill="none" stroke="#86BF86" width="17.143" height="89.465"/>
			<rect x="204.895" y="12.545" fill="none" stroke="#86BF86" width="17.143" height="88.955"/>
		</g>
		<g>
			<rect x="-9.391" y="51.49" fill="#444444" width="17.143" height="50.01"/>
			<rect x="12.038" y="63.412" fill="#444444" width="17.143" height="38.088"/>
			<rect x="33.467" y="78.238" fill="#E5AE89" width="17.143" height="23.262"/>
			<rect x="54.895" y="70.082" fill="#F2DF91" width="17.143" height="31.418"/>
			<rect x="76.324" y="51.934" fill="#86BF86" width="17.143" height="49.566"/>
			<rect x="97.752" y="64.233" fill="#86BF86" width="17.143" height="37.267"/>
			<rect x="119.181" y="60.81" fill="#86BF86" width="17.143" height="40.69"/>
			<rect x="140.609" y="55.685" fill="#86BF86" width="17.143" height="45.815"/>
			<rect x="162.038" y="65.117" fill="#86BF86" width="17.143" height="36.383"/>
			<rect x="183.467" y="52.075" fill="#86BF86" width="17.143" height="49.425"/>
			<rect x="204.895" y="64.713" fill="#86BF86" width="17.143" height="36.787"/>
		</g>
		<g transform="translate(0,120)">
			<path fill="none" stroke="#000000" d="M-13.176-12.5V-18h240v5.5"/>
			<g transform="translate(12.857142857142863,0)">
				<text transform="matrix(0.866 -0.5 0.5 0.866 -21.233 -0.3224)" display="none" font-family="'ArialMT'" font-size="8px">US</text>
			</g>
			<g transform="translate(34.28571428571429,0)">
				<g display="none">
					<text transform="matrix(0.866 -0.5 0.5 0.866 -21.51 -0.1754)" display="inline" font-family="'ArialMT'" font-size="8px">M</text>
					<text transform="matrix(0.866 -0.5 0.5 0.866 -15.7388 -3.5074)" display="inline" font-family="'ArialMT'" font-size="8px">T</text>
				</g>
			</g>
			<g transform="translate(55.714285714285715,0)">
				<text transform="matrix(0.866 -0.5 0.5 0.866 -40.8567 9.5761)" display="none" font-family="'ArialMT'" font-size="8px">Mountains</text>
			</g>
			<g transform="translate(77.14285714285714,0)">
				<text transform="matrix(0.866 -0.5 0.5 0.866 -28.0447 2.0155)" display="none" font-family="'ArialMT'" font-size="8px">Plains</text>
			</g>
			<g transform="translate(98.57142857142857,0)">
				<text transform="matrix(0.866 -0.5 0.5 0.866 -30.6426 3.7929)" display="none" font-family="'ArialMT'" font-size="8px">Billings</text>
			</g>
			<g transform="translate(120,0)">
				<text transform="matrix(0.866 -0.5 0.5 0.866 -36.4416 6.9042)" display="none" font-family="'ArialMT'" font-size="8px">Missoula</text>
			</g>
			<g transform="translate(141.42857142857142,0)">
				<text transform="matrix(0.866 -0.5 0.5 0.866 -42.3385 10.682)" display="none" font-family="'ArialMT'" font-size="8px">Great Falls</text>
			</g>
			<g transform="translate(162.85714285714286,0)">
				<text transform="matrix(0.866 -0.5 0.5 0.866 -37.954 8.0194)" display="none" font-family="'ArialMT'" font-size="8px">Bozeman</text>
			</g>
			<g transform="translate(184.2857142857143,0)">
				<text transform="matrix(0.866 -0.5 0.5 0.866 -34.649 6.017)" display="none" font-family="'ArialMT'" font-size="8px">Kalispell</text>
			</g>
			<g transform="translate(205.7142857142857,0)">
				<text transform="matrix(0.866 -0.5 0.5 0.866 -30.6547 3.7968)" display="none" font-family="'ArialMT'" font-size="8px">Helena</text>
			</g>
			<g transform="translate(227.14285714285714,0)">
				<text transform="matrix(0.866 -0.5 0.5 0.866 -24.1481 0.4608)" display="none" font-family="'ArialMT'" font-size="8px">Butte</text>
			</g>
		</g>
		<g>
			<path fill="none" stroke="#000000" d="M-13.176,102V-18"/>
			<g transform="translate(0,120.5)">
				<line fill="none" stroke="#000000" x1="-13.676" y1="-18.5" x2="-19.676" y2="-18.5"/>
				<text transform="matrix(1 0 0 1 -31.8984 -15.3)" display="none" font-family="'ArialMT'" font-size="8px">$0</text>
			</g>
			<g transform="translate(0,100.5)">
				<line fill="none" stroke="#000000" x1="-13.676" y1="-18.5" x2="-19.676" y2="-18.5"/>
			</g>
			<g transform="translate(0,80.5)">
				<line fill="none" stroke="#000000" x1="-13.676" y1="-18.5" x2="-19.676" y2="-18.5"/>
				<text transform="matrix(1 0 0 1 -41.6836 -15.3)" display="none" font-family="'ArialMT'" font-size="8px">$20K</text>
			</g>
			<g transform="translate(0,60.5)">
				<line fill="none" stroke="#000000" x1="-13.676" y1="-18.5" x2="-19.676" y2="-18.5"/>
			</g>
			<g transform="translate(0,40.5)">
				<line fill="none" stroke="#000000" x1="-13.676" y1="-18.5" x2="-19.676" y2="-18.5"/>
				<text transform="matrix(1 0 0 1 -41.6836 -15.3)" display="none" font-family="'ArialMT'" font-size="8px">$40K</text>
			</g>
			<g transform="translate(0,20.5)">
				<line fill="none" stroke="#000000" x1="-13.676" y1="-18.5" x2="-19.676" y2="-18.5"/>
			</g>
			<g transform="translate(0,0.5)">
				<line fill="none" stroke="#000000" x1="-13.676" y1="-18.5" x2="-19.676" y2="-18.5"/>
				<text transform="matrix(1 0 0 1 -41.6836 -15.3)" display="none" font-family="'ArialMT'" font-size="8px">$60K</text>
			</g>
		</g>
		<text transform="matrix(6.123234e-17 -1 1 6.123234e-17 362.8133 -454.0654)" font-family="'Arial-ItalicMT'" font-size="10px">W</text>
		<text transform="matrix(6.123234e-17 -1 1 6.123234e-17 362.8133 -463.3232)" font-family="'Arial-ItalicMT'" font-size="10px">a</text>
		<text transform="matrix(6.123234e-17 -1 1 6.123234e-17 362.8133 -468.8848)" font-family="'Arial-ItalicMT'" font-size="10px">g</text>
		<text transform="matrix(6.123234e-17 -1 1 6.123234e-17 362.8133 -474.4463)" font-family="'Arial-ItalicMT'" font-size="10px">e</text>
		<text transform="matrix(6.123234e-17 -1 1 6.123234e-17 361.8133 -494.4268)" font-family="'Arial-ItalicMT'" font-size="10px">Non-wage</text>
	</g>
</g>
<style type="text/css">
#g-mt-economy-5-income-components-mobile-img rect, #g-mt-economy-5-income-components-mobile-img circle, #g-mt-economy-5-income-components-mobile-img path, #g-mt-economy-5-income-components-mobile-img line, #g-mt-economy-5-income-components-mobile-img polyline { vector-effect: non-scaling-stroke; }
</style>
</svg>

