<?xml version="1.0" encoding="utf-8"?>
<!-- Generator: Adobe Illustrator 22.1.0, SVG Export Plug-In . SVG Version: 6.00 Build 0)  -->
<svg version="1.2" baseProfile="tiny" id="g-mt-economy-4-sector-change-medium-img" xmlns="http://www.w3.org/2000/svg" xmlns:xlink="http://www.w3.org/1999/xlink"
	 x="0px" y="0px" viewBox="0 0 600 448" xml:space="preserve">
<g>
	<g transform="translate(80,40)">
		<rect x="-27.5" y="59" fill="#EDDC22" fill-opacity="0.2" width="158" height="223"/>
		<rect x="130.5" y="282" fill="#EDDC22" fill-opacity="0.2" width="354" height="110"/>
		<rect x="-27.5" y="282" display="none" fill="#EDDC22" fill-opacity="0.2" width="158" height="110"/>
		<rect x="130.5" y="59" display="none" fill="#EDDC22" fill-opacity="0.2" width="354" height="223"/>
		<g transform="translate(0,0)">
			<path fill="none" stroke="#000000" d="M-31.859,392.315h4.892V58.659h-4.892"/>
			<g transform="translate(0,443.83333333333326)">
				<line fill="none" stroke="#000000" x1="-27.344" y1="-51.519" x2="-31.859" y2="-51.519"/>
				<line fill="none" stroke="#000000" stroke-opacity="0.1" x1="-27.344" y1="-51.519" x2="484.428" y2="-51.519"/>
				<text transform="matrix(1 0 0 1 -61.0688 -49.1097)" display="none" font-family="'ArialMT'" font-size="11px">-20%</text>
			</g>
			<g transform="translate(0,369.94444444444434)">
				<line fill="none" stroke="#000000" x1="-27.344" y1="-33.239" x2="-31.859" y2="-33.239"/>
				<line fill="none" stroke="#000000" stroke-opacity="0.3" x1="-27.344" y1="-33.239" x2="484.428" y2="-33.239"/>
				<text transform="matrix(1 0 0 1 -51.2881 -30.8302)" display="none" font-family="'ArialMT'" font-size="11px">0%</text>
			</g>
			<g transform="translate(0,296.0555555555555)">
				<line fill="none" stroke="#000000" x1="-27.344" y1="-14.959" x2="-31.859" y2="-14.959"/>
				<line fill="none" stroke="#000000" stroke-opacity="0.1" x1="-27.344" y1="-14.959" x2="484.428" y2="-14.959"/>
				<text transform="matrix(1 0 0 1 -63.8296 -12.5507)" display="none" font-family="'ArialMT'" font-size="11px">+20%</text>
			</g>
			<g transform="translate(0,222.16666666666657)">
				<line fill="none" stroke="#000000" x1="-27.344" y1="3.32" x2="-31.859" y2="3.32"/>
				<line fill="none" stroke="#000000" stroke-opacity="0.1" x1="-27.344" y1="3.32" x2="484.428" y2="3.32"/>
				<text transform="matrix(1 0 0 1 -63.8296 5.7288)" display="none" font-family="'ArialMT'" font-size="11px">+40%</text>
			</g>
			<g transform="translate(0,148.27777777777771)">
				<line fill="none" stroke="#000000" x1="-27.344" y1="21.6" x2="-31.859" y2="21.6"/>
				<text transform="matrix(1 0 0 1 -63.8296 24.0093)" display="none" font-family="'ArialMT'" font-size="11px">+60%</text>
			</g>
			<g transform="translate(0,74.38888888888886)">
				<line fill="none" stroke="#000000" x1="-27.344" y1="39.88" x2="-31.859" y2="39.88"/>
				<line fill="none" stroke="#000000" stroke-opacity="0.1" x1="-27.344" y1="39.88" x2="484.428" y2="39.88"/>
				<text transform="matrix(1 0 0 1 -63.8296 42.2888)" display="none" font-family="'ArialMT'" font-size="11px">+80%</text>
				<line fill="none" stroke="#000000" stroke-opacity="0.1" x1="-27.344" y1="95.489" x2="484.428" y2="95.111"/>
			</g>
			<g transform="translate(0,0.5)">
				<line fill="none" stroke="#000000" x1="-27.344" y1="58.159" x2="-31.859" y2="58.159"/>
				<line fill="none" stroke="#000000" x1="-27.344" y1="58.159" x2="484.428" y2="58.159"/>
				<text transform="matrix(1 0 0 1 -69.9473 60.5684)" display="none" font-family="'ArialMT'" font-size="11px">+100%</text>
			</g>
		</g>
		<g transform="translate(0,0)">
			<path fill="none" stroke="#000000" d="M-26.967,58.659h511.772"/>
			<g transform="translate(0.5,0)">
				<line fill="none" stroke="#000000" x1="-27.467" y1="58.283" x2="-27.467" y2="53.767"/>
				<text transform="matrix(1 0 0 1 -31.6533 51.5098)" display="none" font-family="'ArialMT'" font-size="11px">$0</text>
			</g>
			<g transform="translate(113.83333333333333,0)">
				<polyline fill="none" stroke="#000000" stroke-opacity="0.1" points="-55.505,53.767 -55.505,58.283 -55.505,392.5 				"/>
				<text transform="matrix(1 0 0 1 -75.9886 51.5098)" display="none" font-family="'ArialMT'" font-size="11px">$20,000</text>
			</g>
			<g transform="translate(227.16666666666666,0)">
				<polyline fill="none" stroke="#000000" stroke-opacity="0.1" points="-83.543,53.767 -83.543,58.283 -83.543,392 				"/>
				<text transform="matrix(1 0 0 1 -104.027 51.5098)" display="none" font-family="'ArialMT'" font-size="11px">$40,000</text>
			</g>
			<g transform="translate(340.5,0)">
				<polyline fill="none" stroke="#000000" stroke-opacity="0.1" points="-111.581,53.767 -111.581,58.283 -111.581,392.5 				"/>
				<text transform="matrix(1 0 0 1 -132.0645 51.5098)" display="none" font-family="'ArialMT'" font-size="11px">$60,000</text>
			</g>
			<g transform="translate(453.8333333333333,0)">
				<polyline fill="none" stroke="#000000" stroke-opacity="0.1" points="-139.619,53.767 -139.619,58.283 -139.619,392.5 				"/>
				<text transform="matrix(1 0 0 1 -159.1029 51.5098)" display="none" font-family="'ArialMT'" font-size="11px">$80,000</text>
			</g>
			<g transform="translate(567.1666666666667,0)">
				<polyline fill="none" stroke="#000000" stroke-opacity="0.1" points="-167.657,53.767 -167.657,58.283 -167.657,392 				"/>
				<text transform="matrix(1 0 0 1 -190.2917 51.5098)" display="none" font-family="'ArialMT'" font-size="11px">$100,000</text>
			</g>
			<g transform="translate(680.5,0)">
				<polyline fill="none" stroke="#000000" stroke-opacity="0.1" points="-195.695,53.767 -195.695,58.283 -195.695,392.5 				"/>
				<text transform="matrix(1 0 0 1 -219.3301 51.5098)" display="none" font-family="'ArialMT'" font-size="11px">$120,000</text>
			</g>
		</g>
		<g transform="translate(680,20)">
			<g display="none">
				<text transform="matrix(1 0 0 1 -305.4766 50.3359)" display="inline" font-family="'ArialMT'" font-size="12px">A</text>
				<text transform="matrix(1 0 0 1 -297.6895 50.3359)" display="inline" font-family="'ArialMT'" font-size="12px">v</text>
				<text transform="matrix(1 0 0 1 -291.6895 50.3359)" display="inline" font-family="'ArialMT'" font-size="12px">g</text>
				<text transform="matrix(1 0 0 1 -285.0156 50.3359)" display="inline" font-family="'ArialMT'" font-size="12px">.</text>
				<text transform="matrix(1 0 0 1 -281.6816 50.3359)" display="inline" font-family="'ArialMT'" font-size="12px"> </text>
				<text transform="matrix(1 0 0 1 -278.3477 50.3359)" display="inline" font-family="'ArialMT'" font-size="12px">e</text>
				<text transform="matrix(1 0 0 1 -271.6738 50.3359)" display="inline" font-family="'ArialMT'" font-size="12px">a</text>
				<text transform="matrix(1 0 0 1 -265 50.3359)" display="inline" font-family="'ArialMT'" font-size="12px">r</text>
				<text transform="matrix(1 0 0 1 -261.0039 50.3359)" display="inline" font-family="'ArialMT'" font-size="12px">n</text>
				<text transform="matrix(1 0 0 1 -254.3301 50.3359)" display="inline" font-family="'ArialMT'" font-size="12px">i</text>
				<text transform="matrix(1 0 0 1 -251.6641 50.3359)" display="inline" font-family="'ArialMT'" font-size="12px">n</text>
				<text transform="matrix(1 0 0 1 -244.9902 50.3359)" display="inline" font-family="'ArialMT'" font-size="12px">g</text>
				<text transform="matrix(1 0 0 1 -238.3164 50.3359)" display="inline" font-family="'ArialMT'" font-size="12px">s</text>
				<text transform="matrix(1 0 0 1 -232.3164 50.3359)" display="inline" font-family="'ArialMT'" font-size="12px">,</text>
				<text transform="matrix(1 0 0 1 -228.9824 50.3359)" display="inline" font-family="'ArialMT'" font-size="12px"> </text>
				<text transform="matrix(1 0 0 1 -225.6484 50.3359)" display="inline" font-family="'ArialMT'" font-size="12px">2</text>
				<text transform="matrix(1 0 0 1 -218.9746 50.3359)" display="inline" font-family="'ArialMT'" font-size="12px">0</text>
				<text transform="matrix(1 0 0 1 -212.3008 50.3359)" display="inline" font-family="'ArialMT'" font-size="12px">1</text>
				<text transform="matrix(1 0 0 1 -205.627 50.3359)" display="inline" font-family="'ArialMT'" font-size="12px">6</text>
			</g>
		</g>
		<g>
			<line fill="none" stroke="#666666" stroke-dasharray="4" x1="-27.344" y1="281.942" x2="484.428" y2="281.942"/>
		</g>
		<g transform="translate(680,292.1795219835533)">
			<g display="none">
				<text transform="matrix(1 0 0 1 -258.5107 -52.9998)" display="inline" font-family="'ArialMT'" font-size="12px">M</text>
				<text transform="matrix(1 0 0 1 -248.5146 -52.9998)" display="inline" font-family="'ArialMT'" font-size="12px">T</text>
				<text transform="matrix(1 0 0 1 -241.4014 -52.9998)" display="inline" font-family="'ArialMT'" font-size="12px"> </text>
				<text transform="matrix(1 0 0 1 -238.0674 -52.9998)" display="inline" font-family="'ArialMT'" font-size="12px">o</text>
				<text transform="matrix(1 0 0 1 -231.3936 -52.9998)" display="inline" font-family="'ArialMT'" font-size="12px">v</text>
				<text transform="matrix(1 0 0 1 -225.3936 -52.9998)" display="inline" font-family="'ArialMT'" font-size="12px">e</text>
				<text transform="matrix(1 0 0 1 -218.7197 -52.9998)" display="inline" font-family="'ArialMT'" font-size="12px">r</text>
				<text transform="matrix(1 0 0 1 -214.7236 -52.9998)" display="inline" font-family="'ArialMT'" font-size="12px">a</text>
				<text transform="matrix(1 0 0 1 -208.0498 -52.9998)" display="inline" font-family="'ArialMT'" font-size="12px">l</text>
				<text transform="matrix(1 0 0 1 -205.3838 -52.9998)" display="inline" font-family="'ArialMT'" font-size="12px">l</text>
				<text transform="matrix(1 0 0 1 -202.7178 -52.9998)" display="inline" font-family="'ArialMT'" font-size="12px"> </text>
				<text transform="matrix(1 0 0 1 -254.749 -38.5995)" display="inline" font-family="'ArialMT'" font-size="12px">j</text>
				<text transform="matrix(1 0 0 1 -252.083 -38.5995)" display="inline" font-family="'ArialMT'" font-size="12px">o</text>
				<text transform="matrix(1 0 0 1 -245.4092 -38.5995)" display="inline" font-family="'ArialMT'" font-size="12px">b</text>
				<text transform="matrix(1 0 0 1 -238.7354 -38.5995)" display="inline" font-family="'ArialMT'" font-size="12px"> </text>
				<text transform="matrix(1 0 0 1 -235.4014 -38.5995)" display="inline" font-family="'ArialMT'" font-size="12px">g</text>
				<text transform="matrix(1 0 0 1 -228.7275 -38.5995)" display="inline" font-family="'ArialMT'" font-size="12px">r</text>
				<text transform="matrix(1 0 0 1 -224.7314 -38.5995)" display="inline" font-family="'ArialMT'" font-size="12px">o</text>
				<text transform="matrix(1 0 0 1 -218.0576 -38.5995)" display="inline" font-family="'ArialMT'" font-size="12px">w</text>
				<text transform="matrix(1 0 0 1 -209.3916 -38.5995)" display="inline" font-family="'ArialMT'" font-size="12px">t</text>
				<text transform="matrix(1 0 0 1 -206.0576 -38.5995)" display="inline" font-family="'ArialMT'" font-size="12px">h</text>
				<text transform="matrix(1 0 0 1 -248.4092 -24.2)" display="inline" font-family="'ArialMT'" font-size="12px">(</text>
				<text transform="matrix(1 0 0 1 -244.4131 -24.2)" display="inline" font-family="'ArialMT'" font-size="12px">+</text>
				<text transform="matrix(1 0 0 1 -237.4053 -24.2)" display="inline" font-family="'ArialMT'" font-size="12px">1</text>
				<text transform="matrix(1 0 0 1 -230.7314 -24.2)" display="inline" font-family="'ArialMT'" font-size="12px">9</text>
				<text transform="matrix(1 0 0 1 -224.0576 -24.2)" display="inline" font-family="'ArialMT'" font-size="12px">.</text>
				<text transform="matrix(1 0 0 1 -220.7236 -24.2)" display="inline" font-family="'ArialMT'" font-size="12px">6</text>
				<text transform="matrix(1 0 0 1 -214.0498 -24.2)" display="inline" font-family="'ArialMT'" font-size="12px">%</text>
				<text transform="matrix(1 0 0 1 -203.3799 -24.2)" display="inline" font-family="'ArialMT'" font-size="12px">)</text>
			</g>
		</g>
		<g>
			<line fill="none" stroke="#666666" stroke-dasharray="4" x1="130.013" y1="58.283" x2="130.013" y2="391.939"/>
		</g>
		<g transform="translate(214.083,20)">
			<g display="none">
				<text transform="matrix(1 0 0 1 -71.3066 53.3359)" display="inline" font-family="'ArialMT'" font-size="12px">M</text>
				<text transform="matrix(1 0 0 1 -61.3105 53.3359)" display="inline" font-family="'ArialMT'" font-size="12px">T</text>
				<text transform="matrix(1 0 0 1 -54.1973 53.3359)" display="inline" font-family="'ArialMT'" font-size="12px"> </text>
				<text transform="matrix(1 0 0 1 -50.8633 53.3359)" display="inline" font-family="'ArialMT'" font-size="12px">a</text>
				<text transform="matrix(1 0 0 1 -44.1894 53.3359)" display="inline" font-family="'ArialMT'" font-size="12px">v</text>
				<text transform="matrix(1 0 0 1 -38.1894 53.3359)" display="inline" font-family="'ArialMT'" font-size="12px">g</text>
				<text transform="matrix(1 0 0 1 -31.5156 53.3359)" display="inline" font-family="'ArialMT'" font-size="12px">.</text>
				<text transform="matrix(1 0 0 1 -71.3066 67.7363)" display="inline" font-family="'ArialMT'" font-size="12px">(</text>
				<text transform="matrix(1 0 0 1 -67.3105 67.7363)" display="inline" font-family="'ArialMT'" font-size="12px">$</text>
				<text transform="matrix(1 0 0 1 -60.6367 67.7363)" display="inline" font-family="'ArialMT'" font-size="12px">3</text>
				<text transform="matrix(1 0 0 1 -53.9629 67.7363)" display="inline" font-family="'ArialMT'" font-size="12px">6</text>
				<text transform="matrix(1 0 0 1 -47.289 67.7363)" display="inline" font-family="'ArialMT'" font-size="12px">,</text>
				<text transform="matrix(1 0 0 1 -43.9551 67.7363)" display="inline" font-family="'ArialMT'" font-size="12px">9</text>
				<text transform="matrix(1 0 0 1 -37.2812 67.7363)" display="inline" font-family="'ArialMT'" font-size="12px">0</text>
				<text transform="matrix(1 0 0 1 -30.6074 67.7363)" display="inline" font-family="'ArialMT'" font-size="12px">0</text>
				<text transform="matrix(1 0 0 1 -23.9336 67.7363)" display="inline" font-family="'ArialMT'" font-size="12px">)</text>
			</g>
		</g>
		<g>
			<path fill="none" stroke="#000000" stroke-opacity="0.5" d="M484.428,336.329"/>
			<path fill="none" stroke="#000000" stroke-opacity="0.5" d="M-27.344,336.329"/>
		</g>
		<g>
			<g transform="translate(149.33659707788107,330.9765342468169)">
				<circle fill="#E7298A" fill-opacity="0.7" stroke="#E7298A" stroke-opacity="0.9" cx="-64.289" cy="-23.598" r="24.036"/>
				
					<text transform="matrix(1 0 0 1 -47.4899 3.4024)" display="none" fill="#E7298A" font-family="'Arial-ItalicMT'" font-size="12px">Retail trade</text>
			</g>
			<g transform="translate(278.53340587787744,241.0462974553387)">
				<circle fill="#E6AB02" fill-opacity="0.7" stroke="#E6AB02" stroke-opacity="0.9" cx="-96.251" cy="-1.35" r="23.856"/>
				<g display="none">
					
						<text transform="matrix(1 0 0 1 -70.632 -12.35)" display="inline" fill="#E6AB02" font-family="'Arial-ItalicMT'" font-size="12px">Healthcare &amp; </text>
					
						<text transform="matrix(1 0 0 1 -70.632 2.0504)" display="inline" fill="#E6AB02" font-family="'Arial-ItalicMT'" font-size="12px">social work</text>
				</g>
			</g>
			<g transform="translate(118.46838095566157,274.1134969472852)">
				<circle fill="#66A61E" fill-opacity="0.7" stroke="#66A61E" stroke-opacity="0.9" cx="-56.652" cy="-9.531" r="20.94"/>
				<g display="none">
					
						<text transform="matrix(1 0 0 1 -118.2965 -22.5305)" display="inline" fill="#66A61E" font-family="'Arial-ItalicMT'" font-size="12px">Hotels/</text>
					
						<text transform="matrix(1 0 0 1 -140.9781 -8.1301)" display="inline" fill="#66A61E" font-family="'Arial-ItalicMT'" font-size="12px">restaurants</text>
				</g>
			</g>
			<g transform="translate(298.55857083936274,343.4808388699347)">
				<circle fill="#A6761D" fill-opacity="0.7" stroke="#A6761D" stroke-opacity="0.9" cx="-101.205" cy="-26.692" r="18.977"/>
				
					<text transform="matrix(1 0 0 1 -78.4658 -14.6918)" display="none" fill="#A6761D" font-family="'Arial-ItalicMT'" font-size="12px">Local government</text>
			</g>
			<g transform="translate(204.75492018529994,305.04129129129126)">
				<circle fill="#D95F02" fill-opacity="0.7" stroke="#D95F02" stroke-opacity="0.9" cx="-77.999" cy="-17.182" r="18.473"/>
				
					<text transform="matrix(1 0 0 1 -92.7622 12.8181)" display="none" fill="#D95F02" font-family="'Arial-ItalicMT'" font-size="12px">Construction</text>
			</g>
			<g transform="translate(223.2973972197575,242.20892880811476)">
				<circle fill="#66A61E" fill-opacity="0.7" stroke="#66A61E" stroke-opacity="0.9" cx="-82.586" cy="-1.638" r="17.011"/>
				<g display="none">
					
						<text transform="matrix(1 0 0 1 -115.8296 -35.6376)" display="inline" fill="#66A61E" font-family="'Arial-ItalicMT'" font-size="12px">Professional</text>
					
						<text transform="matrix(1 0 0 1 -104.8169 -21.2372)" display="inline" fill="#66A61E" font-family="'Arial-ItalicMT'" font-size="12px">services</text>
				</g>
			</g>
			<g transform="translate(37.261653401134936,44.953165374676985)">
				<circle fill="#66A61E" fill-opacity="0.7" stroke="#66A61E" stroke-opacity="0.9" cx="-36.562" cy="47.162" r="16.531"/>
				
					<text transform="matrix(1 0 0 1 -16.268 47.1621)" display="none" fill="#66A61E" font-family="'Arial-ItalicMT'" font-size="12px">Real estate</text>
			</g>
			<g transform="translate(117.77272981748962,314.9646498713405)">
				<circle fill="#66A61E" fill-opacity="0.7" stroke="#66A61E" stroke-opacity="0.9" cx="-56.48" cy="-19.637" r="16.425"/>
				<g display="none">
					
						<text transform="matrix(1 0 0 1 -106.303 -21.6365)" display="inline" fill="#66A61E" font-family="'Arial-ItalicMT'" font-size="12px">Other</text>
					
						<text transform="matrix(1 0 0 1 -120.301 -7.2361)" display="inline" fill="#66A61E" font-family="'Arial-ItalicMT'" font-size="12px">services</text>
				</g>
			</g>
			<g transform="translate(54.60496733759988,394.8505949440052)">
				<circle fill="#1B9E77" fill-opacity="0.7" stroke="#1B9E77" stroke-opacity="0.9" cx="-40.853" cy="-39.4" r="15.091"/>
				
					<text transform="matrix(1 0 0 1 -21.998 -39.4004)" display="none" fill="#1B9E77" font-family="'Arial-ItalicMT'" font-size="12px">Farm</text>
			</g>
			<g transform="translate(335.5388144435971,318.20528194737346)">
				<circle fill="#A6761D" fill-opacity="0.7" stroke="#A6761D" stroke-opacity="0.9" cx="-110.354" cy="-20.439" r="14.421"/>
				
					<text transform="matrix(1 0 0 1 -92.1697 -6.4387)" display="none" fill="#A6761D" font-family="'Arial-ItalicMT'" font-size="12px">State government</text>
			</g>
			<g transform="translate(273.06353121967004,289.2347951633278)">
				<circle fill="#66A61E" fill-opacity="0.7" stroke="#66A61E" stroke-opacity="0.9" cx="-94.898" cy="-13.272" r="13.666"/>
				
					<text transform="matrix(1 0 0 1 -149.1607 -21.2719)" display="none" fill="#66A61E" font-family="'Arial-ItalicMT'" font-size="12px">Finance</text>
			</g>
			<g transform="translate(155.3182349463031,321.7431076332282)">
				<circle fill="#66A61E" fill-opacity="0.7" stroke="#66A61E" stroke-opacity="0.9" cx="-65.769" cy="-21.314" r="13.53"/>
				<g display="none">
					
						<text transform="matrix(1 0 0 1 -69.475 -56.3134)" display="inline" fill="#66A61E" font-family="'Arial-ItalicMT'" font-size="12px">Admin</text>
					
						<text transform="matrix(1 0 0 1 -69.475 -41.913)" display="inline" fill="#66A61E" font-family="'Arial-ItalicMT'" font-size="12px">support</text>
				</g>
			</g>
			<g transform="translate(289.87812465126666,377.5494797351378)">
				<circle fill="#7570B3" fill-opacity="0.7" stroke="#7570B3" stroke-opacity="0.9" cx="-99.058" cy="-35.12" r="13.434"/>
				
					<text transform="matrix(1 0 0 1 -82.861 -28.1198)" display="none" fill="#7570B3" font-family="'Arial-ItalicMT'" font-size="12px">Manufacturing</text>
			</g>
			<g transform="translate(301.82725072374353,284.55458931559076)">
				<circle fill="#E7298A" fill-opacity="0.7" stroke="#E7298A" stroke-opacity="0.9" cx="-102.014" cy="-12.114" r="12.615"/>
				
					<text transform="matrix(1 0 0 1 -90.6358 -20.1132)" display="none" fill="#E7298A" font-family="'Arial-ItalicMT'" font-size="12px">Wholesale trade</text>
			</g>
			<g transform="translate(97.42276261043976,211.47455314181136)">
				<circle fill="#66A61E" fill-opacity="0.7" stroke="#66A61E" stroke-opacity="0.9" cx="-51.446" cy="5.966" r="12.323"/>
				
					<text transform="matrix(1 0 0 1 -88.3739 -11.0341)" display="none" fill="#66A61E" font-family="'Arial-ItalicMT'" font-size="12px">Arts/recreation</text>
			</g>
			<g transform="translate(282.8458628366729,316.960280135607)">
				<circle fill="#E7298A" fill-opacity="0.7" stroke="#E7298A" stroke-opacity="0.9" cx="-97.318" cy="-20.131" r="12.263"/>
				<g display="none">
					
						<text transform="matrix(1 0 0 1 -87.2917 -22.1302)" display="inline" fill="#E7298A" font-family="'Arial-ItalicMT'" font-size="12px">T</text>
					
						<text transform="matrix(1 0 0 1 -80.8522 -22.1302)" display="inline" fill="#E7298A" font-family="'Arial-ItalicMT'" font-size="12px">r</text>
					
						<text transform="matrix(1 0 0 1 -76.8561 -22.1302)" display="inline" fill="#E7298A" font-family="'Arial-ItalicMT'" font-size="12px">a</text>
					
						<text transform="matrix(1 0 0 1 -70.1823 -22.1302)" display="inline" fill="#E7298A" font-family="'Arial-ItalicMT'" font-size="12px">n</text>
					
						<text transform="matrix(1 0 0 1 -63.5085 -22.1302)" display="inline" fill="#E7298A" font-family="'Arial-ItalicMT'" font-size="12px">s</text>
					
						<text transform="matrix(1 0 0 1 -57.5085 -22.1302)" display="inline" fill="#E7298A" font-family="'Arial-ItalicMT'" font-size="12px">p</text>
					
						<text transform="matrix(1 0 0 1 -50.8346 -22.1302)" display="inline" fill="#E7298A" font-family="'Arial-ItalicMT'" font-size="12px">o</text>
					
						<text transform="matrix(1 0 0 1 -44.1608 -22.1302)" display="inline" fill="#E7298A" font-family="'Arial-ItalicMT'" font-size="12px">r</text>
					
						<text transform="matrix(1 0 0 1 -40.1647 -22.1302)" display="inline" fill="#E7298A" font-family="'Arial-ItalicMT'" font-size="12px">a</text>
					
						<text transform="matrix(1 0 0 1 -33.4909 -22.1302)" display="inline" fill="#E7298A" font-family="'Arial-ItalicMT'" font-size="12px">t</text>
					
						<text transform="matrix(1 0 0 1 -30.1569 -22.1302)" display="inline" fill="#E7298A" font-family="'Arial-ItalicMT'" font-size="12px">i</text>
					
						<text transform="matrix(1 0 0 1 -27.4909 -22.1302)" display="inline" fill="#E7298A" font-family="'Arial-ItalicMT'" font-size="12px">o</text>
					
						<text transform="matrix(1 0 0 1 -20.817 -22.1302)" display="inline" fill="#E7298A" font-family="'Arial-ItalicMT'" font-size="12px">n</text>
				</g>
			</g>
			<g transform="translate(547.6366001300715,361.7176128093158)">
				<circle fill="#A6761D" fill-opacity="0.7" stroke="#A6761D" stroke-opacity="0.9" cx="-162.826" cy="-31.204" r="10.032"/>
				
					<text transform="matrix(1 0 0 1 -201.0477 -48.203)" display="none" fill="#A6761D" font-family="'Arial-ItalicMT'" font-size="12px">Federal civilian</text>
			</g>
			<g transform="translate(304.5868424557198,80.16297035031891)">
				<circle fill="#1B9E77" fill-opacity="0.7" stroke="#1B9E77" stroke-opacity="0.9" cx="-102.697" cy="38.451" r="9.722"/>
				
					<text transform="matrix(1 0 0 1 -89.2119 38.4513)" display="none" fill="#1B9E77" font-family="'Arial-ItalicMT'" font-size="12px">Mining/oil</text>
			</g>
			<g transform="translate(112.11387141858839,121.20574833508584)">
				<circle fill="#66A61E" fill-opacity="0.7" stroke="#66A61E" stroke-opacity="0.9" cx="-55.08" cy="28.298" r="8.488"/>
				<g display="none">
					
						<text transform="matrix(1 0 0 1 -42.8287 25.2982)" display="inline" fill="#66A61E" font-family="'Arial-ItalicMT'" font-size="12px">Private</text>
					
						<text transform="matrix(1 0 0 1 -42.8287 39.6985)" display="inline" fill="#66A61E" font-family="'Arial-ItalicMT'" font-size="12px">education</text>
				</g>
			</g>
			<g transform="translate(276.4928020459514,420.9124744085868)">
				<circle fill="#66A61E" fill-opacity="0.7" stroke="#66A61E" stroke-opacity="0.9" cx="-95.746" cy="-45.848" r="7.812"/>
				
					<text transform="matrix(1 0 0 1 -81.171 -37.848)" display="none" fill="#66A61E" font-family="'Arial-ItalicMT'" font-size="12px">Information</text>
			</g>
			<g transform="translate(296.45214395099543,392.64242714188885)">
				<circle fill="#A6761D" fill-opacity="0.7" stroke="#A6761D" stroke-opacity="0.9" cx="-100.684" cy="-38.854" r="7.693"/>
				
					<text transform="matrix(1 0 0 1 -93.2285 -25.8534)" display="none" fill="#A6761D" font-family="'Arial-ItalicMT'" font-size="12px">Military</text>
			</g>
			<g transform="translate(126.60598168164258,336.2542183114138)">
				<circle fill="#1B9E77" fill-opacity="0.7" stroke="#1B9E77" stroke-opacity="0.9" cx="-58.665" cy="-24.904" r="7.615"/>
				
					<text transform="matrix(1 0 0 1 -111.2906 -12.9036)" display="none" fill="#1B9E77" font-family="'Arial-ItalicMT'" font-size="12px">Forestry</text>
			</g>
			<g transform="translate(633.3831155361959,370.81869532272503)">
				<circle fill="#1B9E77" fill-opacity="0.7" stroke="#1B9E77" stroke-opacity="0.9" cx="-184.039" cy="-33.455" r="4.927"/>
				
					<text transform="matrix(1 0 0 1 -225.0208 -17.4544)" display="none" fill="#1B9E77" font-family="'Arial-ItalicMT'" font-size="12px">Utilities</text>
			</g>
			<g transform="translate(406.62839410395657,50.220936771912875)">
				<circle fill="#66A61E" fill-opacity="0.7" stroke="#66A61E" stroke-opacity="0.9" cx="-127.941" cy="45.859" r="4.412"/>
				
					<text transform="matrix(1 0 0 1 -119.7656 45.8591)" display="none" fill="#66A61E" font-family="'Arial-ItalicMT'" font-size="12px">Business management</text>
			</g>
		</g>
		<rect x="631.283" y="98.746" fill="#EDDC22" fill-opacity="0.2" width="13.924" height="147.867"/>
	</g>
	<g>
		<line fill="none" stroke="#000000" x1="218.5" y1="111.5" x2="215.03" y2="111.5"/>
		<g>
			<polygon points="211.5,111.5 216.475,109.467 215.294,111.5 216.475,113.532 			"/>
		</g>
	</g>
	<g>
		<line fill="none" stroke="#000000" x1="542.5" y1="313" x2="542.5" y2="315.412"/>
		<g>
			<polygon points="542.5,318.942 540.467,313.968 542.5,315.148 544.532,313.968 			"/>
		</g>
	</g>
	<g>
		<path fill="none" stroke="#000000" stroke-miterlimit="10" d="M351.5,232c-40.708,0.403-62.897,16.726-69.971,23.041"/>
		<g>
			<polygon points="279,257.5 281.227,252.609 281.762,254.898 284.014,255.568 			"/>
		</g>
	</g>
	<g>
		<g>
			<circle fill="#848484" fill-opacity="0.7" stroke="#848484" stroke-opacity="0.9" cx="145.765" cy="52.679" r="3.325"/>
			<circle fill="#848484" fill-opacity="0.7" stroke="#848484" stroke-opacity="0.9" cx="161.307" cy="52.679" r="8.479"/>
			<circle fill="#848484" fill-opacity="0.7" stroke="#848484" stroke-opacity="0.9" cx="187.786" cy="52.679" r="14"/>
			<g display="none">
				<text transform="matrix(1 0 0 1 208.0791 49.2014)" display="inline" font-family="'Arial-ItalicMT'" font-size="12px">Bigger</text>
				<text transform="matrix(1 0 0 1 208.0791 63.6018)" display="inline" font-family="'Arial-ItalicMT'" font-size="12px">sectors</text>
			</g>
			<g display="none">
				<text transform="matrix(1 0 0 1 97.4033 49.2014)" display="inline" font-family="'Arial-ItalicMT'" font-size="12px">Smaller</text>
				<text transform="matrix(1 0 0 1 99.4014 63.6018)" display="inline" font-family="'Arial-ItalicMT'" font-size="12px">sectors</text>
			</g>
		</g>
	</g>
	<g>
		<polygon fill="#EDDC22" fill-opacity="0.2" points="517.5,52.339 389.5,52.839 389.5,69.839 517.5,69.839 		"/>
		<rect x="267.5" y="35.839" fill="#EDDC22" fill-opacity="0.2" width="123" height="17"/>
		<g>
			<line fill="none" stroke="#666666" x1="267.5" y1="52.839" x2="269.5" y2="52.836"/>
			<line fill="none" stroke="#666666" stroke-dasharray="4.0328,4.0328" x1="273.533" y1="52.831" x2="513.484" y2="52.505"/>
			<line fill="none" stroke="#666666" x1="515.5" y1="52.503" x2="517.5" y2="52.5"/>
		</g>
		<line fill="none" stroke="#666666" stroke-dasharray="4" x1="390" y1="38.839" x2="390" y2="70.339"/>
	</g>
</g>
<style type="text/css">
#g-mt-economy-4-sector-change-medium-img rect, #g-mt-economy-4-sector-change-medium-img circle, #g-mt-economy-4-sector-change-medium-img path, #g-mt-economy-4-sector-change-medium-img line, #g-mt-economy-4-sector-change-medium-img polyline { vector-effect: non-scaling-stroke; }
</style>
</svg>

