<?xml version="1.0" encoding="utf-8"?>
<!-- Generator: Adobe Illustrator 22.1.0, SVG Export Plug-In . SVG Version: 6.00 Build 0)  -->
<svg version="1.2" baseProfile="tiny" id="g-mt-economy-6-income-components-mobile-img" xmlns="http://www.w3.org/2000/svg" xmlns:xlink="http://www.w3.org/1999/xlink"
	 x="0px" y="0px" viewBox="0 0 300 412" xml:space="preserve">
<g>
	<g transform="translate(50,40)">
		<g>
			<line fill="none" stroke="#666666" stroke-dasharray="2" x1="-18.619" y1="47.817" x2="243.258" y2="47.817"/>
		</g>
		<g>
			<g transform="translate(0,220.5)">
				<line fill="none" stroke="#BBBBBB" x1="-18.619" y1="44.5" x2="243.258" y2="44.5"/>
			</g>
			<g transform="translate(0,176.5)">
				<line fill="none" stroke="#BBBBBB" x1="-18.619" y1="44.5" x2="243.258" y2="44.5"/>
			</g>
			<g transform="translate(0,132.5)">
				<line fill="none" stroke="#BBBBBB" x1="-18.619" y1="44.5" x2="243.258" y2="44.5"/>
			</g>
			<g transform="translate(0,88.5)">
				<line fill="none" stroke="#BBBBBB" x1="-18.619" y1="44.5" x2="243.258" y2="44.5"/>
			</g>
			<g transform="translate(0,44.5)">
				<line fill="none" stroke="#BBBBBB" x1="-18.619" y1="44.5" x2="243.258" y2="44.5"/>
			</g>
		</g>
		<g>
			<rect x="-13.943" y="47.817" fill="#FFFFFF" stroke="#444444" width="18.705" height="216.683"/>
			<rect x="9.439" y="75.534" fill="#FFFFFF" stroke="#444444" width="18.705" height="188.966"/>
			<rect x="32.821" y="53.479" fill="#FFFFFF" stroke="#86BF86" width="18.705" height="211.021"/>
			<rect x="56.203" y="55.643" fill="#FFFFFF" stroke="#86BF86" width="18.705" height="208.857"/>
			<rect x="79.585" y="67.676" fill="#FFFFFF" stroke="#86BF86" width="18.705" height="196.824"/>
			<rect x="102.966" y="68.8" fill="#FFFFFF" stroke="#86BF86" width="18.705" height="195.7"/>
			<rect x="126.348" y="73.648" fill="#FFFFFF" stroke="#86BF86" width="18.705" height="190.852"/>
			<rect x="149.73" y="76.413" fill="#FFFFFF" stroke="#86BF86" width="18.705" height="188.087"/>
			<rect x="173.112" y="78.371" fill="#FFFFFF" stroke="#86BF86" width="18.705" height="186.129"/>
			<rect x="196.494" y="91.838" fill="#FFFFFF" stroke="#F2DF91" width="18.705" height="172.662"/>
			<rect x="219.876" y="96.732" fill="#FFFFFF" stroke="#E5AE89" width="18.705" height="167.768"/>
		</g>
		<g>
			<rect x="-13.943" y="127.45" fill="#444444" stroke="#444444" width="18.705" height="137.05"/>
			<rect x="9.439" y="156.285" fill="#444444" stroke="#444444" width="18.705" height="108.215"/>
			<rect x="32.821" y="130.436" fill="#86BF86" stroke="#86BF86" width="18.705" height="134.064"/>
			<rect x="56.203" y="127.973" fill="#86BF86" stroke="#86BF86" width="18.705" height="136.527"/>
			<rect x="79.585" y="145.765" fill="#86BF86" stroke="#86BF86" width="18.705" height="118.735"/>
			<rect x="102.966" y="148.833" fill="#86BF86" stroke="#86BF86" width="18.705" height="115.667"/>
			<rect x="126.348" y="155.936" fill="#86BF86" stroke="#86BF86" width="18.705" height="108.564"/>
			<rect x="149.73" y="164.28" fill="#86BF86" stroke="#86BF86" width="18.705" height="100.22"/>
			<rect x="173.112" y="161.265" fill="#86BF86" stroke="#86BF86" width="18.705" height="103.235"/>
			<rect x="196.494" y="170.878" fill="#F2DF91" stroke="#F2DF91" width="18.705" height="93.622"/>
			<rect x="219.876" y="183.944" fill="#E5AE89" stroke="#E5AE89" width="18.705" height="80.556"/>
		</g>
		<g>
			<rect x="-13.943" y="85.513" fill="#444444" fill-opacity="0.5" stroke="#444444" width="18.705" height="41.937"/>
			<rect x="9.439" y="112.093" fill="#444444" fill-opacity="0.5" stroke="#444444" width="18.705" height="44.192"/>
			<rect x="32.821" y="75.952" fill="#86BF86" fill-opacity="0.5" stroke="#86BF86" width="18.705" height="54.484"/>
			<rect x="56.203" y="89.981" fill="#86BF86" fill-opacity="0.5" stroke="#86BF86" width="18.705" height="37.992"/>
			<rect x="79.585" y="103.831" fill="#86BF86" fill-opacity="0.5" stroke="#86BF86" width="18.705" height="41.934"/>
			<rect x="102.966" y="112.106" fill="#86BF86" fill-opacity="0.5" stroke="#86BF86" width="18.705" height="36.728"/>
			<rect x="126.348" y="113.974" fill="#86BF86" fill-opacity="0.5" stroke="#86BF86" width="18.705" height="41.963"/>
			<rect x="149.73" y="112" fill="#86BF86" fill-opacity="0.5" stroke="#86BF86" width="18.705" height="52.28"/>
			<rect x="173.112" y="115.652" fill="#86BF86" fill-opacity="0.5" stroke="#86BF86" width="18.705" height="45.613"/>
			<rect x="196.494" y="130.066" fill="#F2DF91" fill-opacity="0.5" stroke="#F2DF91" width="18.705" height="40.812"/>
			<rect x="219.876" y="141.057" fill="#E5AE89" fill-opacity="0.5" stroke="#E5AE89" width="18.705" height="42.887"/>
		</g>
		<g>
			<rect x="-13.943" y="47.817" fill="#444444" fill-opacity="0.1" stroke="#444444" width="18.705" height="37.696"/>
			<rect x="9.439" y="75.534" fill="#444444" fill-opacity="0.1" stroke="#444444" width="18.705" height="36.558"/>
			<rect x="32.821" y="53.479" fill="#86BF86" fill-opacity="0.1" stroke="#86BF86" width="18.705" height="22.473"/>
			<rect x="56.203" y="55.643" fill="#86BF86" fill-opacity="0.1" stroke="#86BF86" width="18.705" height="34.338"/>
			<rect x="79.585" y="67.676" fill="#86BF86" fill-opacity="0.1" stroke="#86BF86" width="18.705" height="36.155"/>
			<rect x="102.966" y="68.8" fill="#86BF86" fill-opacity="0.1" stroke="#86BF86" width="18.705" height="43.306"/>
			<rect x="126.348" y="73.648" fill="#86BF86" fill-opacity="0.1" stroke="#86BF86" width="18.705" height="40.326"/>
			<rect x="149.73" y="76.413" fill="#86BF86" fill-opacity="0.1" stroke="#86BF86" width="18.705" height="35.587"/>
			<rect x="173.112" y="78.371" fill="#86BF86" fill-opacity="0.1" stroke="#86BF86" width="18.705" height="37.281"/>
			<rect x="196.494" y="91.838" fill="#F2DF91" fill-opacity="0.1" stroke="#F2DF91" width="18.705" height="38.228"/>
			<rect x="219.876" y="96.732" fill="#E5AE89" fill-opacity="0.1" stroke="#E5AE89" width="18.705" height="44.325"/>
		</g>
		<g transform="translate(0,220)">
			<path fill="none" stroke="#000000" d="M-18.377,45H243.5"/>
			<g transform="translate(28.928571428571452,0)">
				<line fill="none" stroke="#000000" x1="-33.519" y1="44.5" x2="-33.519" y2="50.5"/>
				<text transform="matrix(1 0 0 1 -40.4383 60.5996)" display="none" font-family="'ArialMT'" font-size="10px">US</text>
			</g>
			<g transform="translate(77.14285714285717,0)">
				<line fill="none" stroke="#000000" x1="-58.351" y1="44.5" x2="-58.351" y2="50.5"/>
				<g display="none">
					<text transform="matrix(1 0 0 1 -66.43 60.5996)" display="inline" font-family="'ArialMT'" font-size="10px">M</text>
					<text transform="matrix(1 0 0 1 -58.0999 60.5996)" display="inline" font-family="'ArialMT'" font-size="10px">T</text>
				</g>
			</g>
			<g transform="translate(125.35714285714286,0)">
				<line fill="none" stroke="#000000" x1="-83.184" y1="44.5" x2="-83.184" y2="50.5"/>
				<text transform="matrix(1 0 0 1 -92.344 60.5996)" display="none" font-family="'ArialMT'" font-size="10px">Bzn</text>
			</g>
			<g transform="translate(173.57142857142856,0)">
				<line fill="none" stroke="#000000" x1="-108.016" y1="44.5" x2="-108.016" y2="50.5"/>
				<text transform="matrix(1 0 0 1 -113.9796 60.5996)" display="none" font-family="'ArialMT'" font-size="10px">Bil</text>
			</g>
			<g transform="translate(221.78571428571428,0)">
				<line fill="none" stroke="#000000" x1="-132.848" y1="44.5" x2="-132.848" y2="50.5"/>
				<text transform="matrix(1 0 0 1 -140.7603 60.5996)" display="none" font-family="'ArialMT'" font-size="10px">Hel</text>
			</g>
			<g transform="translate(270,0)">
				<line fill="none" stroke="#000000" x1="-157.681" y1="44.5" x2="-157.681" y2="50.5"/>
				<text transform="matrix(1 0 0 1 -164.6064 60.5996)" display="none" font-family="'ArialMT'" font-size="10px">Btt</text>
			</g>
			<g transform="translate(318.21428571428567,0)">
				<line fill="none" stroke="#000000" x1="-182.513" y1="44.5" x2="-182.513" y2="50.5"/>
				<text transform="matrix(1 0 0 1 -189.6752 60.5996)" display="none" font-family="'ArialMT'" font-size="10px">GF</text>
			</g>
			<g transform="translate(366.4285714285714,0)">
				<line fill="none" stroke="#000000" x1="-207.346" y1="44.5" x2="-207.346" y2="50.5"/>
				<text transform="matrix(1 0 0 1 -217.6302 60.5996)" display="none" font-family="'ArialMT'" font-size="10px">Msa</text>
			</g>
			<g transform="translate(414.6428571428571,0)">
				<line fill="none" stroke="#000000" x1="-232.178" y1="44.5" x2="-232.178" y2="50.5"/>
				<text transform="matrix(1 0 0 1 -239.7063 60.5996)" display="none" font-family="'ArialMT'" font-size="10px">Kal</text>
			</g>
			<g transform="translate(462.85714285714283,0)">
				<line fill="none" stroke="#000000" x1="-257.011" y1="44.5" x2="-257.011" y2="50.5"/>
				<text transform="matrix(1 0 0 1 -267.5222 60.5996)" display="none" font-family="'ArialMT'" font-size="10px">Plns</text>
			</g>
			<g transform="translate(511.07142857142856,0)">
				<line fill="none" stroke="#000000" x1="-281.843" y1="44.5" x2="-281.843" y2="50.5"/>
				<text transform="matrix(1 0 0 1 -289.9308 60.5996)" display="none" font-family="'ArialMT'" font-size="10px">Mts</text>
			</g>
		</g>
		<g>
			<g transform="translate(0,220.5)">
				<line fill="none" stroke="#000000" x1="-18.619" y1="44.5" x2="-21.529" y2="44.5"/>
				<text transform="matrix(1 0 0 1 -33.501 47.7002)" display="none" font-family="'ArialMT'" font-size="10px">$0</text>
			</g>
			<g transform="translate(0,176.5)">
				<line fill="none" stroke="#000000" x1="-18.619" y1="44.5" x2="-21.529" y2="44.5"/>
				<text transform="matrix(1 0 0 1 -44.0625 47.7002)" display="none" font-family="'ArialMT'" font-size="10px">$10k</text>
			</g>
			<g transform="translate(0,132.5)">
				<line fill="none" stroke="#000000" x1="-18.619" y1="44.5" x2="-21.529" y2="44.5"/>
				<text transform="matrix(1 0 0 1 -44.0625 47.7002)" display="none" font-family="'ArialMT'" font-size="10px">$20k</text>
			</g>
			<g transform="translate(0,88.5)">
				<line fill="none" stroke="#000000" x1="-18.619" y1="44.5" x2="-21.529" y2="44.5"/>
				<text transform="matrix(1 0 0 1 -44.0625 47.7002)" display="none" font-family="'ArialMT'" font-size="10px">$30k</text>
			</g>
			<g transform="translate(0,44.5)">
				<line fill="none" stroke="#000000" x1="-18.619" y1="44.5" x2="-21.529" y2="44.5"/>
				<text transform="matrix(1 0 0 1 -44.0625 47.7002)" display="none" font-family="'ArialMT'" font-size="10px">$40k</text>
			</g>
			<g transform="translate(0,0.5)">
				<line fill="none" stroke="#000000" x1="-18.619" y1="44.5" x2="-21.529" y2="44.5"/>
				<text transform="matrix(1 0 0 1 -44.0625 47.7002)" display="none" font-family="'ArialMT'" font-size="10px">$50k</text>
			</g>
		</g>
	</g>
	<rect x="35.965" y="33.77" fill="#444444" stroke="#444444" width="10" height="10"/>
	<rect x="102" y="33.77" fill="#444444" fill-opacity="0.5" stroke="#444444" width="10" height="10"/>
	<rect x="35.965" y="50.508" fill="#444444" fill-opacity="0.1" stroke="#444444" width="10" height="10"/>
	<g>
		<path fill="none" stroke="#000000" stroke-miterlimit="10" d="M260.761,354.5c17.247,0,18.208-13.915,18.155-22.473"/>
		<g>
			<polygon points="278.875,328.5 280.942,333.461 278.901,332.294 276.877,333.488 			"/>
		</g>
	</g>
</g>
<style type="text/css">
#g-mt-economy-6-income-components-mobile-img rect, #g-mt-economy-6-income-components-mobile-img circle, #g-mt-economy-6-income-components-mobile-img path, #g-mt-economy-6-income-components-mobile-img line, #g-mt-economy-6-income-components-mobile-img polyline { vector-effect: non-scaling-stroke; }
</style>
</svg>

