<?xml version="1.0" encoding="utf-8"?>
<!-- Generator: Adobe Illustrator 22.1.0, SVG Export Plug-In . SVG Version: 6.00 Build 0)  -->
<svg version="1.2" baseProfile="tiny" id="g-mt-economy-2-regions-medium-img" xmlns="http://www.w3.org/2000/svg" xmlns:xlink="http://www.w3.org/1999/xlink"
	 x="0px" y="0px" viewBox="0 0 600 575" xml:space="preserve">
<g>
	<g transform="translate(40,10)">
		<g>
			<path fill="#F2DF91" stroke="#FFFFFF" stroke-width="0.5" d="M308.016,319.382l-0.453,3.538h1.811v1.828h2.782v3.776h2.394
				l-1.682,1.947l-0.776,5.41v8.373l26.977-0.182l-1.747,1.091l-2.329,6.538l-1.294,0.363l-1.423,3.989v2.053h-37.393l-0.906-0.423
				l-24.519,0.242h-6.663v-10.46h4.981v-6h3.558l2.07-6.496l3.688-3.708h1.876l0.906-1.825l2.782-0.913l7.375-0.061v-3.715h2.846
				v-4.085l2.717,0.244l4.27-2.136l1.682,0.793l4.14-0.427L308.016,319.382z"/>
			<path fill="#F2DF91" stroke="#FFFFFF" stroke-width="0.5" d="M478.872,324.566l-0.259,11.134h-2.264v22.347h-21.867H437.08
				l-0.647,0.423l-15.074-0.121v-11.67h-0.712V335.7h1.941l0.129-23.159l-0.065-4.833h26.007l30.212,0.122V324.566z"/>
			<path fill="#E5AE89" stroke="#FFFFFF" stroke-width="0.5" d="M172.806,307.095l3.752,1.653v1.897h2.782l0.906,1.835l4.658,4.644
				h8.281l0.065,18.637h-1.035v27.897l-0.194,10.174l-1.682,2.524l-2.717,0.12h-13.715v-4.508l-12.745-0.18v-2.708h-4.593v-5.482
				h-1.035v-5.55h-6.469l0.065-5.559h-5.564v-16.667l-0.323-2.795l-1.811-3.163l-3.235,0.852l-2.264-0.669l-2.717-2.374
				l-0.776-3.594l0.841-2.378v-3.478l6.146-3.848l1.164-1.528l0.518-2.691l2.264,0.489l12.162-0.367l2.394-1.53l1.165-4.226
				l4.076-1.348l1.682,0.797l2.523-0.429l0.97,1.655l2.717,0.429L172.806,307.095z"/>
			<path fill="#E5AE89" stroke="#FFFFFF" stroke-width="0.5" d="M133.278,318.223v3.478l-0.841,2.378l0.776,3.594l2.717,2.374
				l2.264,0.669l3.235-0.852l1.811,3.163l0.323,2.795v16.667h5.564l-0.065,5.559h6.469v5.55h1.035v5.482h4.593v2.708l12.745,0.18
				v4.508h13.715l0.323,1.922l-2.588,4.68l1.165,3.955l-2.07-0.958l-3.041,0.539l-4.076-0.719l-0.453,1.018L173,387.991
				l-0.906,1.078l-1.876-2.635l-3.817-0.3l-1.229,1.258l-2.588-0.659l-2.847,1.497l-3.041-1.198l-2.523-0.12l-0.388-1.318
				l-2.523-0.24l-1.488,1.857l-1.617,0.18l-0.065,2.754l-1.294,2.752l-2.2-0.359l-1.747-1.615l-1.229,1.077l-2.2-1.376l-4.981-0.06
				l-2.652-1.197l-2.911,1.616l-2.458,3.469l1.229,2.271l-1.423,1.852l-1.876-2.329l-3.429-1.793l-1.747-1.674l-1.164-2.872
				l0.906-1.916l-1.811-1.378l0.323-1.198l-2.135-2.038l1.359-1.199l-0.453-3.781l-1.553-1.742v-1.442l-4.076-4.57l-3.623-0.782
				l-2.976,1.865l-0.712-2.226l-2.976-1.445l-1.488-1.445l-1.941-4.882l2.458-1.086l-0.323-6.34l-1.488-0.242l-4.14-4.294
				l-0.712-3.451l-2.006-1.696l-2.458-3.335l0.582-0.728l-2.652-3.46l0.194-4.01l-1.811-0.851l-0.453-3.163l1.1-1.583l-0.582-2.193
				l-2.717-0.366l1.229-5.244l-5.111-3.602l-0.776-2.383l1.553-1.712l-0.582-1.529l2.005-2.325l0.97,1.836l2.005-0.612l1.229-1.898
				l3.558-3.308l3.364,0.184l1.941-2.084l2.07-0.307l-0.065-2.27l0.841-1.657l0.97,0.184l2.394,5.153l0.259,3.186l2.264,2.877
				l2.2-3.306l2.717-0.306l2.135-3.187l2.2-1.165l3.558,0.245l0.582,1.349l3.817,3.37l3.041,0.367l1.488,1.469l3.429,0.367
				l2.976,1.836l0.97,3.852l1.423,0.55L133.278,318.223z"/>
			<path fill="#F2DF91" stroke="#FFFFFF" stroke-width="0.5" d="M332.276,358.108v-2.053l1.423-3.989l1.294-0.363l2.329-6.538
				l1.747-1.091l-26.977,0.182v-8.373l0.776-5.41l1.682-1.947h8.992l5.758,0.243v-1.887h5.499v-1.827h5.564v-17.039h0.97
				l0.065-7.415h7.375v-1.902l1.876,0.061v-1.903h1.876v-1.843h5.564v-3.75h7.31h3.882v5.593h11.127v2.824h5.628v2.76h5.046v2.513
				h2.782v2.756h-1.617v6.728l8.216,0.733V335.7l-1.747-0.061v11.04l16.562,0.121l5.37-0.121h0.712v11.67l-10.416,0.06
				l-26.395-0.121l-1.941-0.181l-21.155-0.06L332.276,358.108z"/>
			<path fill="#F2DF91" stroke="#FFFFFF" stroke-width="0.5" d="M305.687,319.138l-4.14,0.427l-1.682-0.793l-4.27,2.136
				l-2.717-0.244v4.085h-2.846v3.715l-7.375,0.061l-2.782,0.913l-0.906,1.825h-1.876l-3.688,3.708l-2.07,6.496h-3.558v6h-4.981
				v-0.303h-11.904v-11.281h5.952v-11.073h5.499v-2.804h5.564v-2.745h5.499l-0.065-11.247h0.776l-0.065-5.575h1.876v-5.707
				l3.752-0.061l0.259-5.593v-5.355v-0.185h11.192h9.898H302v5.54l0.129,5.654h0.906l-0.129,17.826l0.906,1.833l1.876,0.916V319.138
				z"/>
			<path fill="#E5AE89" stroke="#FFFFFF" stroke-width="0.5" d="M262.795,347.466v10.46l-13.78-0.06l-3.429,0.423l-10.028-0.181
				l-1.747,0.362l-11.645,0.121l-3.817-0.543H206.9l-0.065-11.187h0.388V335.7l5.37,0.061l-0.065-11.134h2.782v-4.207h2.846
				l-0.065-12.59l0.323-11.16l-0.129-11.749l0.323-3.267h16.82l5.693,0.493l-0.453,3.267v22.538h3.235l0.129,13.016l-0.065,14.914
				h-0.388v11.281h7.31h11.904V347.466z"/>
			<path fill="#86BF86" stroke="#FFFFFF" stroke-width="0.5" d="M192.02,373.831l0.194-10.174v-27.897h1.035l-0.065-18.637h-8.281
				l-4.658-4.644l-0.906-1.835h-2.782v-1.897l-3.752-1.653l4.593,0.061l1.941-2.328l3.235-4.721l1.941-0.245l3.299-2.639
				l0.323-2.518l2.005-0.369l-0.194-4.243l2.07-3.386l1.229-0.554l0.129-4.191h8.41l4.399-0.555l12.421,0.247l-0.323,3.267
				l0.129,11.749l-0.323,11.16l0.065,12.59h-2.846v4.207h-2.782l0.065,11.134l-5.37-0.061v11.161h-0.388l0.065,11.187l-0.388-0.06
				l0.065,32.997l-3.493-1.317l-2.264-4.372l-2.264-1.019l0.518-2.339l-5.305-6.964L192.02,373.831z"/>
			<path fill="#F2DF91" stroke="#FFFFFF" stroke-width="0.5" d="M279.939,291.077l-0.259,5.593l-3.752,0.061v5.707h-1.876
				l0.065,5.575h-0.776l0.065,11.247h-5.499v2.745h-5.564v2.804h-5.499v11.073h-5.952v11.281h-7.31v-11.281h0.388l0.065-14.914
				l-0.129-13.016h-3.235v-22.538l0.453-3.267v-2.344l10.61,0.062h17.597v5.672h2.2v5.663L279.939,291.077z"/>
			<path fill="#86BF86" stroke="#FFFFFF" stroke-width="0.5" d="M155.533,310.278l-12.162,0.367l-2.264-0.489l-0.518,2.691
				l-1.164,1.528l-6.146,3.848l-0.776-3.359l-1.423-0.55l-0.97-3.852l-2.976-1.836l-3.429-0.367l-1.488-1.469l-3.041-0.367
				l-3.817-3.37l2.782-0.674l4.464-4.172l-0.647-3.685l2.523-0.307l1.359-3.259h3.364v-5.664h4.334l1.811-2.465l2.847-0.308
				l2.717,0.863l-0.129,1.849l2.394,2.833l-0.453,2.708l1.553,1.415l0.453,6.451l1.229,2.7l-1.164,2.146l1.294,1.471l8.345,4.225
				L155.533,310.278z"/>
			<path fill="#F2DF91" stroke="#FFFFFF" stroke-width="0.5" d="M478.872,324.566V307.83h1.876v-22.601l19.02,0.062v5.233h5.628
				l-0.065,5.471l8.41,0.184l3.105-0.061v5.585h4.076l0.129,27.004l0.065,29.521l-27.883-0.06l-16.885-0.121V335.7h2.264
				L478.872,324.566z"/>
			<path fill="#86BF86" stroke="#FFFFFF" stroke-width="0.5" d="M115.358,303.052l-0.582-1.349l-3.558-0.245l-2.2,1.165
				l-2.135,3.187l-2.717,0.306l-2.2,3.306l-2.264-2.877l-0.259-3.186l-2.394-5.153l-0.97-0.184l-0.065-0.061h1.682l1.747-2.702
				l1.876-1.229l3.235-0.983l2.2-1.906l0.194-5.848l-0.453-5.611l11.063-0.062v-2.778l21.478,0.062l-1.617,2.408l0.776,3.208
				l-2.847,0.308l-1.811,2.465h-4.334v5.664h-3.364l-1.359,3.259l-2.523,0.307l0.647,3.685l-4.464,4.172L115.358,303.052z"/>
			<path fill="#F2DF91" stroke="#FFFFFF" stroke-width="0.5" d="M391.083,302.438h-5.046v-2.76h-5.628v-2.824h-11.127v-5.593h-3.882
				l0.388-2.338l1.359-1.724l0.388-2.156l-2.911-5.303v-1.852l-1.876-0.926v-1.915l-1.876-0.927v-2.782l-1.876-0.99v-1.857
				l-1.876-0.929l-1.876-4.709l25.295-0.062l0.906,0.93v4.708h5.628v5.814l0.97,0.062l0.065,10.922h2.976V302.438z"/>
			<path fill="#86BF86" stroke="#FFFFFF" stroke-width="0.5" d="M314.55,328.524h-2.394v-3.776h-2.782v-1.828h-1.811l0.453-3.538
				l-2.329-0.244v-1.831l-1.876-0.916l-0.906-1.833l0.129-17.826h-0.906L302,291.077v-5.54h-0.97h-9.898h-11.192v0.185v-0.185
				h11.192h9.898H302h6.469l16.885-0.062v-6.66l3.752-1.79l13.068-0.062v-2.842l3.558-3.772l0.97-1.857h6.534l0.065-6.568
				l1.941,0.93l1.876,4.709l1.876,0.929v1.857l1.876,0.99v2.782l1.876,0.927v1.915l1.876,0.926v1.852l2.911,5.303l-0.388,2.156
				l-1.359,1.724l-0.388,2.338h-7.31v3.75h-5.564v1.843h-1.876v1.903l-1.876-0.061v1.902h-7.375l-0.065,7.415h-0.97v17.039h-5.564
				v1.827H329.3v1.887l-5.758-0.243H314.55z"/>
			<path fill="#E5AE89" stroke="#FFFFFF" stroke-width="0.5" d="M172.806,307.095l-1.747-1.47l-2.717-0.429l-0.97-1.655
				l-2.523,0.429l-1.682-0.797l-4.076,1.348l-1.165,4.226l-2.394,1.53l-1.1-1.101l-8.345-4.225l-1.294-1.471l1.164-2.146l-1.229-2.7
				l-0.453-6.451l-1.553-1.415l0.453-2.708l-2.394-2.833l0.129-1.849l-2.717-0.863l-0.776-3.208l1.617-2.408l-0.647-2.038
				l1.876-2.411l3.558-1.051l2.135-2.351l2.458,0.062l1.747-2.353l1.811,0.434l4.205-2.726l-1.229-1.488l0.906-1.426l2.329-1.241
				l2.135,0.248l2.264-1.738l0.194-1.676h10.804l0.065,28.143l0.129,5.602h5.564v13.936l-1.941,2.328L172.806,307.095z"/>
			<path fill="#F2DF91" stroke="#FFFFFF" stroke-width="0.5" d="M279.939,285.722v5.355l-8.41,0.123v-5.663h-2.2v-5.672h11.257
				l-0.065-17.629h0.712l-0.065-13.233v-3.737h17.014v8.464l0.97,2.858l3.752,0.062v5.647h1.1l0.906,2.479l-0.065,5.696l1.359,0.928
				v1.917l2.329,2.781l-0.065,9.438H302h-0.97h-9.898h-11.192V285.722z"/>
			<path fill="#F2DF91" stroke="#FFFFFF" stroke-width="0.5" d="M269.329,279.865h-17.597l-10.61-0.062l0.065-17.505h0.388
				l-0.065-14.415l2.847,0.187l0.647-1.183l3.105,0.498l0.518-1.308l2.847-0.685l1.035,0.81l2.717-0.934l6.663,3.737h3.299h15.979
				l0.065,13.233h-0.712l0.065,17.629H269.329z"/>
			<path fill="#86BF86" stroke="#FFFFFF" stroke-width="0.5" d="M96.079,298.021l-0.841,1.657l0.065,2.27l-2.07,0.307l-1.941,2.084
				l-3.364-0.184l-3.558,3.308l-1.229,1.898l-2.005,0.612l-0.97-1.836l-2.005,2.325l0.582,1.529l-1.553,1.712l-2.264-0.672
				l-1.811,1.956l0.647,1.1l-4.723,4.761l-0.712,1.708l-2.652,1.341l-2.458-0.549l-0.906,3.838l-3.364,1.644l-1.1-2.131
				l-2.458-1.096l-0.712-1.767l-5.37-3.049l0.97-1.342l-1.164-2.014l2.847-2.016l-0.194-3.423l-1.941-1.346l-0.841-1.897
				l2.976-4.961l4.205-1.349l0.841-0.858l-1.941-3.375l0.841-2.702l-2.847-0.922l-0.259-2.459l0.97-4.122l-2.782-2.094l0.647-2.465
				l2.782-0.247l-0.194-4.441l-0.97-1.852l1.941-1.174l-0.259-1.421l1.035-3.896l-0.518-1.423l1.682-1.548l0.582-2.044l-1.423-3.657
				l2.717-1.241l-0.259-2.172l1.164-3.913l-0.453-3.233h22.643l1.1,2.052l-0.388,2.61l-2.782,5.276l1.1,3.906l-0.388,1.796
				l1.423,0.681l1.941,2.971l0.518,2.783l-0.582,2.41l1.617,1.235l-1.164,2.408l-2.07,1.049l1.294,2.467l-0.065,1.541l1.747,2.403
				l-2.2,4.923l2.135-0.431l3.041,0.553l1.1,3.504l2.458,1.965l4.076,0.675L96.079,298.021z"/>
			<path fill="#F2DF91" stroke="#FFFFFF" stroke-width="0.5" d="M353.302,261.926l-0.065,6.568h-6.534l-0.97,1.857l-3.558,3.772
				v2.842l-13.068,0.062l-3.752,1.79v6.66l-16.885,0.062l0.065-9.438l-2.329-2.781v-1.917l-1.359-0.928l0.065-5.696l-0.906-2.479
				h-1.1v-5.647l-3.752-0.062l-0.97-2.858v-8.464l17.014,0.125l11.257-0.062l5.305-0.249l19.473-0.125l1.229,4.173l-0.776,4.914
				l0.97,1.305l-0.065,6.58H353.302z"/>
			<path fill="#F2DF91" stroke="#FFFFFF" stroke-width="0.5" d="M520.923,301.703h-4.076v-5.585l-3.105,0.061l-8.41-0.184
				l0.065-5.471h-5.628v-5.233l-16.562-0.062v-11.416h-0.906v-11.019h7.763L490,254.29v-2.86l5.693,0.062v-1.929h8.475l2.782,0.933
				l0.065,1.928h13.844v18.606l-0.065,22.506L520.923,301.703z"/>
			<path fill="#E5AE89" stroke="#FFFFFF" stroke-width="0.5" d="M206.188,281.407l-4.399,0.555h-8.41l-0.129,4.191l-1.229,0.554
				l-2.07,3.386l0.194,4.243l-2.005,0.369l-0.323,2.518l-3.299,2.639l-1.941,0.245l-3.235,4.721v-13.936h-5.564l-0.129-5.602
				l-0.065-28.143l6.987-0.062l-0.323-0.807v-10.201l2.394-2.804l3.946,1.247l1.488,0.685l0.97,3.986l1.941,3.048l3.105,0.684
				l0.388,5.032l3.105,4.405l0.323,3.347l2.588,0.496l1.747-1.363l2.264,1.115l1.876,2.353l-2.717,5.258l-0.388,2.842l2.135,1.605
				L206.188,281.407z"/>
			<path fill="#F2DF91" stroke="#FFFFFF" stroke-width="0.5" d="M448.66,307.708h-26.007l0.065,4.833l-0.129,23.159h-1.941v10.979
				l-5.37,0.121l-16.562-0.121v-11.04l1.747,0.061v-20.531l-8.216-0.733v-6.728h1.617v-2.756h-2.782v-2.513v-17.209h-2.976
				l-0.065-10.922l-0.97-0.062v-5.814h-5.628v-4.708l-0.906-0.93l-25.295,0.062l-1.941-0.93h-0.712l0.065-6.58l-0.97-1.305
				l0.776-4.914l-1.229-4.173l-0.647-3.117l-2.264-3.12h19.02v-0.562h13.65h19.926v0.936l28.401-0.062l-1.553,0.936v22.766h-1.553
				l0.129,22.497h-1.747v22.478H448.66z"/>
			<path fill="#E5AE89" stroke="#FFFFFF" stroke-width="0.5" d="M117.558,276.84v2.778l-11.063,0.062l0.453,5.611l-0.194,5.848
				l-2.2,1.906l-3.235,0.983l-1.876,1.229l-1.747,2.702h-1.682l-4.076-0.675l-2.458-1.965l-1.1-3.504l-3.041-0.553l-2.135,0.431
				l2.2-4.923l-1.747-2.403l0.065-1.541l-1.294-2.467l2.07-1.049l1.164-2.408l-1.617-1.235l0.582-2.41l-0.518-2.783l-1.941-2.971
				l-1.423-0.681l0.388-1.796l-1.1-3.906l2.782-5.276l0.388-2.61l-1.1-2.052l7.181,0.124v-3.796h5.24l0.259-1.806h2.911v-3.802
				h2.847v-1.934h5.111l2.717,1.185l0.647,1.996l2.2,1.434l-0.129,1.807l2.976,1.308l3.429-1.432L117.558,276.84z"/>
			<path fill="#F2DF91" stroke="#FFFFFF" stroke-width="0.5" d="M478.872,307.83l-30.212-0.122h-24.066v-22.478h1.747l-0.129-22.497
				h1.553v-22.766l1.553-0.936v-0.936h11.386v1.873h9.639v5.674h1.876v5.727h3.752v3.73l1.941,0.062v1.864l9.381,0.062v1.863
				l11.451,0.062v-1.862h5.628v-2.858H490l0.065,8.504h-7.763v11.019h0.906v11.416l16.562,0.062v5.233h5.628l-0.065,5.471
				l8.41,0.184l-8.41-0.184l0.065-5.471h-5.628v-5.233l-19.02-0.062v22.601H478.872z"/>
			<path fill="#E5AE89" stroke="#FFFFFF" stroke-width="0.5" d="M241.123,282.147l-5.693-0.493h-16.82l-12.421-0.247l-0.776-3.394
				l-2.135-1.605l0.388-2.842l2.717-5.258l-1.876-2.353l-2.264-1.115l-1.747,1.363l-2.588-0.496l-0.323-3.347l-3.105-4.405
				l-0.388-5.032l-3.105-0.684l-1.941-3.048l-0.97-3.986l-1.488-0.685l0.129-1.808l-1.682-0.935l-3.17-0.374l-1.876-2.184
				l1.682-2.31l-2.264-2.312h5.37v-5.692l11.386-0.063v-0.689h5.693v-5.013h3.429l-0.129,5.075l3.946,0.376l3.752,1.627l2.458,2.252
				v1.563l4.334,1.687l0.194,3.122l4.787,1.623l1.294,3.43l2.588,0.062v2.119l4.917,3.86l3.558-0.871l1.811,1.369l2.717-2.552
				l0.065,14.415h-0.388l-0.065,17.505l10.61,0.062l-10.61-0.062V282.147z"/>
			<path fill="#F2DF91" stroke="#FFFFFF" stroke-width="0.5" d="M495.693,249.564v1.929L490,251.43v2.86h-5.628v2.858h-5.628v1.862
				l-11.451-0.062v-1.863l-9.381-0.062v-1.864l-1.941-0.062v-3.73h-3.752v-5.727h-1.876v-5.674h-9.639v-1.873h-11.386V216.99h5.693
				v5.837h5.693v-5.837h19.149h3.623v13.416h5.758v3.815h5.693l1.876,1.875v1.936l19.02,0.062L495.693,249.564z"/>
			<path fill="#F2DF91" stroke="#FFFFFF" stroke-width="0.5" d="M265.189,249.003h-3.299l-6.663-3.737l-2.717,0.934l-1.035-0.81
				l-2.847,0.685l-0.518,1.308l-3.105-0.498l-0.647,1.183l-2.847-0.187l-2.717,2.552l-1.811-1.369l-3.558,0.871l-4.917-3.86v-2.119
				l-2.588-0.062l-1.294-3.43l0.647-0.874v-5.684l-0.453-11.27l-5.628-0.063l0.194-9.105l-0.97-0.943v-3.901l0.97-3.402h5.758
				l-0.065-3.783h19.149v3.783h3.817v5.793l5.758-0.063v2.893h5.693l0.065,2.891l5.176-0.063v19.107l-1.876,1.874l-0.065,4.244
				l1.876,1.434L265.189,249.003z"/>
			<path fill="#F2DF91" stroke="#FFFFFF" stroke-width="0.5" d="M520.859,252.425h-13.844l-0.065-1.928l-2.782-0.933h-8.475
				l0.129-11.469h4.787l0.518-0.999l3.299-1.874l1.876-2.876l1.423-3.817l1.423-2.38l0.065-6.208l-0.518-2.888l-1.617-4.337
				l-1.553-2.831l-1.941-1.952l0.453-2.394h12.939v-2.837h3.882v23.947V252.425z"/>
			<path fill="#F2DF91" stroke="#FFFFFF" stroke-width="0.5" d="M351.232,244.955l-19.473,0.125l-5.305,0.249l-11.257,0.062v-5.737
				h0.906l0.065-17.204h-5.758l0.065-5.586h0.776v-5.784l5.758,0.063v-2.455l11.386-0.063l0.97-0.504l0.065-17.803l1.423,0.253
				l9.704-1.203l3.364,0.633l2.652,1.329l0.518,3.225l1.035,0.948l-0.582,3.664v3.092l-2.135,2.837l-0.323,5.668l1.488,5.973
				l-1.035,4.269l0.906,1.505l0.582,3.197l1.617,4.258l-0.97,0.751l-1.229,6.501l1.876,1.499l2.264,3.12L351.232,244.955z"/>
			<path fill="#E5AE89" stroke="#FFFFFF" stroke-width="0.5" d="M38.631,211.207l0.97,2.83h2.847v2.891l2.782,1.005v1.883
				l2.847,0.941l0.906,3.763l3.688-0.063l0.065,2.945l-1.941,0.939l-1.811,3.004v8.497h0.776v5.674H44.13v0.685l-3.493,2.615
				l-1.617-1.121l1.035-2.928l-2.911-1.621l-1.617-2.058l-2.523-0.936l-0.647-4.496l-2.847-4.626l-2.135-0.125l-1.747-5.009
				l-0.841-0.188l-3.623-5.33L18.641,219l-0.906-2.072l-1.747-0.754l0.129-2.137l-1.876-2.453l-8.41-2.391l-1.294-3.59l-4.464-3.089
				l-3.688-1.766l-0.323-1.01l4.787-1.2l0.453-1.326l2.847,0.568l2.588-1.516l2.652,1.832l2.135-1.2l2.652,0.947l2.652-1.074
				l5.628,2.589l1.617,1.83l1.488-0.442l1.811,1.136l2.976,0.82l0.582,1.513v4.095l2.782,0.944h2.911v1.951H38.631z"/>
			<path fill="#E5AE89" stroke="#FFFFFF" stroke-width="0.5" d="M139.036,276.902l-21.478-0.062l-0.065-30.577l-3.429,1.432
				l-2.976-1.308l0.129-1.807l-2.2-1.434l-0.647-1.996l-2.717-1.185v-22.851h-7.31l-0.065-27.872l6.34,0.317h8.151l1.164,1.646
				l0.194,5.311l2.458,0.126v20.473l11.774,0.126l0.065,22.725l11.645-0.187v8.85h5.564l0.065,2.862h4.011l1.229,3.295l-1.035,1.988
				l1.035,2.856l-0.582,1.365l-0.194,5.764l-1.747,2.353l-2.458-0.062l-2.135,2.351l-3.558,1.051l-1.876,2.411L139.036,276.902z"/>
			<path fill="#86BF86" stroke="#FFFFFF" stroke-width="0.5" d="M82.105,251.181H59.463l-1.164-0.56l-2.911,0.56l-1.941,1.866
				l-3.623-0.808l-2.911,0.373l-1.294-2.675l0.906-1.805l-2.394-1.931v-0.685h5.628v-5.674h-0.776v-8.497l1.811-3.004l1.941-0.939
				l-0.065-2.945l-3.688,0.063l-0.906-3.763l-2.847-0.941v-1.883l-2.782-1.005v-2.891h-2.847l-0.97-2.83l3.946,0.881l0.97-1.258
				l6.146,1.636l2.523,1.949l3.17,0.691l1.876,1.445l1.164,1.947l4.529,2.448l3.041-1.13h11.386v-2.888h4.981l0.065-5.721
				l-2.264-1.259l-0.776-4.471l0.776-2.459l-1.488-3.66l-1.747-2.147l1.488-2.275l-0.841-1.644l0.194-4.05h13.003h7.504
				l0.065,27.872h7.31v22.851h-5.111v1.934h-2.847v3.802h-2.911l-0.259,1.806h-5.24v3.796L82.105,251.181z"/>
			<path fill="#86BF86" stroke="#FFFFFF" stroke-width="0.5" d="M224.626,240.466l-4.787-1.623l-0.194-3.122l-4.334-1.687v-1.563
				l-2.458-2.252l-3.752-1.627l-3.946-0.376l0.129-5.075h-3.429v5.013h-5.693v0.689l-11.386,0.063v5.692h-5.37h-5.887v-14.153
				h-3.817l-3.041-1.004l-1.747-2.7l-2.847-0.503l-0.129-21.426l5.628,0.758v-7.085h11.451v-5.767h11.58l19.408-0.063l-1.811,2.917
				l-1.488,3.801l2.07,1.709l6.663,3.163l3.882-0.063v5.307l5.758-0.063v2.02l0.065,3.783h-5.758l-0.97,3.402v3.901l0.97,0.943
				l-0.194,9.105l5.628,0.063l0.453,11.27v5.684L224.626,240.466z"/>
			<path fill="#F2DF91" stroke="#FFFFFF" stroke-width="0.5" d="M298.183,245.267h-17.014v3.737h-15.979l-0.518-5.669l-1.876-1.434
				l0.065-4.244l1.876-1.874v-19.107l-5.176,0.063l-0.065-2.891h-5.693v-2.893l-5.758,0.063v-5.793h-3.817v-3.783l2.329-0.063
				l6.34-4.103l2.264-0.569l5.564-4.046l-0.323-2.784l0.97-3.863l0.065-4.502l4.787,0.888l2.264-2.158l2.847,0.19l1.294-1.016
				l1.876,0.571l4.852,1.269l2.006-1.523l3.235-1.016l1.747-2.35l6.469,0.762l2.458-1.271l1.682,0.572l1.941-0.763l2.523,1.017
				l2.135,3.62l3.364,1.967l1.423,1.586l0.776,2.472l1.682-0.38l2.523,1.964l2.911-0.317l1.553,1.013l2.135-0.76l0.841,1.33
				l2.264-1.013l5.887,2.975l0.518-0.823l-0.065,17.803l-0.97,0.504l-11.386,0.063v2.455l-5.758-0.063v5.784h-0.776l-0.065,5.586
				h5.758l-0.065,17.204h-0.906v5.737L298.183,245.267z"/>
			<path fill="#F2DF91" stroke="#FFFFFF" stroke-width="0.5" d="M495.822,238.094l-19.02-0.062v-1.936l-1.876-1.875h-5.693v-3.815
				h-5.758V216.99h-3.623l-0.065-23.065h1.941v-17.368h5.758v5.778h11.516v5.831h17.273v5.758h3.623v11.614h4.14l-0.453,2.394
				l1.941,1.952l1.553,2.831l1.617,4.337l0.518,2.888l-0.065,6.208l-1.423,2.38l-1.423,3.817l-1.876,2.876l-3.299,1.874
				l-0.518,0.999H495.822z"/>
			<path fill="#86BF86" stroke="#FFFFFF" stroke-width="0.5" d="M173.582,257.148h-10.804l-0.194,1.676l-2.264,1.738l-2.135-0.248
				l-2.329,1.241l-0.906,1.426l1.229,1.488l-4.205,2.726l-1.811-0.434l0.194-5.764l0.582-1.365l-1.035-2.856l1.035-1.988
				l-1.229-3.295h-4.011l-0.065-2.862h-5.564v-8.85l-11.645,0.187l-0.065-22.725l-11.774-0.126v-20.473l-2.458-0.126l-0.194-5.311
				l-1.164-1.646l0.712-4.371l-1.682-3.932l1.229-1.714l2.588-0.317l0.841-2.477l-0.323-2.797l0.259-3.754l-1.035-2.165l2.911-0.637
				l1.617-1.784l0.518,2.804l2.652,5.283l-0.518,4.766l1.1,1.968l-0.582,2.348l1.747,3.233l2.652,2.724l1.617,0.57l3.688-1.52
				l2.329,0.063l2.976-0.823l1.164-1.267l1.747,1.964l3.688,1.14l2.717,3.924l2.458,0.316l1.747,2.402l3.299,0.253l2.652-1.011
				l1.1,0.632l3.299-0.569l0.129,21.426l2.847,0.503l1.747,2.7l3.041,1.004h3.817v14.153h5.887l2.264,2.312l-1.682,2.31l1.876,2.184
				l3.17,0.374l1.682,0.935l-0.129,1.808l-3.946-1.247l-2.394,2.804v10.201l0.323,0.807L173.582,257.148z"/>
			<path fill="#F2DF91" stroke="#FFFFFF" stroke-width="0.5" d="M429.317,239.031l-28.401,0.062v-0.936h-19.926h-13.65v0.562h-19.02
				l-1.876-1.499l1.229-6.501l0.97-0.751l-1.617-4.258l-0.582-3.197l-0.906-1.505l1.035-4.269l-1.488-5.973l0.323-5.668l2.135-2.837
				v-3.092l2.07-0.379l-0.065-3.79l2.135-2.213l3.817-1.645l1.682-3.862h2.135l2.394-1.331l3.299,0.444l0.906,1.267l2.2,0.127
				l1.423-2.661l0.194-1.966l5.887,0.698l1.553,1.268l6.081-0.507l4.593,0.444l5.822-1.014l0.906-3.933l3.364-0.381l2.329,0.571
				l0.97-2.54l2.264,0.064l0.712-1.461l3.364-1.335l1.294-3.816l1.423-1.4l0.97-2.739l-0.582-1.721l3.105-1.467l0.647,1.467
				l2.717,0.064v5.924h4.334v22.645h-1.682v11.551h5.758v11.45h3.752v21.104V239.031z"/>
			<path fill="#E5AE89" stroke="#FFFFFF" stroke-width="0.5" d="M90.774,189.243H77.771l-0.194,4.05l0.841,1.644l-1.488,2.275
				l1.747,2.147l1.488,3.66l-0.776,2.459l0.776,4.471l2.264,1.259l-0.065,5.721h-4.981v2.888H65.997l-0.712-2.888v-11.451
				l-3.817-0.063l-2.911-2.206l0.453-3.281l2.006-3.726l-2.458-0.063l-0.453-2.971l1.294-0.759l-0.712-3.291h-10.48l-0.065-9.637
				l-0.841-2.668l5.693-0.254v-5.66h-0.712v-5.797l20.379-0.064l-1.811-4.083l2.2-1.915h6.534l2.264,5.042l1.359-0.191l2.523,1.785
				l1.294,2.421l2.07,1.337l0.194,5.217l-0.647,0.89l1.553,3.05l0.323,2.666l1.617-0.127l0.259,2.601l-1.1,1.585L90.774,189.243z"/>
			<path fill="#F2DF91" stroke="#FFFFFF" stroke-width="0.5" d="M459.852,216.99h-19.149v5.837h-5.693v-5.837h-5.693h-3.752v-11.45
				h-5.758v-11.551h1.682v-22.645h-4.334v-5.924l-2.717-0.064l-0.323-3.827l1.488-3.32l2.07,1.405l3.235-0.192l2.005,1.341
				l4.399-0.383l-0.518,1.723l4.335-0.319l1.876-1.468l1.359,1.149l2.717,0.766l1.423-1.34l1.682,0.957l1.035-0.766l4.529-0.702
				l2.652-0.894l2.135-1.916l1.941-0.639l1.553,1.15l1.682-2.109l2.005,0.575l5.628-0.128l1.1,0.703l3.299-0.575l1.553,1.534v13.262
				h-1.747l-0.065,5.215h-5.758v17.368h-1.941L459.852,216.99z"/>
			<path fill="#F2DF91" stroke="#FFFFFF" stroke-width="0.5" d="M190.597,182.716h-11.58v5.767h-11.451v7.085l-5.628-0.758
				l-3.299,0.569l-1.1-0.632l-2.652,1.011l-3.299-0.253l-1.747-2.402l-2.458-0.316l-2.717-3.924l-3.688-1.14l-1.747-1.964
				l-1.164,1.267l-2.976,0.823l-2.329-0.063l-3.688,1.52l-1.617-0.57l-2.652-2.724l-1.747-3.233l0.582-2.348l-1.1-1.968l0.518-4.766
				l-2.652-5.283l-0.518-2.804l3.299,0.51l1.229-2.614l-0.518-2.233l-1.811-1.085l-0.065-1.724l-1.941-0.894l-0.906-3.836h4.917
				l2.911-0.128l29.112,0.128v2.941h5.822v2.939h2.911l-0.065,3.893l25.813-0.128V182.716z"/>
			<path fill="#F2DF91" stroke="#FFFFFF" stroke-width="0.5" d="M520.859,202.703h-3.882v2.837h-12.939h-4.14v-11.614h-3.623v-5.758
				h-17.273v-5.831h-11.516v-5.778l0.065-5.215h1.747v-13.262l0.97-1.022l2.588,0.192l2.847,1.406l5.111-2.556l1.1-3.262h1.876
				l1.941,1.727l2.782-0.704l3.817,1.727l6.017-1.535l1.876,1.087l1.811-0.767l0.712,1.535l3.882,1.853l0.453,1.405l2.782-0.064
				l2.07,1.341l3.429-0.319l1.617-1.277l1.423,3.639l2.523,0.319l0.129,8.856L520.859,202.703z"/>
			<path fill="#F2DF91" stroke="#FFFFFF" stroke-width="0.5" d="M244.228,201.441h-19.149v-2.02l-5.758,0.063v-5.307l-3.882,0.063
				l-6.663-3.163l-2.07-1.709l1.488-3.801l1.811-2.917l-19.408,0.063v-19.337v-9.709l26.072-0.064v-5.826h3.235h5.822v-5.836h17.467
				h17.532l0.194,5.708h5.111v5.954l8.669-0.128l0.065,17.674l-0.259,8.835l-1.876-0.571l-1.294,1.016l-2.847-0.19l-2.264,2.158
				l-4.787-0.888l-0.065,4.502l-0.97,3.863l0.323,2.784l-5.564,4.046l-2.264,0.569l-6.34,4.103L244.228,201.441z"/>
			<path fill="#E5AE89" stroke="#FFFFFF" stroke-width="0.5" d="M38.631,211.207h-2.006v-1.951h-2.911l-2.782-0.944v-4.095
				l-0.582-1.513l-2.976-0.82l-1.811-1.136l-1.488,0.442l-1.617-1.83l-5.628-2.589l-2.652,1.074l-2.652-0.947l-2.135,1.2
				l-2.652-1.832l-2.588,1.516l-2.847-0.568l-2.523-0.316l-1.164-2.528l-1.811-1.265l0.518-1.455l2.2-1.962l-0.129-2.026
				l-1.876-2.091l0.582-2.663l-2.264-1.523l-1.1-2.603l-1.229,0.318l-0.97-2.287l-0.259-2.733l-2.976-1.717l-4.981-7.962
				l-0.841-0.319v-16.108l1.423,0.705l0.388,3.137l2.329,0.704l0.776-2.24l6.275-2.69l1.294-2.436l1.229-0.257l2.006,1.603
				l1.164,2.179l-1.035,1.921l2.264,2.944l0.388,3.964l2.329,3.576l1.423,0.766l0.582,2.041l-0.841,2.486l1.553,2.294l2.847-0.828
				l3.429,1.019l2.976-1.019l1.617,2.038l4.529-2.802l0.323-2.677l1.682-0.829l-0.841-2.233h6.469l0.97,0.957v8.73l5.758-0.191
				h11.451l0.065,5.978l0.841,2.668l0.065,9.637h10.48l0.712,3.291l-1.294,0.759l0.453,2.971l2.458,0.063l-2.006,3.726l-0.453,3.281
				l2.911,2.206l3.817,0.063v11.451l0.712,2.888l-3.041,1.13l-4.529-2.448l-1.164-1.947l-1.876-1.445l-3.17-0.691l-2.523-1.949
				l-6.146-1.636l-0.97,1.258L38.631,211.207z"/>
			<path fill="#F2DF91" stroke="#FFFFFF" stroke-width="0.5" d="M190.597,163.379l-25.813,0.128l0.065-3.893h-2.911v-2.939h-5.822
				v-2.941l-29.112-0.128l-2.911,0.128h-5.499l-2.2-1.28l-3.041,0.704l-1.553-1.728l-2.911-1.088l0.129-3.652l-5.434-5.003h18.114
				h16.368l0.129-11.702h15.591l2.005,0.386l2.264,0.708l1.035,1.287l5.37,0.644l0.065,3.023l8.734,0.064v2.892l5.822,0.064
				l-0.065,8.725l11.58,0.256v5.634V163.379z"/>
			<path fill="#F2DF91" stroke="#FFFFFF" stroke-width="0.5" d="M469.298,158.081l-1.553-1.534l-3.299,0.575l-1.1-0.703
				l-5.628,0.128l-2.005-0.575l-1.682,2.109l-1.553-1.15l-1.941,0.639l-2.135,1.916l-2.652,0.894l-4.529,0.702l-1.035,0.766v-14.004
				h1.747v-23.273h16.238h21.09h9.639v5.865h5.822v5.92h25.748h0.323l0.129,26.449l-2.523-0.319l-1.423-3.639l-1.617,1.277
				l-3.429,0.319l-2.07-1.341l-2.782,0.064l-0.453-1.405l-3.882-1.853l-0.712-1.535l-1.811,0.767l-1.876-1.087l-6.017,1.535
				l-3.817-1.727l-2.782,0.704l-1.941-1.727h-1.876l-1.1,3.262l-5.111,2.556l-2.847-1.406l-2.588-0.192L469.298,158.081z"/>
			<path fill="#F2DF91" stroke="#FFFFFF" stroke-width="0.5" d="M274.699,153.478l-8.669,0.128v-5.954h-5.111l-0.194-5.708h-17.532
				h-17.467v5.836h-5.822l-0.065-23.403h0.323l-0.065-23.694l0.388-5.721l20.702-0.065l15.785-0.065h19.732v5.917h-0.712v23.5
				l0.388,2.902h1.423v4.896h-1.423l-0.065,3.924h-0.97v6.809h-1.423v4.873h0.776V153.478z"/>
			<path fill="#F2DF91" stroke="#FFFFFF" stroke-width="0.5" d="M303.552,180.305l-2.135-3.62l-2.523-1.017l-1.941,0.763
				l-1.682-0.572l-2.458,1.271l-6.469-0.762l-1.747,2.35l-3.235,1.016l-2.006,1.523l-4.852-1.269l0.259-8.835l-0.065-17.674v-5.826
				h-0.776v-4.873h1.423v-6.809h0.97l0.065-3.924h1.423v-4.896h-1.423l-0.388-2.902v-23.5h0.712v-5.917l29.306,0.065h26.848v5.851
				h-0.97v11.673h-2.717v11.827h-1.229v9.792l-2.911-1.48v15.219h-0.97l-0.065,16.301l-6.081-0.319l-1.682-0.638l-0.776,4.717
				l-11.774-0.127L303.552,180.305z"/>
			<path fill="#F2DF91" stroke="#FFFFFF" stroke-width="0.5" d="M219.903,147.78h-3.235v5.826l-26.072,0.064v-5.634l6.017-0.256
				l0.065-23.403v-23.694l0.129-5.656l23.678-0.065l-0.388,5.721l0.065,23.694h-0.323L219.903,147.78z"/>
			<path fill="#F2DF91" stroke="#FFFFFF" stroke-width="0.5" d="M347.544,199.169l0.582-3.664l-1.035-0.948l-0.518-3.225
				l-2.652-1.329l-3.364-0.633l-9.704,1.203l-1.423-0.253l-0.518,0.823l-5.887-2.975l-2.264,1.013l-0.841-1.33l-2.135,0.76
				l-1.553-1.013l-2.911,0.317l-2.523-1.964l-1.682,0.38l-0.776-2.472l-1.423-1.586l-3.364-1.967l0.129-12.591l11.774,0.127
				l0.776-4.717l1.682,0.638l6.081,0.319l0.065-16.301h0.97v-15.219l2.911,1.48v-9.792h1.229v-11.827h2.717v-11.673h0.97v-5.851
				h36.811l10.61-0.065v5.981h-1.165v23.435l0.582,3.998l-2.911-0.387v2.255h-1.941v5.92h1.811v6.038l-4.852-0.064l-0.065,5.836
				h-1.553v23.372h-0.453v11.944l-0.194,1.966l-1.423,2.661l-2.2-0.127l-0.906-1.267l-3.299-0.444l-2.394,1.331h-2.135l-1.682,3.862
				l-3.817,1.645L349.549,195l0.065,3.79L347.544,199.169z"/>
			<path fill="#F2DF91" stroke="#FFFFFF" stroke-width="0.5" d="M190.597,148.037l-11.58-0.256l0.065-8.725l-5.822-0.064v-2.892
				l-8.734-0.064l-0.065-3.023l-5.37-0.644l-1.035-1.287l-2.264-0.708l-0.194-5.994v-23.694l-0.194-5.721l27.689,0.13l13.715-0.065
				l-0.129,5.656v23.694l-0.065,23.403L190.597,148.037z"/>
			<path fill="#F2DF91" stroke="#FFFFFF" stroke-width="0.5" d="M414.437,165.356l-0.647-1.467l-3.105,1.467l0.582,1.721
				l-0.97,2.739l-1.423,1.4l-1.294,3.816l-3.364,1.335l-0.712,1.461l-2.264-0.064l-0.97,2.54l-2.329-0.571l-3.364,0.381
				l-0.906,3.933l-5.822,1.014l-4.593-0.444l-6.081,0.507l-1.553-1.268l-5.887-0.698v-11.944h0.453v-23.372h1.553l0.065-5.836
				l4.852,0.064v-6.038h-1.811v-5.92h1.941v-2.255l2.911,0.387l-0.582-3.998v-23.435h1.165v-5.981h22.707l25.166,0.065v6.046h-1.747
				v5.906h5.822v17.721h9.704v23.273h-1.747v14.004l-1.682-0.957l-1.423,1.34l-2.717-0.766l-1.359-1.149l-1.876,1.468l-4.335,0.319
				l0.518-1.723l-4.399,0.383l-2.005-1.341l-3.235,0.192l-2.07-1.405l-1.488,3.32L414.437,165.356z"/>
			<path fill="#F2DF91" stroke="#FFFFFF" stroke-width="0.5" d="M479.26,124.571h-21.09h-16.238h-9.704V106.85h-5.822v-5.906h1.747
				v-6.046h25.619h21.672v6.046h0.906l-0.065,17.752h2.976V124.571z"/>
			<path fill="#F2DF91" stroke="#FFFFFF" stroke-width="0.5" d="M155.792,130.372l-2.005-0.386h-15.591l-0.129,11.702h-16.368
				h-18.114l-1.682-2.119l2.135-1.992l-0.776-3.601l-2.588,0.257l-2.976-2.638l0.582-5.992l-3.558-2.516l-2.329,0.645l-1.941-1.678
				l-0.97,0.968l-3.882-1.937l0.194-2.584l1.941-4.591l-2.652-3.626l0.194-3.046l-2.717-2.011l-2.588,0.714l-1.617-0.843
				l-2.006,2.205l-3.364-4.282l0.712-3.117l-1.229-1.365l-1.164-3.642l16.756,0.13l16.173-0.065h25.554h25.619l0.194,5.721v23.694
				L155.792,130.372z"/>
			<path fill="#86BF86" stroke="#FFFFFF" stroke-width="0.5" d="M112.77,189.56h-8.151l-6.34-0.317h-7.504l0.518-3.928l1.1-1.585
				l-0.259-2.601l-1.617,0.127l-0.323-2.666l-1.553-3.05l0.647-0.89l-0.194-5.217l-2.07-1.337l-1.294-2.421l-2.523-1.785
				l-1.359,0.191l-2.264-5.042h-6.534l-2.2,1.915l1.811,4.083l-20.379,0.064v5.797h0.712v5.66l-5.693,0.254l-0.065-5.978H35.785
				l-5.758,0.191v-8.73l-0.97-0.957v-8.115l-0.453-5.891h7.763l-0.129-23.47h-1.682v-5.747h11.192l-2.394-1.487l0.582-2.976
				l2.652-1.23L44.26,108.6l-2.717-0.778l1.811-2.205l0.129-1.492l-1.359-5.066l1.553-2.406l-1.941-1.822l16.432-0.065l13.133,0.13
				l1.164,3.642l1.229,1.365l-0.712,3.117l3.364,4.282l2.006-2.205l1.617,0.843l2.588-0.714l2.717,2.011l-0.194,3.046l2.652,3.626
				l-1.941,4.591l-0.194,2.584l3.882,1.937l0.97-0.968l1.941,1.678l2.329-0.645l3.558,2.516l-0.582,5.992l2.976,2.638l2.588-0.257
				l0.776,3.601l-2.135,1.992l1.682,2.119l5.434,5.003l-0.129,3.652l2.911,1.088l1.553,1.728l3.041-0.704l2.2,1.28h5.499h-4.917
				l0.906,3.836l1.941,0.894l0.065,1.724l1.811,1.085l0.518,2.233l-1.229,2.614l-3.299-0.51l-1.617,1.784l-2.911,0.637l1.035,2.165
				l-0.259,3.754l0.323,2.797l-0.841,2.477l-2.588,0.317l-1.229,1.714l1.682,3.932L112.77,189.56z"/>
			<path fill="#F2DF91" stroke="#FFFFFF" stroke-width="0.5" d="M520.47,136.356h-25.748v-5.92H488.9v-5.865h-9.639v-5.875h-2.976
				l0.065-17.752h-0.906v-6.046h16.756l28.53-0.065v25.091l0.065,16.433H520.47z"/>
			<path fill="#E5AE89" stroke="#FFFFFF" stroke-width="0.5" d="M29.057,161.337h-6.469l0.841,2.233l-1.682,0.829l-0.323,2.677
				l-4.529,2.802l-1.617-2.038l-2.976,1.019l-3.429-1.019l-2.847,0.828l-1.553-2.294l0.841-2.486l-0.582-2.041l-1.423-0.766
				l-2.329-3.576l-0.388-3.964l-2.264-2.944l1.035-1.921l-1.164-2.179l-2.006-1.603l-1.229,0.257l-1.294,2.436l-6.275,2.69
				l-0.776,2.24l-2.329-0.704l-0.388-3.137l-1.423-0.705v-24.176v-29.03l23.807,0.065l21.349,0.065l14.103-0.065l1.941,1.822
				l-1.553,2.406l1.359,5.066l-0.129,1.492l-1.811,2.205l2.717,0.778l2.329,3.822l-2.652,1.23l-0.582,2.976l2.394,1.487H34.556
				v5.747h1.682l0.129,23.47h-7.763l0.453,5.891V161.337z"/>
		</g>
		<g>
			<path fill="none" stroke="#000000" stroke-linejoin="round" d="M332.782,358.297h-37.667l-1.256-0.687h-23.856h-7.533v-10.314
				h-11.3h-7.533v-11.724v-14.536v-13.202h-2.511v-22.346v-3.504v-2.104v-17.583v-14.13l-2.511,2.123l-1.256-1.415l-3.767,0.708
				l-5.022-3.54v-2.126h-2.511l-1.256-3.546v-0.71v-5.681v-11.391h-5.022v-9.282l-1.256-0.715V208.3l1.256-2.865h5.022v-4.302
				v-1.435h-5.022v-5.747h-3.767l-7.533-2.877l-1.256-1.439l1.256-4.322l1.256-2.884h-18.834h-11.3v5.766h-12.556v7.194
				l-5.022-0.719l-3.767,0.719l-1.256-0.719l-2.511,1.437l-2.511-0.719l-2.511-2.157l-2.511-0.719l-2.511-3.598l-3.767-1.44
				l-1.256-1.441l-1.256,0.72l-2.511,1.441l-2.511-0.72l-3.767,2.16l-2.511-0.72l-2.511-2.881l-1.256-3.605v-2.165v-1.444v-5.058
				l-2.511-5.066l-1.256-2.898h3.767l1.256-2.175v-2.176l-2.511-1.452v-1.452l-1.256-0.726l-1.256-4.361h5.022h-6.278l-1.256-0.727
				l-3.767,0.727l-1.256-2.183l-2.511-0.728v-3.642l-6.278-5.105l-1.256-2.19l2.511-2.192l-1.256-3.656l-2.511,0.731l-2.511-2.927
				v-5.861l-3.767-2.934l-1.256,0.734l-2.511-1.468l-1.256,0.734l-3.767-1.468v-2.938l2.511-4.412l-2.511-3.681v-2.948l-2.511-2.212
				l-2.511,0.738l-2.511-0.738l-1.256,2.212l-3.767-4.426l1.256-2.954l-1.256-1.478l-1.256-3.698h16.322h16.322h25.111h26.367
				h27.623h13.811h23.856h20.089h16.322h18.834h30.134h26.367h36.412h11.3h22.6h25.111h25.111h22.6h16.322h28.878v25.066v16.853
				v26.213v8.694v30.975v24.299v25.546v18.336v23.137v7.679v27.094v29.639h-27.623h-17.578h-21.345h-17.578h-15.067h-11.3H384.26
				h-1.256H361.66H332.782z M365.426,291.089v-2.099l1.256-2.1l1.256-2.101l-3.767-4.908v-2.105l-1.256-0.702v-2.107l-2.511-0.703
				v-2.812l-1.256-1.407v-1.407l-2.511-1.408l-1.256-4.227l-2.511-1.41v7.045h-6.278l-1.256,1.407l-3.767,4.219v2.81h-12.556
				l-3.767,1.404v7.012h-16.322h-7.533v5.6l1.256,5.591v18.11l1.256,1.389l1.256,1.389v1.388l2.511,0.694v3.468h1.256v1.386h3.767
				v4.155h1.256h10.045h5.022v-2.077h6.278v-1.385h5.022v-17.361h1.256v-6.968h7.533v-2.093h1.256v-2.094h2.511v-1.397h5.022v-4.194
				H365.426z"/>
			<path fill="none" stroke="#000000" stroke-linejoin="round" d="M133.146,318.261l6.278-4.167l1.256-1.39v-2.782l2.511,0.696
				h12.556l-1.256-1.391l-8.789-4.178l-1.256-1.394l1.256-2.091l-1.256-2.79v-6.287l-1.256-1.399v-2.799l-2.511-2.801v-2.102
				l-2.511-0.701l-1.256-3.507l2.511-2.106h-21.345v2.808h-11.3v5.608v5.6l-2.511,2.098l-2.511,0.699l-2.511,1.397l-1.256,2.793
				h-2.511l-3.767-0.698l-2.511-2.095l-1.256-3.495l-2.511-0.699l-2.511,0.699l2.511-4.898l-1.256-2.802v-1.402l-1.256-2.104
				l1.256-1.403l1.256-2.106l-1.256-1.405v-2.108v-2.812l-2.511-3.519l-1.256-0.704l1.256-1.409l-1.256-4.23l2.511-4.941v-2.827
				l-1.256-2.121h7.533v-3.538h5.022v-1.416h3.767v-4.253h2.511v-2.128h5.022v-22.781H97.99v-27.966l6.278,0.72h8.789l1.256,1.439
				v5.751h2.511v20.056l11.3,0.714v22.067h12.556v9.213h5.022v2.83h3.767l1.256,2.828l-1.256,2.119l1.256,2.824v1.411v5.638
				l1.256,0.704l3.767-2.818l-1.256-1.41l1.256-1.41l2.511-1.411l2.511,0.705l1.256-2.117l1.256-1.412h10.045h7.533v-1.412v-9.903
				l1.256-2.834l5.022,1.418V242.5l-2.511-0.709l-2.511-0.709l-2.511-2.129l2.511-2.13l-2.511-2.131h5.022v-5.689h11.3v-0.712h6.278
				v-4.987h2.511v4.987h3.767l3.767,2.135l2.511,2.134v1.422l5.022,1.421v3.551l5.022,1.419l1.256,3.546h2.511v2.126l5.022,3.54
				l3.767-0.708l1.256,1.415l2.511-2.123v14.13v17.583v2.104v3.504v22.346h2.511v13.202v14.536v11.724h7.533h11.3v10.314h-13.811
				l-2.511,0.687h-10.045h-2.511h-11.3h-3.767h-11.3v-11.689v-11.036h5.022v-11.069h2.511v-4.16h3.767v-12.508v-11.155v-11.891
				v-2.804l-12.556-0.701l-3.767,0.701h-8.789v4.205l-1.256,0.7l-2.511,3.499v4.195h-1.256v2.794l-3.767,2.792h-2.511l-2.511,4.88
				l-2.511,2.089h-3.767l3.767,1.392v2.087h2.511l1.256,2.086l3.767,4.169h8.789v18.7h-1.256v28.212v10.267l-1.256,2.05
				l-3.767,0.683l1.256,1.366l-2.511,4.776l1.256,4.089l-2.511-0.681h-3.767l-3.767-0.681v1.362l-3.767,0.681l-1.256,1.362
				l-1.256-2.724h-5.022v1.362l-3.767-0.681l-2.511,1.362l-2.511-1.362h-2.511l-1.256-1.362h-2.511l-1.256,1.362l-1.256,0.681v2.723
				l-1.256,2.721l-2.511-0.68l-1.256-1.36l-1.256,0.68l-2.511-1.361h-5.022l-2.511-1.361l-2.511,2.042l-2.511,3.4l1.256,2.039
				l-2.511,2.037l-1.256-2.037l-3.767-2.039l-1.256-2.04l-1.256-2.721l1.256-2.042l-2.511-1.362v-0.681l-1.256-2.045l1.256-1.364
				v-4.094l-2.511-1.366v-1.366l-3.767-4.786l-3.767-0.684L104.268,372l-1.256-2.737l-2.511-1.369l-1.256-1.37l-2.511-4.798
				l2.511-1.372v-6.18H97.99l-5.022-4.126v-3.442l-2.511-2.067l-2.511-3.447l1.256-0.69l-2.511-3.451v-4.145l-2.511-0.691v-2.767
				l1.256-2.077l-1.256-2.078h-2.511l1.256-5.546l-5.022-3.471l-1.256-2.779l2.511-1.39l-1.256-1.391l2.511-2.783l1.256,2.088
				l1.256-0.696l1.256-2.088l3.767-2.786h3.767l1.256-2.091h2.511v-2.79v-1.396h1.256l2.511,5.58v2.787l2.511,2.785l2.511-2.785
				l2.511-0.696l2.511-2.787l2.511-1.394h2.511l1.256,1.394l3.767,3.484h2.511l1.256,2.089h3.767l3.767,2.087v3.476l1.256,0.695
				L133.146,318.261z M28.933,161.448l1.256,0.726v8.696h5.022h12.556v5.785h5.022v-5.785v-5.795h20.089l-2.511-4.352l2.511-1.452
				h6.278l2.511,5.079l1.256-0.725l2.511,2.175l1.256,2.174l2.511,1.448v5.064v0.723l1.256,3.612v2.166h1.256l1.256,2.885
				l-1.256,1.442l-1.256,3.602H77.901v4.317v1.438l-1.256,2.874l2.511,2.154l1.256,3.587l-1.256,2.15l1.256,4.297l2.511,1.431v5.718
				h-5.022v2.856H66.6l-3.767,1.427l-5.022-2.855v-1.428l-2.511-1.429l-2.511-0.715l-2.511-2.145L44,211.163l-1.256,0.715
				l-3.767-0.715v2.86h3.767v2.858l2.511,0.714v2.142l2.511,0.714l1.256,4.278h3.767v2.849l-2.511,0.712l-1.256,2.846v8.526h1.256
				v5.672H44v0.708l-3.767,2.832l-1.256-1.416l1.256-2.833l-2.511-1.418l-2.511-2.127l-2.511-0.709v-4.97l-3.767-4.265h-1.256
				l-2.511-4.983v-0.712l-3.767-4.991l-2.511-1.427l-1.256-2.142l-1.256-0.714v-2.144l-2.511-2.145l-7.533-2.862l-1.256-3.581
				l-5.022-2.867l-3.767-2.152v-0.718l5.022-1.436v-0.718l-2.511-0.718l-1.256-2.156l-1.256-1.438v-1.438l2.511-2.159v-2.16
				l-2.511-2.161l1.256-2.163l-2.511-1.443l-1.256-2.887h-1.256l-1.256-2.167v-2.891l-2.511-1.447l-5.022-7.967h-1.256v-16.717
				v-24.128V94.767H6.333h21.345h13.811L44,96.986l-1.256,2.218L44,104.373l-1.256,1.475l-1.256,2.212L44,108.797l2.511,3.683
				L44,113.952l-1.256,2.942l2.511,1.47h-11.3v5.14h2.511v24.128h-7.533v5.824V161.448z"/>
			<path fill="none" stroke="#000000" stroke-linejoin="round" d="M192.158,374.051v-10.267v-28.212h1.256v-18.7h-8.789
				l-3.767-4.169l-1.256-2.086h-2.511v-2.087l-3.767-1.392h3.767l2.511-2.089l2.511-4.88h2.511l3.767-2.792v-2.794h1.256v-4.195
				l2.511-3.499l1.256-0.7v-4.205h8.789l3.767-0.701l12.556,0.701v2.804v11.891v11.155v12.508h-3.767v4.16h-2.511v11.069h-5.022
				v11.036v11.689h-1.256v32.802l-2.511-1.361l-2.511-4.767l-2.511-0.682l1.256-2.045l-6.278-7.509L192.158,374.051z"/>
			<path fill="none" stroke="#000000" stroke-linejoin="round" d="M138.168,282.686l2.511,0.701v2.102l2.511,2.801v2.799
				l1.256,1.399v6.287l1.256,2.79l-1.256,2.091l1.256,1.394l8.789,4.178l1.256,1.391H143.19l-2.511-0.696v2.782l-1.256,1.39
				l-6.278,4.167l-1.256-3.472l-1.256-0.695v-3.476l-3.767-2.087h-3.767l-1.256-2.089h-2.511l-3.767-3.484l-1.256-1.394h-2.511
				l-2.511,1.394l-2.511,2.787l-2.511,0.696l-2.511,2.785l-2.511-2.785v-2.787l-2.511-5.58h-1.256h2.511l1.256-2.793l2.511-1.397
				l2.511-0.699l2.511-2.098v-5.6v-5.608h11.3v-2.808h21.345l-2.511,2.106L138.168,282.686z"/>
			<path fill="none" stroke="#000000" stroke-linejoin="round" d="M313.948,328.658h-1.256v-4.155h-3.767v-1.386h-1.256v-3.468
				l-2.511-0.694v-1.388l-1.256-1.389l-1.256-1.389v-18.11l-1.256-5.591v-5.6h7.533h16.322v-7.012l3.767-1.404h12.556v-2.81
				l3.767-4.219l1.256-1.407h6.278v-7.045l2.511,1.41l1.256,4.227l2.511,1.408v1.407l1.256,1.407v2.812l2.511,0.703v2.107
				l1.256,0.702v2.105l3.767,4.908l-1.256,2.101l-1.256,2.1v2.099h-7.533v4.194h-5.022v1.397h-2.511v2.094h-1.256v2.093h-7.533
				v6.968h-1.256v17.361h-5.022v1.385h-6.278v2.077h-5.022H313.948z"/>
			<path fill="none" stroke="#000000" stroke-linejoin="round" d="M81.667,250.998l1.256,2.121v2.827l-2.511,4.941l1.256,4.23
				l-1.256,1.409l1.256,0.704l2.511,3.519v2.812v2.108l1.256,1.405l-1.256,2.106l-1.256,1.403l1.256,2.104v1.402l1.256,2.802
				l-2.511,4.898l2.511-0.699l2.511,0.699l1.256,3.495l2.511,2.095l3.767,0.698v1.396v2.79h-2.511l-1.256,2.091h-3.767l-3.767,2.786
				l-1.256,2.088l-1.256,0.696l-1.256-2.088l-2.511,2.783l1.256,1.391l-2.511,1.39l-1.256-0.695l-2.511,2.085l1.256,1.389
				l-5.022,4.858l-1.256,1.387l-2.511,1.386l-2.511-0.693v4.157l-3.767,1.384l-1.256-2.077l-2.511-0.693v-2.079l-6.278-2.773
				l1.256-1.387l-1.256-2.082l2.511-2.083v-3.475l-1.256-1.391l-1.256-2.087l2.511-4.875l5.022-1.394v-0.697l-1.256-3.488v-2.793
				l-2.511-0.699v-2.796l1.256-3.498l-2.511-2.1v-2.803h2.511v-4.91l-1.256-1.404l2.511-1.405v-1.405l1.256-3.515l-1.256-2.111
				l1.256-1.408l1.256-2.113l-1.256-3.524l2.511-1.411v-2.117l1.256-3.531l-1.256-3.535l-1.256-0.707l-2.511,0.707l-1.256,2.121
				l-3.767-0.707h-3.767l-1.256-2.829l1.256-1.416L44,246.043v-0.708h6.278v-5.672h-1.256v-8.526l1.256-2.846l2.511-0.712v-2.849
				h-3.767l-1.256-4.278l-2.511-0.714v-2.142l-2.511-0.714v-2.858h-3.767v-2.86l3.767,0.715L44,211.163l6.278,1.43l2.511,2.145
				l2.511,0.715l2.511,1.429v1.428l5.022,2.855l3.767-1.427h11.3v-2.856h5.022v-5.718l-2.511-1.431l-1.256-4.297l1.256-2.15
				l-1.256-3.587l-2.511-2.154l1.256-2.874v-1.438v-4.317h12.556h7.533v27.966h7.533v22.781h-5.022v2.128H97.99v4.253h-3.767v1.416
				h-5.022v3.538H81.667z"/>
			<path fill="none" stroke="#000000" stroke-linejoin="round" d="M224.802,240.372l-5.022-1.419v-3.551l-5.022-1.421v-1.422
				l-2.511-2.134l-3.767-2.135h-3.767v-4.987h-2.511v4.987h-6.278v0.712h-11.3v5.689h-5.022h-6.278v-14.241h-3.767l-2.511-0.714
				l-2.511-2.856l-2.511-0.714V194.67l5.022,0.719v-7.194h12.556v-5.766h11.3h18.834l-1.256,2.884l-1.256,4.322l1.256,1.439
				l7.533,2.877h3.767v5.747h5.022v1.435v4.302h-5.022l-1.256,2.865v4.293l1.256,0.715v9.282h5.022v11.391v5.681V240.372z"/>
			<path fill="none" stroke="#000000" stroke-linejoin="round" d="M173.324,257.358h-10.045l-1.256,1.412l-1.256,2.117l-2.511-0.705
				l-2.511,1.411l-1.256,1.41l1.256,1.41l-3.767,2.818l-1.256-0.704v-5.638v-1.411l-1.256-2.824l1.256-2.119l-1.256-2.828h-3.767
				v-2.83h-5.022v-9.213h-12.556v-22.067l-11.3-0.714v-20.056h-2.511v-5.751l-1.256-1.439v-4.322l-1.256-4.327l1.256-1.444h2.511
				l1.256-2.889l-1.256-2.891l1.256-3.617l-1.256-2.172l2.511-0.724l1.256-1.449l1.256,2.898l2.511,5.066v5.058v1.444v2.165
				l1.256,3.605l2.511,2.881l2.511,0.72l3.767-2.16l2.511,0.72l2.511-1.441l1.256-0.72l1.256,1.441l3.767,1.44l2.511,3.598
				l2.511,0.719l2.511,2.157l2.511,0.719l2.511-1.437l1.256,0.719l3.767-0.719v21.497l2.511,0.714l2.511,2.856l2.511,0.714h3.767
				v14.241h6.278l2.511,2.131l-2.511,2.13l2.511,2.129l2.511,0.709l2.511,0.709v2.126l-5.022-1.418l-1.256,2.834v9.903v1.412
				H173.324z"/>
			<path fill="none" stroke="#000000" stroke-linejoin="round" d="M113.057,189.635h-8.789l-6.278-0.72h-7.533l1.256-3.602
				l1.256-1.442l-1.256-2.885h-1.256v-2.166l-1.256-3.612v-0.723v-5.064l-2.511-1.448l-1.256-2.174l-2.511-2.175l-1.256,0.725
				l-2.511-5.079h-6.278l-2.511,1.452l2.511,4.352H52.789v5.795v5.785h-5.022v-5.785H35.211h-5.022v-8.696l-1.256-0.726v-7.992
				v-5.824h7.533v-24.128h-2.511v-5.14h11.3l-2.511-1.47L44,113.952l2.511-1.472L44,108.797l-2.511-0.737l1.256-2.212L44,104.373
				l-1.256-5.169L44,96.986l-2.511-2.219h16.322h13.811l1.256,3.698l1.256,1.478l-1.256,2.954l3.767,4.426l1.256-2.212l2.511,0.738
				l2.511-0.738l2.511,2.212v2.948l2.511,3.681l-2.511,4.412v2.938l3.767,1.468l1.256-0.734l2.511,1.468l1.256-0.734l3.767,2.934
				v5.861l2.511,2.927l2.511-0.731l1.256,3.656l-2.511,2.192l1.256,2.19l6.278,5.105v3.642l2.511,0.728l1.256,2.183l3.767-0.727
				l1.256,0.727h6.278h-5.022l1.256,4.361l1.256,0.726v1.452l2.511,1.452v2.176l-1.256,2.175h-3.767l-1.256,1.449l-2.511,0.724
				l1.256,2.172l-1.256,3.617l1.256,2.891l-1.256,2.889h-2.511l-1.256,1.444l1.256,4.327V189.635z"/>
		</g>
		<g>
			<g>
				<circle cx="123.625" cy="349.391" r="5.028"/>
			</g>
			<g>
				<circle cx="366.326" cy="331.008" r="5.062"/>
			</g>
			<g>
				<circle cx="300.531" cy="133.159" r="3.38"/>
			</g>
			<g>
				<circle cx="186.694" cy="272.45" r="3.315"/>
			</g>
			<g>
				<circle cx="297.35" cy="343.62" r="4.822"/>
			</g>
			<g>
				<circle cx="498.842" cy="324.979" r="2.065"/>
			</g>
			<g>
				<circle cx="193.344" cy="208.537" r="13.991"/>
			</g>
			<g>
				<circle cx="234.307" cy="170.445" r="3.431"/>
			</g>
			<g>
				<circle cx="452.387" cy="277.585" r="5.611"/>
			</g>
			<g>
				<circle cx="453.432" cy="109.571" r="2.458"/>
			</g>
			<g>
				<circle cx="482.577" cy="211.269" r="4.762"/>
			</g>
			<g>
				<circle cx="116.252" cy="290.122" r="4.376"/>
			</g>
			<g>
				<circle cx="504.173" cy="272.363" r="3.288"/>
			</g>
			<g>
				<circle cx="288.672" cy="211.337" r="5.495"/>
			</g>
			<g>
				<circle cx="72.189" cy="142.495" r="15.767"/>
			</g>
			<g>
				<circle cx="201.304" cy="323.255" r="17.777"/>
			</g>
			<g>
				<circle cx="388.668" cy="210.473" r="2.002"/>
			</g>
			<g>
				<circle cx="119.476" cy="114.878" r="5.012"/>
			</g>
			<g>
				<circle cx="290.795" cy="269.33" r="1.617"/>
			</g>
			<g>
				<circle cx="99.514" cy="267.816" r="2.748"/>
			</g>
			<g>
				<circle cx="248.778" cy="120.047" r="6.466"/>
			</g>
			<g>
				<circle cx="159.822" cy="284.398" r="4.629"/>
			</g>
			<g>
				<circle cx="241.907" cy="225.879" r="2.366"/>
			</g>
			<g>
				<circle cx="70.424" cy="186.078" r="7.572"/>
			</g>
			<g>
				<circle cx="146.554" cy="220.74" r="13.703"/>
			</g>
			<g>
				<circle cx="207.84" cy="124.546" r="2.307"/>
			</g>
			<g>
				<circle cx="11.383" cy="125.829" r="5.987"/>
			</g>
			<g>
				<circle cx="442.398" cy="186.19" r="2.444"/>
			</g>
			<g>
				<circle cx="167.636" cy="338.846" r="5.22"/>
			</g>
			<g>
				<circle cx="214.014" cy="255.104" r="2.272"/>
			</g>
			<g>
				<circle cx="29.538" cy="219.188" r="2.93"/>
			</g>
			<g>
				<circle cx="77.789" cy="226.469" r="17.786"/>
			</g>
			<g>
				
					<ellipse transform="matrix(0.3827 -0.9239 0.9239 0.3827 -40.8342 462.4936)" cx="325.668" cy="261.803" rx="3.112" ry="3.112"/>
			</g>
			<g>
				<circle cx="230.153" cy="326.731" r="6.413"/>
			</g>
			<g>
				<circle cx="332.308" cy="221.047" r="1.303"/>
			</g>
			<g>
				<circle cx="347.473" cy="144.696" r="3.356"/>
			</g>
			<g>
				<circle cx="153.96" cy="147.171" r="3.619"/>
			</g>
			<g>
				<circle cx="449.779" cy="332.835" r="2.394"/>
			</g>
			<g>
				<circle cx="122.019" cy="238.067" r="3.975"/>
			</g>
			<g>
				<circle cx="461.078" cy="238.039" r="1.832"/>
			</g>
			<g>
				<circle cx="68.973" cy="288.618" r="9.159"/>
			</g>
			<g>
				<circle cx="497.681" cy="176.691" r="5.884"/>
			</g>
			<g>
				<circle cx="477.285" cy="142.757" r="4.832"/>
			</g>
			<g>
				<circle cx="400.366" cy="278.847" r="4.809"/>
			</g>
			<g>
				<circle cx="23.468" cy="184.146" r="4.694"/>
			</g>
			<g>
				<circle cx="500.255" cy="113.794" r="3.416"/>
			</g>
			<g>
				<circle cx="134.664" cy="300.382" r="9.163"/>
			</g>
			<g>
				<circle cx="280.937" cy="315.278" r="4.657"/>
			</g>
			<g>
				<circle cx="256.461" cy="305.932" r="3.467"/>
			</g>
			<g>
				<circle cx="153.243" cy="173.383" r="3.94"/>
			</g>
			<g>
				<circle cx="177.752" cy="118.321" r="3.719"/>
			</g>
			<g>
				<circle cx="376.125" cy="280.334" r="1.457"/>
			</g>
			<g>
				<circle cx="403.29" cy="137.725" r="4.572"/>
			</g>
			<g>
				<circle cx="260.758" cy="263.814" r="2.25"/>
			</g>
			<g>
				<circle cx="511.791" cy="231.117" r="1.842"/>
			</g>
			<g>
				<circle cx="331.136" cy="298.078" r="20.509"/>
			</g>
		</g>
	</g>
	<path d="M237.594,102.362"/>
	<g>
		<path fill="none" stroke="#000000" stroke-miterlimit="10" d="M212.051,90.146c1.921,49.943-14.937,104.58-19.53,118.441"/>
		<g>
			<polygon points="191.384,211.925 190.987,206.566 192.556,208.316 194.853,207.821 			"/>
		</g>
	</g>
	<g>
		<path fill="none" stroke="#000000" stroke-miterlimit="10" d="M327.552,92.367c-1.947,75.926-59.906,110.9-74.195,118.381"/>
		<g>
			<polygon points="250.197,212.311 253.738,208.269 253.591,210.615 255.555,211.905 			"/>
		</g>
	</g>
	<g>
		<path fill="none" stroke="#000000" stroke-miterlimit="10" d="M454.16,378.9c7.673-38.366-40.521-59.209-53.807-64.18"/>
		<g>
			<polygon points="397.028,313.546 402.398,313.333 400.595,314.841 401.011,317.154 			"/>
		</g>
	</g>
	<g>
		<path fill="none" stroke="#000000" stroke-miterlimit="10" d="M323.11,378.9c-16.89-75.065-52.847-64.425-63.596-59.317"/>
		<g>
			<polygon points="256.416,321.272 259.862,317.148 259.77,319.497 261.764,320.741 			"/>
		</g>
	</g>
	<g>
		<path fill="none" stroke="#000000" stroke-miterlimit="10" d="M105.434,387.785c28.929-14.897,49.239-63.51,54.299-76.659"/>
		<g>
			<polygon points="160.963,307.822 161.035,313.196 159.575,311.353 157.252,311.708 			"/>
		</g>
	</g>
	<g>
		<path fill="none" stroke="#000000" stroke-miterlimit="10" d="M72,293.5c21.137,0,31.05-18.807,34.249-26.594"/>
		<g>
			<polygon points="107.462,263.592 107.601,268.964 106.118,267.14 103.799,267.524 			"/>
		</g>
	</g>
	<g>
		<path fill="none" stroke="#000000" stroke-miterlimit="10" d="M78.779,92.367c1.744,17.443,12.72,34.945,17.352,41.657"/>
		<g>
			<polygon points="98.19,136.887 93.653,134.007 95.994,133.793 96.968,131.654 			"/>
		</g>
	</g>
	<g>
		<g>
			<circle cx="240.724" cy="30.421" r="2.159"/>
			<text transform="matrix(1 0 0 1 245.1245 35.2432)" display="none" font-family="'Arial-ItalicMT'" font-size="14px">1,000</text>
			<circle cx="319.724" cy="30.421" r="6.359"/>
			<text transform="matrix(1 0 0 1 331.1245 34.5146)" display="none" font-family="'Arial-ItalicMT'" font-size="14px">10,000</text>
			<circle cx="415.724" cy="30.421" r="19.639"/>
			<text transform="matrix(1 0 0 1 442.1245 34.7891)" display="none" font-family="'Arial-ItalicMT'" font-size="14px">100,000</text>
		</g>
	</g>
	<g>
		<rect x="395.05" y="442.5" fill="#F2DF91" width="146.45" height="21.678"/>
		<rect x="58.5" y="442.5" fill="#E5AE89" width="146.45" height="21.678"/>
		<rect x="214.236" y="442.5" fill="#86BF86" width="168.588" height="21.678"/>
		<rect x="395.05" y="442.5" fill="none" stroke="#F2DF91" width="146.45" height="123.5"/>
		<rect x="58.5" y="442.5" fill="none" stroke="#E5AE89" width="146.45" height="123.5"/>
		<rect x="214.236" y="442.5" fill="none" stroke="#86BF86" width="168.588" height="123.5"/>
	</g>
	<g>
		<circle cx="434.136" cy="514.281" r="21.432"/>
	</g>
	<g>
		<circle cx="264.136" cy="514.281" r="43.274"/>
	</g>
	<g>
		<circle cx="100.147" cy="514.281" r="16.202"/>
	</g>
</g>
<style type="text/css">
#g-mt-economy-2-regions-medium-img rect, #g-mt-economy-2-regions-medium-img circle, #g-mt-economy-2-regions-medium-img path, #g-mt-economy-2-regions-medium-img line, #g-mt-economy-2-regions-medium-img polyline { vector-effect: non-scaling-stroke; }
</style>
</svg>

